<svg width="294" height="294" viewBox="0 0 294 294" fill="none" xmlns="http://www.w3.org/2000/svg">
<path d="M274.531 185.927H178.18V130.159H274.531V185.927ZM178.768 185.339H273.943V130.747H178.768V185.339Z" fill="#E0E0E0"/>
<path d="M254.657 159.894H191.073V161.759H254.657V159.894Z" fill="#F0F0F0"/>
<path d="M259.036 166.845H191.073V168.88H259.036V166.845Z" fill="#F0F0F0"/>
<path d="M259.036 173.878H191.073V175.913H259.036V173.878Z" fill="#F0F0F0"/>
<path d="M213.295 149.798H191.073V154.637H213.295V149.798Z" fill="#F0F0F0"/>
<path d="M274.237 130.452H178.474V139.33H274.237V130.452Z" fill="#E0E0E0"/>
<path d="M266.869 138.004C266.746 137.887 267.981 136.398 269.624 134.68C271.269 132.96 272.701 131.662 272.823 131.779C272.945 131.896 271.711 133.384 270.066 135.103C268.423 136.822 266.991 138.121 266.869 138.004Z" fill="white"/>
<path d="M272.823 138.004C272.701 138.121 271.269 136.822 269.625 135.103C267.98 133.384 266.746 131.896 266.869 131.779C266.991 131.663 268.422 132.96 270.067 134.68C271.712 136.398 272.946 137.887 272.823 138.004Z" fill="white"/>
<path d="M155.954 20.0238H60.1895V75.2047H155.954V20.0238Z" fill="#E6E6E6"/>
<path d="M136.372 49.4656H72.7891V51.3307H136.372V49.4656Z" fill="#F0F0F0"/>
<path d="M140.751 56.4169H72.7891V58.4514H140.751V56.4169Z" fill="#F0F0F0"/>
<path d="M140.751 63.4487H72.7891V65.4832H140.751V63.4487Z" fill="#F0F0F0"/>
<path d="M95.0108 39.3702H72.7891V44.2089H95.0108V39.3702Z" fill="#F0F0F0"/>
<path d="M155.954 20.0238H60.1895V28.9014H155.954V20.0238Z" fill="#E0E0E0"/>
<path d="M148.256 27.5332C148.134 27.4162 149.368 25.928 151.012 24.2092C152.656 22.4899 154.088 21.1916 154.21 21.308C154.333 21.425 153.099 22.9127 151.454 24.632C149.811 26.3507 148.379 27.6496 148.256 27.5332Z" fill="white"/>
<path d="M154.211 27.5332C154.089 27.6502 152.657 26.3513 151.013 24.6326C149.368 22.9132 148.135 21.425 148.256 21.3086C148.379 21.1916 149.81 22.4905 151.454 24.2098C153.1 25.9279 154.333 27.4162 154.211 27.5332Z" fill="white"/>
<path d="M119.684 122.533H23.332V66.7645H119.684V122.533ZM23.92 121.945H119.096V67.3525H23.92V121.945Z" fill="#E0E0E0"/>
<path d="M99.8091 96.4998H36.2256V98.3649H99.8091V96.4998Z" fill="#F0F0F0"/>
<path d="M104.189 103.452H36.2256V105.486H104.189V103.452Z" fill="#F0F0F0"/>
<path d="M104.189 110.484H36.2256V112.518H104.189V110.484Z" fill="#F0F0F0"/>
<path d="M58.4473 86.4043H36.2256V91.2435H58.4473V86.4043Z" fill="#F0F0F0"/>
<path d="M119.39 67.0585H23.626V75.9367H119.39V67.0585Z" fill="#E0E0E0"/>
<path d="M230.882 135.313H117.807V236.541H230.882V135.313Z" fill="#E6E6E6"/>
<path d="M123.491 103.425H34.916V195.452H123.491V103.425Z" fill="#F0F0F0"/>
<path d="M123.491 103.425H34.916V113.452H123.491V103.425Z" fill="#E0E0E0"/>
<path d="M42.2304 108.336C42.2304 109.409 41.3978 110.279 40.3706 110.279C39.3433 110.279 38.5107 109.409 38.5107 108.336C38.5107 107.262 39.3433 106.392 40.3706 106.392C41.3978 106.392 42.2304 107.262 42.2304 108.336Z" fill="white"/>
<path d="M49.7734 108.336C49.7734 109.409 48.9408 110.279 47.9136 110.279C46.8863 110.279 46.0537 109.409 46.0537 108.336C46.0537 107.262 46.8863 106.392 47.9136 106.392C48.9408 106.392 49.7734 107.262 49.7734 108.336Z" fill="white"/>
<path d="M57.3173 108.336C57.3173 109.409 56.4847 110.279 55.4575 110.279C54.4303 110.279 53.5977 109.409 53.5977 108.336C53.5977 107.262 54.4303 106.392 55.4575 106.392C56.4847 106.392 57.3173 107.262 57.3173 108.336Z" fill="white"/>
<path d="M261.887 40.1516H148.812V152.848H261.887V40.1516Z" fill="#F0F0F0"/>
<path d="M261.887 40.1516H148.812V53.3522H261.887V40.1516Z" fill="#E0E0E0"/>
<path d="M158.441 46.6161C158.441 48.0297 157.345 49.1757 155.993 49.1757C154.641 49.1757 153.545 48.0297 153.545 46.6161C153.545 45.2026 154.641 44.0571 155.993 44.0571C157.345 44.0571 158.441 45.2031 158.441 46.6161Z" fill="white"/>
<path d="M167.655 44.8856C168.654 45.8852 168.69 47.4704 167.733 48.4259C166.777 49.382 165.192 49.3467 164.193 48.3477C163.194 47.3481 163.158 45.7629 164.114 44.8068C165.07 43.8507 166.655 43.886 167.655 44.8856Z" fill="white"/>
<path d="M178.303 46.6161C178.303 48.0297 177.206 49.1757 175.854 49.1757C174.502 49.1757 173.406 48.0297 173.406 46.6161C173.406 45.2026 174.502 44.0571 175.854 44.0571C177.206 44.0571 178.303 45.2031 178.303 46.6161Z" fill="white"/>
<path d="M237.46 266.441C237.46 266.525 196.63 266.595 146.274 266.595C95.9021 266.595 55.0801 266.526 55.0801 266.441C55.0801 266.356 95.9015 266.288 146.274 266.288C196.63 266.288 237.46 266.357 237.46 266.441Z" fill="#263238"/>
<path d="M197.674 194.459C188.591 188.112 186.53 176.333 186.889 165.744C186.949 163.977 186.754 162.113 187.595 160.562C188.436 159.012 190.398 157.952 191.98 158.697C193.293 159.315 193.865 160.841 194.599 162.104C195.576 163.784 197.032 165.175 198.745 166.063C199.87 166.647 201.263 167.004 202.374 166.392C203.899 165.55 204.078 163.444 204.067 161.686C204.047 158.41 204.027 155.133 204.006 151.857C203.995 150.099 203.99 148.304 204.537 146.636C205.083 144.968 206.291 143.418 207.963 142.949C209.636 142.481 211.704 143.445 212.057 145.166C212.204 145.882 212.058 146.626 212.107 147.355C212.156 148.085 212.496 148.892 213.189 149.096C213.89 149.302 214.594 148.803 215.119 148.289C216.934 146.514 218.165 144.228 219.316 141.954C220.467 139.68 221.583 137.352 223.23 135.416C224.876 133.48 227.153 131.946 229.671 131.803C232.188 131.661 234.871 133.214 235.507 135.686C236.145 138.165 234.699 140.679 233.126 142.685C230.791 145.662 228.03 148.294 224.955 150.473C224.402 150.867 223.801 151.292 223.589 151.943C223.207 153.115 224.318 154.279 225.475 154.664C226.785 155.1 228.207 154.965 229.577 155.126C230.948 155.287 232.433 155.892 232.951 157.187C233.671 158.984 232.169 160.867 230.69 162.1C227.729 164.571 224.348 166.522 220.741 167.843C219.448 168.317 218.087 168.732 217.045 169.64C216.002 170.549 215.372 172.129 216.003 173.367C216.633 174.607 218.25 175.003 219.605 174.751C220.959 174.5 222.171 173.765 223.463 173.278C225.878 172.366 228.998 172.532 230.546 174.62C231.562 175.993 231.652 177.904 231.138 179.539C230.624 181.175 229.581 182.585 228.473 183.884C224.601 188.427 219.644 192.084 214.04 194.027C208.436 195.97 203.244 196.496 197.674 194.459Z" fill="#407BFF"/>
<path d="M232.967 133.275C232.971 133.279 232.913 133.336 232.797 133.442C232.667 133.558 232.494 133.712 232.275 133.908C231.814 134.315 231.135 134.915 230.282 135.712C228.574 137.3 226.174 139.689 223.568 142.959C222.259 144.588 220.9 146.433 219.477 148.439C218.057 150.45 216.553 152.607 215.057 154.935C213.561 157.261 212.063 159.754 210.72 162.447C210.042 163.791 209.438 165.197 208.821 166.631C208.208 168.065 207.586 169.519 206.956 170.99C204.458 176.885 202.261 182.584 200.691 187.907C199.113 193.226 198.173 198.155 197.762 202.331C197.34 206.51 197.427 209.92 197.597 212.26C197.689 213.431 197.779 214.339 197.861 214.952C197.895 215.246 197.922 215.477 197.942 215.651C197.959 215.808 197.965 215.89 197.96 215.891C197.954 215.892 197.937 215.813 197.91 215.656C197.882 215.484 197.844 215.253 197.797 214.961C197.693 214.35 197.583 213.443 197.471 212.271C197.263 209.929 197.14 206.506 197.534 202.31C197.918 198.115 198.838 193.161 200.407 187.821C201.965 182.478 204.159 176.762 206.66 170.862C207.29 169.39 207.913 167.935 208.527 166.501C209.143 165.071 209.754 163.653 210.437 162.303C211.793 159.596 213.302 157.097 214.809 154.77C216.315 152.441 217.829 150.286 219.259 148.281C220.695 146.279 222.068 144.438 223.391 142.813C226.027 139.552 228.461 137.179 230.198 135.618C231.065 134.834 231.757 134.249 232.232 133.858C232.461 133.672 232.64 133.527 232.775 133.417C232.899 133.318 232.964 133.27 232.967 133.275Z" fill="#263238"/>
<path d="M210.53 162.29C210.508 162.293 210.448 162.026 210.358 161.54C210.266 161.054 210.155 160.348 210.032 159.471C209.783 157.721 209.523 155.293 209.245 152.614C208.968 149.933 208.673 147.515 208.399 145.773C208.264 144.903 208.148 144.198 208.061 143.713C207.977 143.226 207.942 142.955 207.963 142.949C207.985 142.945 208.063 143.207 208.184 143.686C208.309 144.165 208.46 144.864 208.624 145.733C208.957 147.472 209.289 149.895 209.566 152.578C209.833 155.223 210.074 157.615 210.259 159.443C210.347 160.268 210.422 160.963 210.483 161.521C210.534 162.013 210.553 162.287 210.53 162.29Z" fill="#263238"/>
<path d="M233.132 158.066C233.133 158.089 232.811 158.126 232.231 158.174C231.651 158.226 230.811 158.296 229.777 158.416C227.706 158.64 224.858 159.048 221.735 159.637C218.612 160.231 215.808 160.889 213.794 161.424C212.785 161.684 211.974 161.916 211.412 162.074C210.851 162.233 210.538 162.312 210.53 162.29C210.523 162.269 210.824 162.15 211.375 161.952C211.926 161.758 212.73 161.491 213.734 161.201C215.738 160.608 218.543 159.912 221.675 159.315C224.808 158.725 227.672 158.351 229.755 158.186C230.795 158.096 231.64 158.06 232.224 158.048C232.808 158.038 233.131 158.043 233.132 158.066Z" fill="#263238"/>
<path d="M200.685 187.405C200.674 187.41 200.622 187.315 200.53 187.129C200.425 186.908 200.297 186.638 200.143 186.311C199.811 185.6 199.357 184.558 198.812 183.263C197.722 180.674 196.328 177.05 194.844 173.03C193.359 169.009 192.001 165.377 190.966 162.769C190.459 161.501 190.042 160.458 189.732 159.683C189.599 159.347 189.49 159.069 189.4 158.841C189.328 158.648 189.294 158.544 189.305 158.538C189.315 158.534 189.368 158.629 189.46 158.815C189.565 159.036 189.692 159.305 189.846 159.632C190.178 160.344 190.633 161.386 191.177 162.681C192.268 165.27 193.662 168.894 195.146 172.915C196.63 176.935 197.988 180.567 199.023 183.175C199.531 184.442 199.947 185.486 200.258 186.26C200.391 186.597 200.5 186.875 200.59 187.102C200.662 187.297 200.695 187.4 200.685 187.405Z" fill="#263238"/>
<path d="M230.719 177.725C230.722 177.737 230.619 177.778 230.421 177.848C230.186 177.927 229.898 178.024 229.549 178.141C228.743 178.402 227.655 178.754 226.332 179.182C223.617 180.063 219.88 181.323 215.754 182.72C211.625 184.118 207.874 185.344 205.139 186.169C203.772 186.581 202.662 186.904 201.892 187.111C201.535 187.205 201.241 187.282 201.002 187.345C200.797 187.395 200.689 187.416 200.686 187.405C200.683 187.395 200.786 187.352 200.984 187.282C201.218 187.203 201.506 187.107 201.856 186.99C202.661 186.729 203.749 186.377 205.072 185.947C207.787 185.067 211.524 183.807 215.652 182.409C219.779 181.012 223.53 179.786 226.265 178.961C227.632 178.549 228.742 178.226 229.513 178.018C229.869 177.925 230.163 177.847 230.403 177.785C230.607 177.735 230.715 177.715 230.719 177.725Z" fill="#263238"/>
<path d="M218.466 35.0913L215.436 36.175L214.141 32.2183C211.751 24.9201 204.125 21.0152 197.15 23.5107C190.17 26.0073 186.439 33.9753 188.828 41.2735L190.124 45.2302L187.084 46.3174C184.72 47.163 183.44 49.8877 184.25 52.3615L192.68 78.1106C193.502 80.6219 196.112 81.9608 198.476 81.1152L229.86 69.8886C232.262 69.0295 233.542 66.2982 232.72 63.7875L224.29 38.0384C223.479 35.5647 220.868 34.2317 218.466 35.0913ZM194.546 39.2273C193.236 35.2277 195.28 30.8601 199.107 29.4912C202.93 28.1235 207.107 30.2656 208.417 34.2652L209.712 38.2224L195.841 43.184L194.546 39.2273ZM212.191 62.0729L214.344 68.6485C214.435 68.9266 214.276 69.2106 214.007 69.307L210.995 70.3842C210.765 70.4666 210.47 70.3449 210.379 70.0667L208.226 63.4911C205.894 63.3923 203.729 61.8465 202.919 59.3728C201.878 56.1923 203.506 52.7148 206.558 51.6229C209.609 50.5316 212.933 52.2368 213.975 55.4179C214.784 57.8916 213.979 60.5006 212.191 62.0729Z" fill="#407BFF"/>
<path d="M215.304 36.1039C215.333 36.1832 209.689 38.2965 202.699 40.8226C195.707 43.3498 190.017 45.3337 189.988 45.2543C189.96 45.1749 195.603 43.0623 202.595 40.535C209.584 38.009 215.275 36.0245 215.304 36.1039Z" fill="#263238"/>
<path d="M221.968 37.1875C221.974 37.1858 221.996 37.2381 222.036 37.3416C222.081 37.4616 222.137 37.6133 222.207 37.8026C222.358 38.2312 222.568 38.8275 222.835 39.5848C223.375 41.1589 224.144 43.3986 225.091 46.1575C226.035 48.9428 227.156 52.2486 228.4 55.9183C229.014 57.7605 229.685 59.6744 230.329 61.696C230.627 62.712 230.874 63.7981 230.77 64.9229C230.718 65.4809 230.566 66.0425 230.294 66.5505C230.017 67.055 229.631 67.4989 229.183 67.8606C228.279 68.5832 227.221 69.0054 226.199 69.3841C225.173 69.7528 224.161 70.1161 223.168 70.473C221.18 71.1839 219.263 71.8701 217.437 72.5246C213.786 73.8241 210.497 74.9954 207.726 75.982C204.974 76.9499 202.741 77.7354 201.171 78.2876C200.412 78.5475 199.814 78.7527 199.384 78.8997C199.193 78.962 199.039 79.012 198.917 79.0514C198.81 79.0843 198.756 79.0984 198.754 79.0931C198.752 79.0884 198.804 79.0643 198.906 79.022C199.026 78.9749 199.176 78.9156 199.363 78.8415C199.789 78.6815 200.38 78.4581 201.131 78.1753C202.693 77.6008 204.916 76.784 207.654 75.778C210.418 74.7737 213.699 73.5818 217.342 72.2594C219.166 71.5997 221.082 70.9082 223.067 70.1908C224.059 69.8327 225.069 69.4682 226.094 69.0983C227.109 68.7226 228.138 68.3057 228.991 67.6224C229.414 67.2814 229.77 66.8698 230.026 66.4053C230.277 65.9372 230.418 65.4192 230.468 64.8941C230.567 63.8375 230.334 62.782 230.042 61.7812C229.409 59.7797 228.738 57.8487 228.133 56.0088C226.913 52.3321 225.813 49.0181 224.886 46.2269C223.979 43.455 223.241 41.2048 222.723 39.6236C222.479 38.8586 222.287 38.2559 222.149 37.8232C222.091 37.6297 222.044 37.4751 222.008 37.3522C221.976 37.2446 221.963 37.1893 221.968 37.1875Z" fill="#263238"/>
<path d="M205.414 29.079C205.398 29.1049 205.101 28.9208 204.523 28.688C203.944 28.4669 203.068 28.2087 201.957 28.1735C200.853 28.1329 199.51 28.3034 198.169 28.8891C196.834 29.4677 195.518 30.4949 194.576 31.8926C193.615 33.2849 193.194 34.8961 193.194 36.3573C193.181 37.8249 193.493 39.132 193.792 40.2045C194.102 41.2782 194.419 42.1302 194.628 42.7218C194.839 43.3133 194.953 43.642 194.933 43.6502C194.914 43.6573 194.763 43.3439 194.517 42.7653C194.274 42.1855 193.925 41.3435 193.585 40.2669C193.256 39.1914 192.915 37.8678 192.912 36.3555C192.896 34.8514 193.326 33.1615 194.322 31.7203C195.299 30.2714 196.668 29.2148 198.058 28.6298C199.452 28.0388 200.837 27.8871 201.967 27.9565C203.106 28.0206 203.995 28.3187 204.57 28.578C204.855 28.7174 205.073 28.8314 205.21 28.9273C205.35 29.0184 205.42 29.0696 205.414 29.079Z" fill="#263238"/>
<path d="M205.68 52.0874C205.676 52.0798 205.778 52.0292 205.978 51.9392C206.176 51.8469 206.48 51.7287 206.885 51.6129C207.288 51.4865 207.804 51.3947 208.414 51.3589C209.021 51.3289 209.737 51.3918 210.476 51.6664C211.979 52.1944 213.363 53.7303 214.043 55.7653C214.37 56.7932 214.399 57.9868 214.07 59.1411C213.72 60.2906 213.076 61.3931 212.147 62.3198L212.186 62.164C212.967 64.3072 213.817 66.6398 214.703 69.0665L214.756 69.2141L214.608 69.2641C214.181 69.4069 213.724 69.5604 213.263 69.7145C212.273 70.0461 211.296 70.373 210.337 70.6941L210.193 70.7423L210.145 70.5971C209.34 68.1592 208.457 65.8607 207.816 63.6639L207.943 63.7639C206.739 63.6834 205.658 63.1783 204.796 62.5197C203.931 61.8547 203.268 61.0291 202.822 60.1606C202.382 59.2892 202.161 58.3643 202.198 57.5123C202.22 56.6609 202.416 55.89 202.692 55.2403C203.24 53.9296 204.058 53.1052 204.663 52.6554C205.28 52.2044 205.68 52.0874 205.68 52.0874C205.694 52.1139 205.307 52.2615 204.718 52.7266C204.141 53.1911 203.361 54.0166 202.849 55.3044C202.337 56.5609 202.114 58.3672 203.03 60.053C203.47 60.8862 204.117 61.6783 204.954 62.3127C205.787 62.9407 206.827 63.414 207.958 63.4834L208.057 63.4893L208.085 63.5834C208.733 65.7649 209.621 68.054 210.433 70.5018L210.24 70.4054C211.198 70.0843 212.175 69.7562 213.166 69.424C213.626 69.2699 214.083 69.1165 214.51 68.9736L214.415 69.1706C213.536 66.7415 212.69 64.4066 211.914 62.2622L211.883 62.1757L211.953 62.1063C212.832 61.2367 213.473 60.1583 213.811 59.0646C214.132 57.9609 214.113 56.8267 213.808 55.8365C213.166 53.8614 211.844 52.3597 210.412 51.8322C209.704 51.5559 209.012 51.4806 208.416 51.4965C207.82 51.5176 207.31 51.5935 206.908 51.704C206.101 51.9122 205.69 52.1133 205.68 52.0874Z" fill="#263238"/>
<path d="M187.509 221.863L128.778 221.591C121.715 221.559 116.014 215.808 116.044 208.744L116.667 61.5066C116.697 54.4389 122.452 48.7347 129.519 48.7676L188.249 49.0387C195.312 49.0716 201.013 54.8228 200.983 61.8859L200.36 209.123C200.331 216.191 194.576 221.896 187.509 221.863Z" fill="#455A64"/>
<path d="M188.166 54.1202L176.779 54.0678C175.252 54.0608 174.008 55.3497 174.002 56.9455L173.993 59.0111C173.986 60.6076 172.742 61.8959 171.215 61.8888L149.02 61.7865C147.493 61.7795 146.261 60.4794 146.267 58.883L146.276 56.8173C146.282 55.2209 145.05 53.9208 143.523 53.9138L139.518 53.895L129.552 53.8491C124.603 53.8262 120.572 57.821 120.551 62.7708L119.943 206.485C119.922 211.433 123.915 215.46 128.862 215.483L187.475 215.754C192.424 215.777 196.454 211.782 196.476 206.832L197.083 63.1172C197.104 58.1709 193.113 54.1437 188.166 54.1202Z" fill="white"/>
<path d="M180.277 196.583L136.692 196.382C136.241 196.38 135.877 195.889 135.88 195.285L135.928 183.882C135.93 183.278 136.299 182.791 136.75 182.793L180.335 182.994C180.786 182.997 181.15 183.488 181.147 184.092L181.099 195.494C181.097 196.097 180.729 196.586 180.277 196.583Z" fill="#407BFF"/>
<path d="M152.47 189.779C152.437 189.487 152.297 189.259 152.052 189.097C151.807 188.934 151.506 188.852 151.148 188.851C150.887 188.849 150.658 188.891 150.462 188.974C150.267 189.058 150.115 189.174 150.005 189.321C149.896 189.468 149.842 189.636 149.841 189.825C149.84 189.982 149.877 190.118 149.952 190.232C150.028 190.343 150.126 190.437 150.245 190.513C150.364 190.586 150.488 190.647 150.619 190.696C150.749 190.743 150.869 190.781 150.978 190.81L151.577 190.974C151.731 191.015 151.902 191.072 152.09 191.144C152.28 191.216 152.461 191.314 152.633 191.437C152.808 191.559 152.951 191.715 153.064 191.906C153.176 192.097 153.232 192.331 153.231 192.607C153.229 192.926 153.145 193.214 152.976 193.471C152.81 193.728 152.567 193.931 152.247 194.082C151.93 194.232 151.544 194.306 151.091 194.304C150.668 194.302 150.302 194.232 149.993 194.094C149.686 193.956 149.445 193.765 149.269 193.52C149.095 193.275 148.998 192.992 148.976 192.669L149.714 192.672C149.732 192.895 149.806 193.08 149.936 193.226C150.068 193.371 150.235 193.48 150.437 193.552C150.64 193.622 150.859 193.657 151.093 193.658C151.366 193.66 151.611 193.617 151.829 193.529C152.046 193.44 152.219 193.316 152.346 193.157C152.474 192.996 152.538 192.808 152.539 192.593C152.54 192.397 152.486 192.237 152.377 192.114C152.268 191.99 152.124 191.889 151.946 191.812C151.767 191.734 151.574 191.666 151.367 191.607L150.642 191.396C150.181 191.262 149.817 191.071 149.549 190.824C149.281 190.576 149.148 190.254 149.149 189.856C149.151 189.526 149.241 189.238 149.421 188.993C149.603 188.746 149.846 188.554 150.15 188.419C150.456 188.283 150.797 188.215 151.174 188.217C151.554 188.218 151.892 188.288 152.188 188.426C152.483 188.562 152.717 188.747 152.889 188.983C153.062 189.218 153.154 189.484 153.162 189.782L152.47 189.779ZM155.139 188.316L155.114 194.219L154.399 194.216L154.424 188.312L155.139 188.316ZM161.253 188.344L161.229 194.247L160.537 194.244L157.339 189.594L157.282 189.594L157.262 194.229L156.547 194.225L156.572 188.322L157.264 188.325L160.473 192.987L160.53 192.987L160.55 188.34L161.253 188.344ZM153.234 200.152C153.171 199.957 153.088 199.783 152.985 199.629C152.884 199.473 152.762 199.34 152.621 199.229C152.481 199.119 152.322 199.035 152.143 198.976C151.965 198.918 151.769 198.888 151.556 198.887C151.206 198.886 150.887 198.974 150.6 199.154C150.313 199.333 150.084 199.598 149.914 199.949C149.743 200.3 149.657 200.731 149.655 201.242C149.653 201.753 149.736 202.185 149.906 202.538C150.075 202.89 150.306 203.157 150.597 203.339C150.889 203.521 151.217 203.613 151.582 203.615C151.92 203.616 152.218 203.545 152.476 203.403C152.736 203.258 152.939 203.053 153.084 202.788C153.231 202.522 153.306 202.208 153.307 201.847L153.526 201.894L151.751 201.886L151.753 201.252L154.002 201.262L153.999 201.896C153.997 202.382 153.891 202.805 153.682 203.163C153.475 203.521 153.19 203.799 152.826 203.995C152.463 204.189 152.048 204.286 151.579 204.283C151.056 204.281 150.598 204.156 150.203 203.908C149.81 203.66 149.504 203.309 149.285 202.855C149.068 202.4 148.96 201.862 148.963 201.239C148.965 200.772 149.029 200.352 149.156 199.98C149.284 199.606 149.464 199.288 149.696 199.026C149.928 198.763 150.201 198.563 150.517 198.424C150.833 198.285 151.18 198.217 151.558 198.219C151.87 198.22 152.16 198.268 152.428 198.364C152.699 198.457 152.939 198.59 153.15 198.762C153.363 198.932 153.54 199.136 153.681 199.373C153.822 199.608 153.919 199.869 153.972 200.155L153.234 200.152ZM153.038 208.306L153.753 208.309L153.736 212.218C153.735 212.622 153.638 212.981 153.447 213.298C153.257 213.612 152.99 213.859 152.645 214.04C152.3 214.22 151.896 214.308 151.433 214.306C150.97 214.304 150.567 214.212 150.224 214.029C149.881 213.845 149.614 213.595 149.426 213.279C149.239 212.961 149.146 212.6 149.148 212.197L149.164 208.288L149.879 208.292L149.863 212.143C149.861 212.431 149.924 212.688 150.05 212.913C150.176 213.136 150.355 213.313 150.589 213.443C150.825 213.571 151.107 213.636 151.436 213.637C151.765 213.639 152.047 213.577 152.284 213.451C152.521 213.323 152.703 213.148 152.828 212.926C152.956 212.702 153.021 212.445 153.022 212.157L153.038 208.306ZM155.156 214.219L155.18 208.316L157.175 208.325C157.638 208.327 158.016 208.413 158.31 208.581C158.605 208.748 158.823 208.973 158.964 209.256C159.105 209.539 159.175 209.854 159.173 210.202C159.172 210.55 159.099 210.866 158.956 211.15C158.815 211.433 158.596 211.659 158.302 211.827C158.007 211.993 157.63 212.074 157.171 212.072L155.741 212.066L155.744 211.432L157.15 211.438C157.467 211.44 157.722 211.386 157.915 211.277C158.108 211.169 158.247 211.021 158.335 210.835C158.424 210.647 158.469 210.435 158.47 210.199C158.471 209.963 158.428 209.751 158.34 209.564C158.254 209.377 158.115 209.231 157.921 209.124C157.727 209.016 157.47 208.961 157.149 208.959L155.893 208.953L155.87 214.222L155.156 214.219Z" fill="#E8E8E3"/>
<path d="M145.377 96.3546L130.256 96.285L130.243 99.0598L145.365 99.1294L145.377 96.3546Z" fill="#407BFF"/>
<path opacity="0.1" d="M145.377 96.3546L130.256 96.285L130.243 99.0598L145.365 99.1294L145.377 96.3546Z" fill="black"/>
<path d="M189.722 113.382C189.719 113.37 189.848 113.389 190.067 113.301C190.273 113.221 190.599 112.97 190.637 112.509C190.635 111.571 190.632 110.208 190.628 108.458C190.628 107.577 190.628 106.599 190.627 105.529C190.628 105.261 190.628 104.988 190.628 104.709C190.635 104.423 190.635 104.158 190.463 103.939C190.308 103.72 190.044 103.581 189.768 103.58C189.466 103.579 189.159 103.579 188.847 103.578C186.345 103.573 183.498 103.567 180.354 103.562C167.757 103.515 150.373 103.45 131.173 103.379C130.919 103.378 130.672 103.502 130.525 103.707C130.361 103.915 130.368 104.16 130.372 104.475C130.369 105.072 130.366 105.667 130.364 106.26C130.359 107.446 130.354 108.624 130.349 109.793C130.346 110.378 130.344 110.96 130.341 111.54C130.35 111.818 130.314 112.151 130.365 112.367C130.423 112.603 130.602 112.803 130.825 112.897C130.94 112.944 131.049 112.96 131.188 112.959L131.619 112.961L132.477 112.965C133.048 112.968 133.616 112.971 134.183 112.974C138.711 112.998 143.079 113.022 147.241 113.044C155.561 113.094 163.054 113.14 169.351 113.178C175.636 113.228 180.726 113.268 184.257 113.296C186.008 113.317 187.371 113.332 188.309 113.344C188.764 113.352 189.114 113.359 189.363 113.364C189.6 113.371 189.722 113.382 189.722 113.382C189.722 113.382 189.6 113.392 189.362 113.395C189.114 113.398 188.764 113.401 188.309 113.406C187.37 113.408 186.007 113.412 184.256 113.416C180.725 113.411 175.635 113.404 169.349 113.396C163.052 113.376 155.559 113.352 147.239 113.327C143.077 113.31 138.709 113.293 134.181 113.275C133.615 113.273 133.046 113.271 132.475 113.268L131.617 113.265L131.186 113.263C131.039 113.266 130.857 113.243 130.706 113.177C130.399 113.048 130.154 112.773 130.071 112.445C130.025 112.279 130.035 112.111 130.035 111.975L130.037 111.54C130.039 110.96 130.041 110.377 130.044 109.793C130.048 108.623 130.053 107.445 130.058 106.26C130.06 105.667 130.062 105.072 130.065 104.475C130.07 104.322 130.056 104.188 130.08 104.006C130.106 103.834 130.172 103.667 130.276 103.528C130.478 103.244 130.825 103.07 131.173 103.074C150.373 103.18 167.757 103.276 180.353 103.346C183.499 103.369 186.345 103.389 188.847 103.408C189.159 103.41 189.466 103.412 189.768 103.415C190.097 103.418 190.41 103.587 190.59 103.846C190.792 104.1 190.79 104.447 190.778 104.71C190.776 104.989 190.774 105.263 190.772 105.53C190.762 106.6 190.754 107.578 190.746 108.459C190.724 110.211 190.708 111.576 190.696 112.515C190.645 113.005 190.293 113.257 190.076 113.33C189.848 113.411 189.722 113.382 189.722 113.382Z" fill="#E0E0E0"/>
<path d="M161.976 107.085L134.314 106.957L134.303 109.551L161.964 109.678L161.976 107.085Z" fill="#407BFF"/>
<path opacity="0.2" d="M161.976 107.085L134.314 106.957L134.303 109.551L161.964 109.678L161.976 107.085Z" fill="white"/>
<path d="M145.271 121.676L130.149 121.606L130.137 124.381L145.258 124.451L145.271 121.676Z" fill="#407BFF"/>
<path opacity="0.1" d="M145.271 121.676L130.149 121.606L130.137 124.381L145.258 124.451L145.271 121.676Z" fill="black"/>
<path d="M189.333 138.702C189.332 138.691 189.457 138.702 189.682 138.636C189.896 138.566 190.24 138.389 190.427 137.97C190.528 137.763 190.538 137.512 190.529 137.224C190.528 136.938 190.527 136.627 190.525 136.29C190.524 135.613 190.522 134.834 190.521 133.959C190.521 133.081 190.52 132.106 190.52 131.04C190.52 130.773 190.52 130.501 190.52 130.223C190.533 129.942 190.499 129.681 190.348 129.447C190.207 129.216 189.977 129.033 189.709 128.951C189.446 128.868 189.132 128.913 188.821 128.901C186.328 128.896 183.491 128.89 180.356 128.884C167.803 128.838 150.48 128.773 131.346 128.703C130.814 128.69 130.323 129.123 130.272 129.649C130.255 130.208 130.263 130.826 130.257 131.409C130.252 132.591 130.246 133.765 130.242 134.93C130.239 135.512 130.236 136.093 130.234 136.671C130.244 136.96 130.203 137.262 130.271 137.492C130.338 137.736 130.493 137.953 130.7 138.095C130.916 138.24 131.15 138.294 131.432 138.283L132.287 138.287C132.857 138.29 133.423 138.293 133.987 138.296C138.5 138.319 142.853 138.343 147 138.365C155.291 138.415 162.758 138.461 169.033 138.499C175.297 138.549 180.369 138.589 183.887 138.616C185.633 138.637 186.991 138.653 187.926 138.664C188.379 138.673 188.728 138.679 188.976 138.684C189.212 138.69 189.333 138.702 189.333 138.702C189.333 138.702 189.212 138.712 188.975 138.715C188.728 138.718 188.379 138.721 187.925 138.726C186.991 138.728 185.632 138.732 183.887 138.736C180.369 138.732 175.296 138.725 169.032 138.716C162.757 138.697 155.29 138.673 146.999 138.648C142.851 138.631 138.498 138.614 133.986 138.596C133.422 138.594 132.855 138.592 132.286 138.589L131.431 138.586C131.143 138.601 130.79 138.532 130.53 138.346C130.263 138.164 130.065 137.885 129.979 137.573C129.891 137.243 129.944 136.957 129.931 136.67C129.933 136.092 129.935 135.511 129.937 134.928C129.942 133.763 129.947 132.589 129.951 131.407C129.958 130.809 129.947 130.241 129.968 129.612C130.034 128.936 130.665 128.379 131.347 128.396C150.481 128.502 167.804 128.597 180.356 128.667C183.491 128.69 186.327 128.71 188.821 128.729C189.128 128.746 189.439 128.696 189.757 128.793C190.065 128.889 190.324 129.1 190.483 129.363C190.652 129.621 190.688 129.951 190.671 130.223C190.669 130.501 190.667 130.773 190.665 131.041C190.655 132.107 190.646 133.082 190.639 133.959C190.629 134.835 190.622 135.613 190.615 136.29C190.611 136.627 190.607 136.939 190.604 137.224C190.609 137.504 190.592 137.783 190.482 137.995C190.275 138.432 189.912 138.603 189.69 138.666C189.457 138.724 189.333 138.702 189.333 138.702Z" fill="#E0E0E0"/>
<path d="M145.158 148.088L130.036 148.018L130.023 150.793L145.145 150.863L145.158 148.088Z" fill="#407BFF"/>
<path opacity="0.1" d="M145.158 148.088L130.036 148.018L130.023 150.793L145.145 150.863L145.158 148.088Z" fill="black"/>
<path d="M189.221 165.111C189.22 165.1 189.345 165.111 189.57 165.045C189.784 164.975 190.127 164.798 190.315 164.378C190.415 164.171 190.425 163.92 190.416 163.633C190.415 163.347 190.414 163.035 190.413 162.699C190.412 162.022 190.41 161.243 190.409 160.368C190.408 159.49 190.408 158.515 190.408 157.448C190.408 157.182 190.408 156.909 190.408 156.63C190.42 156.349 190.387 156.089 190.236 155.855C190.095 155.624 189.865 155.441 189.597 155.359C189.334 155.276 189.02 155.321 188.708 155.309C186.216 155.303 183.379 155.298 180.244 155.292C167.691 155.246 150.368 155.182 131.234 155.11C130.702 155.097 130.212 155.531 130.16 156.056C130.143 156.616 130.151 157.234 130.146 157.817C130.14 158.998 130.135 160.172 130.13 161.337C130.128 161.92 130.125 162.5 130.123 163.079C130.133 163.367 130.091 163.669 130.159 163.9C130.226 164.143 130.381 164.36 130.588 164.503C130.804 164.648 131.038 164.702 131.32 164.691L132.175 164.695C132.745 164.698 133.311 164.701 133.875 164.704C138.388 164.728 142.741 164.751 146.888 164.772C155.179 164.824 162.646 164.869 168.921 164.907C175.185 164.956 180.257 164.996 183.775 165.024C185.521 165.045 186.88 165.061 187.814 165.072C188.267 165.081 188.616 165.086 188.864 165.092C189.1 165.1 189.221 165.111 189.221 165.111C189.221 165.111 189.1 165.121 188.863 165.124C188.615 165.126 188.267 165.13 187.813 165.135C186.878 165.137 185.519 165.141 183.774 165.145C180.256 165.14 175.184 165.133 168.92 165.125C162.644 165.106 155.177 165.082 146.886 165.056C142.739 165.04 138.386 165.023 133.874 165.005C133.309 165.003 132.743 165 132.174 164.998L131.318 164.994C131.031 165.009 130.677 164.939 130.417 164.754C130.151 164.571 129.952 164.294 129.866 163.981C129.779 163.652 129.831 163.365 129.818 163.078C129.82 162.5 129.823 161.919 129.825 161.337C129.83 160.172 129.835 158.998 129.839 157.816C129.846 157.218 129.835 156.65 129.856 156.021C129.922 155.344 130.553 154.788 131.235 154.805C150.369 154.911 167.691 155.007 180.245 155.076C183.379 155.099 186.215 155.12 188.709 155.138C189.016 155.154 189.327 155.105 189.646 155.202C189.952 155.298 190.212 155.508 190.371 155.772C190.54 156.031 190.576 156.36 190.559 156.632C190.557 156.91 190.555 157.183 190.552 157.449C190.543 158.516 190.535 159.491 190.527 160.368C190.518 161.244 190.51 162.023 190.503 162.7C190.499 163.036 190.495 163.348 190.491 163.633C190.496 163.915 190.479 164.192 190.369 164.404C190.162 164.841 189.799 165.013 189.577 165.075C189.345 165.132 189.221 165.111 189.221 165.111Z" fill="#E0E0E0"/>
<path d="M161.87 132.406L134.208 132.279L134.196 134.872L161.858 134.999L161.87 132.406Z" fill="#407BFF"/>
<path opacity="0.2" d="M161.87 132.406L134.208 132.279L134.196 134.872L161.858 134.999L161.87 132.406Z" fill="white"/>
<path d="M136.716 160.311C136.713 161.023 136.169 161.598 135.502 161.595C134.834 161.591 134.295 161.012 134.298 160.299C134.301 159.587 134.845 159.012 135.513 159.015C136.181 159.018 136.719 159.598 136.716 160.311Z" fill="#407BFF"/>
<path d="M140.463 160.328C140.46 161.04 139.917 161.615 139.249 161.612C138.581 161.61 138.042 161.03 138.045 160.317C138.048 159.605 138.592 159.03 139.26 159.033C139.928 159.035 140.466 159.616 140.463 160.328Z" fill="#407BFF"/>
<path d="M144.211 160.345C144.208 161.057 143.665 161.633 142.997 161.63C142.329 161.627 141.79 161.047 141.793 160.334C141.796 159.622 142.34 159.047 143.008 159.05C143.675 159.053 144.214 159.633 144.211 160.345Z" fill="#407BFF"/>
<path d="M147.958 160.362C147.955 161.074 147.411 161.65 146.744 161.647C146.076 161.644 145.537 161.064 145.54 160.351C145.543 159.639 146.087 159.064 146.755 159.067C147.422 159.071 147.961 159.65 147.958 160.362Z" fill="#407BFF"/>
<path d="M151.705 160.379C151.702 161.092 151.158 161.667 150.49 161.664C149.822 161.661 149.283 161.081 149.286 160.369C149.29 159.656 149.834 159.081 150.501 159.084C151.169 159.088 151.708 159.667 151.705 160.379Z" fill="#407BFF"/>
<path d="M155.453 160.397C155.45 161.11 154.906 161.685 154.238 161.681C153.57 161.678 153.031 161.099 153.034 160.386C153.037 159.674 153.581 159.099 154.248 159.102C154.917 159.105 155.456 159.685 155.453 160.397Z" fill="#407BFF"/>
<path d="M159.201 160.414C159.197 161.127 158.653 161.702 157.986 161.699C157.318 161.695 156.779 161.116 156.782 160.404C156.785 159.691 157.329 159.116 157.996 159.119C158.664 159.122 159.203 159.702 159.201 160.414Z" fill="#407BFF"/>
<path d="M162.947 160.431C162.944 161.144 162.4 161.719 161.733 161.716C161.065 161.712 160.526 161.133 160.529 160.421C160.532 159.709 161.076 159.133 161.744 159.136C162.412 159.139 162.95 159.719 162.947 160.431Z" fill="#407BFF"/>
<path d="M166.695 160.449C166.692 161.161 166.148 161.737 165.481 161.734C164.813 161.731 164.273 161.151 164.276 160.438C164.28 159.726 164.824 159.152 165.491 159.154C166.159 159.156 166.698 159.737 166.695 160.449Z" fill="#407BFF"/>
<g opacity="0.2">
<path d="M136.716 160.311C136.713 161.023 136.169 161.598 135.502 161.595C134.834 161.591 134.295 161.012 134.298 160.299C134.301 159.587 134.845 159.012 135.513 159.015C136.181 159.018 136.719 159.598 136.716 160.311Z" fill="white"/>
<path d="M140.463 160.328C140.46 161.04 139.917 161.615 139.249 161.612C138.581 161.61 138.042 161.03 138.045 160.317C138.048 159.605 138.592 159.03 139.26 159.033C139.928 159.035 140.466 159.616 140.463 160.328Z" fill="white"/>
<path d="M144.211 160.345C144.208 161.057 143.665 161.633 142.997 161.63C142.329 161.627 141.79 161.047 141.793 160.334C141.796 159.622 142.34 159.047 143.008 159.05C143.675 159.053 144.214 159.633 144.211 160.345Z" fill="white"/>
<path d="M147.958 160.362C147.955 161.074 147.411 161.65 146.744 161.647C146.076 161.644 145.537 161.064 145.54 160.351C145.543 159.639 146.087 159.064 146.755 159.067C147.422 159.071 147.961 159.65 147.958 160.362Z" fill="white"/>
<path d="M151.705 160.379C151.702 161.092 151.158 161.667 150.49 161.664C149.822 161.661 149.283 161.081 149.286 160.369C149.29 159.656 149.834 159.081 150.501 159.084C151.169 159.088 151.708 159.667 151.705 160.379Z" fill="white"/>
<path d="M155.453 160.397C155.45 161.11 154.906 161.685 154.238 161.681C153.57 161.678 153.031 161.099 153.034 160.386C153.037 159.674 153.581 159.099 154.248 159.102C154.917 159.105 155.456 159.685 155.453 160.397Z" fill="white"/>
<path d="M159.201 160.414C159.197 161.127 158.653 161.702 157.986 161.699C157.318 161.695 156.779 161.116 156.782 160.404C156.785 159.691 157.329 159.116 157.996 159.119C158.664 159.122 159.203 159.702 159.201 160.414Z" fill="white"/>
<path d="M162.947 160.431C162.944 161.144 162.4 161.719 161.733 161.716C161.065 161.712 160.526 161.133 160.529 160.421C160.532 159.709 161.076 159.133 161.744 159.136C162.412 159.139 162.95 159.719 162.947 160.431Z" fill="white"/>
<path d="M166.695 160.449C166.692 161.161 166.148 161.737 165.481 161.734C164.813 161.731 164.273 161.151 164.276 160.438C164.28 159.726 164.824 159.152 165.491 159.154C166.159 159.156 166.698 159.737 166.695 160.449Z" fill="white"/>
</g>
<path d="M161.373 75.5616C162.164 75.2294 162.727 74.4139 162.732 73.4525C162.737 72.193 161.784 71.1675 160.603 71.1616C159.422 71.1563 158.46 72.173 158.455 73.4325C158.451 74.4027 159.018 75.2288 159.818 75.5616C156.526 76.0573 156.676 79.6341 156.676 79.6341L164.457 79.67C164.457 79.67 164.635 76.0544 161.373 75.5616Z" fill="#407BFF"/>
<path opacity="0.1" d="M161.373 75.5616C162.164 75.2294 162.727 74.4139 162.732 73.4525C162.737 72.193 161.784 71.1675 160.603 71.1616C159.422 71.1563 158.46 72.173 158.455 73.4325C158.451 74.4027 159.018 75.2288 159.818 75.5616C156.526 76.0573 156.676 79.6341 156.676 79.6341L164.457 79.67C164.457 79.67 164.635 76.0544 161.373 75.5616Z" fill="black"/>
<path d="M174.022 82.0096L146.272 81.882L146.257 85.2L174.007 85.3277L174.022 82.0096Z" fill="#407BFF"/>
<path opacity="0.2" d="M174.022 82.0096L146.272 81.882L146.257 85.2L174.007 85.3277L174.022 82.0096Z" fill="white"/>
<path d="M72.0096 99.1821C72.0096 99.1879 71.9167 99.1979 71.7367 99.2126C71.5421 99.2268 71.2769 99.2462 70.9365 99.2709C70.5831 99.2767 70.1533 99.3538 69.6464 99.4431C69.3942 99.4943 69.1154 99.5149 68.8308 99.599C68.5451 99.6783 68.2411 99.7624 67.9194 99.8518C66.6505 100.252 65.1223 100.888 63.5835 102.003C62.0488 103.108 60.5136 104.689 59.317 106.752C58.6878 107.766 58.2315 108.936 57.8217 110.167C57.4883 111.42 57.1931 112.75 57.1708 114.153C57.1085 114.852 57.179 115.562 57.2084 116.284C57.2272 116.645 57.3048 117.003 57.3513 117.367C57.4007 117.731 57.4542 118.096 57.5577 118.456C57.8552 119.917 58.4509 121.35 59.2041 122.723C60.71 125.48 63.2407 127.855 66.3659 129.231C67.9294 129.921 69.6582 130.293 71.4163 130.365C73.1762 130.477 74.979 130.194 76.6877 129.607L77.2046 129.417L77.2728 129.392L77.3345 129.423C79.8647 130.708 82.3461 131.968 84.7504 133.188L84.5299 133.377C83.7379 130.919 82.9705 128.536 82.2337 126.249L82.2055 126.161L82.2708 126.096C84.14 124.224 85.4425 121.951 86.1645 119.623C86.8884 117.288 87.0118 114.91 86.7296 112.731C86.4474 110.547 85.7335 108.561 84.7816 106.89C83.8302 105.214 82.6471 103.853 81.4329 102.79C80.2046 101.735 78.9309 101.02 77.7896 100.472C76.6207 99.9829 75.5787 99.6695 74.7126 99.5025C74.2799 99.4284 73.8947 99.3632 73.559 99.3061C73.2262 99.2826 72.9427 99.2632 72.7081 99.2467C72.4894 99.2297 72.3171 99.2168 72.1866 99.2068C72.0696 99.1944 72.0096 99.1868 72.0096 99.1821C72.0096 99.1779 72.0696 99.1768 72.1872 99.1785C72.3177 99.1821 72.4906 99.1874 72.7105 99.1932C72.9463 99.2026 73.232 99.2144 73.5672 99.2279C73.9059 99.2785 74.2946 99.3361 74.7314 99.4014C75.6064 99.5543 76.6618 99.8547 77.849 100.336C79.0074 100.875 80.3033 101.586 81.5558 102.645C82.7941 103.71 84.0025 105.082 84.978 106.776C85.9534 108.465 86.6896 110.478 86.986 112.695C87.2823 114.908 87.1659 117.325 86.4368 119.704C85.7094 122.075 84.3888 124.396 82.486 126.308L82.523 126.155C83.2627 128.44 84.0342 130.822 84.8298 133.278L84.9462 133.638L84.6093 133.467C82.2038 132.248 79.7224 130.99 77.191 129.706L77.321 129.713L76.793 129.907C75.046 130.508 73.202 130.795 71.4034 130.681C69.607 130.607 67.8395 130.224 66.2431 129.517C63.0508 128.108 60.4759 125.678 58.9489 122.866C58.1845 121.465 57.5841 120.004 57.2849 118.516C57.1814 118.15 57.1284 117.778 57.0791 117.408C57.0332 117.038 56.9562 116.673 56.9379 116.306C56.9103 115.573 56.8415 114.85 56.9079 114.14C56.9368 112.715 57.2419 111.364 57.5877 110.095C58.0099 108.847 58.4803 107.662 59.1241 106.637C60.3501 104.553 61.9177 102.962 63.4812 101.857C65.0482 100.744 66.6 100.118 67.8853 99.7324C68.2105 99.6478 68.5186 99.5672 68.8079 99.4919C69.0954 99.412 69.3771 99.3955 69.6317 99.3496C70.1439 99.2691 70.5766 99.2021 70.9324 99.2068C71.2746 99.195 71.5415 99.1868 71.7373 99.1797C71.9173 99.1762 72.0096 99.1768 72.0096 99.1821Z" fill="#407BFF"/>
<path d="M75.3631 112.911H74.2765L71.9051 109.606V107.437C71.9051 107.437 70.2257 107.334 70.4227 110.174C70.6203 113.015 70.4068 112.292 70.4068 112.292C70.4068 112.292 66.8406 112.305 66.5442 112.615C66.3284 112.84 66.2314 116.383 66.1938 118.304C66.175 119.271 66.7683 120.171 67.6679 120.399C67.7955 120.432 67.9249 120.451 68.0519 120.451C68.9415 120.451 73.4862 119.728 73.4862 119.728H75.3631V112.911Z" fill="#407BFF"/>
<path d="M78.4733 112.316L77.8054 119.748H75.9443V112.466L78.4733 112.316Z" fill="#407BFF"/>
<path d="M100.636 263.625V258.594L91.6216 258.533L91.5469 266.133L92.1055 266.175C94.5921 266.335 104.76 266.569 106.426 266.054C108.284 265.479 100.636 263.625 100.636 263.625Z" fill="#407BFF"/>
<path d="M106.639 265.582C106.639 265.667 103.267 265.735 99.1083 265.735C94.9482 265.735 91.5771 265.667 91.5771 265.582C91.5771 265.497 94.9482 265.429 99.1083 265.429C103.267 265.43 106.639 265.498 106.639 265.582Z" fill="#263238"/>
<path d="M100.795 264.651C100.721 264.612 100.784 264.347 100.978 264.084C101.17 263.821 101.406 263.682 101.465 263.741C101.526 263.802 101.402 264.023 101.224 264.266C101.046 264.508 100.871 264.692 100.795 264.651Z" fill="#263238"/>
<path d="M101.369 264.983C101.291 264.953 101.331 264.655 101.508 264.342C101.685 264.027 101.919 263.839 101.985 263.89C102.052 263.943 101.939 264.2 101.775 264.492C101.611 264.783 101.45 265.014 101.369 264.983Z" fill="#263238"/>
<path d="M94.2936 265.56C94.2583 265.584 94.1242 265.452 93.929 265.231C93.7326 265.012 93.4756 264.701 93.1381 264.439C92.8036 264.178 92.4349 264.047 92.1626 264.013C91.8886 263.976 91.7087 264.018 91.6934 263.974C91.6775 263.941 91.8451 263.816 92.1703 263.796C92.4902 263.774 92.9423 263.896 93.3251 264.196C93.7056 264.493 93.949 264.847 94.1036 265.103C94.2577 265.362 94.3271 265.536 94.2936 265.56Z" fill="#263238"/>
<path d="M100.822 263.706C100.866 263.777 100.712 263.951 100.454 264.046C100.197 264.141 99.9656 264.107 99.9538 264.025C99.9403 263.94 100.123 263.842 100.348 263.759C100.574 263.676 100.778 263.633 100.822 263.706Z" fill="#263238"/>
<path d="M100.681 263.219C100.689 263.304 100.449 263.376 100.145 263.38C99.8404 263.384 99.5982 263.319 99.6046 263.234C99.6105 263.149 99.8504 263.078 100.141 263.074C100.431 263.07 100.673 263.135 100.681 263.219Z" fill="#263238"/>
<path d="M122.834 263.625L122.834 258.594L113.82 258.533L113.745 266.056L114.304 266.097C116.79 266.258 126.958 266.569 128.624 266.054C130.483 265.479 122.834 263.625 122.834 263.625Z" fill="#407BFF"/>
<path d="M128.837 265.594C128.837 265.678 125.465 265.747 121.307 265.747C117.146 265.747 113.775 265.678 113.775 265.594C113.775 265.509 117.146 265.44 121.307 265.44C125.465 265.44 128.837 265.509 128.837 265.594Z" fill="#263238"/>
<path d="M122.993 264.651C122.919 264.612 122.982 264.347 123.176 264.084C123.369 263.821 123.605 263.682 123.664 263.741C123.724 263.802 123.601 264.023 123.423 264.266C123.244 264.508 123.068 264.692 122.993 264.651Z" fill="#263238"/>
<path d="M123.567 264.983C123.489 264.953 123.53 264.655 123.707 264.342C123.883 264.027 124.118 263.839 124.183 263.89C124.251 263.943 124.137 264.2 123.974 264.492C123.809 264.783 123.647 265.014 123.567 264.983Z" fill="#263238"/>
<path d="M116.491 265.56C116.456 265.584 116.321 265.452 116.126 265.231C115.93 265.012 115.673 264.701 115.335 264.439C115.001 264.178 114.633 264.047 114.36 264.013C114.086 263.976 113.906 264.018 113.891 263.974C113.875 263.941 114.042 263.816 114.367 263.796C114.687 263.774 115.14 263.896 115.522 264.196C115.903 264.493 116.145 264.847 116.3 265.103C116.456 265.362 116.525 265.536 116.491 265.56Z" fill="#263238"/>
<path d="M123.021 263.706C123.065 263.777 122.91 263.951 122.653 264.046C122.396 264.141 122.164 264.107 122.152 264.025C122.139 263.94 122.321 263.842 122.547 263.759C122.772 263.676 122.976 263.633 123.021 263.706Z" fill="#263238"/>
<path d="M122.878 263.219C122.887 263.304 122.646 263.376 122.342 263.38C122.038 263.384 121.796 263.319 121.802 263.234C121.808 263.149 122.048 263.078 122.339 263.074C122.629 263.07 122.87 263.135 122.878 263.219Z" fill="#263238"/>
<path d="M156.043 114.334C155.807 114.091 155.229 114.206 155.229 114.206C155.229 114.206 155.33 113.518 155.223 113.186C155.116 112.854 154.376 112.918 154.376 112.918C154.376 112.918 154.33 112.598 154.394 112.082C154.411 111.952 154.339 111.857 154.222 111.786C153.871 111.574 153.114 111.584 153.114 111.584C152.66 111.259 154.497 108.691 155.178 107.869C155.851 107.057 155.738 106.406 155.131 106.407C154.717 106.407 152.572 108.876 151.918 109.706C151.264 110.534 149.509 112.84 149.45 111C149.39 109.16 148.651 107.768 148.189 107.531C147.726 107.294 147.228 107.85 147.484 108.361C147.691 108.774 147.821 109.57 147.895 110.171C147.956 110.668 147.936 111.171 147.828 111.658C147.521 113.037 147.191 113.931 147.036 114.314L146.991 114.289C146.991 114.289 134.157 126.595 133.232 127.474C132.399 128.264 115.722 126.539 112.381 126.184C111.468 126.082 110.116 125.898 108.944 125.95C107.494 126.014 107.237 126.22 105.786 126.239C101.344 126.298 97.6429 126.73 94.8881 127.197C91.5577 127.76 88.827 130.131 87.7962 133.348C84.424 143.871 76.7953 168.785 75.4359 182.782C74.3651 184.795 73.1685 187.147 72.6822 188.47C71.7373 191.042 71.9666 191.13 72.2853 191.189C73.1403 191.348 74.1187 186.728 74.4839 187.842C74.8496 188.958 72.6305 193.354 73.5307 193.483C74.7044 193.65 75.6399 188.795 75.7493 188.39C75.8557 187.997 76.4478 188.129 76.3296 188.49C76.1591 189.008 74.5045 194.494 75.6558 194.67C76.2937 194.767 76.3625 193.605 76.3625 193.605C76.3625 193.605 77.5327 188.358 78.073 188.459C78.6222 188.562 78.0389 191.666 77.7679 192.698C77.5003 193.718 77.8772 194.261 78.4276 194.004C78.8028 193.829 79.7065 190.685 79.9499 189.658C80.194 188.631 80.8119 185.801 81.6422 187.444C82.4725 189.087 83.729 190.037 84.2482 190.057C84.7668 190.077 84.9844 189.363 84.5369 189.007C84.1753 188.72 83.7214 188.054 83.4003 187.54C83.1357 187.116 82.9417 186.651 82.8347 186.163C82.4213 184.281 82.4248 183.187 82.4248 183.187L82.329 182.582C83.6455 176.06 87.4411 156.923 92.893 144.697L95.138 149.317L96.1123 152.737L90.1294 167.519L115.656 167.183L111.851 152.518L116.474 137.227H116.474C121.478 137.339 134.329 137.526 136.489 136.56C139.182 135.357 153.117 117.791 153.117 117.791H153.116C154.057 117.041 155.015 116.235 155.721 115.531C155.722 115.53 156.553 114.858 156.043 114.334Z" fill="#FFBE9D"/>
<path d="M89.0184 156.636C89.7575 154.108 93.563 141.608 93.563 141.608C93.563 141.608 95.4305 151.799 94.9396 153.026C94.3739 154.44 93.3343 156.058 93.3343 156.058C89.0184 162.631 89.5846 165.917 89.5846 165.917L115.657 165.122C115.72 161.475 113.562 152.998 113.111 151.648C112.659 150.297 114.156 145.864 114.156 145.864C114.156 145.864 117.103 142.872 116.988 141.332C116.759 138.229 116.475 137.227 116.475 137.227L132.339 137.811L131.84 127.047L109.036 124.765C108.247 127.01 101.065 125.91 101.065 125.91C93.3126 126.165 92.8433 127.591 89.6099 130.094C86.3771 132.597 81.0527 154.095 81.0527 154.095L89.0184 156.636Z" fill="#407BFF"/>
<path d="M104.438 154.093C104.437 154.134 103.913 154.168 103.064 154.162C102.215 154.157 101.042 154.104 99.7534 153.975C98.4639 153.845 97.3044 153.663 96.4712 153.499C95.6386 153.336 95.1311 153.198 95.1388 153.158C95.147 153.115 95.6674 153.178 96.5059 153.286C97.3443 153.395 98.5015 153.542 99.784 153.67C101.066 153.799 102.229 153.885 103.072 153.946C103.916 154.007 104.439 154.049 104.438 154.093Z" fill="#263238"/>
<path d="M106.222 151.876C106.233 151.913 105.695 152.117 104.798 152.361C103.902 152.604 102.643 152.872 101.234 153.041C99.825 153.207 98.5378 153.242 97.6094 153.215C96.6803 153.188 96.11 153.115 96.1123 153.076C96.1141 153.031 96.6868 153.027 97.6088 152.998C98.5308 152.969 99.802 152.902 101.198 152.737C102.593 152.57 103.845 152.338 104.748 152.15C105.651 151.962 106.209 151.832 106.222 151.876Z" fill="#263238"/>
<path d="M114.992 141.985C115.033 141.994 114.966 142.502 114.814 143.315C114.663 144.128 114.424 145.245 114.124 146.471C113.823 147.697 113.518 148.798 113.276 149.589C113.034 150.38 112.859 150.862 112.819 150.851C112.777 150.839 112.879 150.338 113.067 149.533C113.289 148.615 113.545 147.562 113.826 146.399C114.115 145.237 114.376 144.185 114.603 143.269C114.808 142.468 114.951 141.976 114.992 141.985Z" fill="#263238"/>
<path d="M89.2916 155.138C89.2692 155.22 87.4711 154.8 85.2755 154.201C83.0794 153.601 81.3177 153.05 81.3401 152.968C81.3624 152.886 83.1599 153.306 85.3561 153.905C87.5517 154.505 89.3139 155.057 89.2916 155.138Z" fill="#263238"/>
<path d="M116.762 137.089C116.762 137.103 116.52 137.129 116.087 137.086C115.656 137.042 115.025 136.941 114.294 136.658C113.563 136.384 112.731 135.926 111.955 135.234C111.178 134.544 110.483 133.595 110.041 132.478C109.591 131.362 109.443 130.199 109.514 129.164C109.582 128.13 109.856 127.196 110.319 126.541C110.777 125.878 111.384 125.557 111.807 125.446C112.021 125.389 112.194 125.375 112.309 125.378C112.425 125.381 112.484 125.394 112.484 125.403C112.486 125.432 112.24 125.419 111.843 125.559C111.452 125.699 110.903 126.029 110.499 126.662C109.698 127.921 109.475 130.218 110.326 132.365C110.752 133.439 111.408 134.35 112.145 135.025C112.882 135.703 113.675 136.166 114.375 136.458C115.788 137.043 116.773 137.024 116.762 137.089Z" fill="#263238"/>
<path d="M130.468 137.596C130.384 137.596 130.32 135.17 130.326 132.178C130.331 129.184 130.405 126.759 130.489 126.759C130.574 126.76 130.637 129.185 130.631 132.178C130.626 135.171 130.553 137.597 130.468 137.596Z" fill="#263238"/>
<path d="M108.897 125.42C108.961 124.108 109.098 122.626 109.098 122.626C109.098 122.626 112.343 122.268 112.54 118.916C112.737 115.564 112.54 107.834 112.54 107.834L106.63 104.825L100.129 109.955L101.114 126.714L107.096 127.094C108.039 127.154 108.848 126.403 108.897 125.42Z" fill="#FFBE9D"/>
<path d="M109.481 116.265C109.491 116.267 109.491 116.328 109.43 116.409C109.37 116.487 109.239 116.577 109.057 116.573C108.68 116.555 108.318 116.139 108.184 115.631C108.117 115.373 108.118 115.111 108.168 114.886C108.208 114.664 108.336 114.441 108.521 114.381C108.609 114.348 108.701 114.351 108.771 114.387C108.84 114.421 108.882 114.474 108.904 114.522C108.948 114.622 108.914 114.682 108.905 114.678C108.891 114.677 108.895 114.622 108.846 114.559C108.799 114.495 108.689 114.437 108.566 114.5C108.442 114.556 108.356 114.716 108.325 114.92C108.288 115.122 108.292 115.354 108.352 115.584C108.469 116.039 108.785 116.412 109.065 116.446C109.204 116.463 109.319 116.41 109.382 116.359C109.446 116.306 109.469 116.259 109.481 116.265Z" fill="#EB996E"/>
<path d="M114.555 106.025C114.104 104.482 112.463 103.716 110.969 103.292C108.695 102.648 106.232 102.363 104.01 103.181C101.789 103.998 99.1168 105.437 99.1174 107.892C97.8062 107.783 97.057 108.932 96.5367 110.356C96.2291 111.197 96.0269 112.133 95.9792 113.06L95.9575 113.053C95.7887 116.265 94.8938 120.691 92.8111 123.067C91.661 124.379 90.0051 125.285 89.3348 126.919C88.7521 128.339 89.0538 130.017 88.5028 131.451C88.0165 132.716 86.9399 133.615 86.1679 134.716C84.4868 137.113 84.3721 140.501 85.6075 143.177C86.8429 145.853 89.2907 147.811 92.0079 148.708C94.725 149.605 97.685 149.507 100.45 148.787C102.492 148.255 104.478 147.376 106.105 145.985C107.732 144.595 108.981 142.662 109.353 140.504C109.767 138.102 109.095 135.663 108.6 133.277C107.036 125.73 107.483 125.338 109.457 118.337C109.502 118.214 109.529 118.085 109.563 117.958C109.589 117.865 109.614 117.776 109.641 117.681L109.637 117.68C109.692 117.406 109.728 117.127 109.729 116.843C109.158 117.068 108.467 116.918 108.029 116.475C107.59 116.031 107.427 115.316 107.626 114.715C107.856 114.023 108.491 113.56 109.143 113.286C109.795 113.011 110.496 112.875 111.137 112.571C112.494 111.925 113.436 110.585 114.076 109.18C114.526 108.195 114.861 107.067 114.555 106.025Z" fill="#263238"/>
<path d="M109.714 116.407C109.734 116.399 109.848 116.617 110.023 116.988C110.198 117.359 110.432 117.883 110.692 118.485L110.741 118.6L110.616 118.61C110.421 118.627 110.222 118.644 110.018 118.662C109.607 118.688 109.265 118.738 108.868 118.734C108.805 118.722 108.735 118.665 108.716 118.6C108.695 118.537 108.701 118.483 108.707 118.437C108.724 118.344 108.745 118.276 108.762 118.198L108.867 117.782C108.996 117.274 109.089 116.962 109.114 116.968C109.139 116.974 109.091 117.295 108.993 117.81L108.911 118.23C108.881 118.373 108.829 118.585 108.906 118.568C109.199 118.556 109.616 118.507 110.003 118.478C110.207 118.462 110.405 118.447 110.601 118.431L110.526 118.555C110.274 117.95 110.061 117.417 109.915 117.034C109.771 116.651 109.693 116.416 109.714 116.407Z" fill="#407BFF"/>
<path d="M89.5847 165.916L115.657 165.121L126.996 209.421L124.908 260.235H111.108L112.818 210.503L102.732 179.664L104.287 262.206L90.3544 262.411L88.8868 184.826C88.8256 182.67 88.1159 177.805 88.3799 175.665L89.5847 165.916Z" fill="#263238"/>
<path d="M106.205 180.291C106.2 180.331 105.711 180.307 104.926 180.215C104.142 180.123 103.063 179.957 101.881 179.72C100.699 179.482 99.6401 179.217 98.881 178.998C98.1219 178.78 97.6615 178.614 97.6721 178.574C97.6956 178.489 99.5884 178.948 101.942 179.419C104.293 179.895 106.216 180.203 106.205 180.291Z" fill="#455A64"/>
<path d="M124.782 257.448C124.782 257.533 121.658 257.602 117.805 257.602C113.951 257.602 110.827 257.533 110.827 257.448C110.827 257.364 113.951 257.295 117.805 257.295C121.658 257.296 124.782 257.364 124.782 257.448Z" fill="#455A64"/>
<path d="M104.162 260.061C104.162 260.146 101.131 260.215 97.3927 260.215C93.6536 260.215 90.623 260.146 90.623 260.061C90.623 259.977 93.6536 259.908 97.3927 259.908C101.131 259.908 104.162 259.977 104.162 260.061Z" fill="#455A64"/>
<path d="M102.368 259.85C102.283 259.851 101.917 241.814 101.549 219.57C101.182 197.317 100.952 179.282 101.037 179.281C101.122 179.279 101.488 197.312 101.856 219.564C102.223 241.81 102.452 259.848 102.368 259.85Z" fill="#455A64"/>
<path d="M122.93 257.448C122.924 257.448 122.922 257.366 122.923 257.208C122.926 257.035 122.931 256.802 122.936 256.504C122.954 255.868 122.981 254.959 123.014 253.797C123.096 251.43 123.214 248.033 123.36 243.841C123.682 235.423 124.125 223.819 124.616 211.001C124.621 210.883 124.625 210.765 124.629 210.656L124.634 210.699C121.544 198.326 118.751 187.142 116.726 179.034C115.732 174.995 114.927 171.722 114.366 169.442C114.097 168.321 113.887 167.444 113.74 166.831C113.674 166.544 113.623 166.319 113.585 166.151C113.551 165.997 113.537 165.918 113.542 165.917C113.547 165.916 113.571 165.993 113.615 166.144C113.66 166.309 113.721 166.533 113.8 166.817C113.96 167.427 114.189 168.299 114.482 169.414C115.065 171.688 115.902 174.952 116.935 178.982C118.982 187.085 121.806 198.261 124.93 210.625L124.936 210.646L124.935 210.669C124.931 210.777 124.926 210.896 124.922 211.014C124.397 223.83 123.921 235.432 123.576 243.85C123.389 248.04 123.238 251.435 123.133 253.801C123.074 254.963 123.029 255.871 122.997 256.507C122.979 256.804 122.965 257.037 122.954 257.21C122.943 257.368 122.935 257.449 122.93 257.448Z" fill="#455A64"/>
<path d="M118.431 209.622C118.445 209.705 117.081 210.009 115.382 210.301C114.115 210.519 113.02 210.668 112.542 210.695L112.541 210.576C112.7 210.619 112.785 210.653 112.782 210.674C112.779 210.696 112.686 210.702 112.522 210.695L112.166 210.68L112.522 210.576C112.982 210.441 114.063 210.217 115.331 209.999C117.028 209.707 118.416 209.538 118.431 209.622Z" fill="#455A64"/>
<path d="M118.167 211.312C118.156 211.398 116.931 211.303 115.423 211.187C113.914 211.068 112.69 210.972 112.691 210.886C112.693 210.802 113.929 210.762 115.447 210.881C116.964 210.998 118.179 211.23 118.167 211.312Z" fill="#455A64"/>
<path opacity="0.2" d="M89.4688 166.853C90.0991 167.74 90.9981 168.051 92.043 168.222C93.0873 168.393 94.1533 168.279 95.2047 168.162C101.934 167.415 109.066 166.727 115.657 165.121C107.125 165.599 98.1159 165.438 89.5846 165.916C89.5846 165.916 89.5117 166.503 89.4946 166.644" fill="black"/>
<g opacity="0.2">
<path d="M98.2627 178.878L103.069 197.537L102.733 179.664L98.2627 178.878Z" fill="black"/>
</g>
</svg>
