<svg width="576" height="576" viewBox="0 0 576 576" fill="none" xmlns="http://www.w3.org/2000/svg">
<path d="M288 509.86C411.359 509.86 511.361 504.022 511.361 496.82C511.361 489.617 411.359 483.779 288 483.779C164.641 483.779 64.6387 489.617 64.6387 496.82C64.6387 504.022 164.641 509.86 288 509.86Z" fill="#F5F5F5"/>
<path d="M274.631 393.443H52.1914C48.5626 393.437 45.625 390.493 45.625 386.865V74.1773C45.6561 70.5715 48.5856 67.6627 52.1914 67.657H274.631C278.263 67.657 281.209 70.6015 281.209 74.2349V386.865C281.209 390.498 278.263 393.443 274.631 393.443ZM52.1914 67.8874C48.7216 67.8943 45.913 70.7075 45.913 74.1773V386.865C45.913 390.334 48.7216 393.148 52.1914 393.155H274.631C278.102 393.149 280.914 390.336 280.921 386.865V74.1773C280.914 70.7063 278.102 67.8931 274.631 67.8874H52.1914Z" fill="#E6E6E6"/>
<path d="M523.82 393.443H301.369C297.739 393.437 294.797 390.495 294.791 386.865V74.1773C294.829 70.5692 297.761 67.6627 301.369 67.657H523.82C527.421 67.6697 530.344 70.5762 530.375 74.1773V386.865C530.375 390.489 527.444 393.43 523.82 393.443ZM301.369 67.8874C297.898 67.8943 295.085 70.7063 295.079 74.1773V386.865C295.085 390.336 297.898 393.148 301.369 393.155H523.82C527.291 393.149 530.103 390.336 530.11 386.865V74.1773C530.103 70.7063 527.291 67.8931 523.82 67.8874H301.369Z" fill="#E6E6E6"/>
<path d="M99.0027 451.826H51.5288V452.114H99.0027V451.826Z" fill="#E0E0E0"/>
<path d="M195.771 449.522H148.159V449.81H195.771V449.522Z" fill="#E0E0E0"/>
<path d="M257.725 449.522H246.205V449.81H257.725V449.522Z" fill="#E0E0E0"/>
<path d="M142.583 459.36H89.3027V459.648H142.583V459.36Z" fill="#E0E0E0"/>
<path d="M326.869 451.676H301.985V451.964H326.869V451.676Z" fill="#E0E0E0"/>
<path d="M369.296 451.676H337.121V451.964H369.296V451.676Z" fill="#E0E0E0"/>
<path d="M524.471 456.549H452.54V456.837H524.471V456.549Z" fill="#E0E0E0"/>
<path d="M576 440.523H0V440.811H576V440.523Z" fill="#EBEBEB"/>
<path opacity="0.8" d="M385.73 91.561L382.859 131.045C382.762 132.42 382.169 133.669 381.254 134.604C380.2 135.726 378.709 136.428 377.099 136.428H345.427C344.257 136.428 343.2 136.057 342.368 135.413C341.069 134.448 340.294 132.848 340.42 131.044L343.29 91.5599C343.499 88.5854 346.076 86.1754 349.05 86.1754H380.72C383.697 86.1777 385.937 88.5866 385.73 91.561Z" fill="#E0E0E0"/>
<path d="M371.993 109.437C371.586 115.261 367.375 119.982 362.589 119.982C357.802 119.982 354.252 115.261 354.658 109.437C355.066 103.612 359.277 98.8912 364.063 98.8912C368.85 98.8912 372.4 103.613 371.993 109.437Z" fill="white"/>
<path d="M375.986 133.708H347.003C345.166 133.708 343.893 132.827 343.847 131.59C343.78 129.798 353.179 122.023 362.095 122.697C362.128 122.7 362.16 122.697 362.193 122.697C362.229 122.697 362.265 122.697 362.299 122.697C367.762 122.72 372.906 125.03 377.228 128.447C381.528 131.846 377.458 133.708 375.986 133.708Z" fill="white"/>
<path d="M222.36 134.991C216.195 135.069 210.765 130.11 210.256 123.94C209.748 117.769 214.35 112.686 220.516 112.609C226.682 112.532 232.112 117.49 232.62 123.661C233.129 129.832 228.527 134.914 222.36 134.991ZM221.007 118.556C218.117 118.592 215.961 120.974 216.199 123.865C216.438 126.757 218.981 129.079 221.871 129.044C224.76 129.008 226.916 126.626 226.679 123.734C226.441 120.843 223.896 118.52 221.007 118.556Z" fill="#E0E0E0"/>
<path d="M222.914 117.693L218.67 117.746L216.419 90.424L220.663 90.371L222.914 117.693Z" fill="#E0E0E0"/>
<path d="M224.685 91.5967L216.716 91.6969L216.366 87.4483L224.335 87.3492L224.685 91.5967Z" fill="#E0E0E0"/>
<path d="M225.141 97.056L217.649 97.1493L217.298 92.9007L224.791 92.8074L225.141 97.056Z" fill="#E0E0E0"/>
<path d="M225.787 104.756L219.247 104.838L218.897 100.589L225.438 100.507L225.787 104.756Z" fill="#E0E0E0"/>
<path d="M91.364 367.221C91.3882 367.566 91.4355 367.912 91.4931 368.246C91.879 370.469 93.0333 372.474 94.6357 373.972C96.4847 375.7 98.9442 376.771 101.582 376.771H198.915C203.845 376.771 207.639 373.038 207.812 368.246C207.823 367.912 207.822 367.566 207.798 367.221C207.614 364.594 206.375 362.198 204.527 360.482C202.678 358.754 200.219 357.682 197.581 357.682H100.247C94.9709 357.682 90.9954 361.956 91.364 367.221Z" fill="#F0F0F0"/>
<path d="M207.807 368.245C207.801 368.556 207.774 368.867 207.722 369.167C207.466 366.678 206.25 364.42 204.481 362.784C202.634 361.056 200.176 359.985 197.538 359.985L94.0288 360.146C95.6105 358.614 97.7924 357.681 100.246 357.681H197.579C200.217 357.681 202.675 358.752 204.522 360.48C206.37 362.197 207.617 364.593 207.801 367.22C207.819 367.565 207.825 367.911 207.807 368.245Z" fill="#E0E0E0"/>
<path d="M191.151 362.286L191.477 366.942L195.841 365.326L196.831 367.624L192.375 369.094L195.488 373L193.476 374.472L190.446 370.412L188.026 374.472L185.872 373L188.397 369.094L183.776 367.624L184.442 365.34L189.072 366.897L188.75 362.286H191.151Z" fill="white"/>
<path d="M164.532 362.286L164.858 366.942L169.222 365.326L170.212 367.624L165.756 369.094L168.868 373L166.857 374.472L163.827 370.412L161.407 374.472L159.253 373L161.778 369.094L157.157 367.624L157.823 365.34L162.453 366.897L162.13 362.286H164.532Z" fill="white"/>
<path d="M137.913 362.286L138.239 366.942L142.602 365.326L143.592 367.624L139.136 369.094L142.249 373L140.237 374.472L137.208 370.412L134.787 374.472L132.633 373L135.158 369.094L130.538 367.624L131.203 365.34L135.833 366.897L135.511 362.286H137.913Z" fill="white"/>
<path d="M111.294 362.286L111.62 366.942L115.983 365.326L116.973 367.624L112.517 369.094L115.63 373L113.618 374.472L110.589 370.412L108.168 374.472L106.014 373L108.539 369.094L103.918 367.624L104.584 365.34L109.214 366.897L108.892 362.286H111.294Z" fill="white"/>
<path d="M175.951 354.32H171.414L171.435 353.168H175.97L175.951 354.32Z" fill="#E0E0E0"/>
<path d="M195.463 354.32H180.657L180.676 353.168H195.484L195.463 354.32Z" fill="#E0E0E0"/>
<g opacity="0.8">
<path d="M310.332 348.511L328.688 376.772L389.234 316.225C389.767 315.693 389.033 314.865 388.441 315.329L330.739 360.555L319.842 342.986L310.332 348.511Z" fill="#E0E0E0"/>
</g>
<path opacity="0.1" d="M299.354 147.404L255.879 310.01H270.504L313.5 147.404H299.354Z" fill="white"/>
<path opacity="0.1" d="M321.925 147.404L278.449 310.01H307.458L350.454 147.404H321.925Z" fill="white"/>
<path d="M478.437 294.123L487.608 163.597C487.911 159.285 484.644 155.791 480.31 155.795L252.521 155.993C248.187 155.997 244.428 159.497 244.125 163.809L234.954 294.335C234.651 298.647 237.918 302.141 242.252 302.136L470.042 301.938C474.375 301.933 478.134 298.435 478.437 294.123Z" fill="#263238"/>
<path d="M475.514 291.276L484.686 160.75C484.989 156.438 481.721 152.944 477.388 152.949L249.598 153.147C245.264 153.15 241.505 156.65 241.202 160.962L232.031 291.488C231.728 295.801 234.995 299.294 239.329 299.29L467.119 299.091C471.452 299.088 475.211 295.588 475.514 291.276Z" fill="#407BFF"/>
<path opacity="0.6" d="M469.476 293.203C469.151 293.505 468.587 293.868 467.756 293.87L239.966 294.067C238.434 294.068 237.184 292.734 237.291 291.213L246.462 160.688C246.52 159.868 246.917 159.337 247.242 159.034C247.568 158.731 248.13 158.369 248.962 158.367L476.753 158.17C478.285 158.169 479.535 159.501 479.428 161.023L470.257 291.548C470.197 292.37 469.799 292.901 469.476 293.203Z" fill="white"/>
<path d="M393.707 221.448H313.751C312.324 221.448 311.045 222.6 310.896 224.02L309.673 235.712C309.524 237.132 310.561 238.284 311.988 238.284H391.944C393.371 238.284 394.65 237.132 394.799 235.712L396.022 224.02C396.171 222.6 395.134 221.448 393.707 221.448Z" fill="white"/>
<path d="M323.26 269.205H310.783C309.356 269.205 308.077 270.357 307.929 271.778L306.705 283.469C306.556 284.89 307.593 286.042 309.021 286.042H321.498C322.925 286.042 324.204 284.89 324.353 283.469L325.576 271.778C325.726 270.357 324.689 269.205 323.26 269.205Z" fill="white"/>
<path d="M344.804 269.205H332.327C330.899 269.205 329.621 270.357 329.472 271.778L328.249 283.469C328.1 284.89 329.137 286.042 330.564 286.042H343.041C344.469 286.042 345.747 284.89 345.896 283.469L347.119 271.778C347.269 270.357 346.232 269.205 344.804 269.205Z" fill="white"/>
<path d="M366.347 269.205H353.87C352.443 269.205 351.164 270.357 351.015 271.778L349.792 283.469C349.643 284.89 350.68 286.042 352.108 286.042H364.585C366.012 286.042 367.291 284.89 367.439 283.469L368.663 271.778C368.813 270.357 367.776 269.205 366.347 269.205Z" fill="white"/>
<path d="M387.891 269.205H375.414C373.987 269.205 372.708 270.357 372.559 271.778L371.336 283.469C371.187 284.89 372.224 286.042 373.651 286.042H386.129C387.556 286.042 388.835 284.89 388.983 283.469L390.207 271.778C390.357 270.357 389.32 269.205 387.891 269.205Z" fill="white"/>
<path d="M323.78 261.24H373.795C376.227 261.24 378.403 259.278 378.657 256.859L379.258 251.119C379.512 248.698 377.746 246.738 375.314 246.738H325.299C322.867 246.738 320.691 248.7 320.437 251.119L319.837 256.859C319.582 259.278 321.348 261.24 323.78 261.24Z" stroke="#407BFF" stroke-miterlimit="10" stroke-linecap="round" stroke-linejoin="round"/>
<path d="M396.588 197.1H316.632C315.204 197.1 313.926 198.252 313.777 199.673L312.554 211.364C312.405 212.785 313.442 213.937 314.869 213.937H394.825C396.252 213.937 397.531 212.785 397.68 211.364L398.903 199.673C399.053 198.252 398.015 197.1 396.588 197.1Z" fill="white"/>
<path d="M323.474 229.867C323.638 228.294 322.49 227.019 320.911 227.019C319.33 227.019 317.915 228.294 317.751 229.867C317.586 231.439 318.734 232.714 320.315 232.714C321.895 232.714 323.309 231.439 323.474 229.867Z" fill="#263238"/>
<path d="M332.268 229.867C332.433 228.294 331.284 227.019 329.703 227.019C328.123 227.019 326.708 228.294 326.544 229.867C326.379 231.439 327.527 232.714 329.107 232.714C330.688 232.714 332.103 231.439 332.268 229.867Z" fill="#263238"/>
<path d="M341.061 229.867C341.226 228.294 340.078 227.019 338.497 227.019C336.916 227.019 335.502 228.294 335.337 229.867C335.172 231.439 336.32 232.714 337.901 232.714C339.482 232.714 340.897 231.439 341.061 229.867Z" fill="#263238"/>
<path d="M349.856 229.867C350.02 228.294 348.873 227.019 347.292 227.019C345.712 227.019 344.297 228.294 344.132 229.867C343.968 231.439 345.116 232.714 346.697 232.714C348.276 232.714 349.691 231.439 349.856 229.867Z" fill="#263238"/>
<path d="M358.821 229.867C358.986 228.294 357.838 227.019 356.258 227.019C354.678 227.019 353.263 228.294 353.098 229.867C352.934 231.439 354.082 232.714 355.663 232.714C357.242 232.714 358.657 231.439 358.821 229.867Z" fill="#263238"/>
<path d="M326.355 205.519C326.519 203.947 325.371 202.671 323.79 202.671C322.21 202.671 320.795 203.947 320.63 205.519C320.466 207.092 321.614 208.367 323.194 208.367C324.775 208.368 326.19 207.093 326.355 205.519Z" fill="#263238"/>
<path d="M335.149 205.519C335.314 203.947 334.167 202.671 332.585 202.671C331.004 202.671 329.59 203.947 329.425 205.519C329.26 207.092 330.408 208.367 331.988 208.367C333.57 208.368 334.984 207.093 335.149 205.519Z" fill="#263238"/>
<path d="M343.942 205.519C344.107 203.947 342.959 202.671 341.379 202.671C339.799 202.671 338.384 203.947 338.219 205.519C338.055 207.092 339.203 208.367 340.783 208.367C342.363 208.368 343.778 207.093 343.942 205.519Z" fill="#263238"/>
<path d="M352.737 205.519C352.902 203.947 351.753 202.671 350.174 202.671C348.593 202.671 347.179 203.947 347.014 205.519C346.849 207.092 347.998 208.367 349.578 208.367C351.159 208.367 352.572 207.093 352.737 205.519Z" fill="#263238"/>
<path d="M361.53 205.519C361.695 203.947 360.546 202.671 358.967 202.671C357.386 202.671 355.971 203.947 355.807 205.519C355.642 207.092 356.791 208.367 358.371 208.367C359.95 208.368 361.365 207.093 361.53 205.519Z" fill="#263238"/>
<path d="M370.324 205.519C370.489 203.947 369.341 202.671 367.761 202.671C366.181 202.671 364.766 203.947 364.601 205.519C364.436 207.092 365.584 208.367 367.166 208.367C368.745 208.368 370.16 207.093 370.324 205.519Z" fill="#263238"/>
<path d="M362.855 171.316L362.231 177.221C362.175 177.754 361.696 178.184 361.161 178.184C360.627 178.184 360.238 177.752 360.295 177.221L360.918 171.316C361.12 169.41 359.725 167.857 357.808 167.857H355.685C353.769 167.857 352.045 169.41 351.845 171.316L351.305 176.801H349.368L349.908 171.316C350.222 168.346 352.905 165.93 355.888 165.93H358.012C360.994 165.93 363.168 168.345 362.855 171.316Z" fill="#407BFF"/>
<path d="M362.894 177.005L361.68 188.51C361.603 189.238 360.949 189.827 360.218 189.827H348.658C347.927 189.827 347.396 189.238 347.473 188.51L348.687 177.005C348.737 176.535 349.03 176.121 349.426 175.89C349.642 175.762 349.891 175.688 350.149 175.688H361.71C361.961 175.688 362.187 175.757 362.373 175.877C362.733 176.107 362.945 176.526 362.894 177.005Z" fill="#407BFF"/>
<path d="M453.092 152.188L424.94 152.356" stroke="#263238" stroke-miterlimit="10" stroke-linecap="round" stroke-linejoin="round"/>
<path d="M468.437 152.112L458.487 152.156" stroke="#263238" stroke-miterlimit="10" stroke-linecap="round" stroke-linejoin="round"/>
<g opacity="0.3">
<path d="M270.834 158.333H303.062L270.298 294.068H244.36C244.337 294.068 244.312 294.068 244.289 294.068C241.08 294.05 238.815 290.979 239.567 287.862L270.834 158.333Z" fill="white"/>
<path d="M317.371 158.333H331.053L298.289 294.068H284.607L317.371 158.333Z" fill="white"/>
</g>
<path d="M99.826 115.964H106.365C99.7834 115.964 94.8205 121.299 95.2813 127.881L109.161 326.368C109.62 332.95 115.33 338.286 121.911 338.286H115.372C108.791 338.286 103.083 332.951 102.622 326.368L88.7414 127.88C88.2818 121.299 93.2435 115.964 99.826 115.964Z" fill="#407BFF"/>
<path d="M99.8258 115.964H106.365C99.7832 115.964 94.8204 121.298 95.2812 127.881L109.16 326.368C109.62 332.95 115.329 338.286 121.911 338.286H115.372C108.791 338.286 102.161 332.951 101.7 326.368L87.8197 127.88C87.36 121.298 93.2433 115.964 99.8258 115.964Z" fill="#263238"/>
<path d="M117.321 338.285H197.382C203.963 338.285 208.926 332.95 208.465 326.367L194.586 127.88C194.125 121.299 188.417 115.963 181.836 115.963H101.775C95.1938 115.963 90.231 121.297 90.6918 127.88L104.571 326.367C105.032 332.949 110.74 338.285 117.321 338.285Z" fill="#407BFF"/>
<g opacity="0.6">
<path d="M181.62 119.787C186.19 119.787 190.169 123.508 190.488 128.08L204.368 326.567C204.516 328.696 203.838 330.684 202.456 332.167C201.08 333.646 199.152 334.459 197.033 334.459H116.972C112.402 334.459 108.424 330.739 108.104 326.166L94.2237 127.681C94.0751 125.553 94.7536 123.563 96.1349 122.081C97.5115 120.603 99.4388 119.788 101.559 119.788L181.62 119.787Z" fill="white"/>
</g>
<g opacity="0.3">
<path d="M159.015 334.46H127.083L153.417 119.787H179.116C181.458 119.787 183.555 120.769 185.036 122.337L159.015 334.46Z" fill="white"/>
<path d="M121.352 334.46H114.168L140.502 119.787H147.685L121.352 334.46Z" fill="white"/>
</g>
<path d="M118.859 213.585H176.852" stroke="white" stroke-miterlimit="10" stroke-linecap="round" stroke-linejoin="round"/>
<path d="M126.34 222.161H171.766" stroke="white" stroke-miterlimit="10" stroke-linecap="round" stroke-linejoin="round"/>
<path d="M120.589 174.042L120.669 176.32H119.183L119.103 174.023L116.472 169.889H118.05L119.866 172.746L121.481 169.889H122.941L120.589 174.042Z" fill="#407BFF"/>
<path d="M123.002 173.105C122.934 171.194 124.37 169.779 126.399 169.779C128.417 169.779 129.963 171.186 130.03 173.105C130.098 175.026 128.651 176.431 126.633 176.431C124.605 176.431 123.07 175.015 123.002 173.105ZM128.526 173.105C128.483 171.883 127.59 171.048 126.444 171.048C125.297 171.048 124.464 171.884 124.506 173.105C124.549 174.328 125.441 175.164 126.588 175.164C127.735 175.163 128.568 174.326 128.526 173.105Z" fill="#407BFF"/>
<path d="M131.114 173.491L130.989 169.89H132.475L132.598 173.437C132.641 174.659 133.191 175.164 134.091 175.164C134.999 175.164 135.505 174.658 135.462 173.437L135.339 169.89H136.806L136.932 173.491C136.999 175.384 135.953 176.431 134.127 176.431C132.301 176.431 131.181 175.384 131.114 173.491Z" fill="#407BFF"/>
<path d="M142.597 176.32L141.296 174.529H141.222H139.928L139.991 176.32H138.505L138.281 169.889H141.061C142.777 169.889 143.881 170.78 143.931 172.223C143.966 173.187 143.505 173.895 142.681 174.254L144.195 176.32H142.597ZM141.02 171.102H139.807L139.885 173.344H141.097C142.005 173.344 142.45 172.921 142.425 172.223C142.4 171.515 141.927 171.102 141.02 171.102Z" fill="#407BFF"/>
<path d="M147.335 173.105C147.267 171.166 148.705 169.779 150.705 169.779C151.815 169.779 152.757 170.184 153.388 170.919L152.464 171.801C152.016 171.305 151.466 171.048 150.824 171.048C149.621 171.048 148.797 171.892 148.84 173.105C148.882 174.318 149.765 175.164 150.968 175.164C151.61 175.164 152.143 174.906 152.555 174.401L153.54 175.284C152.961 176.028 152.048 176.432 150.928 176.432C148.939 176.431 147.403 175.043 147.335 173.105Z" fill="#407BFF"/>
<path d="M153.93 173.105C153.862 171.194 155.299 169.779 157.327 169.779C159.345 169.779 160.891 171.186 160.958 173.105C161.026 175.026 159.579 176.431 157.561 176.431C155.533 176.431 153.998 175.015 153.93 173.105ZM159.453 173.105C159.411 171.883 158.518 171.048 157.372 171.048C156.224 171.048 155.391 171.884 155.434 173.105C155.477 174.328 156.368 175.164 157.516 175.164C158.662 175.163 159.496 174.326 159.453 173.105Z" fill="#407BFF"/>
<path d="M161.972 169.889H164.89C166.99 169.889 168.475 171.157 168.544 173.105C168.613 175.053 167.216 176.322 165.114 176.322H162.196L161.972 169.889ZM164.998 175.098C166.273 175.098 167.082 174.336 167.038 173.105C166.996 171.875 166.134 171.112 164.857 171.112H163.499L163.639 175.099H164.998V175.098Z" fill="#407BFF"/>
<path d="M174.713 175.126L174.754 176.32H169.781L169.556 169.889H174.411L174.452 171.083H171.074L171.123 172.48H174.105L174.147 173.637H171.164L171.216 175.126H174.713Z" fill="#407BFF"/>
<path d="M131.764 200.224L131.81 202.809H119.683L119.647 200.766L126.072 194.562C127.643 193.035 127.909 192.07 127.892 191.156C127.866 189.651 126.816 188.781 124.795 188.781C123.197 188.781 121.868 189.322 120.972 190.497L118.804 188.852C120.043 187.136 122.306 186.126 125.008 186.126C128.581 186.126 130.916 187.935 130.967 190.849C130.994 192.447 130.574 193.904 128.331 196.043L124.01 200.225H131.764V200.224Z" fill="#263238"/>
<path d="M145.166 197.876C145.215 200.648 143.165 203.045 138.746 203.045C136.419 203.045 134.081 202.34 132.532 201.141L133.806 198.767C134.998 199.753 136.796 200.389 138.652 200.389C140.837 200.389 142.113 199.425 142.086 197.899C142.06 196.417 140.961 195.454 138.471 195.454H136.966L136.931 193.363L140.588 188.922H133.115L133.071 186.361H144.281L144.316 188.405L140.404 193.152C143.515 193.551 145.122 195.407 145.166 197.876Z" fill="#263238"/>
<path d="M160.515 198.086C160.569 201.141 157.946 203.045 153.857 203.045C149.767 203.045 147.127 201.141 147.073 198.086C147.041 196.277 147.957 194.938 149.636 194.163C148.307 193.433 147.558 192.258 147.531 190.708C147.482 187.888 149.918 186.125 153.561 186.125C157.227 186.125 159.749 187.888 159.799 190.708C159.825 192.258 159.095 193.433 157.768 194.163C159.497 194.938 160.484 196.277 160.515 198.086ZM157.435 197.993C157.406 196.371 155.979 195.361 153.722 195.361C151.466 195.361 150.12 196.371 150.148 197.993C150.177 199.661 151.558 200.648 153.814 200.648C156.071 200.647 157.464 199.66 157.435 197.993ZM150.541 190.848C150.565 192.258 151.757 193.151 153.684 193.151C155.634 193.151 156.818 192.258 156.793 190.848C156.768 189.368 155.483 188.521 153.603 188.521C151.722 188.522 150.515 189.368 150.541 190.848Z" fill="#263238"/>
<path d="M175.838 198.086C175.892 201.141 173.269 203.045 169.179 203.045C165.09 203.045 162.449 201.141 162.395 198.086C162.364 196.277 163.28 194.938 164.958 194.163C163.63 193.433 162.88 192.258 162.854 190.708C162.804 187.888 165.241 186.125 168.883 186.125C172.55 186.125 175.072 187.888 175.121 190.708C175.149 192.258 174.418 193.433 173.09 194.163C174.82 194.938 175.806 196.277 175.838 198.086ZM172.758 197.993C172.729 196.371 171.301 195.361 169.045 195.361C166.789 195.361 165.442 196.371 165.471 197.993C165.5 199.661 166.881 200.648 169.137 200.648C171.394 200.647 172.786 199.66 172.758 197.993ZM165.863 190.848C165.888 192.258 167.078 193.151 169.005 193.151C170.956 193.151 172.14 192.258 172.115 190.848C172.089 189.368 170.805 188.521 168.924 188.521C167.045 188.522 165.837 189.368 165.863 190.848Z" fill="#263238"/>
<path d="M88.3804 144.733L90.4229 172.578" stroke="#407BFF" stroke-miterlimit="10" stroke-linecap="round" stroke-linejoin="round"/>
<path d="M87.4497 132.048L87.9888 139.397" stroke="#407BFF" stroke-miterlimit="10" stroke-linecap="round" stroke-linejoin="round"/>
<path d="M142.123 104.363V87.4103" stroke="#407BFF" stroke-miterlimit="10" stroke-linecap="round" stroke-linejoin="round"/>
<path d="M128.703 107.949L120.23 93.2775" stroke="#407BFF" stroke-miterlimit="10" stroke-linecap="round" stroke-linejoin="round"/>
<path d="M164.015 93.2775L155.542 107.956" stroke="#407BFF" stroke-miterlimit="10" stroke-linecap="round" stroke-linejoin="round"/>
<path d="M361.604 405.226C355.781 428.553 353.417 452.741 354.613 476.753" stroke="#407BFF" stroke-miterlimit="10"/>
<path d="M356.223 404.233C356.275 406.384 358.203 413.988 360.355 413.937C362.506 413.885 364.064 406.195 364.013 404.044C363.961 401.894 362.175 400.192 360.024 400.244C357.872 400.297 356.171 402.084 356.223 404.233Z" fill="#407BFF"/>
<path d="M364.601 428.415C364.549 426.264 362.621 418.66 360.47 418.712C358.319 418.764 356.759 426.452 356.812 428.604C356.864 430.755 358.65 432.456 360.801 432.404C362.951 432.351 364.653 430.566 364.601 428.415Z" fill="#407BFF"/>
<path d="M348.321 420.513C350.472 420.462 358.076 418.533 358.024 416.381C357.973 414.23 350.284 412.672 348.132 412.724C345.981 412.777 344.28 414.562 344.332 416.713C344.385 418.864 346.17 420.565 348.321 420.513Z" fill="#407BFF"/>
<path d="M372.501 412.135C370.351 412.187 362.746 414.115 362.798 416.266C362.85 418.417 370.538 419.975 372.69 419.924C374.841 419.872 376.543 418.086 376.491 415.935C376.439 413.785 374.652 412.083 372.501 412.135Z" fill="#407BFF"/>
<path d="M348.899 410.738C350.457 412.221 357.198 416.235 358.682 414.677C360.167 413.12 355.832 406.58 354.274 405.096C352.717 403.612 350.251 403.671 348.767 405.23C347.283 406.787 347.342 409.253 348.899 410.738Z" fill="#407BFF"/>
<path d="M371.924 421.911C370.366 420.427 363.626 416.413 362.141 417.971C360.657 419.528 364.991 426.067 366.548 427.552C368.106 429.036 370.572 428.977 372.056 427.419C373.541 425.861 373.481 423.396 371.924 421.911Z" fill="#407BFF"/>
<path d="M354.825 427.836C356.309 426.278 360.323 419.537 358.764 418.053C357.206 416.569 350.668 420.903 349.183 422.46C347.699 424.018 347.759 426.484 349.316 427.968C350.875 429.453 353.34 429.394 354.825 427.836Z" fill="#407BFF"/>
<path d="M365.998 404.813C364.515 406.37 360.501 413.111 362.059 414.596C363.616 416.079 370.156 411.746 371.64 410.187C373.125 408.629 373.065 406.163 371.506 404.679C369.949 403.195 367.482 403.255 365.998 404.813Z" fill="#407BFF"/>
<path d="M355.8 416.436C355.861 418.984 357.976 421 360.523 420.937C363.07 420.876 365.086 418.761 365.024 416.214C364.962 413.667 362.847 411.651 360.299 411.713C357.752 411.773 355.738 413.888 355.8 416.436Z" fill="white"/>
<path d="M355.139 450.725C355.139 450.725 355.935 438.959 362.392 437.098C368.849 435.237 371.219 432.714 371.219 432.714C371.219 432.714 370.565 450.952 355.139 450.725Z" fill="#407BFF"/>
<path opacity="0.5" d="M355.139 450.725C355.139 450.725 355.935 438.959 362.392 437.098C368.849 435.237 371.219 432.714 371.219 432.714C371.219 432.714 370.565 450.952 355.139 450.725Z" fill="white"/>
<path d="M354.285 459.731C354.285 459.731 353.489 447.966 347.032 446.104C340.575 444.243 338.204 441.721 338.204 441.721C338.204 441.721 338.858 459.957 354.285 459.731Z" fill="#407BFF"/>
<path opacity="0.5" d="M354.285 459.731C354.285 459.731 353.489 447.966 347.032 446.104C340.575 444.243 338.204 441.721 338.204 441.721C338.204 441.721 338.858 459.957 354.285 459.731Z" fill="white"/>
<path d="M378.661 484.234C378.661 493.415 367.729 500.846 354.25 500.846C340.76 500.846 329.839 493.415 329.839 484.234C329.839 479.591 332.639 475.387 337.166 472.38C339.781 470.629 342.972 469.281 346.52 468.486H361.98C365.632 469.316 368.904 470.71 371.553 472.53C375.954 475.536 378.661 479.661 378.661 484.234Z" fill="#407BFF"/>
<path opacity="0.8" d="M361.98 468.486C365.632 469.316 368.904 470.71 371.553 472.53C375.954 475.536 378.661 479.661 378.661 484.234C378.661 493.415 367.729 500.846 354.25 500.846C340.76 500.846 329.839 493.415 329.839 484.234C329.839 479.591 332.639 475.387 337.166 472.38C339.781 470.629 342.972 469.281 346.52 468.486H361.98Z" fill="white"/>
<path d="M354.32 469.981C354.32 472.719 354.32 475.457 354.32 478.194" stroke="#407BFF" stroke-miterlimit="10"/>
<path d="M372.628 468.23L371.332 472.267L371.312 472.308H337.178L337.106 472.093L335.873 468.23H372.628Z" fill="#407BFF"/>
<path d="M375.777 487.57C373.425 490.97 370.075 493.683 366.401 495.632C360.538 498.743 335.872 499.546 333.058 485.552C333.019 485.357 332.953 485.168 332.917 484.971C332.245 481.31 335.502 478.054 339.207 478.424C341.509 478.655 343.912 478.381 346.2 478.033C355.024 476.688 364.122 477.181 372.752 479.457C376.277 480.386 377.852 484.572 375.777 487.57Z" fill="#263238"/>
<path d="M198.731 482.917C199.163 482.763 199.45 482.422 199.585 481.905C199.687 481.514 199.54 481.258 199.4 481.112C198.511 480.185 194.908 480.842 194.5 480.921C194.406 480.939 194.332 481.01 194.311 481.103C194.291 481.195 194.329 481.291 194.406 481.345C195.004 481.768 195.877 482.326 196.744 482.676C197.465 482.967 198.182 483.114 198.731 482.917ZM199.049 481.436C199.108 481.497 199.169 481.592 199.119 481.787C199.025 482.149 198.844 482.372 198.567 482.473C197.914 482.708 196.664 482.266 195.165 481.285C196.613 481.064 198.583 480.943 199.049 481.436Z" fill="#407BFF"/>
<path d="M194.576 481.386C195.679 481.249 198.215 479.947 198.438 478.822C198.48 478.606 198.473 478.201 197.945 477.911C197.61 477.725 197.252 477.695 196.882 477.823C195.492 478.299 194.371 480.951 194.323 481.064C194.29 481.141 194.302 481.231 194.354 481.298C194.38 481.331 194.415 481.356 194.453 481.372C194.492 481.385 194.534 481.391 194.576 481.386ZM197.71 478.321C197.979 478.469 197.988 478.618 197.965 478.73C197.829 479.416 196.142 480.482 194.957 480.822C195.378 479.958 196.21 478.551 197.039 478.267C197.241 478.197 197.428 478.2 197.61 478.274C197.644 478.287 197.677 478.303 197.71 478.321Z" fill="#407BFF"/>
<path d="M183.639 476.744L193.018 480.534L201.203 458.865L191.824 455.075L183.639 476.744Z" fill="#FFB573"/>
<path d="M194.207 479.767L183.67 475.508C183.287 475.352 182.866 475.489 182.659 475.836L178.035 483.553C177.556 484.354 177.962 485.46 178.853 485.802C182.552 487.225 184.411 487.728 189.044 489.6C191.894 490.752 195.938 492.727 199.874 494.317C203.724 495.874 205.619 492.163 204.125 491.154C197.425 486.628 197.159 484.014 195.538 480.967C195.245 480.417 194.768 479.992 194.207 479.767Z" fill="#263238"/>
<path d="M201.083 469.496L184.795 462.913L186.287 456.943L203.763 463.337L201.083 469.496Z" fill="#407BFF"/>
<path d="M217.39 218.69C214.086 228.255 204.302 250.788 196.765 241.403C195.419 239.728 194.272 237.913 193.472 235.919C190.272 228.023 189.485 215.236 189.08 212.441L186.512 203.676C186.467 203.525 186.444 203.367 186.443 203.211L186.401 198.205C186.401 196.176 188.036 194.97 190.25 195.156C190.25 195.156 193.821 194.739 193.821 196.872L194.517 204.384H194.494C194.854 207.005 193.81 210.646 194.425 213.045C196.721 222.065 199.896 222.471 201.89 231.78C204.661 225.067 209.635 213.439 209.635 213.439C212.985 213.855 218.48 215.536 217.39 218.69Z" fill="#FFB573"/>
<path d="M205.577 244.839C203.326 248.311 198.261 248.512 195.82 245.172C194.329 243.131 193.147 240.882 192.633 239.188C189.641 229.368 187.786 223.281 187.532 213.02C189.619 210.852 193.015 210.041 195.856 211.049L200.76 227.674C200.76 227.674 210.754 202.849 214.788 201.956C219.553 200.912 221.535 205.159 223.541 210.388C224.987 214.151 212.085 234.797 205.577 244.839Z" fill="#407BFF"/>
<path d="M245.93 177.114C244.8 182.877 242.262 195.447 246.294 199.293C246.294 199.293 244.719 205.138 234.012 205.138C222.238 205.138 228.385 199.293 228.385 199.293C234.811 197.758 234.645 192.99 233.527 188.513L245.93 177.114Z" fill="#FFB573"/>
<path d="M227.921 163.524C227.99 163.524 228.06 163.508 228.126 163.476C228.353 163.362 228.445 163.085 228.331 162.858C227.191 160.583 225.083 160.319 224.995 160.309C224.743 160.278 224.514 160.462 224.485 160.714C224.457 160.966 224.638 161.194 224.889 161.222C224.959 161.231 226.599 161.454 227.508 163.27C227.59 163.431 227.753 163.523 227.921 163.524Z" fill="#263238"/>
<path d="M224.411 168.56C224.411 168.56 222.677 171.744 221.025 173.178C221.933 174.263 223.732 174.041 223.732 174.041L224.411 168.56Z" fill="#ED893E"/>
<path d="M225.336 166.874C225.501 167.64 225.231 168.349 224.73 168.457C224.23 168.565 223.689 168.033 223.523 167.267C223.358 166.501 223.628 165.792 224.128 165.684C224.628 165.576 225.168 166.109 225.336 166.874Z" fill="#263238"/>
<path d="M224.359 165.68L222.405 165.548C222.405 165.548 223.659 166.78 224.359 165.68Z" fill="#263238"/>
<path d="M184.296 194.748V194.771C184.296 194.759 184.284 194.759 184.284 194.748H184.296Z" fill="#FFB573"/>
<path opacity="0.2" d="M216.976 213.772C219.016 211.905 220.396 212.462 221.335 213.946C222.262 218.259 216.767 227.291 214.553 230.711L216.976 213.772Z" fill="black"/>
<path d="M264.158 219.453C263.893 224.199 263.444 230.178 262.718 237.7C261.958 245.638 260.875 255.28 259.389 266.996C243.733 266.996 227.34 266.754 219.726 266.754C220.363 251.192 220.598 235.425 213.617 204.452C213.25 202.825 214.316 201.214 215.959 200.921C219.121 200.358 224.36 199.553 229.692 199.293C236.327 198.97 241.765 198.763 247.605 199.293C255.289 199.995 264.021 201.781 264.021 201.781C264.021 201.781 264.988 204.638 264.158 219.453Z" fill="#407BFF"/>
<path opacity="0.2" d="M264.158 219.453C263.893 224.199 263.444 230.178 262.718 237.7C258.502 232.816 254.516 215.997 255.783 210.248C258.893 212.368 261.773 215.628 263.974 218.543C264.043 218.819 264.112 219.117 264.158 219.453Z" fill="black"/>
<path d="M304.811 240.538L312.833 236.026L314.332 244.24C314.332 244.24 307.533 246.845 303.933 245.02L304.811 240.538Z" fill="#FFB573"/>
<path d="M318.207 236.96L318.765 239.64C318.94 240.484 318.59 241.349 317.878 241.833L314.333 244.24L312.834 236.026L315.608 235.331C316.78 235.036 317.962 235.776 318.207 236.96Z" fill="#FFB573"/>
<path d="M256.432 211.301C259.003 216.533 268.433 236.286 272.578 240.852L273.389 241.703L273.795 242.127C273.933 242.27 274.043 242.397 274.265 242.591C275.042 243.322 275.87 243.936 276.709 244.438C278.391 245.446 280.095 246.037 281.733 246.466C285.014 247.286 288.131 247.42 291.155 247.361C297.216 247.124 302.886 246.106 308.55 244.406L307.521 239.596C304.865 239.822 302.075 239.986 299.375 240.031C296.664 240.106 293.968 240.03 291.368 239.777C288.776 239.553 286.251 239.099 284.115 238.366C283.061 237.992 282.132 237.515 281.437 237.014C281.088 236.765 280.808 236.502 280.58 236.25C280.534 236.214 280.417 236.07 280.32 235.953L280.019 235.593L279.417 234.877C276.235 230.892 267.836 211.679 265.316 206.876L256.432 211.301Z" fill="#FFB573"/>
<path d="M304.685 248.711C298.146 252.235 290.181 253.013 283.086 250.81C276.338 248.711 270.333 243.819 266.854 237.662C262.692 231.541 251.621 214.239 253.012 209.763C254.658 204.418 258.16 201.102 264.014 202.54C268.13 203.538 275.978 223.506 279.769 231.494C281.264 233.72 284.117 237.245 287.305 238.335C292.94 240.283 297.091 239.436 302.992 238.602C304.071 239.252 303.99 240.249 304.535 241.373C305.648 243.645 305.833 246.462 304.685 248.711Z" fill="#407BFF"/>
<path d="M251.738 167.875C249.971 177.35 249.425 181.397 243.997 185.701C235.831 192.176 224.581 187.932 223.482 178.12C222.492 169.289 225.55 155.278 235.365 152.634C245.035 150.032 253.507 158.401 251.738 167.875Z" fill="#FFB573"/>
<path d="M285.35 220.309C283.541 222.371 282.971 223.564 280.46 224.681C277.948 225.799 272.466 224.826 270.727 222.694C271.291 224.353 274.59 227.336 276.318 227.566C272.494 229.801 267.114 228.856 264.268 225.446C264.545 227.462 266.446 229.271 268.37 229.951C246.294 230.521 255.589 220.132 241.774 205.36C226.47 188.996 229.789 175.473 229.789 175.473C229.778 173.134 229.259 169.252 226.782 166.095C224.571 163.261 225.216 159.437 225.918 157.294C226.944 154.149 230.066 153.043 233.061 152.859C233.588 149.755 239.929 150.327 240.74 150.845C241.436 151.29 241.613 151.253 242.308 150.807C243.867 149.808 247.782 148.766 251.975 152.156C254.535 154.226 257.269 157.939 257.361 165.842C257.457 174.06 253.535 183.81 267.12 196.295C275.126 203.653 271.299 219.447 285.35 220.309Z" fill="#263238"/>
<path d="M227.969 168.591C226.805 170.203 226.471 172.208 226.727 173.825C227.113 176.257 229.484 176.418 231.201 174.86C232.746 173.457 234.406 170.501 233.141 168.485C231.894 166.499 229.301 166.747 227.969 168.591Z" fill="#FFB573"/>
<path d="M249.348 266.991C249.348 266.991 244.644 333.124 239.335 376.744C237.744 389.814 233.76 402.485 227.567 414.153L201.547 463.18L188.229 457.942C188.229 457.942 197.403 411.339 215.396 385.929C215.396 385.929 201.966 309.978 219.543 266.758L249.348 266.991Z" fill="#263238"/>
<path opacity="0.2" d="M231.239 283.006C231.239 283.006 235.198 313.005 237.374 330.782C229.205 320.067 222.949 305.12 231.239 283.006Z" fill="black"/>
<path d="M282.978 489.128C283.286 488.791 283.378 488.358 283.25 487.84C283.155 487.449 282.902 487.289 282.709 487.225C281.483 486.814 278.612 489.056 278.289 489.313C278.214 489.372 278.183 489.47 278.208 489.561C278.233 489.651 278.312 489.719 278.407 489.731C279.136 489.829 280.174 489.92 281.107 489.83C281.884 489.754 282.587 489.554 282.978 489.128ZM282.554 487.672C282.635 487.698 282.735 487.755 282.782 487.95C282.871 488.313 282.819 488.594 282.621 488.81C282.156 489.318 280.841 489.504 279.05 489.328C280.225 488.465 281.907 487.452 282.554 487.672Z" fill="#407BFF"/>
<path d="M278.577 489.689C279.486 489.06 281.108 486.741 280.77 485.643C280.705 485.433 280.506 485.078 279.9 485.065C279.516 485.054 279.186 485.194 278.92 485.476C277.917 486.537 278.188 489.396 278.201 489.518C278.209 489.601 278.262 489.675 278.34 489.709C278.379 489.727 278.422 489.734 278.463 489.729C278.504 489.727 278.543 489.714 278.577 489.689ZM279.888 485.537C280.197 485.544 280.276 485.671 280.31 485.78C280.516 486.449 279.533 488.168 278.648 489.015C278.609 488.057 278.673 486.432 279.271 485.798C279.416 485.645 279.583 485.56 279.779 485.541C279.815 485.538 279.852 485.537 279.888 485.537Z" fill="#407BFF"/>
<path d="M266.706 490.628L276.797 489.654L273.717 466.736L263.627 467.709L266.706 490.628Z" fill="#FFB573"/>
<path d="M277.481 488.428L266.145 489.521C265.733 489.561 265.426 489.874 265.407 490.276L264.993 499.226C264.951 500.155 265.836 500.944 266.787 500.837C270.732 500.389 272.614 499.977 277.6 499.497C280.666 499.201 285.179 499.083 289.413 498.675C293.556 498.276 293.464 494.124 291.663 493.921C283.59 493.01 282.111 490.822 279.227 488.877C278.709 488.525 278.085 488.37 277.481 488.428Z" fill="#263238"/>
<path d="M259.328 266.975C259.328 266.975 272.236 345.898 274.723 392.651L275.187 476.396L264.743 478.434C264.743 478.434 249.611 425.006 247.87 394.126C243.25 312.186 216.562 312.051 232.619 266.829L259.328 266.975Z" fill="#263238"/>
<path d="M278.656 476.74L261.361 479.109L259.609 472.467L278.093 470.063L278.656 476.74Z" fill="#407BFF"/>
<path d="M184.319 194.83H184.284L184.296 194.772C184.296 194.795 184.307 194.807 184.319 194.83Z" fill="#FFB573"/>
<path d="M185.427 182.307H186.088C185.424 182.307 184.912 182.847 184.947 183.512L185.998 203.573C186.033 204.238 186.601 204.778 187.266 204.778H186.604C185.94 204.778 185.372 204.239 185.337 203.573L184.285 183.512C184.251 182.847 184.762 182.307 185.427 182.307Z" fill="#407BFF"/>
<path opacity="0.1" d="M185.427 182.307H186.088C185.424 182.307 184.912 182.847 184.947 183.512L185.998 203.573C186.033 204.238 186.601 204.778 187.266 204.778H186.604C185.94 204.778 185.372 204.239 185.337 203.573L184.285 183.512C184.251 182.847 184.762 182.307 185.427 182.307Z" fill="white"/>
<path d="M186.801 204.778H194.893C195.559 204.778 196.069 204.239 196.034 203.573L194.983 183.512C194.948 182.848 194.38 182.307 193.715 182.307H185.624C184.959 182.307 184.448 182.847 184.482 183.512L185.534 203.573C185.568 204.238 186.136 204.778 186.801 204.778Z" fill="#407BFF"/>
<path opacity="0.4" d="M186.801 204.778H194.893C195.559 204.778 196.069 204.239 196.034 203.573L194.983 183.512C194.948 182.848 194.38 182.307 193.715 182.307H185.624C184.959 182.307 184.448 182.847 184.482 183.512L185.534 203.573C185.568 204.238 186.136 204.778 186.801 204.778Z" fill="white"/>
<path d="M195.529 203.155C195.54 203.363 195.471 203.558 195.333 203.708C195.195 203.846 194.999 203.927 194.792 203.927H186.946C186.497 203.927 186.117 203.558 186.094 203.109L185.069 183.652C185.057 183.444 185.126 183.249 185.264 183.11C185.403 182.961 185.599 182.88 185.806 182.88H193.651C194.1 182.88 194.48 183.249 194.504 183.698L194.573 185.092L195.529 203.155Z" fill="#263238"/>
<g opacity="0.1">
<path d="M194.573 185.092L191.97 203.927H188.848L191.797 182.88H193.652C194.101 182.88 194.481 183.249 194.504 183.698L194.573 185.092Z" fill="white"/>
<path d="M187.719 203.927H187.015L189.965 182.881H190.67L187.719 203.927Z" fill="white"/>
</g>
<path d="M217.176 269.225C211.31 280.725 208.118 293.579 207.923 306.488C227.533 321.681 245.745 303.888 268.16 306.894C267.378 296.77 263.939 278.038 259.854 268.741C245.042 269.366 231.17 267.888 217.176 269.225Z" fill="#407BFF"/>
<path d="M219.216 265.113C219.216 265.113 217.635 269.171 218.087 269.171H259.187C259.541 269.171 259.834 268.998 259.855 268.775L260.209 265.268C260.233 265.025 259.927 264.818 259.541 264.818H219.854C219.562 264.82 219.304 264.938 219.216 265.113Z" fill="white"/>
<path d="M225.007 269.516H223.943C223.731 269.516 223.57 269.407 223.585 269.274L224.084 264.717C224.099 264.583 224.283 264.475 224.495 264.475H225.558C225.77 264.475 225.932 264.584 225.917 264.717L225.418 269.274C225.404 269.407 225.218 269.516 225.007 269.516Z" fill="#407BFF"/>
<path d="M250.77 269.516H249.706C249.494 269.516 249.333 269.407 249.348 269.274L249.847 264.717C249.862 264.583 250.046 264.475 250.258 264.475H251.322C251.533 264.475 251.695 264.584 251.68 264.717L251.181 269.274C251.167 269.407 250.982 269.516 250.77 269.516Z" fill="#407BFF"/>
</svg>
