<svg width="200" height="200" viewBox="0 0 200 200" fill="none" xmlns="http://www.w3.org/2000/svg">
<path d="M179.96 159.398H166.712V159.498H179.96V159.398Z" fill="#EBEBEB"/>
<path d="M132.488 160.483H129.011V160.583H132.488V160.483Z" fill="#EBEBEB"/>
<path d="M166.311 155.683H158.634V155.783H166.311V155.683Z" fill="#EBEBEB"/>
<path d="M38.2608 156.355H20.9836V156.455H38.2608V156.355Z" fill="#EBEBEB"/>
<path d="M44.3556 156.355H41.8224V156.455H44.3556V156.355Z" fill="#EBEBEB"/>
<path d="M90.0588 158.044H52.5884V158.144H90.0588V158.044Z" fill="#EBEBEB"/>
<path d="M95.3605 135.12H18.1208C16.862 135.12 15.8376 134.096 15.8376 132.837V24.264C15.8376 23.0052 16.862 21.9808 18.1208 21.9808H95.3605C96.6189 21.9808 97.6432 23.0052 97.6432 24.264V132.837C97.6432 134.096 96.6189 135.12 95.3605 135.12ZM18.1208 22.0812C16.9168 22.0812 15.9376 23.0604 15.9376 24.2644V132.837C15.9376 134.041 16.9168 135.02 18.1208 135.02H95.3605C96.564 135.02 97.5433 134.041 97.5433 132.837V24.264C97.5433 23.0604 96.564 22.0808 95.3605 22.0808L18.1208 22.0812Z" fill="#EBEBEB"/>
<path d="M181.879 135.12H104.64C103.381 135.12 102.357 134.096 102.357 132.837V24.264C102.357 23.0052 103.381 21.9808 104.64 21.9808H181.879C183.138 21.9808 184.162 23.0052 184.162 24.264V132.837C184.162 134.096 183.138 135.12 181.879 135.12ZM104.64 22.0812C103.436 22.0812 102.457 23.0604 102.457 24.2644V132.837C102.457 134.041 103.436 135.02 104.64 135.02H181.879C183.083 135.02 184.062 134.041 184.062 132.837V24.264C184.062 23.0604 183.083 22.0808 181.879 22.0808L104.64 22.0812Z" fill="#EBEBEB"/>
<path d="M200 152.959H0V153.059H200V152.959Z" fill="#EBEBEB"/>
<path d="M165.141 141.132C165.141 141.132 164.873 127.444 168.899 118.99C172.925 110.535 176.682 103.557 179.232 100.739C179.232 100.739 171.717 119.795 170.643 125.297C169.57 130.799 166.886 141.132 166.886 141.132H165.141V141.132Z" fill="#F5F5F5"/>
<path d="M165.745 140.528C165.745 140.528 166.081 125.834 168.966 120.198C171.851 114.561 176.481 105.771 176.481 105.771C176.481 105.771 171.18 118.654 170.04 124.089C168.899 129.524 166.349 140.528 166.349 140.528H165.745Z" fill="#E6E6E6"/>
<path d="M163.104 141.743C163.104 141.743 163.373 128.055 159.347 119.6C155.321 111.146 151.563 104.167 149.014 101.349C149.014 101.349 156.529 120.405 157.602 125.907C158.676 131.409 161.36 141.743 161.36 141.743H163.104V141.743Z" fill="#F0F0F0"/>
<path d="M162.501 141.139C162.501 141.139 162.165 126.445 159.28 120.809C156.395 115.172 151.765 106.382 151.765 106.382C151.765 106.382 157.066 119.265 158.206 124.7C159.347 130.135 161.897 141.139 161.897 141.139H162.501Z" fill="#E0E0E0"/>
<path d="M162.662 141.434C162.662 141.434 166.556 128.308 164.92 119.088C163.284 109.868 161.514 102.143 159.804 98.7487C159.804 98.7487 161.989 119.116 161.562 124.706C161.136 130.296 160.98 140.97 160.98 140.97L162.662 141.434Z" fill="#EBEBEB"/>
<path d="M162.24 140.692C162.24 140.692 165.819 126.436 164.534 120.235C163.249 114.035 161.12 104.331 161.12 104.331C161.12 104.331 162.809 118.159 162.466 123.702C162.122 129.245 161.658 140.531 161.658 140.531L162.24 140.692Z" fill="#FAFAFA"/>
<path d="M163.981 142.077C163.981 142.077 161.227 128.666 163.648 119.62C166.069 110.574 168.494 103.029 170.489 99.7943C170.489 99.7943 166.566 119.9 166.511 125.505C166.456 131.111 165.697 141.76 165.697 141.76L163.981 142.077Z" fill="#F5F5F5"/>
<path d="M164.465 141.373C164.465 141.373 162.122 126.863 163.933 120.796C165.745 114.729 168.698 105.243 168.698 105.243C168.698 105.243 165.83 118.875 165.697 124.427C165.564 129.979 165.058 141.264 165.058 141.264L164.465 141.373Z" fill="#E6E6E6"/>
<path d="M165.809 153.193H161.586C159.924 153.193 158.549 151.9 158.447 150.241L157.664 140.342H169.731L168.948 150.241C168.846 151.9 167.47 153.193 165.809 153.193Z" fill="#EBEBEB"/>
<path d="M41.1008 129.328C41.1504 129.384 40.8764 129.766 41.992 129.599C44.7396 129.186 49.5248 128.073 50.8572 125.245C52.7596 121.208 46.8612 122.682 47.0648 120.619C47.2684 118.556 53.9796 118.915 54.6924 115.888C55.4056 112.861 50.8524 114.302 50.7924 112.828C50.732 111.352 55.9768 112.268 57.018 109.002C58.0592 105.737 54.0952 108.14 54.5508 106.783C55.0064 105.426 59.4436 99.2839 57.0288 98.5711C54.6144 97.8579 50.5472 104.16 48.978 105.054C47.4088 105.947 46.014 100.803 44.1432 102.974C42.2724 105.146 45.2396 112.745 42.8532 114.219C41.076 115.317 41.578 112.292 39.2324 112.857C36.0464 113.624 37.1184 124.874 41.1008 129.328Z" fill="#E6E6E6"/>
<path d="M49.5825 112.844C48.5013 112.935 47.7033 113.155 47.2077 113.332C48.1761 111.914 48.8725 111.186 48.8973 111.161C48.9761 111.081 48.9749 110.952 48.8949 110.873C48.8149 110.794 48.6861 110.796 48.6073 110.875C48.5877 110.895 46.9817 112.55 45.2229 115.786C44.3589 110.578 46.5397 106.027 46.5625 105.98C46.5997 105.904 46.5681 105.813 46.4925 105.776C46.4173 105.738 46.3253 105.77 46.2885 105.846C46.2645 105.894 43.9365 110.752 44.9917 116.216C44.7109 116.752 44.4277 117.325 44.1477 117.941C43.3397 119.719 42.4945 121.999 41.8261 124.746C41.3621 123.908 40.2993 121.664 40.2041 118.531C40.2017 118.447 40.1313 118.381 40.0469 118.383C39.9613 118.389 39.8965 118.456 39.8989 118.541C40.0089 122.166 41.3981 124.646 41.7205 125.174C40.8361 128.986 40.3061 133.678 40.6869 139.205C40.6945 139.317 40.7917 139.402 40.9041 139.394C40.9129 139.394 40.9213 139.392 40.9293 139.391C41.0285 139.371 41.1001 139.281 41.0933 139.177C40.5889 131.859 41.6837 125.976 43.1977 121.522C43.5821 121.078 44.7181 119.937 46.4469 119.669C46.5253 119.65 46.5873 119.577 46.5741 119.494C46.5609 119.411 46.4829 119.354 46.3997 119.367C45.0325 119.584 44.0309 120.292 43.4361 120.84C44.5537 117.745 45.8541 115.393 46.9077 113.782C47.2473 113.629 48.1753 113.269 49.6081 113.149C49.6909 113.138 49.7545 113.068 49.7473 112.984C49.7405 112.9 49.6669 112.838 49.5825 112.844Z" fill="#F5F5F5"/>
<path d="M37.58 130.887C35.2964 130.93 31.396 128.81 29.8648 126.747C28.3112 124.653 32.682 125.952 32.2332 124.308C31.7844 122.664 26.3952 123.88 25.4008 121.525C24.4064 119.17 28.2944 119.711 28.14 118.508C27.9856 117.304 23.9576 117.549 22.6644 115.046C21.3712 112.542 24.9144 113.945 24.3584 112.908C23.8024 111.87 19.3612 107.504 21.2196 106.594C23.078 105.684 27.2412 110.231 28.636 110.739C30.0308 111.246 30.3568 108.105 32.1716 109.608C33.9864 111.11 32.628 117.676 34.7648 118.542C36.356 119.188 35.6792 116.181 37.5112 116.94C40.7184 118.268 38.5068 130.87 37.58 130.887Z" fill="#E0E0E0"/>
<g opacity="0.3">
<path d="M37.58 130.887C35.2964 130.93 31.396 128.81 29.8648 126.747C28.3112 124.653 32.682 125.952 32.2332 124.308C31.7844 122.664 26.3952 123.88 25.4008 121.525C24.4064 119.17 28.2944 119.711 28.14 118.508C27.9856 117.304 23.9576 117.549 22.6644 115.046C21.3712 112.542 24.9144 113.945 24.3584 112.908C23.8024 111.87 19.3612 107.504 21.2196 106.594C23.078 105.684 27.2412 110.231 28.636 110.739C30.0308 111.246 30.3568 108.105 32.1716 109.608C33.9864 111.11 32.628 117.676 34.7648 118.542C36.356 119.188 35.6792 116.181 37.5112 116.94C40.7184 118.268 38.5068 130.87 37.58 130.887Z" fill="#E0E0E0"/>
</g>
<path d="M36.8256 128.146C36.8584 128.134 36.8884 128.114 36.9064 128.08C36.96 127.978 38.2112 125.557 37.9308 121.958C37.924 121.874 37.8532 121.812 37.7664 121.818C37.6824 121.824 37.6196 121.898 37.626 121.982C37.8632 125.021 36.956 127.245 36.7016 127.8C35.6792 125.025 34.4544 122.556 33.224 120.444C33.628 115.54 31.1152 111.525 31.0896 111.485C31.0444 111.414 30.95 111.393 30.8788 111.438C30.8076 111.483 30.7864 111.578 30.832 111.649C30.8564 111.687 33.164 115.378 32.9488 119.971C30.022 115.069 27.1652 112.22 27.108 112.164C27.028 112.086 26.8988 112.086 26.82 112.168C26.7412 112.248 26.7424 112.377 26.8228 112.456C26.8708 112.502 28.902 114.532 31.2796 118.091C29.8864 117.573 28.3748 117.303 26.9624 117.33C26.878 117.332 26.8112 117.402 26.8128 117.486C26.8144 117.57 26.8824 117.636 26.9656 117.636C26.9668 117.636 26.9676 117.636 26.9684 117.636C28.4808 117.609 30.1084 117.925 31.5732 118.533C32.3908 119.786 33.2396 121.219 34.058 122.806C33.2728 122.275 31.7484 121.54 29.798 122.056C29.7164 122.078 29.6676 122.161 29.6892 122.242C29.7108 122.324 29.794 122.374 29.876 122.351C32.35 121.698 34.0932 123.177 34.3788 123.44C36.618 127.949 38.5492 133.649 38.8052 140.182C38.8096 140.291 38.8996 140.377 39.0084 140.377C39.0112 140.377 39.0136 140.377 39.0164 140.377C39.1288 140.373 39.216 140.278 39.212 140.166C39.0392 135.745 38.1028 131.705 36.8256 128.146Z" fill="#F5F5F5"/>
<path d="M44.0016 153.193C46.1812 149.095 47.6132 143.172 47.6132 140.577C47.6132 138.383 46.5844 136.414 44.9516 135.035H33.79C32.1572 136.414 31.1284 138.383 31.1284 140.577C31.1284 143.173 32.5604 149.095 34.74 153.193H44.0016Z" fill="#E0E0E0"/>
<path d="M55.2448 23.2704H54.7872V36.834H55.2448V23.2704Z" fill="#E6E6E6"/>
<path d="M40.5228 44.3712L55.016 35.6124L69.5092 44.3712H40.5228Z" fill="#EBEBEB"/>
<path d="M56.0164 44.3712L55.016 35.6124L61.5308 44.3712H56.0164Z" fill="#F5F5F5"/>
<path d="M145.213 23.2704H144.755V36.834H145.213V23.2704Z" fill="#E6E6E6"/>
<path d="M130.491 44.3712L144.984 35.6124L159.477 44.3712H130.491Z" fill="#F0F0F0"/>
<path d="M145.984 44.3712L144.984 35.6124L151.499 44.3712H145.984Z" fill="#FAFAFA"/>
<path d="M98.0712 169.486C140.904 169.486 175.627 167.458 175.627 164.956C175.627 162.455 140.904 160.427 98.0712 160.427C55.2384 160.427 20.5156 162.455 20.5156 164.956C20.5156 167.458 55.2384 169.486 98.0712 169.486Z" fill="#F5F5F5"/>
<path d="M74.4468 54.8652C74.4048 54.3516 73.9756 53.9564 73.4604 53.9564C72.9452 53.9564 72.516 54.3516 72.474 54.8652L72.37 56.1372H74.5508L74.4468 54.8652ZM73.4608 55.5284C73.1948 55.5284 72.9792 55.3128 72.9792 55.0468C72.9792 54.7808 73.1948 54.5652 73.4608 54.5652C73.7268 54.5652 73.9424 54.7808 73.9424 55.0468C73.9424 55.3124 73.7268 55.5284 73.4608 55.5284Z" fill="#407BFF"/>
<path d="M124.622 54.8652C124.58 54.3516 124.151 53.9564 123.636 53.9564C123.12 53.9564 122.691 54.3516 122.649 54.8652L122.545 56.1372H124.726L124.622 54.8652ZM123.636 55.5284C123.37 55.5284 123.154 55.3128 123.154 55.0468C123.154 54.7808 123.37 54.5652 123.636 54.5652C123.902 54.5652 124.118 54.7808 124.118 55.0468C124.118 55.3124 123.902 55.5284 123.636 55.5284Z" fill="#407BFF"/>
<path d="M133.15 55.934H63.4285V99.1332H133.15V55.934Z" fill="#263238"/>
<path opacity="0.6" d="M133.15 55.934H63.4285V99.1332H133.15V55.934Z" fill="white"/>
<path opacity="0.9" d="M131.365 57.7184H65.2129V97.3492H131.365V57.7184Z" fill="white"/>
<path d="M133.972 97.948H62.6064V100.018H133.972V97.948Z" fill="#263238"/>
<path opacity="0.7" d="M133.972 97.948H62.6064V100.018H133.972V97.948Z" fill="white"/>
<path opacity="0.2" d="M76.9898 64.8508H71.903V71.5348H76.9898V64.8508Z" fill="#263238"/>
<path d="M78.9317 71.5344C77.1985 68.2184 77.7317 64.8504 77.7317 64.8504H71.9801C71.9801 64.8504 71.4469 68.218 73.1801 71.5344H78.9317Z" fill="#407BFF"/>
<path opacity="0.5" d="M78.9317 71.5344C77.1985 68.2184 77.7317 64.8504 77.7317 64.8504H71.9801C71.9801 64.8504 71.4469 68.218 73.1801 71.5344H78.9317Z" fill="white"/>
<path opacity="0.2" d="M125.834 64.8508H120.748V71.5348H125.834V64.8508Z" fill="#263238"/>
<path d="M127.776 71.5344C126.043 68.2184 126.576 64.8504 126.576 64.8504H120.825C120.825 64.8504 120.292 68.218 122.025 71.5344H127.776Z" fill="#407BFF"/>
<path opacity="0.2" d="M127.776 71.5344C126.043 68.2184 126.576 64.8504 126.576 64.8504H120.825C120.825 64.8504 120.292 68.218 122.025 71.5344H127.776Z" fill="white"/>
<path opacity="0.2" d="M88.9132 64.9692H83.8264V71.6528H88.9132V64.9692Z" fill="#263238"/>
<path d="M90.8552 71.6528C89.122 68.3368 89.6552 64.9688 89.6552 64.9688H83.904C83.904 64.9688 83.3708 68.3364 85.104 71.6528H90.8552Z" fill="#407BFF"/>
<path opacity="0.8" d="M90.8552 71.6528C89.122 68.3368 89.6552 64.9688 89.6552 64.9688H83.904C83.904 64.9688 83.3708 68.3364 85.104 71.6528H90.8552Z" fill="white"/>
<path opacity="0.2" d="M115.448 64.8508H110.361V71.5348H115.448V64.8508Z" fill="#263238"/>
<path d="M117.39 71.5344C115.657 68.2184 116.19 64.8504 116.19 64.8504H110.438C110.438 64.8504 109.905 68.218 111.638 71.5344H117.39Z" fill="#407BFF"/>
<path opacity="0.6" d="M117.39 71.5344C115.657 68.2184 116.19 64.8504 116.19 64.8504H110.438C110.438 64.8504 109.905 68.218 111.638 71.5344H117.39Z" fill="white"/>
<path d="M107.788 70.5524C107.276 67.4564 108.984 64.5784 112.077 63.764C115.214 62.938 118.904 64.7276 119.211 68.1808C119.774 74.5188 110.003 76.1104 108.494 70.12C108.432 69.8732 108.05 69.9776 108.112 70.2252C108.875 73.2524 111.437 74.4524 114.456 74.27C117.656 74.0764 120.041 71.0428 119.586 67.8672C119.092 64.4148 115.418 62.6104 112.212 63.3288C108.769 64.1004 106.844 67.2596 107.406 70.658C107.448 70.9084 107.829 70.802 107.788 70.5524Z" fill="#407BFF"/>
<path d="M71.5877 75.9253C76.5733 74.7208 81.7681 74.1924 86.8841 74.0436C87.1537 74.0356 87.1549 73.6156 86.8841 73.6236C81.7369 73.7732 76.4937 74.308 71.4761 75.5204C71.2133 75.584 71.3245 75.9889 71.5877 75.9253Z" fill="#407BFF"/>
<path d="M75.3097 76.6361C78.2953 75.9189 81.3937 75.6085 84.4561 75.5113C84.7257 75.5029 84.7269 75.0825 84.4561 75.0913C81.3605 75.1897 78.2169 75.5061 75.1981 76.2313C74.9353 76.2945 75.0465 76.6993 75.3097 76.6361Z" fill="#407BFF"/>
<path d="M150.692 69.8828C150.652 70.0752 150.519 70.2104 150.393 70.1848C150.268 70.1592 150.197 69.9824 150.236 69.79C150.276 69.5976 150.409 69.4624 150.535 69.488C150.661 69.514 150.731 69.6904 150.692 69.8828Z" fill="#263238"/>
<path d="M150.537 70.2141C150.537 70.2141 149.874 71.2353 149.283 71.6729C149.559 72.0596 150.167 72.032 150.167 72.032L150.537 70.2141Z" fill="#A02724"/>
<path d="M151.614 68.9576C151.642 68.9576 151.67 68.9476 151.692 68.9268C151.739 68.8836 151.742 68.8104 151.698 68.764C151.266 68.2956 150.74 68.3788 150.718 68.3824C150.655 68.3932 150.613 68.4528 150.623 68.5152C150.634 68.578 150.694 68.6196 150.756 68.6096C150.773 68.6068 151.184 68.5464 151.529 68.9204C151.552 68.9452 151.582 68.9576 151.614 68.9576Z" fill="#263238"/>
<path d="M156.173 72.5892C155.824 74.37 155.475 77.6332 156.721 78.8212C156.721 78.8212 156.234 80.6276 152.925 80.6276C149.286 80.6276 151.186 78.8212 151.186 78.8212C153.172 78.3468 153.121 76.8736 152.775 75.49L156.173 72.5892Z" fill="#B55B52"/>
<path d="M157.192 70.7796C156.567 73.1132 156.32 74.5108 154.88 75.4812C152.714 76.9408 150.016 75.2656 149.932 72.7924C149.856 70.566 150.892 67.124 153.396 66.6536C155.863 66.19 157.818 68.446 157.192 70.7796Z" fill="#B55B52"/>
<path d="M152.22 71.7492C152.22 71.7492 152.739 74.9456 155.889 74.8476C155.889 74.8476 159.691 72.7088 159.297 68.666C159.297 68.666 160.509 67.0872 159.777 66.4332C159.31 66.0164 158.758 66.912 158.758 66.912C158.758 66.912 159.025 64.5948 158.075 64.3448C157.125 64.0948 157.03 65.5804 157.03 65.5804C157.03 65.5804 156.81 63.2376 155.833 63.112C154.704 62.9668 155.034 64.6296 155.034 64.6296C155.034 64.6296 154.663 62.6756 153.56 62.6812C152.64 62.686 153.085 64.5348 153.085 64.5348C153.085 64.5348 152.213 62.564 151.377 63.0168C150.54 63.4696 151.612 64.9148 151.612 64.9148C151.612 64.9148 150.018 63.7916 149.693 64.5668C149.368 65.342 150.994 66.2932 150.994 66.2932C150.994 66.2932 149.437 66.4728 149.562 67.2228C149.687 67.9728 151.517 67.8616 151.517 67.8616C151.517 67.8616 150.808 69.562 152.383 70.362L152.22 71.7492Z" fill="#263238"/>
<path d="M153.222 70.8772C153.063 71.4896 152.661 72.0164 152.24 72.3296C151.606 72.8008 151.133 72.3372 151.178 71.62C151.218 70.9748 151.597 69.952 152.296 69.7608C152.984 69.5728 153.404 70.1768 153.222 70.8772Z" fill="#B55B52"/>
<path opacity="0.2" d="M152.075 75.1204C151.51 75.0208 151.244 75.1492 150.408 74.4084C150.943 75.3072 151.87 75.914 152.884 76.0072C152.854 75.918 152.606 75.214 152.075 75.1204Z" fill="black"/>
<path d="M162.471 81.06C163.101 82.3004 163.669 83.5276 164.212 84.7892C164.753 86.0468 165.258 87.324 165.722 88.6268C165.959 89.2752 166.17 89.9388 166.378 90.6076L166.416 90.7328L166.436 90.796L166.464 90.9036C166.499 91.0484 166.537 91.1888 166.553 91.3412C166.598 91.638 166.602 91.948 166.563 92.2432C166.493 92.8404 166.274 93.3664 166.011 93.7856C165.469 94.6256 164.804 95.1412 164.142 95.5548C163.807 95.7564 163.471 95.9364 163.123 96.0816C162.77 96.2316 162.445 96.3588 162.046 96.47L161.289 94.856C161.737 94.4816 162.225 94.0436 162.606 93.6188C162.994 93.1968 163.306 92.7408 163.411 92.3932C163.47 92.2216 163.472 92.0948 163.444 92.018C163.433 91.9776 163.417 91.948 163.399 91.9144C163.396 91.8988 163.376 91.8796 163.368 91.8616L163.339 91.7916L163.294 91.6784C163.056 91.0752 162.801 90.474 162.543 89.8696C162.024 88.6632 161.478 87.458 160.921 86.2544L159.246 82.6568L162.471 81.06Z" fill="#B55B52"/>
<path d="M162.11 94.6484L160.368 94.1956L160.269 97.0068C160.269 97.0068 161.631 97.2092 162.465 96.376L162.11 94.6484Z" fill="#B55B52"/>
<path d="M157.901 93.722L158.294 96.1896L160.268 97.0068L160.368 94.1956L157.901 93.722Z" fill="#FFC3BD"/>
<path d="M147.303 79.8668C146.618 79.86 145.838 79.8488 145.102 79.8124C144.357 79.7712 143.614 79.7276 142.877 79.6588C142.143 79.5884 141.409 79.5084 140.698 79.388C140.335 79.3412 139.993 79.26 139.638 79.1988C139.3 79.1152 138.946 79.0464 138.622 78.9492L138.127 78.8104L137.659 78.646L137.524 78.5988C137.497 78.5204 137.471 78.4292 137.454 78.3252C137.408 78.0596 137.374 77.7396 137.367 77.404C137.343 76.0492 137.709 73.5828 137.913 72.1036L136.38 71.7828C135.628 73.2884 134.7 75.7284 134.401 77.5032C134.333 77.9496 134.279 78.4164 134.293 78.9332C134.313 79.4496 134.358 80.0244 134.669 80.7292C134.829 81.0776 134.916 81.1204 135.301 81.4452C135.485 81.6064 135.722 81.7504 135.925 81.8504L136.235 81.9924C136.442 82.0852 136.65 82.1836 136.858 82.2704L137.48 82.5048C139.143 83.1012 140.795 83.4048 142.442 83.6288C143.266 83.722 144.088 83.8064 144.91 83.8396C145.742 83.874 146.531 83.902 147.415 83.866L147.303 79.8668Z" fill="#B55B52"/>
<path d="M137.877 72.2548L139.18 69.5032L136.623 68.7628C136.623 68.7628 135.442 70.5584 136.468 72.0036L137.877 72.2548Z" fill="#B55B52"/>
<path d="M139.022 68.2632L137.041 67.2428L136.623 68.7628L139.18 69.5032L139.022 68.2632Z" fill="#B55B52"/>
<path d="M150.952 79.008C150.952 79.008 151.53 78.4084 151.118 77.7228C151.118 77.7228 159.555 77.024 157.355 79.2556L150.952 79.008Z" fill="#407BFF"/>
<path opacity="0.3" d="M150.952 79.008C150.952 79.008 151.53 78.4084 151.118 77.7228C151.118 77.7228 159.555 77.024 157.355 79.2556L150.952 79.008Z" fill="white"/>
<path d="M160.383 89.2916C160.383 89.2916 163.296 88.0516 165.176 85.7192C165.176 85.7192 163.359 79.924 161.292 79.5452C159.225 79.1664 160.383 89.2916 160.383 89.2916Z" fill="#407BFF"/>
<path opacity="0.5" d="M160.383 89.2916C160.383 89.2916 163.296 88.0516 165.176 85.7192C165.176 85.7192 163.359 79.924 161.292 79.5452C159.225 79.1664 160.383 89.2916 160.383 89.2916Z" fill="white"/>
<path opacity="0.2" d="M160.061 83.6584C160.044 86.3216 160.383 89.2916 160.383 89.2916C160.383 89.2916 161.001 89.0268 161.847 88.518C161.43 86.7196 160.629 84.8528 160.061 83.6584Z" fill="black"/>
<path d="M161.838 79.7885C160.194 87.8217 160.422 95.0396 160.655 99.3704C160.73 100.77 159.719 102.014 158.358 102.211C154.882 102.714 151.303 102.375 149.164 102.064C148.002 101.895 147.072 100.961 146.887 99.7748C144.975 87.4681 145.953 82.5541 146.582 80.1577C146.799 79.3281 147.549 78.7533 148.406 78.7521C151.782 78.7461 160.499 78.8257 161.838 79.7885Z" fill="#407BFF"/>
<path opacity="0.5" d="M161.838 79.7885C160.194 87.8217 160.422 95.0396 160.655 99.3704C160.73 100.77 159.719 102.014 158.358 102.211C154.882 102.714 151.303 102.375 149.164 102.064C148.002 101.895 147.072 100.961 146.887 99.7748C144.975 87.4681 145.953 82.5541 146.582 80.1577C146.799 79.3281 147.549 78.7533 148.406 78.7521C151.782 78.7461 160.499 78.8257 161.838 79.7885Z" fill="white"/>
<path opacity="0.2" d="M146.289 81.4632C145.977 83.0652 145.721 85.0416 145.756 88.606C148.236 87.4888 148.832 83.6584 148.832 83.6584L147.718 81.1224L146.289 81.4632Z" fill="black"/>
<path d="M148.275 78.7597C147.145 78.1293 141.915 79.5597 141.915 79.5597V85.4732C141.915 85.4732 147.155 86.794 148.255 84.9904C149.355 83.1868 149.659 79.5325 148.275 78.7597Z" fill="#407BFF"/>
<path opacity="0.5" d="M148.275 78.7597C147.145 78.1293 141.915 79.5597 141.915 79.5597V85.4732C141.915 85.4732 147.155 86.794 148.255 84.9904C149.355 83.1868 149.659 79.5325 148.275 78.7597Z" fill="white"/>
<path d="M153.592 162.458H151.157L150.915 156.821H153.349L153.592 162.458Z" fill="#B55B52"/>
<path d="M171.459 161.332L169.08 161.846L166.691 156.596L169.07 156.081L171.459 161.332Z" fill="#B55B52"/>
<path opacity="0.2" d="M150.916 156.823L151.04 159.728H153.475L153.351 156.823H150.916Z" fill="black"/>
<path opacity="0.2" d="M169.071 156.082L166.691 156.597L167.924 159.304L170.304 158.788L169.071 156.082Z" fill="black"/>
<path d="M151.85 100.538C151.85 100.538 155.372 123.931 156.889 130.9C158.55 138.532 166.695 158.994 166.695 158.994L171.053 158.05C171.053 158.05 168.71 151.265 166.371 140.976C165.591 137.546 164.14 134.26 163.792 131.592C163.208 127.124 162.474 114.931 161.891 109.122C161.405 104.275 160.251 100.538 160.251 100.538H151.85V100.538Z" fill="#263238"/>
<path d="M165.652 157.539C165.634 157.543 166.464 159.115 166.464 159.115L171.367 158.054L170.954 156.58L165.652 157.539Z" fill="#263238"/>
<path opacity="0.5" d="M153.596 107.166C156.79 107.792 157.212 124.494 156.828 130.621C155.907 126.29 153.798 113.167 152.877 107.252C153.089 107.146 153.327 107.113 153.596 107.166Z" fill="black"/>
<path d="M147.231 100.538C147.231 100.538 147.656 123.528 147.921 130.952C148.197 138.673 150.133 159.166 150.133 159.166H154.257C154.257 159.166 155.488 152.304 155.592 142.526C155.64 138.03 154.894 133.93 154.952 131.541C155.05 127.48 155.367 116.296 156.03 110.838C156.717 105.185 156.59 100.538 156.59 100.538H147.231Z" fill="#263238"/>
<path d="M149.34 157.523C149.32 157.523 149.572 159.235 149.572 159.235H154.589L154.724 157.707L149.34 157.523Z" fill="#263238"/>
<path d="M151.218 161.51L154.019 161.506C154.14 161.508 154.229 161.594 154.233 161.713L154.721 164.406C154.729 164.639 154.54 164.868 154.298 164.918C154.266 164.924 154.236 164.928 154.205 164.927C153.05 164.887 152.031 164.806 150.588 164.783C148.884 164.754 149.277 164.966 147.269 164.96C146.06 164.956 146.105 163.576 146.63 163.518C149.028 163.262 149.408 162.557 150.474 161.732C150.702 161.574 150.966 161.495 151.218 161.51Z" fill="#263238"/>
<path d="M168.628 160.725L171.365 160.132C171.484 160.108 171.589 160.174 171.618 160.29L172.662 162.819C172.719 163.046 172.582 163.31 172.356 163.409C172.326 163.422 172.297 163.431 172.267 163.438C171.129 163.642 170.116 163.776 168.7 164.058C167.03 164.388 167.458 164.513 165.494 164.93C164.311 165.18 164.064 163.822 164.565 163.654C166.856 162.899 167.079 162.13 167.947 161.099C168.136 160.897 168.378 160.764 168.628 160.725Z" fill="#263238"/>
<path d="M115.56 91.1216L117.193 89.2472C117.193 89.2472 117.479 87.994 117.663 87.61C117.856 87.2096 118.269 86.3056 118.689 86.16C119.142 86.0028 120.217 86.3372 120.529 86.702C120.936 87.1796 121.128 88.6296 120.848 89.1912C120.551 89.7884 118.532 90.5148 118.532 90.5148L116.944 92.4956L115.56 91.1216Z" fill="#FFB573"/>
<path d="M115.208 91.0076L116.634 89.4528L118.543 91.0784L116.996 92.9044L115.208 91.0076Z" fill="#407BFF"/>
<path opacity="0.8" d="M115.208 91.0076L116.634 89.4528L118.543 91.0784L116.996 92.9044L115.208 91.0076Z" fill="white"/>
<path d="M104.987 81.8856C104.987 81.8856 106.475 83.5792 108.626 89.116C110.776 94.6528 113.159 93.038 115.776 90.0528L117.926 92.0104C117.926 92.0104 113.906 97.0192 111.376 97.0192C108.559 97.0192 105.826 92.6532 105.276 89.6032C104.726 86.5532 104.987 81.8856 104.987 81.8856Z" fill="#263238"/>
<path opacity="0.4" d="M105.513 85.0888L104.713 84.42L104.339 86.55C104.392 87.168 104.464 87.7704 104.563 88.32C104.877 90.0592 106.055 92.3396 107.32 94.2376C106.858 90.0212 105.513 85.0888 105.513 85.0888Z" fill="black"/>
<path d="M94.1259 68.9032C94.1259 68.9032 92.9895 68.886 93.1387 69.7784C93.3275 70.9076 97.1759 70.5756 97.1759 70.5756L96.1507 69.2284L94.1259 68.9032Z" fill="#263238"/>
<path d="M109.996 156.482L110.386 161.725H108.056L106.912 156.668L109.996 156.482Z" fill="#FFB573"/>
<path d="M110.606 161.438L107.747 161.434C107.624 161.436 107.533 161.524 107.529 161.646L107.031 164.394C107.023 164.632 107.216 164.866 107.463 164.916C107.494 164.923 107.526 164.926 107.558 164.926C108.737 164.885 109.776 164.802 111.25 164.779C112.988 164.75 112.587 164.966 114.636 164.96C115.871 164.955 115.825 163.548 115.289 163.487C112.841 163.226 112.453 162.507 111.365 161.665C111.133 161.504 110.863 161.423 110.606 161.438Z" fill="#263238"/>
<path d="M110.864 160.614L107.204 160.792C107.204 160.792 103.515 147.668 102.831 139.69C102.784 139.143 102.75 138.616 102.734 138.115C102.662 135.788 102.415 133.466 101.927 131.19L101.757 130.396L99.7448 121V120.996L99.3628 119.204C99.3628 119.204 97.0784 115.379 97.1636 109.562C97.1848 108.089 97.3588 106.48 97.762 104.777C97.7748 104.735 97.7832 104.692 97.7916 104.646L106.576 104.9L106.912 109.244L110.864 160.614Z" fill="#407BFF"/>
<path opacity="0.2" d="M100.628 125.118C101.843 119.016 101.235 111.776 101.235 111.776L99.438 112.496L98.2256 115.865C98.2256 115.865 98.2292 116.135 98.2388 116.584C98.7972 118.254 99.3636 119.206 99.3636 119.206L100.628 125.118Z" fill="black"/>
<path d="M93.2655 156.482L92.5007 161.725H90.1715L90.1819 156.668L93.2655 156.482Z" fill="#FFB573"/>
<path d="M92.6959 161.438L89.8367 161.434C89.7131 161.436 89.6223 161.524 89.6187 161.646L89.1207 164.394C89.1123 164.632 89.3055 164.866 89.5527 164.916C89.5843 164.923 89.6163 164.926 89.6475 164.926C90.8267 164.885 91.8663 164.802 93.3395 164.779C95.0779 164.75 94.6771 164.966 96.7263 164.96C97.9607 164.955 97.9147 163.548 97.3791 163.487C94.9311 163.226 94.5431 162.507 93.4555 161.665C93.2231 161.504 92.9527 161.423 92.6959 161.438Z" fill="#263238"/>
<path d="M103.146 104.9L102.47 108.089L99.7444 121L99.2988 123.119L93.2232 160.703L89.576 160.546C89.576 160.546 88.7736 148.428 89.8692 140.362C89.954 139.725 90.056 139.113 90.1664 138.536C90.6844 135.84 90.9772 133.11 90.9476 130.367L90.9392 129.578L90.8288 119.205C90.8288 119.205 90.3448 114.166 91.228 108.722C91.4488 107.364 91.7504 105.984 92.1704 104.646L97.762 104.778L103.146 104.9Z" fill="#407BFF"/>
<path opacity="0.2" d="M107.106 112.024L103.862 112.309C102.971 112.491 102.088 111.948 101.846 111.065L101.74 110.678L101.06 108.169L100.254 111.078C100.007 111.969 99.1411 112.538 98.2239 112.406L96.4323 112.152L90.8883 111.382C90.9951 108.958 91.7499 105.983 92.1703 104.645L97.7619 104.777C97.7747 104.734 97.7831 104.692 97.7915 104.645L106.576 104.9L107.106 112.024Z" fill="black"/>
<path d="M91.9571 98.3724L90.4475 109.906L98.2851 111.104C99.1463 111.226 99.9647 110.69 100.197 109.852L100.956 107.11L101.697 109.841C101.922 110.672 102.754 111.184 103.597 111.012L107.403 110.356L106.405 96.994C106.405 96.994 106.975 88.4396 105.638 82.962C105.384 81.9192 104.433 81.1928 103.389 80.9436C101.013 80.3764 95.9087 79.664 90.1131 81.9496C89.5747 82.162 89.2439 82.7112 89.3155 83.286L91.9571 98.3724Z" fill="#263238"/>
<path opacity="0.5" d="M100.402 93.8384C100.597 93.8384 100.756 93.6803 100.756 93.4852C100.756 93.2901 100.597 93.132 100.402 93.132C100.207 93.132 100.049 93.2901 100.049 93.4852C100.049 93.6803 100.207 93.8384 100.402 93.8384Z" fill="black"/>
<path opacity="0.5" d="M100.75 98.7256C100.945 98.7256 101.103 98.5675 101.103 98.3724C101.103 98.1774 100.945 98.0192 100.75 98.0192C100.554 98.0192 100.396 98.1774 100.396 98.3724C100.396 98.5675 100.554 98.7256 100.75 98.7256Z" fill="black"/>
<path opacity="0.5" d="M100.892 103.552C101.087 103.552 101.245 103.394 101.245 103.199C101.245 103.004 101.087 102.846 100.892 102.846C100.697 102.846 100.539 103.004 100.539 103.199C100.539 103.394 100.697 103.552 100.892 103.552Z" fill="black"/>
<path d="M95.0763 80.2264C95.0763 80.2264 96.9527 79.4124 99.3019 79.9328L100.169 80.4268L100.474 81.3928L99.3751 82.2536L96.7815 82.5176L94.6379 81.6308L94.7571 80.678L95.0763 80.2264Z" fill="#263238"/>
<path d="M94.8632 80.7252C95.438 79.9636 95.7008 79.1952 95.5 78.2704L99.3824 75.1244C98.8344 80.374 99.1028 79.4188 99.8844 80.928C99.8844 80.928 99.3428 82.678 96.3132 82.134C94.346 81.7812 94.8632 80.7252 94.8632 80.7252Z" fill="#FFB573"/>
<path opacity="0.2" d="M95.4995 78.2704L99.3819 75.1244C99.2819 75.886 99.2039 76.52 99.1499 77.0704C98.7383 77.9064 97.6819 79.43 95.4863 79.4932C95.5827 79.11 95.5947 78.708 95.4995 78.2704Z" fill="black"/>
<path d="M100.035 72.6424C99.4871 75.1508 99.2911 76.6448 97.8099 77.7428C95.5843 79.3992 92.6395 77.7456 92.4311 75.132C92.2427 72.7616 93.1747 69.07 95.8087 68.4496C97.6867 67.9968 99.5759 69.1524 100.029 71.0304C100.156 71.5596 100.158 72.1116 100.035 72.6424Z" fill="#FFB573"/>
<path d="M95.9608 72.7568C95.928 72.964 95.794 73.1148 95.6588 73.0928C95.5236 73.0708 95.4416 72.888 95.474 72.6808C95.5068 72.4736 95.6408 72.326 95.776 72.3476C95.9116 72.3696 95.9936 72.5524 95.9608 72.7568Z" fill="#263238"/>
<path d="M93.6328 72.3948C93.6 72.5992 93.466 72.75 93.3308 72.728C93.1956 72.706 93.1136 72.5232 93.1464 72.3188C93.1792 72.1144 93.3132 71.9608 93.4484 71.9828C93.5832 72.0048 93.6652 72.1876 93.6328 72.3948Z" fill="#263238"/>
<path d="M94.4843 72.6076C94.1399 73.1984 93.7155 73.7392 93.2231 74.214C93.5439 74.612 94.1807 74.5544 94.1807 74.5544L94.4843 72.6076Z" fill="#ED893E"/>
<path d="M96.9119 71.9156C96.9327 71.9188 96.9539 71.9176 96.9743 71.912C97.0319 71.878 97.0539 71.8052 97.0243 71.7452C96.8439 71.3948 96.5067 71.1524 96.1171 71.0924C96.0495 71.0864 95.9895 71.1368 95.9835 71.2044C95.9775 71.272 96.0275 71.332 96.0955 71.3376C96.4031 71.388 96.6683 71.5828 96.8075 71.862C96.8311 71.8968 96.8703 71.9168 96.9119 71.9156Z" fill="#263238"/>
<path d="M92.8731 71.314C92.9147 71.3156 92.9543 71.2952 92.9771 71.2604C93.1463 71.0012 93.4283 70.838 93.7375 70.8204C93.8051 70.8224 93.8612 70.7692 93.8632 70.7016C93.8652 70.634 93.8115 70.578 93.7443 70.576C93.3491 70.5896 92.9847 70.794 92.7671 71.124C92.7291 71.1772 92.7415 71.2516 92.7947 71.2896C92.7955 71.2904 92.7968 71.2912 92.7976 71.2916C92.8196 71.3076 92.8463 71.3156 92.8731 71.314Z" fill="#263238"/>
<path d="M93.3855 75.3843C93.3855 75.3843 94.0483 75.2667 95.8803 75.3163C95.6383 75.8087 95.2131 76.2019 94.2731 76.1703C93.3335 76.1387 93.3855 75.3843 93.3855 75.3843Z" fill="#263238"/>
<path d="M94.7319 75.7916C94.3727 75.7612 94.0127 75.8348 93.6943 76.0036C93.8671 76.114 94.0683 76.1712 94.2731 76.1684C94.6315 76.1992 94.9911 76.1256 95.3083 75.9568C95.1367 75.846 94.9359 75.7888 94.7319 75.7916Z" fill="#FF5652"/>
<path d="M93.4712 75.3724C93.5044 75.5028 93.6104 75.602 93.7428 75.6272C94.2868 75.6416 94.8312 75.6148 95.3712 75.5468C95.5428 75.5424 95.7016 75.4556 95.7988 75.3144C95.0224 75.2804 94.2444 75.2996 93.4712 75.3724Z" fill="white"/>
<path d="M94.8563 83.4972L95.8883 86.8584L98.2871 90.3256L100.256 92.3724L100.993 89.3712L100.756 83.1076L100.718 81.7588L100.167 80.9832L99.2915 81.7504L98.5459 82.038L97.4547 82.0472L94.5875 81.1756L94.8563 83.4972Z" fill="#407BFF"/>
<path opacity="0.8" d="M94.8563 83.4972L95.8883 86.8584L98.2871 90.3256L100.256 92.3724L100.993 89.3712L100.756 83.1076L100.718 81.7588L100.167 80.9832L99.2915 81.7504L98.5459 82.038L97.4547 82.0472L94.5875 81.1756L94.8563 83.4972Z" fill="#407BFF"/>
<path opacity="0.5" d="M94.8563 83.4972L95.8883 86.8584L98.2871 90.3256L100.256 92.3724L100.993 89.3712L100.756 83.1076L100.718 81.7588L100.167 80.9832L99.2915 81.7504L98.5459 82.038L97.4547 82.0472L94.5875 81.1756L94.8563 83.4972Z" fill="white"/>
<path d="M97.1708 83.1076C97.1708 83.1076 97.5192 83.878 98.2872 84.5344C98.2872 84.5344 97.8064 87.9608 98.5456 90.3608L100.255 92.3724L100.756 89.8844C100.756 89.8844 99.99 85.9032 98.9632 84.3972C98.9632 84.3972 99.3908 83.588 99.532 82.7576L98.9188 82.2544C98.9188 82.2544 98.0676 82.8624 97.556 82.4388L97.1708 83.1076Z" fill="#407BFF"/>
<path d="M94.7887 80.5368C94.7887 80.5368 96.3707 81.8852 97.9603 81.8852C99.5499 81.8852 99.7259 80.2268 99.7259 80.2268L100.396 80.9512C100.396 80.9512 100.502 82.1292 99.8495 83.3692L98.1911 82.25L97.0671 83.868C97.0671 83.868 95.3091 83.0212 94.4475 81.5036L94.7887 80.5368Z" fill="#407BFF"/>
<path opacity="0.8" d="M94.7887 80.5368C94.7887 80.5368 96.3707 81.8852 97.9603 81.8852C99.5499 81.8852 99.7259 80.2268 99.7259 80.2268L100.396 80.9512C100.396 80.9512 100.502 82.1292 99.8495 83.3692L98.1911 82.25L97.0671 83.868C97.0671 83.868 95.3091 83.0212 94.4475 81.5036L94.7887 80.5368Z" fill="white"/>
<path d="M95.0763 80.2264C95.0763 80.2264 93.7787 84.226 100.166 91.8544C100.166 91.8544 101.313 82.5088 99.3019 79.9328L100.7 80.4852L102.154 82.6836L101.088 83.3684L102.406 83.956C102.406 83.956 102.219 86.9848 100.364 92.81C100.364 92.81 96.1643 89.5632 93.4191 85.18L94.6971 84.1612L92.9891 83.8916L93.7483 80.8568L95.0763 80.2264Z" fill="#263238"/>
<path opacity="0.3" d="M95.0763 80.2264C95.0763 80.2264 93.7787 84.226 100.166 91.8544C100.166 91.8544 101.313 82.5088 99.3019 79.9328L100.7 80.4852L102.154 82.6836L101.088 83.3684L102.406 83.956C102.406 83.956 102.219 86.9848 100.364 92.81C100.364 92.81 96.1643 89.5632 93.4191 85.18L94.6971 84.1612L92.9891 83.8916L93.7483 80.8568L95.0763 80.2264Z" fill="black"/>
<path d="M98.8007 74.8032C98.8007 74.8032 97.7755 75.3308 98.4507 73.342C99.1259 71.3532 98.2255 70.7032 98.1007 69.7532C98.1007 69.7532 92.2755 69.9532 92.5507 67.378C92.8295 64.768 96.3259 66.8528 96.3259 66.8528C96.3259 66.8528 96.0607 65.6836 97.0375 65.5528C98.3435 65.3776 99.5355 67.9028 101.156 68.6528C102.776 69.4028 101.876 71.9168 101.876 71.9168C101.876 71.9168 102.374 73.5916 99.4099 76.796C99.3059 76.9084 99.1163 76.8496 99.0931 76.6984L98.8007 74.8032Z" fill="#263238"/>
<path d="M97.096 72.3976C97.0308 72.35 96.7628 72.22 96.6128 72.1488C96.3552 71.9476 95.8907 71.8324 95.5219 71.8084C95.1503 71.7832 94.8588 71.8448 94.7224 71.9748C94.704 71.992 94.6944 72.0196 94.6815 72.0436C94.6331 72.0048 94.5816 71.984 94.5184 71.9752C94.4472 71.9664 94.3864 71.9824 94.342 72.0008C94.3292 71.9704 94.3236 71.9328 94.3044 71.9092C94.0908 71.646 93.5348 71.4964 93.1084 71.4692C92.7364 71.4444 92.4452 71.506 92.3092 71.6356C92.2468 71.6948 92.2164 71.7928 92.2184 71.9268C92.2232 72.2656 92.4427 72.8036 92.6539 72.9932C92.8303 73.1516 93.2272 73.2512 93.5512 73.2512C93.7136 73.2512 93.8576 73.226 93.9468 73.1712C94.1244 73.062 94.3208 72.6952 94.376 72.3708C94.3872 72.3052 94.382 72.2524 94.3808 72.1964C94.406 72.1856 94.454 72.1676 94.4932 72.1744C94.5312 72.1804 94.5928 72.2284 94.6328 72.2768C94.6416 72.616 94.8584 73.1452 95.0672 73.3328C95.2436 73.4912 95.6404 73.5908 95.9643 73.5908C96.1263 73.5908 96.2704 73.5656 96.3596 73.5112V73.5108C96.5372 73.4012 96.7335 73.0344 96.7883 72.71C96.8043 72.6152 96.8052 72.532 96.7956 72.4576C96.87 72.4944 96.9404 72.5324 96.9784 72.56C97.5368 72.9648 98.9756 74.5068 98.99 74.5224L99.1364 74.386C99.0772 74.3212 97.67 72.8136 97.096 72.3976ZM94.2568 72.3504C94.2076 72.6408 94.0327 72.9764 93.8831 73.0688C93.6643 73.2048 92.9552 73.1024 92.734 72.9036C92.5652 72.752 92.3427 72.2504 92.3383 71.9248C92.3371 71.8272 92.3556 71.7576 92.392 71.7228C92.486 71.6336 92.6904 71.584 92.9536 71.584C93.0008 71.584 93.0504 71.5856 93.1012 71.5888C93.5836 71.62 94.0504 71.7864 94.2116 71.9852C94.2684 72.056 94.2848 72.1856 94.2568 72.3504ZM96.67 72.6892C96.6216 72.9744 96.4436 73.3168 96.2964 73.408C96.0768 73.5436 95.368 73.4412 95.1468 73.2428C94.978 73.0912 94.756 72.5896 94.7512 72.264C94.75 72.1664 94.7683 72.0964 94.8047 72.062C94.8983 71.9728 95.1031 71.9232 95.3659 71.9232C95.4135 71.9232 95.4628 71.9248 95.514 71.928C95.9964 71.9592 96.4632 72.1256 96.6244 72.3244C96.6816 72.3948 96.698 72.5244 96.67 72.6892Z" fill="#263238"/>
<path d="M100.904 75.1964C100.479 75.6812 99.8803 75.9788 99.2375 76.0256C98.3831 76.0752 98.1339 75.2712 98.5211 74.558C98.8679 73.9188 99.7323 73.1184 100.517 73.4004C101.301 73.682 101.419 74.592 100.904 75.1964Z" fill="#FFB573"/>
<path opacity="0.4" d="M89.486 84.4L91.1492 93.6672L91.344 93.4256C92.2544 88.6744 90.9836 84.1244 90.9836 84.1244L90.478 84.394L89.486 84.4Z" fill="black"/>
<path d="M78.9779 91.442L77.0427 89.8824C77.0427 89.8824 76.5411 88.6988 76.2927 88.3532C76.0335 87.9928 75.4675 87.1752 75.0291 87.1052C74.5555 87.0296 73.5551 87.5472 73.3127 87.9608C72.9955 88.502 73.0603 89.9636 73.4339 90.4676C73.8311 91.0036 75.9467 91.3652 75.9467 91.3652L77.8567 93.0376L78.9779 91.442Z" fill="#FFB573"/>
<path d="M79.3051 91.2676L77.6287 89.9864L76.0343 91.9212L77.8767 93.448L79.3051 91.2676Z" fill="#407BFF"/>
<path opacity="0.8" d="M79.3051 91.2676L77.6287 89.9864L76.0343 91.9212L77.8767 93.448L79.3051 91.2676Z" fill="white"/>
<path d="M89.7711 82.3444C89.6203 82.1652 89.0863 82.4024 88.9515 82.594C88.5063 83.2268 86.0119 89.3292 85.0327 91.742C84.8035 92.3068 84.1891 92.6096 83.6019 92.4456C82.4055 92.1116 80.3883 91.4832 78.7199 90.642L76.5699 92.5992C76.5699 92.5992 82.1663 97.0652 85.2443 97.0652C88.0611 97.0652 90.6971 91.0972 91.2471 88.0472C91.6771 85.6652 90.9119 83.6988 89.7711 82.3444Z" fill="#263238"/>
<path d="M130.772 83.07L121.105 82.1644C121.105 82.1644 118.537 86.1872 117.445 95.3436L127.148 96.2524C128.127 88.274 130.273 84.0284 130.772 83.07Z" fill="#407BFF"/>
<path opacity="0.4" d="M130.772 83.07L121.105 82.1644C121.105 82.1644 118.537 86.1872 117.445 95.3436L127.148 96.2524C128.127 88.274 130.273 84.0284 130.772 83.07Z" fill="white"/>
<path d="M130.772 83.07L121.105 82.1644C121.105 82.1644 118.887 85.8372 117.795 94.994L127.497 95.9028C128.477 87.924 130.273 84.0284 130.772 83.07Z" fill="#407BFF"/>
<path opacity="0.7" d="M130.772 83.07L121.105 82.1644C121.105 82.1644 118.887 85.8372 117.795 94.994L127.497 95.9028C128.477 87.924 130.273 84.0284 130.772 83.07Z" fill="white"/>
<path d="M122.377 82.2464C122.23 82.0336 121.935 81.9804 121.722 82.1276L120.775 82.784C120.562 82.9312 120.509 83.226 120.656 83.4388C120.803 83.6516 121.098 83.7048 121.311 83.5576C121.347 83.5324 121.356 83.4852 121.33 83.4484C121.305 83.412 121.257 83.4032 121.221 83.4288C121.079 83.5272 120.883 83.4916 120.785 83.3496C120.686 83.208 120.722 83.0112 120.864 82.9132L121.811 82.2568C121.953 82.1584 122.149 82.194 122.248 82.336C122.346 82.4776 122.31 82.674 122.169 82.7724L121.849 82.9944L121.666 83.1208L121.627 83.1476C121.545 83.204 121.435 83.1824 121.38 83.1028C121.323 83.0212 121.345 82.9104 121.425 82.8556L121.861 82.5536C121.897 82.5284 121.906 82.4808 121.88 82.4444C121.855 82.408 121.808 82.3992 121.771 82.4244L121.335 82.7264C121.181 82.83 121.143 83.0408 121.247 83.1912C121.351 83.3416 121.562 83.38 121.713 83.2756L121.751 83.2488L121.934 83.1224L122.257 82.8992C122.471 82.7536 122.524 82.4592 122.377 82.2464Z" fill="#407BFF"/>
<path d="M38.8736 75.7492C38.8736 75.7492 40.0048 74.9976 39.4588 72.7564C39.4588 72.7564 41.234 72.2836 41.5232 70.9752C41.5232 70.9752 41.8432 72.1096 42.482 71.9844C43.1208 71.8592 42.482 70.7632 42.482 70.7632C42.482 70.7632 43.4904 71.77 44.0048 71.6828C44.5192 71.5952 44.0048 70.7632 44.0048 70.7632C44.0048 70.7632 44.4528 71.7312 45.0088 71.5684C45.7396 71.3544 44.266 69.83 44.266 69.83C44.266 69.83 45.3264 71.5084 45.6328 71.1052C45.9716 70.6596 43.7428 68.3236 40.8504 68.7124C40.8504 68.7124 37.286 68.182 36.3312 71.7888C36.3312 71.7888 33.5728 73.5064 34.952 76.1308C34.952 76.1308 32.6888 78.7432 34.068 80.1108C34.068 80.1108 31.8008 83.9824 34.5276 83.9024C37.2544 83.8224 45.1612 83.3548 46.2628 82.5932C47.3644 81.8316 45.9144 80.0044 45.9144 80.0044C45.9144 80.0044 46.4064 79.4624 46.2844 78.1892C46.162 76.916 45.4596 76.3856 45.4596 76.3856C45.4596 76.3856 46.3604 75.7104 45.8792 74.604C44.7356 71.9752 40.2564 71.7844 40.2564 71.7844C40.2564 71.7844 40.6024 76.1384 38.8736 75.7492Z" fill="#263238"/>
<path d="M60.0572 84.1868C60.3612 82.9072 60.4424 81.9688 60.4424 81.9688L61.0024 80.6612C61.0024 80.6612 61.8644 79.1152 61.618 78.6512C61.322 78.0944 59.7908 77.6768 59.206 77.9128C58.6896 78.1212 58.1252 79.8604 58.1252 79.8604L58.4664 81.634C58.4664 81.634 58.368 82.4688 58.0496 83.5448L60.0572 84.1868Z" fill="#CE7A63"/>
<path d="M60.3891 83.5964C59.6347 86.772 58.1923 91.4168 52.5295 89.6752C49.6131 88.7784 45.1911 86.376 46.4479 83.4028C47.7047 80.4296 48.1807 84.97 53.1387 86.5668C56.8907 87.7752 57.2707 85.0904 57.9423 82.82L60.3891 83.5964Z" fill="#407BFF"/>
<path d="M39.4767 80.5348C39.4767 80.5348 40.9455 80.0932 43.0807 80.7532C43.0807 80.7532 43.7711 82.4268 42.2799 82.5004C40.7887 82.574 39.4587 81.064 39.4587 81.064L39.4767 80.5348Z" fill="#407BFF"/>
<path d="M39.1216 81.5028C39.1216 81.5028 40.0744 81.4668 40.0668 80.2884C40.0596 79.1104 39.8636 77.678 39.8636 77.678L42.694 77.9288C42.694 77.9288 42.3156 81.4064 43.6104 81.584C43.6104 81.584 42.4792 83.3172 39.1216 81.5028Z" fill="#CE7A63"/>
<path opacity="0.1" d="M42.6939 77.9284L39.8635 77.6776C39.8635 77.6776 39.9351 78.2016 39.9931 78.8756C40.4363 79.4612 41.2655 80.1656 42.7655 80.41C42.5419 79.34 42.6939 77.9284 42.6939 77.9284Z" fill="black"/>
<path d="M38.0504 73.8796C38.4272 76.4156 38.5308 77.4972 39.9304 78.694C42.0364 80.496 45.0676 79.4804 45.458 76.8832C45.8092 74.5456 45.136 70.7936 42.5548 69.9932C40.7136 69.412 38.7496 70.4332 38.1684 72.2748C38.0048 72.7928 37.9644 73.3424 38.0504 73.8796Z" fill="#CE7A63"/>
<path d="M43.7288 74.4664C43.954 74.9244 44.2408 75.3492 44.582 75.7288C44.382 75.9012 44.116 75.976 43.8556 75.9336L43.7288 74.4664Z" fill="#BA4D3C"/>
<path d="M40.9392 73.3112C40.9216 73.3084 40.9048 73.302 40.8904 73.2916C40.8456 73.2576 40.8368 73.194 40.8708 73.1492L40.872 73.1476C41.0988 72.8336 41.464 72.65 41.8508 72.6552C41.906 72.6612 41.9468 72.7092 41.944 72.7648C41.9396 72.8196 41.8924 72.8612 41.8372 72.858C41.5176 72.8588 41.218 73.0132 41.0312 73.2728C41.0096 73.3008 40.9748 73.3152 40.9392 73.3112Z" fill="#263238"/>
<path d="M45.3424 72.9672C45.3248 72.9644 45.308 72.958 45.2932 72.9476C45.0392 72.7564 44.7088 72.698 44.4048 72.7912C44.3528 72.8124 44.2936 72.7872 44.2724 72.7352L44.272 72.734C44.2528 72.6808 44.2792 72.622 44.332 72.6016C44.7004 72.4836 45.1032 72.5508 45.4136 72.7816C45.4604 72.8124 45.4736 72.8756 45.4424 72.9224C45.4208 72.956 45.3816 72.9732 45.3424 72.9672Z" fill="#263238"/>
<path d="M42.2336 74.2496C42.2508 74.456 42.3756 74.614 42.5132 74.6036C42.6508 74.5928 42.7436 74.416 42.724 74.2064C42.704 73.9972 42.582 73.842 42.4476 73.8528C42.3128 73.8636 42.2168 74.0404 42.2336 74.2496Z" fill="#263238"/>
<path d="M44.5804 74.048C44.5976 74.2544 44.7224 74.4124 44.8572 74.4016C44.9916 74.3908 45.0876 74.214 45.0708 74.0048C45.054 73.7956 44.9288 73.6404 44.7944 73.6512C44.6592 73.662 44.5608 73.8388 44.5804 74.048Z" fill="#263238"/>
<path d="M44.7352 73.6676L45.2208 73.482C45.2208 73.482 44.9976 73.892 44.7352 73.6676Z" fill="#263238"/>
<path d="M42.3888 73.8692L42.8744 73.6836C42.8744 73.6836 42.6508 74.0936 42.3888 73.8692Z" fill="#263238"/>
<path d="M43.3631 77.1436C43.4831 77.144 43.6027 77.1336 43.7207 77.1124C43.7547 77.1068 43.7779 77.0748 43.7723 77.0408C43.7723 77.04 43.7719 77.0396 43.7719 77.0388C43.7663 77.0052 43.7347 76.9824 43.7011 76.9876C43.1723 77.0912 42.6259 76.9384 42.2275 76.576C42.2039 76.55 42.1639 76.5484 42.1379 76.5716C42.1119 76.5952 42.1103 76.6352 42.1335 76.6612C42.4655 76.9744 42.9063 77.1476 43.3631 77.1436Z" fill="#263238"/>
<path d="M50.8035 122.786C50.7671 132.656 49.2579 162.346 49.2579 162.346H46.4447C46.4447 162.346 44.7923 150.287 44.9639 139.686C45.0259 135.849 45.3651 132.918 45.4003 130.642C45.4639 126.536 42.3287 112.472 42.3287 112.472L50.8311 113.512C50.8315 113.511 50.8119 120.457 50.8035 122.786Z" fill="#CE7A63"/>
<path opacity="0.2" d="M50.6684 129.406C50.724 127.546 50.7652 125.854 50.7868 124.42L44.6376 124.14C45.032 126.478 45.3352 128.65 45.392 130.07C45.392 130.07 47.6904 130.452 50.6684 129.406Z" fill="black"/>
<path d="M49.0787 161.601L46.3519 161.598C46.2339 161.6 46.1491 161.683 46.1475 161.799L45.7183 164.42C45.7143 164.648 45.9027 164.87 46.1391 164.919C46.1695 164.925 46.1999 164.928 46.2295 164.928C47.3535 164.889 48.3435 164.81 49.7483 164.788C51.4059 164.76 51.0271 164.966 52.9819 164.96C54.1591 164.956 54.0915 163.613 53.5799 163.556C51.2407 163.307 50.8587 162.621 49.8071 161.818C49.5827 161.664 49.3235 161.587 49.0787 161.601Z" fill="#263238"/>
<path d="M41.3287 123.512L35.9963 162.481H33.2439C33.2439 162.481 32.3163 151.126 33.0155 141.387C33.2755 137.766 33.9991 134.557 34.3819 132.3C35.1815 127.586 35.0387 112.337 35.0387 112.337L42.3867 113.532L41.3287 123.512Z" fill="#CE7A63"/>
<path opacity="0.2" d="M40.482 129.929L41.4064 121.562L35.0892 121.274C35.0152 124.082 34.89 126.82 34.6804 128.716C35.9788 129.017 38.2048 129.64 40.482 129.929Z" fill="black"/>
<path d="M35.9032 161.601L33.1764 161.598C33.0584 161.6 32.972 161.683 32.9684 161.799L32.4932 164.42C32.4852 164.648 32.6696 164.87 32.9052 164.919C32.9356 164.925 32.9656 164.928 32.9956 164.928C34.1204 164.889 35.1116 164.81 36.5168 164.788C38.1748 164.76 37.7924 164.966 39.7472 164.96C40.9244 164.956 40.8804 163.613 40.37 163.556C38.0352 163.307 37.6652 162.621 36.6276 161.818C36.406 161.664 36.1484 161.587 35.9032 161.601Z" fill="#263238"/>
<path d="M38.6675 81.3176L39.4583 81.0644L41.5231 82.5004H42.2799L42.9167 82.2184L43.6547 81.4812L44.3911 81.7824L44.9191 83.8112V84.43L45.1427 85.1764L45.7927 87.688L46.2839 90.928V93.3668L46.1019 95.988L45.4103 94.6228L43.4627 90.9824L41.8427 86.3956L41.3695 84.794L40.1319 83.4936L39.1671 81.8452L38.6675 81.3176Z" fill="#407BFF"/>
<path d="M38.6675 81.3176L39.4583 81.0644L41.5231 82.5004H42.2799L42.9167 82.2184L43.6547 81.4812L44.3911 81.7824L44.9191 83.8112V84.43L45.1427 85.1764L45.7927 87.688L46.2839 90.928V93.3668L46.1019 95.988L45.4103 94.6228L43.4627 90.9824L41.8427 86.3956L41.3695 84.794L40.1319 83.4936L39.1671 81.8452L38.6675 81.3176Z" fill="#407BFF"/>
<path opacity="0.5" d="M38.6675 81.3176L39.4583 81.0644L41.5231 82.5004H42.2799L42.9167 82.2184L43.6547 81.4812L44.3911 81.7824L44.9191 83.8112V84.43L45.1427 85.1764L45.7927 87.688L46.2839 90.928V93.3668L46.1019 95.988L45.4103 94.6228L43.4627 90.9824L41.8427 86.3956L41.3695 84.794L40.1319 83.4936L39.1671 81.8452L38.6675 81.3176Z" fill="white"/>
<path d="M36.2048 102.65C36.2048 102.65 34.174 108.214 34.084 111.62C33.9984 114.858 34.3488 118.627 34.2948 121.664C34.2368 124.936 33.778 127.36 33.778 127.36C33.778 127.36 44.7348 130.842 51.8531 127.785C51.8531 127.785 52.7512 116.309 50.1768 102.65L45.1424 102.92L36.2048 102.65Z" fill="#263238"/>
<path d="M35.1155 83.3376L37.5839 96.2944C37.5839 96.2944 36.1635 100.162 34.8531 105.568C34.8531 105.568 42.4603 108.095 44.6819 106.987C45.3927 106.633 46.2107 104.202 46.2107 104.202C46.2107 104.202 47.4899 106.776 48.3403 106.987C49.0399 107.162 50.9615 105.786 50.9615 105.786C50.9615 105.786 50.0627 99.9768 48.9563 96.006L49.4907 91.62C49.4907 91.62 50.5339 89.176 48.5331 84.8344L47.9571 83.0804C47.8807 82.8476 47.7187 82.6516 47.5019 82.5372C46.9191 82.2296 45.6159 81.6204 43.8363 81.2444C43.8363 81.2444 46.6215 87.876 45.9663 94.3764C45.9663 94.3764 43.2359 84.7392 38.8743 81.064C38.8743 81.064 37.2555 81.1756 35.7591 82.0328C35.2979 82.2968 35.0407 82.8128 35.1155 83.3376Z" fill="#407BFF"/>
<path d="M38.8735 81.0644L39.4767 80.5348C39.4767 80.5348 41.1147 82.3284 42.2071 82.2688C43.2991 82.2092 43.0807 80.7532 43.0807 80.7532L43.8359 81.2448L44.1727 81.554L44.0915 83.4936C44.0915 83.4936 43.1351 82.3732 42.5707 82.5368C42.0063 82.7008 41.5227 83.902 41.5227 83.902C41.5227 83.902 40.2539 83.1952 38.8735 81.0644Z" fill="#407BFF"/>
<path opacity="0.8" d="M38.8735 81.0644L39.4767 80.5348C39.4767 80.5348 41.1147 82.3284 42.2071 82.2688C43.2991 82.2092 43.0807 80.7532 43.0807 80.7532L43.8359 81.2448L44.1727 81.554L44.0915 83.4936C44.0915 83.4936 43.1351 82.3732 42.5707 82.5368C42.0063 82.7008 41.5227 83.902 41.5227 83.902C41.5227 83.902 40.2539 83.1952 38.8735 81.0644Z" fill="white"/>
<path d="M46.1568 96.3336C46.1568 96.3336 46.7208 92.948 46.6116 85.4856L45.1428 84.6848L46.0656 84.43C46.0656 84.43 45.2172 82.5104 44.4704 81.3948C44.2656 81.342 44.0556 81.2912 43.8356 81.2448C43.8356 81.2448 46.6208 89.0236 45.9656 95.524C45.9656 95.524 43.2352 84.7396 38.8736 81.0644C38.8736 81.0644 38.6676 81.0792 38.3384 81.1356C38.8916 81.7176 39.964 83.1064 39.9892 85.1584H41.1616L40.2052 86.032L46.1568 96.3336Z" fill="#407BFF"/>
<path opacity="0.2" d="M46.1568 96.3336C46.1568 96.3336 47.1452 93.3724 47.036 85.91L45.1428 84.6848L46.49 84.43C46.49 84.43 45.2172 82.5104 44.4704 81.3948C44.2656 81.342 44.0556 81.2912 43.8356 81.2448C43.8356 81.2448 46.6208 89.0236 45.9656 95.524C45.9656 95.524 43.2352 84.7396 38.8736 81.0644C38.8736 81.0644 38.6676 81.0792 38.3384 81.1356C38.8916 81.7176 39.1152 83.1064 39.1404 85.1584H41.1616L39.7808 86.8808L46.1568 96.3336Z" fill="black"/>
<path d="M43.9523 101.488L50.1603 101.327C50.3971 101.321 50.6039 101.124 50.6227 100.886L51.3775 91.3395C51.3963 91.1023 51.2195 90.9147 50.9831 90.9207L44.7751 91.0811C44.5383 91.0871 44.3315 91.2847 44.3127 91.5219L43.5579 101.069C43.5391 101.306 43.7155 101.494 43.9523 101.488Z" fill="#263238"/>
<path d="M47.0754 91.7776L48.5618 91.7392C48.8578 91.7316 49.1166 91.4848 49.1402 91.188L49.2098 90.3083L46.6518 90.3744L46.5822 91.254C46.559 91.5508 46.7798 91.7852 47.0754 91.7776Z" fill="#263238"/>
<path opacity="0.7" d="M47.0754 91.7776L48.5618 91.7392C48.8578 91.7316 49.1166 91.4848 49.1402 91.188L49.2098 90.3083L46.6518 90.3744L46.5822 91.254C46.559 91.5508 46.7798 91.7852 47.0754 91.7776Z" fill="white"/>
<path d="M44.4899 91.1195L44.7823 91.1119C44.5455 91.1179 44.3387 91.3155 44.3199 91.5527L43.5651 101.1C43.5463 101.337 43.7231 101.525 43.9599 101.518L43.6675 101.526C43.4307 101.532 43.2543 101.345 43.2731 101.107L44.0279 91.5603C44.0463 91.3227 44.2535 91.1255 44.4899 91.1195Z" fill="#263238"/>
<path opacity="0.7" d="M44.4899 91.1195L44.7823 91.1119C44.5455 91.1179 44.3387 91.3155 44.3199 91.5527L43.5651 101.1C43.5463 101.337 43.7231 101.525 43.9599 101.518L43.6675 101.526C43.4307 101.532 43.2543 101.345 43.2731 101.107L44.0279 91.5603C44.0463 91.3227 44.2535 91.1255 44.4899 91.1195Z" fill="white"/>
<path d="M40.7563 98.9028C42.0687 98.8188 42.9899 98.6216 42.9899 98.6216L44.4043 98.7744C44.4043 98.7744 46.1347 99.146 46.5067 98.7744C46.9527 98.3284 46.9035 96.742 46.5067 96.2516C46.1563 95.8188 44.3279 95.7884 44.3279 95.7884L42.7319 96.634C42.7319 96.634 41.9047 96.7844 40.7827 96.7948L40.7563 98.9028Z" fill="#CE7A63"/>
<path d="M40.9855 99.0844C37.7283 99.2928 31.6351 98.8048 31.6423 92.88C31.6459 89.8288 33.1659 81.59 36.3767 81.9212C39.5875 82.2524 34.9623 85.5764 34.9623 92.458C34.9623 96.3996 38.6435 96.54 41.0115 96.5176L40.9855 99.0844Z" fill="#407BFF"/>
<path opacity="0.1" d="M40.9855 99.0844C37.7283 99.2928 31.6351 98.8048 31.6423 92.88C31.6459 89.8288 33.1659 81.59 36.3767 81.9212C39.5875 82.2524 34.9623 85.5764 34.9623 92.458C34.9623 96.3996 38.6435 96.54 41.0115 96.5176L40.9855 99.0844Z" fill="black"/>
<path d="M38.8731 75.7492C38.8731 75.7492 40.0043 74.9976 39.4583 72.7564C39.4583 72.7564 41.2339 72.2836 41.5227 70.9752C41.5227 70.9752 41.8427 72.1096 42.4815 71.9844C43.1203 71.8592 42.4815 70.7632 42.4815 70.7632C42.4815 70.7632 43.4899 71.77 44.0043 71.6828C44.5187 71.5952 44.0043 70.7632 44.0043 70.7632C44.0043 70.7632 44.4567 71.7452 45.0087 71.5684C45.5603 71.3916 44.7771 70.4992 44.7771 70.4992C44.7771 70.4992 45.4927 71.5148 45.6503 71.034C45.8079 70.5528 43.7423 68.3236 40.8499 68.7124C40.8499 68.7124 37.2855 68.182 36.3307 71.7888C36.3307 71.7888 34.8131 72.78 35.5635 75.1384C35.5635 75.1384 39.2267 75.8288 38.8731 75.7492Z" fill="#263238"/>
<path d="M37.6207 75.9472C37.8027 76.4084 38.1607 76.778 38.6159 76.9752C39.2211 77.2312 39.6067 76.7112 39.5091 76.096C39.4215 75.5444 39.0007 74.7436 38.3587 74.7472C37.8915 74.7644 37.5267 75.1568 37.5439 75.6244C37.5479 75.736 37.5743 75.846 37.6207 75.9472Z" fill="#CE7A63"/>
<path d="M152.11 53.7844C152.11 50.5468 148.92 47.922 144.986 47.922C141.051 47.922 137.861 50.5468 137.861 53.7844C137.861 57.022 141.051 59.6468 144.986 59.6468C145.379 59.6468 145.765 59.6196 146.141 59.5688L149.046 61.074L148.759 58.756C150.771 57.72 152.11 55.8812 152.11 53.7844Z" fill="#407BFF"/>
<path opacity="0.5" d="M152.11 53.7844C152.11 50.5468 148.92 47.922 144.986 47.922C141.051 47.922 137.861 50.5468 137.861 53.7844C137.861 57.022 141.051 59.6468 144.986 59.6468C145.379 59.6468 145.765 59.6196 146.141 59.5688L149.046 61.074L148.759 58.756C150.771 57.72 152.11 55.8812 152.11 53.7844Z" fill="white"/>
<path d="M147.262 54.0964C147.262 52.8912 146.276 51.916 145.066 51.9352C143.977 51.9524 142.971 52.9448 142.94 54.0332C142.919 54.7484 143.247 55.3872 143.766 55.7948C144.056 56.0228 144.258 56.3444 144.314 56.7096L144.322 56.7588C144.361 57.016 144.582 57.206 144.843 57.206H145.357C145.617 57.206 145.838 57.016 145.878 56.7588L145.886 56.7088C145.941 56.35 146.133 56.0276 146.42 55.8056C146.932 55.4108 147.262 54.7928 147.262 54.0964Z" fill="white"/>
<path d="M145.219 58.1236H144.982C144.664 58.1236 144.403 57.8632 144.403 57.5448C144.403 57.4436 144.485 57.3616 144.586 57.3616H145.615C145.716 57.3616 145.798 57.4436 145.798 57.5448C145.798 57.8628 145.538 58.1236 145.219 58.1236Z" fill="#407BFF"/>
<path opacity="0.2" d="M145.219 58.1236H144.982C144.664 58.1236 144.403 57.8632 144.403 57.5448C144.403 57.4436 144.485 57.3616 144.586 57.3616H145.615C145.716 57.3616 145.798 57.4436 145.798 57.5448C145.798 57.8628 145.538 58.1236 145.219 58.1236Z" fill="white"/>
<path d="M145.718 55.8356L145.494 55.7744L145.778 54.7272L145.505 54.8896L145.478 54.5608L145.1 54.8392L144.723 54.5608L144.696 54.8896L144.422 54.7272L144.708 55.7744L144.483 55.8356L144.047 54.2332L144.495 54.4996L144.526 54.1268L145.1 54.5504L145.675 54.1268L145.706 54.4996L146.154 54.2332L145.718 55.8356Z" fill="#407BFF"/>
<g opacity="0.5">
<path d="M145.718 55.8356L145.494 55.7744L145.778 54.7272L145.505 54.8896L145.478 54.5608L145.1 54.8392L144.723 54.5608L144.696 54.8896L144.422 54.7272L144.708 55.7744L144.483 55.8356L144.047 54.2332L144.495 54.4996L144.526 54.1268L145.1 54.5504L145.675 54.1268L145.706 54.4996L146.154 54.2332L145.718 55.8356Z" fill="white"/>
</g>
<path d="M145.233 49.6488H144.968V51.4644H145.233V49.6488Z" fill="white"/>
<path d="M149.64 54.0548H147.824V54.3204H149.64V54.0548Z" fill="white"/>
<path d="M142.377 54.0548H140.562V54.3204H142.377V54.0548Z" fill="white"/>
<path d="M148.215 50.8848L146.931 52.1686L147.119 52.3564L148.403 51.0726L148.215 50.8848Z" fill="white"/>
<path d="M143.08 56.0199L141.796 57.3037L141.984 57.4915L143.267 56.2077L143.08 56.0199Z" fill="white"/>
<path d="M147.122 56.027L146.934 56.2148L148.218 57.4986L148.406 57.3108L147.122 56.027Z" fill="white"/>
<path d="M141.986 50.8893L141.798 51.0771L143.082 52.361L143.269 52.1732L141.986 50.8893Z" fill="white"/>
<path d="M39.7196 56.6592C39.7196 52.4368 43.8792 49.014 49.0104 49.014C54.1416 49.014 58.3012 52.4368 58.3012 56.6592C58.3012 60.8816 54.1416 64.3044 49.0104 64.3044C48.4972 64.3044 47.9944 64.2688 47.504 64.2028L44.5148 66.1656L44.0892 63.1428C41.4656 61.7912 39.7196 59.3936 39.7196 56.6592Z" fill="#407BFF"/>
<path opacity="0.5" d="M39.7196 56.6592C39.7196 52.4368 43.8792 49.014 49.0104 49.014C54.1416 49.014 58.3012 52.4368 58.3012 56.6592C58.3012 60.8816 54.1416 64.3044 49.0104 64.3044C48.4972 64.3044 47.9944 64.2688 47.504 64.2028L44.5148 66.1656L44.0892 63.1428C41.4656 61.7912 39.7196 59.3936 39.7196 56.6592Z" fill="white"/>
<path d="M46.0415 57.0664C46.0415 55.4948 47.3279 54.2232 48.9055 54.248C50.3255 54.2704 51.6375 55.5648 51.6779 56.984C51.7043 57.9168 51.2771 58.7496 50.6007 59.2808C50.2219 59.5784 49.9587 59.9976 49.8855 60.4736L49.8755 60.538C49.8239 60.8736 49.5351 61.1212 49.1955 61.1212H48.5251C48.1855 61.1212 47.8967 60.8736 47.8451 60.538L47.8351 60.4728C47.7631 60.0048 47.5127 59.5844 47.1379 59.2952C46.4715 58.7804 46.0415 57.974 46.0415 57.0664Z" fill="white"/>
<path d="M48.6975 62.3176H49.0231C49.4339 62.3176 49.7699 61.9816 49.7699 61.5708V61.56C49.7699 61.4292 49.6639 61.3236 49.5335 61.3236H48.1867C48.0563 61.3236 47.9503 61.4296 47.9503 61.56V61.5708C47.9507 61.9816 48.2867 62.3176 48.6975 62.3176Z" fill="#407BFF"/>
<path opacity="0.2" d="M48.6975 62.3176H49.0231C49.4339 62.3176 49.7699 61.9816 49.7699 61.5708V61.56C49.7699 61.4292 49.6639 61.3236 49.5335 61.3236H48.1867C48.0563 61.3236 47.9503 61.4296 47.9503 61.56V61.5708C47.9507 61.9816 48.2867 62.3176 48.6975 62.3176Z" fill="white"/>
<path d="M48.0551 59.3344L48.3479 59.2544L47.9763 57.8888L48.3327 58.1004L48.3683 57.672L48.8603 58.0344L49.3523 57.672L49.3879 58.1004L49.7443 57.8888L49.3727 59.2544L49.6655 59.3344L50.2339 57.2448L49.6503 57.592L49.6095 57.1056L48.8603 57.658L48.1111 57.1056L48.0707 57.592L47.4867 57.2448L48.0551 59.3344Z" fill="#407BFF"/>
<g opacity="0.5">
<path d="M48.0551 59.3344L48.3479 59.2544L47.9763 57.8888L48.3327 58.1004L48.3683 57.672L48.8603 58.0344L49.3523 57.672L49.3879 58.1004L49.7443 57.8888L49.3727 59.2544L49.6655 59.3344L50.2339 57.2448L49.6503 57.592L49.6095 57.1056L48.8603 57.658L48.1111 57.1056L48.0707 57.592L47.4867 57.2448L48.0551 59.3344Z" fill="white"/>
</g>
<path d="M49.0335 51.266H48.6871V53.6336H49.0335V51.266Z" fill="white"/>
<path d="M45.3088 57.012H42.9412V57.3584H45.3088V57.012Z" fill="white"/>
<path d="M54.7796 57.012H52.412V57.3584H54.7796V57.012Z" fill="white"/>
<path d="M44.797 52.8734L44.5521 53.1183L46.2265 54.7922L46.4714 54.5473L44.797 52.8734Z" fill="white"/>
<path d="M51.4936 59.5692L51.2487 59.8141L52.923 61.488L53.1679 61.2431L51.4936 59.5692Z" fill="white"/>
<path d="M46.2266 59.5703L44.5525 61.2444L44.7974 61.4894L46.4716 59.8153L46.2266 59.5703Z" fill="white"/>
<path d="M52.9224 52.8756L51.2483 54.5497L51.4932 54.7946L53.1674 53.1205L52.9224 52.8756Z" fill="white"/>
<path d="M79.098 117.482C78.872 117.482 78.6888 117.299 78.6888 117.073C78.6888 116.847 78.872 116.664 79.098 116.664H90.2529C90.4789 116.664 90.662 116.847 90.662 117.073C90.662 117.299 90.4789 117.482 90.2529 117.482H79.098Z" fill="#407BFF"/>
<path opacity="0.5" d="M79.098 117.482C78.872 117.482 78.6888 117.299 78.6888 117.073C78.6888 116.847 78.872 116.664 79.098 116.664H90.2529C90.4789 116.664 90.662 116.847 90.662 117.073C90.662 117.299 90.4789 117.482 90.2529 117.482H79.098Z" fill="white"/>
<path d="M80.0452 116.774L78.5604 106.208C78.506 105.819 78.1464 105.504 77.7576 105.504H76.3348V117.478H79.44C79.8292 117.478 80.1 117.163 80.0452 116.774Z" fill="#407BFF"/>
<path opacity="0.6" d="M80.0452 116.774L78.5604 106.208C78.506 105.819 78.1464 105.504 77.7576 105.504H76.3348V117.478H79.44C79.8292 117.478 80.1 117.163 80.0452 116.774Z" fill="white"/>
<path d="M78.8264 117.478H66.2136C65.8248 117.478 65.4656 117.163 65.4108 116.774L63.926 106.208C63.8712 105.82 64.142 105.505 64.5308 105.505H77.1436C77.5324 105.505 77.8916 105.82 77.9464 106.208L79.4312 116.774C79.486 117.163 79.2152 117.478 78.8264 117.478Z" fill="#407BFF"/>
<path opacity="0.5" d="M78.8264 117.478H66.2136C65.8248 117.478 65.4656 117.163 65.4108 116.774L63.926 106.208C63.8712 105.82 64.142 105.505 64.5308 105.505H77.1436C77.5324 105.505 77.8916 105.82 77.9464 106.208L79.4312 116.774C79.486 117.163 79.2152 117.478 78.8264 117.478Z" fill="white"/>
<path opacity="0.7" d="M72.726 112.036C72.8104 112.636 72.3928 113.122 71.7928 113.122C71.1932 113.122 70.6388 112.636 70.5544 112.036C70.47 111.437 70.888 110.951 71.4876 110.951C72.0876 110.951 72.642 111.437 72.726 112.036Z" fill="white"/>
<path d="M137.257 164.96H136.212L134.866 120.092H136.248L137.257 164.96Z" fill="#263238"/>
<path opacity="0.6" d="M137.257 164.96H136.212L134.866 120.092H136.248L137.257 164.96Z" fill="white"/>
<path d="M120.395 120.092V164.96H121.502L122.804 122.142H136.158L137.135 164.96H138.231V120.092H120.395Z" fill="#263238"/>
<path opacity="0.4" d="M120.395 120.092V164.96H121.502L122.804 122.142H136.158L137.135 164.96H138.231V120.092H120.395Z" fill="white"/>
<path d="M120.395 164.96H119.35L119.013 120.092H120.395V164.96Z" fill="#263238"/>
<path opacity="0.6" d="M120.395 164.96H119.35L119.013 120.092H120.395V164.96Z" fill="white"/>
<path d="M80.498 164.96H79.4524L78.1064 120.092H79.4884L80.498 164.96Z" fill="#263238"/>
<path opacity="0.6" d="M80.498 164.96H79.4524L78.1064 120.092H79.4884L80.498 164.96Z" fill="white"/>
<path d="M63.6364 120.092V164.96H64.7432L66.0448 122.142H79.3996L80.3756 164.96H81.4716V120.092H63.6364Z" fill="#263238"/>
<path opacity="0.4" d="M63.6364 120.092V164.96H64.7432L66.0448 122.142H79.3996L80.3756 164.96H81.4716V120.092H63.6364Z" fill="white"/>
<path d="M63.6364 164.96H62.5908L62.2544 120.092H63.6364V164.96Z" fill="#263238"/>
<path opacity="0.6" d="M63.6364 164.96H62.5908L62.2544 120.092H63.6364V164.96Z" fill="white"/>
<path d="M119.533 117.512H60.4244V120.092H119.533V117.512Z" fill="#263238"/>
<path opacity="0.4" d="M119.533 117.512H60.4244V120.092H119.533V117.512Z" fill="white"/>
<path d="M140.06 117.512H117.926V120.092H140.06V117.512Z" fill="#263238"/>
<path opacity="0.3" d="M140.06 117.512H117.926V120.092H140.06V117.512Z" fill="white"/>
<path d="M128.948 117.576H114.287C113.9 117.576 113.541 117.262 113.487 116.874L112.007 106.345C111.953 105.958 112.223 105.643 112.61 105.643H127.271C127.658 105.643 128.017 105.957 128.071 106.345L129.551 116.874C129.605 117.262 129.335 117.576 128.948 117.576Z" fill="#407BFF"/>
<path opacity="0.5" d="M128.948 117.576H114.287C113.9 117.576 113.541 117.262 113.487 116.874L112.007 106.345C111.953 105.958 112.223 105.643 112.61 105.643H127.271C127.658 105.643 128.017 105.957 128.071 106.345L129.551 116.874C129.605 117.262 129.335 117.576 128.948 117.576Z" fill="white"/>
<path d="M128.03 116.003L115.003 115.943C114.646 115.943 114.316 115.653 114.266 115.296L113.108 107.346C113.058 106.989 113.306 106.7 113.664 106.7L126.691 106.76C127.048 106.76 127.378 107.05 127.428 107.407L128.586 115.357C128.636 115.714 128.387 116.003 128.03 116.003Z" fill="#263238"/>
<path d="M138.086 117.528H120.34C120.067 117.528 119.847 117.307 119.847 117.035C119.847 116.763 120.068 116.542 120.34 116.542H138.086C138.358 116.542 138.578 116.763 138.578 117.035C138.578 117.307 138.358 117.528 138.086 117.528Z" fill="#407BFF"/>
<path opacity="0.7" d="M138.086 117.528H120.34C120.067 117.528 119.847 117.307 119.847 117.035C119.847 116.763 120.068 116.542 120.34 116.542H138.086C138.358 116.542 138.578 116.763 138.578 117.035C138.578 117.307 138.358 117.528 138.086 117.528Z" fill="white"/>
<path d="M124.086 117.528H114.621C114.349 117.528 114.128 117.307 114.128 117.035C114.128 116.763 114.349 116.542 114.621 116.542H124.086C124.358 116.542 124.578 116.763 124.578 117.035C124.579 117.307 124.358 117.528 124.086 117.528Z" fill="#407BFF"/>
<path opacity="0.6" d="M124.086 117.528H114.621C114.349 117.528 114.128 117.307 114.128 117.035C114.128 116.763 114.349 116.542 114.621 116.542H124.086C124.358 116.542 124.578 116.763 124.578 117.035C124.579 117.307 124.358 117.528 124.086 117.528Z" fill="white"/>
</svg>
