<svg width="230" height="200" viewBox="0 0 230 200" fill="none" xmlns="http://www.w3.org/2000/svg">
<path d="M204.566 139.658H121.423C119.936 139.658 118.726 138.606 118.726 137.313V32.0036C118.726 30.7108 119.936 29.6588 121.423 29.6588H204.566C206.052 29.6588 207.262 30.7104 207.262 32.0036V137.313C207.262 138.606 206.052 139.658 204.566 139.658ZM121.423 29.7588C119.999 29.7588 118.841 30.766 118.841 32.0036V137.313C118.841 138.551 119.999 139.558 121.423 139.558H204.566C205.989 139.558 207.147 138.55 207.147 137.313V32.0036C207.147 30.766 205.989 29.7588 204.566 29.7588H121.423Z" fill="#F0F0F0"/>
<path d="M108.689 139.658H25.5456C24.0589 139.658 22.8491 138.606 22.8491 137.313V32.0036C22.8491 30.7108 24.0585 29.6588 25.5456 29.6588H108.689C110.176 29.6588 111.385 30.7104 111.385 32.0036V137.313C111.386 138.606 110.176 139.658 108.689 139.658ZM25.5456 29.7588C24.1224 29.7588 22.9641 30.766 22.9641 32.0036V137.313C22.9641 138.551 24.1224 139.558 25.5456 139.558H108.689C110.113 139.558 111.27 138.55 111.27 137.313V32.0036C111.27 30.766 110.112 29.7588 108.689 29.7588H25.5456Z" fill="#F0F0F0"/>
<path d="M230 164.086H0V164.186H230V164.086Z" fill="#F0F0F0"/>
<path d="M81.2937 108.996L81.2937 39.4172L27.1204 39.4172L27.1204 108.996L81.2937 108.996Z" fill="#F5F5F5"/>
<path d="M78.9967 41.4149H29.4174V106.999H78.9967V41.4149Z" fill="#FAFAFA"/>
<path d="M49.0024 106.991V71.5656H47.3063L44.3968 67.1836L41.7965 63.2668V56.0356H41.1782V63.2668L38.5778 67.1836L35.6683 71.5656H33.9728V106.991H49.0024Z" fill="#F5F5F5"/>
<path d="M36.1288 62.5573H29.4174V106.991H36.1288V62.5573Z" fill="#F5F5F5"/>
<path d="M67.9732 94.2516V62.0236L53.2542 67.2828V94.2516H67.9732Z" fill="#F5F5F5"/>
<path d="M78.9967 71.5656H63.9671V106.991H78.9967V71.5656Z" fill="#F0F0F0"/>
<path d="M67.9949 73.732H65.6631V74.6836H67.9949V73.732Z" fill="#F5F5F5"/>
<path d="M72.6482 73.732H70.316V74.6836H72.6482V73.732Z" fill="#F5F5F5"/>
<path d="M77.3011 73.732H74.9689V74.6836H77.3011V73.732Z" fill="#F5F5F5"/>
<path d="M67.9949 76.0856H65.6631V77.0368H67.9949V76.0856Z" fill="#F5F5F5"/>
<path d="M72.6482 76.0856H70.316V77.0368H72.6482V76.0856Z" fill="#F5F5F5"/>
<path d="M77.3011 76.0856H74.9689V77.0368H77.3011V76.0856Z" fill="#F5F5F5"/>
<path d="M67.9949 78.4396H65.6631V79.3912H67.9949V78.4396Z" fill="#F5F5F5"/>
<path d="M72.6482 78.4396H70.316V79.3912H72.6482V78.4396Z" fill="#F5F5F5"/>
<path d="M77.3011 78.4396H74.9689V79.3912H77.3011V78.4396Z" fill="#F5F5F5"/>
<path d="M67.9949 80.7932H65.6631V81.7448H67.9949V80.7932Z" fill="#F5F5F5"/>
<path d="M72.6482 80.7932H70.316V81.7448H72.6482V80.7932Z" fill="#F5F5F5"/>
<path d="M77.3011 80.7932H74.9689V81.7448H77.3011V80.7932Z" fill="#F5F5F5"/>
<path d="M67.9949 83.1472H65.6631V84.0988H67.9949V83.1472Z" fill="#F5F5F5"/>
<path d="M72.6482 83.1472H70.316V84.0988H72.6482V83.1472Z" fill="#F5F5F5"/>
<path d="M77.3011 83.1472H74.9689V84.0988H77.3011V83.1472Z" fill="#F5F5F5"/>
<path d="M67.9949 85.5008H65.6631V86.452H67.9949V85.5008Z" fill="#F5F5F5"/>
<path d="M72.6482 85.5008H70.316V86.452H72.6482V85.5008Z" fill="#F5F5F5"/>
<path d="M77.3011 85.5008H74.9689V86.452H77.3011V85.5008Z" fill="#F5F5F5"/>
<path d="M67.9949 87.8548H65.6631V88.8064H67.9949V87.8548Z" fill="#F5F5F5"/>
<path d="M72.6482 87.8548H70.316V88.8064H72.6482V87.8548Z" fill="#F5F5F5"/>
<path d="M77.3011 87.8548H74.9689V88.8064H77.3011V87.8548Z" fill="#F5F5F5"/>
<path d="M67.9949 90.2084H65.6631V91.1596H67.9949V90.2084Z" fill="#F5F5F5"/>
<path d="M72.6482 90.2084H70.316V91.1596H72.6482V90.2084Z" fill="#F5F5F5"/>
<path d="M77.3011 90.2084H74.9689V91.1596H77.3011V90.2084Z" fill="#F5F5F5"/>
<path d="M67.9949 92.5624H65.6631V93.514H67.9949V92.5624Z" fill="#F5F5F5"/>
<path d="M72.6482 92.5624H70.316V93.514H72.6482V92.5624Z" fill="#F5F5F5"/>
<path d="M77.3011 92.5624H74.9689V93.514H77.3011V92.5624Z" fill="#F5F5F5"/>
<path d="M67.9949 94.916H65.6631V95.8676H67.9949V94.916Z" fill="#F5F5F5"/>
<path d="M72.6482 94.916H70.316V95.8676H72.6482V94.916Z" fill="#F5F5F5"/>
<path d="M77.3011 94.916H74.9689V95.8676H77.3011V94.916Z" fill="#F5F5F5"/>
<path d="M67.9949 97.2696H65.6631V98.2208H67.9949V97.2696Z" fill="#F5F5F5"/>
<path d="M72.6482 97.2696H70.316V98.2208H72.6482V97.2696Z" fill="#F5F5F5"/>
<path d="M77.3011 97.2696H74.9689V98.2208H77.3011V97.2696Z" fill="#F5F5F5"/>
<path d="M67.9949 99.6236H65.6631V100.575H67.9949V99.6236Z" fill="#F5F5F5"/>
<path d="M72.6482 99.6236H70.316V100.575H72.6482V99.6236Z" fill="#F5F5F5"/>
<path d="M77.3011 99.6236H74.9689V100.575H77.3011V99.6236Z" fill="#F5F5F5"/>
<path d="M44.447 71.5656H29.4174V106.991H44.447V71.5656Z" fill="#F0F0F0"/>
<path d="M33.4457 73.732H31.1135V74.6836H33.4457V73.732Z" fill="#F5F5F5"/>
<path d="M38.0986 73.732H35.7664V74.6836H38.0986V73.732Z" fill="#F5F5F5"/>
<path d="M42.751 73.732H40.4193V74.6836H42.751V73.732Z" fill="#F5F5F5"/>
<path d="M33.4457 76.0856H31.1135V77.0368H33.4457V76.0856Z" fill="#F5F5F5"/>
<path d="M38.0986 76.0856H35.7664V77.0368H38.0986V76.0856Z" fill="#F5F5F5"/>
<path d="M42.751 76.0856H40.4193V77.0368H42.751V76.0856Z" fill="#F5F5F5"/>
<path d="M33.4457 78.4396H31.1135V79.3912H33.4457V78.4396Z" fill="#F5F5F5"/>
<path d="M38.0986 78.4396H35.7664V79.3912H38.0986V78.4396Z" fill="#F5F5F5"/>
<path d="M42.751 78.4396H40.4193V79.3912H42.751V78.4396Z" fill="#F5F5F5"/>
<path d="M33.4457 80.7932H31.1135V81.7448H33.4457V80.7932Z" fill="#F5F5F5"/>
<path d="M38.0986 80.7932H35.7664V81.7448H38.0986V80.7932Z" fill="#F5F5F5"/>
<path d="M42.751 80.7932H40.4193V81.7448H42.751V80.7932Z" fill="#F5F5F5"/>
<path d="M33.4457 83.1472H31.1135V84.0988H33.4457V83.1472Z" fill="#F5F5F5"/>
<path d="M38.0986 83.1472H35.7664V84.0988H38.0986V83.1472Z" fill="#F5F5F5"/>
<path d="M42.751 83.1472H40.4193V84.0988H42.751V83.1472Z" fill="#F5F5F5"/>
<path d="M33.4457 85.5008H31.1135V86.452H33.4457V85.5008Z" fill="#F5F5F5"/>
<path d="M38.0986 85.5008H35.7664V86.452H38.0986V85.5008Z" fill="#F5F5F5"/>
<path d="M42.751 85.5008H40.4193V86.452H42.751V85.5008Z" fill="#F5F5F5"/>
<path d="M33.4457 87.8548H31.1135V88.8064H33.4457V87.8548Z" fill="#F5F5F5"/>
<path d="M38.0986 87.8548H35.7664V88.8064H38.0986V87.8548Z" fill="#F5F5F5"/>
<path d="M42.751 87.8548H40.4193V88.8064H42.751V87.8548Z" fill="#F5F5F5"/>
<path d="M33.4457 90.2084H31.1135V91.1596H33.4457V90.2084Z" fill="#F5F5F5"/>
<path d="M38.0986 90.2084H35.7664V91.1596H38.0986V90.2084Z" fill="#F5F5F5"/>
<path d="M42.751 90.2084H40.4193V91.1596H42.751V90.2084Z" fill="#F5F5F5"/>
<path d="M33.4457 92.5624H31.1135V93.514H33.4457V92.5624Z" fill="#F5F5F5"/>
<path d="M38.0986 92.5624H35.7664V93.514H38.0986V92.5624Z" fill="#F5F5F5"/>
<path d="M42.751 92.5624H40.4193V93.514H42.751V92.5624Z" fill="#F5F5F5"/>
<path d="M33.4457 94.916H31.1135V95.8676H33.4457V94.916Z" fill="#F5F5F5"/>
<path d="M38.0986 94.916H35.7664V95.8676H38.0986V94.916Z" fill="#F5F5F5"/>
<path d="M42.751 94.916H40.4193V95.8676H42.751V94.916Z" fill="#F5F5F5"/>
<path d="M33.4457 97.2696H31.1135V98.2208H33.4457V97.2696Z" fill="#F5F5F5"/>
<path d="M38.0986 97.2696H35.7664V98.2208H38.0986V97.2696Z" fill="#F5F5F5"/>
<path d="M42.751 97.2696H40.4193V98.2208H42.751V97.2696Z" fill="#F5F5F5"/>
<path d="M33.4457 99.6236H31.1135V100.575H33.4457V99.6236Z" fill="#F5F5F5"/>
<path d="M38.0986 99.6236H35.7664V100.575H38.0986V99.6236Z" fill="#F5F5F5"/>
<path d="M42.751 99.6236H40.4193V100.575H42.751V99.6236Z" fill="#F5F5F5"/>
<path d="M71.4817 71.5656H65.6631L68.5726 67.1836L71.4817 62.8016L74.3912 67.1836L77.3007 71.5656H71.4817Z" fill="#F0F0F0"/>
<path d="M71.7912 56.0356H71.173V66.0256H71.7912V56.0356Z" fill="#F0F0F0"/>
<path d="M62.7214 73.7321H46.6104V106.991H62.7214V73.7321Z" fill="#F0F0F0"/>
<path d="M53.8738 72.5945H47.7949V77.1053H53.8738V72.5945Z" fill="#F0F0F0"/>
<path d="M49.9716 72.2617H48.3418V76.3117H49.9716V72.2617Z" fill="#F0F0F0"/>
<path d="M53.3636 72.2617H51.7338V76.3117H53.3636V72.2617Z" fill="#F0F0F0"/>
<path d="M61.6915 72.61H58.0726V75.7568H61.6915V72.61Z" fill="#F0F0F0"/>
<path d="M51.3078 76.5616H48.9756V77.5128H51.3078V76.5616Z" fill="#F5F5F5"/>
<path d="M55.9607 76.5616H53.6285V77.5128H55.9607V76.5616Z" fill="#F5F5F5"/>
<path d="M60.6136 76.5616H58.2814V77.5128H60.6136V76.5616Z" fill="#F5F5F5"/>
<path d="M51.3078 78.9152H48.9756V79.8668H51.3078V78.9152Z" fill="#F5F5F5"/>
<path d="M55.9607 78.9152H53.6285V79.8668H55.9607V78.9152Z" fill="#F5F5F5"/>
<path d="M60.6136 78.9152H58.2814V79.8668H60.6136V78.9152Z" fill="#F5F5F5"/>
<path d="M51.3078 81.2692H48.9756V82.2208H51.3078V81.2692Z" fill="#F5F5F5"/>
<path d="M55.9607 81.2692H53.6285V82.2208H55.9607V81.2692Z" fill="#F5F5F5"/>
<path d="M60.6136 81.2692H58.2814V82.2208H60.6136V81.2692Z" fill="#F5F5F5"/>
<path d="M51.3078 83.6229H48.9756V84.5741H51.3078V83.6229Z" fill="#F5F5F5"/>
<path d="M55.9607 83.6229H53.6285V84.5741H55.9607V83.6229Z" fill="#F5F5F5"/>
<path d="M60.6136 83.6229H58.2814V84.5741H60.6136V83.6229Z" fill="#F5F5F5"/>
<path d="M51.3078 85.9764H48.9756V86.928H51.3078V85.9764Z" fill="#F5F5F5"/>
<path d="M55.9607 85.9764H53.6285V86.928H55.9607V85.9764Z" fill="#F5F5F5"/>
<path d="M60.6136 85.9764H58.2814V86.928H60.6136V85.9764Z" fill="#F5F5F5"/>
<path d="M51.3078 88.3304H48.9756V89.2816H51.3078V88.3304Z" fill="#F5F5F5"/>
<path d="M55.9607 88.3304H53.6285V89.2816H55.9607V88.3304Z" fill="#F5F5F5"/>
<path d="M60.6136 88.3304H58.2814V89.2816H60.6136V88.3304Z" fill="#F5F5F5"/>
<path d="M51.3078 90.6841H48.9756V91.6353H51.3078V90.6841Z" fill="#F5F5F5"/>
<path d="M55.9607 90.6841H53.6285V91.6353H55.9607V90.6841Z" fill="#F5F5F5"/>
<path d="M60.6136 90.6841H58.2814V91.6353H60.6136V90.6841Z" fill="#F5F5F5"/>
<path d="M51.3078 93.038H48.9756V93.9896H51.3078V93.038Z" fill="#F5F5F5"/>
<path d="M55.9607 93.038H53.6285V93.9896H55.9607V93.038Z" fill="#F5F5F5"/>
<path d="M60.6136 93.038H58.2814V93.9896H60.6136V93.038Z" fill="#F5F5F5"/>
<path d="M51.3078 95.3917H48.9756V96.3433H51.3078V95.3917Z" fill="#F5F5F5"/>
<path d="M55.9607 95.3917H53.6285V96.3433H55.9607V95.3917Z" fill="#F5F5F5"/>
<path d="M60.6136 95.3917H58.2814V96.3433H60.6136V95.3917Z" fill="#F5F5F5"/>
<path d="M51.3078 97.7457H48.9756V98.6973H51.3078V97.7457Z" fill="#F5F5F5"/>
<path d="M55.9607 97.7457H53.6285V98.6973H55.9607V97.7457Z" fill="#F5F5F5"/>
<path d="M60.6136 97.7457H58.2814V98.6973H60.6136V97.7457Z" fill="#F5F5F5"/>
<path d="M51.3078 100.099H48.9756V101.05H51.3078V100.099Z" fill="#F5F5F5"/>
<path d="M55.9607 100.099H53.6285V101.05H55.9607V100.099Z" fill="#F5F5F5"/>
<path d="M60.6136 100.099H58.2814V101.05H60.6136V100.099Z" fill="#F5F5F5"/>
<path d="M51.3078 102.453H48.9756V103.405H51.3078V102.453Z" fill="#F5F5F5"/>
<path d="M55.9607 102.453H53.6285V103.405H55.9607V102.453Z" fill="#F5F5F5"/>
<path d="M60.6136 102.453H58.2814V103.405H60.6136V102.453Z" fill="#F5F5F5"/>
<path opacity="0.2" d="M75.7003 41.4149L29.4174 81.6641V70.1053L62.4118 41.4149H75.7003Z" fill="white"/>
<path opacity="0.2" d="M78.9967 55.9865V64.236L29.8195 106.999H29.4174V99.1021L78.9967 55.9865Z" fill="white"/>
<path d="M202.537 109.49L202.537 39.911L148.364 39.911V109.49L202.537 109.49Z" fill="#F5F5F5"/>
<path d="M200.24 41.9084H150.661V107.492H200.24V41.9084Z" fill="#FAFAFA"/>
<path d="M170.246 107.485V72.0592H168.55L165.64 67.6772L163.04 63.7608V56.5292H162.422V63.7608L159.821 67.6772L156.912 72.0592H155.216V107.485H170.246Z" fill="#F5F5F5"/>
<path d="M157.372 63.0511H150.661V107.485H157.372V63.0511Z" fill="#F5F5F5"/>
<path d="M189.217 94.7456V62.5176L174.497 67.7764V94.7456H189.217Z" fill="#F5F5F5"/>
<path d="M200.24 72.0592H185.211V107.485H200.24V72.0592Z" fill="#F0F0F0"/>
<path d="M189.238 74.2256H186.907V75.1772H189.238V74.2256Z" fill="#F5F5F5"/>
<path d="M193.892 74.2256H191.56V75.1772H193.892V74.2256Z" fill="#F5F5F5"/>
<path d="M198.545 74.2256H196.213V75.1772H198.545V74.2256Z" fill="#F5F5F5"/>
<path d="M189.238 76.5796H186.907V77.5312H189.238V76.5796Z" fill="#F5F5F5"/>
<path d="M193.892 76.5796H191.56V77.5312H193.892V76.5796Z" fill="#F5F5F5"/>
<path d="M198.545 76.5796H196.213V77.5312H198.545V76.5796Z" fill="#F5F5F5"/>
<path d="M189.238 78.9332H186.907V79.8844H189.238V78.9332Z" fill="#F5F5F5"/>
<path d="M193.892 78.9332H191.56V79.8844H193.892V78.9332Z" fill="#F5F5F5"/>
<path d="M198.545 78.9332H196.213V79.8844H198.545V78.9332Z" fill="#F5F5F5"/>
<path d="M189.238 81.2872H186.907V82.2388H189.238V81.2872Z" fill="#F5F5F5"/>
<path d="M193.892 81.2872H191.56V82.2388H193.892V81.2872Z" fill="#F5F5F5"/>
<path d="M198.545 81.2872H196.213V82.2388H198.545V81.2872Z" fill="#F5F5F5"/>
<path d="M189.238 83.6408H186.907V84.5924H189.238V83.6408Z" fill="#F5F5F5"/>
<path d="M193.892 83.6408H191.56V84.5924H193.892V83.6408Z" fill="#F5F5F5"/>
<path d="M198.545 83.6408H196.213V84.5924H198.545V83.6408Z" fill="#F5F5F5"/>
<path d="M189.238 85.9944H186.907V86.946H189.238V85.9944Z" fill="#F5F5F5"/>
<path d="M193.892 85.9944H191.56V86.946H193.892V85.9944Z" fill="#F5F5F5"/>
<path d="M198.545 85.9944H196.213V86.946H198.545V85.9944Z" fill="#F5F5F5"/>
<path d="M189.238 88.3484H186.907V89.3H189.238V88.3484Z" fill="#F5F5F5"/>
<path d="M193.892 88.3484H191.56V89.3H193.892V88.3484Z" fill="#F5F5F5"/>
<path d="M198.545 88.3484H196.213V89.3H198.545V88.3484Z" fill="#F5F5F5"/>
<path d="M189.238 90.702H186.907V91.6532H189.238V90.702Z" fill="#F5F5F5"/>
<path d="M193.892 90.702H191.56V91.6532H193.892V90.702Z" fill="#F5F5F5"/>
<path d="M198.545 90.702H196.213V91.6532H198.545V90.702Z" fill="#F5F5F5"/>
<path d="M189.238 93.056H186.907V94.0072H189.238V93.056Z" fill="#F5F5F5"/>
<path d="M193.892 93.056H191.56V94.0072H193.892V93.056Z" fill="#F5F5F5"/>
<path d="M198.545 93.056H196.213V94.0072H198.545V93.056Z" fill="#F5F5F5"/>
<path d="M189.238 95.4096H186.907V96.3612H189.238V95.4096Z" fill="#F5F5F5"/>
<path d="M193.892 95.4096H191.56V96.3612H193.892V95.4096Z" fill="#F5F5F5"/>
<path d="M198.545 95.4096H196.213V96.3612H198.545V95.4096Z" fill="#F5F5F5"/>
<path d="M189.238 97.7635H186.907V98.7151H189.238V97.7635Z" fill="#F5F5F5"/>
<path d="M193.892 97.7635H191.56V98.7151H193.892V97.7635Z" fill="#F5F5F5"/>
<path d="M198.545 97.7635H196.213V98.7151H198.545V97.7635Z" fill="#F5F5F5"/>
<path d="M189.238 100.117H186.907V101.069H189.238V100.117Z" fill="#F5F5F5"/>
<path d="M193.892 100.117H191.56V101.069H193.892V100.117Z" fill="#F5F5F5"/>
<path d="M198.545 100.117H196.213V101.069H198.545V100.117Z" fill="#F5F5F5"/>
<path d="M165.691 72.0592H150.661V107.485H165.691V72.0592Z" fill="#F0F0F0"/>
<path d="M154.689 74.2256H152.357V75.1772H154.689V74.2256Z" fill="#F5F5F5"/>
<path d="M159.342 74.2256H157.01V75.1772H159.342V74.2256Z" fill="#F5F5F5"/>
<path d="M163.995 74.2256H161.663V75.1772H163.995V74.2256Z" fill="#F5F5F5"/>
<path d="M154.689 76.5796H152.357V77.5312H154.689V76.5796Z" fill="#F5F5F5"/>
<path d="M159.342 76.5796H157.01V77.5312H159.342V76.5796Z" fill="#F5F5F5"/>
<path d="M163.995 76.5796H161.663V77.5312H163.995V76.5796Z" fill="#F5F5F5"/>
<path d="M154.689 78.9332H152.357V79.8844H154.689V78.9332Z" fill="#F5F5F5"/>
<path d="M159.342 78.9332H157.01V79.8844H159.342V78.9332Z" fill="#F5F5F5"/>
<path d="M163.995 78.9332H161.663V79.8844H163.995V78.9332Z" fill="#F5F5F5"/>
<path d="M154.689 81.2872H152.357V82.2388H154.689V81.2872Z" fill="#F5F5F5"/>
<path d="M159.342 81.2872H157.01V82.2388H159.342V81.2872Z" fill="#F5F5F5"/>
<path d="M163.995 81.2872H161.663V82.2388H163.995V81.2872Z" fill="#F5F5F5"/>
<path d="M154.689 83.6408H152.357V84.5924H154.689V83.6408Z" fill="#F5F5F5"/>
<path d="M159.342 83.6408H157.01V84.5924H159.342V83.6408Z" fill="#F5F5F5"/>
<path d="M163.995 83.6408H161.663V84.5924H163.995V83.6408Z" fill="#F5F5F5"/>
<path d="M154.689 85.9944H152.357V86.946H154.689V85.9944Z" fill="#F5F5F5"/>
<path d="M159.342 85.9944H157.01V86.946H159.342V85.9944Z" fill="#F5F5F5"/>
<path d="M163.995 85.9944H161.663V86.946H163.995V85.9944Z" fill="#F5F5F5"/>
<path d="M154.689 88.3484H152.357V89.3H154.689V88.3484Z" fill="#F5F5F5"/>
<path d="M159.342 88.3484H157.01V89.3H159.342V88.3484Z" fill="#F5F5F5"/>
<path d="M163.995 88.3484H161.663V89.3H163.995V88.3484Z" fill="#F5F5F5"/>
<path d="M154.689 90.702H152.357V91.6532H154.689V90.702Z" fill="#F5F5F5"/>
<path d="M159.342 90.702H157.01V91.6532H159.342V90.702Z" fill="#F5F5F5"/>
<path d="M163.995 90.702H161.663V91.6532H163.995V90.702Z" fill="#F5F5F5"/>
<path d="M154.689 93.056H152.357V94.0072H154.689V93.056Z" fill="#F5F5F5"/>
<path d="M159.342 93.056H157.01V94.0072H159.342V93.056Z" fill="#F5F5F5"/>
<path d="M163.995 93.056H161.663V94.0072H163.995V93.056Z" fill="#F5F5F5"/>
<path d="M154.689 95.4096H152.357V96.3612H154.689V95.4096Z" fill="#F5F5F5"/>
<path d="M159.342 95.4096H157.01V96.3612H159.342V95.4096Z" fill="#F5F5F5"/>
<path d="M163.995 95.4096H161.663V96.3612H163.995V95.4096Z" fill="#F5F5F5"/>
<path d="M154.689 97.7635H152.357V98.7151H154.689V97.7635Z" fill="#F5F5F5"/>
<path d="M159.342 97.7635H157.01V98.7151H159.342V97.7635Z" fill="#F5F5F5"/>
<path d="M163.995 97.7635H161.663V98.7151H163.995V97.7635Z" fill="#F5F5F5"/>
<path d="M154.689 100.117H152.357V101.069H154.689V100.117Z" fill="#F5F5F5"/>
<path d="M159.342 100.117H157.01V101.069H159.342V100.117Z" fill="#F5F5F5"/>
<path d="M163.995 100.117H161.663V101.069H163.995V100.117Z" fill="#F5F5F5"/>
<path d="M192.725 72.0592H186.907L189.816 67.6772L192.725 63.2952L195.635 67.6772L198.544 72.0592H192.725Z" fill="#F0F0F0"/>
<path d="M193.035 56.5292H192.417V66.5192H193.035V56.5292Z" fill="#F0F0F0"/>
<path d="M183.965 74.2256H167.854V107.485H183.965V74.2256Z" fill="#F0F0F0"/>
<path d="M175.117 73.088H169.039V77.5988H175.117V73.088Z" fill="#F0F0F0"/>
<path d="M171.215 72.7556H169.585V76.8056H171.215V72.7556Z" fill="#F0F0F0"/>
<path d="M174.607 72.7556H172.977V76.8056H174.607V72.7556Z" fill="#F0F0F0"/>
<path d="M182.935 73.1039H179.316V76.2507H182.935V73.1039Z" fill="#F0F0F0"/>
<path d="M172.552 77.0552H170.219V78.0068H172.552V77.0552Z" fill="#F5F5F5"/>
<path d="M177.204 77.0552H174.872V78.0068H177.204V77.0552Z" fill="#F5F5F5"/>
<path d="M181.857 77.0552H179.525V78.0068H181.857V77.0552Z" fill="#F5F5F5"/>
<path d="M172.552 79.4088H170.219V80.3604H172.552V79.4088Z" fill="#F5F5F5"/>
<path d="M177.204 79.4088H174.872V80.3604H177.204V79.4088Z" fill="#F5F5F5"/>
<path d="M181.857 79.4088H179.525V80.3604H181.857V79.4088Z" fill="#F5F5F5"/>
<path d="M172.552 81.7628H170.219V82.7144H172.552V81.7628Z" fill="#F5F5F5"/>
<path d="M177.204 81.7628H174.872V82.7144H177.204V81.7628Z" fill="#F5F5F5"/>
<path d="M181.857 81.7628H179.525V82.7144H181.857V81.7628Z" fill="#F5F5F5"/>
<path d="M172.552 84.1164H170.219V85.0676H172.552V84.1164Z" fill="#F5F5F5"/>
<path d="M177.204 84.1164H174.872V85.0676H177.204V84.1164Z" fill="#F5F5F5"/>
<path d="M181.857 84.1164H179.525V85.0676H181.857V84.1164Z" fill="#F5F5F5"/>
<path d="M172.552 86.4704H170.219V87.422H172.552V86.4704Z" fill="#F5F5F5"/>
<path d="M177.204 86.4704H174.872V87.422H177.204V86.4704Z" fill="#F5F5F5"/>
<path d="M181.857 86.4704H179.525V87.422H181.857V86.4704Z" fill="#F5F5F5"/>
<path d="M172.552 88.824H170.219V89.7756H172.552V88.824Z" fill="#F5F5F5"/>
<path d="M177.204 88.824H174.872V89.7756H177.204V88.824Z" fill="#F5F5F5"/>
<path d="M181.857 88.824H179.525V89.7756H181.857V88.824Z" fill="#F5F5F5"/>
<path d="M172.552 91.178H170.219V92.1296H172.552V91.178Z" fill="#F5F5F5"/>
<path d="M177.204 91.178H174.872V92.1296H177.204V91.178Z" fill="#F5F5F5"/>
<path d="M181.857 91.178H179.525V92.1296H181.857V91.178Z" fill="#F5F5F5"/>
<path d="M172.552 93.5316H170.219V94.4832H172.552V93.5316Z" fill="#F5F5F5"/>
<path d="M177.204 93.5316H174.872V94.4832H177.204V93.5316Z" fill="#F5F5F5"/>
<path d="M181.857 93.5316H179.525V94.4832H181.857V93.5316Z" fill="#F5F5F5"/>
<path d="M172.552 95.8856H170.219V96.8368H172.552V95.8856Z" fill="#F5F5F5"/>
<path d="M177.204 95.8856H174.872V96.8368H177.204V95.8856Z" fill="#F5F5F5"/>
<path d="M181.857 95.8856H179.525V96.8368H181.857V95.8856Z" fill="#F5F5F5"/>
<path d="M172.552 98.2392H170.219V99.1908H172.552V98.2392Z" fill="#F5F5F5"/>
<path d="M177.204 98.2392H174.872V99.1908H177.204V98.2392Z" fill="#F5F5F5"/>
<path d="M181.857 98.2392H179.525V99.1908H181.857V98.2392Z" fill="#F5F5F5"/>
<path d="M172.552 100.593H170.219V101.545H172.552V100.593Z" fill="#F5F5F5"/>
<path d="M177.204 100.593H174.872V101.545H177.204V100.593Z" fill="#F5F5F5"/>
<path d="M181.857 100.593H179.525V101.545H181.857V100.593Z" fill="#F5F5F5"/>
<path d="M172.552 102.947H170.219V103.898H172.552V102.947Z" fill="#F5F5F5"/>
<path d="M177.204 102.947H174.872V103.898H177.204V102.947Z" fill="#F5F5F5"/>
<path d="M181.857 102.947H179.525V103.898H181.857V102.947Z" fill="#F5F5F5"/>
<path opacity="0.2" d="M196.944 41.9084L150.661 82.1576V70.5988L183.655 41.9084H196.944Z" fill="white"/>
<path opacity="0.2" d="M200.24 56.48V64.7296L151.063 107.492H150.661V99.5956L200.24 56.48Z" fill="white"/>
<path d="M128.049 120.797H48.3777C48.3777 121.97 49.4712 122.92 50.8199 122.92H125.607C126.956 122.92 128.049 121.97 128.049 120.797Z" fill="#F0F0F0"/>
<path d="M112.401 140.883H64.7464V142.848H112.401V140.883Z" fill="#F0F0F0"/>
<path d="M110.715 164.136L117.21 122.92H114.929L108.433 164.136H110.715Z" fill="#F0F0F0"/>
<path d="M116.055 164.136L109.454 122.92H111.735L118.336 164.136H116.055Z" fill="#F0F0F0"/>
<path d="M61.1005 164.136L67.874 122.92H65.5928L58.8193 164.136H61.1005Z" fill="#F0F0F0"/>
<path d="M66.4406 164.136L59.9454 122.92H62.2265L68.7217 164.136H66.4406Z" fill="#F0F0F0"/>
<path d="M130.722 117.388H45.7047V120.81H130.722V117.388Z" fill="#F5F5F5"/>
<path d="M76.3448 117.402H113.239L113.639 116.614C113.891 116.119 113.234 115.625 112.323 115.625H78.2796C77.6692 115.625 77.1319 115.854 76.9631 116.186L76.3448 117.402Z" fill="#E0E0E0"/>
<path d="M123.354 95.0692L118.631 112.438C118.505 112.9 118.03 113.227 117.483 113.227H88.3913C87.63 113.227 87.0679 112.61 87.2431 111.966L91.9655 94.5972C92.0915 94.1344 92.5663 93.8076 93.1137 93.8076H122.205C122.967 93.8076 123.529 94.4256 123.354 95.0692Z" fill="#F0F0F0"/>
<path d="M109.218 104.197C109.08 105.29 107.948 106.176 106.691 106.176C105.434 106.176 104.527 105.29 104.666 104.197C104.804 103.104 105.936 102.217 107.193 102.217C108.45 102.217 109.357 103.104 109.218 104.197Z" fill="#E0E0E0"/>
<path d="M94.2665 93.8076L89.2387 113.227H88.3918C87.6305 113.227 87.0684 112.61 87.2436 111.966L91.966 94.5972C92.092 94.1344 92.5668 93.8076 93.1142 93.8076H94.2665Z" fill="#E0E0E0"/>
<path d="M102.693 113.227L101.701 117.353H104.616L105.608 113.227H102.693Z" fill="#E0E0E0"/>
<path d="M97.4478 116.655L98.0449 115.925C98.2579 115.665 98.6029 115.51 98.9704 115.51H106.962C107.385 115.51 107.773 115.714 107.969 116.04L108.371 116.709C108.56 117.022 108.298 117.397 107.893 117.397H97.889C97.4492 117.397 97.1935 116.966 97.4478 116.655Z" fill="#E0E0E0"/>
<path d="M181.489 154.985C181.489 154.985 177.607 155.733 178.184 153.378C178.761 151.022 178.719 150.154 177.141 149.084C175.563 148.013 173.975 147.484 175.184 145.789C176.392 144.094 174.099 142.776 172.914 141.864C171.729 140.952 173.067 140.264 173.381 138.539C173.695 136.814 171.561 137.073 171.394 134.901C171.226 132.728 173.764 130.19 171.582 127.199C171.582 127.199 174.512 128.521 175.475 130.842C176.438 133.164 175.661 134.957 177.392 135.84C179.124 136.722 180.207 138.248 179.619 139.815C179.031 141.381 179.866 142.212 181.286 143.354C182.705 144.497 182.327 144.951 182.151 146.348C181.974 147.744 182.329 147.414 183.954 149.322C185.579 151.232 185.62 154.359 181.489 154.985Z" fill="#F0F0F0"/>
<path d="M182.042 154.88C182.034 154.869 182.027 154.858 182.022 154.844L174.254 134.342C174.221 134.255 174.276 134.159 174.377 134.13C174.379 134.13 174.38 134.13 174.381 134.13C174.481 134.102 174.589 134.15 174.622 134.238L182.389 154.739C182.396 154.755 182.399 154.772 182.399 154.789L182.042 154.88Z" fill="#E0E0E0"/>
<path d="M188.494 154.942C188.494 154.942 192.355 155.686 191.782 153.344C191.208 151.001 191.25 150.137 192.82 149.072C194.389 148.008 195.968 147.482 194.767 145.796C193.565 144.11 195.845 142.799 197.024 141.892C198.202 140.984 196.872 140.3 196.56 138.584C196.247 136.868 198.37 137.126 198.537 134.965C198.703 132.804 196.179 130.279 198.35 127.304C198.35 127.304 195.434 128.619 194.477 130.928C193.519 133.238 194.293 135.022 192.57 135.899C190.848 136.777 189.77 138.295 190.355 139.853C190.94 141.411 190.108 142.238 188.697 143.374C187.285 144.51 187.661 144.962 187.836 146.351C188.012 147.741 187.659 147.412 186.043 149.31C184.426 151.209 184.385 154.32 188.494 154.942Z" fill="#F0F0F0"/>
<path d="M187.589 154.747C187.589 154.73 187.592 154.714 187.599 154.697L195.325 134.305C195.358 134.218 195.465 134.17 195.564 134.197C195.566 134.198 195.567 134.198 195.568 134.198C195.668 134.227 195.723 134.322 195.69 134.409L187.963 154.802C187.959 154.815 187.952 154.827 187.944 154.838L187.589 154.747Z" fill="#E0E0E0"/>
<path d="M184.206 154.516C184.206 154.516 179.762 154.196 181.28 151.84C182.798 149.484 183.084 148.541 181.803 146.939C180.521 145.337 179.023 144.312 180.964 142.846C182.906 141.379 180.954 139.306 180.033 137.986C179.112 136.667 180.808 136.316 181.803 134.56C182.798 132.803 180.413 132.464 181.063 130.089C181.714 127.714 185.402 125.728 184.206 121.895C184.206 121.895 186.841 124.157 186.985 126.921C187.129 129.686 185.612 131.382 187.129 132.827C188.647 134.272 189.225 136.22 187.996 137.728C186.768 139.236 187.346 140.367 188.43 142C189.514 143.634 188.936 144.011 188.214 145.456C187.491 146.901 187.997 146.65 189.008 149.163C190.02 151.676 188.87 155.038 184.206 154.516Z" fill="#F5F5F5"/>
<path d="M184.838 154.564C184.834 154.549 184.831 154.535 184.831 154.519L184.341 130.317C184.339 130.213 184.434 130.127 184.553 130.125C184.555 130.125 184.556 130.125 184.558 130.125C184.676 130.125 184.772 130.208 184.775 130.311L185.265 154.512C185.265 154.532 185.262 154.55 185.256 154.568L184.838 154.564Z" fill="#E0E0E0"/>
<path d="M196.306 152.646H174.573C173.948 152.646 173.516 153.189 173.736 153.698L174.058 154.44L174.26 154.91L174.844 156.257L175.047 156.727L175.646 158.11L175.849 158.579L178.24 164.099H192.636L195.027 158.579L195.23 158.11L195.829 156.727L196.033 156.257L196.616 154.91L196.819 154.44L197.14 153.698C197.362 153.189 196.93 152.646 196.306 152.646Z" fill="#E6E6E6"/>
<path d="M113.152 175.867C162.518 175.867 202.538 174.779 202.538 173.438C202.538 172.097 162.518 171.009 113.152 171.009C63.786 171.009 23.7668 172.097 23.7668 173.438C23.7668 174.779 63.786 175.867 113.152 175.867Z" fill="#F0F0F0"/>
<path d="M53.1125 158.592L49.3318 173.37H39.1731L35.3924 158.592H53.1125Z" fill="#407BFF"/>
<path opacity="0.5" d="M53.1125 158.592L49.3318 173.37H39.1731L35.3924 158.592H53.1125Z" fill="white"/>
<path d="M53.8738 158.592H34.5V160.399H53.8738V158.592Z" fill="#407BFF"/>
<path opacity="0.7" d="M53.8738 158.592H34.5V160.399H53.8738V158.592Z" fill="white"/>
<path d="M44.3643 158.592H44.8118C45.0418 146.457 41.1949 137.748 41.1512 137.651C41.1052 137.549 40.6879 137.691 40.7339 137.793C40.7776 137.889 44.5956 146.533 44.3643 158.592Z" fill="#407BFF"/>
<path d="M43.4649 146.347C43.4649 146.347 41.9271 142.262 50.4022 140.846C50.4022 140.846 50.2458 148.001 43.4649 146.347Z" fill="#407BFF"/>
<path d="M44.3615 153.098C44.3615 153.098 42.8237 149.014 51.2987 147.598C51.2987 147.598 51.1428 154.753 44.3615 153.098Z" fill="#407BFF"/>
<path d="M44.0648 149.043C44.0648 149.043 43.5685 144.767 35.1597 146.457C35.1597 146.457 38.6354 152.944 44.0648 149.043Z" fill="#407BFF"/>
<path d="M44.5685 155.194C44.5685 155.194 44.0721 150.918 35.6633 152.608C35.6633 152.608 39.1396 159.095 44.5685 155.194Z" fill="#407BFF"/>
<path d="M42.5192 142.422C42.5192 142.422 37.5889 142.719 38.0839 135.227C38.0839 135.227 46.0239 137.11 42.5192 142.422Z" fill="#407BFF"/>
<path d="M160.289 121.768C160.531 122.052 160.816 122.309 161.144 122.53L160.43 124.003L162.285 124.683L162.969 123.274C163.41 123.357 163.853 123.38 164.289 123.349L165.064 125.006L166.929 124.347L166.214 122.818C166.703 122.569 167.139 122.241 167.495 121.843L169.189 122.464L169.971 120.85L168.35 120.256C168.464 119.801 168.478 119.342 168.408 118.896L169.989 118.336L169.23 116.714L167.703 117.255C167.374 116.82 166.943 116.441 166.426 116.143L167.11 114.734L165.255 114.054L164.541 115.526C164.129 115.477 163.718 115.478 163.316 115.527L162.583 113.96L160.718 114.62L161.429 116.14C160.929 116.426 160.493 116.801 160.15 117.25L158.53 116.656L157.747 118.269L159.441 118.89C159.373 119.32 159.385 119.75 159.477 120.166L157.729 120.784L158.488 122.406L160.289 121.768ZM162.224 118.802C162.62 117.986 163.704 117.603 164.642 117.946C165.58 118.29 166.02 119.233 165.625 120.049C165.23 120.864 164.146 121.248 163.208 120.904C162.27 120.56 161.828 119.617 162.224 118.802Z" fill="#407BFF"/>
<g opacity="0.5">
<path d="M160.289 121.768C160.531 122.052 160.816 122.309 161.144 122.53L160.43 124.003L162.285 124.683L162.969 123.274C163.41 123.357 163.853 123.38 164.289 123.349L165.064 125.006L166.929 124.347L166.214 122.818C166.703 122.569 167.139 122.241 167.495 121.843L169.189 122.464L169.971 120.85L168.35 120.256C168.464 119.801 168.478 119.342 168.408 118.896L169.989 118.336L169.23 116.714L167.703 117.255C167.374 116.82 166.943 116.441 166.426 116.143L167.11 114.734L165.255 114.054L164.541 115.526C164.129 115.477 163.718 115.478 163.316 115.527L162.583 113.96L160.718 114.62L161.429 116.14C160.929 116.426 160.493 116.801 160.15 117.25L158.53 116.656L157.747 118.269L159.441 118.89C159.373 119.32 159.385 119.75 159.477 120.166L157.729 120.784L158.488 122.406L160.289 121.768ZM162.224 118.802C162.62 117.986 163.704 117.603 164.642 117.946C165.58 118.29 166.02 119.233 165.625 120.049C165.23 120.864 164.146 121.248 163.208 120.904C162.27 120.56 161.828 119.617 162.224 118.802Z" fill="white"/>
</g>
<path d="M54.5022 59.2452C54.7437 59.5296 55.0294 59.7864 55.3569 60.008L54.643 61.4804L56.4981 62.1608L57.1817 60.7512C57.6224 60.8344 58.0663 60.858 58.5019 60.8264L59.2775 62.484L61.1428 61.8244L60.4275 60.2956C60.916 60.0468 61.3521 59.7192 61.7086 59.3208L63.4023 59.9416L64.1847 58.3284L62.5637 57.734C62.6768 57.2788 62.6916 56.8196 62.6212 56.3736L64.2027 55.8144L63.4437 54.1924L61.916 54.7328C61.5871 54.2984 61.1561 53.9188 60.6395 53.6212L61.3231 52.212L59.4679 51.5316L58.754 53.0044C58.3423 52.9552 57.9315 52.9564 57.529 53.0044L56.7962 51.438L54.9309 52.0976L55.6421 53.6176C55.1425 53.9036 54.706 54.2784 54.3637 54.7276L52.7431 54.1332L51.9607 55.7468L53.6539 56.368C53.5863 56.7976 53.5983 57.2276 53.6903 57.6432L51.9427 58.2612L52.7013 59.8832L54.5022 59.2452ZM56.437 56.2796C56.8326 55.4644 57.9168 55.0808 58.8547 55.4244C59.7922 55.7684 60.2333 56.7112 59.8382 57.5268C59.4426 58.3424 58.3579 58.7256 57.4204 58.382C56.4825 58.038 56.0418 57.0952 56.437 56.2796Z" fill="#407BFF"/>
<g opacity="0.5">
<path d="M54.5022 59.2452C54.7437 59.5296 55.0294 59.7864 55.3569 60.008L54.643 61.4804L56.4981 62.1608L57.1817 60.7512C57.6224 60.8344 58.0663 60.858 58.5019 60.8264L59.2775 62.484L61.1428 61.8244L60.4275 60.2956C60.916 60.0468 61.3521 59.7192 61.7086 59.3208L63.4023 59.9416L64.1847 58.3284L62.5637 57.734C62.6768 57.2788 62.6916 56.8196 62.6212 56.3736L64.2027 55.8144L63.4437 54.1924L61.916 54.7328C61.5871 54.2984 61.1561 53.9188 60.6395 53.6212L61.3231 52.212L59.4679 51.5316L58.754 53.0044C58.3423 52.9552 57.9315 52.9564 57.529 53.0044L56.7962 51.438L54.9309 52.0976L55.6421 53.6176C55.1425 53.9036 54.706 54.2784 54.3637 54.7276L52.7431 54.1332L51.9607 55.7468L53.6539 56.368C53.5863 56.7976 53.5983 57.2276 53.6903 57.6432L51.9427 58.2612L52.7013 59.8832L54.5022 59.2452ZM56.437 56.2796C56.8326 55.4644 57.9168 55.0808 58.8547 55.4244C59.7922 55.7684 60.2333 56.7112 59.8382 57.5268C59.4426 58.3424 58.3579 58.7256 57.4204 58.382C56.4825 58.038 56.0418 57.0952 56.437 56.2796Z" fill="white"/>
</g>
<path d="M118.864 57.0316V70.7196L71.6404 70.7228V29.662H75.8935C75.8935 29.662 78.7975 30.3812 79.7594 32.3848C80.6219 34.1692 79.3334 36.3208 79.0353 36.7744C79.0105 36.8144 78.9962 36.8392 78.9857 36.8516C78.982 36.8516 78.982 36.8576 78.982 36.8608H78.9751C78.3647 37.7808 78.0132 38.852 78.0132 39.9912C78.0132 43.4332 81.219 46.2272 85.1809 46.2272C89.1429 46.2272 92.3523 43.4336 92.3523 39.9912C92.3523 38.8488 91.9972 37.7808 91.3831 36.8608C91.3831 36.8576 91.3794 36.8516 91.3794 36.8484C91.3689 36.8392 91.3477 36.8144 91.3298 36.7744C91.0317 36.3208 89.7391 34.1688 90.5984 32.3848C91.5676 30.3812 94.4679 29.662 94.4679 29.662H118.861L118.864 40.8804C118.864 40.8804 118.034 43.4024 115.73 44.2452C113.681 44.9952 111.203 43.8688 110.681 43.6156C110.639 43.594 110.607 43.5756 110.593 43.5724C110.593 43.5664 110.589 43.5664 110.582 43.5632C109.524 43.026 108.3 42.7236 106.982 42.7236C103.028 42.7236 99.8145 45.5144 99.8145 48.9596C99.8145 52.4016 103.027 55.1924 106.989 55.1924C108.299 55.1924 109.524 54.8868 110.582 54.3528C110.589 54.3468 110.592 54.3468 110.596 54.3468C110.614 54.3408 110.639 54.322 110.681 54.3004C111.203 54.044 113.681 52.9172 115.729 53.6708C118.033 54.5096 118.864 57.0316 118.864 57.0316Z" fill="#407BFF"/>
<g opacity="0.7">
<path d="M118.864 57.0316V70.7196L71.6404 70.7228V29.662H75.8935C75.8935 29.662 78.7975 30.3812 79.7594 32.3848C80.6219 34.1692 79.3334 36.3208 79.0353 36.7744C79.0105 36.8144 78.9962 36.8392 78.9857 36.8516C78.982 36.8516 78.982 36.8576 78.982 36.8608H78.9751C78.3647 37.7808 78.0132 38.852 78.0132 39.9912C78.0132 43.4332 81.219 46.2272 85.1809 46.2272C89.1429 46.2272 92.3523 43.4336 92.3523 39.9912C92.3523 38.8488 91.9972 37.7808 91.3831 36.8608C91.3831 36.8576 91.3794 36.8516 91.3794 36.8484C91.3689 36.8392 91.3477 36.8144 91.3298 36.7744C91.0317 36.3208 89.7391 34.1688 90.5984 32.3848C91.5676 30.3812 94.4679 29.662 94.4679 29.662H118.861L118.864 40.8804C118.864 40.8804 118.034 43.4024 115.73 44.2452C113.681 44.9952 111.203 43.8688 110.681 43.6156C110.639 43.594 110.607 43.5756 110.593 43.5724C110.593 43.5664 110.589 43.5664 110.582 43.5632C109.524 43.026 108.3 42.7236 106.982 42.7236C103.028 42.7236 99.8145 45.5144 99.8145 48.9596C99.8145 52.4016 103.027 55.1924 106.989 55.1924C108.299 55.1924 109.524 54.8868 110.582 54.3528C110.589 54.3468 110.592 54.3468 110.596 54.3468C110.614 54.3408 110.639 54.322 110.681 54.3004C111.203 54.044 113.681 52.9172 115.729 53.6708C118.033 54.5096 118.864 57.0316 118.864 57.0316Z" fill="white"/>
</g>
<path d="M166.041 29.6588V70.6796H159.747C159.271 70.5436 156.832 69.7812 155.963 67.9816C155.1 66.2004 156.392 64.0488 156.687 63.5948C156.711 63.5576 156.729 63.5332 156.74 63.5208C156.74 63.5176 156.744 63.5148 156.744 63.5116L156.747 63.5084C157.361 62.5916 157.713 61.5236 157.713 60.3844C157.713 56.9456 154.503 54.1548 150.549 54.1548C146.59 54.1548 143.385 56.9456 143.385 60.3844C143.385 61.5236 143.736 62.5916 144.35 63.5116C144.354 63.5148 144.354 63.5176 144.357 63.5208C144.368 63.5332 144.386 63.558 144.411 63.5948C144.705 64.0488 145.994 66.2004 145.135 67.9816C144.265 69.7812 141.826 70.544 141.35 70.6796H118.864V57.0072C118.864 57.0072 118.037 54.4852 115.736 53.6456C113.688 52.8984 111.214 54.0192 110.692 54.2756C110.649 54.2972 110.621 54.3128 110.607 54.322C110.603 54.3252 110.599 54.3252 110.596 54.328C109.538 54.862 108.31 55.1676 107 55.1676C103.045 55.1676 99.8356 52.38 99.8356 48.938C99.8356 45.4992 103.045 42.7084 107 42.7084C108.31 42.7084 109.538 43.014 110.592 43.548L110.596 43.5512C110.6 43.5512 110.603 43.5544 110.607 43.5544C110.621 43.5636 110.649 43.5792 110.692 43.6008C111.214 43.8572 113.688 44.9808 115.736 44.2304C118.037 43.3908 118.864 40.8684 118.864 40.8684V29.6588H166.041Z" fill="#407BFF"/>
<path opacity="0.5" d="M166.041 29.6588V70.6796H159.747C159.271 70.5436 156.832 69.7812 155.963 67.9816C155.1 66.2004 156.392 64.0488 156.687 63.5948C156.711 63.5576 156.729 63.5332 156.74 63.5208C156.74 63.5176 156.744 63.5148 156.744 63.5116L156.747 63.5084C157.361 62.5916 157.713 61.5236 157.713 60.3844C157.713 56.9456 154.503 54.1548 150.549 54.1548C146.59 54.1548 143.385 56.9456 143.385 60.3844C143.385 61.5236 143.736 62.5916 144.35 63.5116C144.354 63.5148 144.354 63.5176 144.357 63.5208C144.368 63.5332 144.386 63.558 144.411 63.5948C144.705 64.0488 145.994 66.2004 145.135 67.9816C144.265 69.7812 141.826 70.544 141.35 70.6796H118.864V57.0072C118.864 57.0072 118.037 54.4852 115.736 53.6456C113.688 52.8984 111.214 54.0192 110.692 54.2756C110.649 54.2972 110.621 54.3128 110.607 54.322C110.603 54.3252 110.599 54.3252 110.596 54.328C109.538 54.862 108.31 55.1676 107 55.1676C103.045 55.1676 99.8356 52.38 99.8356 48.938C99.8356 45.4992 103.045 42.7084 107 42.7084C108.31 42.7084 109.538 43.014 110.592 43.548L110.596 43.5512C110.6 43.5512 110.603 43.5544 110.607 43.5544C110.621 43.5636 110.649 43.5792 110.692 43.6008C111.214 43.8572 113.688 44.9808 115.736 44.2304C118.037 43.3908 118.864 40.8684 118.864 40.8684V29.6588H166.041Z" fill="white"/>
<path d="M133.308 75.1152L129.795 82.4272C129.205 83.6376 128.604 84.8408 127.994 86.0192C127.69 86.6064 127.375 87.1868 127.06 87.7456C126.745 88.3044 126.422 88.8528 126.115 89.3012C126.02 89.4472 125.91 89.5896 125.845 89.668L125.84 89.6716L125.386 89.8604L124.886 90.056L123.863 90.444L119.65 91.996C116.821 93.0392 113.988 94.114 111.184 95.2496L112.175 97.9336C115.233 97.428 118.254 96.8336 121.267 96.168C122.769 95.8228 124.272 95.4844 125.782 95.0892L126.929 94.7864L127.51 94.6264L128.128 94.4412L128.362 94.3664L128.468 94.3272L128.89 94.1672C128.967 94.1352 129.021 94.1172 129.111 94.078C129.201 94.0316 129.287 93.9888 129.369 93.9392C129.455 93.8928 129.541 93.8396 129.59 93.8076C129.84 93.6404 130.004 93.5084 130.151 93.3804C130.335 93.2168 130.487 93.0672 130.618 92.9284C130.868 92.6684 131.048 92.4444 131.232 92.22C131.543 91.8284 131.813 91.4512 132.067 91.0844C132.255 90.8172 132.427 90.5576 132.599 90.2976C133 89.6712 133.377 89.0516 133.741 88.4356C134.474 87.2004 135.142 85.9616 135.797 84.7224C137.094 82.2376 138.302 79.76 139.403 77.2004L133.308 75.1152ZM126.033 89.5896L126.008 89.604L125.992 89.6112L126.033 89.5864C126.045 89.5792 126.057 89.572 126.069 89.5684C126.057 89.5752 126.045 89.5824 126.033 89.5896Z" fill="#263238"/>
<path d="M111.957 95.5485C111.957 95.5485 111.109 94.7597 110.083 94.7397C109.057 94.7197 108.243 94.4665 107.479 94.4977C106.715 94.5289 107.527 95.0833 108.028 95.3025C108.529 95.5213 109.094 95.7741 108.843 96.0745C108.594 96.3749 105.25 97.6865 104.958 98.1377C104.666 98.5885 105.283 98.5233 105.283 98.5233C105.283 98.5233 104.536 98.8221 104.548 99.1737C104.56 99.5249 105.095 99.4597 105.095 99.4597C105.095 99.4597 104.601 99.6757 104.817 99.9609C105.031 100.246 107.912 99.5609 108.062 99.5909C108.062 99.5909 106.355 99.6765 106.28 100.111C106.204 100.546 107.309 100.403 108.194 100.305C109.078 100.208 109.977 99.8589 110.592 99.2753C111.207 98.6917 112.591 97.9929 112.43 97.0893C112.267 96.1853 111.957 95.5485 111.957 95.5485Z" fill="#CE7A63"/>
<g opacity="0.2">
<path d="M105.237 99.4833C106.093 99.1465 106.961 98.8349 107.835 98.5533C107.927 98.7513 108.036 98.9393 108.16 99.1245C108.225 99.2145 108.356 99.0977 108.297 99.0077C107.921 98.4521 107.691 97.8169 107.614 97.1329C107.601 97.0221 107.433 97.0589 107.446 97.1697C107.466 97.3409 107.493 97.5041 107.533 97.6673C107.518 97.6597 107.501 97.6601 107.484 97.6653C106.782 97.8397 106.105 98.0897 105.451 98.4145C105.353 98.4657 105.418 98.6213 105.522 98.5701C106.162 98.2525 106.824 98.0057 107.509 97.8361C107.535 97.8285 107.552 97.8133 107.564 97.7929C107.615 98.0013 107.684 98.2049 107.767 98.4005C106.893 98.6821 106.028 98.9913 105.169 99.3305C105.065 99.3713 105.133 99.5245 105.237 99.4833Z" fill="black"/>
</g>
<g opacity="0.2">
<path d="M108.517 97.7613C109.18 96.9805 110.181 96.6877 111.108 96.9849C111.212 97.0193 111.277 96.8553 111.173 96.8209C110.168 96.4969 109.097 96.8253 108.38 97.6645C108.308 97.7529 108.445 97.8449 108.517 97.7613Z" fill="black"/>
</g>
<path opacity="0.2" d="M141.217 76.0152C141.217 76.166 141.076 76.288 140.903 76.288C140.73 76.288 140.589 76.1656 140.589 76.0152C140.589 75.8644 140.73 75.7424 140.903 75.7424C141.076 75.742 141.217 75.8644 141.217 76.0152Z" fill="black"/>
<path opacity="0.2" d="M141.217 77.8025C141.217 77.9533 141.076 78.0753 140.903 78.0753C140.73 78.0753 140.589 77.9529 140.589 77.8025C140.589 77.6517 140.73 77.5297 140.903 77.5297C141.076 77.5297 141.217 77.6517 141.217 77.8025Z" fill="black"/>
<path opacity="0.2" d="M141.217 79.5901C141.217 79.7409 141.076 79.8629 140.903 79.8629C140.73 79.8629 140.589 79.7409 140.589 79.5901C140.589 79.4393 140.73 79.3173 140.903 79.3173C141.076 79.3169 141.217 79.4393 141.217 79.5901Z" fill="black"/>
<path d="M133.538 166.745L132.365 170.946H129.821L129.705 166.745H133.538Z" fill="#FF8B7B"/>
<path d="M122.433 173.918C122.571 172.549 123.263 172.14 124.116 172.094C125.005 172.046 128.175 171.122 128.175 171.122C128.175 171.122 128.838 170.253 129.421 170.076C130.005 169.9 130.57 170.416 130.57 170.416L132.167 170.247C132.167 170.247 132.646 169.622 132.975 170.17C133.486 171.018 133.424 173.367 133.377 173.918H122.433V173.918Z" fill="#263238"/>
<path d="M122.64 173.56C123.303 173.557 123.962 173.555 124.624 173.552C127.518 173.54 130.41 173.525 133.303 173.513C133.414 173.513 133.391 173.366 133.281 173.368C133.087 173.37 132.889 173.37 132.693 173.372C132.693 173.366 132.688 173.358 132.684 173.352C132.147 172.563 132.505 171.762 133.275 171.363C133.366 171.319 133.259 171.19 133.172 171.237C132.338 171.67 131.976 172.527 132.518 173.371C132.109 173.374 131.703 173.376 131.294 173.376C128.404 173.388 125.511 173.404 122.618 173.416C122.508 173.415 122.53 173.562 122.64 173.56Z" fill="#407BFF"/>
<path d="M144.063 111.713C143.546 115.946 142.528 121.423 140.686 128.471C140.151 130.519 139.546 132.701 138.862 135.023C140.734 148.471 133.406 167.899 133.406 167.899L129.48 167.822C129.48 167.822 128.988 146.111 129.45 134.745C130.206 116.122 132.815 98.3816 132.815 98.3816L143.507 98.3452C143.507 98.3452 145.353 101.145 144.063 111.713Z" fill="#407BFF"/>
<path opacity="0.2" d="M144.063 111.713C143.546 115.946 142.528 121.423 140.686 128.471C138.436 121.023 142.506 105.126 142.506 105.126L144.063 111.713Z" fill="black"/>
<path d="M129.03 168.626L128.905 167.164H134.142L133.846 168.626H129.03Z" fill="#263238"/>
<path d="M149.814 166.745L148.64 170.946H146.096L145.98 166.745H149.814Z" fill="#FF8B7B"/>
<path d="M138.708 173.918C138.846 172.549 139.538 172.14 140.392 172.094C141.28 172.046 144.451 171.122 144.451 171.122C144.451 171.122 145.113 170.253 145.697 170.076C146.28 169.9 146.845 170.416 146.845 170.416L148.442 170.247C148.442 170.247 148.921 169.622 149.25 170.17C149.76 171.018 149.699 173.367 149.652 173.918H138.708V173.918Z" fill="#263238"/>
<path d="M138.916 173.56C139.578 173.557 140.237 173.555 140.9 173.552C143.793 173.54 146.686 173.525 149.579 173.513C149.69 173.513 149.667 173.366 149.557 173.368C149.363 173.37 149.164 173.37 148.97 173.372C148.969 173.366 148.964 173.358 148.96 173.352C148.423 172.563 148.781 171.762 149.552 171.363C149.642 171.319 149.535 171.19 149.448 171.237C148.614 171.67 148.252 172.527 148.794 173.371C148.385 173.374 147.979 173.376 147.57 173.376C144.68 173.388 141.787 173.404 138.894 173.416C138.783 173.415 138.805 173.562 138.916 173.56Z" fill="#407BFF"/>
<path d="M140.381 99.0984C140.381 99.0984 142.381 124.806 143.034 135.024C143.78 146.696 145.461 166.593 145.688 167.895H149.745C149.28 168.289 154.953 150.43 152.666 135.89C154.809 121.982 157.417 111.8 154.055 98.7052L140.381 99.0984Z" fill="#407BFF"/>
<path d="M145.21 168.626L145.085 167.164H150.322L150.026 168.626H145.21Z" fill="#263238"/>
<path d="M155.274 99.7192C146.748 102.168 132.419 101.363 132.419 99.6656C132.419 94.8832 134.366 89.5056 133.844 86.3896C129.814 83.9372 132.963 81.7216 132.612 78.0868C132.34 75.314 134.599 72.8276 137.753 72.3544C138.481 72.2476 139.235 72.1408 139.976 72.0568C140.13 72.0376 140.279 72.0224 140.428 72.0072C142.411 71.7936 144.296 71.7516 146.388 71.7632C147.116 71.7632 147.871 71.7748 148.66 71.7824C149.445 71.794 150.213 71.8244 150.941 71.87C153.651 72.034 155.612 74.208 155.134 76.542C154.436 79.986 154.042 83.2392 153.893 86.1948C153.858 86.8624 153.831 87.5068 153.822 88.14C153.778 90.6152 153.91 92.85 154.169 94.776C154.173 94.818 154.182 94.86 154.186 94.898C154.309 95.7752 154.458 96.5836 154.634 97.3236C154.686 97.5564 154.743 97.7776 154.805 97.9948C154.928 98.4568 155.134 99.2616 155.274 99.7192Z" fill="#263238"/>
<path opacity="0.2" d="M149.873 77.5972L154.126 83.1684C154.192 82.4992 154.27 81.8156 154.364 81.1248V81.1104L149.873 77.5972Z" fill="black"/>
<path d="M139.975 78.1232C139.975 78.2544 139.853 78.3608 139.702 78.3608C139.551 78.3608 139.429 78.2544 139.429 78.1232C139.429 77.992 139.551 77.8856 139.702 77.8856C139.853 77.8856 139.975 77.992 139.975 78.1232Z" fill="#407BFF"/>
<path d="M139.81 80.2604C139.81 80.3916 139.687 80.498 139.536 80.498C139.386 80.498 139.263 80.3916 139.263 80.2604C139.263 80.1292 139.386 80.0228 139.536 80.0228C139.687 80.0228 139.81 80.1292 139.81 80.2604Z" fill="#407BFF"/>
<path d="M139.536 82.6732C139.687 82.6732 139.809 82.5668 139.809 82.4356C139.809 82.3044 139.687 82.198 139.536 82.198C139.385 82.198 139.263 82.3044 139.263 82.4356C139.263 82.5668 139.385 82.6732 139.536 82.6732Z" fill="#407BFF"/>
<path d="M146.388 71.7632C144.369 74.8484 139.619 76.696 139.619 76.696C138.978 75.3136 139.179 73.0968 139.976 72.0572C140.13 72.038 140.279 72.0228 140.428 72.0076C142.41 71.794 144.296 71.752 146.388 71.7632Z" fill="#FF8B7B"/>
<path d="M143.521 59.6584C143.521 59.6584 147.16 62.6844 145.482 66.1128C144.161 68.8136 141.548 69.5964 141.548 69.5964L143.521 59.6584Z" fill="#263238"/>
<path d="M137.694 58.9052C137.694 58.9052 134.12 58.3828 133.353 61.8092C132.586 65.2356 132.779 66.4816 133.82 67.332C135.189 68.4508 137.367 67.2328 137.367 67.2328L137.694 58.9052Z" fill="#263238"/>
<path d="M139.922 72.9752C139.905 73.0212 139.882 73.068 139.847 73.116C139.161 74.058 139.907 74.9184 141.089 74.8444C141.204 74.8372 141.317 74.8236 141.427 74.8044C141.852 74.7304 142.245 74.5408 142.539 74.264C142.541 74.2628 142.542 74.2616 142.543 74.2604C143.959 72.924 145.482 71.9112 145.482 71.9112C143.706 71.0836 143.057 68.144 142.893 66.3072L140.135 69.36L139.619 70.0264C139.869 70.4108 140.092 70.8096 140.217 71.2052C140.421 71.8184 140.4 72.428 139.922 72.9752Z" fill="#FF8B7B"/>
<path d="M145.209 71.7616C145.209 71.7616 146.861 71.388 148.161 71.7616L145.482 75.764C144.072 74.87 142.456 76.0304 139.619 76.696C139.619 76.696 142.998 75.2184 145.209 71.7616Z" fill="#407BFF"/>
<path d="M145.209 71.7616C145.209 71.7616 146.861 71.388 148.161 71.7616L145.482 75.764C144.072 74.87 142.456 76.0304 139.619 76.696C139.619 76.696 142.998 75.2184 145.209 71.7616Z" fill="#407BFF"/>
<path d="M140.337 71.9448C140.337 71.9448 138.701 71.684 137.752 72.3544C137.752 72.3544 137.205 73.9468 136.986 75.504C136.986 75.504 138.561 74.8208 139.619 76.696C139.619 76.696 139.083 73.7088 140.337 71.9448Z" fill="#407BFF"/>
<path d="M140.337 71.9448C140.337 71.9448 138.701 71.684 137.752 72.3544C137.752 72.3544 137.205 73.9468 136.986 75.504C136.986 75.504 138.561 74.8208 139.619 76.696C139.619 76.696 139.083 73.7088 140.337 71.9448Z" fill="#407BFF"/>
<g opacity="0.2">
<path d="M140.217 71.2048C140.092 70.8092 139.869 70.4104 139.619 70.026L140.135 69.3596L141.871 69.394C141.871 69.394 141.416 70.6124 140.217 71.2048Z" fill="black"/>
</g>
<path d="M143.397 63.034C143.673 66.0516 143.863 67.324 142.407 69.068C140.216 71.6912 135.974 71.312 134.687 68.4236C133.527 65.8232 133.27 61.3252 136.381 59.7312C139.446 58.1608 143.121 60.0164 143.397 63.034Z" fill="#FF8B7B"/>
<path d="M142.635 65.0096C144.374 64.6072 143.691 63.0444 143.691 63.0444L141.128 63.3896C141.128 63.3896 140.894 65.4084 142.635 65.0096Z" fill="#263238"/>
<path d="M135.253 60.0144C135.253 60.0144 135.654 61.68 138.008 61.7692C140.362 61.8584 140.156 64.884 142.792 64.4056C145.429 63.9276 144.647 60.4148 143.521 59.6584C142.395 58.902 137.871 57.2584 135.253 60.0144Z" fill="#263238"/>
<path d="M140.745 58.4776C140.745 58.4776 142.458 54.0748 146.433 55.8176C150.409 57.56 146.918 62.0852 144.397 61.4948C141.876 60.9044 140.745 58.4776 140.745 58.4776Z" fill="#263238"/>
<path d="M136.133 67.6852C136.133 67.6852 137.435 67.0404 138.195 66.3804C138.195 66.3804 138.443 67.5252 137.557 67.9476C136.672 68.3692 136.133 67.6852 136.133 67.6852Z" fill="white"/>
<path d="M137.686 64.38C137.725 64.6236 137.609 64.8392 137.426 64.8616C137.243 64.884 137.063 64.7044 137.023 64.4608C136.983 64.2172 137.1 64.0016 137.283 63.9792C137.466 63.9572 137.647 64.1364 137.686 64.38Z" fill="#263238"/>
<path d="M134.839 64.7824C134.879 65.026 134.762 65.2416 134.579 65.264C134.396 65.2864 134.216 65.1068 134.176 64.8632C134.136 64.6196 134.253 64.404 134.436 64.3816C134.62 64.3596 134.8 64.5388 134.839 64.7824Z" fill="#263238"/>
<path d="M134.52 64.3856L133.82 64.2992C133.82 64.2992 134.239 64.714 134.52 64.3856Z" fill="#263238"/>
<path d="M135.885 64.7324C135.885 64.7324 135.506 65.4372 135.073 66.0616C134.932 66.2648 135.037 66.5316 135.297 66.6052C135.743 66.7316 136.21 66.7564 136.21 66.7564L135.885 64.7324Z" fill="#FF5652"/>
<path d="M144.956 64.9568C144.741 65.5672 144.26 65.9928 143.771 66.1784C143.037 66.4576 142.538 65.7748 142.634 65.008C142.719 64.318 143.205 63.3412 143.995 63.3924C144.774 63.4428 145.202 64.2592 144.956 64.9568Z" fill="#FF8B7B"/>
<path d="M138.453 63.4052C138.409 63.4052 138.365 63.3896 138.333 63.36C137.824 62.8912 137.222 62.9796 137.215 62.9804C137.126 62.994 137.038 62.9424 137.022 62.864C137.006 62.7852 137.065 62.7104 137.155 62.696C137.187 62.6912 137.943 62.5796 138.575 63.1616C138.638 63.2196 138.635 63.3108 138.568 63.366C138.535 63.3924 138.495 63.4052 138.453 63.4052Z" fill="#263238"/>
<path d="M133.533 63.8432C133.492 63.846 133.45 63.8364 133.414 63.812C133.343 63.762 133.332 63.6708 133.389 63.6088C133.965 62.9864 134.729 63.0448 134.762 63.0476C134.854 63.0556 134.92 63.1264 134.911 63.206C134.901 63.2852 134.82 63.3428 134.729 63.3356C134.7 63.3332 134.106 63.2952 133.648 63.79C133.619 63.8216 133.577 63.84 133.533 63.8432Z" fill="#263238"/>
<path d="M137.367 63.9832L136.667 63.8968C136.667 63.8968 137.086 64.3116 137.367 63.9832Z" fill="#263238"/>
<path d="M158.65 90.6516C157.221 92.6452 155.629 94.6496 154.069 96.6252L156.48 98.512C158.642 96.8316 160.635 95.0732 162.543 93.1436C163.502 92.1752 164.414 91.168 165.286 90.0004C165.503 89.7048 165.716 89.3988 165.921 89.0572C166.125 88.7156 166.326 88.3488 166.506 87.886C166.596 87.658 166.678 87.3948 166.739 87.0744C166.797 86.7576 166.85 86.3732 166.752 85.832C166.65 85.3372 166.506 85.0416 166.379 84.7748C166.252 84.5112 166.125 84.3156 166.003 84.1164C165.511 83.3652 165.032 82.824 164.554 82.2796C164.071 81.742 163.588 81.24 163.1 80.7524C162.11 79.7912 161.119 78.8692 160.092 77.9864C158.049 76.2136 155.965 74.5476 153.726 72.9528L149.472 77.2852L155.596 82.0768C156.599 82.8848 157.607 83.6752 158.544 84.4904C159.019 84.8892 159.482 85.2912 159.908 85.69C160.329 86.078 160.726 86.4912 160.972 86.7792C160.976 86.7864 160.984 86.79 160.989 86.7968C160.96 86.8644 160.931 86.9392 160.898 87.014C160.804 87.224 160.69 87.4556 160.567 87.694C160.05 88.6472 159.354 89.6512 158.65 90.6516Z" fill="#263238"/>
<path d="M154.229 95.742C154.229 95.742 151.509 96.6192 151.09 97.08C150.67 97.5408 153.341 100.155 154.377 100.521C155.414 100.887 154.88 99.8016 154.88 99.8016C154.88 99.8016 156.218 100.073 156.843 99.1896C157.468 98.3064 156.731 95.8896 154.229 95.742Z" fill="#FF8B7B"/>
<path d="M88.9176 164.77V170.955L91.7903 171.154L93.197 165.364L88.9176 164.77Z" fill="#FFC3BD"/>
<path d="M90.9559 170.572C90.9559 170.572 91.8588 169.064 92.392 169.225C92.9251 169.386 93.1422 171.215 93.1422 171.215C93.1422 171.215 96.0375 172.057 96.8462 172.101C97.6549 172.146 98.3099 172.544 98.4138 173.918H88.5275C88.5275 173.918 88.5942 170.816 88.6122 170.284C88.6301 169.753 89.5004 170.417 89.5004 170.417L90.9559 170.572Z" fill="#263238"/>
<path d="M88.6365 171.463C89.3279 171.83 89.6527 172.559 89.1738 173.276C89.1209 173.355 89.246 173.425 89.2994 173.345C89.8238 172.56 89.5004 171.752 88.7331 171.346C88.6517 171.302 88.5551 171.42 88.6365 171.463Z" fill="white"/>
<path d="M88.6218 173.424C91.207 173.448 93.7918 173.471 96.377 173.494C96.9782 173.5 97.579 173.505 98.1797 173.511C98.2805 173.512 98.3007 173.375 98.1999 173.374C95.6152 173.351 93.03 173.328 90.4448 173.304C89.8436 173.298 89.2428 173.293 88.6416 173.288C88.5413 173.286 88.5211 173.423 88.6218 173.424Z" fill="white"/>
<path d="M92.714 171.756C93.1201 171.335 93.7112 171.217 94.1561 171.534C94.2297 171.586 94.3253 171.468 94.2527 171.416C93.743 171.053 93.0493 171.209 92.5884 171.686C92.5194 171.758 92.6454 171.826 92.714 171.756Z" fill="white"/>
<path d="M93.5328 171.979C93.939 171.558 94.5301 171.44 94.9749 171.757C95.0485 171.81 95.1442 171.691 95.0715 171.639C94.5618 171.276 93.8681 171.433 93.4072 171.91C93.3382 171.982 93.4643 172.05 93.5328 171.979Z" fill="white"/>
<path d="M94.3797 172.202C94.7859 171.782 95.377 171.664 95.8218 171.98C95.8954 172.033 95.9911 171.914 95.9184 171.862C95.4087 171.499 94.715 171.656 94.2541 172.133C94.1851 172.205 94.3111 172.274 94.3797 172.202Z" fill="white"/>
<path d="M87.1931 103.477C87.2749 104.58 87.1006 107.969 87.2726 109.788C87.596 113.256 88.0298 117.752 88.3739 122.255C88.775 127.47 89.0616 132.693 88.9185 136.317C88.5501 145.622 88.6319 166.711 88.6319 166.711H93.2743C93.2743 166.711 98.7276 145.75 99.7469 136.317C100.598 128.496 100.147 108.347 100.004 103.477H87.1931Z" fill="#263238"/>
<path opacity="0.2" d="M87.1931 103.477C87.2749 104.58 87.1006 107.969 87.2726 109.788C87.596 113.256 88.0298 117.752 88.3739 122.255C88.775 127.47 89.0616 132.693 88.9185 136.317C88.5501 145.622 88.6319 166.711 88.6319 166.711H93.2743C93.2743 166.711 98.7276 145.75 99.7469 136.317C100.598 128.496 100.147 108.347 100.004 103.477H87.1931Z" fill="white"/>
<path opacity="0.2" d="M87.2726 109.788C87.596 113.256 88.0298 117.752 88.3739 122.255C90.6582 116.374 88.5376 107.489 88.5376 107.489L87.2726 109.788Z" fill="black"/>
<path d="M88.2281 166.855H93.6768L94.0761 165.344L88.0869 165.28L88.2281 166.855Z" fill="#407BFF"/>
<path d="M65.1848 163.617L64.0992 169.729L66.9038 170.307L69.3101 164.772L65.1848 163.617Z" fill="#FFC3BD"/>
<path d="M66.1811 169.621C66.1811 169.621 67.3385 168.25 67.8371 168.48C68.3358 168.71 68.2291 170.546 68.2291 170.546C68.2291 170.546 70.9426 171.763 71.7343 171.914C72.5259 172.065 73.1032 172.546 72.9643 173.918L63.1939 172.605C63.1939 172.605 63.8043 169.548 63.9156 169.026C64.0265 168.502 64.7703 169.275 64.7703 169.275L66.1811 169.621Z" fill="#263238"/>
<path d="M63.7326 170.194C64.3517 170.648 64.544 171.412 63.9456 172.057C63.8793 172.128 63.9907 172.214 64.0574 172.142C64.7133 171.436 64.5353 170.594 63.849 170.09C63.7758 170.037 63.6594 170.14 63.7326 170.194Z" fill="white"/>
<path d="M63.3738 172.13C65.9245 172.496 68.4747 172.863 71.0254 173.229C71.6184 173.314 72.2113 173.399 72.8043 173.484C72.9036 173.499 72.9478 173.366 72.848 173.352C70.2973 172.986 67.747 172.619 65.1963 172.253C64.6034 172.168 64.0104 172.083 63.4175 171.998C63.3181 171.984 63.2744 172.116 63.3738 172.13Z" fill="white"/>
<path d="M67.7107 171.024C68.1858 170.662 68.7907 170.624 69.1748 170.996C69.2383 171.058 69.3538 170.954 69.2912 170.893C68.8515 170.466 68.138 170.529 67.5989 170.94C67.5179 171.001 67.6306 171.086 67.7107 171.024Z" fill="white"/>
<path d="M68.4807 171.354C68.9559 170.992 69.5608 170.954 69.9449 171.326C70.0084 171.388 70.1238 171.284 70.0608 171.223C69.621 170.796 68.9076 170.859 68.3685 171.27C68.288 171.331 68.4007 171.415 68.4807 171.354Z" fill="white"/>
<path d="M69.2783 171.687C69.7535 171.325 70.3584 171.287 70.7425 171.659C70.806 171.721 70.9214 171.616 70.8584 171.556C70.4186 171.129 69.7052 171.192 69.1661 171.602C69.0856 171.664 69.1983 171.748 69.2783 171.687Z" fill="white"/>
<path d="M81.5355 137.132C78.6665 146.271 69.0212 166.039 69.0212 166.039L64.4465 165.346C64.4465 165.346 69.2112 144.779 71.4072 135.668C73.3893 127.446 75.5651 108.56 76.2685 102.937L91.6228 104.139C90.8045 108.956 83.916 129.551 81.5355 137.132Z" fill="#263238"/>
<path opacity="0.2" d="M81.5355 137.132C78.6665 146.271 69.0212 166.039 69.0212 166.039L64.4465 165.346C64.4465 165.346 69.2112 144.779 71.4072 135.668C73.3893 127.446 75.5651 108.56 76.2685 102.937L91.6228 104.139C90.8045 108.956 83.916 129.551 81.5355 137.132Z" fill="white"/>
<path d="M64.0214 165.429L69.3887 166.241L70.081 164.812L64.0992 163.863L64.0214 165.429Z" fill="#407BFF"/>
<path d="M102.326 75.9332C102.068 77.8628 101.646 81.9388 101.233 86.5348C101.081 88.272 100.926 90.0912 100.786 91.8924C100.619 93.9748 100.483 95.9756 100.377 97.7948C100.336 98.5316 100.299 99.24 100.267 99.9092C100.119 103.224 100.119 105.644 100.332 106.374C88.4474 110.557 75.5394 105.15 75.5394 105.15C76.3048 99.7384 77.0744 93.5904 77.0744 93.5904C77.4346 91.2872 77.7869 88.9588 78.0979 86.766C78.1223 86.588 78.1512 86.41 78.1715 86.2356C78.3228 85.1568 78.4622 84.1176 78.5892 83.1312C78.6057 83.01 78.6218 82.8892 78.6384 82.768C78.884 80.828 79.0722 79.112 79.1872 77.738C79.4001 75.1536 81.2056 72.7468 83.8953 72.3164C84.7099 72.1848 85.5904 72.0672 86.4989 71.978C86.716 71.9532 86.9368 71.9352 87.158 71.914C89.6756 71.6756 92.4227 71.5688 94.8994 71.64C95.0222 71.64 95.1492 71.6436 95.272 71.6472C95.3332 71.6508 95.4072 71.6508 95.4684 71.6544C95.5747 71.658 95.6855 71.6616 95.7918 71.6688C96.8889 71.7116 97.9331 71.7932 98.8581 71.9144C100.954 72.1812 102.608 73.8292 102.326 75.9332Z" fill="#407BFF"/>
<path opacity="0.3" d="M94.2802 77.2796C94.2871 77.4612 94.1234 77.6136 93.9145 77.6196C93.7057 77.6256 93.5304 77.4832 93.5235 77.3016C93.5166 77.12 93.6804 76.9676 93.8892 76.9616C94.0981 76.9552 94.2733 77.0976 94.2802 77.2796Z" fill="white"/>
<path opacity="0.3" d="M94.3589 79.3272C94.3658 79.5088 94.202 79.6612 93.9932 79.6672C93.7844 79.6732 93.6091 79.5308 93.6022 79.3492C93.5953 79.1676 93.7591 79.0152 93.9679 79.0092C94.1767 79.0028 94.352 79.1452 94.3589 79.3272Z" fill="white"/>
<path opacity="0.3" d="M94.438 81.3744C94.4449 81.556 94.2811 81.7084 94.0723 81.7144C93.8635 81.7204 93.6882 81.578 93.6813 81.3964C93.6744 81.2148 93.8382 81.0624 94.047 81.0564C94.2558 81.0504 94.4306 81.1928 94.438 81.3744Z" fill="white"/>
<path opacity="0.2" d="M87.193 81.5224C87.193 81.5224 87.6406 90.4376 88.4461 91.1216C89.2515 91.8056 98.8687 95.1744 98.8687 95.1744C93.357 94.62 88.4231 93.866 85.9947 92.2464C85.0963 90.092 86.3756 85.5544 87.193 81.5224Z" fill="black"/>
<path opacity="0.2" d="M100.377 97.7944C100.336 98.5312 100.299 99.2396 100.266 99.9088C96.8682 99.7164 84.243 99.5652 80.7751 95.2276C78.7451 92.6884 79.7391 82.3336 79.7391 82.3336C82.2691 89.5888 88.9506 95.1848 97.3838 97.1108L100.377 97.7944Z" fill="black"/>
<path d="M119.172 85.9652C117.69 85.8868 116.208 85.8156 114.78 85.7016C114.075 85.6412 113.363 85.5772 112.761 85.4952C112.667 85.4844 112.569 85.4668 112.479 85.4524C112.475 85.4416 112.43 85.4024 112.36 85.3456C112.049 85.0892 111.578 84.6584 111.148 84.2244C110.706 83.7828 110.26 83.306 109.814 82.8216C108.917 81.8568 108.033 80.8424 107.145 79.8276C105.376 77.7912 103.595 75.698 101.802 73.6832L95.8332 77.4352C97.5895 79.6532 99.4442 81.7356 101.434 83.7968C102.429 84.8256 103.456 85.8332 104.541 86.8404C105.093 87.3388 105.655 87.8336 106.26 88.3356C106.879 88.8376 107.48 89.3324 108.365 89.8808C108.586 90.016 108.848 90.1656 109.171 90.3224L109.446 90.4504C109.544 90.4932 109.671 90.5392 109.785 90.582C109.896 90.6248 110.076 90.678 110.223 90.7208C110.318 90.7456 110.334 90.7456 110.387 90.7564L110.527 90.7848C111.263 90.9236 111.697 90.9344 112.16 90.9592C113.057 90.9984 113.851 90.9804 114.649 90.952C116.233 90.8916 117.765 90.792 119.291 90.6564C121.162 90.4928 123.021 90.2968 124.871 90.062L124.888 90.0548L125.387 89.8588L125.842 89.67L125.846 89.6664C125.911 89.588 126.022 89.4456 126.116 89.2996C126.423 88.8512 126.747 88.3028 127.062 87.744C127.311 87.3024 127.561 86.8468 127.803 86.384C124.92 86.2176 122.026 86.104 119.172 85.9652ZM112.164 85.3704C112.164 85.3704 112.168 85.3668 112.168 85.3704C112.172 85.3704 112.18 85.3704 112.192 85.374C112.25 85.3848 112.339 85.4168 112.368 85.4236C112.381 85.4272 112.401 85.4344 112.418 85.438C112.27 85.4096 112.164 85.3848 112.164 85.3704Z" fill="#407BFF"/>
<path opacity="0.2" d="M102.587 84.9648L101.552 78.7028L101.339 83.7008L102.587 84.9648Z" fill="black"/>
<path d="M95.5038 57.7656C93.7673 57.3336 91.885 57.5024 90.3385 58.3136C89.3288 58.8436 88.4741 59.6168 88.5744 60.7016C88.8094 63.2328 89.9277 67.4272 89.9277 67.4272L99.4856 63.024C99.4856 63.024 100.049 60.8624 98.7993 59.5712C97.8705 58.6128 96.7872 58.0852 95.5038 57.7656Z" fill="#263238"/>
<path d="M91.8151 57.754C91.8151 57.754 89.8762 57.6892 88.6273 58.9612C87.5863 60.0212 88.8706 62.7416 88.8706 62.7416L91.8151 57.754Z" fill="#263238"/>
<path d="M90.8477 58.076C90.8477 58.076 91.212 56.9588 95.1128 56.9616C98.9768 56.964 101.392 56.922 100.901 58.8768C100.25 61.4676 95.4826 60.5192 95.4826 60.5192L90.8477 58.076Z" fill="#263238"/>
<path d="M94.4532 70.3436L94.4536 70.3468C94.4472 70.358 94.4444 70.3652 94.438 70.3764L93.92 71.812C93.8681 72.1072 93.8483 72.4024 93.8598 72.6904C93.8681 72.9336 93.8998 73.1704 93.9463 73.3988C94.2908 73.8512 94.4132 74.8516 93.1072 74.8048C91.459 74.748 88.5215 72.6652 88.446 72.0292C89.3108 70.1008 90.0919 67.7056 90.0666 65.8296L91.8546 67.6724L94.4532 70.3436Z" fill="#FFC3BD"/>
<g opacity="0.2">
<path d="M94.438 70.3768L93.92 71.8124C92.9103 71.3624 91.8776 70.4376 91.6803 69.4736C91.5436 68.778 91.9337 68.148 92.2553 68.1256L94.438 70.3768Z" fill="black"/>
</g>
<path d="M98.7689 67.498C98.6553 67.8104 98.5297 68.1172 98.3968 68.4196C97.215 71.0892 93.357 71.1824 91.0694 69.0908C91.0662 69.0868 91.0667 69.0832 91.0625 69.0828C90.8597 68.8972 90.6683 68.6948 90.4926 68.4728C89.0634 66.674 89.5151 65.3528 89.9038 62.3276C90.2916 59.306 94.1188 57.5596 97.2008 59.2368C100.045 60.7844 99.9152 64.3776 98.7689 67.498Z" fill="#FFC3BD"/>
<path d="M94.5005 66.15C94.5005 66.15 95.4403 66.6348 96.7619 67.1456C96.7619 67.1456 96.0581 68.0496 94.9343 67.3892C94.219 66.9692 94.5005 66.15 94.5005 66.15Z" fill="white"/>
<path d="M97.4809 58.942C95.8681 57.9052 92.5368 57.5752 91.1149 58.9516C89.6935 60.328 89.8504 62.6096 89.8504 62.6096C89.8504 62.6096 89.8394 63.024 90.1522 63.28C90.1825 63.3024 90.2193 63.3428 90.2589 63.39L91.9816 63.5388C92.0736 62.9208 92.2764 61.7912 92.7512 61.7068C93.6403 61.5484 92.9674 60.722 93.1251 60.2288C93.638 58.626 98.6231 59.4312 99.3609 61.8004C99.3609 61.8004 99.0936 59.9788 97.4809 58.942Z" fill="#263238"/>
<path d="M88.0265 64.0996C88.124 64.9156 88.6457 65.616 89.2556 66.0324C90.1724 66.6584 91.0763 66.0388 91.1936 65.0836C91.2999 64.224 90.9503 62.862 89.8504 62.6092C88.7676 62.3604 87.9152 63.1672 88.0265 64.0996Z" fill="#FFC3BD"/>
<path d="M95.0691 63.892C95.0222 64.1244 95.1262 64.3348 95.301 64.3612C95.4758 64.3876 95.6552 64.2208 95.7021 63.988C95.7485 63.7556 95.645 63.5456 95.4702 63.5188C95.2954 63.4928 95.1156 63.6596 95.0691 63.892Z" fill="#263238"/>
<path d="M97.8963 64.3124C97.8494 64.5448 97.9533 64.7552 98.1281 64.7816C98.3029 64.808 98.4828 64.6412 98.5292 64.4084C98.5757 64.176 98.4722 63.9656 98.2969 63.9392C98.1226 63.9128 97.9432 64.0796 97.8963 64.3124Z" fill="#263238"/>
<path d="M99.0454 63.5512C98.9975 63.544 98.9557 63.5152 98.9386 63.4724C98.8614 63.282 98.7399 63.1528 98.578 63.0876C98.3117 62.9804 98.0104 63.0756 98.0072 63.0768C97.9372 63.1004 97.8554 63.07 97.8282 63.0072C97.8011 62.9448 97.8365 62.8748 97.9082 62.8512C97.9243 62.8456 98.3199 62.7176 98.6944 62.8688C98.9271 62.9624 99.0973 63.1384 99.1999 63.3924C99.2257 63.4552 99.188 63.5244 99.1153 63.5468C99.0923 63.5532 99.0679 63.5548 99.0454 63.5512Z" fill="#263238"/>
<path d="M94.4224 62.856C94.4003 62.8528 94.3791 62.8448 94.3602 62.8328C94.2931 62.7904 94.2784 62.7088 94.3267 62.6504C94.3382 62.6368 94.6091 62.3172 95.0521 62.2604C95.3267 62.2252 95.6013 62.2972 95.8681 62.4748C95.9344 62.5188 95.9473 62.6008 95.8967 62.6584C95.8461 62.716 95.7513 62.7268 95.6855 62.6828C95.4863 62.5504 95.289 62.4952 95.0981 62.5192C94.7816 62.5584 94.5723 62.802 94.5705 62.8044C94.535 62.846 94.4771 62.8644 94.4224 62.856Z" fill="#263238"/>
<path d="M96.9063 63.8528C96.9063 63.8528 97.1216 64.91 97.5471 65.6276C97.974 66.3476 96.4868 66.1508 96.4868 66.1508L96.9063 63.8528Z" fill="#ED847E"/>
<path d="M104.344 96.36L104.004 99.2292C100.569 99.2504 97.1999 99.0656 93.7733 98.6704C92.058 98.4748 90.3385 98.2112 88.5781 97.8232C87.6981 97.6308 86.8052 97.4068 85.8802 97.0936C85.4137 96.9336 84.9427 96.7588 84.4473 96.5384C83.956 96.3176 83.4403 96.058 82.8833 95.6732C82.7402 95.57 82.605 95.4776 82.4573 95.3528L82.2402 95.1712L82.0189 94.9612C81.8796 94.8296 81.7241 94.6444 81.5852 94.4772C81.4421 94.278 81.3027 94.0964 81.1799 93.8508C81.0529 93.6264 80.9467 93.3596 80.8648 93.0888L80.7585 92.7256C80.6891 92.4872 80.6523 92.2876 80.5948 92.0672C80.4108 91.2236 80.2916 90.4508 80.1895 89.6784C79.9931 88.1476 79.8905 86.656 79.8169 85.1716L79.7433 82.9536L79.735 80.7464C79.7557 79.2692 79.7884 77.8164 79.9071 76.3248L87.2721 76.556C87.2763 79.3792 87.1944 82.2556 87.1617 85.0712C87.1415 86.4808 87.1374 87.8872 87.1742 89.24C87.1949 89.9128 87.2275 90.582 87.2928 91.1696C87.3094 91.2908 87.3172 91.4332 87.3379 91.5436C87.5918 91.718 87.9888 91.9352 88.4024 92.1204C88.9999 92.3908 89.6798 92.6544 90.3799 92.8964C91.7962 93.384 93.3152 93.8076 94.8585 94.21C97.9451 95.0036 101.167 95.6908 104.344 96.36Z" fill="#407BFF"/>
<path d="M103.85 96.4256C103.85 96.4256 107.272 95.642 107.996 95.7716C108.805 95.9164 108.431 99.6244 107.384 100.132C106.337 100.64 103.732 98.9944 103.732 98.9944C103.128 97.7876 103.317 96.7988 103.85 96.4256Z" fill="#FFC3BD"/>
<path d="M103.85 96.4256C103.85 96.4256 104.643 95.6868 105.413 95.4504C106.184 95.214 106.936 94.8688 107.288 94.9876C107.639 95.1064 106.439 95.9068 106.439 95.9068L103.85 96.4256Z" fill="#FFC3BD"/>
<path d="M107.996 95.7716C107.996 95.7716 110.098 96.288 110.767 97.0424C111.436 97.7968 109.551 97.3412 109.551 97.3412C109.551 97.3412 111.744 98.0344 110.839 99.49C110.395 100.204 107.871 100.345 106.707 100.214C106.708 100.214 106.741 97.1164 107.996 95.7716Z" fill="#FFC3BD"/>
<path d="M88.9479 70.8268C88.9479 70.8268 87.5643 70.7832 86.5067 72.118L91.0442 76.7608C91.0442 76.7608 91.0101 75.0848 93.5006 74.7812C93.5006 74.7812 90.1398 72.6668 88.9479 70.8268Z" fill="#407BFF"/>
<path opacity="0.3" d="M88.9479 70.8268C88.9479 70.8268 87.5643 70.7832 86.5067 72.118L91.0442 76.7608C91.0442 76.7608 91.0101 75.0848 93.5006 74.7812C93.5006 74.7812 90.1398 72.6668 88.9479 70.8268Z" fill="white"/>
<path d="M93.5005 74.7816C93.5005 74.7816 93.789 72.1772 93.9891 71.622L94.2471 70.9064C94.2471 70.9064 96.031 70.9312 96.6419 71.7104L96.3999 75.6784C96.3999 75.6784 95.1381 74.8064 93.5005 74.7816Z" fill="#407BFF"/>
<path opacity="0.3" d="M93.5005 74.7816C93.5005 74.7816 93.789 72.1772 93.9891 71.622L94.2471 70.9064C94.2471 70.9064 96.031 70.9312 96.6419 71.7104L96.3999 75.6784C96.3999 75.6784 95.1381 74.8064 93.5005 74.7816Z" fill="white"/>
</svg>
