<svg width="30" height="20" viewBox="0 0 30 20" fill="none" xmlns="http://www.w3.org/2000/svg">
<path d="M15 2.66667C20.1682 2.66667 24.7773 5.50667 27.0273 10C24.7773 14.4933 20.1818 17.3333 15 17.3333C9.81818 17.3333 5.22273 14.4933 2.97273 10C5.22273 5.50667 9.83182 2.66667 15 2.66667ZM15 0C8.18182 0 2.35909 4.14667 0 10C2.35909 15.8533 8.18182 20 15 20C21.8182 20 27.6409 15.8533 30 10C27.6409 4.14667 21.8182 0 15 0ZM15 6.66667C16.8818 6.66667 18.4091 8.16 18.4091 10C18.4091 11.84 16.8818 13.3333 15 13.3333C13.1182 13.3333 11.5909 11.84 11.5909 10C11.5909 8.16 13.1182 6.66667 15 6.66667ZM15 4C11.6182 4 8.86364 6.69333 8.86364 10C8.86364 13.3067 11.6182 16 15 16C18.3818 16 21.1364 13.3067 21.1364 10C21.1364 6.69333 18.3818 4 15 4Z" fill="#6B6D7C"/>
</svg>
