<svg width="56" height="57" viewBox="0 0 56 57" fill="none" xmlns="http://www.w3.org/2000/svg">
<g clip-path="url(#clip0_560_25507)">
<path d="M42.793 12.2227C47.2907 14.7536 50.1654 20.6817 48.2054 25.4545C45.9359 31.0044 28.2753 47.8053 28.2753 47.8053C28.2753 47.8053 9.76188 33.5696 8.0976 25.4545C7.06602 20.3997 9.01914 14.7536 13.5168 12.2227C18.0145 9.69192 25.0224 9.84322 28.0621 16.1084C33.3713 8.13768 42.793 12.2227 42.793 12.2227Z" fill="#9A9EF5"/>
<path d="M25.029 43.789C19.8505 39.4357 10.4494 30.9011 9.31465 25.3788C8.33809 20.5922 10.1812 15.2418 14.4382 12.8485" stroke="#011C67" stroke-width="2.94737" stroke-miterlimit="10" stroke-linecap="round" stroke-linejoin="round"/>
<path d="M40.5442 15.5444C41.5551 15.7439 42.4698 16.3697 43.0269 17.2362C43.5839 18.1027 43.7765 19.1893 43.5426 20.1934" stroke="#011C67" stroke-width="2.94737" stroke-miterlimit="10" stroke-linecap="round" stroke-linejoin="round"/>
</g>
<defs>
<clipPath id="clip0_560_25507">
<rect width="56" height="56" fill="white" transform="translate(0 0.885315)"/>
</clipPath>
</defs>
</svg>
