<svg width="25" height="23" viewBox="0 0 25 23" fill="none" xmlns="http://www.w3.org/2000/svg">
<mask id="path-1-inside-1_1701_94668" fill="white">
<path d="M3.9683 20.3558H8.46469V12.813H17.4575V20.3558H21.9539V9.04155L12.9611 3.3844L3.9683 9.04155V20.3558ZM3.9683 22.8701C3.14396 22.8701 2.43853 22.6241 1.852 22.1322C1.26447 21.6394 0.970703 21.0473 0.970703 20.3558V9.04155C0.970703 8.64345 1.07712 8.26631 1.28995 7.91012C1.50178 7.55393 1.79504 7.26059 2.16974 7.03012L11.1625 1.37297C11.4373 1.20536 11.7246 1.07964 12.0243 0.995831C12.3241 0.912022 12.6363 0.870117 12.9611 0.870117C13.2858 0.870117 13.5981 0.912022 13.8978 0.995831C14.1976 1.07964 14.4849 1.20536 14.7596 1.37297L23.7524 7.03012C24.1271 7.26059 24.4209 7.55393 24.6337 7.91012C24.8456 8.26631 24.9515 8.64345 24.9515 9.04155V20.3558C24.9515 21.0473 24.6582 21.6394 24.0717 22.1322C23.4842 22.6241 22.7782 22.8701 21.9539 22.8701H14.4599V15.3273H11.4623V22.8701H3.9683Z"/>
</mask>
<path d="M3.9683 20.3558H8.46469V12.813H17.4575V20.3558H21.9539V9.04155L12.9611 3.3844L3.9683 9.04155V20.3558ZM3.9683 22.8701C3.14396 22.8701 2.43853 22.6241 1.852 22.1322C1.26447 21.6394 0.970703 21.0473 0.970703 20.3558V9.04155C0.970703 8.64345 1.07712 8.26631 1.28995 7.91012C1.50178 7.55393 1.79504 7.26059 2.16974 7.03012L11.1625 1.37297C11.4373 1.20536 11.7246 1.07964 12.0243 0.995831C12.3241 0.912022 12.6363 0.870117 12.9611 0.870117C13.2858 0.870117 13.5981 0.912022 13.8978 0.995831C14.1976 1.07964 14.4849 1.20536 14.7596 1.37297L23.7524 7.03012C24.1271 7.26059 24.4209 7.55393 24.6337 7.91012C24.8456 8.26631 24.9515 8.64345 24.9515 9.04155V20.3558C24.9515 21.0473 24.6582 21.6394 24.0717 22.1322C23.4842 22.6241 22.7782 22.8701 21.9539 22.8701H14.4599V15.3273H11.4623V22.8701H3.9683Z" fill="white"/>
<path d="M3.9683 20.3558H-1.16712V25.4912H3.9683V20.3558ZM8.46469 20.3558V25.4912H13.6001V20.3558H8.46469ZM8.46469 12.813V7.67756H3.32928V12.813H8.46469ZM17.4575 12.813H22.5929V7.67756H17.4575V12.813ZM17.4575 20.3558H12.3221V25.4912H17.4575V20.3558ZM21.9539 20.3558V25.4912H27.0893V20.3558H21.9539ZM21.9539 9.04155H27.0893V6.20506L24.6884 4.6947L21.9539 9.04155ZM12.9611 3.3844L15.6956 -0.962441L12.9611 -2.68264L10.2266 -0.962441L12.9611 3.3844ZM3.9683 9.04155L1.23381 4.6947L-1.16712 6.20506V9.04155H3.9683ZM1.28995 7.91012L5.69836 10.5442L5.7038 10.5351L1.28995 7.91012ZM2.16974 7.03012L4.86028 11.4043L4.88233 11.3907L4.90423 11.377L2.16974 7.03012ZM11.1625 1.37297L8.48818 -3.01112L8.45798 -2.9927L8.42804 -2.97387L11.1625 1.37297ZM14.7596 1.37297L17.4941 -2.97387L17.4642 -2.9927L17.434 -3.01112L14.7596 1.37297ZM23.7524 7.03012L21.0179 11.377L21.0399 11.3907L21.0619 11.4043L23.7524 7.03012ZM24.6337 7.91012L29.0476 5.28515L29.0421 5.27603L24.6337 7.91012ZM24.0717 22.1322L27.3686 26.0695L27.3752 26.064L24.0717 22.1322ZM14.4599 22.8701H9.32447V28.0055H14.4599V22.8701ZM14.4599 15.3273H19.5953V10.1918H14.4599V15.3273ZM11.4623 15.3273V10.1918H6.32687V15.3273H11.4623ZM11.4623 22.8701V28.0055H16.5977V22.8701H11.4623ZM3.9683 25.4912H8.46469V15.2204H3.9683V25.4912ZM13.6001 20.3558V12.813H3.32928V20.3558H13.6001ZM8.46469 17.9484H17.4575V7.67756H8.46469V17.9484ZM12.3221 12.813V20.3558H22.5929V12.813H12.3221ZM17.4575 25.4912H21.9539V15.2204H17.4575V25.4912ZM27.0893 20.3558V9.04155H16.8185V20.3558H27.0893ZM24.6884 4.6947L15.6956 -0.962441L10.2266 7.73125L19.2194 13.3884L24.6884 4.6947ZM10.2266 -0.962441L1.23381 4.6947L6.70279 13.3884L15.6956 7.73125L10.2266 -0.962441ZM-1.16712 9.04155V20.3558H9.10372V9.04155H-1.16712ZM3.9683 17.7347C4.07258 17.7347 4.2677 17.7514 4.51181 17.8366C4.76111 17.9235 4.98083 18.0538 5.15221 18.1976L-1.44822 26.0668C0.136818 27.3963 2.03682 28.0055 3.9683 28.0055V17.7347ZM5.15221 18.1976C5.31497 18.3341 5.57706 18.6041 5.79139 19.0361C6.01275 19.4823 6.10612 19.9472 6.10612 20.3558H-4.16471C-4.16471 22.7431 -3.05586 24.7183 -1.44822 26.0668L5.15221 18.1976ZM6.10612 20.3558V9.04155H-4.16471V20.3558H6.10612ZM6.10612 9.04155C6.10612 9.6112 5.94027 10.1393 5.69835 10.5442L-3.11846 5.27603C-3.78603 6.39327 -4.16471 7.6757 -4.16471 9.04155H6.10612ZM5.7038 10.5351C5.46501 10.9366 5.14824 11.2272 4.86028 11.4043L-0.520801 2.65593C-1.55816 3.29401 -2.46146 4.17126 -3.1239 5.28516L5.7038 10.5351ZM4.90423 11.377L13.897 5.71982L8.42804 -2.97387L-0.564751 2.68327L4.90423 11.377ZM13.8369 5.75707C13.7228 5.82667 13.577 5.89409 13.4071 5.94158L10.6416 -3.94992C9.8722 -3.73481 9.15183 -3.41596 8.48818 -3.01112L13.8369 5.75707ZM13.4071 5.94158C13.2376 5.98898 13.0834 6.00553 12.9611 6.00553V-4.2653C12.1893 -4.2653 11.4106 -4.16494 10.6416 -3.94992L13.4071 5.94158ZM12.9611 6.00553C12.8387 6.00553 12.6846 5.98898 12.5151 5.94158L15.2806 -3.94992C14.5116 -4.16494 13.7329 -4.2653 12.9611 -4.2653V6.00553ZM12.5151 5.94158C12.3452 5.89409 12.1994 5.82667 12.0853 5.75707L17.434 -3.01112C16.7703 -3.41596 16.05 -3.73481 15.2806 -3.94992L12.5151 5.94158ZM12.0252 5.71982L21.0179 11.377L26.4869 2.68327L17.4941 -2.97387L12.0252 5.71982ZM21.0619 11.4043C20.7758 11.2284 20.4622 10.9406 20.2253 10.5442L29.0421 5.27603C28.3796 4.16725 27.4784 3.29283 26.443 2.65593L21.0619 11.4043ZM20.2199 10.5351C19.9797 10.1312 19.8161 9.60624 19.8161 9.04155H30.0869C30.0869 7.68066 29.7114 6.40144 29.0476 5.28516L20.2199 10.5351ZM19.8161 9.04155V20.3558H30.0869V9.04155H19.8161ZM19.8161 20.3558C19.8161 19.9486 19.9089 19.4848 20.1296 19.0392C20.3434 18.6077 20.605 18.3374 20.7682 18.2003L27.3752 26.064C28.9816 24.7143 30.0869 22.7397 30.0869 20.3558H19.8161ZM20.7748 18.1948C20.945 18.0523 21.1635 17.9227 21.4118 17.8362C21.655 17.7514 21.8496 17.7347 21.9539 17.7347V28.0055C23.8854 28.0055 25.7841 27.3963 27.3686 26.0695L20.7748 18.1948ZM21.9539 17.7347H14.4599V28.0055H21.9539V17.7347ZM19.5953 22.8701V15.3273H9.32447V22.8701H19.5953ZM14.4599 10.1918H11.4623V20.4627H14.4599V10.1918ZM6.32687 15.3273V22.8701H16.5977V15.3273H6.32687ZM11.4623 17.7347H3.9683V28.0055H11.4623V17.7347Z" fill="white" mask="url(#path-1-inside-1_1701_94668)"/>
</svg>
