<svg width="692" height="446" viewBox="0 0 692 446" fill="none" xmlns="http://www.w3.org/2000/svg">
<path d="M147.306 401.382C173.001 384.801 179.274 353.429 178.725 325.14C178.633 320.416 179.256 315.449 176.969 311.274C174.682 307.099 169.238 304.19 164.777 306.115C161.078 307.711 159.41 311.766 157.301 315.108C154.495 319.555 150.361 323.209 145.53 325.513C142.355 327.028 138.442 327.924 135.359 326.243C131.128 323.934 130.715 318.304 130.822 313.608C131.021 304.861 131.218 296.113 131.416 287.365C131.522 282.671 131.616 277.879 130.156 273.401C128.697 268.924 125.385 264.736 120.724 263.417C116.063 262.1 110.233 264.591 109.172 269.171C108.73 271.078 109.106 273.068 108.938 275.014C108.77 276.96 107.783 279.103 105.835 279.62C103.863 280.141 101.916 278.78 100.466 277.387C95.4647 272.573 92.1172 266.418 88.9949 260.299C85.8717 254.181 82.8463 247.921 78.3224 242.684C73.7986 237.448 67.4894 233.259 60.4513 232.776C53.4114 232.294 45.8372 236.335 43.9503 242.91C42.0579 249.501 45.9977 256.274 50.3149 261.695C56.7182 269.738 64.3339 276.878 72.8446 282.821C74.379 283.893 76.0416 285.054 76.6072 286.8C77.624 289.944 74.4657 293.01 71.2124 293.992C67.5254 295.102 63.5524 294.682 59.7095 295.058C55.8657 295.435 51.6832 296.988 50.1756 300.426C48.0848 305.197 52.2091 310.285 56.2938 313.639C64.4741 320.354 73.854 325.702 83.8907 329.375C87.49 330.693 91.2794 331.855 94.1591 334.323C97.0387 336.793 98.7318 341.036 96.9169 344.316C95.0993 347.602 90.5561 348.595 86.7759 347.868C82.9957 347.144 79.6345 345.131 76.0425 343.778C69.32 341.245 60.5823 341.565 56.1618 347.076C53.2564 350.7 52.9242 355.8 54.2934 360.189C55.6617 364.578 58.5202 368.383 61.564 371.897C72.2052 384.184 85.9206 394.151 101.521 399.566C117.121 404.981 131.631 406.595 147.306 401.382Z" fill="#EBEBEB"/>
<path d="M139.866 383.566C135.731 369.239 129.834 353.892 123.092 338.038C121.391 334.082 119.71 330.172 118.052 326.318C116.391 322.473 114.744 318.665 112.89 315.033C109.217 307.753 105.105 301.021 100.991 294.745C96.8782 288.467 92.7354 282.651 88.8205 277.237C84.8937 271.832 81.1338 266.859 77.504 262.465C70.2722 253.649 63.5736 247.21 58.7868 242.965C56.3962 240.834 54.4872 239.238 53.1788 238.17C52.5422 237.657 52.0458 237.258 51.685 236.966C51.3455 236.698 51.16 236.574 51.16 236.574C51.16 236.574 51.3132 236.735 51.6361 237.021C51.9858 237.325 52.4665 237.743 53.0838 238.278C54.358 239.381 56.2365 241.008 58.593 243.166C63.3134 247.469 69.9372 253.944 77.098 262.776C80.6937 267.178 84.4212 272.16 88.3232 277.574C92.2122 282.999 96.331 288.82 100.42 295.096C104.51 301.367 108.598 308.086 112.245 315.337C114.085 318.955 115.718 322.737 117.381 326.591C119.037 330.443 120.715 334.351 122.415 338.306C129.152 354.15 135.056 369.46 139.217 383.744" fill="#263238"/>
<path d="M112.707 314.96C112.757 314.969 112.926 314.255 113.188 312.959C113.457 311.664 113.787 309.779 114.163 307.447C114.919 302.781 115.743 296.306 116.634 289.163C117.525 282.017 118.464 275.57 119.323 270.933C119.745 268.612 120.111 266.737 120.383 265.446C120.647 264.153 120.772 263.432 120.722 263.419C120.673 263.408 120.456 264.108 120.105 265.384C119.746 266.66 119.303 268.524 118.815 270.84C117.821 275.467 116.798 281.926 115.906 289.079C115.034 296.16 114.244 302.568 113.65 307.379C113.351 309.618 113.1 311.479 112.907 312.917C112.731 314.224 112.658 314.952 112.707 314.96Z" fill="#263238"/>
<path d="M49.6359 302.768C49.6349 302.793 49.8592 302.83 50.2854 302.88C50.7993 302.929 51.4148 302.99 52.1557 303.061C53.7786 303.211 56.1259 303.425 59.0185 303.78C64.8036 304.445 72.7643 305.644 81.4817 307.34C90.2 309.054 98.0168 310.933 103.628 312.458C106.44 313.201 108.697 313.864 110.26 314.315C110.973 314.517 111.568 314.687 112.063 314.827C112.478 314.937 112.699 314.983 112.708 314.96C112.716 314.937 112.51 314.846 112.111 314.691C111.628 314.517 111.048 314.305 110.349 314.054C108.813 313.521 106.574 312.783 103.774 311.976C98.1875 310.326 90.3661 308.364 81.6275 306.646C72.8898 304.944 64.8931 303.821 59.0757 303.283C56.1702 302.991 53.8091 302.853 52.1769 302.787C51.4314 302.767 50.8123 302.75 50.2956 302.737C49.8647 302.734 49.6368 302.743 49.6359 302.768Z" fill="#263238"/>
<path d="M139.182 382.424C139.205 382.434 139.351 382.18 139.611 381.688C139.898 381.122 140.263 380.402 140.715 379.514C141.666 377.624 142.975 374.856 144.546 371.417C147.695 364.543 151.741 354.92 156.066 344.245C160.395 333.568 164.36 323.926 167.383 317.008C168.881 313.617 170.107 310.843 170.997 308.827C171.397 307.917 171.72 307.179 171.974 306.601C172.191 306.088 172.293 305.813 172.27 305.803C172.247 305.794 172.1 306.047 171.84 306.541C171.554 307.106 171.189 307.826 170.738 308.714C169.785 310.604 168.48 313.372 166.909 316.811C163.759 323.685 159.712 333.308 155.385 343.987C151.059 354.661 147.092 364.302 144.07 371.221C142.571 374.611 141.346 377.386 140.456 379.402C140.055 380.312 139.732 381.05 139.479 381.63C139.261 382.139 139.158 382.414 139.182 382.424Z" fill="#263238"/>
<path d="M55.5437 355.363C55.5372 355.385 55.8242 355.498 56.3769 355.689C57.007 355.896 57.8144 356.161 58.8108 356.489C61.016 357.2 64.0571 358.179 67.7764 359.377C75.3413 361.824 85.7499 365.328 97.239 369.227C108.733 373.126 119.175 376.56 126.788 378.887C130.595 380.053 133.682 380.967 135.829 381.561C136.844 381.838 137.664 382.061 138.303 382.235C138.872 382.382 139.173 382.447 139.182 382.423C139.19 382.399 138.901 382.288 138.347 382.097C137.717 381.89 136.912 381.624 135.913 381.297C133.709 380.586 130.669 379.608 126.949 378.41C119.382 375.963 108.973 372.455 97.4807 368.557C85.9917 364.659 75.5489 361.225 67.9369 358.899C64.13 357.734 61.0419 356.819 58.8948 356.225C57.8808 355.948 57.0605 355.725 56.4202 355.55C55.8528 355.405 55.552 355.34 55.5437 355.363Z" fill="#263238"/>
<path d="M542.562 219.603L512.665 293.114L625.476 335.995L655.373 262.484L542.562 219.603Z" fill="#EBEBEB"/>
<path d="M655.412 263.495C655.424 263.53 654.925 263.728 653.963 264.074C652.898 264.444 651.494 264.931 649.74 265.54C645.942 266.808 640.64 268.579 634.129 270.753C620.807 275.093 602.571 281.034 582.372 287.613L581.945 287.752L581.72 287.374C581.549 287.086 581.362 286.774 581.176 286.461C570.469 268.36 560.781 251.981 553.697 240.005C550.271 234.111 547.478 229.306 545.48 225.867C544.572 224.259 543.845 222.972 543.294 221.997C542.805 221.105 542.564 220.629 542.596 220.61C542.63 220.593 542.935 221.033 543.486 221.89C544.082 222.839 544.868 224.094 545.851 225.661C547.924 229.059 550.819 233.807 554.371 239.631C561.527 251.566 571.314 267.891 582.13 285.931C582.316 286.244 582.503 286.556 582.673 286.844L582.023 286.605C602.262 280.142 620.535 274.308 633.884 270.046C640.44 268.005 645.781 266.343 649.605 265.152C651.387 264.622 652.813 264.196 653.893 263.874C654.878 263.591 655.4 263.46 655.412 263.495Z" fill="#263238"/>
<path d="M512.696 294.124C512.552 293.865 525.134 287.014 540.796 278.821C556.464 270.626 569.278 264.194 569.422 264.452C569.567 264.71 556.987 271.561 541.319 279.756C525.658 287.948 512.841 294.381 512.696 294.124Z" fill="#263238"/>
<path d="M607.297 277.788C607.588 277.705 611.901 290.895 616.931 307.246C621.962 323.603 625.802 336.925 625.512 337.009C625.22 337.093 620.907 323.906 615.876 307.549C610.847 291.198 607.005 277.872 607.297 277.788Z" fill="#263238"/>
<path d="M626.484 124.479L560.003 152.472L579.52 195.792L646 167.8L626.484 124.479Z" fill="#EBEBEB"/>
<path d="M626.944 124.912C626.964 124.922 626.84 125.21 626.585 125.75C626.296 126.342 625.916 127.122 625.44 128.097C624.388 130.187 622.92 133.104 621.117 136.686C617.38 143.969 612.266 153.939 606.602 164.982L606.483 165.214L606.222 165.147C606.023 165.095 605.807 165.039 605.591 164.983C593.144 161.704 581.88 158.739 573.643 156.569C569.616 155.477 566.332 154.586 563.982 153.949C562.894 153.641 562.023 153.394 561.363 153.206C560.766 153.03 560.456 152.926 560.462 152.906C560.468 152.884 560.79 152.946 561.398 153.083C562.066 153.241 562.947 153.45 564.047 153.711C566.411 154.301 569.713 155.125 573.764 156.136C582.013 158.258 593.295 161.161 605.762 164.369C605.978 164.425 606.193 164.481 606.391 164.533L606.011 164.698C611.745 153.688 616.921 143.748 620.702 136.487C622.582 132.943 624.114 130.055 625.211 127.989C625.732 127.036 626.149 126.273 626.465 125.694C626.76 125.172 626.924 124.902 626.944 124.912Z" fill="#263238"/>
<path d="M579.979 196.226C579.805 196.176 582.129 188.132 585.169 178.263C588.211 168.39 590.817 160.43 590.991 160.48C591.166 160.53 588.841 168.571 585.8 178.445C582.76 188.315 580.153 196.277 579.979 196.226Z" fill="#263238"/>
<path d="M612.845 150.634C612.932 150.48 620.528 154.295 629.809 159.153C639.093 164.015 646.547 168.08 646.46 168.234C646.373 168.388 638.78 164.574 629.495 159.714C620.215 154.854 612.759 150.788 612.845 150.634Z" fill="#263238"/>
<path d="M643.912 401.781C643.912 401.909 510.522 402.013 346.014 402.013C181.45 402.013 48.0875 401.908 48.0875 401.781C48.0875 401.653 181.449 401.549 346.014 401.549C510.522 401.548 643.912 401.652 643.912 401.781Z" fill="#263238"/>
<path d="M536.783 398.246H155.304C147.881 398.246 141.864 392.428 141.864 385.252V150.171C141.864 142.995 147.881 137.177 155.304 137.177H536.783C544.206 137.177 550.224 142.995 550.224 150.171V385.252C550.224 392.428 544.206 398.246 536.783 398.246Z" fill="#263238"/>
<path d="M550.792 401.781H141.208C132.139 401.781 124.786 394.673 124.786 385.905V378.938H567.214V385.905C567.214 394.673 559.861 401.781 550.792 401.781Z" fill="#263238"/>
<path d="M538.12 147.549H152.825V368.019H538.12V147.549Z" fill="#263238"/>
<path d="M305.787 378.938L311.277 387.38H388.531L393.629 378.938H305.787Z" fill="#263238"/>
<path d="M527.957 367.313H163.781C162.113 367.313 160.761 366.005 160.761 364.394V157.932C160.761 156.319 162.113 155.013 163.781 155.013H527.958C529.625 155.013 530.978 156.319 530.978 157.931V364.393C530.977 366.005 529.626 367.313 527.957 367.313Z" fill="#EBEBEB"/>
<path d="M530.977 170.568H160.761V367.313H530.977V170.568Z" fill="#EBEBEB"/>
<path d="M191.124 163.212C191.124 164.791 189.8 166.071 188.167 166.071C186.534 166.071 185.211 164.791 185.211 163.212C185.211 161.633 186.534 160.354 188.167 160.354C189.8 160.354 191.124 161.633 191.124 163.212Z" fill="#263238"/>
<path d="M173.205 163.212C173.205 164.791 171.882 166.071 170.248 166.071C168.616 166.071 167.292 164.791 167.292 163.212C167.292 161.633 168.616 160.354 170.248 160.354C171.881 160.354 173.205 161.633 173.205 163.212Z" fill="#263238"/>
<path d="M181.806 163.212C181.806 164.791 180.483 166.071 178.849 166.071C177.216 166.071 175.892 164.791 175.892 163.212C175.892 161.633 177.216 160.354 178.849 160.354C180.483 160.354 181.806 161.633 181.806 163.212Z" fill="#263238"/>
<path d="M546.715 378.938C546.715 379.079 456.079 379.194 344.299 379.194C232.48 379.194 141.863 379.079 141.863 378.938C141.863 378.797 232.48 378.682 344.299 378.682C456.079 378.682 546.715 378.796 546.715 378.938Z" fill="#263238"/>
<path d="M141.778 381.812C141.773 381.819 141.668 381.757 141.465 381.63C141.258 381.496 140.958 381.303 140.563 381.05C140.164 380.789 139.671 380.466 139.086 380.081C138.501 379.692 137.806 379.261 137.086 378.683C136.352 378.122 135.531 377.495 134.625 376.803C133.727 376.102 132.822 375.248 131.799 374.369C129.79 372.574 127.621 370.345 125.369 367.683C120.915 362.339 116.367 354.995 113.22 345.688C110.136 336.391 108.434 325.171 109.392 312.886C109.88 306.756 110.903 300.35 112.838 293.892C114.741 287.436 117.432 280.873 121.359 274.683C122.326 273.128 123.418 271.628 124.55 270.143C125.746 268.71 126.951 267.265 128.166 265.809C129.451 264.411 130.79 263.039 132.115 261.637C133.471 260.264 134.939 258.976 136.363 257.627C142.215 252.386 148.8 247.609 155.859 243.202C169.989 234.364 185.965 227.051 202.41 219.433C218.803 211.67 236.08 204.223 253.794 196.693C324.741 166.655 389.672 141.065 436.97 123.297C460.604 114.373 479.897 107.572 493.24 102.908C499.924 100.61 505.141 98.897 508.67 97.7151C510.433 97.1353 511.779 96.6929 512.692 96.3923C513.142 96.2496 513.483 96.1416 513.721 96.0667C513.951 95.9962 514.07 95.9641 514.073 95.9722C514.076 95.9793 513.963 96.0266 513.737 96.1122C513.504 96.1978 513.167 96.3209 512.724 96.4824C511.818 96.8026 510.483 97.2745 508.733 97.8917C505.214 99.1191 500.035 100.925 493.367 103.248C480.066 108.015 460.816 114.908 437.218 123.909C389.993 141.829 325.112 167.512 254.181 197.543C236.464 205.074 219.212 212.502 202.817 220.253C186.361 227.861 170.416 235.144 156.338 243.92C149.307 248.296 142.756 253.035 136.937 258.225C135.522 259.562 134.063 260.837 132.714 262.196C131.397 263.584 130.066 264.943 128.789 266.326C127.581 267.768 126.383 269.198 125.195 270.616C124.074 272.079 122.996 273.552 122.037 275.087C118.144 281.191 115.456 287.691 113.549 294.089C111.61 300.491 110.575 306.85 110.069 312.935C109.073 325.132 110.716 336.281 113.731 345.53C116.808 354.788 121.276 362.108 125.661 367.459C127.878 370.123 130.015 372.36 131.995 374.169C133.003 375.054 133.895 375.917 134.779 376.627C135.672 377.329 136.48 377.965 137.203 378.535C137.912 379.123 138.595 379.566 139.17 379.966C139.743 380.365 140.226 380.7 140.617 380.972C140.999 381.242 141.29 381.448 141.491 381.591C141.686 381.731 141.782 381.806 141.778 381.812Z" fill="#263238"/>
<path d="M498.566 66.5977L515.649 80.2907L514.072 95.973L528.068 88.4499L542.976 98.6882L598.546 64.1884L498.566 66.5977Z" fill="#2C73EB"/>
<g opacity="0.5">
<path d="M515.649 80.2907L597.039 64.224L523.936 85.6133L514.072 95.973L515.649 80.2907Z" fill="black"/>
</g>
<g opacity="0.8">
<path d="M523.936 85.6133L528.068 88.4498L514.072 95.973L523.936 85.6133Z" fill="black"/>
</g>
<path d="M267.949 272.789L179.19 280.926L184.863 338.764L273.622 330.627L267.949 272.789Z" fill="#011C67"/>
<path d="M273.644 330.626C273.644 330.626 273.584 330.252 273.503 329.556C273.423 328.828 273.31 327.806 273.165 326.488C272.879 323.775 272.464 319.85 271.937 314.839C270.908 304.777 269.433 290.367 267.639 272.817L268 273.105C243.497 275.375 212.663 278.231 179.254 281.325C179.165 281.419 179.952 280.502 179.62 280.898L179.622 280.913L179.625 280.943L179.63 281.004L179.642 281.124L179.666 281.366L179.713 281.849L179.807 282.813L179.997 284.737C180.122 286.018 180.247 287.294 180.372 288.566C180.621 291.11 180.868 293.636 181.114 296.142C181.604 301.155 182.085 306.09 182.558 310.931C183.499 320.612 184.403 329.919 185.26 338.733L184.848 338.403C210.942 336.083 233.084 334.116 248.744 332.724C256.562 332.049 262.761 331.514 267.045 331.144C269.15 330.97 270.784 330.836 271.93 330.741C272.465 330.701 272.881 330.67 273.2 330.647C273.486 330.626 273.636 330.62 273.644 330.626C273.653 330.632 273.518 330.652 273.247 330.684C272.94 330.718 272.539 330.762 272.024 330.818C270.899 330.932 269.292 331.093 267.223 331.303C262.963 331.717 256.8 332.316 249.026 333.071C233.315 334.556 211.099 336.657 184.919 339.132L184.542 339.168L184.506 338.802C183.633 329.99 182.711 320.685 181.752 311.006C181.275 306.165 180.789 301.231 180.295 296.218C180.048 293.712 179.799 291.185 179.549 288.642C179.424 287.37 179.299 286.094 179.173 284.814L178.983 282.89L178.888 281.926L178.841 281.443L178.817 281.201L178.805 281.081L178.799 281.02L178.796 280.99L178.795 280.975C178.46 281.358 179.248 280.433 179.174 280.53C212.59 277.495 243.43 274.695 267.936 272.469L268.267 272.439L268.298 272.758C269.957 290.403 271.318 304.892 272.269 315.009C272.722 319.996 273.076 323.903 273.322 326.602C273.433 327.897 273.519 328.902 273.58 329.617C273.636 330.293 273.644 330.626 273.644 330.626Z" fill="#263238"/>
<path d="M267.969 272.786C267.989 272.804 267.752 273.097 267.282 273.641C266.752 274.237 266.057 275.02 265.19 275.997C263.286 278.088 260.629 281.005 257.363 284.591C250.629 291.87 241.394 301.855 231.104 312.98L230.871 313.232L230.574 313.049C229.825 312.588 229.021 312.092 228.211 311.593C214.674 303.199 202.425 295.603 193.467 290.047C189.1 287.294 185.539 285.048 182.989 283.44C181.815 282.68 180.876 282.072 180.163 281.61C179.521 281.184 179.192 280.949 179.208 280.926C179.223 280.902 179.582 281.091 180.252 281.473C180.986 281.903 181.954 282.47 183.162 283.177C185.747 284.733 189.355 286.905 193.781 289.569C202.773 295.074 215.068 302.6 228.655 310.917C229.464 311.416 230.27 311.913 231.018 312.374L230.489 312.443C240.854 301.383 250.155 291.457 256.937 284.22C260.283 280.703 263.005 277.843 264.956 275.793C265.869 274.856 266.602 274.107 267.159 273.535C267.671 273.027 267.948 272.768 267.969 272.786Z" fill="#263238"/>
<path d="M455.62 189.244L443.626 230.268L506.582 247.472L518.576 206.447L455.62 189.244Z" fill="#011C67"/>
<path d="M506.573 247.467C506.573 247.467 506.634 247.195 506.771 246.699C506.916 246.18 507.119 245.453 507.382 244.513C507.931 242.585 508.725 239.792 509.739 236.228C511.797 229.081 514.744 218.845 518.333 206.378L518.501 206.668C501.116 201.935 479.239 195.978 455.533 189.524C455.448 189.565 456.237 189.141 455.902 189.326L455.899 189.337L455.892 189.358L455.879 189.401L455.855 189.487L455.805 189.658L455.704 190L455.504 190.685L455.105 192.049C454.84 192.957 454.575 193.863 454.311 194.765C453.783 196.569 453.259 198.36 452.739 200.138C451.698 203.693 450.673 207.192 449.667 210.625C447.654 217.489 445.717 224.088 443.885 230.338L443.693 230.006C462.18 235.113 477.868 239.448 488.963 242.513C494.497 244.057 498.884 245.282 501.916 246.128C503.404 246.549 504.559 246.876 505.369 247.105C505.746 247.215 506.039 247.301 506.263 247.366C506.465 247.426 506.57 247.46 506.573 247.467C506.577 247.473 506.48 247.452 506.286 247.404C506.067 247.349 505.781 247.276 505.413 247.182C504.611 246.971 503.469 246.67 501.995 246.282C498.968 245.472 494.587 244.301 489.062 242.823C477.906 239.808 462.132 235.546 443.542 230.523L443.275 230.451L443.351 230.191C445.172 223.939 447.096 217.337 449.097 210.469C450.099 207.035 451.121 203.535 452.158 199.979C452.678 198.202 453.201 196.409 453.728 194.605C453.992 193.703 454.256 192.798 454.521 191.889L454.92 190.524L455.12 189.84L455.22 189.497L455.27 189.326L455.294 189.24L455.306 189.198L455.313 189.176L455.316 189.166C454.982 189.342 455.774 188.911 455.698 188.959C479.39 195.455 501.256 201.451 518.632 206.216L518.867 206.28L518.8 206.506C515.091 219.003 512.046 229.265 509.919 236.429C508.86 239.957 508.03 242.721 507.457 244.63C507.177 245.545 506.96 246.254 506.806 246.759C506.658 247.237 506.573 247.467 506.573 247.467Z" fill="#263238"/>
<path d="M518.567 206.442C518.577 206.46 518.334 206.6 517.862 206.85C517.336 207.122 516.646 207.479 515.785 207.925C513.908 208.867 511.29 210.181 508.071 211.796C501.467 215.05 492.409 219.51 482.315 224.481L482.086 224.593L481.933 224.392C481.547 223.885 481.133 223.339 480.716 222.79C473.76 213.575 467.464 205.236 462.861 199.137C460.629 196.133 458.81 193.683 457.507 191.93C456.913 191.108 456.437 190.452 456.076 189.952C455.754 189.496 455.593 189.251 455.61 189.24C455.627 189.227 455.82 189.449 456.175 189.883C456.559 190.365 457.065 191 457.697 191.795C459.039 193.522 460.911 195.934 463.207 198.892C467.847 204.964 474.193 213.267 481.205 222.443C481.622 222.992 482.036 223.538 482.422 224.046L482.041 223.958C492.168 219.05 501.255 214.646 507.882 211.435C511.136 209.888 513.783 208.63 515.681 207.728C516.563 207.322 517.27 206.997 517.809 206.749C518.297 206.53 518.558 206.425 518.567 206.442Z" fill="#263238"/>
<path d="M186.53 179.449C186.53 179.449 190.871 176.051 197.598 186.246C204.325 196.442 207.087 202.427 207.087 202.427C207.087 202.427 208.806 204.534 210.255 202.916C211.705 201.298 213.475 196.926 216.264 197.423C219.156 197.938 220.387 200.887 220.298 205.4C220.207 209.913 220.386 219.807 220.406 220.7C220.425 221.579 221.07 222.815 222.24 221.865C223.41 220.916 229.845 212.477 233.803 215.669C237.762 218.86 235.374 231.391 235.141 232.767C234.907 234.141 235.236 234.689 235.927 234.958C236.619 235.228 238.505 232.195 240.436 229.868C242.368 227.54 245.029 225.168 247.154 227.194C249.279 229.22 250.804 238.313 243.284 254.017L239.307 261.072L230.966 261.403C213.07 261.06 205.282 255.753 204.329 253.019C203.375 250.285 206.747 249.01 209.757 248.351C212.768 247.692 216.414 247.381 216.466 246.661C216.518 245.941 216.153 245.417 214.772 245.018C213.391 244.619 200.693 241.206 199.459 236.367C198.226 231.528 208.891 229.632 210.286 229.031C211.681 228.43 210.815 227.328 210.006 226.927C209.183 226.518 200.061 222.03 195.826 220.131C191.59 218.233 189.386 215.871 190.175 213.132C190.935 210.491 195.774 210.867 197.914 210.316C200.053 209.765 198.847 207.347 198.847 207.347C198.847 207.347 194.491 202.326 187.956 192.014C181.422 181.701 186.622 179.384 186.622 179.384" fill="#2C73EB"/>
<path d="M192.571 188.571C192.571 188.571 192.609 188.649 192.695 188.794C192.789 188.948 192.919 189.161 193.086 189.435C193.441 190.007 193.953 190.83 194.61 191.886C195.936 194.014 197.879 197.078 200.294 200.855C205.123 208.411 211.884 218.795 219.391 230.239C226.9 241.686 233.688 252.053 238.559 259.583C240.986 263.342 242.952 266.388 244.318 268.504C244.995 269.549 245.522 270.363 245.887 270.929C246.064 271.197 246.202 271.405 246.301 271.556C246.396 271.696 246.451 271.765 246.451 271.765C246.451 271.765 246.413 271.687 246.326 271.542C246.232 271.387 246.103 271.175 245.936 270.901C245.581 270.33 245.069 269.506 244.413 268.45C243.087 266.323 241.144 263.259 238.729 259.482C233.901 251.926 227.138 241.541 219.63 230.094C212.123 218.651 205.336 208.285 200.464 200.755C198.037 196.995 196.071 193.95 194.704 191.833C194.028 190.788 193.501 189.973 193.134 189.408C192.957 189.141 192.82 188.932 192.72 188.781C192.625 188.639 192.571 188.571 192.571 188.571Z" fill="#263238"/>
<path d="M214.043 203.635C214.024 203.631 213.968 203.831 213.884 204.196C213.798 204.56 213.691 205.09 213.565 205.747C213.316 207.061 213.022 208.883 212.736 210.901C212.464 212.887 212.219 214.681 212.028 216.067C211.941 216.682 211.866 217.204 211.806 217.632C211.752 218.001 211.731 218.207 211.75 218.211C211.77 218.214 211.826 218.016 211.913 217.651C211.998 217.286 212.105 216.755 212.224 216.097C212.46 214.78 212.729 212.954 213.015 210.938C213.302 208.955 213.561 207.163 213.762 205.777C213.852 205.164 213.929 204.641 213.992 204.214C214.043 203.844 214.062 203.638 214.043 203.635Z" fill="#263238"/>
<path d="M211.006 218.424C211.019 218.35 207.16 217.595 202.385 216.739C197.608 215.883 193.727 215.249 193.712 215.322C193.698 215.396 197.557 216.149 202.333 217.007C207.108 217.864 210.991 218.498 211.006 218.424Z" fill="#263238"/>
<path d="M223.355 235.498C223.353 235.479 223.134 235.489 222.742 235.524C222.29 235.567 221.735 235.619 221.082 235.681C219.68 235.813 217.745 235.988 215.602 236.108C213.459 236.232 211.515 236.281 210.107 236.306C209.45 236.319 208.894 236.33 208.44 236.339C208.046 236.35 207.827 236.364 207.827 236.383C207.826 236.401 208.044 236.423 208.438 236.445C208.832 236.467 209.402 236.489 210.107 236.499C211.517 236.523 213.468 236.505 215.618 236.38C217.768 236.261 219.706 236.054 221.105 235.873C221.804 235.779 222.368 235.697 222.757 235.629C223.144 235.562 223.358 235.517 223.355 235.498Z" fill="#263238"/>
<path d="M229.148 222.706C229.13 222.698 229.03 222.868 228.865 223.182C228.7 223.496 228.468 223.954 228.187 224.522C227.627 225.658 226.87 227.235 226.051 228.985C225.23 230.735 224.502 232.324 223.988 233.481C223.731 234.059 223.528 234.529 223.393 234.857C223.259 235.184 223.192 235.369 223.21 235.377C223.227 235.385 223.327 235.214 223.493 234.9C223.658 234.586 223.89 234.129 224.17 233.56C224.73 232.424 225.488 230.847 226.307 229.097C227.127 227.348 227.854 225.758 228.369 224.601C228.627 224.023 228.83 223.553 228.964 223.226C229.1 222.898 229.166 222.713 229.148 222.706Z" fill="#263238"/>
<path d="M242.031 236.439C242.014 236.431 241.888 236.649 241.676 237.052C241.445 237.505 241.152 238.079 240.802 238.766C240.076 240.218 239.091 242.233 238.018 244.465C236.944 246.698 235.987 248.725 235.307 250.199C234.989 250.9 234.724 251.487 234.514 251.95C234.332 252.366 234.241 252.599 234.259 252.607C234.276 252.615 234.402 252.397 234.614 251.995C234.844 251.541 235.137 250.967 235.488 250.28C236.214 248.828 237.2 246.813 238.273 244.58C239.346 242.348 240.303 240.321 240.983 238.847C241.3 238.146 241.566 237.559 241.776 237.096C241.957 236.681 242.049 236.447 242.031 236.439Z" fill="#263238"/>
<path d="M234.333 252.17C234.331 252.151 234.055 252.158 233.556 252.184C233.004 252.217 232.294 252.26 231.444 252.311C229.66 252.417 227.197 252.556 224.474 252.638C221.75 252.722 219.282 252.738 217.496 252.738C216.643 252.738 215.933 252.74 215.379 252.74C214.879 252.744 214.602 252.754 214.602 252.772C214.601 252.791 214.877 252.816 215.376 252.845C215.875 252.875 216.599 252.906 217.493 252.929C219.281 252.978 221.754 252.994 224.483 252.909C227.211 252.828 229.678 252.658 231.459 252.502C232.35 252.422 233.069 252.35 233.566 252.289C234.061 252.231 234.335 252.189 234.333 252.17Z" fill="#263238"/>
<path d="M509.197 259.908C506.095 258.53 502.402 258.74 499.238 259.98C496.075 261.22 493.391 263.409 491.123 265.874C486.732 270.644 484.286 277.603 483.059 283.877C490.339 284.744 497.454 280.232 500.915 277.723C506.384 273.758 513.779 263.382 509.197 259.908Z" fill="#2C73EB"/>
<path d="M469.893 286.341C473.369 284.824 475.642 281.236 475.907 277.558C476.172 273.881 474.587 270.204 472.031 267.468C470.849 266.203 469.281 265.053 467.52 265.14C465.874 265.221 464.445 266.419 463.756 267.867C463.068 269.314 463.013 270.972 463.174 272.558C463.726 277.996 465.294 283.162 469.893 286.341Z" fill="#2C73EB"/>
<path d="M460.331 304.09C460.373 304.119 460.699 303.759 461.249 303.083C461.8 302.407 462.577 301.413 463.499 300.156C465.321 297.643 467.81 294.055 469.482 289.578C471.152 285.093 471.296 280.634 470.594 277.593C470.258 276.068 469.794 274.881 469.391 274.106C468.992 273.329 468.706 272.934 468.67 272.955C468.531 273.013 469.561 274.683 470.08 277.687C470.632 280.665 470.412 284.969 468.787 289.339C467.156 293.71 464.773 297.299 463.067 299.874C461.332 302.442 460.241 304.028 460.331 304.09Z" fill="#263238"/>
<path d="M502.63 267.2C502.598 267.162 501.943 267.631 500.788 268.512C499.63 269.391 497.979 270.692 495.956 272.319C491.911 275.572 486.398 280.155 480.44 285.36C474.481 290.568 469.209 295.41 465.454 298.974C463.575 300.755 462.072 302.212 461.05 303.236C460.027 304.26 459.479 304.841 459.514 304.877C459.55 304.912 460.166 304.398 461.251 303.436C462.424 302.384 463.961 301.004 465.816 299.339C469.66 295.871 474.984 291.094 480.936 285.891C486.888 280.691 492.341 276.053 496.297 272.703C498.197 271.087 499.771 269.747 500.973 268.725C502.07 267.778 502.662 267.237 502.63 267.2Z" fill="#263238"/>
<path d="M474.084 295.961C480.742 291.606 489.641 290.643 497.13 293.469C499.037 294.189 501.107 295.51 501.14 297.488C501.174 299.47 499.138 300.861 497.233 301.598C489.311 304.664 479.533 302.5 473.778 296.41" fill="#2C73EB"/>
<path d="M492.182 297.068C492.201 297.023 491.779 296.822 490.991 296.497C490.599 296.328 490.112 296.139 489.527 295.978C488.944 295.81 488.289 295.58 487.533 295.445C486.042 295.091 484.219 294.863 482.187 294.795C480.155 294.769 477.914 294.927 475.611 295.382C473.313 295.866 471.197 296.596 469.349 297.415C467.518 298.271 465.946 299.191 464.73 300.098C464.095 300.517 463.591 300.983 463.129 301.365C462.66 301.741 462.294 302.103 462.007 302.411C461.422 303.016 461.118 303.364 461.155 303.399C461.258 303.498 462.553 302.164 465.033 300.51C466.265 299.673 467.83 298.819 469.633 298.015C471.453 297.249 473.523 296.556 475.763 296.084C478.009 295.641 480.191 295.468 482.176 295.457C484.161 295.488 485.949 295.658 487.425 295.943C490.386 296.485 492.129 297.198 492.182 297.068Z" fill="#263238"/>
<path d="M467.948 101.736H234.757V348.933H467.948V101.736Z" fill="#FAFAFA"/>
<path d="M467.948 348.933C467.946 347.175 467.863 249.461 467.737 101.737L467.947 101.94C399.568 101.948 319.7 101.958 234.78 101.969H234.757L234.997 101.737C234.984 192.697 234.972 277.647 234.961 348.933L234.756 348.736C374.986 348.854 466.219 348.932 467.948 348.933C466.22 348.935 374.986 349.012 234.757 349.132H234.552V348.933C234.542 277.647 234.53 192.697 234.516 101.737V101.504H234.756H234.779C319.699 101.515 399.567 101.524 467.946 101.533H468.157V101.737C468.033 249.461 467.949 347.176 467.948 348.933Z" fill="#263238"/>
<path d="M404.892 326.313H315.769C308.377 326.313 302.385 320.521 302.385 313.375V310.742C302.385 303.597 308.377 297.804 315.769 297.804H404.892C412.283 297.804 418.275 303.597 418.275 310.742V313.375C418.275 320.521 412.283 326.313 404.892 326.313Z" fill="#2C73EB"/>
<g opacity="0.5">
<path d="M404.892 326.313H315.769C308.377 326.313 302.385 320.521 302.385 313.375V310.742C302.385 303.597 308.377 297.804 315.769 297.804H404.892C412.283 297.804 418.275 303.597 418.275 310.742V313.375C418.275 320.521 412.283 326.313 404.892 326.313Z" fill="black"/>
</g>
<path d="M395.161 326.313H306.037C298.646 326.313 292.654 320.521 292.654 313.375V310.742C292.654 303.597 298.646 297.804 306.037 297.804H395.161C402.552 297.804 408.544 303.597 408.544 310.742V313.375C408.544 320.521 402.552 326.313 395.161 326.313Z" fill="#2C73EB"/>
<path d="M324.633 313.905L325.026 313.053C325.515 313.433 326.292 313.703 327.043 313.703C327.994 313.703 328.396 313.374 328.396 312.935C328.396 311.66 324.764 312.496 324.764 310.303C324.764 309.349 325.549 308.538 327.225 308.538C327.958 308.538 328.726 308.724 329.259 309.061L328.901 309.914C328.351 309.602 327.749 309.449 327.216 309.449C326.274 309.449 325.89 309.804 325.89 310.25C325.89 311.508 329.512 310.689 329.512 312.858C329.512 313.804 328.718 314.614 327.042 314.614C326.091 314.614 325.139 314.327 324.633 313.905Z" fill="#FAFAFA"/>
<path d="M330.589 311.956V308.623H331.724V311.914C331.724 313.129 332.291 313.651 333.277 313.651C334.264 313.651 334.823 313.129 334.823 311.914V308.623H335.94V311.956C335.94 313.678 334.936 314.614 333.269 314.614C331.592 314.614 330.589 313.678 330.589 311.956Z" fill="#FAFAFA"/>
<path d="M342.962 312.926C342.962 313.939 342.141 314.53 340.571 314.53H337.533V308.623H340.396C341.862 308.623 342.648 309.222 342.648 310.159C342.648 310.767 342.333 311.214 341.862 311.459C342.517 311.66 342.962 312.158 342.962 312.926ZM338.667 309.483V311.112H340.274C341.06 311.112 341.505 310.841 341.505 310.302C341.505 309.753 341.06 309.483 340.274 309.483H338.667ZM341.818 312.816C341.818 312.226 341.356 311.964 340.501 311.964H338.667V313.669H340.501C341.356 313.669 341.818 313.408 341.818 312.816Z" fill="#FAFAFA"/>
<path d="M343.665 313.905L344.058 313.053C344.547 313.433 345.324 313.703 346.075 313.703C347.026 313.703 347.427 313.374 347.427 312.935C347.427 311.66 343.797 312.496 343.797 310.303C343.797 309.349 344.582 308.538 346.258 308.538C346.992 308.538 347.759 308.724 348.292 309.061L347.933 309.914C347.383 309.602 346.781 309.449 346.249 309.449C345.306 309.449 344.922 309.804 344.922 310.25C344.922 311.508 348.545 310.689 348.545 312.858C348.545 313.804 347.75 314.614 346.075 314.614C345.122 314.614 344.171 314.327 343.665 313.905Z" fill="#FAFAFA"/>
<path d="M349.237 311.576C349.237 309.812 350.634 308.538 352.51 308.538C353.506 308.538 354.361 308.884 354.929 309.526L354.195 310.193C353.75 309.728 353.2 309.501 352.562 309.501C351.297 309.501 350.381 310.362 350.381 311.576C350.381 312.791 351.297 313.652 352.562 313.652C353.2 313.652 353.749 313.425 354.195 312.952L354.929 313.627C354.361 314.269 353.506 314.615 352.502 314.615C350.633 314.614 349.237 313.34 349.237 311.576Z" fill="#FAFAFA"/>
<path d="M360.021 314.53L358.772 312.8C358.694 312.809 358.616 312.809 358.537 312.809H357.158V314.531H356.023V308.624H358.537C360.143 308.624 361.138 309.417 361.138 310.725C361.138 311.619 360.666 312.277 359.837 312.59L361.242 314.531H360.021V314.53ZM358.484 309.551H357.157V311.906H358.484C359.479 311.906 359.994 311.467 359.994 310.725C359.994 309.981 359.479 309.551 358.484 309.551Z" fill="#FAFAFA"/>
<path d="M362.408 308.623H363.542V314.53H362.408V308.623Z" fill="#FAFAFA"/>
<path d="M370.622 312.926C370.622 313.939 369.802 314.53 368.231 314.53H365.193V308.623H368.055C369.522 308.623 370.308 309.222 370.308 310.159C370.308 310.767 369.993 311.214 369.522 311.459C370.178 311.66 370.622 312.158 370.622 312.926ZM366.328 309.483V311.112H367.934C368.72 311.112 369.164 310.841 369.164 310.302C369.164 309.753 368.72 309.483 367.934 309.483H366.328ZM369.479 312.816C369.479 312.226 369.017 311.964 368.161 311.964H366.328V313.669H368.161C369.017 313.669 369.479 313.408 369.479 312.816Z" fill="#FAFAFA"/>
<path d="M376.423 313.609V314.529H371.84V308.622H376.3V309.542H372.975V311.078H375.925V311.981H372.975V313.609H376.423Z" fill="#FAFAFA"/>
<path d="M419.212 278.791C419.212 278.919 389.556 279.023 352.983 279.023C316.396 279.023 286.747 278.919 286.747 278.791C286.747 278.663 316.396 278.559 352.983 278.559C389.555 278.558 419.212 278.663 419.212 278.791Z" fill="#263238"/>
<path d="M439.935 286.537C439.935 286.666 401 286.769 352.984 286.769C304.95 286.769 266.023 286.665 266.023 286.537C266.023 286.409 304.95 286.305 352.984 286.305C401 286.305 439.935 286.409 439.935 286.537Z" fill="#263238"/>
<path d="M245.719 111.352C245.719 112.406 244.835 113.261 243.745 113.261C242.654 113.261 241.771 112.406 241.771 111.352C241.771 110.298 242.655 109.443 243.745 109.443C244.835 109.443 245.719 110.298 245.719 111.352Z" fill="#263238"/>
<path d="M250.327 113.261C251.417 113.261 252.301 112.406 252.301 111.352C252.301 110.298 251.417 109.443 250.327 109.443C249.236 109.443 248.352 110.298 248.352 111.352C248.352 112.406 249.236 113.261 250.327 113.261Z" fill="#263238"/>
<path d="M258.884 111.352C258.884 112.406 258 113.261 256.909 113.261C255.819 113.261 254.936 112.406 254.936 111.352C254.936 110.298 255.819 109.443 256.909 109.443C258 109.443 258.884 110.298 258.884 111.352Z" fill="#263238"/>
<path d="M450.594 151.328L454.428 137.959C454.428 137.959 455.811 132.528 456.141 131.259C456.576 129.58 455.358 129.052 454.64 130.194C454.367 130.627 451.333 136.158 451.333 136.158C451.333 136.158 453.751 127.104 453.839 126.775C454.622 123.819 452.729 124.124 452.174 125.181C451.601 126.273 448.176 135.183 448.176 135.183C451.393 123.54 450.387 122.515 449.482 122.332C448.578 122.149 445.741 132.794 445.741 132.794C445.741 132.794 444.722 130.974 442.834 129.72C439.925 127.786 435.078 129.717 434.845 131.041C434.611 132.365 436.342 132.736 436.342 132.736C439.986 130.466 443.722 133.216 443.34 136.577C442.958 139.939 438.555 139.471 438.007 137.079C436.802 131.83 434.934 133.535 434.934 133.535L436.806 145.115L434.823 150.938" fill="#FFBE9D"/>
<path d="M312.473 205.821L395.375 205.286L397.653 259.776L311.812 258.958L312.473 205.821Z" fill="#263238"/>
<path d="M312.473 205.821L354.581 172.921L395.375 205.286" fill="#263238"/>
<path d="M311.811 258.958C311.708 258.865 318.349 251.863 326.642 243.322C334.939 234.777 341.746 227.929 341.85 228.023C341.953 228.117 335.314 235.117 327.017 243.661C318.724 252.202 311.915 259.052 311.811 258.958Z" fill="#263238"/>
<path d="M397.653 259.776C397.547 259.867 391.087 253 383.228 244.439C375.365 235.875 369.08 228.862 369.186 228.771C369.292 228.68 375.75 235.547 383.612 244.11C391.472 252.671 397.759 259.685 397.653 259.776Z" fill="#263238"/>
<path d="M395.375 205.286L353.726 237.412L312.473 205.821" fill="#263238"/>
<path d="M257.077 144.41L257.353 144.402L256.241 140.817L252.691 127.114C252.354 125.87 253.07 124.589 254.358 124.128L256.914 124.044L265.668 120.086C267.322 119.494 269.151 120.499 269.358 122.133C269.677 124.652 271.448 131.418 273.334 129.047C273.379 128.992 273.426 128.947 273.47 128.892C276.12 125.365 279.42 123.463 280.778 123.516C282.103 123.568 282.592 125.12 281.706 126.047C281.575 126.206 281.419 126.354 281.206 126.465C281.117 126.511 281.013 126.594 280.919 126.652C279.89 127.451 278.667 128.87 277.768 129.995C276.911 131.068 276.259 132.285 275.839 133.562C275.371 134.983 275.024 136.229 274.762 137.285L275.442 144.279" fill="#FFBE9D"/>
<path d="M280.434 82.3423C280.434 82.3423 270.204 80.4468 255.507 67.5396C240.81 54.6315 233.569 37.1536 231.821 37.2883C230.072 37.4221 222.325 34.2002 208.68 65.182C195.034 96.1639 200.972 103.109 203.863 102.973C206.756 102.835 226.25 97.0033 238.563 98.0148C250.876 99.0272 266.833 104.778 266.833 104.778L280.434 82.3423Z" fill="#263238"/>
<path d="M302.521 98.4206L299.24 104.891L297.77 107.79C295.754 111.766 290.873 113.52 286.66 111.783L264.654 105.04L276.522 76.6835L298.622 87.3027C302.864 89.3401 304.606 94.3076 302.521 98.4206Z" fill="#263238"/>
<path d="M290.257 108.972L283.698 122.32L280.198 121.482L258.044 139.938L251.355 128.117C251.355 128.117 264.592 122.168 266.936 117.481C269.278 112.793 266.384 111.824 266.384 111.824L272.488 104.722L290.257 108.972Z" fill="#263238"/>
<path d="M209.872 65.7065C202.619 82.4859 199.829 97.3377 203.643 98.8782C207.456 100.42 216.428 88.0654 223.681 71.286C230.934 54.5065 233.723 39.6556 229.91 38.1143C226.097 36.5738 217.125 48.9271 209.872 65.7065Z" fill="#263238"/>
<path d="M304.662 107.581L298.702 105.949L302.16 99.1307L306.668 101.671L304.662 107.581Z" fill="#263238"/>
<path d="M270.395 107.156L286.554 116.507L288.425 112.702L270.395 107.156Z" fill="#263238"/>
<path d="M302.16 99.1307L298.702 105.949L299.927 106.285L302.7 99.4349L302.16 99.1307Z" fill="#263238"/>
<path d="M298.137 100.793C298.055 100.98 295.075 99.9531 291.481 98.4992C287.883 97.0452 285.036 95.7152 285.117 95.5288C285.197 95.3424 288.176 96.3691 291.773 97.8221C295.368 99.2761 298.217 100.605 298.137 100.793Z" fill="#263238"/>
<path d="M299.835 96.741C299.748 96.9256 297.049 95.9123 293.807 94.4771C290.563 93.0419 288.006 91.7297 288.093 91.5451C288.18 91.3613 290.879 92.3746 294.122 93.8099C297.364 95.2451 299.922 96.5572 299.835 96.741Z" fill="#263238"/>
<path d="M295.968 105.052C295.94 105.15 295.234 105.013 294.105 104.709C293.541 104.558 292.872 104.365 292.132 104.139C291.397 103.904 290.63 103.555 289.81 103.222C286.536 101.861 284.027 100.509 284.103 100.338C284.192 100.137 286.864 101.199 290.107 102.547C290.92 102.876 291.676 103.244 292.387 103.508C293.1 103.764 293.739 104.004 294.274 104.216C295.343 104.641 295.996 104.955 295.968 105.052Z" fill="#263238"/>
<path d="M225.542 61.5891C225.542 61.5891 216.551 56.5341 212.055 68.2086C207.559 79.8831 216.912 81.5253 216.912 81.5253C220.549 75.7175 223.448 69.0962 225.542 61.5891Z" fill="#263238"/>
<path d="M234.536 47.5767C234.588 47.5838 234.486 48.3706 234.255 49.7915C234.017 51.2098 233.682 53.2677 233.188 55.7965C232.852 57.0444 232.482 58.4074 232.088 59.8694C231.887 60.6017 231.68 61.3581 231.467 62.1377C231.36 62.5275 231.251 62.9236 231.14 63.3241C231.02 63.7219 230.859 64.1135 230.716 64.5158C230.127 66.1214 229.508 67.8055 228.867 69.5502C228.705 69.9864 228.543 70.4262 228.378 70.8704C228.22 71.3164 227.989 71.7374 227.795 72.1772C227.388 73.0496 226.976 73.9353 226.559 74.8309C226.14 75.7264 225.727 76.6113 225.318 77.4846C225.105 77.9163 224.93 78.3623 224.691 78.7735C224.454 79.1856 224.221 79.5959 223.989 80.0018C223.06 81.6217 222.163 83.1853 221.308 84.675C221.089 85.0443 220.892 85.4198 220.663 85.7704C220.425 86.1165 220.19 86.4572 219.958 86.7935C219.494 87.4652 219.044 88.1172 218.607 88.7479C217.735 90.002 216.92 91.1732 216.174 92.2445C214.543 94.2702 213.172 95.8705 212.23 96.981C211.282 98.0871 210.739 98.6838 210.697 98.6517C210.656 98.6205 211.121 97.9649 211.997 96.8053C212.905 95.6234 214.181 93.9643 215.749 91.9269C216.465 90.8476 217.247 89.6693 218.086 88.4062C218.508 87.7747 218.944 87.1217 219.393 86.4501C219.618 86.1147 219.846 85.7739 220.077 85.4287C220.3 85.0782 220.491 84.7017 220.704 84.3325C221.541 82.8455 222.418 81.2863 223.328 79.6691C223.556 79.265 223.786 78.8574 224.018 78.447C224.255 78.0385 224.427 77.5952 224.637 77.1652C225.041 76.2982 225.451 75.4187 225.865 74.5294C226.281 73.6401 226.692 72.7614 227.097 71.8953C227.291 71.4591 227.521 71.0408 227.681 70.5992C227.845 70.1595 228.009 69.7233 228.171 69.2907C228.822 67.562 229.451 65.8948 230.049 64.3044C230.195 63.9057 230.359 63.5185 230.485 63.1252C230.599 62.7282 230.713 62.3375 230.824 61.9513C231.049 61.1806 231.266 60.4313 231.478 59.707C231.903 58.262 232.299 56.9133 232.662 55.6796C233.204 53.2008 233.645 51.1822 233.96 49.7443C234.284 48.342 234.485 47.5696 234.536 47.5767Z" fill="#263238"/>
<path d="M287.666 175.076L278.518 141.471L255.656 142.056L262.767 188.949C263.676 199.153 269.886 205.834 280.347 207.454C286.618 208.426 293.414 202.646 298.45 198.906C301.739 196.464 302.324 196.948 305.716 193.966L320.443 183.674L320.804 185.364L320.71 185.367L323.212 214.02L353.713 237.174L390.094 208.994L389.264 196.805C389.353 196.795 389.443 196.625 389.252 196.629L388.31 182.816L406.947 203.485C411.237 209.541 418.54 212.928 426.111 212.373C434.296 211.773 441.394 206.675 444.351 199.272L453.954 152.034L432.881 147.65L423.011 181.69L399.465 155.529C385.888 138.426 370.035 139.872 370.035 139.872L340.809 139.371C340.787 139.37 340.766 139.371 340.744 139.372C339.876 139.416 323.543 139.893 312.473 151.33L287.666 175.076Z" fill="#2C73EB"/>
<path d="M400.653 157.392C400.639 157.419 400.337 157.248 399.713 157.059C399.094 156.865 398.132 156.684 396.893 156.777C395.659 156.874 394.172 157.257 392.57 157.976C390.953 158.669 389.282 159.773 387.335 160.856C385.404 161.906 383.085 163.058 380.351 162.997C379 162.953 377.644 162.592 376.331 162.093C375.014 161.595 373.718 160.976 372.354 160.454C369.652 159.386 366.488 159.029 363.371 159.63C360.233 160.209 357.357 161.911 354.412 163.563C352.928 164.385 351.433 165.175 349.861 165.763C348.293 166.355 346.663 166.732 345.043 166.896C341.802 167.231 338.596 166.767 335.83 165.661C333.05 164.567 330.72 162.972 328.586 161.49C326.454 159.998 324.493 158.578 322.567 157.501C320.64 156.429 318.754 155.709 317.042 155.299C315.326 154.904 313.792 154.819 312.558 154.939C310.071 155.2 308.885 156.033 308.86 155.953C308.856 155.946 308.93 155.902 309.078 155.824C309.227 155.747 309.447 155.626 309.746 155.488C310.355 155.244 311.28 154.904 312.538 154.759C313.79 154.61 315.355 154.669 317.104 155.048C318.85 155.44 320.771 156.149 322.736 157.217C324.698 158.291 326.68 159.703 328.819 161.179C330.958 162.645 333.275 164.208 335.996 165.265C338.702 166.335 341.83 166.779 344.992 166.446C346.573 166.282 348.16 165.913 349.688 165.335C351.22 164.76 352.696 163.981 354.173 163.162C357.103 161.521 360.034 159.78 363.28 159.186C366.489 158.571 369.752 158.953 372.517 160.058C375.26 161.141 377.753 162.535 380.364 162.614C382.965 162.692 385.241 161.599 387.168 160.573C389.108 159.519 390.808 158.424 392.46 157.741C394.095 157.036 395.617 156.67 396.88 156.6C398.147 156.532 399.126 156.747 399.744 156.972C400.368 157.191 400.653 157.392 400.653 157.392Z" fill="#FAFAFA"/>
<path d="M417.602 174.131C417.602 174.131 417.516 174.59 417.103 175.374C416.687 176.149 415.882 177.239 414.455 178.199C413.051 179.167 411.029 179.985 408.58 180.211C406.133 180.478 403.34 180.194 400.303 179.859C397.287 179.562 393.854 179.202 390.451 180.286C388.766 180.836 387.17 181.763 385.566 182.769C383.958 183.769 382.313 184.874 380.424 185.658C376.68 187.251 372.24 187.851 367.848 187.08C365.651 186.72 363.483 185.968 361.46 184.915C359.434 183.864 357.545 182.559 355.588 181.336C353.632 180.123 351.637 178.983 349.48 178.37C347.333 177.747 345.08 177.677 342.923 177.975C338.587 178.584 334.652 180.27 330.728 181.296C328.772 181.833 326.798 182.209 324.852 182.248C322.917 182.279 320.999 182.02 319.305 181.343C315.9 179.986 313.396 177.673 311.166 175.671C308.945 173.633 306.896 171.822 304.817 170.617C302.759 169.383 300.699 168.836 299.01 168.703C297.311 168.569 295.992 168.864 295.153 169.153C294.311 169.455 293.913 169.713 293.897 169.685C293.897 169.685 294.277 169.4 295.119 169.065C295.957 168.744 297.292 168.414 299.023 168.523C300.741 168.63 302.851 169.163 304.954 170.395C307.077 171.596 309.163 173.411 311.397 175.432C313.637 177.418 316.136 179.686 319.453 180.986C321.1 181.635 322.955 181.878 324.841 181.841C326.737 181.797 328.674 181.423 330.61 180.885C332.551 180.357 334.509 179.694 336.532 179.062C338.552 178.434 340.647 177.819 342.859 177.525C345.061 177.216 347.398 177.284 349.62 177.928C351.849 178.562 353.881 179.727 355.851 180.947C357.819 182.178 359.699 183.476 361.688 184.509C363.672 185.542 365.781 186.276 367.933 186.633C372.229 187.394 376.581 186.816 380.248 185.268C383.918 183.718 386.803 181.029 390.326 179.922C392.067 179.361 393.845 179.2 395.526 179.2C397.213 179.203 398.818 179.364 400.341 179.534C403.381 179.891 406.141 180.193 408.553 179.954C410.967 179.755 412.951 178.98 414.349 178.052C415.766 177.133 416.58 176.081 417.018 175.332C417.453 174.571 417.571 174.119 417.602 174.131Z" fill="#FAFAFA"/>
<path d="M444.261 196.838C444.221 196.874 443.9 196.355 442.984 195.826C442.087 195.303 440.519 194.877 438.65 195.201C436.776 195.517 434.797 196.695 432.814 198.215C431.81 198.967 430.768 199.794 429.589 200.534C428.416 201.269 427.082 201.935 425.586 202.202C424.095 202.488 422.601 202.356 421.227 202.087C419.848 201.812 418.567 201.398 417.359 200.998C416.15 200.598 415.015 200.201 413.929 199.926C412.843 199.654 411.808 199.485 410.858 199.423C408.956 199.293 407.411 199.633 406.466 200.102C405.51 200.557 405.086 200.983 405.051 200.941C405.04 200.929 405.143 200.825 405.353 200.637C405.455 200.538 405.592 200.43 405.767 200.316C405.935 200.192 406.137 200.062 406.381 199.942C407.327 199.408 408.922 199.003 410.876 199.095C411.853 199.138 412.914 199.291 414.026 199.553C415.141 199.818 416.292 200.206 417.5 200.593C419.891 201.345 422.64 202.259 425.494 201.747C426.904 201.497 428.183 200.867 429.332 200.153C430.486 199.436 431.524 198.625 432.542 197.877C434.551 196.366 436.616 195.167 438.591 194.878C440.553 194.582 442.178 195.081 443.081 195.674C443.547 195.961 443.831 196.278 444.021 196.483C444.193 196.708 444.274 196.829 444.261 196.838Z" fill="#FAFAFA"/>
<path d="M448.895 171.202C448.907 171.22 448.649 171.432 448.101 171.683C447.557 171.937 446.706 172.198 445.623 172.289C444.541 172.378 443.239 172.281 441.849 171.961C440.456 171.644 438.996 171.103 437.478 170.553C435.959 170.005 434.5 169.52 433.134 169.299C431.768 169.075 430.505 169.097 429.48 169.286C427.398 169.662 426.436 170.665 426.385 170.576C426.37 170.562 426.576 170.302 427.065 169.955C427.552 169.607 428.348 169.204 429.41 168.964C430.47 168.725 431.785 168.667 433.203 168.875C434.626 169.082 436.119 169.566 437.644 170.117C439.169 170.668 440.606 171.214 441.954 171.544C443.301 171.878 444.554 172.004 445.6 171.96C447.717 171.878 448.86 171.112 448.895 171.202Z" fill="#FAFAFA"/>
<path d="M387.716 204.917C387.687 204.967 386.906 204.416 385.301 203.848C383.701 203.298 381.219 202.82 378.177 203.136C375.129 203.394 371.646 204.553 368.004 206.259C364.344 207.925 360.466 210.157 355.957 211.569C353.71 212.269 351.41 212.7 349.166 212.703C346.92 212.696 344.781 212.259 342.838 211.649C340.888 211.045 339.11 210.288 337.458 209.581C335.804 208.875 334.276 208.196 332.85 207.654C330.014 206.529 327.575 206.018 325.873 205.893C325.447 205.87 325.067 205.834 324.739 205.826C324.423 205.836 324.146 205.845 323.906 205.852C323.455 205.863 323.216 205.861 323.214 205.846C323.212 205.83 323.447 205.801 323.899 205.759C324.141 205.739 324.419 205.716 324.737 205.689C325.069 205.682 325.452 205.703 325.885 205.713C327.61 205.784 330.101 206.255 332.973 207.348C334.417 207.874 335.957 208.539 337.617 209.228C339.274 209.919 341.046 210.657 342.972 211.241C344.893 211.83 346.981 212.246 349.164 212.247C351.348 212.239 353.597 211.815 355.811 211.126C360.251 209.737 364.122 207.527 367.815 205.871C371.486 204.177 375.042 203.028 378.146 202.808C381.243 202.528 383.764 203.066 385.367 203.677C386.977 204.309 387.716 204.917 387.716 204.917Z" fill="#FAFAFA"/>
<path d="M261.703 182.122C261.703 182.122 261.833 182.01 262.143 181.92C262.448 181.831 262.949 181.792 263.538 181.974C264.123 182.153 264.792 182.541 265.356 183.192C265.916 183.841 266.344 184.706 266.819 185.621C267.284 186.542 267.935 187.463 268.86 188.247C269.777 189.036 270.963 189.638 272.273 190.071C274.923 190.927 278.059 190.979 281.258 190.487C284.466 190.034 287.539 189.403 290.405 189.423C293.276 189.38 295.834 190.215 297.639 191.364C299.481 192.497 300.517 193.98 300.937 195.069C301.362 196.17 301.323 196.831 301.323 196.831C301.262 196.842 301.231 196.187 300.764 195.138C300.302 194.1 299.265 192.705 297.457 191.641C295.677 190.562 293.205 189.787 290.406 189.852C287.603 189.854 284.562 190.489 281.326 190.948C278.101 191.445 274.857 191.387 272.131 190.478C270.779 190.018 269.547 189.378 268.596 188.537C267.639 187.705 266.963 186.709 266.514 185.768C266.054 184.831 265.659 183.987 265.146 183.355C264.637 182.731 264.017 182.339 263.477 182.146C262.353 181.75 261.703 182.188 261.703 182.122Z" fill="#FAFAFA"/>
<path d="M281.718 154.871C281.66 154.958 280.694 153.833 278.5 153.255C277.419 152.972 276.066 152.842 274.592 153.007C273.117 153.169 271.536 153.647 269.947 154.302C268.356 154.962 266.89 155.715 265.53 156.361C264.172 157.013 262.916 157.55 261.826 157.915C260.736 158.28 259.822 158.481 259.184 158.569C258.545 158.659 258.188 158.655 258.184 158.629C258.171 158.549 259.592 158.415 261.708 157.607C262.765 157.208 263.989 156.647 265.329 155.979C266.672 155.314 268.139 154.545 269.757 153.874C271.375 153.207 273.005 152.726 274.543 152.581C276.078 152.433 277.482 152.602 278.594 152.94C279.708 153.28 280.525 153.768 281.022 154.169C281.525 154.571 281.733 154.857 281.718 154.871Z" fill="#FAFAFA"/>
<g opacity="0.3">
<path d="M348.526 233.235C360.369 226.595 374.08 218.809 380.917 207.343C385.29 200.01 387.462 191.24 388.311 182.815L390.095 208.992L353.713 237.172L348.526 233.235Z" fill="black"/>
</g>
<g opacity="0.2">
<path d="M317.826 146.631C315.032 156.675 309.676 165.33 301.561 172.157C299.602 173.805 297.474 175.342 295.017 176.155C292.56 176.968 289.712 176.974 287.49 175.675L287.667 175.076L306.105 157.425L317.826 146.631Z" fill="black"/>
</g>
<path d="M290.013 189.116C289.935 189.087 290.236 188.305 290.484 186.999C290.736 185.696 290.865 183.848 290.529 181.852C290.184 179.857 289.448 178.147 288.776 176.992C288.107 175.832 287.562 175.184 287.627 175.134C287.662 175.101 288.306 175.678 289.069 176.824C289.833 177.963 290.647 179.715 291.004 181.776C291.351 183.839 291.161 185.75 290.817 187.067C290.475 188.39 290.058 189.135 290.013 189.116Z" fill="#263238"/>
<path d="M284.73 184.619C284.608 184.53 286.212 182.904 286.929 180.321C287.688 177.749 287.177 175.557 287.329 175.542C287.384 175.529 287.59 176.053 287.698 176.95C287.807 177.842 287.772 179.111 287.392 180.445C287.008 181.778 286.363 182.884 285.795 183.595C285.225 184.31 284.77 184.657 284.73 184.619Z" fill="#263238"/>
<path d="M319.054 166.177C319.186 166.165 319.944 173.276 320.746 182.057C321.547 190.841 322.091 197.969 321.959 197.98C321.827 197.992 321.07 190.883 320.268 182.098C319.465 173.317 318.922 166.188 319.054 166.177Z" fill="#263238"/>
<path d="M368.314 138.848C368.329 138.843 368.397 139.008 368.512 139.329C368.641 139.645 368.773 140.13 368.914 140.762C369.183 142.023 369.319 143.932 368.827 146.21C368.309 148.46 367.109 151.106 364.803 153.263C362.53 155.442 359.079 156.84 355.398 156.928C351.716 156.997 348.203 155.745 345.834 153.663C343.431 151.605 342.113 149.013 341.495 146.788C340.899 144.533 340.949 142.62 341.161 141.349C341.272 140.711 341.382 140.222 341.497 139.9C341.598 139.575 341.658 139.407 341.674 139.413C341.732 139.427 341.494 140.105 341.346 141.372C341.194 142.634 341.198 144.509 341.822 146.701C342.468 148.866 343.787 151.371 346.125 153.342C348.428 155.334 351.82 156.529 355.387 156.464C358.953 156.378 362.288 155.041 364.497 152.954C366.743 150.886 367.948 148.329 368.496 146.138C369.02 143.922 368.939 142.048 368.731 140.794C368.525 139.533 368.257 138.865 368.314 138.848Z" fill="#263238"/>
<path d="M421.915 192.587C421.789 192.593 421.578 190.083 421.763 186.988C421.941 183.892 422.445 181.422 422.57 181.443C422.708 181.462 422.42 183.945 422.243 187.015C422.059 190.084 422.055 192.582 421.915 192.587Z" fill="#263238"/>
<path d="M425.621 194.208C425.562 194.229 425.241 193.54 424.833 192.387C424.423 191.236 423.939 189.616 423.548 187.795C423.16 185.972 422.939 184.299 422.843 183.085C422.746 181.87 422.758 181.115 422.82 181.112C422.964 181.101 423.239 184.09 424.019 187.701C424.783 191.313 425.756 194.163 425.621 194.208Z" fill="#263238"/>
<path d="M388.31 194.72C388.177 194.725 387.874 189.699 387.633 183.497C387.393 177.292 387.305 172.26 387.438 172.255C387.571 172.251 387.873 177.274 388.114 183.48C388.354 189.682 388.442 194.715 388.31 194.72Z" fill="#263238"/>
<path d="M355.238 155.527C348.321 155.402 342.702 150.092 342.413 143.41C342.2 138.521 342.027 134.033 342.027 134.033C342.027 134.033 331.444 132.946 330.805 122.8C330.167 112.653 330.817 89.2545 330.817 89.2545C342.721 83.634 356.839 84.6812 367.716 91.992L369.331 93.0776L368.563 143.071C368.455 150.074 362.481 155.659 355.238 155.527Z" fill="#FFBE9D"/>
<path d="M342.003 133.887C342.003 133.887 348.666 134.098 355.505 129.484C355.505 129.484 352.636 136.942 342.11 136.52L342.003 133.887Z" fill="#EB996E"/>
<path d="M368.564 103.654C368.739 103.571 375.676 101.253 375.795 108.204C375.914 115.155 368.67 113.837 368.653 113.638C368.638 113.439 368.564 103.654 368.564 103.654Z" fill="#FFBE9D"/>
<path d="M370.805 110.97C370.836 110.947 370.932 111.053 371.144 111.143C371.352 111.232 371.708 111.289 372.081 111.147C372.836 110.865 373.456 109.689 373.47 108.435C373.477 107.802 373.329 107.201 373.089 106.706C372.862 106.202 372.515 105.852 372.132 105.792C371.75 105.713 371.483 105.938 371.398 106.136C371.305 106.332 371.353 106.469 371.315 106.482C371.296 106.499 371.159 106.367 371.212 106.079C371.239 105.941 371.321 105.775 371.487 105.64C371.657 105.501 371.909 105.428 372.177 105.451C372.732 105.48 373.24 105.965 373.504 106.508C373.798 107.054 373.98 107.729 373.971 108.44C373.949 109.841 373.23 111.164 372.195 111.471C371.692 111.606 371.267 111.465 371.047 111.305C370.821 111.138 370.781 110.983 370.805 110.97Z" fill="#EB996E"/>
<path d="M335.84 104.608C335.812 105.374 336.46 106.029 337.287 106.072C338.113 106.115 338.807 105.53 338.835 104.764C338.863 103.998 338.215 103.341 337.389 103.298C336.561 103.254 335.867 103.841 335.84 104.608Z" fill="#263238"/>
<path d="M334.013 103.154C334.199 103.343 335.337 102.529 336.952 102.533C338.566 102.515 339.753 103.318 339.928 103.127C340.014 103.042 339.825 102.701 339.308 102.337C338.799 101.975 337.933 101.624 336.926 101.628C335.92 101.634 335.074 101.991 334.587 102.358C334.089 102.726 333.921 103.069 334.013 103.154Z" fill="#263238"/>
<path d="M351.353 104.786C351.326 105.552 351.973 106.207 352.801 106.251C353.627 106.294 354.321 105.708 354.349 104.942C354.377 104.176 353.728 103.519 352.902 103.477C352.075 103.433 351.381 104.019 351.353 104.786Z" fill="#263238"/>
<path d="M349.895 103.445C350.081 103.634 351.22 102.821 352.834 102.825C354.448 102.808 355.634 103.611 355.809 103.42C355.895 103.335 355.707 102.993 355.189 102.63C354.68 102.268 353.814 101.917 352.807 101.92C351.801 101.925 350.955 102.284 350.468 102.651C349.973 103.018 349.804 103.361 349.895 103.445Z" fill="#263238"/>
<path d="M344.031 115.029C344.038 114.94 343.035 114.773 341.407 114.571C340.994 114.53 340.604 114.451 340.534 114.179C340.437 113.891 340.61 113.461 340.81 112.997C341.197 112.032 341.603 111.02 342.03 109.96C343.724 105.635 344.951 102.08 344.77 102.015C344.589 101.951 343.07 105.404 341.375 109.729C340.967 110.795 340.577 111.811 340.206 112.784C340.05 113.237 339.781 113.751 339.992 114.349C340.102 114.647 340.406 114.864 340.67 114.932C340.935 115.011 341.166 115.015 341.37 115.027C343.009 115.111 344.025 115.118 344.031 115.029Z" fill="#263238"/>
<path d="M348.786 116.11C348.523 116.096 348.52 117.79 347.019 118.994C345.521 120.202 343.652 120.011 343.638 120.248C343.614 120.354 344.054 120.577 344.843 120.598C345.617 120.623 346.747 120.383 347.666 119.647C348.582 118.909 348.976 117.924 349.036 117.228C349.102 116.52 348.906 116.1 348.786 116.11Z" fill="#263238"/>
<path d="M349.478 97.3235C349.638 97.7481 351.251 97.5465 353.147 97.7677C355.048 97.9515 356.576 98.4885 356.827 98.1076C356.94 97.9256 356.673 97.526 356.055 97.1148C355.443 96.7045 354.465 96.3138 353.327 96.1916C352.189 96.0711 351.147 96.246 350.456 96.5171C349.76 96.7883 349.409 97.1219 349.478 97.3235Z" fill="#263238"/>
<path d="M334.607 98.633C334.891 98.988 336.004 98.6196 337.343 98.6027C338.68 98.5402 339.814 98.8408 340.076 98.4698C340.19 98.2896 340.012 97.9346 339.516 97.5983C339.028 97.2638 338.213 96.9899 337.293 97.0167C336.373 97.0452 335.576 97.3664 335.111 97.7294C334.637 98.0942 334.481 98.46 334.607 98.633Z" fill="#263238"/>
<path d="M325.454 82.5484C325.341 81.2889 325.827 79.9366 326.887 79.1963C327.948 78.4559 329.592 78.5032 330.454 79.454C329.96 77.7566 331.396 75.7995 333.216 75.6871C334.93 75.5819 336.392 76.8342 338.049 77.2731C339.667 77.7021 341.402 77.3311 342.959 76.7254C344.514 76.1197 345.969 75.2839 347.545 74.7273C350.83 73.5668 354.587 73.7131 357.767 75.1243C360.946 76.5354 363.509 79.1945 364.741 82.3602C367.04 81.6653 369.653 82.7937 371.072 84.6767C372.49 86.5597 372.853 89.0323 372.571 91.3453C372.38 92.9081 371.913 94.4182 371.369 95.9061C371.37 96.0363 371.383 96.1648 371.38 96.2959C371.271 101.885 370.618 108.449 368.15 108.486C363.852 108.549 364.876 100.719 364.876 100.719C359.6 98.7489 361.565 91.1062 360.246 89.9475C358.927 88.7879 356.167 86.0941 345.121 91.5522C340.831 93.6716 335.128 93.6056 332.015 92.9223C331.924 92.9036 331.832 92.8902 331.74 92.8679C331.721 92.8635 331.696 92.8599 331.677 92.8554C331.642 92.8474 331.618 92.8287 331.585 92.8198C330.592 92.57 329.636 92.198 328.753 91.6575C327.752 91.0456 326.842 90.2169 326.418 89.1483C325.994 88.0797 326.153 86.7452 327.021 85.9665C326.205 84.9782 325.567 83.8079 325.454 82.5484Z" fill="#263238"/>
</svg>
