<svg width="772" height="772" viewBox="0 0 772 772" fill="none" xmlns="http://www.w3.org/2000/svg">
<path d="M694.647 615.275H643.507V615.661H694.647V615.275Z" fill="#EBEBEB"/>
<path d="M511.404 619.465H497.982V619.851H511.404V619.465Z" fill="#EBEBEB"/>
<path d="M641.961 600.937H612.329V601.323H641.961V600.937Z" fill="#EBEBEB"/>
<path d="M147.687 603.531H80.9967V603.917H147.687V603.531Z" fill="#EBEBEB"/>
<path d="M171.213 603.531H161.434V603.917H171.213V603.531Z" fill="#EBEBEB"/>
<path d="M347.627 610.052H202.991V610.438H347.627V610.052Z" fill="#EBEBEB"/>
<path d="M365.95 521.563H67.8047C62.9458 521.563 58.9916 517.609 58.9916 512.75V93.6591C58.9916 88.8001 62.9458 84.8459 67.8047 84.8459H365.95C370.807 84.8459 374.761 88.8001 374.761 93.6591V512.75C374.761 517.609 370.807 521.563 365.95 521.563ZM67.8047 85.2335C63.1573 85.2335 59.3776 89.0132 59.3776 93.6606V512.752C59.3776 517.399 63.1573 521.179 67.8047 521.179H365.95C370.596 521.179 374.375 517.399 374.375 512.752V93.6591C374.375 89.0132 370.596 85.2319 365.95 85.2319L67.8047 85.2335Z" fill="#EBEBEB"/>
<path d="M699.911 521.563H401.767C396.908 521.563 392.956 517.609 392.956 512.75V93.6591C392.956 88.8001 396.91 84.8459 401.767 84.8459H699.911C704.771 84.8459 708.724 88.8001 708.724 93.6591V512.75C708.725 517.609 704.771 521.563 699.911 521.563ZM401.767 85.2335C397.121 85.2335 393.342 89.0132 393.342 93.6606V512.752C393.342 517.399 397.121 521.179 401.767 521.179H699.911C704.558 521.179 708.338 517.399 708.338 512.752V93.6591C708.338 89.0132 704.558 85.2319 699.911 85.2319L401.767 85.2335Z" fill="#EBEBEB"/>
<path d="M772 590.423H0V590.809H772V590.423Z" fill="#EBEBEB"/>
<path d="M132.562 279.101V249.032H130.246V279.101C128.756 279.591 127.673 280.977 127.673 282.631V292.153C127.673 294.214 129.344 295.884 131.404 295.884C133.465 295.884 135.135 294.214 135.135 292.153V282.631C135.135 280.977 134.053 279.591 132.562 279.101Z" fill="#E0E0E0"/>
<path d="M143.857 249.032H139.244V587.566H143.857V249.032Z" fill="#EBEBEB"/>
<path d="M171.659 588.957H111.443C111.443 585.846 113.964 583.325 117.075 583.325H166.025C169.137 583.325 171.659 585.846 171.659 588.957Z" fill="#E0E0E0"/>
<path d="M139.244 272.973L143.857 271.455V249.032H139.244V272.973Z" fill="#E0E0E0"/>
<path d="M169.188 178.797H113.913L96.9292 252.137H186.172L169.188 178.797Z" fill="#F0F0F0"/>
<path d="M411.72 199.463V186.296C410.097 186.296 410.094 183.774 411.72 183.774C416.738 183.774 421.761 183.741 426.782 183.711V201.986C421.761 201.986 416.739 201.986 411.72 201.986C410.097 201.984 410.096 199.463 411.72 199.463Z" fill="#EBEBEB"/>
<path d="M423.42 186.296H411.72V199.445H423.42V186.296Z" fill="#F5F5F5"/>
<path d="M420.965 200.725H461.528C464.316 200.725 466.577 197.212 466.577 192.879C466.577 188.547 464.316 185.034 461.528 185.034H420.965V200.725Z" fill="#FAFAFA"/>
<path d="M420.965 183.775C434.245 183.775 447.547 183.535 460.824 183.775C469.92 183.938 470.407 201.373 461.488 201.985C455.268 202.411 448.872 201.985 442.642 201.985C435.416 201.985 428.191 201.985 420.965 201.985C419.343 201.985 419.341 199.463 420.965 199.463C433.552 199.463 446.139 199.463 458.725 199.463C461.639 199.463 463.722 199.431 464.847 195.994C465.822 193.02 465.514 186.952 461.528 186.296C461.099 186.225 460.592 186.296 460.161 186.296C453.298 186.296 446.437 186.296 439.574 186.296C433.37 186.296 427.168 186.296 420.965 186.296C419.343 186.296 419.341 183.775 420.965 183.775Z" fill="#E6E6E6"/>
<path d="M411.584 181.683V169.981C410.142 169.981 410.14 167.74 411.584 167.74C416.045 167.74 420.507 167.709 424.969 167.683V183.923C420.507 183.923 416.045 183.923 411.584 183.923C410.144 183.923 410.14 181.683 411.584 181.683Z" fill="#EBEBEB"/>
<path d="M421.981 169.98H411.584V181.665H421.981V169.98Z" fill="#F5F5F5"/>
<path d="M419.801 182.803H455.849C458.327 182.803 460.336 179.683 460.336 175.832C460.336 171.982 458.327 168.861 455.849 168.861H419.801V182.803Z" fill="#FAFAFA"/>
<path d="M419.801 167.74C431.604 167.74 443.424 167.527 455.224 167.74C463.306 167.887 463.742 183.379 455.813 183.923C450.287 184.303 444.602 183.923 439.066 183.923C432.644 183.923 426.224 183.923 419.803 183.923C418.361 183.923 418.359 181.683 419.803 181.683C430.989 181.683 442.174 181.683 453.36 181.683C455.949 181.683 457.801 181.653 458.801 178.599C459.667 175.957 459.394 170.564 455.85 169.981C455.469 169.917 455.02 169.981 454.637 169.981C448.538 169.981 442.439 169.981 436.342 169.981C430.83 169.981 425.316 169.981 419.804 169.981C418.359 169.981 418.356 167.74 419.801 167.74Z" fill="#E6E6E6"/>
<path d="M411.72 217.36V204.192C410.097 204.192 410.094 201.671 411.72 201.671C416.738 201.671 421.761 201.637 426.782 201.608V219.882C421.761 219.882 416.739 219.882 411.72 219.882C410.097 219.881 410.096 217.36 411.72 217.36Z" fill="#EBEBEB"/>
<path d="M423.42 204.192H411.72V217.341H423.42V204.192Z" fill="#F5F5F5"/>
<path d="M420.965 218.621H461.528C464.316 218.621 466.577 215.109 466.577 210.776C466.577 206.444 464.316 202.933 461.528 202.933H420.965V218.621Z" fill="#FAFAFA"/>
<path d="M420.965 201.671C434.245 201.671 447.547 201.432 460.824 201.671C469.92 201.835 470.407 219.27 461.488 219.881C455.268 220.307 448.872 219.881 442.642 219.881C435.416 219.881 428.191 219.881 420.965 219.881C419.343 219.881 419.341 217.36 420.965 217.36C433.552 217.36 446.139 217.36 458.725 217.36C461.639 217.36 463.722 217.327 464.847 213.89C465.822 210.917 465.514 204.849 461.528 204.192C461.099 204.121 460.592 204.192 460.161 204.192C453.298 204.192 446.437 204.192 439.574 204.192C433.37 204.192 427.168 204.192 420.965 204.192C419.343 204.192 419.341 201.671 420.965 201.671Z" fill="#E6E6E6"/>
<path d="M511.374 217.842H514.204H596.138V228.719H514.204H511.374H238.157V217.842H511.374Z" fill="#F5F5F5"/>
<path d="M575.881 255.166V228.719H589.104L575.881 255.166Z" fill="#E0E0E0"/>
<path d="M582.493 255.166L595.715 228.719H589.104L575.881 255.166H582.493Z" fill="#F5F5F5"/>
<path d="M257.993 255.166V228.719H244.769L257.993 255.166Z" fill="#E0E0E0"/>
<path d="M251.38 255.166L238.157 228.719H244.769L257.993 255.166H251.38Z" fill="#F5F5F5"/>
<path d="M490.07 191.353C490.07 207.24 502.95 220.12 518.838 220.12C534.726 220.12 547.606 207.242 547.606 191.353V190.351C547.606 174.463 534.726 161.583 518.838 161.583C502.95 161.583 490.07 174.463 490.07 190.351V191.353Z" fill="#E6E6E6"/>
<path d="M490.07 187.216C490.07 203.104 502.95 215.984 518.838 215.984C534.726 215.984 547.606 203.104 547.606 187.216V186.214C547.606 170.326 534.726 157.446 518.838 157.446C502.95 157.446 490.07 170.326 490.07 186.214V187.216Z" fill="#F0F0F0"/>
<path d="M496.362 186.214C496.362 198.626 506.424 208.689 518.837 208.689C531.249 208.689 541.311 198.626 541.311 186.214C541.311 173.802 531.249 163.74 518.837 163.74C506.424 163.74 496.362 173.802 496.362 186.214Z" fill="#FAFAFA"/>
<path d="M518.837 167.289C507.023 167.289 497.358 176.41 496.452 187.99C496.405 187.403 496.362 186.815 496.362 186.216C496.362 173.803 506.424 163.741 518.837 163.741C531.249 163.741 541.311 173.803 541.311 186.216C541.311 186.815 541.268 187.403 541.221 187.99C540.315 176.408 530.65 167.289 518.837 167.289Z" fill="#E6E6E6"/>
<path d="M504.643 186.203C505.316 186.203 512.572 186.203 516.459 186.203C516.459 182.312 516.459 175.045 516.459 174.387C516.459 173.073 517.524 172.009 518.836 172.009C520.149 172.009 521.214 173.075 521.214 174.387C521.214 175.276 521.214 187.692 521.214 188.581C521.214 189.893 520.149 190.959 518.836 190.959C517.966 190.959 505.512 190.959 504.643 190.959C503.33 190.959 502.265 189.893 502.265 188.581C502.265 187.267 503.33 186.203 504.643 186.203Z" fill="#E0E0E0"/>
<path d="M504.643 188.592C503.33 188.592 502.265 187.527 502.265 186.214C502.265 184.9 503.329 183.836 504.643 183.836C505.532 183.836 517.947 183.836 518.838 183.836C520.15 183.836 521.216 184.9 521.216 186.214C521.216 187.527 520.15 188.592 518.838 188.592C517.966 188.592 505.513 188.592 504.643 188.592Z" fill="#F5F5F5"/>
<path d="M516.459 172.02C516.459 170.706 517.524 169.642 518.836 169.642C520.149 169.642 521.214 170.708 521.214 172.02C521.214 172.909 521.214 185.325 521.214 186.214C521.214 187.526 520.149 188.592 518.836 188.592C517.523 188.592 516.459 187.528 516.459 186.214C516.459 185.345 516.459 172.891 516.459 172.02Z" fill="#EBEBEB"/>
<path d="M338.072 218.216H355.409V146.196H338.072V218.216Z" fill="#E0E0E0"/>
<path d="M346.741 208.173C349.687 208.173 352.075 205.785 352.075 202.838C352.075 199.892 349.687 197.504 346.741 197.504C343.794 197.504 341.406 199.892 341.406 202.838C341.406 205.785 343.794 208.173 346.741 208.173Z" fill="#FAFAFA"/>
<path opacity="0.6" d="M341.406 187.834H352.075V153.159H341.406V187.834Z" fill="#F0F0F0"/>
<path opacity="0.6" d="M341.406 158.05H352.075V153.16H341.406V158.05Z" fill="#FAFAFA"/>
<path d="M325.062 218.215H339.065V160.046H325.062V218.215Z" fill="#E6E6E6"/>
<path d="M327.754 205.795C327.754 208.174 329.683 210.104 332.062 210.104C334.441 210.104 336.371 208.176 336.371 205.795C336.371 203.414 334.443 201.486 332.062 201.486C329.681 201.486 327.754 203.416 327.754 205.795Z" fill="#FAFAFA"/>
<path opacity="0.6" d="M327.755 193.677H336.372V165.67H327.755V193.677Z" fill="#F0F0F0"/>
<path opacity="0.6" d="M327.755 169.62H336.372V165.67H327.755V169.62Z" fill="#FAFAFA"/>
<path d="M366.607 218.216H383.945V146.196H366.607V218.216Z" fill="#EBEBEB"/>
<path d="M375.277 208.173C378.223 208.173 380.611 205.785 380.611 202.838C380.611 199.892 378.223 197.504 375.277 197.504C372.331 197.504 369.942 199.892 369.942 202.838C369.942 205.785 372.331 208.173 375.277 208.173Z" fill="#E0E0E0"/>
<path opacity="0.6" d="M369.942 187.834H380.611V153.159H369.942V187.834Z" fill="#FAFAFA"/>
<path opacity="0.6" d="M369.942 158.05H380.611V153.16H369.942V158.05Z" fill="#FAFAFA"/>
<path d="M308.963 218.216H326.301V146.196H308.963V218.216Z" fill="#E0E0E0"/>
<path d="M317.632 208.173C320.578 208.173 322.966 205.785 322.966 202.838C322.966 199.892 320.578 197.504 317.632 197.504C314.685 197.504 312.297 199.892 312.297 202.838C312.297 205.785 314.685 208.173 317.632 208.173Z" fill="#FAFAFA"/>
<path opacity="0.6" d="M312.297 187.834H322.966V153.159H312.297V187.834Z" fill="#F0F0F0"/>
<path opacity="0.6" d="M312.297 158.05H322.966V153.16H312.297V158.05Z" fill="#FAFAFA"/>
<path d="M284.227 217.124L301.469 218.936L308.996 147.312L291.753 145.5L284.227 217.124Z" fill="#EBEBEB"/>
<path d="M289.148 202.167C288.839 205.097 290.965 207.722 293.896 208.029C296.826 208.338 299.451 206.212 299.758 203.281C300.066 200.351 297.941 197.726 295.011 197.419C292.08 197.112 289.455 199.238 289.148 202.167Z" fill="#E0E0E0"/>
<path opacity="0.6" d="M290.718 187.259L301.329 188.374L304.952 153.891L294.342 152.776L290.718 187.259Z" fill="#F5F5F5"/>
<path opacity="0.6" d="M293.831 157.637L304.441 158.752L304.952 153.889L294.342 152.774L293.831 157.637Z" fill="#FAFAFA"/>
<path d="M354.172 218.215H368.175V160.046H354.172V218.215Z" fill="#E6E6E6"/>
<path d="M356.865 205.795C356.865 208.174 358.793 210.104 361.174 210.104C363.553 210.104 365.483 208.176 365.483 205.795C365.483 203.414 363.555 201.486 361.174 201.486C358.793 201.486 356.865 203.416 356.865 205.795Z" fill="#FAFAFA"/>
<path opacity="0.6" d="M356.864 193.677H365.481V165.67H356.864V193.677Z" fill="#F0F0F0"/>
<path opacity="0.6" d="M356.864 169.62H365.481V165.67H356.864V169.62Z" fill="#FAFAFA"/>
<path d="M378.555 654.214C543.889 654.214 677.919 646.387 677.919 636.732C677.919 627.076 543.889 619.249 378.555 619.249C213.22 619.249 79.1902 627.076 79.1902 636.732C79.1902 646.387 213.22 654.214 378.555 654.214Z" fill="#F5F5F5"/>
<path d="M385.115 424.297H356.181L370.077 380.298H399.011L385.115 424.297Z" fill="#407BFF"/>
<path opacity="0.2" d="M366.021 393.144H394.955L399.011 380.298H370.077L366.021 393.144Z" fill="black"/>
<path d="M408.021 421.5H352.646V428.19H408.021V421.5Z" fill="#407BFF"/>
<path opacity="0.5" d="M408.021 421.5H352.646V428.19H408.021V421.5Z" fill="white"/>
<path opacity="0.6" d="M380.333 421.5H352.646V428.19H380.333V421.5Z" fill="white"/>
<path d="M622.561 370.741L612.477 255.497L454.659 269.411H295.63L135.375 255.497L132.287 258.585L142.369 373.829L302.619 387.743H461.656L619.473 373.829L622.561 370.741Z" fill="#407BFF"/>
<path opacity="0.2" d="M622.561 370.741L612.477 255.497L454.659 269.411H295.63L135.375 255.497L145.457 370.741L305.707 384.655H464.744L622.561 370.741Z" fill="white"/>
<path opacity="0.8" d="M608.306 260.558L459.67 273.569L468.946 379.549L617.582 366.539L608.306 260.558Z" fill="white"/>
<path opacity="0.5" d="M487.549 284.309C486.646 284.388 485.849 283.715 485.769 282.805C485.688 281.894 486.357 281.093 487.26 281.013L524.64 277.718C525.544 277.638 526.34 278.312 526.421 279.222C526.501 280.133 525.832 280.936 524.929 281.014L487.549 284.309Z" fill="#263238"/>
<g opacity="0.5">
<path opacity="0.5" d="M487.549 284.309C486.646 284.388 485.849 283.715 485.769 282.805C485.688 281.894 486.357 281.093 487.26 281.013L524.64 277.718C525.544 277.638 526.34 278.312 526.421 279.222C526.501 280.133 525.832 280.936 524.929 281.014L487.549 284.309Z" fill="white"/>
</g>
<path opacity="0.5" d="M548.359 278.948C547.456 279.029 546.659 278.354 546.579 277.445C546.499 276.534 547.167 275.731 548.071 275.652L585.451 272.357C586.354 272.277 587.151 272.952 587.231 273.861C587.311 274.772 586.643 275.575 585.74 275.654L548.359 278.948Z" fill="#263238"/>
<g opacity="0.5">
<path opacity="0.5" d="M548.359 278.948C547.456 279.029 546.659 278.354 546.579 277.445C546.499 276.534 547.167 275.731 548.071 275.652L585.451 272.357C586.354 272.277 587.151 272.952 587.231 273.861C587.311 274.772 586.643 275.575 585.74 275.654L548.359 278.948Z" fill="white"/>
</g>
<path d="M527.236 304.415C528.159 314.961 520.424 324.257 509.959 325.18C499.493 326.104 490.263 318.302 489.34 307.756C488.417 297.211 496.154 287.914 506.617 286.991C517.081 286.069 526.313 293.869 527.236 304.415Z" fill="#407BFF"/>
<g opacity="0.9">
<path d="M500.049 315.992L497.889 316.182C497.332 316.231 496.839 315.814 496.79 315.252L495.896 305.037C495.846 304.475 496.259 303.98 496.818 303.93L498.978 303.74C499.535 303.691 500.027 304.108 500.077 304.67L500.971 314.885C501.02 315.447 500.608 315.943 500.049 315.992Z" fill="white"/>
<path d="M502.878 302.984C504.269 301.6 507.755 297.715 507.738 293.528C507.73 291.473 510.564 290.602 511.594 292.378C512.366 293.707 512.548 296.26 511.155 301.021L516.493 300.55C517.919 300.425 519.284 301.163 519.968 302.431C520.368 303.17 520.498 304.029 520.339 304.855L518.779 312.918C518.432 314.712 516.812 315.964 515.001 315.837L504.791 315.118C503.945 315.058 503.267 314.388 503.193 313.535L502.39 304.356C502.343 303.845 502.516 303.343 502.878 302.984Z" fill="white"/>
</g>
<path opacity="0.9" d="M588.046 299.054C587.123 288.509 577.893 280.709 567.428 281.63C556.962 282.554 549.227 291.85 550.15 302.396C551.074 312.941 560.304 320.741 570.769 319.82C581.234 318.896 588.97 309.6 588.046 299.054Z" fill="white"/>
<path d="M559.268 292.412L557.108 292.602C556.55 292.652 556.136 293.147 556.186 293.709L557.08 303.924C557.129 304.486 557.622 304.903 558.179 304.854L560.339 304.664C560.898 304.614 561.31 304.119 561.261 303.557L560.367 293.342C560.318 292.78 559.825 292.364 559.268 292.412Z" fill="#407BFF"/>
<path d="M564.312 304.726C565.922 305.845 570.029 309.06 570.74 313.185C571.089 315.209 574.03 315.571 574.735 313.644C575.264 312.199 575.001 309.654 572.804 305.21L578.142 304.739C579.568 304.613 580.783 303.648 581.236 302.28C581.501 301.482 581.481 300.614 581.18 299.828L578.245 292.162C577.592 290.456 575.779 289.506 574.018 289.95L564.088 292.445C563.265 292.652 562.714 293.431 562.788 294.282L563.591 303.461C563.634 303.971 563.892 304.435 564.312 304.726Z" fill="#407BFF"/>
<path d="M503.348 354.214L492.074 355.207L493.224 368.248L504.497 367.254L503.348 354.214Z" fill="#407BFF"/>
<path opacity="0.9" d="M514.866 356.072L503.593 357.065L504.492 367.262L515.765 366.268L514.866 356.072Z" fill="white"/>
<path opacity="0.9" d="M536.254 340.829L524.981 341.822L527.047 365.267L538.321 364.274L536.254 340.829Z" fill="white"/>
<path opacity="0.9" d="M558.555 336.05L547.282 337.043L549.594 363.278L560.868 362.284L558.555 336.05Z" fill="white"/>
<path opacity="0.9" d="M581.611 339.913L570.338 340.906L572.135 361.3L583.409 360.306L581.611 339.913Z" fill="white"/>
<path d="M525.166 343.929L513.892 344.923L515.773 366.261L527.046 365.267L525.166 343.929Z" fill="#407BFF"/>
<path d="M547.032 334.249L535.759 335.242L538.318 364.281L549.591 363.287L547.032 334.249Z" fill="#407BFF"/>
<path d="M570.074 337.848L558.801 338.841L560.867 362.286L572.141 361.293L570.074 337.848Z" fill="#407BFF"/>
<path d="M591.48 322.88L580.207 323.874L583.417 360.298L594.691 359.304L591.48 322.88Z" fill="#407BFF"/>
<path opacity="0.8" d="M140.448 260.535L149.72 366.515L300.639 379.617L291.367 273.639L140.448 260.535Z" fill="white"/>
<path d="M248.232 309.603L167.238 302.57C163.826 302.274 160.82 299.289 160.523 295.903L159.503 284.232C159.206 280.846 161.732 278.342 165.145 278.638L246.138 285.671C249.55 285.967 252.557 288.952 252.852 292.338L253.872 304.009C254.17 307.394 251.644 309.899 248.232 309.603Z" fill="white"/>
<path d="M180.628 291.858C180.983 295.908 177.961 298.905 173.879 298.55C169.798 298.196 166.202 294.625 165.847 290.573C165.494 286.523 168.514 283.526 172.596 283.882C176.678 284.237 180.274 287.808 180.628 291.858Z" fill="#407BFF"/>
<path d="M190.087 288.561C189.2 288.484 188.421 287.709 188.343 286.829C188.266 285.949 188.922 285.299 189.809 285.376L239.448 289.685C240.334 289.763 241.116 290.538 241.191 291.416C241.269 292.296 240.612 292.946 239.726 292.869L190.087 288.561Z" fill="#263238"/>
<path d="M191.092 300.044C190.205 299.967 189.426 299.192 189.348 298.312C189.271 297.432 189.927 296.782 190.814 296.859L219.889 299.383C220.775 299.46 221.555 300.235 221.632 301.116C221.709 301.996 221.053 302.646 220.167 302.568L191.092 300.044Z" fill="#263238"/>
<path d="M190.588 294.303C189.702 294.226 188.922 293.451 188.845 292.573C188.768 291.693 189.424 291.043 190.31 291.12L232.415 294.776C233.302 294.853 234.083 295.628 234.158 296.507C234.236 297.387 233.579 298.037 232.693 297.96L190.588 294.303Z" fill="#263238"/>
<g opacity="0.5">
<path d="M190.087 288.561C189.2 288.484 188.421 287.709 188.343 286.829C188.266 285.949 188.922 285.299 189.809 285.376L239.448 289.685C240.334 289.763 241.116 290.538 241.191 291.416C241.269 292.296 240.612 292.946 239.726 292.869L190.087 288.561Z" fill="white"/>
<path d="M191.092 300.044C190.205 299.967 189.426 299.192 189.348 298.312C189.271 297.432 189.927 296.782 190.814 296.859L219.889 299.383C220.775 299.46 221.555 300.235 221.632 301.116C221.709 301.996 221.053 302.646 220.167 302.568L191.092 300.044Z" fill="white"/>
<path d="M190.588 294.303C189.702 294.226 188.922 293.451 188.845 292.573C188.768 291.693 189.424 291.043 190.31 291.12L232.415 294.776C233.302 294.853 234.083 295.628 234.158 296.507C234.236 297.387 233.579 298.037 232.693 297.96L190.588 294.303Z" fill="white"/>
</g>
<path d="M252.462 274.601L242.993 273.879C241.692 273.781 240.739 274.749 240.867 276.043L241.642 283.92C241.769 285.211 242.922 286.34 244.222 286.441L246.963 286.659L248.306 288.581C248.762 289.233 249.676 289.298 250.001 288.7L250.965 286.931L253.69 287.147C254.995 287.251 255.952 286.281 255.824 284.984L255.05 277.122C254.922 275.828 253.764 274.699 252.462 274.601Z" fill="#407BFF"/>
<g opacity="0.9">
<path d="M245.178 281C244.363 280.202 243.966 279.373 243.903 278.655C243.796 277.431 244.546 276.686 245.794 276.795C246.957 276.895 247.4 277.465 248.149 278.297C248.762 277.582 249.112 277.082 250.275 277.184C251.522 277.292 252.416 278.18 252.523 279.404C252.586 280.122 252.33 280.895 251.643 281.562L248.689 284.476L245.178 281Z" fill="white"/>
</g>
<path d="M270.37 339.583L189.376 332.55C185.964 332.253 182.958 329.269 182.661 325.883L181.641 314.212C181.344 310.826 183.87 308.321 187.283 308.618L268.276 315.651C271.688 315.947 274.695 318.932 274.99 322.318L276.01 333.989C276.307 337.373 273.781 339.879 270.37 339.583Z" fill="white"/>
<path d="M202.766 321.838C203.119 325.888 200.099 328.884 196.017 328.529C191.935 328.174 188.34 324.604 187.985 320.553C187.632 316.503 190.652 313.506 194.734 313.861C198.815 314.216 202.411 317.788 202.766 321.838Z" fill="#407BFF"/>
<path d="M212.224 318.541C211.338 318.464 210.557 317.689 210.481 316.809C210.404 315.929 211.06 315.279 211.947 315.356L261.586 319.665C262.472 319.742 263.254 320.517 263.329 321.397C263.407 322.278 262.75 322.928 261.864 322.85L212.224 318.541Z" fill="#263238"/>
<path d="M213.228 330.024C212.342 329.947 211.56 329.171 211.485 328.291C211.408 327.411 212.064 326.761 212.95 326.838L242.024 329.363C242.91 329.44 243.691 330.215 243.767 331.095C243.844 331.974 243.188 332.625 242.302 332.548L213.228 330.024Z" fill="#263238"/>
<path d="M212.726 324.283C211.84 324.206 211.06 323.431 210.983 322.551C210.906 321.671 211.562 321.021 212.448 321.098L254.553 324.754C255.439 324.831 256.219 325.607 256.296 326.485C256.374 327.365 255.717 328.015 254.831 327.938L212.726 324.283Z" fill="#263238"/>
<g opacity="0.5">
<path d="M212.224 318.541C211.338 318.464 210.557 317.689 210.481 316.809C210.404 315.929 211.06 315.279 211.947 315.356L261.586 319.665C262.472 319.742 263.254 320.517 263.329 321.397C263.407 322.278 262.75 322.928 261.864 322.85L212.224 318.541Z" fill="white"/>
<path d="M213.228 330.024C212.342 329.947 211.56 329.171 211.485 328.291C211.408 327.411 212.064 326.761 212.95 326.838L242.024 329.363C242.91 329.44 243.691 330.215 243.767 331.095C243.844 331.974 243.188 332.625 242.302 332.548L213.228 330.024Z" fill="white"/>
<path d="M212.726 324.283C211.84 324.206 211.06 323.431 210.983 322.551C210.906 321.671 211.562 321.021 212.448 321.098L254.553 324.754C255.439 324.831 256.219 325.607 256.296 326.485C256.374 327.365 255.717 328.015 254.831 327.938L212.726 324.283Z" fill="white"/>
</g>
<path d="M274.599 304.58L265.13 303.859C263.828 303.76 262.875 304.729 263.003 306.022L263.779 313.9C263.905 315.191 265.059 316.319 266.359 316.421L269.099 316.639L270.442 318.561C270.898 319.213 271.812 319.278 272.138 318.68L273.101 316.911L275.826 317.127C277.131 317.23 278.088 316.261 277.96 314.964L277.187 307.102C277.058 305.808 275.901 304.679 274.599 304.58Z" fill="#407BFF"/>
<g opacity="0.9">
<path d="M267.316 310.979C266.501 310.182 266.104 309.351 266.041 308.633C265.934 307.409 266.684 306.665 267.932 306.773C269.095 306.873 269.538 307.443 270.287 308.275C270.9 307.56 271.25 307.06 272.413 307.162C273.66 307.27 274.554 308.158 274.661 309.382C274.724 310.099 274.468 310.874 273.781 311.539L270.827 314.453L267.316 310.979Z" fill="white"/>
</g>
<path d="M259.786 368.626L178.792 361.594C175.38 361.298 172.374 358.313 172.077 354.927L171.057 343.256C170.76 339.87 173.286 337.366 176.698 337.662L257.692 344.694C261.104 344.99 264.11 347.975 264.405 351.361L265.426 363.032C265.724 366.418 263.198 368.922 259.786 368.626Z" fill="white"/>
<path d="M192.182 350.88C192.537 354.93 189.515 357.927 185.433 357.574C181.351 357.218 177.755 353.649 177.401 349.597C177.047 345.547 180.068 342.55 184.15 342.906C188.232 343.259 191.828 346.83 192.182 350.88Z" fill="#407BFF"/>
<path d="M201.64 347.584C200.754 347.507 199.973 346.732 199.897 345.853C199.82 344.973 200.476 344.323 201.362 344.4L251.002 348.71C251.888 348.787 252.668 349.562 252.745 350.44C252.822 351.32 252.166 351.97 251.28 351.893L201.64 347.584Z" fill="#263238"/>
<path d="M202.645 359.068C201.759 358.991 200.979 358.216 200.902 357.338C200.825 356.457 201.481 355.807 202.367 355.885L242.332 359.354C243.219 359.431 243.998 360.206 244.075 361.085C244.153 361.965 243.496 362.615 242.61 362.538L202.645 359.068Z" fill="#263238"/>
<path d="M202.144 353.326C201.257 353.249 200.476 352.474 200.4 351.595C200.323 350.715 200.979 350.065 201.866 350.142L237.747 353.258C238.633 353.335 239.413 354.111 239.49 354.989C239.567 355.869 238.911 356.519 238.025 356.442L202.144 353.326Z" fill="#263238"/>
<g opacity="0.5">
<path d="M201.64 347.584C200.754 347.507 199.973 346.732 199.897 345.853C199.82 344.973 200.476 344.323 201.362 344.4L251.002 348.71C251.888 348.787 252.668 349.562 252.745 350.44C252.822 351.32 252.166 351.97 251.28 351.893L201.64 347.584Z" fill="white"/>
<path d="M202.645 359.068C201.759 358.991 200.979 358.216 200.902 357.338C200.825 356.457 201.481 355.807 202.367 355.885L242.332 359.354C243.219 359.431 243.998 360.206 244.075 361.085C244.153 361.965 243.496 362.615 242.61 362.538L202.645 359.068Z" fill="white"/>
<path d="M202.144 353.326C201.257 353.249 200.476 352.474 200.4 351.595C200.323 350.715 200.979 350.065 201.866 350.142L237.747 353.258C238.633 353.335 239.413 354.111 239.49 354.989C239.567 355.869 238.911 356.519 238.025 356.442L202.144 353.326Z" fill="white"/>
</g>
<path d="M264.288 336.736L254.819 336.015C253.517 335.916 252.564 336.884 252.693 338.178L253.468 346.055C253.594 347.346 254.748 348.475 256.048 348.577L258.788 348.794L260.132 350.717C260.587 351.368 261.501 351.433 261.827 350.836L262.79 349.066L265.516 349.282C266.82 349.386 267.777 348.416 267.649 347.119L266.876 339.257C266.748 337.965 265.59 336.835 264.288 336.736Z" fill="#407BFF"/>
<path opacity="0.9" d="M257.064 345.571C256.678 345.537 256.336 345.198 256.302 344.816L256.071 342.164C256.037 341.78 256.324 341.497 256.71 341.53C257.096 341.564 257.437 341.902 257.471 342.285L257.703 344.936C257.737 345.32 257.451 345.603 257.064 345.571Z" fill="white"/>
<path opacity="0.9" d="M258.379 341.541C258.845 341.172 260.014 340.111 260.011 338.751C260.01 338.084 260.959 337.963 261.304 338.599C261.561 339.077 261.622 339.915 261.152 341.382L262.94 341.538C263.417 341.579 263.874 341.897 264.103 342.348C264.236 342.612 264.28 342.898 264.226 343.157L263.7 345.686C263.582 346.25 263.039 346.562 262.434 346.417L259.015 345.594C258.731 345.526 258.506 345.268 258.481 344.987L258.216 341.959C258.199 341.789 258.257 341.637 258.379 341.541Z" fill="white"/>
<path opacity="0.8" d="M300.663 274.043L309.935 380.023H459.707L450.436 274.043H300.663Z" fill="white"/>
<g opacity="0.2">
<path d="M305.263 379.529C304.624 379.529 304.06 379.01 304.003 378.371L301.083 345.002C301.028 344.363 301.5 343.844 302.139 343.844C302.778 343.844 303.342 344.363 303.399 345.002L306.319 378.371C306.376 379.01 305.902 379.529 305.263 379.529Z" fill="black"/>
</g>
<g opacity="0.2">
<path d="M301.803 339.984C301.163 339.984 300.6 339.465 300.543 338.826L296.4 291.476C296.345 290.837 296.817 290.318 297.456 290.318C298.096 290.318 298.659 290.837 298.716 291.476L302.859 338.826C302.916 339.465 302.443 339.984 301.803 339.984Z" fill="black"/>
</g>
<g opacity="0.2">
<path d="M297.143 286.716C296.504 286.716 295.94 286.197 295.883 285.558L295.02 275.695C294.964 275.056 295.437 274.537 296.076 274.537C296.715 274.537 297.279 275.056 297.336 275.695L298.199 285.558C298.256 286.197 297.782 286.716 297.143 286.716Z" fill="black"/>
</g>
<g opacity="0.2">
<path d="M464.293 379.529C463.654 379.529 463.09 379.01 463.033 378.371L458.786 329.818C458.73 329.179 459.203 328.66 459.842 328.66C460.481 328.66 461.045 329.179 461.102 329.818L465.349 378.371C465.405 379.01 464.932 379.529 464.293 379.529Z" fill="black"/>
</g>
<g opacity="0.2">
<path d="M459.55 325.315C458.911 325.315 458.347 324.796 458.29 324.157L454.981 286.329C454.926 285.689 455.398 285.171 456.037 285.171C456.677 285.171 457.24 285.689 457.297 286.329L460.606 324.157C460.662 324.797 460.189 325.315 459.55 325.315Z" fill="black"/>
</g>
<g opacity="0.2">
<path d="M455.641 280.627C455.001 280.627 454.438 280.108 454.381 279.469L454.05 275.695C453.995 275.056 454.467 274.537 455.106 274.537C455.746 274.537 456.309 275.056 456.366 275.695L456.697 279.469C456.752 280.108 456.28 280.627 455.641 280.627Z" fill="black"/>
</g>
<path d="M432.969 320.7C432.891 319.819 433.541 319.108 434.421 319.108C435.301 319.108 436.077 319.821 436.154 320.7L437.985 341.641C438.062 342.521 437.412 343.233 436.532 343.233C435.653 343.233 434.877 342.519 434.801 341.641L432.969 320.7Z" fill="#407BFF"/>
<path d="M311.931 282.956C311.051 282.956 310.276 282.243 310.199 281.365C310.122 280.484 310.773 279.773 311.652 279.773H348.033C348.913 279.773 349.688 280.486 349.764 281.365C349.841 282.245 349.191 282.956 348.311 282.956H311.931Z" fill="#263238"/>
<path d="M312.936 294.439C312.058 294.439 311.281 293.726 311.206 292.847C311.128 291.967 311.778 291.255 312.658 291.255H342.864C343.742 291.255 344.519 291.969 344.595 292.847C344.672 293.727 344.02 294.439 343.142 294.439H312.936Z" fill="#263238"/>
<path d="M312.435 288.697C311.554 288.697 310.779 287.984 310.702 287.105C310.625 286.225 311.277 285.513 312.155 285.513H336.184C337.064 285.513 337.839 286.227 337.917 287.105C337.994 287.985 337.342 288.697 336.464 288.697H312.435Z" fill="#263238"/>
<g opacity="0.5">
<path d="M311.931 282.956C311.051 282.956 310.276 282.243 310.199 281.365C310.122 280.484 310.773 279.773 311.652 279.773H348.033C348.913 279.773 349.688 280.486 349.764 281.365C349.841 282.245 349.191 282.956 348.311 282.956H311.931Z" fill="white"/>
<path d="M312.936 294.439C312.058 294.439 311.281 293.726 311.206 292.847C311.128 291.967 311.778 291.255 312.658 291.255H342.864C343.742 291.255 344.519 291.969 344.595 292.847C344.672 293.727 344.02 294.439 343.142 294.439H312.936Z" fill="white"/>
<path d="M312.435 288.697C311.554 288.697 310.779 287.984 310.702 287.105C310.625 286.225 311.277 285.513 312.155 285.513H336.184C337.064 285.513 337.839 286.227 337.917 287.105C337.994 287.985 337.342 288.697 336.464 288.697H312.435Z" fill="white"/>
</g>
<path d="M441.66 307.653C442.058 312.203 438.692 315.893 434.14 315.893C429.589 315.893 425.577 312.205 425.181 307.653C424.782 303.103 428.148 299.413 432.7 299.413C437.25 299.414 441.261 303.103 441.66 307.653Z" fill="#407BFF"/>
<path d="M429.365 311.584C428.863 311.584 428.42 311.176 428.377 310.674L428.072 307.205C428.029 306.703 428.4 306.296 428.902 306.296C429.403 306.296 429.846 306.703 429.89 307.205L430.194 310.674C430.239 311.178 429.867 311.584 429.365 311.584Z" fill="white"/>
<path d="M431.069 306.121C431.675 305.581 433.192 304.049 433.186 302.257C433.183 301.377 434.415 301.111 434.863 301.909C435.198 302.508 435.277 303.608 434.67 305.593H436.991C437.611 305.593 438.204 305.961 438.501 306.53C438.673 306.862 438.731 307.234 438.661 307.583L437.98 310.977C437.829 311.732 437.123 312.208 436.336 312.084L431.895 311.391C431.528 311.334 431.233 311.02 431.201 310.653L430.855 306.691C430.836 306.47 430.912 306.262 431.069 306.121Z" fill="white"/>
<path d="M445.774 354.688C445.376 350.137 441.365 346.447 436.815 346.447C432.264 346.447 428.897 350.136 429.295 354.688C429.694 359.238 433.705 362.928 438.255 362.928C442.805 362.928 446.173 359.238 445.774 354.688Z" fill="#407BFF"/>
<path d="M432.792 350.756C432.291 350.756 431.918 351.164 431.963 351.666L432.267 355.135C432.312 355.637 432.754 356.045 433.256 356.045C433.757 356.045 434.129 355.637 434.085 355.135L433.781 351.666C433.737 351.164 433.294 350.756 432.792 350.756Z" fill="white"/>
<path d="M435.451 356.219C436.151 356.76 437.935 358.291 438.244 360.084C438.396 360.964 439.674 361.229 439.981 360.431C440.211 359.832 440.097 358.733 439.143 356.747H441.463C442.084 356.747 442.612 356.38 442.81 355.81C442.926 355.478 442.916 355.106 442.787 354.759L441.513 351.365C441.229 350.61 440.441 350.134 439.676 350.258L435.357 350.951C434.999 351.008 434.759 351.322 434.792 351.689L435.138 355.649C435.158 355.87 435.269 356.079 435.451 356.219Z" fill="white"/>
<path d="M412.427 362.013C427.996 345.748 426.227 318.789 408.476 301.797C390.725 284.806 363.714 284.216 348.145 300.481C332.576 316.745 334.345 343.705 352.096 360.696C369.847 377.688 396.858 378.277 412.427 362.013Z" fill="#407BFF"/>
<path opacity="0.6" d="M407.757 301.123C399.376 293.415 388.311 288.649 376.551 288.649C353.029 288.649 335.63 307.718 337.688 331.237H380.276L407.757 301.123Z" fill="white"/>
<path opacity="0.2" d="M347.527 301.123L380.276 331.237L376.551 288.649C364.79 288.649 354.56 293.417 347.527 301.123Z" fill="black"/>
<path d="M347.527 301.123L380.276 331.237L376.551 288.649C364.79 288.649 354.56 293.417 347.527 301.123Z" fill="#407BFF"/>
<path opacity="0.3" d="M347.527 301.123L380.276 331.237L376.551 288.649C364.79 288.649 354.56 293.417 347.527 301.123Z" fill="black"/>
<path opacity="0.3" d="M384.002 373.827C407.523 373.827 424.923 354.759 422.865 331.239H380.276L352.796 361.353C361.177 369.061 372.241 373.827 384.002 373.827Z" fill="white"/>
<path d="M411.873 366.547C412.373 372.265 408.144 376.9 402.427 376.9C396.709 376.9 391.67 372.265 391.169 366.547C390.669 360.83 394.898 356.195 400.616 356.195C406.331 356.195 411.371 360.83 411.873 366.547Z" fill="#263238"/>
<path d="M397.926 368.269C396.981 367.415 396.521 366.478 396.448 365.641C396.323 364.211 397.192 363.258 398.638 363.258C399.984 363.258 400.5 363.882 401.366 364.785C402.076 363.882 402.481 363.258 403.827 363.258C405.272 363.258 406.308 364.211 406.433 365.641C406.506 366.478 406.211 367.415 405.414 368.269L401.996 371.997L397.926 368.269Z" fill="#407BFF"/>
<path d="M353.469 314.672C353.97 320.389 349.741 325.024 344.023 325.024C338.306 325.024 333.266 320.389 332.766 314.672C332.266 308.954 336.495 304.319 342.212 304.319C347.93 304.319 352.969 308.954 353.469 314.672Z" fill="#263238"/>
<path d="M349.637 314.672C349.952 318.273 347.289 321.192 343.687 321.192C340.086 321.192 336.912 318.273 336.595 314.672C336.28 311.071 338.944 308.152 342.546 308.152C346.148 308.152 349.322 311.071 349.637 314.672Z" fill="#407BFF"/>
<path opacity="0.5" d="M349.637 314.672C349.952 318.273 347.289 321.192 343.687 321.192C340.086 321.192 336.912 318.273 336.595 314.672C336.28 311.071 338.944 308.152 342.546 308.152C346.148 308.152 349.322 311.071 349.637 314.672Z" fill="white"/>
<path d="M345.505 316.054C344.286 317.277 342.407 317.28 340.971 316.054C340.398 315.566 339.672 316.356 340.248 316.846C342.175 318.49 344.729 318.49 346.369 316.846C346.856 316.356 345.993 315.566 345.505 316.054Z" fill="#407BFF"/>
<path d="M341.374 312.549C341.436 313.258 341.239 313.834 340.934 313.834C340.628 313.834 340.33 313.259 340.268 312.549C340.206 311.839 340.404 311.264 340.708 311.264C341.014 311.264 341.312 311.839 341.374 312.549Z" fill="#407BFF"/>
<path d="M345.595 312.549C345.657 313.258 345.461 313.834 345.155 313.834C344.849 313.834 344.551 313.259 344.49 312.549C344.428 311.839 344.625 311.264 344.93 311.264C345.235 311.264 345.533 311.839 345.595 312.549Z" fill="#407BFF"/>
<path d="M416.681 305.261C417.181 310.979 412.952 315.614 407.235 315.614C401.517 315.614 396.478 310.979 395.977 305.261C395.477 299.544 399.706 294.909 405.423 294.909C411.141 294.909 416.181 299.544 416.681 305.261Z" fill="#263238"/>
<path d="M412.85 305.261C413.165 308.862 410.502 311.782 406.9 311.782C403.299 311.782 400.123 308.862 399.809 305.261C399.494 301.661 402.158 298.741 405.76 298.741C409.359 298.741 412.535 301.661 412.85 305.261Z" fill="#407BFF"/>
<path opacity="0.5" d="M412.85 305.261C413.165 308.862 410.502 311.782 406.9 311.782C403.299 311.782 400.123 308.862 399.809 305.261C399.494 301.661 402.158 298.741 405.76 298.741C409.359 298.741 412.535 301.661 412.85 305.261Z" fill="white"/>
<path d="M404.347 308.516C405.567 307.293 407.446 307.29 408.882 308.516C409.455 309.004 410.181 308.213 409.605 307.724C407.678 306.08 405.124 306.08 403.484 307.724C402.996 308.213 403.859 309.004 404.347 308.516Z" fill="#407BFF"/>
<path d="M404.585 303.138C404.647 303.849 404.449 304.423 404.145 304.423C403.839 304.423 403.541 303.849 403.48 303.138C403.418 302.43 403.615 301.854 403.92 301.854C404.225 301.854 404.523 302.428 404.585 303.138Z" fill="#407BFF"/>
<path d="M408.806 303.138C408.868 303.849 408.67 304.423 408.366 304.423C408.061 304.423 407.763 303.849 407.701 303.138C407.639 302.43 407.835 301.854 408.141 301.854C408.447 301.854 408.745 302.428 408.806 303.138Z" fill="#407BFF"/>
<path d="M354.331 346.447C354.831 352.165 350.602 356.8 344.885 356.8C339.167 356.8 334.128 352.165 333.627 346.447C333.127 340.73 337.356 336.095 343.074 336.095C348.79 336.096 353.831 340.73 354.331 346.447Z" fill="#263238"/>
<path d="M350.499 346.447C350.814 350.048 348.15 352.968 344.548 352.968C340.948 352.968 337.772 350.048 337.458 346.447C337.143 342.847 339.807 339.927 343.409 339.927C347.009 339.927 350.184 342.847 350.499 346.447Z" fill="#407BFF"/>
<path opacity="0.5" d="M350.499 346.447C350.814 350.048 348.15 352.968 344.548 352.968C340.948 352.968 337.772 350.048 337.458 346.447C337.143 342.847 339.807 339.927 343.409 339.927C347.009 339.927 350.184 342.847 350.499 346.447Z" fill="white"/>
<path d="M340.924 348.515C342.868 350.301 345.765 350.301 347.395 348.515L347.3 347.425H340.829L340.924 348.515Z" fill="#407BFF"/>
<path d="M343.117 344.493C342.169 343.742 341.093 343.742 340.277 344.493C339.896 344.843 340.545 345.436 340.924 345.087C341.408 344.642 342.014 344.642 342.575 345.087C343.015 345.435 343.56 344.843 343.117 344.493Z" fill="#407BFF"/>
<path d="M347.338 344.493C346.39 343.742 345.314 343.742 344.499 344.493C344.117 344.843 344.766 345.436 345.146 345.087C345.629 344.642 346.236 344.642 346.796 345.087C347.236 345.435 347.781 344.843 347.338 344.493Z" fill="#407BFF"/>
<path d="M461.474 420.406H413.59V428.19H509.358V424.991L461.474 420.406Z" fill="#407BFF"/>
<path opacity="0.6" d="M461.474 420.406H413.59V428.19H509.358V424.991L461.474 420.406Z" fill="white"/>
<path opacity="0.6" d="M461.474 428.19H413.59V420.406L461.474 424.991V428.19Z" fill="white"/>
<g opacity="0.5">
<path d="M614.875 335.831L608.287 260.535L599.372 261.321L561.178 371.485L603.817 367.725L614.875 335.831Z" fill="white"/>
</g>
<g opacity="0.5">
<path d="M412.111 380.023L448.853 274.043H407.519L370.775 380.023H412.111Z" fill="white"/>
</g>
<path opacity="0.5" d="M262.588 376.314L292.741 289.342L291.367 273.638L257.859 270.728L222.461 372.83L262.588 376.314Z" fill="white"/>
<path d="M536.965 443.412H234.632C233.162 443.412 231.972 442.222 231.972 440.752V434.188H539.623V440.752C539.623 442.222 538.433 443.412 536.965 443.412Z" fill="#407BFF"/>
<path opacity="0.2" d="M536.965 443.412H234.632C233.162 443.412 231.972 442.222 231.972 440.752V434.188H539.623V440.752C539.623 442.222 538.433 443.412 536.965 443.412Z" fill="black"/>
<path opacity="0.3" d="M371.241 443.412H234.632C233.162 443.412 231.972 442.222 231.972 440.752V434.188H371.241V443.412Z" fill="white"/>
<path d="M545.889 435.91H225.706C223.974 435.91 222.569 434.505 222.569 432.773V431.327C222.569 429.595 223.974 428.19 225.706 428.19H545.889C547.621 428.19 549.026 429.595 549.026 431.327V432.773C549.026 434.505 547.621 435.91 545.889 435.91Z" fill="#407BFF"/>
<path opacity="0.4" d="M371.241 435.91H225.706C223.974 435.91 222.569 434.505 222.569 432.773V431.327C222.569 429.595 223.974 428.19 225.706 428.19H371.241V435.91Z" fill="white"/>
<path d="M354.998 629.04H248.213C241.812 629.04 236.604 623.832 236.604 617.429V455.042C236.604 448.64 241.812 443.434 248.213 443.434H354.998C361.399 443.434 366.609 448.642 366.609 455.042V617.429C366.609 623.83 361.401 629.04 354.998 629.04ZM248.213 449.61C245.218 449.61 242.78 452.046 242.78 455.042V617.429C242.78 620.424 245.218 622.864 248.213 622.864H354.998C357.995 622.864 360.433 620.426 360.433 617.429V455.042C360.433 452.046 357.995 449.61 354.998 449.61H248.213Z" fill="#263238"/>
<g opacity="0.4">
<path opacity="0.2" d="M354.998 629.04H248.213C241.812 629.04 236.604 623.832 236.604 617.429V455.042C236.604 448.64 241.812 443.434 248.213 443.434H354.998C361.399 443.434 366.609 448.642 366.609 455.042V617.429C366.609 623.83 361.401 629.04 354.998 629.04ZM248.213 449.61C245.218 449.61 242.78 452.046 242.78 455.042V617.429C242.78 620.424 245.218 622.864 248.213 622.864H354.998C357.995 622.864 360.433 620.426 360.433 617.429V455.042C360.433 452.046 357.995 449.61 354.998 449.61H248.213Z" fill="white"/>
</g>
<path opacity="0.2" d="M354.998 443.434H248.213C242.209 443.434 237.254 448.018 236.664 453.87H242.916C243.455 451.438 245.622 449.61 248.213 449.61H354.998C357.59 449.61 359.758 451.436 360.297 453.87H366.549C365.959 448.016 361.004 443.434 354.998 443.434Z" fill="black"/>
<path d="M521.219 629.04H414.434C408.033 629.04 402.825 623.832 402.825 617.429V455.042C402.825 448.64 408.033 443.434 414.434 443.434H521.219C527.62 443.434 532.83 448.642 532.83 455.042V617.429C532.83 623.83 527.622 629.04 521.219 629.04ZM414.434 449.61C411.439 449.61 409.001 452.046 409.001 455.042V617.429C409.001 620.424 411.439 622.864 414.434 622.864H521.219C524.216 622.864 526.654 620.426 526.654 617.429V455.042C526.654 452.046 524.216 449.61 521.219 449.61H414.434Z" fill="#263238"/>
<path opacity="0.1" d="M521.219 629.04H414.434C408.033 629.04 402.825 623.832 402.825 617.429V455.042C402.825 448.64 408.033 443.434 414.434 443.434H521.219C527.62 443.434 532.83 448.642 532.83 455.042V617.429C532.83 623.83 527.622 629.04 521.219 629.04ZM414.434 449.61C411.439 449.61 409.001 452.046 409.001 455.042V617.429C409.001 620.424 411.439 622.864 414.434 622.864H521.219C524.216 622.864 526.654 620.426 526.654 617.429V455.042C526.654 452.046 524.216 449.61 521.219 449.61H414.434Z" fill="white"/>
<path opacity="0.2" d="M521.219 443.434H414.434C408.43 443.434 403.475 448.018 402.885 453.87H409.137C409.676 451.438 411.842 449.61 414.434 449.61H521.219C523.811 449.61 525.979 451.436 526.518 453.87H532.77C532.18 448.016 527.225 443.434 521.219 443.434Z" fill="black"/>
<path d="M329.192 481.586H209.768C202.585 481.586 196.763 487.408 196.763 494.591V616.633C196.763 623.816 202.585 629.639 209.768 629.639H329.192C336.374 629.639 342.197 623.816 342.197 616.633V494.591C342.197 487.408 336.374 481.586 329.192 481.586Z" fill="#407BFF"/>
<path opacity="0.4" d="M329.192 481.586H209.768C202.585 481.586 196.763 487.408 196.763 494.591V616.633C196.763 623.816 202.585 629.639 209.768 629.639H329.192C336.374 629.639 342.197 623.816 342.197 616.633V494.591C342.197 487.408 336.374 481.586 329.192 481.586Z" fill="white"/>
<path opacity="0.1" d="M196.763 616.53V616.633C196.763 623.816 202.585 629.639 209.768 629.639H329.192C336.374 629.639 342.197 623.816 342.197 616.633V616.53H196.763Z" fill="black"/>
<path d="M329.192 629.639H296.084C288.901 629.639 283.078 623.816 283.078 616.633V494.591C283.078 487.408 288.901 481.586 296.084 481.586H329.192C336.374 481.586 342.197 487.408 342.197 494.591V616.633C342.197 623.816 336.374 629.639 329.192 629.639Z" fill="#407BFF"/>
<path opacity="0.3" d="M329.192 622.691C332.531 622.691 335.249 619.973 335.249 616.633V494.591C335.249 491.251 332.531 488.534 329.192 488.534H296.084C292.744 488.534 290.026 491.251 290.026 494.591V616.633C290.026 619.973 292.744 622.691 296.084 622.691H329.192Z" fill="white"/>
<path opacity="0.7" d="M330.78 498.186H294.496V507.836H330.78V498.186Z" fill="white"/>
<path opacity="0.7" d="M330.78 509.766H294.496V519.416H330.78V509.766Z" fill="white"/>
<path d="M312.638 563.171C316.812 563.171 320.196 559.787 320.196 555.613C320.196 551.439 316.812 548.055 312.638 548.055C308.464 548.055 305.08 551.439 305.08 555.613C305.08 559.787 308.464 563.171 312.638 563.171Z" fill="#407BFF"/>
<g opacity="0.9">
<path d="M314.395 554.117C315.844 555.687 314.869 558.349 312.638 558.358C310.401 558.368 309.442 555.678 310.881 554.117C311.602 553.336 310.435 552.162 309.711 552.948C307.308 555.553 308.922 560.013 312.637 560.013C316.355 560.013 317.965 555.553 315.563 552.948C314.842 552.164 313.673 553.336 314.395 554.117Z" fill="white"/>
<path d="M311.811 551.205C311.811 552.46 311.811 553.717 311.811 554.972C311.811 556.036 313.464 556.038 313.464 554.972C313.464 553.717 313.464 552.46 313.464 551.205C313.464 550.141 311.811 550.14 311.811 551.205Z" fill="white"/>
</g>
<path d="M298.326 580.274C299.605 580.274 300.642 579.237 300.642 577.958C300.642 576.679 299.605 575.642 298.326 575.642C297.046 575.642 296.01 576.679 296.01 577.958C296.01 579.237 297.046 580.274 298.326 580.274Z" fill="#407BFF"/>
<path d="M307.867 580.274C309.146 580.274 310.183 579.237 310.183 577.958C310.183 576.679 309.146 575.642 307.867 575.642C306.588 575.642 305.551 576.679 305.551 577.958C305.551 579.237 306.588 580.274 307.867 580.274Z" fill="#407BFF"/>
<path d="M317.409 580.274C318.688 580.274 319.725 579.237 319.725 577.958C319.725 576.679 318.688 575.642 317.409 575.642C316.13 575.642 315.093 576.679 315.093 577.958C315.093 579.237 316.13 580.274 317.409 580.274Z" fill="#407BFF"/>
<path d="M326.95 580.274C328.229 580.274 329.266 579.237 329.266 577.958C329.266 576.679 328.229 575.642 326.95 575.642C325.671 575.642 324.634 576.679 324.634 577.958C324.634 579.237 325.671 580.274 326.95 580.274Z" fill="#407BFF"/>
<path d="M303.097 588.509C304.376 588.509 305.413 587.473 305.413 586.193C305.413 584.914 304.376 583.877 303.097 583.877C301.817 583.877 300.781 584.914 300.781 586.193C300.781 587.473 301.817 588.509 303.097 588.509Z" fill="#407BFF"/>
<path d="M312.638 588.509C313.917 588.509 314.954 587.473 314.954 586.193C314.954 584.914 313.917 583.877 312.638 583.877C311.359 583.877 310.322 584.914 310.322 586.193C310.322 587.473 311.359 588.509 312.638 588.509Z" fill="#407BFF"/>
<path d="M322.18 588.509C323.459 588.509 324.496 587.473 324.496 586.193C324.496 584.914 323.459 583.877 322.18 583.877C320.901 583.877 319.864 584.914 319.864 586.193C319.864 587.473 320.901 588.509 322.18 588.509Z" fill="#407BFF"/>
<path d="M298.326 597.63C299.605 597.63 300.642 596.593 300.642 595.314C300.642 594.035 299.605 592.998 298.326 592.998C297.046 592.998 296.01 594.035 296.01 595.314C296.01 596.593 297.046 597.63 298.326 597.63Z" fill="#407BFF"/>
<path d="M307.867 597.63C309.146 597.63 310.183 596.593 310.183 595.314C310.183 594.035 309.146 592.998 307.867 592.998C306.588 592.998 305.551 594.035 305.551 595.314C305.551 596.593 306.588 597.63 307.867 597.63Z" fill="#407BFF"/>
<path d="M317.409 597.63C318.688 597.63 319.725 596.593 319.725 595.314C319.725 594.035 318.688 592.998 317.409 592.998C316.13 592.998 315.093 594.035 315.093 595.314C315.093 596.593 316.13 597.63 317.409 597.63Z" fill="#407BFF"/>
<path d="M326.95 597.63C328.229 597.63 329.266 596.593 329.266 595.314C329.266 594.035 328.229 592.998 326.95 592.998C325.671 592.998 324.634 594.035 324.634 595.314C324.634 596.593 325.671 597.63 326.95 597.63Z" fill="#407BFF"/>
<path d="M303.097 605.864C304.376 605.864 305.413 604.827 305.413 603.548C305.413 602.269 304.376 601.232 303.097 601.232C301.817 601.232 300.781 602.269 300.781 603.548C300.781 604.827 301.817 605.864 303.097 605.864Z" fill="#407BFF"/>
<path d="M312.638 605.864C313.917 605.864 314.954 604.827 314.954 603.548C314.954 602.269 313.917 601.232 312.638 601.232C311.359 601.232 310.322 602.269 310.322 603.548C310.322 604.827 311.359 605.864 312.638 605.864Z" fill="#407BFF"/>
<path d="M322.18 605.864C323.459 605.864 324.496 604.827 324.496 603.548C324.496 602.269 323.459 601.232 322.18 601.232C320.901 601.232 319.864 602.269 319.864 603.548C319.864 604.827 320.901 605.864 322.18 605.864Z" fill="#407BFF"/>
<path d="M298.326 614.986C299.605 614.986 300.642 613.949 300.642 612.67C300.642 611.391 299.605 610.354 298.326 610.354C297.046 610.354 296.01 611.391 296.01 612.67C296.01 613.949 297.046 614.986 298.326 614.986Z" fill="#407BFF"/>
<path d="M307.867 614.986C309.146 614.986 310.183 613.949 310.183 612.67C310.183 611.391 309.146 610.354 307.867 610.354C306.588 610.354 305.551 611.391 305.551 612.67C305.551 613.949 306.588 614.986 307.867 614.986Z" fill="#407BFF"/>
<path d="M317.409 614.986C318.688 614.986 319.725 613.949 319.725 612.67C319.725 611.391 318.688 610.354 317.409 610.354C316.13 610.354 315.093 611.391 315.093 612.67C315.093 613.949 316.13 614.986 317.409 614.986Z" fill="#407BFF"/>
<path d="M326.95 614.986C328.229 614.986 329.266 613.949 329.266 612.67C329.266 611.391 328.229 610.354 326.95 610.354C325.671 610.354 324.634 611.391 324.634 612.67C324.634 613.949 325.671 614.986 326.95 614.986Z" fill="#407BFF"/>
<path d="M509.718 413.224L500.39 409.019L487.316 414.473V420.982C487.316 420.982 507.615 420.305 507.61 420.337C507.61 420.337 530.506 427.96 538.961 426.788C547.417 425.614 574.345 388.087 574.345 388.087L560.816 376.243L535.059 412.95L509.718 413.224Z" fill="#FCC1BB"/>
<path opacity="0.1" d="M509.718 413.224L500.39 409.02L487.316 414.473V420.982C487.316 420.982 507.615 420.305 507.61 420.337C507.61 420.337 508.183 420.528 509.179 420.843L515.73 413.159L509.718 413.224Z" fill="black"/>
<path d="M551.71 386.913C551.71 386.913 561.076 370.259 567.06 364.982C570.693 361.778 575.756 360.78 579.174 360.492C581.324 360.309 583.163 362.014 583.18 364.171C583.227 370.753 581.512 385.074 567.971 399.813L551.71 386.913Z" fill="#263238"/>
<path d="M551.71 383.777C551.71 383.777 563.114 389.142 569.792 399.697L566.149 402.512C566.149 402.512 558.723 393.144 549.432 387.765L551.71 383.777Z" fill="#407BFF"/>
<path d="M528.825 323.653L524.203 330.916C524.203 330.916 526.612 332.693 529.983 331.484L528.825 323.653Z" fill="#EB827E"/>
<path d="M528.037 328.248C525.201 328.248 522.894 325.781 522.894 322.747C522.894 319.715 525.202 317.246 528.037 317.246C530.874 317.246 533.18 319.713 533.18 322.747C533.18 325.781 530.874 328.248 528.037 328.248ZM528.037 318.405C525.84 318.405 524.052 320.354 524.052 322.749C524.052 325.143 525.84 327.092 528.037 327.092C530.234 327.092 532.022 325.143 532.022 322.749C532.022 320.354 530.234 318.405 528.037 318.405Z" fill="#407BFF"/>
<path d="M526.039 322.642C526.03 323.579 526.506 324.348 527.12 324.356C527.735 324.364 528.281 323.572 528.266 322.661C528.25 321.75 527.799 320.956 527.183 320.958C526.567 320.958 526.059 321.706 526.039 322.642Z" fill="#1A2E35"/>
<path d="M562.207 316.787C562.62 329.246 563.064 334.52 557.412 341.47C548.464 348.848 533.492 349.716 529.368 337.62C525.65 326.74 525.601 308.238 537.266 302.09C545.582 297.711 555.872 300.901 560.253 309.217C561.482 311.555 562.15 314.147 562.207 316.787Z" fill="#FCC1BB"/>
<path opacity="0.2" d="M544.708 346.775L544.618 346.165C544.419 344.815 543.085 343.945 541.77 344.306L536.705 345.694C539.14 346.715 541.892 347.043 544.708 346.775Z" fill="#1A2E35"/>
<path d="M529.411 318.396C529.248 318.415 529.084 318.351 528.976 318.226C528.204 317.255 527.01 316.715 525.771 316.776C525.505 316.809 525.261 316.622 525.224 316.356C525.195 316.088 525.385 315.844 525.652 315.807C527.22 315.696 528.743 316.361 529.726 317.588C529.902 317.795 529.878 318.106 529.672 318.282L529.671 318.283C529.595 318.342 529.506 318.382 529.411 318.396Z" fill="#1A2E35"/>
<path d="M544.245 343.627L546.974 362.131L562.428 358.932L557.478 339.992L544.245 343.627Z" fill="#FCC1BB"/>
<path d="M528.763 306.686C534.02 316.698 537.664 307.54 536.699 315.611C535.732 323.68 538.632 326.295 538.632 326.295L549.218 342.083C549.778 342.918 550.853 343.193 551.773 342.79C554.52 341.585 556.302 341.849 557.281 342.248C557.968 342.527 558.74 342.445 559.295 341.953C561.686 339.838 567.358 333.776 569.1 322.659C572.514 300.876 555.775 297.555 555.775 297.555C546.474 295.622 548.858 285.764 543.329 285.765C539.114 285.767 540.355 292.704 540.355 292.704C540.355 292.704 535.841 289.323 533.223 290.474C529.842 291.961 532.841 298.9 532.841 298.9C532.841 298.9 523.609 296.87 528.763 306.686Z" fill="#1A2E35"/>
<path d="M539.647 320.431H524.202L524.946 318.887H539.647V320.431Z" fill="#407BFF"/>
<path d="M536.477 322.338C536.029 324.845 536.599 327.427 538.061 329.513C540.02 332.266 543.141 331.038 544.387 328.098C545.517 325.437 545.836 320.819 543 319.099C540.165 317.377 537.059 319.278 536.477 322.338Z" fill="#FFC3BD"/>
<path d="M540.076 355.364C540.076 355.364 549.998 345.986 560.406 346.744C567.482 347.258 569.67 356.136 569.67 356.136L540.076 355.364Z" fill="#263238"/>
<path opacity="0.2" d="M540.076 355.364C540.076 355.364 549.998 345.986 560.406 346.744C567.482 347.258 569.67 356.136 569.67 356.136L540.076 355.364Z" fill="white"/>
<path d="M546.778 468.85L525.034 362.689C524.163 358.438 527.037 354.535 531.303 354.18C544.941 353.042 572.443 351.943 581.639 360.384C603.074 380.062 604.774 470.394 604.774 470.394L546.778 468.85Z" fill="#263238"/>
<path opacity="0.5" d="M531.198 361.026C531.198 361.026 527.738 362.351 525.434 364.648L532.587 399.57C538.976 385.257 538.536 361.026 538.536 361.026H531.198Z" fill="black"/>
<path d="M466.374 411.894L457.149 407.282L444.218 413.265V420.406C444.218 420.406 464.295 419.664 464.29 419.699C464.29 419.699 486.936 428.063 495.298 426.775C503.662 425.489 530.296 384.315 530.296 384.315L516.914 371.32L491.438 411.592L466.374 411.894Z" fill="#FCC1BB"/>
<path d="M507.91 383.028C507.91 383.028 517.174 364.758 523.092 358.968C529.01 353.178 538.771 353.956 538.771 353.956C538.771 353.956 542.245 375.144 523.992 397.182L507.91 383.028Z" fill="#263238"/>
<path d="M507.91 379.586C507.91 379.586 519.189 385.473 525.794 397.053L522.192 400.141C522.192 400.141 514.845 389.865 505.658 383.962L507.91 379.586Z" fill="#263238"/>
<path opacity="0.2" d="M507.91 379.586C507.91 379.586 519.189 385.473 525.794 397.053L522.192 400.141C522.192 400.141 514.845 389.865 505.658 383.962L507.91 379.586Z" fill="white"/>
<path d="M540.527 584.745L545.818 610.38L556.255 608.836L553.746 583.878L540.527 584.745Z" fill="#FCC1BB"/>
<path opacity="0.2" d="M555.4 600.321L553.746 583.878L540.527 584.745L543.834 600.771L555.4 600.321Z" fill="black"/>
<path d="M602.46 468.078C602.46 468.078 607.76 495.87 589.618 495.87C571.476 495.87 547.346 501.8 547.346 501.8C547.346 501.8 554.294 508.399 555.838 592.501L540.784 593.142C540.784 593.142 515.779 498.218 520.712 487.787C527.66 473.096 563.637 468.078 563.637 468.078H602.46Z" fill="#407BFF"/>
<path opacity="0.2" d="M602.46 468.078C602.46 468.078 607.76 495.87 589.618 495.87C571.476 495.87 547.346 501.8 547.346 501.8C547.346 501.8 554.294 508.399 555.838 592.501L540.784 593.142C540.784 593.142 515.779 498.218 520.712 487.787C527.66 473.096 563.637 468.078 563.637 468.078H602.46Z" fill="black"/>
<path d="M537.593 588.638L558.06 588.124L557.407 596.616L540.235 597.351L537.593 588.638Z" fill="#407BFF"/>
<path opacity="0.5" d="M537.593 588.638L558.06 588.124L557.407 596.616L540.235 597.351L537.593 588.638Z" fill="white"/>
<path d="M541.119 611.994C539.769 612.156 538.342 612.077 537.825 611.549C537.551 611.237 537.507 610.788 537.71 610.427C537.855 610.106 538.121 609.856 538.448 609.727C540.204 609.01 544.257 610.722 544.434 610.797C544.535 610.841 544.598 610.941 544.59 611.051C544.583 611.159 544.51 611.251 544.408 611.287C543.335 611.619 542.234 611.855 541.119 611.994ZM539.137 610.087C538.97 610.104 538.807 610.146 538.652 610.211C538.442 610.272 538.272 610.428 538.191 610.631C538.038 610.975 538.124 611.122 538.208 611.2C538.797 611.847 541.541 611.535 543.534 611.043C542.14 610.448 540.649 610.126 539.137 610.087Z" fill="#407BFF"/>
<path d="M544.368 611.288C544.334 611.302 544.296 611.304 544.26 611.292C542.89 610.872 539.995 608.827 540.08 607.577C540.071 607.279 540.25 606.893 540.951 606.737C541.462 606.619 542 606.717 542.438 607.004C543.959 607.976 544.601 610.873 544.632 611.007C544.651 611.1 544.617 611.194 544.544 611.254C544.49 611.288 544.428 611.299 544.368 611.288ZM541.181 607.204L541.031 607.209C540.573 607.303 540.565 607.495 540.554 607.563C540.576 608.308 542.511 609.947 543.954 610.581C543.678 609.365 543.034 608.261 542.111 607.422C541.836 607.238 541.507 607.163 541.181 607.204Z" fill="#407BFF"/>
<path d="M545.336 609.632L557.203 608.208C557.651 608.154 558.076 608.418 558.225 608.843L561.53 618.24C561.829 619.07 561.397 619.987 560.566 620.287C560.46 620.325 560.348 620.352 560.237 620.367C555.951 620.806 552.119 621.028 546.794 621.675C540.51 622.432 542.194 622.992 534.817 623.983C530.372 624.576 528.95 619.614 530.807 619.138C539.316 617.014 539.901 614.298 542.863 610.805C543.514 610.123 544.394 609.706 545.336 609.632Z" fill="#407BFF"/>
<path d="M509.986 591.613L519.829 615.513L529.414 613.6L522.822 588.026L509.986 591.613Z" fill="#FCC1BB"/>
<path opacity="0.2" d="M527.22 605.086L522.822 588.026L509.986 591.613L516.386 607.15L527.22 605.086Z" fill="black"/>
<path d="M602.46 468.078C602.46 468.078 613.667 497.066 576.618 495.87C562.428 495.411 500.976 509.766 500.976 509.766C500.976 509.766 512.058 515.556 525.954 593.142L510.224 596.713C510.224 596.713 465.635 508.617 470.568 498.186C477.516 483.494 550.635 468.078 550.635 468.078H602.46Z" fill="#407BFF"/>
<path d="M508.296 595.714L526.952 591.726L528.882 599.446L510.998 603.564L508.296 595.714Z" fill="#407BFF"/>
<path opacity="0.5" d="M508.296 595.714L526.952 591.726L528.882 599.446L510.998 603.564L508.296 595.714Z" fill="white"/>
<path d="M513.905 616.606C512.554 616.768 511.127 616.688 510.61 616.161C510.337 615.849 510.292 615.4 510.496 615.039C510.642 614.718 510.906 614.467 511.234 614.339C512.989 613.623 517.042 615.334 517.22 615.409C517.32 615.452 517.384 615.553 517.377 615.662C517.37 615.77 517.297 615.863 517.195 615.899C516.121 616.229 515.02 616.467 513.905 616.606ZM511.922 614.697C511.756 614.714 511.592 614.756 511.438 614.821C511.228 614.883 511.058 615.039 510.976 615.242C510.823 615.585 510.91 615.732 510.993 615.812C511.583 616.459 514.326 616.147 516.32 615.655C514.927 615.06 513.436 614.736 511.922 614.697Z" fill="#407BFF"/>
<path d="M517.154 615.899C517.12 615.913 517.081 615.914 517.045 615.902C515.676 615.482 512.781 613.438 512.866 612.187C512.857 611.889 513.036 611.504 513.737 611.347C514.248 611.23 514.785 611.327 515.224 611.614C516.744 612.585 517.387 615.483 517.418 615.618C517.436 615.71 517.402 615.804 517.33 615.865C517.277 615.899 517.214 615.911 517.154 615.899ZM513.967 611.816L513.817 611.821C513.358 611.915 513.351 612.107 513.34 612.175C513.361 612.92 515.296 614.558 516.74 615.193C516.463 613.976 515.82 612.872 514.896 612.034C514.623 611.85 514.293 611.773 513.967 611.816Z" fill="#407BFF"/>
<path d="M518.122 614.242L529.989 612.817C530.437 612.763 530.861 613.027 531.011 613.451L534.315 622.848C534.615 623.68 534.182 624.596 533.352 624.895C533.245 624.934 533.134 624.96 533.023 624.976C528.737 625.414 524.904 625.637 519.579 626.283C513.295 627.04 514.98 627.601 507.602 628.592C503.157 629.185 501.735 624.222 503.593 623.747C512.102 621.622 512.687 618.906 515.648 615.414C516.3 614.734 517.181 614.318 518.122 614.242Z" fill="#407BFF"/>
<path d="M636.372 599.277C626.935 597.726 612.939 595.53 606.706 595.07C605.338 594.97 603.619 594.894 601.731 594.843V546.434H589.877V594.843C587.988 594.894 586.271 594.968 584.903 595.07C578.67 595.529 564.673 597.726 555.236 599.277C549.8 600.171 545.818 604.871 545.818 610.38V612.826H557.314L558.858 609.386C558.858 609.386 580.467 605.643 587.748 605.106C591.766 604.81 599.846 604.81 603.865 605.106C611.146 605.642 632.753 609.386 632.753 609.386L634.297 612.826H645.793V610.38C645.792 604.871 641.81 600.171 636.372 599.277Z" fill="#263238"/>
<path opacity="0.1" d="M636.372 599.277C626.935 597.726 612.939 595.53 606.706 595.07C605.338 594.97 603.619 594.894 601.731 594.843V546.434H589.877V594.843C587.988 594.894 586.271 594.968 584.903 595.07C578.67 595.529 564.673 597.726 555.236 599.277C549.8 600.171 545.818 604.871 545.818 610.38V612.826H557.314L558.858 609.386C558.858 609.386 580.467 605.643 587.748 605.106C591.766 604.81 599.846 604.81 603.865 605.106C611.146 605.642 632.753 609.386 632.753 609.386L634.297 612.826H645.793V610.38C645.792 604.871 641.81 600.171 636.372 599.277Z" fill="white"/>
<path d="M599.815 553.383H591.795C588.755 553.383 586.289 550.919 586.289 547.877V506.96H605.321V547.877C605.321 550.918 602.855 553.383 599.815 553.383Z" fill="#263238"/>
<path opacity="0.2" d="M605.321 506.958H586.289V518.256H605.321V506.958Z" fill="black"/>
<path d="M640.973 629.04C645.45 629.04 649.079 625.41 649.079 620.934C649.079 616.457 645.45 612.828 640.973 612.828C636.496 612.828 632.867 616.457 632.867 620.934C632.867 625.41 636.496 629.04 640.973 629.04Z" fill="#263238"/>
<path d="M550.635 629.04C555.112 629.04 558.741 625.41 558.741 620.934C558.741 616.457 555.112 612.828 550.635 612.828C546.158 612.828 542.529 616.457 542.529 620.934C542.529 625.41 546.158 629.04 550.635 629.04Z" fill="#263238"/>
<path d="M660.146 497.324C648.792 494.429 637.125 492.836 625.425 492.542C613.368 492.24 568.237 492.497 557.52 492.493C544.475 492.488 531.428 494.095 518.77 497.324C510.814 499.353 513.266 510.835 520.453 510.968C521.088 510.981 657.517 510.939 658.017 510.962C665.535 511.303 668.277 499.398 660.146 497.324Z" fill="#407BFF"/>
<path opacity="0.3" d="M660.146 497.324C648.792 494.429 637.125 492.836 625.425 492.542C613.368 492.24 568.237 492.497 557.52 492.493C544.475 492.488 531.428 494.095 518.77 497.324C510.814 499.353 513.266 510.835 520.453 510.968C521.088 510.981 657.517 510.939 658.017 510.962C665.535 511.303 668.277 499.398 660.146 497.324Z" fill="black"/>
<path d="M522.465 510.723C545.382 504.879 569.657 504.879 592.575 510.723C601.244 512.934 604.942 499.535 596.27 497.323C570.956 490.867 544.086 490.867 518.772 497.323C510.111 499.532 513.78 512.937 522.465 510.723Z" fill="#407BFF"/>
<g opacity="0.4">
<path d="M522.465 510.723C545.382 504.879 569.657 504.879 592.575 510.723C601.244 512.934 604.942 499.535 596.27 497.323C570.956 490.867 544.086 490.867 518.772 497.323C510.111 499.532 513.78 512.937 522.465 510.723Z" fill="white"/>
</g>
<path d="M623.657 397.89C622.223 397.863 620.781 398.505 619.82 400.101C601.439 430.668 594.909 467.412 601.251 502.469C601.647 504.666 603.153 505.689 604.822 505.804C607.604 505.994 657.136 505.818 658.933 505.814C661.635 505.808 664.602 503.514 663.968 500.006C658.074 467.429 664.564 433.112 681.603 404.777C683.72 401.255 680.598 397.951 677.441 397.89C676.005 397.863 626.815 397.951 623.657 397.89Z" fill="#407BFF"/>
<path opacity="0.2" d="M623.657 397.89C622.223 397.863 620.781 398.505 619.82 400.101C601.439 430.668 594.909 467.412 601.251 502.469C601.647 504.666 603.153 505.689 604.822 505.804C607.604 505.994 657.136 505.818 658.933 505.814C661.635 505.808 664.602 503.514 663.968 500.006C658.074 467.429 664.564 433.112 681.603 404.777C683.72 401.255 680.598 397.951 677.441 397.89C676.005 397.863 626.815 397.951 623.657 397.89Z" fill="black"/>
<path d="M610.184 500.006C604.291 467.429 610.78 433.112 627.82 404.777C630.9 399.655 622.893 394.992 619.82 400.101C601.439 430.668 594.909 467.412 601.251 502.469C602.311 508.327 611.24 505.844 610.184 500.006Z" fill="#407BFF"/>
<g opacity="0.4">
<path d="M610.184 500.006C604.291 467.429 610.78 433.112 627.82 404.777C630.9 399.655 622.893 394.992 619.82 400.101C601.439 430.668 594.909 467.412 601.251 502.469C602.311 508.327 611.24 505.844 610.184 500.006Z" fill="white"/>
</g>
<path d="M549.522 459.726C565.431 474.278 581.342 488.831 597.252 503.381C600.547 506.394 605.472 501.494 602.165 498.468C586.255 483.916 570.344 469.364 554.435 454.812C551.14 451.799 546.213 456.7 549.522 459.726Z" fill="#263238"/>
<g opacity="0.5">
<path d="M549.522 459.726C565.431 474.278 581.342 488.831 597.252 503.381C600.547 506.394 605.472 501.494 602.165 498.468C586.255 483.916 570.344 469.364 554.435 454.812C551.14 451.799 546.213 456.7 549.522 459.726Z" fill="white"/>
</g>
<path opacity="0.2" d="M554.435 454.813C551.142 451.801 546.215 456.7 549.522 459.726C552.565 462.51 555.61 465.294 558.653 468.078H568.938C564.102 463.656 559.268 459.234 554.435 454.813Z" fill="black"/>
<path d="M524.636 461.901C549.039 461.901 565.723 461.901 590.126 461.901C596.087 461.901 596.097 452.637 590.126 452.637C565.723 452.637 549.039 452.637 524.636 452.637C518.676 452.637 518.665 461.901 524.636 461.901Z" fill="#407BFF"/>
<g opacity="0.3">
<path d="M524.636 461.901C549.039 461.901 565.723 461.901 590.126 461.901C596.087 461.901 596.097 452.637 590.126 452.637C565.723 452.637 549.039 452.637 524.636 452.637C518.676 452.637 518.665 461.901 524.636 461.901Z" fill="white"/>
</g>
</svg>
