<svg width="480" height="481" viewBox="0 0 480 481" fill="none" xmlns="http://www.w3.org/2000/svg">
<path d="M426.92 335.679H253.404C250.301 335.679 247.776 333.154 247.776 330.052V77.3087C247.776 74.206 250.301 71.6812 253.404 71.6812H426.92C430.022 71.6812 432.547 74.205 432.547 77.3087V330.051C432.547 333.154 430.022 335.679 426.92 335.679ZM253.404 71.9212C250.432 71.9212 248.016 74.3384 248.016 77.3087V330.051C248.016 333.022 250.433 335.438 253.404 335.438H426.92C429.891 335.438 432.307 333.021 432.307 330.051V77.3087C432.307 74.3384 429.89 71.9212 426.92 71.9212H253.404Z" fill="#F0F0F0"/>
<path d="M226.829 335.679H53.3126C50.2099 335.679 47.6851 333.154 47.6851 330.052V77.3087C47.6851 74.206 50.2089 71.6812 53.3126 71.6812H226.829C229.931 71.6812 232.456 74.205 232.456 77.3087V330.051C232.457 333.154 229.932 335.679 226.829 335.679ZM53.3126 71.9212C50.3423 71.9212 47.9251 74.3384 47.9251 77.3087V330.051C47.9251 333.022 50.3423 335.438 53.3126 335.438H226.829C229.8 335.438 232.216 333.021 232.216 330.051V77.3087C232.216 74.3384 229.799 71.9212 226.829 71.9212H53.3126Z" fill="#F0F0F0"/>
<path d="M480 394.305H0V394.545H480V394.305Z" fill="#F0F0F0"/>
<path d="M169.656 262.09L169.656 95.1013L56.5992 95.1013L56.5992 262.09H169.656Z" fill="#F5F5F5"/>
<path d="M164.863 99.8956H61.3931V257.297H164.863V99.8956Z" fill="#FAFAFA"/>
<path d="M102.266 257.279V172.257H98.7265L92.6545 161.741L87.2276 152.34V134.985H85.9373V152.34L80.5105 161.741L74.4385 172.257H70.8999V257.279H102.266Z" fill="#F5F5F5"/>
<path d="M75.3995 150.637H61.3931V257.279H75.3995V150.637Z" fill="#F5F5F5"/>
<path d="M141.857 226.704V149.357L111.139 161.979V226.704H141.857Z" fill="#F5F5F5"/>
<path d="M164.863 172.257H133.497V257.279H164.863V172.257Z" fill="#F0F0F0"/>
<path d="M141.902 177.457H137.036V179.741H141.902V177.457Z" fill="#F5F5F5"/>
<path d="M151.614 177.457H146.747V179.741H151.614V177.457Z" fill="#F5F5F5"/>
<path d="M161.324 177.457H156.457V179.741H161.324V177.457Z" fill="#F5F5F5"/>
<path d="M141.902 183.105H137.036V185.388H141.902V183.105Z" fill="#F5F5F5"/>
<path d="M151.614 183.105H146.747V185.388H151.614V183.105Z" fill="#F5F5F5"/>
<path d="M161.324 183.105H156.457V185.388H161.324V183.105Z" fill="#F5F5F5"/>
<path d="M141.902 188.755H137.036V191.039H141.902V188.755Z" fill="#F5F5F5"/>
<path d="M151.614 188.755H146.747V191.039H151.614V188.755Z" fill="#F5F5F5"/>
<path d="M161.324 188.755H156.457V191.039H161.324V188.755Z" fill="#F5F5F5"/>
<path d="M141.902 194.404H137.036V196.688H141.902V194.404Z" fill="#F5F5F5"/>
<path d="M151.614 194.404H146.747V196.688H151.614V194.404Z" fill="#F5F5F5"/>
<path d="M161.324 194.404H156.457V196.688H161.324V194.404Z" fill="#F5F5F5"/>
<path d="M141.902 200.053H137.036V202.337H141.902V200.053Z" fill="#F5F5F5"/>
<path d="M151.614 200.053H146.747V202.337H151.614V200.053Z" fill="#F5F5F5"/>
<path d="M161.324 200.053H156.457V202.337H161.324V200.053Z" fill="#F5F5F5"/>
<path d="M141.902 205.702H137.036V207.985H141.902V205.702Z" fill="#F5F5F5"/>
<path d="M151.614 205.702H146.747V207.985H151.614V205.702Z" fill="#F5F5F5"/>
<path d="M161.324 205.702H156.457V207.985H161.324V205.702Z" fill="#F5F5F5"/>
<path d="M141.902 211.352H137.036V213.635H141.902V211.352Z" fill="#F5F5F5"/>
<path d="M151.614 211.352H146.747V213.635H151.614V211.352Z" fill="#F5F5F5"/>
<path d="M161.324 211.352H156.457V213.635H161.324V211.352Z" fill="#F5F5F5"/>
<path d="M141.902 217H137.036V219.283H141.902V217Z" fill="#F5F5F5"/>
<path d="M151.614 217H146.747V219.283H151.614V217Z" fill="#F5F5F5"/>
<path d="M161.324 217H156.457V219.283H161.324V217Z" fill="#F5F5F5"/>
<path d="M141.902 222.65H137.036V224.934H141.902V222.65Z" fill="#F5F5F5"/>
<path d="M151.614 222.65H146.747V224.934H151.614V222.65Z" fill="#F5F5F5"/>
<path d="M161.324 222.65H156.457V224.934H161.324V222.65Z" fill="#F5F5F5"/>
<path d="M141.902 228.298H137.036V230.582H141.902V228.298Z" fill="#F5F5F5"/>
<path d="M151.614 228.298H146.747V230.582H151.614V228.298Z" fill="#F5F5F5"/>
<path d="M161.324 228.298H156.457V230.582H161.324V228.298Z" fill="#F5F5F5"/>
<path d="M141.902 233.947H137.036V236.23H141.902V233.947Z" fill="#F5F5F5"/>
<path d="M151.614 233.947H146.747V236.23H151.614V233.947Z" fill="#F5F5F5"/>
<path d="M161.324 233.947H156.457V236.23H161.324V233.947Z" fill="#F5F5F5"/>
<path d="M141.902 239.597H137.036V241.879H141.902V239.597Z" fill="#F5F5F5"/>
<path d="M151.614 239.597H146.747V241.879H151.614V239.597Z" fill="#F5F5F5"/>
<path d="M161.324 239.597H156.457V241.879H161.324V239.597Z" fill="#F5F5F5"/>
<path d="M92.7591 172.257H61.3931V257.279H92.7591V172.257Z" fill="#F0F0F0"/>
<path d="M69.7998 177.457H64.9326V179.741H69.7998V177.457Z" fill="#F5F5F5"/>
<path d="M79.5103 177.457H74.6431V179.741H79.5103V177.457Z" fill="#F5F5F5"/>
<path d="M89.2196 177.457H84.3534V179.741H89.2196V177.457Z" fill="#F5F5F5"/>
<path d="M69.7998 183.105H64.9326V185.388H69.7998V183.105Z" fill="#F5F5F5"/>
<path d="M79.5103 183.105H74.6431V185.388H79.5103V183.105Z" fill="#F5F5F5"/>
<path d="M89.2196 183.105H84.3534V185.388H89.2196V183.105Z" fill="#F5F5F5"/>
<path d="M69.7998 188.755H64.9326V191.039H69.7998V188.755Z" fill="#F5F5F5"/>
<path d="M79.5103 188.755H74.6431V191.039H79.5103V188.755Z" fill="#F5F5F5"/>
<path d="M89.2196 188.755H84.3534V191.039H89.2196V188.755Z" fill="#F5F5F5"/>
<path d="M69.7998 194.404H64.9326V196.688H69.7998V194.404Z" fill="#F5F5F5"/>
<path d="M79.5103 194.404H74.6431V196.688H79.5103V194.404Z" fill="#F5F5F5"/>
<path d="M89.2196 194.404H84.3534V196.688H89.2196V194.404Z" fill="#F5F5F5"/>
<path d="M69.7998 200.053H64.9326V202.337H69.7998V200.053Z" fill="#F5F5F5"/>
<path d="M79.5103 200.053H74.6431V202.337H79.5103V200.053Z" fill="#F5F5F5"/>
<path d="M89.2196 200.053H84.3534V202.337H89.2196V200.053Z" fill="#F5F5F5"/>
<path d="M69.7998 205.702H64.9326V207.985H69.7998V205.702Z" fill="#F5F5F5"/>
<path d="M79.5103 205.702H74.6431V207.985H79.5103V205.702Z" fill="#F5F5F5"/>
<path d="M89.2196 205.702H84.3534V207.985H89.2196V205.702Z" fill="#F5F5F5"/>
<path d="M69.7998 211.352H64.9326V213.635H69.7998V211.352Z" fill="#F5F5F5"/>
<path d="M79.5103 211.352H74.6431V213.635H79.5103V211.352Z" fill="#F5F5F5"/>
<path d="M89.2196 211.352H84.3534V213.635H89.2196V211.352Z" fill="#F5F5F5"/>
<path d="M69.7998 217H64.9326V219.283H69.7998V217Z" fill="#F5F5F5"/>
<path d="M79.5103 217H74.6431V219.283H79.5103V217Z" fill="#F5F5F5"/>
<path d="M89.2196 217H84.3534V219.283H89.2196V217Z" fill="#F5F5F5"/>
<path d="M69.7998 222.65H64.9326V224.934H69.7998V222.65Z" fill="#F5F5F5"/>
<path d="M79.5103 222.65H74.6431V224.934H79.5103V222.65Z" fill="#F5F5F5"/>
<path d="M89.2196 222.65H84.3534V224.934H89.2196V222.65Z" fill="#F5F5F5"/>
<path d="M69.7998 228.298H64.9326V230.582H69.7998V228.298Z" fill="#F5F5F5"/>
<path d="M79.5103 228.298H74.6431V230.582H79.5103V228.298Z" fill="#F5F5F5"/>
<path d="M89.2196 228.298H84.3534V230.582H89.2196V228.298Z" fill="#F5F5F5"/>
<path d="M69.7998 233.947H64.9326V236.23H69.7998V233.947Z" fill="#F5F5F5"/>
<path d="M79.5103 233.947H74.6431V236.23H79.5103V233.947Z" fill="#F5F5F5"/>
<path d="M89.2196 233.947H84.3534V236.23H89.2196V233.947Z" fill="#F5F5F5"/>
<path d="M69.7998 239.597H64.9326V241.879H69.7998V239.597Z" fill="#F5F5F5"/>
<path d="M79.5103 239.597H74.6431V241.879H79.5103V239.597Z" fill="#F5F5F5"/>
<path d="M89.2196 239.597H84.3534V241.879H89.2196V239.597Z" fill="#F5F5F5"/>
<path d="M149.179 172.257H137.036L143.108 161.741L149.179 151.224L155.251 161.741L161.323 172.257H149.179Z" fill="#F0F0F0"/>
<path d="M149.825 134.985H148.535V158.961H149.825V134.985Z" fill="#F0F0F0"/>
<path d="M130.897 177.457H97.274V257.279H130.897V177.457Z" fill="#F0F0F0"/>
<path d="M112.432 174.727H99.7461V185.552H112.432V174.727Z" fill="#F0F0F0"/>
<path d="M104.289 173.928H100.887V183.648H104.289V173.928Z" fill="#F0F0F0"/>
<path d="M111.368 173.928H107.967V183.648H111.368V173.928Z" fill="#F0F0F0"/>
<path d="M128.748 174.764H121.195V182.316H128.748V174.764Z" fill="#F0F0F0"/>
<path d="M107.078 184.248H102.21V186.531H107.078V184.248Z" fill="#F5F5F5"/>
<path d="M116.788 184.248H111.921V186.531H116.788V184.248Z" fill="#F5F5F5"/>
<path d="M126.498 184.248H121.631V186.531H126.498V184.248Z" fill="#F5F5F5"/>
<path d="M107.078 189.896H102.21V192.18H107.078V189.896Z" fill="#F5F5F5"/>
<path d="M116.788 189.896H111.921V192.18H116.788V189.896Z" fill="#F5F5F5"/>
<path d="M126.498 189.896H121.631V192.18H126.498V189.896Z" fill="#F5F5F5"/>
<path d="M107.078 195.546H102.21V197.83H107.078V195.546Z" fill="#F5F5F5"/>
<path d="M116.788 195.546H111.921V197.83H116.788V195.546Z" fill="#F5F5F5"/>
<path d="M126.498 195.546H121.631V197.83H126.498V195.546Z" fill="#F5F5F5"/>
<path d="M107.078 201.195H102.21V203.478H107.078V201.195Z" fill="#F5F5F5"/>
<path d="M116.788 201.195H111.921V203.478H116.788V201.195Z" fill="#F5F5F5"/>
<path d="M126.498 201.195H121.631V203.478H126.498V201.195Z" fill="#F5F5F5"/>
<path d="M107.078 206.843H102.21V209.127H107.078V206.843Z" fill="#F5F5F5"/>
<path d="M116.788 206.843H111.921V209.127H116.788V206.843Z" fill="#F5F5F5"/>
<path d="M126.498 206.843H121.631V209.127H126.498V206.843Z" fill="#F5F5F5"/>
<path d="M107.078 212.493H102.21V214.776H107.078V212.493Z" fill="#F5F5F5"/>
<path d="M116.788 212.493H111.921V214.776H116.788V212.493Z" fill="#F5F5F5"/>
<path d="M126.498 212.493H121.631V214.776H126.498V212.493Z" fill="#F5F5F5"/>
<path d="M107.078 218.142H102.21V220.424H107.078V218.142Z" fill="#F5F5F5"/>
<path d="M116.788 218.142H111.921V220.424H116.788V218.142Z" fill="#F5F5F5"/>
<path d="M126.498 218.142H121.631V220.424H126.498V218.142Z" fill="#F5F5F5"/>
<path d="M107.078 223.791H102.21V226.075H107.078V223.791Z" fill="#F5F5F5"/>
<path d="M116.788 223.791H111.921V226.075H116.788V223.791Z" fill="#F5F5F5"/>
<path d="M126.498 223.791H121.631V226.075H126.498V223.791Z" fill="#F5F5F5"/>
<path d="M107.078 229.44H102.21V231.724H107.078V229.44Z" fill="#F5F5F5"/>
<path d="M116.788 229.44H111.921V231.724H116.788V229.44Z" fill="#F5F5F5"/>
<path d="M126.498 229.44H121.631V231.724H126.498V229.44Z" fill="#F5F5F5"/>
<path d="M107.078 235.089H102.21V237.373H107.078V235.089Z" fill="#F5F5F5"/>
<path d="M116.788 235.089H111.921V237.373H116.788V235.089Z" fill="#F5F5F5"/>
<path d="M126.498 235.089H121.631V237.373H126.498V235.089Z" fill="#F5F5F5"/>
<path d="M107.078 240.738H102.21V243.021H107.078V240.738Z" fill="#F5F5F5"/>
<path d="M116.788 240.738H111.921V243.021H116.788V240.738Z" fill="#F5F5F5"/>
<path d="M126.498 240.738H121.631V243.021H126.498V240.738Z" fill="#F5F5F5"/>
<path d="M107.078 246.388H102.21V248.672H107.078V246.388Z" fill="#F5F5F5"/>
<path d="M116.788 246.388H111.921V248.672H116.788V246.388Z" fill="#F5F5F5"/>
<path d="M126.498 246.388H121.631V248.672H126.498V246.388Z" fill="#F5F5F5"/>
<path opacity="0.2" d="M157.983 99.8956L61.3931 196.494V168.753L130.251 99.8956H157.983Z" fill="white"/>
<path opacity="0.2" d="M164.863 134.867V154.666L62.2321 257.297H61.3931V238.345L164.863 134.867Z" fill="white"/>
<path d="M422.687 263.276L422.687 96.2864L309.629 96.2864V263.276H422.687Z" fill="#F5F5F5"/>
<path d="M417.893 101.08H314.423V258.482H417.893V101.08Z" fill="#FAFAFA"/>
<path d="M355.296 258.464V173.442H351.756L345.684 162.925L340.258 153.526V136.17H338.967V153.526L333.54 162.925L327.468 173.442H323.929V258.464H355.296Z" fill="#F5F5F5"/>
<path d="M328.429 151.823H314.423V258.465H328.429V151.823Z" fill="#F5F5F5"/>
<path d="M394.887 227.889V150.542L364.168 163.163V227.889H394.887Z" fill="#F5F5F5"/>
<path d="M417.893 173.442H386.527V258.464H417.893V173.442Z" fill="#F0F0F0"/>
<path d="M394.932 178.641H390.066V180.925H394.932V178.641Z" fill="#F5F5F5"/>
<path d="M404.644 178.641H399.777V180.925H404.644V178.641Z" fill="#F5F5F5"/>
<path d="M414.354 178.641H409.487V180.925H414.354V178.641Z" fill="#F5F5F5"/>
<path d="M394.932 184.291H390.066V186.575H394.932V184.291Z" fill="#F5F5F5"/>
<path d="M404.644 184.291H399.777V186.575H404.644V184.291Z" fill="#F5F5F5"/>
<path d="M414.354 184.291H409.487V186.575H414.354V184.291Z" fill="#F5F5F5"/>
<path d="M394.932 189.94H390.066V192.223H394.932V189.94Z" fill="#F5F5F5"/>
<path d="M404.644 189.94H399.777V192.223H404.644V189.94Z" fill="#F5F5F5"/>
<path d="M414.354 189.94H409.487V192.223H414.354V189.94Z" fill="#F5F5F5"/>
<path d="M394.932 195.589H390.066V197.873H394.932V195.589Z" fill="#F5F5F5"/>
<path d="M404.644 195.589H399.777V197.873H404.644V195.589Z" fill="#F5F5F5"/>
<path d="M414.354 195.589H409.487V197.873H414.354V195.589Z" fill="#F5F5F5"/>
<path d="M394.932 201.238H390.066V203.522H394.932V201.238Z" fill="#F5F5F5"/>
<path d="M404.644 201.238H399.777V203.522H404.644V201.238Z" fill="#F5F5F5"/>
<path d="M414.354 201.238H409.487V203.522H414.354V201.238Z" fill="#F5F5F5"/>
<path d="M394.932 206.887H390.066V209.17H394.932V206.887Z" fill="#F5F5F5"/>
<path d="M404.644 206.887H399.777V209.17H404.644V206.887Z" fill="#F5F5F5"/>
<path d="M414.354 206.887H409.487V209.17H414.354V206.887Z" fill="#F5F5F5"/>
<path d="M394.932 212.536H390.066V214.82H394.932V212.536Z" fill="#F5F5F5"/>
<path d="M404.644 212.536H399.777V214.82H404.644V212.536Z" fill="#F5F5F5"/>
<path d="M414.354 212.536H409.487V214.82H414.354V212.536Z" fill="#F5F5F5"/>
<path d="M394.932 218.185H390.066V220.468H394.932V218.185Z" fill="#F5F5F5"/>
<path d="M404.644 218.185H399.777V220.468H404.644V218.185Z" fill="#F5F5F5"/>
<path d="M414.354 218.185H409.487V220.468H414.354V218.185Z" fill="#F5F5F5"/>
<path d="M394.932 223.834H390.066V226.117H394.932V223.834Z" fill="#F5F5F5"/>
<path d="M404.644 223.834H399.777V226.117H404.644V223.834Z" fill="#F5F5F5"/>
<path d="M414.354 223.834H409.487V226.117H414.354V223.834Z" fill="#F5F5F5"/>
<path d="M394.932 229.483H390.066V231.767H394.932V229.483Z" fill="#F5F5F5"/>
<path d="M404.644 229.483H399.777V231.767H404.644V229.483Z" fill="#F5F5F5"/>
<path d="M414.354 229.483H409.487V231.767H414.354V229.483Z" fill="#F5F5F5"/>
<path d="M394.932 235.133H390.066V237.417H394.932V235.133Z" fill="#F5F5F5"/>
<path d="M404.644 235.133H399.777V237.417H404.644V235.133Z" fill="#F5F5F5"/>
<path d="M414.354 235.133H409.487V237.417H414.354V235.133Z" fill="#F5F5F5"/>
<path d="M394.932 240.781H390.066V243.065H394.932V240.781Z" fill="#F5F5F5"/>
<path d="M404.644 240.781H399.777V243.065H404.644V240.781Z" fill="#F5F5F5"/>
<path d="M414.354 240.781H409.487V243.065H414.354V240.781Z" fill="#F5F5F5"/>
<path d="M345.789 173.442H314.423V258.464H345.789V173.442Z" fill="#F0F0F0"/>
<path d="M322.83 178.641H317.963V180.925H322.83V178.641Z" fill="#F5F5F5"/>
<path d="M332.54 178.641H327.673V180.925H332.54V178.641Z" fill="#F5F5F5"/>
<path d="M342.25 178.641H337.383V180.925H342.25V178.641Z" fill="#F5F5F5"/>
<path d="M322.83 184.291H317.963V186.575H322.83V184.291Z" fill="#F5F5F5"/>
<path d="M332.54 184.291H327.673V186.575H332.54V184.291Z" fill="#F5F5F5"/>
<path d="M342.25 184.291H337.383V186.575H342.25V184.291Z" fill="#F5F5F5"/>
<path d="M322.83 189.94H317.963V192.223H322.83V189.94Z" fill="#F5F5F5"/>
<path d="M332.54 189.94H327.673V192.223H332.54V189.94Z" fill="#F5F5F5"/>
<path d="M342.25 189.94H337.383V192.223H342.25V189.94Z" fill="#F5F5F5"/>
<path d="M322.83 195.589H317.963V197.873H322.83V195.589Z" fill="#F5F5F5"/>
<path d="M332.54 195.589H327.673V197.873H332.54V195.589Z" fill="#F5F5F5"/>
<path d="M342.25 195.589H337.383V197.873H342.25V195.589Z" fill="#F5F5F5"/>
<path d="M322.83 201.238H317.963V203.522H322.83V201.238Z" fill="#F5F5F5"/>
<path d="M332.54 201.238H327.673V203.522H332.54V201.238Z" fill="#F5F5F5"/>
<path d="M342.25 201.238H337.383V203.522H342.25V201.238Z" fill="#F5F5F5"/>
<path d="M322.83 206.887H317.963V209.17H322.83V206.887Z" fill="#F5F5F5"/>
<path d="M332.54 206.887H327.673V209.17H332.54V206.887Z" fill="#F5F5F5"/>
<path d="M342.25 206.887H337.383V209.17H342.25V206.887Z" fill="#F5F5F5"/>
<path d="M322.83 212.536H317.963V214.82H322.83V212.536Z" fill="#F5F5F5"/>
<path d="M332.54 212.536H327.673V214.82H332.54V212.536Z" fill="#F5F5F5"/>
<path d="M342.25 212.536H337.383V214.82H342.25V212.536Z" fill="#F5F5F5"/>
<path d="M322.83 218.185H317.963V220.468H322.83V218.185Z" fill="#F5F5F5"/>
<path d="M332.54 218.185H327.673V220.468H332.54V218.185Z" fill="#F5F5F5"/>
<path d="M342.25 218.185H337.383V220.468H342.25V218.185Z" fill="#F5F5F5"/>
<path d="M322.83 223.834H317.963V226.117H322.83V223.834Z" fill="#F5F5F5"/>
<path d="M332.54 223.834H327.673V226.117H332.54V223.834Z" fill="#F5F5F5"/>
<path d="M342.25 223.834H337.383V226.117H342.25V223.834Z" fill="#F5F5F5"/>
<path d="M322.83 229.483H317.963V231.767H322.83V229.483Z" fill="#F5F5F5"/>
<path d="M332.54 229.483H327.673V231.767H332.54V229.483Z" fill="#F5F5F5"/>
<path d="M342.25 229.483H337.383V231.767H342.25V229.483Z" fill="#F5F5F5"/>
<path d="M322.83 235.133H317.963V237.417H322.83V235.133Z" fill="#F5F5F5"/>
<path d="M332.54 235.133H327.673V237.417H332.54V235.133Z" fill="#F5F5F5"/>
<path d="M342.25 235.133H337.383V237.417H342.25V235.133Z" fill="#F5F5F5"/>
<path d="M322.83 240.781H317.963V243.065H322.83V240.781Z" fill="#F5F5F5"/>
<path d="M332.54 240.781H327.673V243.065H332.54V240.781Z" fill="#F5F5F5"/>
<path d="M342.25 240.781H337.383V243.065H342.25V240.781Z" fill="#F5F5F5"/>
<path d="M402.209 173.442H390.066L396.137 162.925L402.209 152.409L408.281 162.925L414.353 173.442H402.209Z" fill="#F0F0F0"/>
<path d="M402.855 136.17H401.565V160.146H402.855V136.17Z" fill="#F0F0F0"/>
<path d="M383.927 178.641H350.304V258.464H383.927V178.641Z" fill="#F0F0F0"/>
<path d="M365.462 175.911H352.776V186.737H365.462V175.911Z" fill="#F0F0F0"/>
<path d="M357.319 175.113H353.917V184.833H357.319V175.113Z" fill="#F0F0F0"/>
<path d="M364.398 175.113H360.996V184.833H364.398V175.113Z" fill="#F0F0F0"/>
<path d="M381.778 175.95H374.225V183.502H381.778V175.95Z" fill="#F0F0F0"/>
<path d="M360.107 185.432H355.24V187.716H360.107V185.432Z" fill="#F5F5F5"/>
<path d="M369.818 185.432H364.951V187.716H369.818V185.432Z" fill="#F5F5F5"/>
<path d="M379.528 185.432H374.661V187.716H379.528V185.432Z" fill="#F5F5F5"/>
<path d="M360.107 191.081H355.24V193.365H360.107V191.081Z" fill="#F5F5F5"/>
<path d="M369.818 191.081H364.951V193.365H369.818V191.081Z" fill="#F5F5F5"/>
<path d="M379.528 191.081H374.661V193.365H379.528V191.081Z" fill="#F5F5F5"/>
<path d="M360.107 196.731H355.24V199.015H360.107V196.731Z" fill="#F5F5F5"/>
<path d="M369.818 196.731H364.951V199.015H369.818V196.731Z" fill="#F5F5F5"/>
<path d="M379.528 196.731H374.661V199.015H379.528V196.731Z" fill="#F5F5F5"/>
<path d="M360.107 202.379H355.24V204.662H360.107V202.379Z" fill="#F5F5F5"/>
<path d="M369.818 202.379H364.951V204.662H369.818V202.379Z" fill="#F5F5F5"/>
<path d="M379.528 202.379H374.661V204.662H379.528V202.379Z" fill="#F5F5F5"/>
<path d="M360.107 208.029H355.24V210.313H360.107V208.029Z" fill="#F5F5F5"/>
<path d="M369.818 208.029H364.951V210.313H369.818V208.029Z" fill="#F5F5F5"/>
<path d="M379.528 208.029H374.661V210.313H379.528V208.029Z" fill="#F5F5F5"/>
<path d="M360.107 213.678H355.24V215.961H360.107V213.678Z" fill="#F5F5F5"/>
<path d="M369.818 213.678H364.951V215.961H369.818V213.678Z" fill="#F5F5F5"/>
<path d="M379.528 213.678H374.661V215.961H379.528V213.678Z" fill="#F5F5F5"/>
<path d="M360.107 219.327H355.24V221.611H360.107V219.327Z" fill="#F5F5F5"/>
<path d="M369.818 219.327H364.951V221.611H369.818V219.327Z" fill="#F5F5F5"/>
<path d="M379.528 219.327H374.661V221.611H379.528V219.327Z" fill="#F5F5F5"/>
<path d="M360.107 224.976H355.24V227.26H360.107V224.976Z" fill="#F5F5F5"/>
<path d="M369.818 224.976H364.951V227.26H369.818V224.976Z" fill="#F5F5F5"/>
<path d="M379.528 224.976H374.661V227.26H379.528V224.976Z" fill="#F5F5F5"/>
<path d="M360.107 230.625H355.24V232.908H360.107V230.625Z" fill="#F5F5F5"/>
<path d="M369.818 230.625H364.951V232.908H369.818V230.625Z" fill="#F5F5F5"/>
<path d="M379.528 230.625H374.661V232.908H379.528V230.625Z" fill="#F5F5F5"/>
<path d="M360.107 236.274H355.24V238.558H360.107V236.274Z" fill="#F5F5F5"/>
<path d="M369.818 236.274H364.951V238.558H369.818V236.274Z" fill="#F5F5F5"/>
<path d="M379.528 236.274H374.661V238.558H379.528V236.274Z" fill="#F5F5F5"/>
<path d="M360.107 241.924H355.24V244.208H360.107V241.924Z" fill="#F5F5F5"/>
<path d="M369.818 241.924H364.951V244.208H369.818V241.924Z" fill="#F5F5F5"/>
<path d="M379.528 241.924H374.661V244.208H379.528V241.924Z" fill="#F5F5F5"/>
<path d="M360.107 247.572H355.24V249.856H360.107V247.572Z" fill="#F5F5F5"/>
<path d="M369.818 247.572H364.951V249.856H369.818V247.572Z" fill="#F5F5F5"/>
<path d="M379.528 247.572H374.661V249.856H379.528V247.572Z" fill="#F5F5F5"/>
<path opacity="0.2" d="M411.013 101.08L314.423 197.678V169.937L383.28 101.08H411.013Z" fill="white"/>
<path opacity="0.2" d="M417.893 136.052V155.851L315.262 258.482H314.423V239.529L417.893 136.052Z" fill="white"/>
<path d="M267.233 290.412H100.962C100.962 293.227 103.244 295.509 106.059 295.509H262.137C264.951 295.509 267.233 293.227 267.233 290.412Z" fill="#F0F0F0"/>
<path d="M234.576 338.619H135.123V343.334H234.576V338.619Z" fill="#F0F0F0"/>
<path d="M231.057 394.426L244.612 295.509H239.851L226.295 394.426H231.057Z" fill="#F0F0F0"/>
<path d="M242.201 394.426L228.426 295.509H233.187L246.962 394.426H242.201Z" fill="#F0F0F0"/>
<path d="M127.514 394.426L141.65 295.509H136.889L122.753 394.426H127.514Z" fill="#F0F0F0"/>
<path d="M138.659 394.426L125.103 295.509H129.864L143.419 394.426H138.659Z" fill="#F0F0F0"/>
<path d="M272.812 282.232H95.3837V290.444H272.812V282.232Z" fill="#F5F5F5"/>
<path d="M159.328 282.264H236.324L237.16 280.374C237.686 279.185 236.314 278 234.413 278H163.366C162.092 278 160.971 278.549 160.618 279.346L159.328 282.264Z" fill="#E0E0E0"/>
<path d="M257.434 228.666L247.578 270.35C247.315 271.461 246.324 272.245 245.182 272.245H184.469C182.88 272.245 181.707 270.763 182.073 269.217L191.928 227.533C192.191 226.423 193.182 225.638 194.324 225.638H255.037C256.626 225.638 257.799 227.122 257.434 228.666Z" fill="#F0F0F0"/>
<path d="M227.934 250.572C227.645 253.196 225.283 255.322 222.659 255.322C220.036 255.322 218.144 253.196 218.433 250.572C218.722 247.949 221.083 245.821 223.707 245.821C226.33 245.821 228.223 247.949 227.934 250.572Z" fill="#E0E0E0"/>
<path d="M196.73 225.638L186.237 272.245H184.47C182.881 272.245 181.708 270.763 182.074 269.217L191.929 227.533C192.192 226.423 193.183 225.638 194.325 225.638H196.73Z" fill="#E0E0E0"/>
<path d="M214.316 272.245L212.246 282.148H218.33L220.399 272.245H214.316Z" fill="#E0E0E0"/>
<path d="M203.369 280.472L204.615 278.721C205.06 278.096 205.78 277.724 206.547 277.724H223.226C224.108 277.724 224.917 278.215 225.326 278.996L226.166 280.602C226.559 281.353 226.014 282.253 225.167 282.253H204.29C203.372 282.253 202.838 281.218 203.369 280.472Z" fill="#E0E0E0"/>
<path d="M378.76 372.464C378.76 372.464 370.659 374.259 371.863 368.606C373.067 362.954 372.978 360.87 369.686 358.301C366.393 355.732 363.079 354.463 365.601 350.394C368.122 346.326 363.338 343.163 360.865 340.974C358.392 338.784 361.184 337.133 361.838 332.993C362.493 328.854 358.041 329.476 357.691 324.262C357.342 319.048 362.638 312.955 358.084 305.778C358.084 305.778 364.2 308.95 366.209 314.522C368.219 320.094 366.596 324.397 370.21 326.515C373.823 328.633 376.085 332.296 374.857 336.056C373.629 339.815 375.374 341.809 378.336 344.551C381.298 347.292 380.51 348.382 380.141 351.734C379.772 355.087 380.512 354.295 383.903 358.874C387.295 363.456 387.381 370.961 378.76 372.464Z" fill="#F0F0F0"/>
<path d="M379.914 372.213C379.898 372.186 379.884 372.158 379.873 372.126L363.662 322.922C363.591 322.712 363.707 322.482 363.918 322.413C363.921 322.412 363.923 322.412 363.926 322.411C364.135 322.346 364.359 322.461 364.429 322.67L380.639 371.873C380.653 371.912 380.658 371.953 380.659 371.993L379.914 372.213Z" fill="#E0E0E0"/>
<path d="M393.379 372.362C393.379 372.362 401.438 374.147 400.24 368.525C399.043 362.902 399.131 360.829 402.406 358.274C405.682 355.718 408.977 354.456 406.47 350.409C403.961 346.363 408.721 343.217 411.181 341.04C413.64 338.862 410.864 337.219 410.212 333.102C409.56 328.984 413.99 329.602 414.338 324.417C414.686 319.231 409.417 313.169 413.947 306.031C413.947 306.031 407.863 309.186 405.865 314.728C403.866 320.27 405.48 324.552 401.886 326.658C398.292 328.764 396.041 332.409 397.263 336.148C398.484 339.887 396.748 341.87 393.802 344.598C390.855 347.325 391.64 348.409 392.007 351.743C392.373 355.078 391.637 354.289 388.264 358.845C384.89 363.401 384.804 370.867 393.379 372.362Z" fill="#F0F0F0"/>
<path d="M391.49 371.893C391.491 371.853 391.497 371.813 391.51 371.773L407.634 322.832C407.703 322.623 407.926 322.509 408.134 322.573C408.137 322.574 408.139 322.575 408.142 322.576C408.351 322.645 408.466 322.873 408.397 323.082L392.271 372.025C392.262 372.057 392.247 372.084 392.23 372.111L391.49 371.893Z" fill="#E0E0E0"/>
<path d="M384.43 371.337C384.43 371.337 375.157 370.569 378.324 364.915C381.491 359.261 382.088 356.999 379.414 353.154C376.741 349.309 373.613 346.849 377.665 343.329C381.716 339.809 377.643 334.833 375.721 331.667C373.8 328.501 377.338 327.659 379.414 323.443C381.491 319.227 376.514 318.415 377.871 312.714C379.229 307.014 386.925 302.246 384.43 293.048C384.43 293.048 389.928 298.476 390.23 305.111C390.531 311.745 387.365 315.818 390.531 319.285C393.698 322.754 394.904 327.428 392.341 331.047C389.777 334.666 390.983 337.38 393.246 341.301C395.508 345.222 394.301 346.127 392.794 349.594C391.286 353.063 392.341 352.46 394.453 358.492C396.564 364.523 394.163 372.592 384.43 371.337Z" fill="#F5F5F5"/>
<path d="M385.749 371.453C385.74 371.418 385.734 371.384 385.734 371.345L384.711 313.26C384.707 313.012 384.906 312.805 385.155 312.801C385.158 312.801 385.161 312.801 385.165 312.801C385.41 312.801 385.612 312.998 385.617 313.246L386.639 371.329C386.641 371.376 386.633 371.421 386.621 371.464L385.749 371.453Z" fill="#E0E0E0"/>
<path d="M409.682 366.851H364.326C363.021 366.851 362.12 368.154 362.58 369.375L363.251 371.156L363.674 372.284L364.891 375.516L365.317 376.644L366.566 379.963L366.99 381.09L371.979 394.337H402.024L407.013 381.09L407.437 379.963L408.686 376.644L409.112 375.516L410.329 372.284L410.752 371.156L411.423 369.375C411.886 368.154 410.985 366.851 409.682 366.851Z" fill="#E6E6E6"/>
<path d="M236.144 422.58C339.169 422.58 422.687 419.971 422.687 416.751C422.687 413.532 339.169 410.922 236.144 410.922C133.119 410.922 49.6003 413.532 49.6003 416.751C49.6003 419.971 133.119 422.58 236.144 422.58Z" fill="#F0F0F0"/>
<path d="M110.844 381.12L102.953 416.588H81.7527L73.8624 381.12H110.844Z" fill="#407BFF"/>
<path opacity="0.5" d="M110.844 381.12L102.953 416.588H81.7527L73.8624 381.12H110.844Z" fill="white"/>
<path d="M112.432 381.12H72V385.457H112.432V381.12Z" fill="#407BFF"/>
<path opacity="0.7" d="M112.432 381.12H72V385.457H112.432V381.12Z" fill="white"/>
<path d="M92.5863 381.12H93.5203C94.0003 351.997 85.9719 331.094 85.8807 330.862C85.7847 330.618 84.9139 330.959 85.0099 331.204C85.1011 331.434 93.0691 352.18 92.5863 381.12Z" fill="#407BFF"/>
<path d="M90.7095 351.732C90.7095 351.732 87.5002 341.93 105.187 338.53C105.187 338.53 104.861 355.703 90.7095 351.732Z" fill="#407BFF"/>
<path d="M92.5804 367.936C92.5804 367.936 89.3712 358.134 107.058 354.734C107.058 354.734 106.733 371.908 92.5804 367.936Z" fill="#407BFF"/>
<path d="M91.9612 358.204C91.9612 358.204 90.9254 347.941 73.3766 351.997C73.3766 351.997 80.6303 367.566 91.9612 358.204Z" fill="#407BFF"/>
<path d="M93.0125 372.967C93.0125 372.967 91.9767 362.704 74.4279 366.76C74.4279 366.76 81.6826 382.328 93.0125 372.967Z" fill="#407BFF"/>
<path d="M88.7357 342.314C88.7357 342.314 78.4464 343.026 79.4794 325.044C79.4794 325.044 96.0499 329.565 88.7357 342.314Z" fill="#407BFF"/>
<path d="M334.517 292.742C335.021 293.424 335.617 294.041 336.3 294.573L334.811 298.107L338.682 299.74L340.109 296.357C341.029 296.556 341.955 296.613 342.864 296.537L344.482 300.515L348.374 298.932L346.882 295.262C347.901 294.665 348.811 293.879 349.555 292.923L353.09 294.413L354.723 290.541L351.34 289.114C351.576 288.022 351.607 286.92 351.46 285.849L354.76 284.507L353.176 280.615L349.988 281.911C349.302 280.869 348.402 279.958 347.324 279.244L348.751 275.862L344.879 274.229L343.389 277.763C342.53 277.645 341.673 277.648 340.833 277.764L339.303 274.005L335.411 275.588L336.895 279.236C335.852 279.922 334.941 280.822 334.227 281.9L330.845 280.473L329.212 284.346L332.746 285.837C332.604 286.868 332.629 287.9 332.821 288.897L329.174 290.381L330.757 294.273L334.517 292.742ZM338.555 285.624C339.38 283.667 341.643 282.747 343.6 283.571C345.558 284.397 346.477 286.66 345.653 288.617C344.827 290.575 342.565 291.494 340.607 290.67C338.65 289.845 337.729 287.581 338.555 285.624Z" fill="#407BFF"/>
<g opacity="0.5">
<path d="M334.517 292.742C335.021 293.424 335.617 294.041 336.3 294.573L334.811 298.107L338.682 299.74L340.109 296.357C341.029 296.556 341.955 296.613 342.864 296.537L344.482 300.515L348.374 298.932L346.882 295.262C347.901 294.665 348.811 293.879 349.555 292.923L353.09 294.413L354.723 290.541L351.34 289.114C351.576 288.022 351.607 286.92 351.46 285.849L354.76 284.507L353.176 280.615L349.988 281.911C349.302 280.869 348.402 279.958 347.324 279.244L348.751 275.862L344.879 274.229L343.389 277.763C342.53 277.645 341.673 277.648 340.833 277.764L339.303 274.005L335.411 275.588L336.895 279.236C335.852 279.922 334.941 280.822 334.227 281.9L330.845 280.473L329.212 284.346L332.746 285.837C332.604 286.868 332.629 287.9 332.821 288.897L329.174 290.381L330.757 294.273L334.517 292.742ZM338.555 285.624C339.38 283.667 341.643 282.747 343.6 283.571C345.558 284.397 346.477 286.66 345.653 288.617C344.827 290.575 342.565 291.494 340.607 290.67C338.65 289.845 337.729 287.581 338.555 285.624Z" fill="white"/>
</g>
<path d="M113.744 142.688C114.248 143.371 114.844 143.987 115.527 144.519L114.037 148.053L117.909 149.686L119.336 146.303C120.255 146.503 121.182 146.559 122.091 146.483L123.709 150.462L127.602 148.879L126.109 145.209C127.129 144.612 128.039 143.826 128.783 142.87L132.318 144.36L133.951 140.488L130.568 139.062C130.804 137.969 130.835 136.867 130.688 135.797L133.988 134.455L132.404 130.562L129.216 131.859C128.53 130.816 127.63 129.905 126.552 129.191L127.979 125.809L124.107 124.176L122.617 127.711C121.758 127.592 120.9 127.595 120.06 127.711L118.531 123.951L114.638 125.534L116.123 129.182C115.08 129.869 114.169 130.768 113.455 131.846L110.073 130.42L108.44 134.292L111.973 135.783C111.832 136.814 111.857 137.846 112.049 138.844L108.402 140.327L109.985 144.22L113.744 142.688ZM117.781 135.571C118.607 133.615 120.87 132.694 122.827 133.519C124.784 134.344 125.704 136.607 124.88 138.564C124.054 140.522 121.79 141.441 119.834 140.617C117.876 139.791 116.957 137.528 117.781 135.571Z" fill="#407BFF"/>
<g opacity="0.5">
<path d="M113.744 142.688C114.248 143.371 114.844 143.987 115.527 144.519L114.037 148.053L117.909 149.686L119.336 146.303C120.255 146.503 121.182 146.559 122.091 146.483L123.709 150.462L127.602 148.879L126.109 145.209C127.129 144.612 128.039 143.826 128.783 142.87L132.318 144.36L133.951 140.488L130.568 139.062C130.804 137.969 130.835 136.867 130.688 135.797L133.988 134.455L132.404 130.562L129.216 131.859C128.53 130.816 127.63 129.905 126.552 129.191L127.979 125.809L124.107 124.176L122.617 127.711C121.758 127.592 120.9 127.595 120.06 127.711L118.531 123.951L114.638 125.534L116.123 129.182C115.08 129.869 114.169 130.768 113.455 131.846L110.073 130.42L108.44 134.292L111.973 135.783C111.832 136.814 111.857 137.846 112.049 138.844L108.402 140.327L109.985 144.22L113.744 142.688ZM117.781 135.571C118.607 133.615 120.87 132.694 122.827 133.519C124.784 134.344 125.704 136.607 124.88 138.564C124.054 140.522 121.79 141.441 119.834 140.617C117.876 139.791 116.957 137.528 117.781 135.571Z" fill="white"/>
</g>
<path d="M248.064 137.376V170.227L149.51 170.235V71.6888H158.387C158.387 71.6888 164.447 73.4149 166.454 78.2236C168.254 82.5061 165.565 87.67 164.943 88.7586C164.891 88.8546 164.862 88.9141 164.84 88.9439C164.832 88.9439 164.832 88.9583 164.832 88.966H164.818C163.544 91.174 162.81 93.7448 162.81 96.4789C162.81 104.74 169.5 111.445 177.769 111.445C186.037 111.445 192.735 104.741 192.735 96.4789C192.735 93.7372 191.994 91.174 190.713 88.966C190.713 88.9583 190.705 88.9439 190.705 88.9362C190.683 88.9141 190.639 88.8546 190.601 88.7586C189.979 87.67 187.282 82.5052 189.075 78.2236C191.098 73.4149 197.15 71.6888 197.15 71.6888H248.057L248.065 98.613C248.065 98.613 246.331 104.666 241.523 106.689C237.248 108.489 232.076 105.785 230.987 105.177C230.898 105.126 230.832 105.081 230.802 105.074C230.802 105.059 230.795 105.059 230.78 105.052C228.572 103.762 226.017 103.037 223.267 103.037C215.014 103.037 208.308 109.735 208.308 118.003C208.308 126.264 215.013 132.962 223.282 132.962C226.016 132.962 228.571 132.228 230.779 130.947C230.794 130.932 230.801 130.932 230.809 130.932C230.846 130.918 230.898 130.873 230.987 130.821C232.075 130.206 237.247 127.501 241.522 129.31C246.33 131.323 248.064 137.376 248.064 137.376Z" fill="#407BFF"/>
<g opacity="0.7">
<path d="M248.064 137.376V170.227L149.51 170.235V71.6888H158.387C158.387 71.6888 164.447 73.4149 166.454 78.2236C168.254 82.5061 165.565 87.67 164.943 88.7586C164.891 88.8546 164.862 88.9141 164.84 88.9439C164.832 88.9439 164.832 88.9583 164.832 88.966H164.818C163.544 91.174 162.81 93.7448 162.81 96.4789C162.81 104.74 169.5 111.445 177.769 111.445C186.037 111.445 192.735 104.741 192.735 96.4789C192.735 93.7372 191.994 91.174 190.713 88.966C190.713 88.9583 190.705 88.9439 190.705 88.9362C190.683 88.9141 190.639 88.8546 190.601 88.7586C189.979 87.67 187.282 82.5052 189.075 78.2236C191.098 73.4149 197.15 71.6888 197.15 71.6888H248.057L248.065 98.613C248.065 98.613 246.331 104.666 241.523 106.689C237.248 108.489 232.076 105.785 230.987 105.177C230.898 105.126 230.832 105.081 230.802 105.074C230.802 105.059 230.795 105.059 230.78 105.052C228.572 103.762 226.017 103.037 223.267 103.037C215.014 103.037 208.308 109.735 208.308 118.003C208.308 126.264 215.013 132.962 223.282 132.962C226.016 132.962 228.571 132.228 230.779 130.947C230.794 130.932 230.801 130.932 230.809 130.932C230.846 130.918 230.898 130.873 230.987 130.821C232.075 130.206 237.247 127.501 241.522 129.31C246.33 131.323 248.064 137.376 248.064 137.376Z" fill="white"/>
</g>
<path d="M346.521 71.6812V170.131H333.385C332.392 169.805 327.302 167.975 325.487 163.656C323.687 159.381 326.384 154.217 326.998 153.128C327.05 153.038 327.087 152.98 327.109 152.95C327.109 152.942 327.117 152.936 327.117 152.928L327.125 152.92C328.406 150.72 329.14 148.157 329.14 145.423C329.14 137.169 322.442 130.472 314.189 130.472C305.928 130.472 299.238 137.169 299.238 145.423C299.238 148.157 299.971 150.72 301.253 152.928C301.26 152.936 301.26 152.942 301.267 152.95C301.289 152.98 301.327 153.039 301.378 153.128C301.994 154.217 304.683 159.381 302.89 163.656C301.074 167.975 295.984 169.806 294.992 170.131H248.064V137.317C248.064 137.317 246.338 131.265 241.537 129.249C237.262 127.456 232.098 130.146 231.009 130.761C230.919 130.813 230.861 130.851 230.831 130.873C230.823 130.881 230.816 130.881 230.809 130.887C228.601 132.169 226.038 132.902 223.304 132.902C215.05 132.902 208.353 126.212 208.353 117.951C208.353 109.698 215.05 103 223.304 103C226.038 103 228.601 103.734 230.801 105.015L230.809 105.023C230.817 105.023 230.823 105.031 230.831 105.031C230.861 105.053 230.92 105.09 231.009 105.142C232.098 105.757 237.262 108.454 241.537 106.653C246.338 104.638 248.064 98.5842 248.064 98.5842V71.6812H346.521Z" fill="#407BFF"/>
<path opacity="0.5" d="M346.521 71.6812V170.131H333.385C332.392 169.805 327.302 167.975 325.487 163.656C323.687 159.381 326.384 154.217 326.998 153.128C327.05 153.038 327.087 152.98 327.109 152.95C327.109 152.942 327.117 152.936 327.117 152.928L327.125 152.92C328.406 150.72 329.14 148.157 329.14 145.423C329.14 137.169 322.442 130.472 314.189 130.472C305.928 130.472 299.238 137.169 299.238 145.423C299.238 148.157 299.971 150.72 301.253 152.928C301.26 152.936 301.26 152.942 301.267 152.95C301.289 152.98 301.327 153.039 301.378 153.128C301.994 154.217 304.683 159.381 302.89 163.656C301.074 167.975 295.984 169.806 294.992 170.131H248.064V137.317C248.064 137.317 246.338 131.265 241.537 129.249C237.262 127.456 232.098 130.146 231.009 130.761C230.919 130.813 230.861 130.851 230.831 130.873C230.823 130.881 230.816 130.881 230.809 130.887C228.601 132.169 226.038 132.902 223.304 132.902C215.05 132.902 208.353 126.212 208.353 117.951C208.353 109.698 215.05 103 223.304 103C226.038 103 228.601 103.734 230.801 105.015L230.809 105.023C230.817 105.023 230.823 105.031 230.831 105.031C230.861 105.053 230.92 105.09 231.009 105.142C232.098 105.757 237.262 108.454 241.537 106.653C246.338 104.638 248.064 98.5842 248.064 98.5842V71.6812H346.521Z" fill="white"/>
<path d="M278.207 180.776L270.876 198.325C269.646 201.23 268.39 204.118 267.117 206.946C266.484 208.355 265.827 209.748 265.169 211.089C264.512 212.431 263.837 213.747 263.195 214.823C262.999 215.173 262.768 215.515 262.632 215.703L262.623 215.712L261.675 216.165L260.632 216.634L258.496 217.566L249.705 221.29C243.801 223.794 237.889 226.374 232.036 229.099L234.104 235.541C240.486 234.327 246.791 232.901 253.079 231.303C256.214 230.475 259.35 229.663 262.502 228.714L264.895 227.987L266.108 227.603L267.398 227.159L267.885 226.979L268.107 226.885L268.987 226.501C269.149 226.424 269.261 226.381 269.449 226.287C269.637 226.176 269.817 226.073 269.987 225.954C270.167 225.843 270.346 225.715 270.449 225.638C270.97 225.237 271.312 224.92 271.619 224.613C272.004 224.22 272.32 223.861 272.594 223.528C273.115 222.904 273.491 222.367 273.875 221.828C274.524 220.888 275.089 219.983 275.618 219.103C276.01 218.461 276.37 217.838 276.729 217.214C277.566 215.711 278.352 214.224 279.112 212.745C280.642 209.781 282.034 206.808 283.402 203.834C286.11 197.87 288.631 191.924 290.929 185.781L278.207 180.776ZM263.025 215.515L262.974 215.55L262.939 215.567L263.025 215.507C263.051 215.49 263.075 215.473 263.101 215.464C263.076 215.48 263.051 215.498 263.025 215.515Z" fill="#263238"/>
<path d="M233.65 229.816C233.65 229.816 231.88 227.923 229.739 227.875C227.597 227.827 225.899 227.219 224.304 227.294C222.709 227.369 224.404 228.7 225.449 229.226C226.495 229.751 227.674 230.358 227.151 231.079C226.63 231.8 219.653 234.947 219.043 236.03C218.434 237.112 219.721 236.956 219.721 236.956C219.721 236.956 218.162 237.673 218.188 238.517C218.213 239.36 219.328 239.203 219.328 239.203C219.328 239.203 218.298 239.721 218.747 240.406C219.196 241.089 225.208 239.446 225.52 239.518C225.52 239.518 221.959 239.723 221.801 240.767C221.644 241.81 223.95 241.468 225.796 241.232C227.641 240.998 229.518 240.161 230.801 238.76C232.085 237.36 234.973 235.683 234.636 233.514C234.297 231.344 233.65 229.816 233.65 229.816Z" fill="#CE7A63"/>
<g opacity="0.2">
<path d="M219.625 239.26C221.411 238.451 223.223 237.703 225.047 237.028C225.239 237.503 225.466 237.954 225.725 238.399C225.86 238.615 226.135 238.334 226.012 238.118C225.226 236.785 224.746 235.26 224.585 233.619C224.558 233.353 224.209 233.441 224.236 233.707C224.276 234.118 224.334 234.51 224.416 234.901C224.386 234.883 224.35 234.884 224.314 234.896C222.85 235.315 221.435 235.915 220.071 236.695C219.867 236.817 220.003 237.191 220.22 237.068C221.554 236.306 222.938 235.713 224.366 235.306C224.42 235.288 224.457 235.252 224.481 235.203C224.588 235.703 224.732 236.192 224.905 236.661C223.081 237.337 221.275 238.079 219.483 238.893C219.266 238.991 219.409 239.359 219.625 239.26Z" fill="black"/>
</g>
<g opacity="0.2">
<path d="M226.47 235.127C227.854 233.253 229.943 232.55 231.877 233.263C232.095 233.346 232.231 232.952 232.013 232.87C229.915 232.092 227.681 232.88 226.184 234.895C226.034 235.107 226.32 235.327 226.47 235.127Z" fill="black"/>
</g>
<path opacity="0.2" d="M294.713 182.937C294.713 183.298 294.419 183.591 294.059 183.591C293.697 183.591 293.404 183.297 293.404 182.937C293.404 182.575 293.697 182.282 294.059 182.282C294.42 182.281 294.713 182.575 294.713 182.937Z" fill="black"/>
<path opacity="0.2" d="M294.713 187.226C294.713 187.588 294.419 187.88 294.059 187.88C293.697 187.88 293.404 187.587 293.404 187.226C293.404 186.864 293.697 186.571 294.059 186.571C294.42 186.571 294.713 186.864 294.713 187.226Z" fill="black"/>
<path opacity="0.2" d="M294.713 191.516C294.713 191.878 294.419 192.171 294.059 192.171C293.697 192.171 293.404 191.878 293.404 191.516C293.404 191.154 293.697 190.861 294.059 190.861C294.42 190.86 294.713 191.154 294.713 191.516Z" fill="black"/>
<path d="M278.689 400.688L276.239 410.771H270.93L270.688 400.688H278.689Z" fill="#FF8B7B"/>
<path d="M255.513 417.903C255.801 414.618 257.243 413.637 259.025 413.526C260.879 413.409 267.496 411.193 267.496 411.193C267.496 411.193 268.879 409.107 270.097 408.682C271.315 408.259 272.494 409.499 272.494 409.499L275.827 409.093C275.827 409.093 276.827 407.593 277.514 408.907C278.579 410.943 278.45 416.58 278.351 417.902H255.513V417.903Z" fill="#263238"/>
<path d="M255.945 417.044C257.327 417.037 258.703 417.032 260.085 417.025C266.123 416.996 272.16 416.96 278.198 416.931C278.429 416.932 278.382 416.578 278.152 416.584C277.746 416.589 277.332 416.587 276.925 416.592C276.923 416.578 276.914 416.558 276.905 416.545C275.785 414.652 276.532 412.729 278.14 411.771C278.329 411.665 278.105 411.357 277.924 411.469C276.184 412.507 275.428 414.564 276.559 416.59C275.705 416.599 274.858 416.601 274.004 416.603C267.972 416.632 261.936 416.669 255.898 416.697C255.668 416.696 255.715 417.05 255.945 417.044Z" fill="#407BFF"/>
<path d="M300.654 268.612C299.574 278.771 297.45 291.916 293.605 308.831C292.489 313.746 291.226 318.982 289.798 324.556C293.706 356.83 278.411 403.457 278.411 403.457L270.22 403.274C270.22 403.274 269.192 351.167 270.155 323.888C271.735 279.192 277.179 236.616 277.179 236.616L299.492 236.529C299.492 236.529 303.345 243.248 300.654 268.612Z" fill="#407BFF"/>
<path opacity="0.2" d="M300.654 268.612C299.574 278.771 297.45 291.916 293.605 308.831C288.91 290.955 297.404 252.803 297.404 252.803L300.654 268.612Z" fill="black"/>
<path d="M269.279 405.202L269.02 401.694H279.948L279.33 405.202H269.279Z" fill="#263238"/>
<path d="M312.655 400.688L310.205 410.771H304.896L304.654 400.688H312.655Z" fill="#FF8B7B"/>
<path d="M289.478 417.903C289.766 414.618 291.209 413.637 292.991 413.526C294.845 413.409 301.462 411.193 301.462 411.193C301.462 411.193 302.844 409.107 304.063 408.682C305.281 408.259 306.459 409.499 306.459 409.499L309.792 409.093C309.792 409.093 310.791 407.593 311.479 408.907C312.543 410.943 312.415 416.58 312.317 417.902H289.478V417.903Z" fill="#263238"/>
<path d="M289.911 417.044C291.294 417.037 292.669 417.032 294.052 417.025C300.089 416.996 306.127 416.96 312.165 416.931C312.395 416.932 312.348 416.578 312.119 416.584C311.713 416.589 311.299 416.587 310.893 416.592C310.891 416.578 310.881 416.558 310.873 416.545C309.752 414.652 310.499 412.729 312.107 411.771C312.296 411.665 312.073 411.357 311.891 411.469C310.151 412.507 309.395 414.564 310.526 416.59C309.673 416.599 308.825 416.601 307.972 416.603C301.94 416.632 295.904 416.669 289.865 416.697C289.634 416.696 289.681 417.05 289.911 417.044Z" fill="#407BFF"/>
<path d="M292.97 238.336C292.97 238.336 297.142 300.033 298.506 324.558C300.063 352.571 303.57 400.323 304.044 403.448H312.511C311.541 404.393 323.38 361.532 318.607 326.636C323.079 293.258 328.522 268.819 321.505 237.392L292.97 238.336Z" fill="#407BFF"/>
<path d="M303.046 405.202L302.787 401.694H313.715L313.097 405.202H303.046Z" fill="#263238"/>
<path d="M324.05 239.826C306.256 245.702 276.352 243.771 276.352 239.697C276.352 228.22 280.416 215.313 279.327 207.835C270.916 201.949 277.488 196.632 276.755 187.908C276.188 181.254 280.902 175.286 287.483 174.151C289.003 173.894 290.578 173.638 292.124 173.436C292.445 173.39 292.756 173.354 293.067 173.317C297.204 172.805 301.139 172.704 305.505 172.732C307.025 172.732 308.6 172.76 310.247 172.778C311.886 172.806 313.487 172.879 315.007 172.988C320.663 173.382 324.754 178.599 323.757 184.201C322.302 192.466 321.478 200.274 321.167 207.368C321.094 208.97 321.039 210.516 321.02 212.036C320.929 217.976 321.203 223.34 321.743 227.962C321.753 228.063 321.771 228.164 321.779 228.255C322.036 230.36 322.347 232.301 322.714 234.077C322.823 234.635 322.942 235.166 323.071 235.688C323.327 236.796 323.757 238.728 324.05 239.826Z" fill="#263238"/>
<path opacity="0.2" d="M312.778 186.733L321.655 200.104C321.791 198.498 321.954 196.857 322.15 195.2V195.165L312.778 186.733Z" fill="black"/>
<path d="M292.122 187.996C292.122 188.311 291.867 188.566 291.552 188.566C291.237 188.566 290.982 188.311 290.982 187.996C290.982 187.681 291.237 187.425 291.552 187.425C291.867 187.425 292.122 187.681 292.122 187.996Z" fill="#407BFF"/>
<path d="M291.777 193.125C291.777 193.44 291.521 193.695 291.206 193.695C290.891 193.695 290.636 193.44 290.636 193.125C290.636 192.81 290.891 192.555 291.206 192.555C291.52 192.555 291.777 192.81 291.777 193.125Z" fill="#407BFF"/>
<path d="M291.205 198.916C291.52 198.916 291.776 198.66 291.776 198.345C291.776 198.031 291.52 197.775 291.205 197.775C290.89 197.775 290.635 198.031 290.635 198.345C290.635 198.66 290.89 198.916 291.205 198.916Z" fill="#407BFF"/>
<path d="M305.505 172.732C301.292 180.136 291.379 184.57 291.379 184.57C290.041 181.253 290.46 175.932 292.124 173.437C292.445 173.391 292.756 173.355 293.067 173.318C297.203 172.806 301.139 172.705 305.505 172.732Z" fill="#FF8B7B"/>
<path d="M299.522 143.68C299.522 143.68 307.116 150.943 303.615 159.171C300.857 165.653 295.404 167.531 295.404 167.531L299.522 143.68Z" fill="#263238"/>
<path d="M287.362 141.872C287.362 141.872 279.902 140.619 278.302 148.842C276.702 157.065 277.105 160.056 279.276 162.097C282.133 164.782 286.679 161.859 286.679 161.859L287.362 141.872Z" fill="#263238"/>
<path d="M292.011 175.64C291.975 175.751 291.928 175.863 291.855 175.978C290.422 178.239 291.98 180.304 294.446 180.127C294.686 180.109 294.922 180.077 295.153 180.031C296.039 179.853 296.86 179.398 297.473 178.734C297.476 178.731 297.479 178.728 297.481 178.725C300.437 175.518 303.615 173.087 303.615 173.087C299.909 171.101 298.554 164.046 298.21 159.637L292.456 166.964L291.379 168.563C291.899 169.486 292.365 170.443 292.626 171.392C293.051 172.864 293.008 174.327 292.011 175.64Z" fill="#FF8B7B"/>
<path d="M303.045 172.728C303.045 172.728 306.491 171.831 309.205 172.728L303.614 182.334C300.671 180.188 297.298 182.973 291.378 184.57C291.378 184.57 298.431 181.024 303.045 172.728Z" fill="#407BFF"/>
<path d="M303.045 172.728C303.045 172.728 306.491 171.831 309.205 172.728L303.614 182.334C300.671 180.188 297.298 182.973 291.378 184.57C291.378 184.57 298.431 181.024 303.045 172.728Z" fill="#407BFF"/>
<path d="M292.878 173.168C292.878 173.168 289.463 172.542 287.482 174.151C287.482 174.151 286.341 177.972 285.884 181.71C285.884 181.71 289.17 180.07 291.379 184.57C291.379 184.57 290.261 177.401 292.878 173.168Z" fill="#407BFF"/>
<path d="M292.878 173.168C292.878 173.168 289.463 172.542 287.482 174.151C287.482 174.151 286.341 177.972 285.884 181.71C285.884 181.71 289.17 180.07 291.379 184.57C291.379 184.57 290.261 177.401 292.878 173.168Z" fill="#407BFF"/>
<g opacity="0.2">
<path d="M292.626 171.391C292.365 170.442 291.899 169.485 291.379 168.562L292.456 166.963L296.079 167.046C296.079 167.046 295.128 169.97 292.626 171.391Z" fill="black"/>
</g>
<path d="M299.264 151.782C299.84 159.024 300.236 162.078 297.197 166.263C292.625 172.559 283.772 171.649 281.085 164.717C278.666 158.476 278.129 147.681 284.622 143.855C291.018 140.086 298.688 144.539 299.264 151.782Z" fill="#FF8B7B"/>
<path d="M297.672 156.523C301.303 155.557 299.876 151.807 299.876 151.807L294.528 152.635C294.528 152.635 294.04 157.48 297.672 156.523Z" fill="#263238"/>
<path d="M282.268 144.535C282.268 144.535 283.105 148.532 288.017 148.746C292.929 148.96 292.498 156.222 298.001 155.073C303.503 153.926 301.871 145.495 299.522 143.68C297.172 141.865 287.73 137.92 282.268 144.535Z" fill="#263238"/>
<path d="M293.728 140.846C293.728 140.846 297.303 130.28 305.6 134.462C313.896 138.644 306.611 149.504 301.35 148.088C296.09 146.671 293.728 140.846 293.728 140.846Z" fill="#263238"/>
<path d="M284.103 162.945C284.103 162.945 286.821 161.397 288.407 159.813C288.407 159.813 288.925 162.561 287.076 163.574C285.228 164.586 284.103 162.945 284.103 162.945Z" fill="white"/>
<path d="M287.345 155.012C287.427 155.597 287.184 156.114 286.802 156.168C286.42 156.222 286.043 155.791 285.961 155.206C285.878 154.621 286.122 154.104 286.504 154.05C286.886 153.997 287.263 154.427 287.345 155.012Z" fill="#263238"/>
<path d="M281.404 155.978C281.486 156.562 281.242 157.08 280.86 157.134C280.478 157.187 280.102 156.756 280.019 156.172C279.937 155.587 280.18 155.07 280.563 155.016C280.946 154.963 281.322 155.393 281.404 155.978Z" fill="#263238"/>
<path d="M280.737 155.025L279.275 154.818C279.275 154.818 280.15 155.814 280.737 155.025Z" fill="#263238"/>
<path d="M283.586 155.858C283.586 155.858 282.796 157.549 281.89 159.048C281.597 159.536 281.816 160.176 282.359 160.353C283.29 160.656 284.264 160.715 284.264 160.715L283.586 155.858Z" fill="#FF5652"/>
<path d="M302.517 156.396C302.068 157.861 301.064 158.883 300.044 159.328C298.511 159.998 297.471 158.359 297.67 156.519C297.849 154.863 298.862 152.519 300.511 152.642C302.136 152.763 303.03 154.722 302.517 156.396Z" fill="#FF8B7B"/>
<path d="M288.945 152.672C288.854 152.672 288.762 152.635 288.695 152.564C287.633 151.439 286.376 151.651 286.361 151.653C286.175 151.686 285.993 151.562 285.958 151.374C285.924 151.184 286.049 151.005 286.237 150.97C286.304 150.959 287.882 150.691 289.2 152.088C289.33 152.227 289.325 152.446 289.185 152.578C289.117 152.642 289.032 152.672 288.945 152.672Z" fill="#263238"/>
<path d="M278.677 153.724C278.592 153.73 278.504 153.707 278.43 153.649C278.281 153.529 278.258 153.31 278.377 153.161C279.58 151.667 281.174 151.808 281.242 151.814C281.433 151.833 281.573 152.003 281.553 152.194C281.533 152.384 281.364 152.523 281.174 152.505C281.112 152.5 279.873 152.408 278.917 153.596C278.856 153.672 278.769 153.716 278.677 153.724Z" fill="#263238"/>
<path d="M286.678 154.06L285.217 153.852C285.217 153.852 286.091 154.848 286.678 154.06Z" fill="#263238"/>
<path d="M331.095 218.064C328.114 222.848 324.79 227.659 321.535 232.4L326.567 236.929C331.078 232.896 335.239 228.676 339.221 224.045C341.22 221.72 343.125 219.303 344.945 216.501C345.398 215.792 345.842 215.057 346.269 214.237C346.696 213.417 347.115 212.537 347.491 211.426C347.679 210.879 347.85 210.248 347.978 209.479C348.098 208.718 348.208 207.796 348.004 206.497C347.791 205.309 347.491 204.6 347.226 203.96C346.961 203.327 346.696 202.857 346.44 202.379C345.415 200.576 344.415 199.278 343.416 197.971C342.408 196.681 341.4 195.476 340.383 194.306C338.315 191.999 336.249 189.786 334.104 187.667C329.841 183.413 325.492 179.414 320.819 175.587L311.941 185.984L324.723 197.484C326.816 199.424 328.918 201.32 330.875 203.277C331.865 204.234 332.831 205.199 333.72 206.156C334.6 207.087 335.429 208.079 335.941 208.77C335.95 208.787 335.967 208.796 335.976 208.812C335.916 208.975 335.856 209.154 335.788 209.334C335.591 209.838 335.352 210.393 335.096 210.966C334.017 213.253 332.565 215.663 331.095 218.064Z" fill="#263238"/>
<path d="M321.87 230.281C321.87 230.281 316.193 232.386 315.318 233.492C314.442 234.598 320.015 240.872 322.178 241.751C324.342 242.629 323.227 240.024 323.227 240.024C323.227 240.024 326.021 240.676 327.324 238.555C328.629 236.435 327.09 230.635 321.87 230.281Z" fill="#FF8B7B"/>
<path d="M185.567 395.949V410.793L191.562 411.27L194.498 397.373L185.567 395.949Z" fill="#FFC3BD"/>
<path d="M189.821 409.872C189.821 409.872 191.705 406.253 192.818 406.64C193.931 407.025 194.384 411.416 194.384 411.416C194.384 411.416 200.426 413.436 202.114 413.543C203.801 413.649 205.168 414.607 205.385 417.903H184.753C184.753 417.903 184.892 410.458 184.93 409.183C184.967 407.907 186.783 409.501 186.783 409.501L189.821 409.872Z" fill="#263238"/>
<path d="M184.98 412.012C186.423 412.892 187.101 414.642 186.102 416.362C185.991 416.552 186.252 416.719 186.364 416.527C187.458 414.644 186.783 412.706 185.182 411.729C185.012 411.625 184.811 411.907 184.98 412.012Z" fill="white"/>
<path d="M184.95 416.718C190.345 416.774 195.739 416.83 201.134 416.887C202.389 416.9 203.643 416.912 204.897 416.926C205.107 416.928 205.149 416.6 204.939 416.599C199.545 416.542 194.149 416.486 188.754 416.43C187.5 416.416 186.246 416.404 184.991 416.39C184.782 416.387 184.74 416.716 184.95 416.718Z" fill="white"/>
<path d="M193.49 412.713C194.338 411.704 195.571 411.42 196.499 412.181C196.653 412.306 196.853 412.022 196.701 411.897C195.637 411.027 194.19 411.402 193.228 412.547C193.084 412.72 193.347 412.883 193.49 412.713Z" fill="white"/>
<path d="M195.199 413.25C196.046 412.24 197.28 411.957 198.208 412.717C198.362 412.843 198.562 412.559 198.41 412.434C197.346 411.562 195.898 411.939 194.937 413.084C194.793 413.257 195.056 413.42 195.199 413.25Z" fill="white"/>
<path d="M196.966 413.786C197.814 412.776 199.047 412.493 199.976 413.253C200.129 413.379 200.329 413.095 200.177 412.97C199.114 412.098 197.666 412.474 196.704 413.62C196.56 413.792 196.823 413.957 196.966 413.786Z" fill="white"/>
<path d="M181.968 248.844C182.139 251.493 181.775 259.626 182.134 263.992C182.809 272.313 183.714 283.105 184.432 293.912C185.269 306.429 185.868 318.963 185.569 327.66C184.8 349.994 184.971 400.607 184.971 400.607H194.659C194.659 400.607 206.04 350.301 208.167 327.66C209.944 308.889 209.002 260.532 208.703 248.844H181.968Z" fill="#263238"/>
<path opacity="0.2" d="M181.968 248.844C182.139 251.493 181.775 259.626 182.134 263.992C182.809 272.313 183.714 283.105 184.432 293.912C185.269 306.429 185.868 318.963 185.569 327.66C184.8 349.994 184.971 400.607 184.971 400.607H194.659C194.659 400.607 206.04 350.301 208.167 327.66C209.944 308.889 209.002 260.532 208.703 248.844H181.968Z" fill="white"/>
<path opacity="0.2" d="M182.134 263.992C182.809 272.313 183.714 283.105 184.432 293.913C189.2 279.799 184.774 258.473 184.774 258.473L182.134 263.992Z" fill="black"/>
<path d="M184.128 400.952H195.499L196.332 397.325L183.833 397.173L184.128 400.952Z" fill="#407BFF"/>
<path d="M136.038 393.181L133.772 407.85L139.625 409.237L144.647 395.952L136.038 393.181Z" fill="#FFC3BD"/>
<path d="M138.117 407.59C138.117 407.59 140.533 404.301 141.573 404.853C142.614 405.405 142.391 409.811 142.391 409.811C142.391 409.811 148.054 412.731 149.706 413.094C151.358 413.456 152.563 414.611 152.273 417.902L131.883 414.752C131.883 414.752 133.157 407.416 133.389 406.161C133.621 404.906 135.173 406.76 135.173 406.76L138.117 407.59Z" fill="#263238"/>
<path d="M133.007 408.966C134.299 410.056 134.701 411.889 133.452 413.436C133.313 413.607 133.546 413.813 133.685 413.64C135.054 411.945 134.682 409.927 133.25 408.717C133.097 408.588 132.854 408.837 133.007 408.966Z" fill="white"/>
<path d="M132.258 413.612C137.582 414.491 142.904 415.371 148.227 416.249C149.464 416.454 150.702 416.658 151.939 416.863C152.147 416.897 152.239 416.579 152.03 416.545C146.707 415.665 141.385 414.786 136.062 413.908C134.824 413.703 133.587 413.499 132.35 413.294C132.142 413.261 132.051 413.577 132.258 413.612Z" fill="white"/>
<path d="M141.309 410.959C142.301 410.09 143.563 409.998 144.365 410.891C144.497 411.039 144.738 410.789 144.608 410.643C143.69 409.619 142.201 409.77 141.076 410.755C140.907 410.903 141.142 411.105 141.309 410.959Z" fill="white"/>
<path d="M142.916 411.75C143.908 410.881 145.17 410.789 145.972 411.683C146.104 411.831 146.345 411.581 146.214 411.435C145.296 410.411 143.807 410.562 142.682 411.547C142.514 411.694 142.749 411.896 142.916 411.75Z" fill="white"/>
<path d="M144.581 412.549C145.573 411.68 146.835 411.588 147.637 412.482C147.769 412.63 148.01 412.379 147.878 412.233C146.961 411.21 145.472 411.36 144.347 412.346C144.179 412.494 144.414 412.696 144.581 412.549Z" fill="white"/>
<path d="M170.161 329.617C164.174 351.551 144.044 398.993 144.044 398.993L134.497 397.33C134.497 397.33 144.441 347.969 149.024 326.103C153.16 306.369 157.701 261.044 159.169 247.548L191.213 250.433C189.505 261.994 175.129 311.422 170.161 329.617Z" fill="#263238"/>
<path opacity="0.2" d="M170.161 329.617C164.174 351.551 144.044 398.993 144.044 398.993L134.497 397.33C134.497 397.33 144.441 347.969 149.024 326.103C153.16 306.369 157.701 261.044 159.169 247.548L191.213 250.433C189.505 261.994 175.129 311.422 170.161 329.617Z" fill="white"/>
<path d="M133.61 397.529L144.811 399.479L146.256 396.05L133.772 393.771L133.61 397.529Z" fill="#407BFF"/>
<path d="M213.549 182.74C213.011 187.371 212.131 197.153 211.268 208.183C210.952 212.353 210.628 216.719 210.337 221.042C209.987 226.039 209.704 230.841 209.483 235.207C209.397 236.976 209.32 238.676 209.252 240.282C208.945 248.237 208.945 254.047 209.389 255.798C184.586 265.836 157.647 252.859 157.647 252.859C159.245 239.872 160.851 225.117 160.851 225.117C161.603 219.589 162.338 214.001 162.987 208.738C163.038 208.311 163.098 207.884 163.141 207.465C163.456 204.876 163.747 202.382 164.012 200.015C164.047 199.724 164.08 199.434 164.115 199.143C164.628 194.487 165.02 190.369 165.26 187.071C165.705 180.869 169.473 175.092 175.086 174.059C176.786 173.743 178.623 173.461 180.519 173.247C180.973 173.188 181.433 173.144 181.895 173.094C187.149 172.521 192.882 172.265 198.051 172.436C198.307 172.436 198.572 172.445 198.829 172.453C198.956 172.462 199.111 172.462 199.238 172.471C199.46 172.479 199.692 172.488 199.913 172.505C202.203 172.608 204.382 172.804 206.313 173.095C210.686 173.735 214.139 177.69 213.549 182.74Z" fill="#407BFF"/>
<path opacity="0.3" d="M196.759 185.971C196.773 186.407 196.431 186.773 195.996 186.787C195.56 186.801 195.194 186.46 195.18 186.024C195.165 185.588 195.507 185.222 195.943 185.208C196.379 185.192 196.744 185.534 196.759 185.971Z" fill="white"/>
<path opacity="0.3" d="M196.923 190.885C196.937 191.321 196.596 191.687 196.16 191.701C195.724 191.716 195.358 191.374 195.344 190.938C195.329 190.502 195.671 190.136 196.107 190.122C196.543 190.107 196.909 190.448 196.923 190.885Z" fill="white"/>
<path opacity="0.3" d="M197.088 195.799C197.102 196.234 196.761 196.6 196.325 196.615C195.889 196.629 195.523 196.287 195.509 195.851C195.494 195.416 195.836 195.05 196.272 195.035C196.708 195.021 197.073 195.363 197.088 195.799Z" fill="white"/>
<path opacity="0.2" d="M181.968 196.154C181.968 196.154 182.902 217.55 184.583 219.192C186.264 220.833 206.335 228.919 206.335 228.919C194.832 227.588 184.535 225.778 179.467 221.891C177.592 216.721 180.262 205.831 181.968 196.154Z" fill="black"/>
<path opacity="0.2" d="M209.482 235.207C209.396 236.975 209.319 238.675 209.251 240.281C202.16 239.819 175.812 239.456 168.574 229.046C164.338 222.952 166.412 198.101 166.412 198.101C171.692 215.513 185.636 228.944 203.236 233.566L209.482 235.207Z" fill="black"/>
<path d="M248.707 206.816C245.614 206.628 242.522 206.457 239.54 206.184C238.07 206.039 236.584 205.885 235.328 205.688C235.131 205.663 234.926 205.62 234.738 205.586C234.73 205.56 234.636 205.466 234.491 205.329C233.842 204.714 232.859 203.68 231.962 202.639C231.039 201.579 230.108 200.434 229.177 199.272C227.306 196.956 225.461 194.522 223.606 192.086C219.915 187.199 216.199 182.175 212.457 177.34L200 186.344C203.665 191.668 207.536 196.665 211.688 201.612C213.764 204.081 215.908 206.5 218.173 208.917C219.326 210.113 220.497 211.301 221.761 212.505C223.051 213.71 224.307 214.898 226.153 216.214C226.614 216.538 227.161 216.897 227.836 217.274L228.408 217.581C228.614 217.684 228.878 217.794 229.118 217.897C229.348 218 229.724 218.127 230.031 218.23C230.228 218.289 230.262 218.289 230.373 218.315L230.664 218.384C232.202 218.717 233.107 218.743 234.073 218.802C235.944 218.896 237.602 218.853 239.268 218.785C242.574 218.64 245.77 218.401 248.956 218.075C252.86 217.683 256.74 217.212 260.601 216.649L260.635 216.631L261.678 216.161L262.626 215.708L262.635 215.699C262.771 215.511 263.003 215.169 263.198 214.819C263.84 213.743 264.515 212.427 265.172 211.086C265.694 210.026 266.215 208.932 266.719 207.822C260.703 207.422 254.663 207.15 248.707 206.816ZM234.081 205.389C234.081 205.389 234.089 205.38 234.089 205.389C234.098 205.389 234.115 205.389 234.14 205.398C234.26 205.424 234.447 205.5 234.508 205.517C234.534 205.525 234.576 205.543 234.611 205.551C234.302 205.483 234.081 205.423 234.081 205.389Z" fill="#407BFF"/>
<path opacity="0.2" d="M214.095 204.416L211.934 189.387L211.49 201.382L214.095 204.416Z" fill="black"/>
<path d="M199.312 139.137C195.688 138.101 191.76 138.506 188.533 140.453C186.425 141.725 184.642 143.58 184.851 146.184C185.342 152.259 187.675 162.325 187.675 162.325L207.622 151.758C207.622 151.758 208.797 146.57 206.19 143.471C204.252 141.171 201.991 139.904 199.312 139.137Z" fill="#263238"/>
<path d="M191.614 139.11C191.614 139.11 187.568 138.954 184.961 142.007C182.789 144.551 185.469 151.08 185.469 151.08L191.614 139.11Z" fill="#263238"/>
<path d="M189.595 139.882C189.595 139.882 190.356 137.201 198.496 137.208C206.56 137.214 211.601 137.113 210.576 141.804C209.218 148.022 199.268 145.746 199.268 145.746L189.595 139.882Z" fill="#263238"/>
<path d="M197.12 169.325L197.121 169.332C197.107 169.359 197.102 169.376 197.088 169.403L196.007 172.849C195.899 173.557 195.857 174.266 195.881 174.957C195.899 175.541 195.965 176.109 196.062 176.657C196.781 177.743 197.036 180.144 194.311 180.031C190.871 179.895 184.741 174.896 184.583 173.37C186.388 168.742 188.018 162.993 187.965 158.491L191.697 162.914L197.12 169.325Z" fill="#FFC3BD"/>
<g opacity="0.2">
<path d="M197.088 169.404L196.007 172.85C193.9 171.77 191.745 169.55 191.333 167.237C191.048 165.567 191.862 164.055 192.533 164.001L197.088 169.404Z" fill="black"/>
</g>
<path d="M206.126 162.495C205.889 163.245 205.627 163.981 205.35 164.707C202.884 171.114 194.832 171.338 190.058 166.318C190.051 166.308 190.052 166.3 190.044 166.299C189.62 165.853 189.221 165.368 188.854 164.835C185.871 160.518 186.814 157.347 187.625 150.086C188.435 142.834 196.422 138.643 202.854 142.668C208.79 146.383 208.519 155.006 206.126 162.495Z" fill="#FFC3BD"/>
<path d="M197.219 159.26C197.219 159.26 199.18 160.424 201.938 161.649C201.938 161.649 200.469 163.819 198.124 162.234C196.631 161.226 197.219 159.26 197.219 159.26Z" fill="white"/>
<path d="M203.438 141.961C200.073 139.472 193.12 138.68 190.153 141.984C187.187 145.287 187.514 150.763 187.514 150.763C187.514 150.763 187.491 151.758 188.144 152.372C188.207 152.426 188.284 152.523 188.366 152.636L191.962 152.993C192.154 151.51 192.577 148.799 193.568 148.596C195.423 148.216 194.019 146.233 194.348 145.049C195.419 141.202 205.822 143.135 207.362 148.821C207.362 148.821 206.804 144.449 203.438 141.961Z" fill="#263238"/>
<path d="M183.708 154.339C183.911 156.297 185 157.978 186.273 158.978C188.186 160.48 190.072 158.993 190.317 156.701C190.539 154.638 189.809 151.369 187.514 150.762C185.254 150.165 183.475 152.101 183.708 154.339Z" fill="#FFC3BD"/>
<path d="M198.405 153.841C198.307 154.399 198.524 154.904 198.889 154.967C199.254 155.03 199.628 154.63 199.726 154.071C199.823 153.513 199.607 153.009 199.242 152.945C198.877 152.883 198.502 153.283 198.405 153.841Z" fill="#263238"/>
<path d="M204.305 154.85C204.207 155.408 204.424 155.912 204.789 155.976C205.154 156.039 205.529 155.639 205.626 155.08C205.723 154.522 205.507 154.017 205.142 153.954C204.778 153.891 204.403 154.291 204.305 154.85Z" fill="#263238"/>
<path d="M206.703 153.023C206.604 153.006 206.516 152.937 206.481 152.834C206.319 152.377 206.066 152.067 205.728 151.91C205.172 151.653 204.543 151.881 204.537 151.884C204.391 151.941 204.22 151.868 204.163 151.717C204.107 151.568 204.18 151.4 204.33 151.343C204.364 151.329 205.189 151.022 205.971 151.385C206.457 151.61 206.812 152.032 207.026 152.642C207.08 152.793 207.001 152.959 206.849 153.012C206.801 153.028 206.75 153.032 206.703 153.023Z" fill="#263238"/>
<path d="M197.055 151.354C197.009 151.347 196.965 151.328 196.926 151.299C196.786 151.197 196.755 151.001 196.856 150.861C196.88 150.828 197.445 150.061 198.37 149.925C198.943 149.841 199.516 150.013 200.073 150.44C200.211 150.545 200.238 150.742 200.132 150.88C200.027 151.018 199.829 151.044 199.692 150.939C199.276 150.621 198.864 150.489 198.466 150.546C197.805 150.64 197.368 151.225 197.365 151.231C197.291 151.33 197.17 151.375 197.055 151.354Z" fill="#263238"/>
<path d="M202.239 153.747C202.239 153.747 202.689 156.284 203.577 158.006C204.468 159.734 201.364 159.262 201.364 159.262L202.239 153.747Z" fill="#ED847E"/>
<path d="M217.761 231.764L217.051 238.65C209.883 238.701 202.852 238.257 195.701 237.309C192.121 236.84 188.533 236.207 184.859 235.276C183.022 234.814 181.159 234.276 179.228 233.525C178.255 233.141 177.272 232.721 176.238 232.192C175.213 231.662 174.136 231.039 172.974 230.116C172.675 229.868 172.393 229.646 172.085 229.347L171.632 228.911L171.17 228.407C170.879 228.091 170.555 227.647 170.265 227.245C169.966 226.767 169.675 226.331 169.419 225.742C169.154 225.203 168.932 224.563 168.761 223.913L168.54 223.041C168.395 222.469 168.318 221.99 168.198 221.461C167.814 219.437 167.565 217.582 167.352 215.728C166.942 212.054 166.728 208.474 166.574 204.912L166.421 199.589L166.404 194.291C166.447 190.746 166.515 187.259 166.763 183.68L182.133 184.234C182.142 191.01 181.971 197.913 181.903 204.671C181.861 208.054 181.852 211.429 181.929 214.676C181.972 216.291 182.04 217.897 182.176 219.307C182.211 219.598 182.227 219.94 182.27 220.205C182.8 220.623 183.629 221.144 184.492 221.589C185.739 222.238 187.158 222.871 188.619 223.451C191.575 224.622 194.745 225.638 197.965 226.604C204.407 228.509 211.131 230.158 217.761 231.764Z" fill="#407BFF"/>
<path d="M216.73 231.921C216.73 231.921 223.872 230.041 225.382 230.352C227.071 230.699 226.291 239.599 224.106 240.818C221.921 242.037 216.484 238.087 216.484 238.087C215.224 235.19 215.618 232.817 216.73 231.921Z" fill="#FFC3BD"/>
<path d="M216.73 231.921C216.73 231.921 218.385 230.148 219.993 229.581C221.601 229.014 223.171 228.185 223.905 228.47C224.638 228.755 222.133 230.676 222.133 230.676L216.73 231.921Z" fill="#FFC3BD"/>
<path d="M225.382 230.352C225.382 230.352 229.769 231.591 231.166 233.402C232.563 235.212 228.628 234.119 228.628 234.119C228.628 234.119 233.205 235.783 231.316 239.276C230.389 240.989 225.123 241.328 222.693 241.015C222.695 241.015 222.763 233.579 225.382 230.352Z" fill="#FFC3BD"/>
<path d="M185.63 170.484C185.63 170.484 182.743 170.38 180.536 173.583L190.005 184.726C190.005 184.726 189.934 180.704 195.132 179.975C195.132 179.975 188.118 174.9 185.63 170.484Z" fill="#407BFF"/>
<path opacity="0.3" d="M185.63 170.484C185.63 170.484 182.743 170.38 180.536 173.583L190.005 184.726C190.005 184.726 189.934 180.704 195.132 179.975C195.132 179.975 188.118 174.9 185.63 170.484Z" fill="white"/>
<path d="M195.132 179.976C195.132 179.976 195.734 173.725 196.151 172.393L196.69 170.675C196.69 170.675 200.413 170.735 201.687 172.605L201.182 182.128C201.182 182.128 198.549 180.035 195.132 179.976Z" fill="#407BFF"/>
<path opacity="0.3" d="M195.132 179.976C195.132 179.976 195.734 173.725 196.151 172.393L196.69 170.675C196.69 170.675 200.413 170.735 201.687 172.605L201.182 182.128C201.182 182.128 198.549 180.035 195.132 179.976Z" fill="white"/>
</svg>
