<svg width="576" height="576" viewBox="0 0 576 576" fill="none" xmlns="http://www.w3.org/2000/svg">
<path d="M518.286 459.065H480.129V459.353H518.286V459.065Z" fill="#EBEBEB"/>
<path d="M381.565 462.192H371.551V462.48H381.565V462.192Z" fill="#EBEBEB"/>
<path d="M478.976 448.368H456.867V448.656H478.976V448.368Z" fill="#EBEBEB"/>
<path d="M110.191 450.303H60.4328V450.591H110.191V450.303Z" fill="#EBEBEB"/>
<path d="M127.744 450.303H120.449V450.591H127.744V450.303Z" fill="#EBEBEB"/>
<path d="M259.369 455.168H151.455V455.456H259.369V455.168Z" fill="#EBEBEB"/>
<path d="M274.638 389.146H52.1879C48.5626 389.146 45.6123 386.195 45.6123 382.57V69.8803C45.6123 66.255 48.5626 63.3047 52.1879 63.3047H274.638C278.262 63.3047 281.212 66.255 281.212 69.8803V382.57C281.212 386.195 278.262 389.146 274.638 389.146ZM52.1879 63.5938C48.7204 63.5938 45.9003 66.4139 45.9003 69.8815V382.571C45.9003 386.039 48.7204 388.859 52.1879 388.859H274.638C278.104 388.859 280.924 386.039 280.924 382.571V69.8803C280.924 66.4139 278.104 63.5927 274.638 63.5927L52.1879 63.5938Z" fill="#EBEBEB"/>
<path d="M523.812 389.146H301.362C297.738 389.146 294.788 386.195 294.788 382.57V69.8803C294.788 66.255 297.738 63.3047 301.362 63.3047H523.812C527.439 63.3047 530.388 66.255 530.388 69.8803V382.57C530.388 386.195 527.437 389.146 523.812 389.146ZM301.362 63.5938C297.896 63.5938 295.076 66.4139 295.076 69.8815V382.571C295.076 386.039 297.896 388.859 301.362 388.859H523.812C527.28 388.859 530.1 386.039 530.1 382.571V69.8803C530.1 66.4139 527.28 63.5927 523.812 63.5927L301.362 63.5938Z" fill="#EBEBEB"/>
<path d="M576 440.522H0V440.81H576V440.522Z" fill="#EBEBEB"/>
<path d="M475.607 406.461C475.607 406.461 474.834 367.04 486.429 342.69C498.023 318.341 508.845 298.244 516.188 290.128C516.188 290.128 494.544 345.009 491.452 360.855C488.36 376.701 480.63 406.46 480.63 406.46H475.607V406.461Z" fill="#F5F5F5"/>
<path d="M477.346 404.722C477.346 404.722 478.313 362.401 486.622 346.169C494.931 329.936 508.266 304.621 508.266 304.621C508.266 304.621 492.999 341.723 489.714 357.377C486.428 373.029 479.086 404.722 479.086 404.722H477.346Z" fill="#E6E6E6"/>
<path d="M469.741 408.22C469.741 408.22 470.514 368.799 458.919 344.449C447.324 320.1 436.502 300.003 429.159 291.887C429.159 291.887 450.803 346.768 453.895 362.614C456.987 378.46 464.717 408.219 464.717 408.219H469.741V408.22Z" fill="#F0F0F0"/>
<path d="M468.002 406.482C468.002 406.482 467.036 364.161 458.726 347.929C450.417 331.696 437.083 306.381 437.083 306.381C437.083 306.381 452.349 343.484 455.634 359.137C458.92 374.789 466.263 406.482 466.263 406.482H468.002Z" fill="#E0E0E0"/>
<path d="M468.467 407.33C468.467 407.33 479.68 369.528 474.968 342.975C470.257 316.421 465.16 294.171 460.236 284.396C460.236 284.396 466.528 343.055 465.3 359.153C464.073 375.251 463.621 405.995 463.621 405.995L468.467 407.33Z" fill="#EBEBEB"/>
<path d="M467.251 405.192C467.251 405.192 477.558 364.134 473.858 346.277C470.158 328.421 464.026 300.474 464.026 300.474C464.026 300.474 468.89 340.298 467.901 356.262C466.911 372.225 465.575 404.73 465.575 404.73L467.251 405.192Z" fill="#FAFAFA"/>
<path d="M472.266 409.182C472.266 409.182 464.334 370.559 471.306 344.507C478.278 318.454 485.263 296.724 491.008 287.408C491.008 287.408 479.709 345.311 479.552 361.455C479.394 377.599 477.208 408.269 477.208 408.269L472.266 409.182Z" fill="#F5F5F5"/>
<path d="M473.659 407.156C473.659 407.156 466.91 365.366 472.128 347.892C477.345 330.419 485.851 303.1 485.851 303.1C485.851 303.1 477.589 342.362 477.207 358.35C476.824 374.34 475.368 406.839 475.368 406.839L473.659 407.156Z" fill="#E6E6E6"/>
<path d="M477.529 441.196H465.368C460.581 441.196 456.62 437.472 456.327 432.695L454.073 404.185H488.825L486.57 432.695C486.275 437.473 482.315 441.196 477.529 441.196Z" fill="#EBEBEB"/>
<path d="M118.37 372.466C118.513 372.626 117.724 373.727 120.937 373.245C128.85 372.055 142.631 368.85 146.469 360.706C151.948 349.079 134.96 353.324 135.547 347.382C136.133 341.44 155.461 342.475 157.514 333.757C159.568 325.04 146.455 329.191 146.282 324.943C146.108 320.695 161.213 323.332 164.212 313.927C167.21 304.522 155.794 311.444 157.106 307.536C158.418 303.626 171.198 285.938 164.243 283.885C157.289 281.831 145.576 299.982 141.057 302.554C136.537 305.127 132.52 290.312 127.132 296.566C121.744 302.822 130.29 324.705 123.417 328.951C118.299 332.114 119.745 323.402 112.989 325.028C103.814 327.237 106.901 359.636 118.37 372.466Z" fill="#E6E6E6"/>
<path d="M142.797 324.992C139.683 325.252 137.385 325.886 135.958 326.397C138.747 322.312 140.752 320.217 140.824 320.144C141.051 319.913 141.047 319.543 140.817 319.315C140.587 319.088 140.216 319.091 139.989 319.321C139.932 319.377 135.307 324.143 130.242 333.463C127.753 318.466 134.034 305.357 134.1 305.222C134.207 305.005 134.116 304.741 133.898 304.634C133.682 304.525 133.417 304.618 133.311 304.835C133.241 304.976 126.537 318.966 129.576 334.702C128.767 336.246 127.951 337.897 127.145 339.67C124.818 344.791 122.384 351.357 120.459 359.27C119.123 356.856 116.062 350.392 115.788 341.37C115.781 341.127 115.578 340.937 115.335 340.944C115.088 340.961 114.902 341.154 114.909 341.398C115.225 351.838 119.226 358.979 120.155 360.501C117.608 371.48 116.081 384.993 117.178 400.91C117.2 401.234 117.48 401.477 117.804 401.455C117.829 401.454 117.853 401.45 117.876 401.446C118.162 401.389 118.368 401.129 118.348 400.83C116.896 379.753 120.049 362.812 124.409 349.985C125.516 348.705 128.788 345.419 133.767 344.646C133.993 344.592 134.171 344.382 134.133 344.143C134.095 343.904 133.87 343.74 133.631 343.776C129.693 344.401 126.809 346.442 125.096 348.018C128.314 339.106 132.06 332.331 135.094 327.693C136.072 327.252 138.745 326.214 142.871 325.869C143.109 325.839 143.293 325.636 143.272 325.393C143.252 325.151 143.04 324.972 142.797 324.992Z" fill="#F5F5F5"/>
<path d="M108.23 376.955C101.654 377.08 90.4205 370.973 86.0106 365.031C81.5362 359.001 94.1241 362.742 92.8316 358.008C91.5391 353.273 76.0182 356.773 73.1543 349.991C70.2904 343.21 81.4878 344.768 81.0432 341.302C80.5985 337.836 68.9979 338.541 65.2735 331.331C61.549 324.122 71.7535 328.161 70.1522 325.174C68.5509 322.187 55.7602 309.611 61.1124 306.991C66.4646 304.37 78.4546 317.466 82.4717 318.928C86.4887 320.39 87.4276 311.343 92.6542 315.67C97.8808 319.998 93.9686 338.907 100.123 341.402C104.705 343.26 102.756 334.602 108.032 336.787C117.269 340.613 110.9 376.904 108.23 376.955Z" fill="#E0E0E0"/>
<g opacity="0.3">
<path d="M108.23 376.955C101.654 377.08 90.4205 370.973 86.0106 365.031C81.5362 359.001 94.1241 362.742 92.8316 358.008C91.5391 353.273 76.0182 356.773 73.1543 349.991C70.2904 343.21 81.4878 344.768 81.0432 341.302C80.5985 337.836 68.9979 338.541 65.2735 331.331C61.549 324.122 71.7535 328.161 70.1522 325.174C68.5509 322.187 55.7602 309.611 61.1124 306.991C66.4646 304.37 78.4546 317.466 82.4717 318.928C86.4887 320.39 87.4276 311.343 92.6542 315.67C97.8808 319.998 93.9686 338.907 100.123 341.402C104.705 343.26 102.756 334.602 108.032 336.787C117.269 340.613 110.9 376.904 108.23 376.955Z" fill="#E0E0E0"/>
</g>
<path d="M106.058 369.062C106.152 369.025 106.239 368.967 106.29 368.869C106.445 368.577 110.048 361.603 109.241 351.239C109.221 350.997 109.017 350.82 108.767 350.835C108.525 350.854 108.344 351.065 108.363 351.308C109.046 360.06 106.433 366.465 105.701 368.064C102.756 360.071 99.2286 352.962 95.6851 346.877C96.8486 332.755 89.6118 321.192 89.538 321.076C89.4079 320.871 89.136 320.811 88.9309 320.941C88.7259 321.072 88.6648 321.343 88.7961 321.548C88.8664 321.658 95.5123 332.29 94.8925 345.516C86.4633 331.398 78.2358 323.195 78.071 323.033C77.8406 322.808 77.4685 322.809 77.2416 323.043C77.0146 323.273 77.0181 323.645 77.2496 323.872C77.3879 324.007 83.2377 329.852 90.0852 340.101C86.0728 338.61 81.7194 337.833 77.6517 337.911C77.4086 337.916 77.2162 338.117 77.2208 338.361C77.2255 338.6 77.4213 338.792 77.6609 338.792C77.6644 338.792 77.6667 338.792 77.669 338.792C82.0247 338.713 86.7122 339.624 90.9308 341.374C93.2855 344.984 95.73 349.11 98.087 353.681C95.8256 352.152 91.4354 350.036 85.8182 351.521C85.5832 351.583 85.4427 351.823 85.5049 352.058C85.5671 352.293 85.8067 352.437 86.0429 352.37C93.168 350.491 98.1884 354.749 99.0109 355.506C105.46 368.492 111.022 384.91 111.759 403.723C111.772 404.039 112.031 404.286 112.344 404.286C112.352 404.286 112.359 404.286 112.367 404.286C112.691 404.274 112.942 404.001 112.931 403.677C112.433 390.946 109.736 379.31 106.058 369.062Z" fill="#F5F5F5"/>
<path d="M126.725 441.196C133.002 429.393 137.126 412.336 137.126 404.861C137.126 398.542 134.163 392.872 129.461 388.901H97.3152C92.6127 392.872 89.6498 398.544 89.6498 404.861C89.6498 412.338 93.7739 429.393 100.051 441.196H126.725Z" fill="#E0E0E0"/>
<path d="M159.105 67.0187H157.787V106.082H159.105V67.0187Z" fill="#E6E6E6"/>
<path d="M116.706 127.789L158.446 102.564L200.187 127.789H116.706Z" fill="#EBEBEB"/>
<path d="M161.327 127.789L158.446 102.564L177.209 127.789H161.327Z" fill="#F5F5F5"/>
<path d="M418.213 67.0187H416.895V106.082H418.213V67.0187Z" fill="#E6E6E6"/>
<path d="M375.813 127.789L417.554 102.564L459.294 127.789H375.813Z" fill="#F0F0F0"/>
<path d="M420.435 127.789L417.554 102.564L436.318 127.789H420.435Z" fill="#FAFAFA"/>
<path d="M282.445 488.119C405.803 488.119 505.805 482.278 505.805 475.074C505.805 467.87 405.803 462.03 282.445 462.03C159.087 462.03 59.0849 467.87 59.0849 475.074C59.0849 482.278 159.087 488.119 282.445 488.119Z" fill="#F5F5F5"/>
<path d="M214.407 158.012C214.286 156.533 213.05 155.394 211.566 155.394C210.082 155.394 208.846 156.533 208.725 158.012L208.426 161.675H214.706L214.407 158.012ZM211.567 159.922C210.801 159.922 210.18 159.301 210.18 158.535C210.18 157.769 210.801 157.148 211.567 157.148C212.333 157.148 212.954 157.769 212.954 158.535C212.954 159.3 212.333 159.922 211.567 159.922Z" fill="#407BFF"/>
<path d="M358.911 158.012C358.79 156.533 357.554 155.394 356.071 155.394C354.587 155.394 353.351 156.533 353.23 158.012L352.93 161.675H359.211L358.911 158.012ZM356.072 159.922C355.306 159.922 354.685 159.301 354.685 158.535C354.685 157.769 355.306 157.148 356.072 157.148C356.838 157.148 357.459 157.769 357.459 158.535C357.459 159.3 356.838 159.922 356.072 159.922Z" fill="#407BFF"/>
<path d="M383.471 161.09H182.674V285.504H383.471V161.09Z" fill="#263238"/>
<path opacity="0.6" d="M383.471 161.09H182.674V285.504H383.471V161.09Z" fill="white"/>
<path opacity="0.9" d="M378.332 166.229H187.813V280.366H378.332V166.229Z" fill="white"/>
<path d="M385.838 282.09H180.306V288.053H385.838V282.09Z" fill="#263238"/>
<path opacity="0.7" d="M385.838 282.09H180.306V288.053H385.838V282.09Z" fill="white"/>
<path opacity="0.2" d="M221.73 186.77H207.08V206.02H221.73V186.77Z" fill="#263238"/>
<path d="M227.323 206.019C222.331 196.469 223.867 186.769 223.867 186.769H207.302C207.302 186.769 205.767 196.468 210.758 206.019H227.323Z" fill="#407BFF"/>
<path opacity="0.5" d="M227.323 206.019C222.331 196.469 223.867 186.769 223.867 186.769H207.302C207.302 186.769 205.767 196.468 210.758 206.019H227.323Z" fill="white"/>
<path opacity="0.2" d="M362.403 186.77H347.753V206.02H362.403V186.77Z" fill="#263238"/>
<path d="M367.996 206.019C363.004 196.469 364.54 186.769 364.54 186.769H347.975C347.975 186.769 346.44 196.468 351.431 206.019H367.996Z" fill="#407BFF"/>
<path opacity="0.2" d="M367.996 206.019C363.004 196.469 364.54 186.769 364.54 186.769H347.975C347.975 186.769 346.44 196.468 351.431 206.019H367.996Z" fill="white"/>
<path opacity="0.2" d="M256.07 187.111H241.42V206.36H256.07V187.111Z" fill="#263238"/>
<path d="M261.663 206.36C256.671 196.81 258.207 187.11 258.207 187.11H241.643C241.643 187.11 240.108 196.809 245.099 206.36H261.663Z" fill="#407BFF"/>
<path opacity="0.8" d="M261.663 206.36C256.671 196.81 258.207 187.11 258.207 187.11H241.643C241.643 187.11 240.108 196.809 245.099 206.36H261.663Z" fill="white"/>
<path opacity="0.2" d="M332.49 186.77H317.84V206.02H332.49V186.77Z" fill="#263238"/>
<path d="M338.083 206.019C333.092 196.469 334.627 186.769 334.627 186.769H318.063C318.063 186.769 316.527 196.468 321.519 206.019H338.083Z" fill="#407BFF"/>
<path opacity="0.6" d="M338.083 206.019C333.092 196.469 334.627 186.769 334.627 186.769H318.063C318.063 186.769 316.527 196.468 321.519 206.019H338.083Z" fill="white"/>
<path d="M310.429 203.191C308.954 194.274 313.874 185.986 322.782 183.64C331.815 181.261 342.444 186.415 343.327 196.361C344.95 214.614 316.808 219.198 312.462 201.946C312.283 201.235 311.183 201.535 311.363 202.249C313.559 210.967 320.938 214.423 329.632 213.898C338.849 213.34 345.718 204.603 344.408 195.457C342.984 185.515 332.405 180.318 323.171 182.387C313.254 184.609 307.71 193.708 309.329 203.495C309.449 204.216 310.548 203.91 310.429 203.191Z" fill="#407BFF"/>
<path d="M206.172 218.665C220.531 215.196 235.492 213.674 250.226 213.246C251.002 213.223 251.006 212.013 250.226 212.036C235.402 212.467 220.302 214.007 205.851 217.499C205.094 217.682 205.414 218.848 206.172 218.665Z" fill="#407BFF"/>
<path d="M216.892 220.712C225.49 218.646 234.414 217.752 243.233 217.472C244.01 217.448 244.013 216.237 243.233 216.263C234.318 216.546 225.264 217.457 216.57 219.546C215.813 219.728 216.134 220.894 216.892 220.712Z" fill="#407BFF"/>
<path d="M433.992 201.262C433.879 201.817 433.494 202.206 433.132 202.132C432.771 202.059 432.568 201.549 432.681 200.995C432.794 200.441 433.179 200.052 433.54 200.125C433.903 200.2 434.105 200.708 433.992 201.262Z" fill="#263238"/>
<path d="M433.546 202.216C433.546 202.216 431.636 205.157 429.936 206.418C430.729 207.532 432.482 207.452 432.482 207.452L433.546 202.216Z" fill="#A02724"/>
<path d="M436.647 198.598C436.728 198.598 436.81 198.569 436.873 198.509C437.008 198.385 437.016 198.174 436.891 198.04C435.645 196.691 434.131 196.931 434.067 196.941C433.886 196.972 433.765 197.144 433.795 197.324C433.826 197.505 434 197.624 434.176 197.596C434.226 197.588 435.409 197.414 436.404 198.491C436.469 198.562 436.557 198.598 436.647 198.598Z" fill="#263238"/>
<path d="M449.778 209.057C448.772 214.186 447.769 223.584 451.357 227.005C451.357 227.005 449.955 232.208 440.425 232.208C429.945 232.208 435.417 227.005 435.417 227.005C441.137 225.639 440.988 221.396 439.993 217.411L449.778 209.057Z" fill="#B55B52"/>
<path d="M452.714 203.845C450.912 210.566 450.2 214.591 446.053 217.386C439.815 221.59 432.047 216.765 431.805 209.642C431.586 203.23 434.569 193.317 441.78 191.962C448.886 190.627 454.515 197.125 452.714 203.845Z" fill="#B55B52"/>
<path d="M438.392 206.638C438.392 206.638 439.889 215.843 448.961 215.561C448.961 215.561 459.911 209.401 458.775 197.758C458.775 197.758 462.266 193.211 460.157 191.328C458.813 190.127 457.224 192.707 457.224 192.707C457.224 192.707 457.993 186.033 455.257 185.313C452.521 184.593 452.245 188.872 452.245 188.872C452.245 188.872 451.613 182.124 448.8 181.763C445.548 181.344 446.497 186.133 446.497 186.133C446.497 186.133 445.429 180.506 442.254 180.522C439.602 180.536 440.885 185.86 440.885 185.86C440.885 185.86 438.373 180.184 435.965 181.488C433.556 182.792 436.643 186.955 436.643 186.955C436.643 186.955 432.053 183.72 431.116 185.952C430.18 188.185 434.863 190.924 434.863 190.924C434.863 190.924 430.378 191.442 430.739 193.602C431.099 195.762 436.368 195.441 436.368 195.441C436.368 195.441 434.328 200.339 438.864 202.643L438.392 206.638Z" fill="#263238"/>
<path d="M441.279 204.126C440.822 205.89 439.663 207.407 438.45 208.309C436.625 209.666 435.262 208.331 435.393 206.266C435.509 204.407 436.599 201.462 438.611 200.911C440.595 200.37 441.802 202.109 441.279 204.126Z" fill="#B55B52"/>
<path opacity="0.2" d="M437.975 216.347C436.349 216.06 435.583 216.43 433.175 214.296C434.716 216.885 437.384 218.632 440.306 218.901C440.221 218.644 439.505 216.616 437.975 216.347Z" fill="black"/>
<path d="M467.916 233.453C469.73 237.025 471.367 240.56 472.931 244.193C474.488 247.815 475.943 251.493 477.278 255.245C477.962 257.113 478.571 259.024 479.167 260.95L479.279 261.311L479.336 261.493L479.416 261.802C479.517 262.219 479.626 262.624 479.673 263.063C479.803 263.918 479.815 264.81 479.702 265.66C479.5 267.38 478.869 268.895 478.111 270.103C476.55 272.522 474.635 274.007 472.73 275.198C471.764 275.779 470.797 276.297 469.794 276.715C468.778 277.147 467.841 277.513 466.694 277.834L464.512 273.185C465.802 272.107 467.209 270.846 468.304 269.622C469.424 268.407 470.321 267.094 470.623 266.092C470.792 265.598 470.798 265.233 470.719 265.012C470.686 264.896 470.642 264.81 470.589 264.714C470.579 264.669 470.523 264.613 470.5 264.561L470.416 264.36L470.286 264.034C469.6 262.297 468.866 260.565 468.124 258.825C466.629 255.35 465.057 251.879 463.453 248.413L458.627 238.052L467.916 233.453Z" fill="#B55B52"/>
<path d="M466.876 272.587L461.861 271.283L461.574 279.38C461.574 279.38 465.497 279.963 467.899 277.563L466.876 272.587Z" fill="#B55B52"/>
<path d="M454.755 269.919L455.887 277.026L461.573 279.38L461.861 271.283L454.755 269.919Z" fill="#FFC3BD"/>
<path d="M424.233 230.016C422.26 229.997 420.012 229.965 417.895 229.86C415.749 229.741 413.609 229.616 411.486 229.417C409.372 229.215 407.258 228.984 405.21 228.638C404.165 228.503 403.179 228.269 402.159 228.093C401.185 227.852 400.166 227.654 399.23 227.374L397.806 226.974L396.458 226.501L396.069 226.365C395.992 226.139 395.917 225.876 395.868 225.577C395.734 224.812 395.636 223.89 395.616 222.924C395.547 219.022 396.602 211.919 397.189 207.658L392.774 206.735C390.61 211.071 387.937 218.098 387.075 223.209C386.88 224.495 386.723 225.839 386.764 227.328C386.821 228.815 386.951 230.47 387.846 232.5C388.308 233.504 388.557 233.627 389.666 234.562C390.196 235.027 390.878 235.441 391.465 235.729L392.357 236.138C392.953 236.405 393.552 236.689 394.15 236.939L395.941 237.614C400.732 239.332 405.489 240.206 410.234 240.851C412.606 241.119 414.972 241.363 417.341 241.458C419.738 241.557 422.01 241.638 424.556 241.534L424.233 230.016Z" fill="#B55B52"/>
<path d="M397.085 208.094L400.837 200.169L393.474 198.037C393.474 198.037 390.072 203.208 393.029 207.37L397.085 208.094Z" fill="#B55B52"/>
<path d="M400.384 196.598L394.679 193.659L393.474 198.037L400.837 200.169L400.384 196.598Z" fill="#B55B52"/>
<path d="M434.743 227.543C434.743 227.543 436.408 225.816 435.219 223.842C435.219 223.842 459.518 221.829 453.182 228.256L434.743 227.543Z" fill="#407BFF"/>
<path opacity="0.3" d="M434.743 227.543C434.743 227.543 436.408 225.816 435.219 223.842C435.219 223.842 459.518 221.829 453.182 228.256L434.743 227.543Z" fill="white"/>
<path d="M461.904 257.16C461.904 257.16 470.294 253.589 475.706 246.871C475.706 246.871 470.475 230.181 464.521 229.09C458.567 227.999 461.904 257.16 461.904 257.16Z" fill="#407BFF"/>
<path opacity="0.5" d="M461.904 257.16C461.904 257.16 470.294 253.589 475.706 246.871C475.706 246.871 470.475 230.181 464.521 229.09C458.567 227.999 461.904 257.16 461.904 257.16Z" fill="white"/>
<path opacity="0.2" d="M460.976 240.936C460.928 248.606 461.904 257.16 461.904 257.16C461.904 257.16 463.682 256.397 466.12 254.932C464.918 249.752 462.611 244.376 460.976 240.936Z" fill="black"/>
<path d="M466.093 229.791C461.358 252.926 462.017 273.714 462.687 286.187C462.904 290.216 459.99 293.8 456.07 294.367C446.059 295.816 435.752 294.839 429.591 293.944C426.246 293.458 423.566 290.768 423.035 287.351C417.527 251.908 420.345 237.756 422.155 230.854C422.782 228.465 424.941 226.809 427.41 226.806C437.131 226.788 462.237 227.018 466.093 229.791Z" fill="#407BFF"/>
<path opacity="0.5" d="M466.093 229.791C461.358 252.926 462.017 273.714 462.687 286.187C462.904 290.216 459.99 293.8 456.07 294.367C446.059 295.816 435.752 294.839 429.591 293.944C426.246 293.458 423.566 290.768 423.035 287.351C417.527 251.908 420.345 237.756 422.155 230.854C422.782 228.465 424.941 226.809 427.41 226.806C437.131 226.788 462.237 227.018 466.093 229.791Z" fill="white"/>
<path opacity="0.2" d="M421.312 234.614C420.414 239.228 419.676 244.92 419.778 255.185C426.919 251.968 428.635 240.936 428.635 240.936L425.427 233.633L421.312 234.614Z" fill="black"/>
<path d="M427.031 226.828C423.777 225.012 408.716 229.132 408.716 229.132V246.163C408.716 246.163 423.806 249.967 426.974 244.772C430.143 239.578 431.018 229.053 427.031 226.828Z" fill="#407BFF"/>
<path opacity="0.5" d="M427.031 226.828C423.777 225.012 408.716 229.132 408.716 229.132V246.163C408.716 246.163 423.806 249.967 426.974 244.772C430.143 239.578 431.018 229.053 427.031 226.828Z" fill="white"/>
<path d="M442.344 467.88H435.333L434.635 451.645H441.646L442.344 467.88Z" fill="#B55B52"/>
<path d="M493.801 464.635L486.949 466.118L480.069 450.996L486.922 449.513L493.801 464.635Z" fill="#B55B52"/>
<path opacity="0.2" d="M434.637 451.65L434.995 460.018H442.009L441.65 451.65H434.637Z" fill="black"/>
<path opacity="0.2" d="M486.925 449.516L480.069 451L483.62 458.794L490.474 457.311L486.925 449.516Z" fill="black"/>
<path d="M437.327 289.549C437.327 289.549 447.473 356.921 451.841 376.993C456.624 398.973 480.082 457.903 480.082 457.903L492.632 455.185C492.632 455.185 485.886 435.643 479.148 406.011C476.901 396.134 472.724 386.668 471.721 378.985C470.04 366.116 467.926 331.002 466.247 314.27C464.846 300.313 461.523 289.548 461.523 289.548H437.327V289.549Z" fill="#263238"/>
<path d="M477.078 453.713C477.025 453.724 479.416 458.252 479.416 458.252L493.536 455.194L492.346 450.949L477.078 453.713Z" fill="#263238"/>
<path opacity="0.5" d="M442.355 308.638C451.555 310.442 452.772 358.544 451.665 376.189C449.012 363.716 442.938 325.922 440.285 308.887C440.896 308.582 441.582 308.486 442.355 308.638Z" fill="black"/>
<path d="M424.026 289.549C424.026 289.549 425.25 355.761 426.013 377.141C426.807 399.379 432.384 458.398 432.384 458.398H444.261C444.261 458.398 447.807 438.634 448.105 410.474C448.242 397.525 446.096 385.717 446.262 378.838C446.545 367.144 447.456 334.931 449.366 319.215C451.346 302.932 450.979 289.549 450.979 289.549H424.026Z" fill="#263238"/>
<path d="M430.098 453.667C430.043 453.667 430.768 458.597 430.768 458.597H445.216L445.606 454.197L430.098 453.667Z" fill="#263238"/>
<path d="M435.508 465.148L443.575 465.137C443.924 465.143 444.18 465.391 444.19 465.734L445.596 473.489C445.62 474.161 445.074 474.821 444.377 474.964C444.287 474.982 444.198 474.992 444.11 474.99C440.783 474.875 437.85 474.64 433.692 474.576C428.787 474.493 429.918 475.103 424.135 475.086C420.652 475.072 420.782 471.1 422.293 470.931C429.201 470.195 430.296 468.165 433.365 465.788C434.021 465.333 434.783 465.105 435.508 465.148Z" fill="#263238"/>
<path d="M485.647 462.889L493.532 461.18C493.874 461.112 494.177 461.301 494.259 461.634L497.265 468.919C497.43 469.571 497.036 470.332 496.384 470.617C496.3 470.654 496.215 470.682 496.128 470.7C492.851 471.288 489.935 471.676 485.857 472.487C481.045 473.439 482.278 473.797 476.623 474.998C473.215 475.718 472.505 471.807 473.947 471.324C480.544 469.15 481.187 466.936 483.688 463.966C484.233 463.383 484.93 462.999 485.647 462.889Z" fill="#263238"/>
<path d="M332.814 262.43L337.515 257.032C337.515 257.032 338.34 253.423 338.871 252.317C339.425 251.164 340.616 248.56 341.825 248.141C343.129 247.688 346.227 248.651 347.123 249.702C348.296 251.077 348.849 255.253 348.043 256.871C347.187 258.591 341.371 260.683 341.371 260.683L336.798 266.387L332.814 262.43Z" fill="#FFB573"/>
<path d="M331.799 262.102L335.907 257.624L341.403 262.306L336.948 267.565L331.799 262.102Z" fill="#407BFF"/>
<path opacity="0.8" d="M331.799 262.102L335.907 257.624L341.403 262.306L336.948 267.565L331.799 262.102Z" fill="white"/>
<path d="M302.362 235.831C302.362 235.831 306.649 240.708 312.842 256.654C319.035 272.6 325.898 267.949 333.435 259.352L339.627 264.99C339.627 264.99 328.049 279.415 320.763 279.415C312.65 279.415 304.779 266.841 303.195 258.057C301.611 249.273 302.362 235.831 302.362 235.831Z" fill="#263238"/>
<path opacity="0.4" d="M303.878 245.056L301.574 243.13L300.497 249.264C300.649 251.044 300.857 252.779 301.142 254.362C302.045 259.37 305.438 265.938 309.082 271.404C307.751 259.261 303.878 245.056 303.878 245.056Z" fill="black"/>
<path d="M271.083 198.441C271.083 198.441 267.81 198.392 268.24 200.962C268.784 204.214 279.867 203.258 279.867 203.258L276.914 199.378L271.083 198.441Z" fill="#263238"/>
<path d="M316.787 450.668L317.911 465.767H311.202L307.907 451.204L316.787 450.668Z" fill="#FFB573"/>
<path d="M318.546 464.941L310.312 464.931C309.956 464.937 309.694 465.19 309.684 465.539L308.25 473.455C308.226 474.14 308.782 474.814 309.493 474.959C309.584 474.978 309.676 474.987 309.766 474.987C313.162 474.869 316.156 474.63 320.399 474.563C325.405 474.479 324.251 475.101 330.153 475.085C333.708 475.071 333.575 471.017 332.033 470.843C324.983 470.092 323.865 468.02 320.732 465.595C320.064 465.131 319.286 464.899 318.546 464.941Z" fill="#263238"/>
<path d="M319.289 462.567L308.749 463.081C308.749 463.081 298.123 425.285 296.154 402.308C296.019 400.731 295.921 399.215 295.873 397.772C295.665 391.071 294.956 384.382 293.549 377.828L293.061 375.542L287.265 348.481V348.468L286.165 343.309C286.165 343.309 279.586 332.291 279.831 315.54C279.892 311.297 280.393 306.662 281.555 301.758C281.591 301.636 281.616 301.514 281.64 301.379L306.939 302.113L307.905 314.623L319.289 462.567Z" fill="#407BFF"/>
<path opacity="0.2" d="M289.81 360.341C293.307 342.765 291.557 321.914 291.557 321.914L286.381 323.988L282.89 333.691C282.89 333.691 282.9 334.468 282.928 335.762C284.536 340.571 286.167 343.312 286.167 343.312L289.81 360.341Z" fill="black"/>
<path d="M268.605 450.668L266.402 465.767H259.694L259.724 451.204L268.605 450.668Z" fill="#FFB573"/>
<path d="M266.964 464.941L258.73 464.931C258.374 464.937 258.113 465.19 258.102 465.539L256.668 473.455C256.644 474.14 257.2 474.814 257.912 474.959C258.003 474.978 258.095 474.987 258.185 474.987C261.581 474.869 264.575 474.63 268.818 474.563C273.825 474.479 272.67 475.101 278.572 475.085C282.127 475.071 281.995 471.017 280.452 470.843C273.402 470.092 272.284 468.02 269.152 465.595C268.483 465.131 267.704 464.899 266.964 464.941Z" fill="#263238"/>
<path d="M297.059 302.113L295.115 311.296L287.264 348.481L285.981 354.583L268.483 462.825L257.979 462.372C257.979 462.372 255.668 427.474 258.823 404.241C259.068 402.407 259.361 400.646 259.679 398.984C261.171 391.219 262.014 383.357 261.929 375.458L261.905 373.183L261.587 343.311C261.587 343.311 260.193 328.797 262.737 313.12C263.373 309.207 264.241 305.234 265.451 301.382L281.555 301.761L297.059 302.113Z" fill="#407BFF"/>
<path opacity="0.2" d="M308.465 322.628L299.124 323.449C296.556 323.975 294.012 322.41 293.315 319.867L293.01 318.754L291.054 311.527L288.73 319.903C288.021 322.471 285.527 324.109 282.885 323.73L277.725 322.997L261.759 320.78C262.066 313.8 264.24 305.23 265.451 301.378L281.555 301.757C281.591 301.635 281.616 301.513 281.64 301.378L306.939 302.112L308.465 322.628Z" fill="black"/>
<path d="M264.837 283.312L260.489 316.529L283.061 319.979C285.542 320.332 287.899 318.788 288.568 316.374L290.754 308.477L292.888 316.343C293.537 318.734 295.932 320.21 298.359 319.713L309.321 317.826L306.447 279.343C306.447 279.343 308.09 254.706 304.239 238.931C303.506 235.927 300.768 233.835 297.76 233.118C290.917 231.484 276.217 229.432 259.526 236.015C257.975 236.627 257.023 238.208 257.229 239.864L264.837 283.312Z" fill="#263238"/>
<path opacity="0.5" d="M289.159 270.255C289.721 270.255 290.176 269.799 290.176 269.237C290.176 268.676 289.721 268.22 289.159 268.22C288.597 268.22 288.142 268.676 288.142 269.237C288.142 269.799 288.597 270.255 289.159 270.255Z" fill="black"/>
<path opacity="0.5" d="M290.159 284.33C290.721 284.33 291.176 283.874 291.176 283.312C291.176 282.751 290.721 282.295 290.159 282.295C289.597 282.295 289.142 282.751 289.142 283.312C289.142 283.874 289.597 284.33 290.159 284.33Z" fill="black"/>
<path opacity="0.5" d="M290.569 298.231C291.131 298.231 291.586 297.775 291.586 297.214C291.586 296.652 291.131 296.196 290.569 296.196C290.007 296.196 289.552 296.652 289.552 297.214C289.552 297.775 290.007 298.231 290.569 298.231Z" fill="black"/>
<path d="M273.82 231.052C273.82 231.052 279.224 228.708 285.99 230.206L288.487 231.629L289.364 234.411L286.201 236.89L278.731 237.651L272.557 235.097L272.901 232.353L273.82 231.052Z" fill="#263238"/>
<path d="M273.206 232.489C274.861 230.295 275.618 228.082 275.04 225.419L286.221 216.358C284.643 231.477 285.416 228.726 287.667 233.073C287.667 233.073 286.107 238.113 277.382 236.546C271.716 235.53 273.206 232.489 273.206 232.489Z" fill="#FFB573"/>
<path opacity="0.2" d="M275.039 225.419L286.22 216.358C285.932 218.552 285.708 220.378 285.552 221.963C284.367 224.37 281.324 228.758 275.001 228.94C275.278 227.837 275.313 226.679 275.039 225.419Z" fill="black"/>
<path d="M288.101 209.21C286.523 216.434 285.959 220.737 281.693 223.899C275.283 228.67 266.802 223.907 266.202 216.38C265.659 209.553 268.343 198.922 275.929 197.135C281.338 195.831 286.779 199.159 288.083 204.568C288.45 206.092 288.456 207.681 288.101 209.21Z" fill="#FFB573"/>
<path d="M276.367 209.54C276.273 210.136 275.887 210.571 275.497 210.507C275.108 210.444 274.872 209.917 274.965 209.321C275.06 208.724 275.445 208.299 275.835 208.361C276.225 208.424 276.462 208.951 276.367 209.54Z" fill="#263238"/>
<path d="M269.662 208.497C269.568 209.086 269.182 209.52 268.793 209.457C268.403 209.393 268.167 208.867 268.262 208.278C268.356 207.689 268.742 207.247 269.131 207.31C269.52 207.374 269.756 207.9 269.662 208.497Z" fill="#263238"/>
<path d="M272.115 209.11C271.123 210.811 269.901 212.369 268.483 213.736C269.407 214.883 271.241 214.717 271.241 214.717L272.115 209.11Z" fill="#ED893E"/>
<path d="M279.107 207.117C279.166 207.126 279.228 207.123 279.286 207.107C279.452 207.009 279.516 206.799 279.43 206.626C278.911 205.617 277.94 204.919 276.818 204.746C276.623 204.729 276.45 204.874 276.433 205.069C276.415 205.263 276.559 205.436 276.755 205.452C277.641 205.597 278.405 206.158 278.806 206.963C278.874 207.063 278.987 207.12 279.107 207.117Z" fill="#263238"/>
<path d="M267.475 205.384C267.595 205.389 267.709 205.33 267.774 205.23C268.262 204.483 269.074 204.013 269.964 203.963C270.159 203.968 270.32 203.815 270.326 203.621C270.332 203.426 270.177 203.265 269.984 203.259C268.846 203.298 267.796 203.887 267.17 204.837C267.06 204.99 267.096 205.205 267.249 205.314C267.251 205.316 267.255 205.319 267.257 205.32C267.32 205.366 267.398 205.389 267.475 205.384Z" fill="#263238"/>
<path d="M268.951 217.107C268.951 217.107 270.859 216.768 276.136 216.911C275.439 218.329 274.214 219.462 271.507 219.371C268.801 219.28 268.951 217.107 268.951 217.107Z" fill="#263238"/>
<path d="M272.828 218.28C271.794 218.192 270.757 218.404 269.84 218.89C270.338 219.208 270.917 219.373 271.507 219.365C272.539 219.454 273.575 219.242 274.488 218.756C273.994 218.436 273.416 218.272 272.828 218.28Z" fill="#FF5652"/>
<path d="M269.197 217.072C269.293 217.448 269.598 217.734 269.979 217.806C271.546 217.848 273.114 217.771 274.669 217.575C275.163 217.562 275.621 217.312 275.901 216.905C273.664 216.807 271.424 216.863 269.197 217.072Z" fill="white"/>
<path d="M273.186 240.472L276.159 250.152L283.067 260.138L288.736 266.033L290.859 257.389L290.176 239.35L290.068 235.465L288.48 233.232L285.96 235.441L283.812 236.269L280.67 236.296L272.412 233.786L273.186 240.472Z" fill="#407BFF"/>
<path opacity="0.8" d="M273.186 240.472L276.159 250.152L283.067 260.138L288.736 266.033L290.859 257.389L290.176 239.35L290.068 235.465L288.48 233.232L285.96 235.441L283.812 236.269L280.67 236.296L272.412 233.786L273.186 240.472Z" fill="#407BFF"/>
<path opacity="0.5" d="M273.186 240.472L276.159 250.152L283.067 260.138L288.736 266.033L290.859 257.389L290.176 239.35L290.068 235.465L288.48 233.232L285.96 235.441L283.812 236.269L280.67 236.296L272.412 233.786L273.186 240.472Z" fill="white"/>
<path d="M279.852 239.35C279.852 239.35 280.855 241.569 283.067 243.459C283.067 243.459 281.682 253.327 283.811 260.239L288.735 266.032L290.176 258.867C290.176 258.867 287.971 247.401 285.014 243.064C285.014 243.064 286.245 240.733 286.652 238.342L284.886 236.893C284.886 236.893 282.435 238.644 280.961 237.424L279.852 239.35Z" fill="#407BFF"/>
<path d="M272.992 231.946C272.992 231.946 277.548 235.829 282.126 235.829C286.704 235.829 287.211 231.053 287.211 231.053L289.14 233.139C289.14 233.139 289.447 236.532 287.567 240.103L282.791 236.88L279.553 241.54C279.553 241.54 274.49 239.101 272.009 234.73L272.992 231.946Z" fill="#407BFF"/>
<path opacity="0.8" d="M272.992 231.946C272.992 231.946 277.548 235.829 282.126 235.829C286.704 235.829 287.211 231.053 287.211 231.053L289.14 233.139C289.14 233.139 289.447 236.532 287.567 240.103L282.791 236.88L279.553 241.54C279.553 241.54 274.49 239.101 272.009 234.73L272.992 231.946Z" fill="white"/>
<path d="M273.82 231.052C273.82 231.052 270.083 242.571 288.479 264.541C288.479 264.541 291.782 237.625 285.99 230.206L290.015 231.797L294.203 238.129L291.133 240.101L294.93 241.793C294.93 241.793 294.39 250.516 289.047 267.293C289.047 267.293 276.953 257.942 269.047 245.318L272.728 242.384L267.809 241.608L269.995 232.868L273.82 231.052Z" fill="#263238"/>
<path opacity="0.3" d="M273.82 231.052C273.82 231.052 270.083 242.571 288.479 264.541C288.479 264.541 291.782 237.625 285.99 230.206L290.015 231.797L294.203 238.129L291.133 240.101L294.93 241.793C294.93 241.793 294.39 250.516 289.047 267.293C289.047 267.293 276.953 257.942 269.047 245.318L272.728 242.384L267.809 241.608L269.995 232.868L273.82 231.052Z" fill="black"/>
<path d="M284.546 215.433C284.546 215.433 281.594 216.953 283.538 211.225C285.483 205.497 282.89 203.625 282.53 200.889C282.53 200.889 265.754 201.465 266.546 194.049C267.349 186.532 277.419 192.536 277.419 192.536C277.419 192.536 276.655 189.169 279.468 188.792C283.23 188.287 286.663 195.56 291.329 197.72C295.996 199.88 293.404 207.12 293.404 207.12C293.404 207.12 294.836 211.944 286.301 221.172C286.001 221.496 285.455 221.327 285.388 220.891L284.546 215.433Z" fill="#263238"/>
<path d="M279.636 208.505C279.449 208.368 278.677 207.994 278.245 207.789C277.503 207.209 276.166 206.877 275.103 206.808C274.033 206.736 273.193 206.913 272.801 207.287C272.748 207.337 272.72 207.416 272.683 207.486C272.544 207.374 272.395 207.314 272.213 207.289C272.008 207.263 271.833 207.309 271.705 207.362C271.668 207.275 271.652 207.166 271.597 207.098C270.982 206.34 269.38 205.91 268.152 205.831C267.081 205.76 266.242 205.937 265.851 206.311C265.671 206.481 265.583 206.763 265.589 207.149C265.603 208.125 266.235 209.674 266.844 210.22C267.352 210.677 268.494 210.963 269.427 210.963C269.895 210.963 270.31 210.891 270.567 210.733C271.078 210.419 271.644 209.362 271.803 208.428C271.835 208.239 271.82 208.087 271.817 207.926C271.889 207.894 272.028 207.843 272.14 207.862C272.25 207.88 272.427 208.018 272.542 208.157C272.568 209.134 273.192 210.658 273.794 211.198C274.302 211.655 275.444 211.941 276.377 211.941C276.844 211.941 277.259 211.869 277.516 211.712V211.711C278.027 211.395 278.593 210.339 278.751 209.405C278.797 209.132 278.799 208.892 278.771 208.678C278.986 208.784 279.188 208.893 279.298 208.973C280.906 210.139 285.05 214.58 285.091 214.624L285.513 214.232C285.342 214.045 281.29 209.703 279.636 208.505ZM271.46 208.369C271.318 209.205 270.814 210.172 270.384 210.438C269.753 210.83 267.711 210.535 267.074 209.962C266.588 209.526 265.947 208.081 265.935 207.143C265.931 206.862 265.984 206.662 266.089 206.562C266.36 206.305 266.948 206.162 267.706 206.162C267.842 206.162 267.985 206.166 268.131 206.176C269.521 206.266 270.865 206.745 271.329 207.317C271.493 207.521 271.54 207.895 271.46 208.369ZM278.41 209.345C278.27 210.166 277.758 211.152 277.334 211.415C276.701 211.806 274.66 211.511 274.023 210.939C273.537 210.503 272.897 209.058 272.883 208.12C272.88 207.839 272.933 207.638 273.038 207.539C273.307 207.282 273.897 207.139 274.654 207.139C274.791 207.139 274.933 207.143 275.08 207.153C276.47 207.242 277.814 207.722 278.278 208.294C278.443 208.497 278.49 208.87 278.41 209.345Z" fill="#263238"/>
<path d="M290.603 216.566C289.38 217.962 287.656 218.819 285.804 218.954C283.344 219.097 282.626 216.781 283.741 214.727C284.74 212.886 287.229 210.581 289.488 211.393C291.747 212.204 292.088 214.825 290.603 216.566Z" fill="#FFB573"/>
<path opacity="0.4" d="M257.72 243.072L262.51 269.762L263.071 269.066C265.693 255.382 262.033 242.278 262.033 242.278L260.577 243.055L257.72 243.072Z" fill="black"/>
<path d="M227.457 263.353L221.883 258.861C221.883 258.861 220.439 255.453 219.723 254.457C218.977 253.419 217.347 251.065 216.084 250.863C214.72 250.645 211.839 252.136 211.141 253.327C210.227 254.886 210.414 259.095 211.49 260.547C212.634 262.09 218.727 263.132 218.727 263.132L224.228 267.948L227.457 263.353Z" fill="#FFB573"/>
<path d="M228.399 262.851L223.571 259.161L218.979 264.733L224.285 269.13L228.399 262.851Z" fill="#407BFF"/>
<path opacity="0.8" d="M228.399 262.851L223.571 259.161L218.979 264.733L224.285 269.13L228.399 262.851Z" fill="white"/>
<path d="M258.541 237.152C258.107 236.636 256.569 237.319 256.181 237.871C254.898 239.693 247.715 257.268 244.894 264.217C244.234 265.844 242.465 266.716 240.774 266.243C237.328 265.281 231.519 263.472 226.714 261.049L220.522 266.686C220.522 266.686 236.639 279.548 245.504 279.548C253.616 279.548 261.208 262.36 262.792 253.576C264.03 246.716 261.827 241.053 258.541 237.152Z" fill="#263238"/>
<path d="M376.623 239.242L348.782 236.633C348.782 236.633 341.386 248.219 338.241 274.59L366.185 277.207C369.006 254.229 375.187 242.002 376.623 239.242Z" fill="#407BFF"/>
<path opacity="0.4" d="M376.623 239.242L348.782 236.633C348.782 236.633 341.386 248.219 338.241 274.59L366.185 277.207C369.006 254.229 375.187 242.002 376.623 239.242Z" fill="white"/>
<path d="M376.623 239.242L348.782 236.633C348.782 236.633 342.394 247.211 339.249 273.583L367.193 276.2C370.014 253.221 375.187 242.002 376.623 239.242Z" fill="#407BFF"/>
<path opacity="0.7" d="M376.623 239.242L348.782 236.633C348.782 236.633 342.394 247.211 339.249 273.583L367.193 276.2C370.014 253.221 375.187 242.002 376.623 239.242Z" fill="white"/>
<path d="M352.446 236.87C352.022 236.257 351.173 236.104 350.561 236.528L347.831 238.418C347.219 238.842 347.065 239.691 347.489 240.304C347.913 240.917 348.762 241.07 349.375 240.646C349.48 240.573 349.505 240.437 349.432 240.331C349.359 240.227 349.222 240.201 349.117 240.275C348.708 240.558 348.142 240.456 347.86 240.047C347.577 239.639 347.681 239.072 348.088 238.79L350.817 236.9C351.225 236.616 351.791 236.719 352.074 237.128C352.358 237.535 352.254 238.101 351.846 238.385L350.925 239.024L350.398 239.388L350.286 239.465C350.051 239.628 349.732 239.565 349.574 239.336C349.412 239.101 349.474 238.782 349.703 238.624L350.959 237.754C351.064 237.682 351.089 237.545 351.016 237.44C350.943 237.335 350.807 237.31 350.701 237.382L349.445 238.252C349.002 238.55 348.891 239.158 349.192 239.591C349.491 240.024 350.1 240.134 350.533 239.834L350.645 239.757L351.171 239.393L352.1 238.75C352.716 238.33 352.87 237.483 352.446 236.87Z" fill="#407BFF"/>
<path d="M111.956 218.158C111.956 218.158 115.214 215.993 113.641 209.538C113.641 209.538 118.754 208.177 119.587 204.409C119.587 204.409 120.508 207.676 122.348 207.315C124.188 206.955 122.348 203.798 122.348 203.798C122.348 203.798 125.252 206.698 126.734 206.447C128.215 206.194 126.734 203.798 126.734 203.798C126.734 203.798 128.024 206.586 129.625 206.117C131.73 205.501 127.486 201.11 127.486 201.11C127.486 201.11 130.54 205.944 131.422 204.783C132.398 203.5 125.979 196.772 117.649 197.892C117.649 197.892 107.384 196.364 104.634 206.752C104.634 206.752 96.6897 211.698 100.662 219.257C100.662 219.257 94.1438 226.78 98.1158 230.719C98.1158 230.719 91.5863 241.869 99.4395 241.639C107.293 241.409 130.064 240.062 133.237 237.868C136.409 235.675 132.233 230.413 132.233 230.413C132.233 230.413 133.65 228.852 133.299 225.185C132.947 221.518 130.924 219.991 130.924 219.991C130.924 219.991 133.518 218.046 132.132 214.86C128.839 207.289 115.938 206.739 115.938 206.739C115.938 206.739 116.935 219.279 111.956 218.158Z" fill="#263238"/>
<path d="M172.965 242.458C173.84 238.773 174.074 236.07 174.074 236.07L175.687 232.304C175.687 232.304 178.169 227.852 177.46 226.515C176.607 224.912 172.198 223.709 170.513 224.389C169.026 224.989 167.401 229.998 167.401 229.998L168.383 235.106C168.383 235.106 168.1 237.51 167.183 240.609L172.965 242.458Z" fill="#CE7A63"/>
<path d="M173.921 240.758C171.748 249.903 167.594 263.28 151.285 258.265C142.886 255.682 130.151 248.763 133.77 240.2C137.39 231.637 138.761 244.714 153.04 249.312C163.846 252.793 164.94 245.06 166.874 238.522L173.921 240.758Z" fill="#407BFF"/>
<path d="M113.693 231.94C113.693 231.94 117.923 230.668 124.073 232.569C124.073 232.569 126.061 237.389 121.766 237.601C117.472 237.813 113.641 233.464 113.641 233.464L113.693 231.94Z" fill="#407BFF"/>
<path d="M112.67 234.728C112.67 234.728 115.414 234.624 115.392 231.231C115.372 227.838 114.807 223.713 114.807 223.713L122.959 224.435C122.959 224.435 121.869 234.451 125.598 234.962C125.598 234.962 122.34 239.954 112.67 234.728Z" fill="#CE7A63"/>
<path opacity="0.1" d="M122.959 224.434L114.807 223.712C114.807 223.712 115.013 225.221 115.18 227.162C116.457 228.848 118.845 230.877 123.165 231.581C122.521 228.499 122.959 224.434 122.959 224.434Z" fill="black"/>
<path d="M109.585 212.773C110.67 220.077 110.969 223.192 115 226.639C121.065 231.828 129.795 228.904 130.919 221.424C131.93 214.691 129.992 203.886 122.558 201.58C117.255 199.907 111.599 202.848 109.925 208.151C109.454 209.643 109.337 211.226 109.585 212.773Z" fill="#CE7A63"/>
<path d="M125.939 214.463C126.588 215.782 127.413 217.006 128.396 218.099C127.82 218.595 127.054 218.811 126.304 218.689L125.939 214.463Z" fill="#BA4D3C"/>
<path d="M117.905 211.136C117.854 211.128 117.806 211.11 117.764 211.08C117.635 210.982 117.61 210.799 117.708 210.67L117.711 210.665C118.365 209.761 119.416 209.232 120.53 209.247C120.689 209.264 120.807 209.403 120.799 209.563C120.786 209.72 120.65 209.84 120.491 209.831C119.571 209.833 118.708 210.278 118.17 211.026C118.108 211.106 118.007 211.148 117.905 211.136Z" fill="#263238"/>
<path d="M130.586 210.146C130.535 210.138 130.487 210.119 130.444 210.089C129.713 209.538 128.761 209.37 127.886 209.639C127.736 209.7 127.566 209.627 127.504 209.477L127.503 209.474C127.448 209.321 127.524 209.151 127.676 209.093C128.737 208.753 129.897 208.946 130.791 209.611C130.926 209.7 130.964 209.882 130.874 210.017C130.812 210.113 130.699 210.163 130.586 210.146Z" fill="#263238"/>
<path d="M121.633 213.839C121.682 214.433 122.042 214.888 122.438 214.858C122.834 214.827 123.102 214.318 123.045 213.714C122.988 213.112 122.636 212.665 122.249 212.696C121.861 212.727 121.584 213.236 121.633 213.839Z" fill="#263238"/>
<path d="M128.392 213.258C128.441 213.853 128.801 214.308 129.189 214.277C129.576 214.245 129.852 213.736 129.804 213.134C129.756 212.531 129.395 212.084 129.008 212.115C128.618 212.147 128.335 212.656 128.392 213.258Z" fill="#263238"/>
<path d="M128.837 212.163L130.236 211.628C130.236 211.628 129.593 212.809 128.837 212.163Z" fill="#263238"/>
<path d="M122.08 212.743L123.478 212.209C123.478 212.209 122.834 213.39 122.08 212.743Z" fill="#263238"/>
<path d="M124.886 222.174C125.232 222.175 125.576 222.145 125.916 222.084C126.014 222.068 126.081 221.975 126.064 221.878C126.064 221.875 126.063 221.874 126.063 221.872C126.047 221.775 125.956 221.709 125.859 221.724C124.336 222.023 122.763 221.583 121.615 220.539C121.547 220.464 121.432 220.459 121.357 220.526C121.283 220.594 121.278 220.709 121.345 220.784C122.301 221.686 123.57 222.185 124.886 222.174Z" fill="#263238"/>
<path d="M146.314 353.623C146.21 382.05 141.863 467.558 141.863 467.558H133.761C133.761 467.558 129.002 432.827 129.496 402.295C129.675 391.246 130.652 382.804 130.753 376.248C130.936 364.424 121.907 323.921 121.907 323.921L146.394 326.913C146.395 326.911 146.339 346.917 146.314 353.623Z" fill="#CE7A63"/>
<path opacity="0.2" d="M145.925 372.69C146.085 367.331 146.204 362.46 146.266 358.33L128.556 357.522C129.692 364.256 130.565 370.512 130.729 374.603C130.729 374.603 137.348 375.703 145.925 372.69Z" fill="black"/>
<path d="M141.347 465.411L133.494 465.401C133.154 465.407 132.91 465.648 132.905 465.982L131.669 473.531C131.657 474.185 132.2 474.827 132.881 474.966C132.968 474.983 133.056 474.993 133.141 474.993C136.378 474.881 139.23 474.653 143.275 474.588C148.049 474.508 146.958 475.101 152.588 475.086C155.979 475.073 155.784 471.206 154.31 471.041C147.574 470.325 146.473 468.349 143.445 466.036C142.798 465.591 142.052 465.37 141.347 465.411Z" fill="#263238"/>
<path d="M119.027 355.716L103.67 467.946H95.7427C95.7427 467.946 93.0712 435.243 95.0849 407.194C95.8337 396.766 97.9177 387.524 99.0202 381.023C101.323 367.447 100.912 323.531 100.912 323.531L122.074 326.971L119.027 355.716Z" fill="#CE7A63"/>
<path opacity="0.2" d="M116.588 374.195L119.25 350.1L101.057 349.27C100.844 357.355 100.483 365.242 99.8796 370.703C103.619 371.568 110.03 373.364 116.588 374.195Z" fill="black"/>
<path d="M103.401 465.411L95.548 465.401C95.2082 465.407 94.9594 465.648 94.949 465.982L93.5804 473.531C93.5574 474.185 94.0885 474.827 94.767 474.966C94.8545 474.983 94.9409 474.993 95.0273 474.993C98.2668 474.881 101.121 474.653 105.168 474.588C109.943 474.508 108.842 475.101 114.472 475.086C117.862 475.073 117.736 471.206 116.266 471.041C109.541 470.325 108.476 468.349 105.487 466.036C104.849 465.591 104.107 465.37 103.401 465.411Z" fill="#263238"/>
<path d="M111.363 234.195L113.64 233.465L119.587 237.601H121.766L123.6 236.789L125.726 234.666L127.847 235.533L129.367 241.376V243.158L130.011 245.308L131.883 252.541L133.298 261.873V268.896L132.774 276.445L130.782 272.514L125.173 262.029L120.507 248.819L119.144 244.207L115.58 240.462L112.802 235.714L111.363 234.195Z" fill="#407BFF"/>
<path d="M111.363 234.195L113.64 233.465L119.587 237.601H121.766L123.6 236.789L125.726 234.666L127.847 235.533L129.367 241.376V243.158L130.011 245.308L131.883 252.541L133.298 261.873V268.896L132.774 276.445L130.782 272.514L125.173 262.029L120.507 248.819L119.144 244.207L115.58 240.462L112.802 235.714L111.363 234.195Z" fill="#407BFF"/>
<path opacity="0.5" d="M111.363 234.195L113.64 233.465L119.587 237.601H121.766L123.6 236.789L125.726 234.666L127.847 235.533L129.367 241.376V243.158L130.011 245.308L131.883 252.541L133.298 261.873V268.896L132.774 276.445L130.782 272.514L125.173 262.029L120.507 248.819L119.144 244.207L115.58 240.462L112.802 235.714L111.363 234.195Z" fill="white"/>
<path d="M104.27 295.631C104.27 295.631 98.4211 311.657 98.1619 321.466C97.9154 330.791 98.9245 341.645 98.769 350.394C98.602 359.817 97.2806 366.798 97.2806 366.798C97.2806 366.798 128.836 376.826 149.337 368.02C149.337 368.02 151.923 334.971 144.509 295.631L130.01 296.411L104.27 295.631Z" fill="#263238"/>
<path d="M101.133 240.012L108.242 277.328C108.242 277.328 104.151 288.465 100.377 304.035C100.377 304.035 122.286 311.314 128.684 308.123C130.731 307.102 133.087 300.103 133.087 300.103C133.087 300.103 136.771 307.514 139.22 308.123C141.235 308.625 146.769 304.664 146.769 304.664C146.769 304.664 144.181 287.933 140.994 276.497L142.534 263.866C142.534 263.866 145.538 256.827 139.776 244.323L138.117 239.272C137.897 238.601 137.43 238.037 136.806 237.707C135.127 236.821 131.374 235.067 126.249 233.984C126.249 233.984 134.27 253.083 132.383 271.804C132.383 271.804 124.52 244.049 111.958 233.464C111.958 233.464 107.296 233.786 102.987 236.254C101.658 237.015 100.918 238.501 101.133 240.012Z" fill="#407BFF"/>
<path d="M111.956 233.465L113.693 231.94C113.693 231.94 118.411 237.106 121.557 236.934C124.702 236.763 124.073 232.569 124.073 232.569L126.248 233.985L127.218 234.876L126.984 240.462C126.984 240.462 124.229 237.235 122.604 237.706C120.978 238.178 119.586 241.638 119.586 241.638C119.586 241.638 115.932 239.602 111.956 233.465Z" fill="#407BFF"/>
<path opacity="0.8" d="M111.956 233.465L113.693 231.94C113.693 231.94 118.411 237.106 121.557 236.934C124.702 236.763 124.073 232.569 124.073 232.569L126.248 233.985L127.218 234.876L126.984 240.462C126.984 240.462 124.229 237.235 122.604 237.706C120.978 238.178 119.586 241.638 119.586 241.638C119.586 241.638 115.932 239.602 111.956 233.465Z" fill="white"/>
<path d="M132.932 277.441C132.932 277.441 134.556 267.69 134.241 246.199L130.011 243.892L132.669 243.158C132.669 243.158 130.226 237.63 128.075 234.417C127.485 234.265 126.88 234.119 126.247 233.985C126.247 233.985 134.268 256.388 132.381 275.109C132.381 275.109 124.517 244.05 111.956 233.465C111.956 233.465 111.363 233.508 110.415 233.671C112.008 235.347 115.096 239.346 115.169 245.256H118.545L115.791 247.772L132.932 277.441Z" fill="#407BFF"/>
<path opacity="0.2" d="M132.932 277.441C132.932 277.441 135.778 268.912 135.464 247.421L130.011 243.892L133.891 243.158C133.891 243.158 130.226 237.63 128.075 234.417C127.485 234.265 126.88 234.119 126.247 233.985C126.247 233.985 134.268 256.388 132.381 275.109C132.381 275.109 124.517 244.05 111.956 233.465C111.956 233.465 111.363 233.508 110.415 233.671C112.008 235.347 112.652 239.346 112.724 245.256H118.545L114.569 250.217L132.932 277.441Z" fill="black"/>
<path d="M126.583 292.284L144.462 291.822C145.144 291.805 145.74 291.236 145.794 290.553L147.968 263.058C148.022 262.375 147.512 261.835 146.832 261.852L128.953 262.314C128.271 262.331 127.675 262.9 127.621 263.583L125.447 291.078C125.393 291.762 125.901 292.302 126.583 292.284Z" fill="#263238"/>
<path d="M135.578 264.319L139.859 264.209C140.711 264.187 141.456 263.476 141.524 262.621L141.725 260.088L134.358 260.278L134.157 262.812C134.091 263.666 134.726 264.341 135.578 264.319Z" fill="#263238"/>
<path opacity="0.7" d="M135.578 264.319L139.859 264.209C140.711 264.187 141.456 263.476 141.524 262.621L141.725 260.088L134.358 260.278L134.157 262.812C134.091 263.666 134.726 264.341 135.578 264.319Z" fill="white"/>
<path d="M128.131 262.424L128.973 262.403C128.291 262.42 127.696 262.989 127.642 263.672L125.468 291.168C125.414 291.851 125.923 292.391 126.605 292.373L125.763 292.395C125.081 292.412 124.573 291.873 124.627 291.189L126.801 263.694C126.854 263.01 127.45 262.442 128.131 262.424Z" fill="#263238"/>
<path opacity="0.7" d="M128.131 262.424L128.973 262.403C128.291 262.42 127.696 262.989 127.642 263.672L125.468 291.168C125.414 291.851 125.923 292.391 126.605 292.373L125.763 292.395C125.081 292.412 124.573 291.873 124.627 291.189L126.801 263.694C126.854 263.01 127.45 262.442 128.131 262.424Z" fill="white"/>
<path d="M117.378 284.84C121.158 284.598 123.811 284.03 123.811 284.03L127.885 284.47C127.885 284.47 132.868 285.541 133.94 284.47C135.224 283.186 135.082 278.617 133.94 277.205C132.93 275.958 127.665 275.871 127.665 275.871L123.068 278.306C123.068 278.306 120.686 278.739 117.454 278.769L117.378 284.84Z" fill="#CE7A63"/>
<path d="M118.039 285.363C108.658 285.963 91.1094 284.558 91.1301 267.494C91.1405 258.707 95.5181 234.979 104.765 235.933C114.012 236.887 100.692 246.46 100.692 266.279C100.692 277.631 111.294 278.035 118.113 277.971L118.039 285.363Z" fill="#407BFF"/>
<path opacity="0.1" d="M118.039 285.363C108.658 285.963 91.1094 284.558 91.1301 267.494C91.1405 258.707 95.5181 234.979 104.765 235.933C114.012 236.887 100.692 246.46 100.692 266.279C100.692 277.631 111.294 278.035 118.113 277.971L118.039 285.363Z" fill="black"/>
<path d="M111.955 218.158C111.955 218.158 115.213 215.993 113.64 209.538C113.64 209.538 118.754 208.177 119.586 204.409C119.586 204.409 120.507 207.676 122.347 207.315C124.187 206.955 122.347 203.798 122.347 203.798C122.347 203.798 125.251 206.698 126.733 206.447C128.214 206.194 126.733 203.798 126.733 203.798C126.733 203.798 128.036 206.626 129.625 206.117C131.214 205.608 128.958 203.038 128.958 203.038C128.958 203.038 131.019 205.963 131.473 204.578C131.927 203.192 125.978 196.772 117.648 197.892C117.648 197.892 107.383 196.364 104.633 206.752C104.633 206.752 100.262 209.606 102.423 216.399C102.423 216.399 112.973 218.387 111.955 218.158Z" fill="#263238"/>
<path d="M108.348 218.728C108.872 220.056 109.903 221.121 111.214 221.689C112.957 222.426 114.068 220.928 113.787 219.157C113.534 217.568 112.322 215.262 110.473 215.272C109.128 215.321 108.077 216.452 108.127 217.798C108.138 218.12 108.214 218.436 108.348 218.728Z" fill="#CE7A63"/>
<path d="M438.077 154.899C438.077 145.575 428.891 138.015 417.559 138.015C406.226 138.015 397.04 145.575 397.04 154.899C397.04 164.223 406.226 171.783 417.559 171.783C418.692 171.783 419.803 171.704 420.886 171.558L429.254 175.893L428.427 169.217C434.22 166.234 438.077 160.938 438.077 154.899Z" fill="#407BFF"/>
<path opacity="0.5" d="M438.077 154.899C438.077 145.575 428.891 138.015 417.559 138.015C406.226 138.015 397.04 145.575 397.04 154.899C397.04 164.223 406.226 171.783 417.559 171.783C418.692 171.783 419.803 171.704 420.886 171.558L429.254 175.893L428.427 169.217C434.22 166.234 438.077 160.938 438.077 154.899Z" fill="white"/>
<path d="M424.115 155.798C424.115 152.327 421.274 149.518 417.789 149.573C414.653 149.623 411.756 152.481 411.666 155.616C411.607 157.675 412.552 159.515 414.045 160.689C414.881 161.346 415.463 162.272 415.624 163.324L415.646 163.465C415.76 164.206 416.397 164.753 417.147 164.753H418.628C419.378 164.753 420.015 164.206 420.129 163.465L420.151 163.321C420.309 162.288 420.862 161.36 421.69 160.72C423.165 159.583 424.115 157.803 424.115 155.798Z" fill="white"/>
<path d="M418.231 167.396H417.548C416.631 167.396 415.881 166.646 415.881 165.729C415.881 165.438 416.117 165.201 416.409 165.201H419.372C419.663 165.201 419.899 165.438 419.899 165.729C419.898 166.645 419.148 167.396 418.231 167.396Z" fill="#407BFF"/>
<path opacity="0.2" d="M418.231 167.396H417.548C416.631 167.396 415.881 166.646 415.881 165.729C415.881 165.438 416.117 165.201 416.409 165.201H419.372C419.663 165.201 419.899 165.438 419.899 165.729C419.898 166.645 419.148 167.396 418.231 167.396Z" fill="white"/>
<path d="M419.667 160.807L419.022 160.63L419.842 157.614L419.055 158.082L418.977 157.135L417.889 157.937L416.803 157.135L416.724 158.082L415.936 157.614L416.758 160.63L416.112 160.807L414.856 156.192L416.145 156.959L416.235 155.885L417.889 157.105L419.543 155.885L419.633 156.959L420.922 156.192L419.667 160.807Z" fill="#407BFF"/>
<g opacity="0.5">
<path d="M419.667 160.807L419.022 160.63L419.842 157.614L419.055 158.082L418.977 157.135L417.889 157.937L416.803 157.135L416.724 158.082L415.936 157.614L416.758 160.63L416.112 160.807L414.856 156.192L416.145 156.959L416.235 155.885L417.889 157.105L419.543 155.885L419.633 156.959L420.922 156.192L419.667 160.807Z" fill="white"/>
</g>
<path d="M418.272 142.989H417.507V148.218H418.272V142.989Z" fill="white"/>
<path d="M430.962 155.678H425.733V156.443H430.962V155.678Z" fill="white"/>
<path d="M410.046 155.678H404.817V156.443H410.046V155.678Z" fill="white"/>
<path d="M426.858 146.548L423.161 150.246L423.702 150.786L427.399 147.089L426.858 146.548Z" fill="white"/>
<path d="M412.069 161.337L408.372 165.035L408.913 165.576L412.61 161.878L412.069 161.337Z" fill="white"/>
<path d="M423.71 161.358L423.17 161.899L426.867 165.596L427.408 165.055L423.71 161.358Z" fill="white"/>
<path d="M408.918 146.561L408.378 147.102L412.075 150.8L412.616 150.259L408.918 146.561Z" fill="white"/>
<path d="M114.392 163.179C114.392 151.018 126.372 141.16 141.15 141.16C155.928 141.16 167.907 151.018 167.907 163.179C167.907 175.339 155.928 185.197 141.15 185.197C139.672 185.197 138.224 185.094 136.812 184.904L128.203 190.557L126.977 181.851C119.421 177.959 114.392 171.054 114.392 163.179Z" fill="#407BFF"/>
<path opacity="0.5" d="M114.392 163.179C114.392 151.018 126.372 141.16 141.15 141.16C155.928 141.16 167.907 151.018 167.907 163.179C167.907 175.339 155.928 185.197 141.15 185.197C139.672 185.197 138.224 185.094 136.812 184.904L128.203 190.557L126.977 181.851C119.421 177.959 114.392 171.054 114.392 163.179Z" fill="white"/>
<path d="M132.6 164.351C132.6 159.825 136.305 156.163 140.848 156.234C144.938 156.299 148.716 160.027 148.833 164.114C148.909 166.8 147.678 169.199 145.73 170.729C144.639 171.586 143.881 172.793 143.671 174.164L143.642 174.349C143.493 175.316 142.661 176.029 141.683 176.029H139.753C138.775 176.029 137.943 175.316 137.794 174.349L137.765 174.162C137.558 172.814 136.837 171.603 135.757 170.77C133.838 169.288 132.6 166.965 132.6 164.351Z" fill="white"/>
<path d="M140.249 179.475H141.187C142.37 179.475 143.338 178.507 143.338 177.324V177.293C143.338 176.916 143.032 176.612 142.657 176.612H138.778C138.402 176.612 138.097 176.917 138.097 177.293V177.324C138.098 178.507 139.066 179.475 140.249 179.475Z" fill="#407BFF"/>
<path opacity="0.2" d="M140.249 179.475H141.187C142.37 179.475 143.338 178.507 143.338 177.324V177.293C143.338 176.916 143.032 176.612 142.657 176.612H138.778C138.402 176.612 138.097 176.917 138.097 177.293V177.324C138.098 178.507 139.066 179.475 140.249 179.475Z" fill="white"/>
<path d="M138.399 170.883L139.242 170.653L138.172 166.72L139.198 167.329L139.301 166.095L140.718 167.139L142.135 166.095L142.237 167.329L143.264 166.72L142.194 170.653L143.037 170.883L144.674 164.865L142.993 165.865L142.876 164.464L140.718 166.055L138.56 164.464L138.444 165.865L136.762 164.865L138.399 170.883Z" fill="#407BFF"/>
<g opacity="0.5">
<path d="M138.399 170.883L139.242 170.653L138.172 166.72L139.198 167.329L139.301 166.095L140.718 167.139L142.135 166.095L142.237 167.329L143.264 166.72L142.194 170.653L143.037 170.883L144.674 164.865L142.993 165.865L142.876 164.464L140.718 166.055L138.56 164.464L138.444 165.865L136.762 164.865L138.399 170.883Z" fill="white"/>
</g>
<path d="M141.217 147.646H140.219V154.465H141.217V147.646Z" fill="white"/>
<path d="M130.489 164.195H123.671V165.192H130.489V164.195Z" fill="white"/>
<path d="M157.765 164.195H150.947V165.192H157.765V164.195Z" fill="white"/>
<path d="M129.016 152.275L128.31 152.981L133.133 157.802L133.838 157.096L129.016 152.275Z" fill="white"/>
<path d="M148.302 171.559L147.596 172.265L152.418 177.085L153.124 176.38L148.302 171.559Z" fill="white"/>
<path d="M133.133 171.563L128.311 176.384L129.017 177.089L133.838 172.268L133.133 171.563Z" fill="white"/>
<path d="M152.417 152.282L147.595 157.103L148.301 157.809L153.122 152.987L152.417 152.282Z" fill="white"/>
<path d="M227.802 338.349C227.151 338.349 226.624 337.822 226.624 337.171C226.624 336.52 227.151 335.992 227.802 335.992H259.928C260.579 335.992 261.107 336.52 261.107 337.171C261.107 337.822 260.579 338.349 259.928 338.349H227.802Z" fill="#407BFF"/>
<path opacity="0.5" d="M227.802 338.349C227.151 338.349 226.624 337.822 226.624 337.171C226.624 336.52 227.151 335.992 227.802 335.992H259.928C260.579 335.992 261.107 336.52 261.107 337.171C261.107 337.822 260.579 338.349 259.928 338.349H227.802Z" fill="white"/>
<path d="M230.53 336.309L226.254 305.879C226.097 304.759 225.062 303.853 223.942 303.853H219.844V338.337H228.787C229.908 338.337 230.688 337.429 230.53 336.309Z" fill="#407BFF"/>
<path opacity="0.6" d="M230.53 336.309L226.254 305.879C226.097 304.759 225.062 303.853 223.942 303.853H219.844V338.337H228.787C229.908 338.337 230.688 337.429 230.53 336.309Z" fill="white"/>
<path d="M227.02 338.337H190.695C189.575 338.337 188.541 337.429 188.383 336.31L184.107 305.88C183.949 304.761 184.729 303.854 185.849 303.854H222.174C223.293 303.854 224.328 304.762 224.486 305.88L228.762 336.31C228.92 337.429 228.14 338.337 227.02 338.337Z" fill="#407BFF"/>
<path opacity="0.5" d="M227.02 338.336H190.695C189.575 338.336 188.541 337.429 188.383 336.31L184.107 305.88C183.949 304.76 184.729 303.854 185.849 303.854H222.174C223.293 303.854 224.328 304.761 224.486 305.88L228.762 336.31C228.92 337.429 228.14 338.336 227.02 338.336Z" fill="white"/>
<path opacity="0.7" d="M209.451 322.665C209.694 324.392 208.491 325.791 206.763 325.791C205.036 325.791 203.44 324.392 203.197 322.665C202.954 320.938 204.157 319.538 205.884 319.538C207.612 319.538 209.209 320.939 209.451 322.665Z" fill="white"/>
<path d="M395.301 475.086H392.289L388.413 345.864H392.393L395.301 475.086Z" fill="#263238"/>
<path opacity="0.6" d="M395.301 475.086H392.289L388.413 345.864H392.393L395.301 475.086Z" fill="white"/>
<path d="M346.738 345.864V475.086H349.927L353.676 351.768H392.136L394.948 475.086H398.105V345.864H346.738Z" fill="#263238"/>
<path opacity="0.4" d="M346.738 345.864V475.086H349.927L353.676 351.768H392.136L394.948 475.086H398.105V345.864H346.738Z" fill="white"/>
<path d="M346.738 475.086H343.728L342.758 345.864H346.738V475.086Z" fill="#263238"/>
<path opacity="0.6" d="M346.738 475.086H343.728L342.758 345.864H346.738V475.086Z" fill="white"/>
<path d="M231.834 475.086H228.823L224.946 345.864H228.927L231.834 475.086Z" fill="#263238"/>
<path opacity="0.6" d="M231.834 475.086H228.823L224.946 345.864H228.927L231.834 475.086Z" fill="white"/>
<path d="M183.273 345.864V475.086H186.46L190.209 351.768H228.671L231.482 475.086H234.638V345.864H183.273Z" fill="#263238"/>
<path opacity="0.4" d="M183.273 345.864V475.086H186.46L190.209 351.768H228.671L231.482 475.086H234.638V345.864H183.273Z" fill="white"/>
<path d="M183.273 475.086H180.262L179.293 345.864H183.273V475.086Z" fill="#263238"/>
<path opacity="0.6" d="M183.273 475.086H180.262L179.293 345.864H183.273V475.086Z" fill="white"/>
<path d="M344.255 338.433H174.022V345.864H344.255V338.433Z" fill="#263238"/>
<path opacity="0.4" d="M344.255 338.433H174.022V345.864H344.255V338.433Z" fill="white"/>
<path d="M403.374 338.433H339.627V345.864H403.374V338.433Z" fill="#263238"/>
<path opacity="0.3" d="M403.374 338.433H339.627V345.864H403.374V338.433Z" fill="white"/>
<path d="M371.369 338.619H329.146C328.031 338.619 326.999 337.715 326.842 336.598L322.581 306.273C322.424 305.158 323.202 304.252 324.317 304.252H366.541C367.656 304.252 368.688 305.157 368.845 306.273L373.106 336.598C373.263 337.715 372.485 338.619 371.369 338.619Z" fill="#407BFF"/>
<path opacity="0.5" d="M371.369 338.619H329.146C328.031 338.619 326.999 337.715 326.842 336.598L322.581 306.273C322.424 305.158 323.202 304.252 324.317 304.252H366.541C367.656 304.252 368.688 305.157 368.845 306.273L373.106 336.598C373.263 337.715 372.485 338.619 371.369 338.619Z" fill="white"/>
<path d="M368.728 334.089L331.208 333.915C330.179 333.915 329.229 333.081 329.085 332.054L325.751 309.158C325.607 308.129 326.322 307.296 327.351 307.296L364.871 307.47C365.898 307.47 366.85 308.304 366.994 309.332L370.328 332.228C370.472 333.255 369.755 334.089 368.728 334.089Z" fill="#263238"/>
<path d="M397.687 338.481H346.578C345.794 338.481 345.159 337.845 345.159 337.061C345.159 336.277 345.795 335.642 346.578 335.642H397.687C398.471 335.642 399.106 336.278 399.106 337.061C399.106 337.845 398.471 338.481 397.687 338.481Z" fill="#407BFF"/>
<path opacity="0.7" d="M397.687 338.481H346.578C345.794 338.481 345.159 337.845 345.159 337.061C345.159 336.277 345.795 335.642 346.578 335.642H397.687C398.471 335.642 399.106 336.278 399.106 337.061C399.106 337.845 398.471 338.481 397.687 338.481Z" fill="white"/>
<path d="M357.367 338.481H330.109C329.325 338.481 328.69 337.845 328.69 337.061C328.69 336.277 329.326 335.642 330.109 335.642H357.367C358.151 335.642 358.786 336.278 358.786 337.061C358.787 337.845 358.151 338.481 357.367 338.481Z" fill="#407BFF"/>
<path opacity="0.6" d="M357.367 338.481H330.109C329.325 338.481 328.69 337.845 328.69 337.061C328.69 336.277 329.326 335.642 330.109 335.642H357.367C358.151 335.642 358.786 336.278 358.786 337.061C358.787 337.845 358.151 338.481 357.367 338.481Z" fill="white"/>
</svg>
