<svg width="49" height="38" viewBox="0 0 49 38" fill="none" xmlns="http://www.w3.org/2000/svg">
<path fill-rule="evenodd" clip-rule="evenodd" d="M1.72243 0.878679C0.84375 1.75736 0.84375 3.17157 0.84375 5.99999V6.99982C1.00835 6.99967 1.17529 7.04023 1.32939 7.12584L24.8438 20.1894L48.3581 7.12584C48.5122 7.04023 48.6791 6.99967 48.8438 6.99982V6C48.8438 3.17157 48.8438 1.75736 47.9651 0.878679C47.0864 0 45.6722 0 42.8438 0H6.84375C4.01532 0 2.60111 0 1.72243 0.878679ZM48.8438 9.14396L25.815 21.9377C25.211 22.2733 24.4765 22.2733 23.8725 21.9377L0.84375 9.14396V31.3333C0.84375 34.1618 0.84375 35.576 1.72243 36.4547C2.60111 37.3333 4.01532 37.3333 6.84375 37.3333H42.8438C45.6722 37.3333 47.0864 37.3333 47.9651 36.4547C48.8438 35.576 48.8438 34.1618 48.8438 31.3333V9.14396Z" fill="white"/>
</svg>
