<svg width="220" height="220" viewBox="0 0 220 220" fill="none" xmlns="http://www.w3.org/2000/svg">
<path d="M158.334 109.512C158.334 109.512 157.98 109.816 157.197 110.098C156.43 110.372 155.158 110.572 153.738 110.054C153.04 109.794 152.312 109.363 151.714 108.71C151.124 108.059 150.624 107.218 150.424 106.238C150.312 105.754 150.278 105.238 150.32 104.719C150.354 104.199 150.472 103.673 150.677 103.171C151.065 102.156 151.817 101.249 152.788 100.631C153.77 100.03 154.915 99.752 155.997 99.8483C156.539 99.8848 157.063 100.01 157.546 100.207C158.031 100.398 158.479 100.654 158.865 100.968C159.658 101.577 160.194 102.396 160.519 103.213C160.843 104.036 160.91 104.879 160.838 105.62C160.68 107.124 159.941 108.178 159.358 108.748C158.762 109.328 158.334 109.512 158.334 109.512C158.312 109.483 158.718 109.259 159.276 108.669C159.822 108.087 160.505 107.048 160.63 105.602C160.687 104.889 160.61 104.085 160.291 103.303C159.971 102.529 159.454 101.755 158.697 101.184C158.329 100.889 157.903 100.649 157.442 100.472C156.985 100.287 156.488 100.171 155.976 100.139C154.952 100.051 153.873 100.316 152.946 100.883C152.029 101.468 151.317 102.321 150.947 103.279C150.751 103.752 150.637 104.25 150.603 104.742C150.56 105.233 150.588 105.722 150.692 106.182C150.873 107.112 151.341 107.917 151.896 108.544C152.458 109.174 153.146 109.596 153.812 109.858C155.166 110.381 156.4 110.224 157.162 109.989C157.937 109.747 158.317 109.48 158.334 109.512Z" fill="#E0E0E0"/>
<path d="M159.268 116.352C159.27 116.348 159.315 116.388 159.403 116.473C159.501 116.567 159.63 116.693 159.799 116.856C160.158 117.21 160.676 117.72 161.348 118.383L161.29 118.376C162.331 117.718 163.7 116.852 165.356 115.805L165.324 115.893C165.031 115.063 164.705 114.14 164.357 113.153L164.339 113.104L164.375 113.065C165.042 112.349 165.663 111.5 166.175 110.526L166.202 110.474H166.261C167.168 110.475 168.149 110.477 169.169 110.479L169.066 110.561C169.404 109.084 169.763 107.517 170.139 105.871L170.202 106.003C169.391 105.613 168.497 105.183 167.581 104.743L167.514 104.711L167.512 104.636C167.481 103.671 167.32 102.613 166.997 101.576L166.974 101.503L167.029 101.448C167.668 100.813 168.373 100.113 169.091 99.3995L169.072 99.5631C168.27 98.2823 167.405 96.9011 166.519 95.4852L166.681 95.5424C165.827 95.8412 164.889 96.169 163.938 96.5012L163.858 96.5293L163.795 96.4713C163.087 95.8069 162.223 95.1746 161.272 94.6739L161.195 94.6334L161.196 94.5463C161.199 93.6355 161.203 92.6419 161.207 91.6383L161.319 91.7804C159.835 91.4377 158.244 91.0703 156.631 90.698L156.797 90.6188C156.397 91.446 155.967 92.3388 155.532 93.2377L155.494 93.3187L155.404 93.3213C154.42 93.3517 153.367 93.5153 152.352 93.8295L152.35 93.8299H152.35C152.283 93.8132 152.498 93.8673 152.2 93.7925L152.198 93.7903L152.194 93.7864L152.186 93.778L152.17 93.7617L152.138 93.7292L152.073 93.6641L151.944 93.5343L151.687 93.2747L151.174 92.7568C150.832 92.4123 150.492 92.0691 150.154 91.7272L150.337 91.7483C148.958 92.6089 147.597 93.4586 146.255 94.2955L146.316 94.123C146.638 95.047 146.956 95.9622 147.272 96.8681L147.301 96.9513L147.24 97.0155C146.523 97.7798 145.918 98.6321 145.439 99.5363L145.399 99.6133L145.312 99.6129C144.329 99.6076 143.36 99.6027 142.404 99.5979L142.543 99.4888C142.171 101.088 141.808 102.651 141.454 104.174L141.381 104.021C142.268 104.451 143.141 104.874 143.997 105.289L144.07 105.325L144.072 105.405C144.105 106.464 144.28 107.495 144.577 108.465L144.6 108.539L144.545 108.594C143.836 109.294 143.148 109.973 142.477 110.636L142.495 110.484C143.388 111.921 144.231 113.278 145.034 114.57L144.901 114.523C145.867 114.189 146.773 113.875 147.647 113.573L147.709 113.552L147.755 113.596C148.564 114.356 149.418 114.947 150.282 115.408L150.334 115.436L150.334 115.495C150.325 116.551 150.318 117.503 150.311 118.402L150.243 118.316C152.057 118.745 153.602 119.109 154.926 119.421L154.851 119.457C155.363 118.415 155.783 117.559 156.132 116.847L156.145 116.821L156.174 116.82C157.23 116.791 158.005 116.642 158.513 116.532C158.757 116.474 158.944 116.428 159.08 116.396C159.209 116.361 159.27 116.348 159.268 116.352C159.267 116.356 159.205 116.379 159.087 116.419C158.963 116.458 158.777 116.516 158.524 116.58C158.018 116.706 157.241 116.871 156.177 116.915L156.218 116.888C155.878 117.605 155.469 118.466 154.97 119.515L154.947 119.562L154.896 119.55C153.57 119.25 152.021 118.899 150.203 118.487L150.136 118.471V118.401C150.137 117.502 150.138 116.55 150.139 115.493L150.191 115.58C149.309 115.116 148.437 114.52 147.61 113.75L147.718 113.773C146.845 114.079 145.94 114.397 144.975 114.736L144.89 114.766L144.842 114.689C144.034 113.4 143.185 112.046 142.286 110.612L142.234 110.529L142.304 110.46C142.973 109.794 143.658 109.113 144.364 108.41L144.332 108.539C144.025 107.548 143.843 106.494 143.807 105.411L143.882 105.526C143.024 105.113 142.151 104.693 141.262 104.265L141.164 104.217L141.189 104.111C141.54 102.587 141.899 101.024 142.268 99.4232L142.293 99.3132L142.406 99.3137C143.362 99.3172 144.331 99.3207 145.314 99.3242L145.187 99.4003C145.676 98.4733 146.295 97.599 147.03 96.8149L146.998 96.9619C146.682 96.0563 146.363 95.1416 146.04 94.2176L146.001 94.1071L146.101 94.0451C147.442 93.2073 148.802 92.3573 150.181 91.4957L150.282 91.4333L150.365 91.5173C150.703 91.8587 151.044 92.2019 151.385 92.5465L151.898 93.0643L152.156 93.3239L152.285 93.4537L152.349 93.5184L152.381 93.551L152.398 93.5673L152.406 93.5752L152.41 93.5791L152.411 93.5813C152.114 93.507 152.329 93.5607 152.263 93.5439L152.263 93.5435L152.265 93.5431C153.307 93.221 154.386 93.0533 155.395 93.0225L155.266 93.1057C155.701 92.2068 156.132 91.3145 156.532 90.4873L156.583 90.3812L156.697 90.4076C158.31 90.7812 159.9 91.1499 161.384 91.494L161.497 91.5204L161.497 91.6361C161.492 92.6397 161.486 93.6333 161.482 94.5441L161.405 94.4169C162.38 94.9313 163.263 95.5807 163.988 96.2623L163.845 96.2319C164.796 95.9015 165.735 95.5754 166.591 95.2784L166.695 95.2423L166.753 95.3356C167.636 96.7533 168.497 98.1367 169.296 99.4197L169.352 99.5095L169.277 99.5838C168.557 100.295 167.851 100.993 167.209 101.626L167.242 101.498C167.568 102.559 167.729 103.641 167.757 104.626L167.688 104.52C168.602 104.964 169.494 105.397 170.303 105.79L170.388 105.831L170.366 105.922C169.982 107.565 169.616 109.131 169.272 110.606L169.252 110.688L169.168 110.688C168.148 110.68 167.167 110.673 166.26 110.667L166.347 110.615C165.82 111.602 165.183 112.46 164.502 113.182L164.521 113.094C164.861 114.084 165.18 115.01 165.466 115.842L165.486 115.899L165.435 115.931C163.767 116.959 162.388 117.809 161.339 118.455L161.307 118.475L161.281 118.448C160.63 117.776 160.129 117.259 159.78 116.899C159.617 116.727 159.491 116.594 159.396 116.495C159.311 116.404 159.267 116.356 159.268 116.352Z" fill="#E0E0E0"/>
<path fill-rule="evenodd" clip-rule="evenodd" d="M168.847 81.5426C167.411 81.9839 165.94 82.2241 164.473 82.2712L162.684 85.9734L156.057 84.44L156.075 80.3286C154.778 79.6426 153.561 78.7811 152.465 77.7533L148.584 79.1058L144.982 73.3352L147.901 70.4422C147.458 69.0065 147.22 67.5347 147.173 66.0678L143.471 64.2792L145.003 57.6528L149.115 57.6708C149.801 56.3732 150.663 55.1575 151.691 54.061L150.338 50.1802L156.108 46.5771L159.001 49.4965C160.437 49.0538 161.908 48.8149 163.376 48.7683L165.165 45.0657L171.792 46.5991L171.773 50.7109C173.071 51.3973 174.287 52.2588 175.383 53.2862L179.264 51.9341L182.867 57.7042L179.948 60.5968C180.39 62.0325 180.63 63.5043 180.676 64.9717L184.378 66.7603L182.846 73.3872L178.734 73.3687C178.048 74.6662 177.187 75.8824 176.158 76.9789L177.511 80.8592L171.741 84.4615L168.847 81.5426ZM167.526 71.8727C170.945 69.7387 171.987 65.237 169.852 61.8182C167.718 58.3994 163.216 57.3588 159.798 59.4928C156.379 61.6273 155.338 66.1285 157.472 69.5473C159.607 72.9656 164.108 74.0071 167.526 71.8727Z" fill="#E0E0E0"/>
<path fill-rule="evenodd" clip-rule="evenodd" d="M184.461 103.461C183.698 103.696 182.915 103.823 182.134 103.848L181.183 105.818L177.657 105.002L177.667 102.815C176.977 102.45 176.329 101.992 175.746 101.445L173.681 102.164L171.765 99.0942L173.318 97.5551C173.082 96.7912 172.955 96.0085 172.93 95.2279L170.961 94.2762L171.776 90.7509L173.963 90.7606C174.329 90.0702 174.787 89.4234 175.334 88.84L174.614 86.7755L177.684 84.8589L179.223 86.4121C179.987 86.1767 180.77 86.0495 181.55 86.0244L182.502 84.0546L186.028 84.8703L186.018 87.058C186.708 87.4232 187.355 87.8817 187.938 88.4282L190.003 87.7088L191.919 90.7786L190.366 92.3173C190.602 93.0812 190.729 93.8644 190.754 94.6449L192.724 95.5966L191.908 99.1219L189.721 99.1122C189.356 99.8026 188.898 100.449 188.351 101.033L189.07 103.097L186.001 105.014L184.461 103.461ZM183.759 98.3163C185.577 97.1811 186.132 94.7862 184.996 92.9672C183.861 91.1487 181.466 90.5947 179.647 91.7299C177.828 92.8656 177.275 95.26 178.41 97.079C179.545 98.898 181.94 99.4519 183.759 98.3163Z" fill="#EBEBEB"/>
<path d="M49.4381 64.5265C49.4825 64.5714 47.4194 66.6851 44.8304 69.2468C42.2406 71.8094 40.1057 73.8496 40.0613 73.8043C40.0168 73.7594 42.0795 71.6461 44.6694 69.0836C47.2583 66.5223 49.3937 64.4816 49.4381 64.5265Z" fill="#E0E0E0"/>
<path d="M49.4615 73.7818C49.417 73.8272 47.272 71.7966 44.6708 69.2476C42.0686 66.6974 39.9958 64.5946 40.0398 64.5493C40.0842 64.504 42.2287 66.5342 44.8309 69.084C47.4322 71.6329 49.5055 73.7365 49.4615 73.7818Z" fill="#E0E0E0"/>
<path d="M58.7704 123.084C58.7638 123.147 56.1313 122.921 52.8911 122.579C49.6501 122.237 47.0286 121.909 47.0352 121.845C47.0418 121.782 49.6738 122.008 52.9149 122.351C56.155 122.693 58.777 123.021 58.7704 123.084Z" fill="#E0E0E0"/>
<path d="M58.3036 127.504C58.297 127.567 55.6645 127.34 52.4243 126.998C49.1833 126.657 46.5618 126.328 46.5684 126.265C46.575 126.202 49.2071 126.428 52.4481 126.771C55.6887 127.112 58.3102 127.441 58.3036 127.504Z" fill="#E0E0E0"/>
<path d="M26.5751 113.384C26.5751 113.384 23.0907 113.134 23.4115 120.95C23.7322 128.766 24.5295 132.929 24.5295 132.929C24.5295 132.929 24.427 134.662 23.085 134.322C21.743 133.982 19.2178 132.296 17.9709 133.556C16.6777 134.864 17.1375 136.869 18.8531 139.232C20.5686 141.594 24.137 146.908 24.4582 147.389C24.7733 147.862 24.8996 148.749 23.9483 148.663C22.997 148.578 16.5748 146.401 15.7242 149.511C14.8737 152.62 20.7345 158.415 21.3628 159.061C21.9916 159.707 22.025 160.115 21.7703 160.506C21.5151 160.897 19.4255 159.962 17.5736 159.417C15.7216 158.873 13.4789 158.567 13.1384 160.402C12.7978 162.236 15.3793 167.607 25.0461 173.25L29.6964 175.572L34.0982 172.765C43.1516 166.182 45.1831 160.581 44.6608 158.789C44.1386 156.998 41.9377 157.527 40.1495 158.253C38.3614 158.98 36.3756 160.119 36.083 159.756C35.7904 159.393 35.7834 158.984 36.344 158.279C36.905 157.573 42.1564 151.22 40.9992 148.212C39.842 145.203 33.6696 148.011 32.7316 148.191C31.7935 148.371 31.8304 147.476 32.0966 146.974C32.3677 146.463 35.387 140.819 36.8574 138.297C38.3279 135.775 38.5849 133.733 37.1672 132.562C35.8001 131.432 33.4567 133.363 32.1552 133.836C30.8536 134.309 30.5782 132.594 30.5782 132.594C30.5782 132.594 30.9553 128.372 30.4924 120.563C30.0295 112.754 26.5042 113.385 26.5042 113.385" fill="#EBEBEB"/>
<path d="M26.851 120.385C26.851 120.385 26.8602 120.44 26.8695 120.548C26.8783 120.664 26.8906 120.823 26.9064 121.028C26.9355 121.458 26.9777 122.078 27.0318 122.873C27.1387 124.476 27.2756 126.797 27.434 129.665C27.753 135.402 28.1252 143.329 28.508 152.086C28.8904 160.846 29.2433 168.775 29.5301 174.512C29.6758 177.375 29.7937 179.694 29.8755 181.306C29.9151 182.102 29.9459 182.723 29.9675 183.154C29.9759 183.359 29.9825 183.519 29.9869 183.634C29.9904 183.743 29.9873 183.798 29.9873 183.798C29.9873 183.798 29.9781 183.743 29.9684 183.636C29.9596 183.52 29.9473 183.361 29.9314 183.156C29.9024 182.726 29.8601 182.105 29.806 181.311C29.6991 179.708 29.5623 177.387 29.4039 174.519C29.0853 168.783 28.7126 160.854 28.3298 152.094C27.9475 143.337 27.5946 135.409 27.3081 129.672C27.1625 126.81 27.0446 124.49 26.9623 122.878C26.9227 122.082 26.8919 121.461 26.8703 121.03C26.862 120.825 26.8554 120.665 26.851 120.549C26.8479 120.441 26.851 120.385 26.851 120.385Z" fill="#455A64"/>
<path d="M21.4088 136.058C21.4176 136.049 21.5201 136.135 21.6983 136.298C21.8774 136.461 22.1287 136.704 22.4362 137.007C23.05 137.615 23.8755 138.477 24.7682 139.445C25.6421 140.401 26.4319 141.265 27.0426 141.934C27.3141 142.228 27.5451 142.479 27.7347 142.684C27.8988 142.861 27.9855 142.963 27.9771 142.972C27.9688 142.981 27.8654 142.896 27.6859 142.734C27.5072 142.571 27.256 142.328 26.9515 142.021C26.3434 141.407 25.5299 140.534 24.6371 139.566C23.7571 138.617 22.9616 137.759 22.3456 137.095C22.0723 136.802 21.84 136.553 21.6491 136.348C21.4863 136.169 21.4 136.066 21.4088 136.058Z" fill="#455A64"/>
<path d="M28.438 142.819C28.4028 142.785 30.1039 141.004 32.2361 138.842C34.3692 136.679 36.1266 134.954 36.1614 134.988C36.1961 135.023 34.496 136.803 32.3628 138.966C30.2302 141.128 28.4728 142.853 28.438 142.819Z" fill="#455A64"/>
<path d="M28.4182 156.295C28.4125 156.284 28.5282 156.211 28.7425 156.089C28.9906 155.949 29.2947 155.779 29.6519 155.578C30.4193 155.147 31.4775 154.548 32.6211 153.845C33.7668 153.144 34.7819 152.474 35.5132 151.985C35.8542 151.757 36.1441 151.564 36.3809 151.406C36.5868 151.271 36.7043 151.201 36.7113 151.21C36.7183 151.22 36.6149 151.309 36.4213 151.462C36.2273 151.615 35.9426 151.83 35.5849 152.088C34.8703 152.605 33.8632 153.294 32.7139 153.996C31.5668 154.702 30.4954 155.285 29.7113 155.689C29.3184 155.889 28.9985 156.048 28.7741 156.15C28.5502 156.254 28.4239 156.306 28.4182 156.295Z" fill="#455A64"/>
<path d="M20.7151 151.579C20.7213 151.568 20.8357 151.623 21.0368 151.73C21.2379 151.837 21.5261 151.998 21.8798 152.199C22.5878 152.601 23.5597 153.167 24.6272 153.802C25.6951 154.437 26.6569 155.021 27.3481 155.451C27.694 155.666 27.9721 155.842 28.1621 155.968C28.3522 156.093 28.4547 156.167 28.4481 156.178C28.442 156.189 28.3276 156.134 28.1265 156.027C27.9254 155.92 27.6372 155.76 27.2835 155.558C26.5755 155.156 25.6035 154.59 24.5357 153.955C23.4682 153.32 22.5064 152.736 21.8151 152.306C21.4693 152.091 21.1912 151.915 21.0007 151.789C20.8111 151.664 20.7085 151.59 20.7151 151.579Z" fill="#455A64"/>
<path d="M19.1858 163.474C19.1919 163.463 19.3371 163.534 19.595 163.672C19.8814 163.83 20.2444 164.03 20.6774 164.269C21.5873 164.78 22.8382 165.496 24.2145 166.297C25.5913 167.098 26.8321 167.832 27.7257 168.37C28.1472 168.629 28.5005 168.845 28.7795 169.016C29.0263 169.172 29.1597 169.264 29.1535 169.274C29.1474 169.285 29.0022 169.214 28.7443 169.076C28.4579 168.918 28.0949 168.718 27.6619 168.479C26.752 167.968 25.5011 167.252 24.1243 166.451C22.7484 165.65 21.5072 164.917 20.6136 164.378C20.192 164.12 19.8387 163.903 19.5598 163.732C19.3134 163.576 19.1796 163.485 19.1858 163.474Z" fill="#455A64"/>
<path d="M28.9533 169.068C28.9472 169.057 29.0915 168.961 29.3577 168.797C29.6538 168.617 30.0331 168.386 30.488 168.109C31.442 167.528 32.7571 166.72 34.184 165.789C35.6132 164.86 36.8843 163.986 37.8013 163.347C38.2386 163.043 38.6038 162.789 38.8881 162.592C39.1459 162.415 39.2916 162.322 39.299 162.331C39.3065 162.341 39.1741 162.453 38.929 162.648C38.6839 162.842 38.3244 163.117 37.8743 163.449C36.9754 164.115 35.7126 165.007 34.2808 165.938C32.8513 166.871 31.5229 167.663 30.5514 168.217C30.0648 168.493 29.6688 168.712 29.3916 168.857C29.1152 169.003 28.9595 169.079 28.9533 169.068Z" fill="#455A64"/>
<path d="M35.9437 177.093H23.0781L27.2775 208.88H31.7448L35.9437 177.093Z" fill="#455A64"/>
<path d="M23.7468 181.001C23.742 181.004 23.7609 181.046 23.8155 181.114C23.8705 181.181 23.9712 181.269 24.1257 181.336C24.4306 181.469 24.9665 181.48 25.4844 181.17C26.004 180.883 26.4563 180.32 27.1529 180.071C27.8432 179.808 28.6986 179.855 29.5187 180.118C30.3481 180.375 31.0689 180.795 31.7218 181.186C32.3761 181.575 32.9754 181.922 33.5135 182.147C34.0472 182.38 34.5127 182.488 34.8348 182.529C34.9963 182.551 35.1221 182.557 35.2079 182.554C35.2933 182.554 35.3382 182.551 35.3386 182.543C35.3461 182.501 34.6104 182.508 33.5738 182.011C33.0541 181.774 32.4707 181.419 31.8217 181.02C31.1758 180.621 30.4379 180.183 29.5812 179.918C28.7347 179.645 27.8247 179.596 27.0842 179.891C26.7142 180.031 26.4035 180.253 26.1444 180.472C25.8817 180.689 25.6463 180.894 25.4078 181.042C24.9375 181.346 24.4429 181.359 24.1547 181.26C23.8581 181.157 23.7631 180.983 23.7468 181.001Z" fill="#F5F5F5"/>
<path d="M24.2163 186.855C24.2334 186.866 24.3183 186.724 24.5194 186.514C24.724 186.31 25.0597 186.043 25.5468 185.863C26.0295 185.677 26.6499 185.567 27.3359 185.593C28.0249 185.617 28.776 185.768 29.5746 185.898C30.3718 186.032 31.1617 186.092 31.867 185.993C32.5723 185.903 33.1848 185.7 33.6705 185.478C34.1576 185.256 34.5184 185.013 34.7551 184.833C34.9927 184.653 35.1058 184.532 35.0988 184.524C35.0746 184.489 34.5778 184.934 33.6111 185.342C33.1289 185.541 32.5287 185.724 31.8437 185.801C31.1586 185.886 30.4 185.823 29.6076 185.691C28.8156 185.562 28.0526 185.413 27.3416 185.4C26.6297 185.384 25.9877 185.514 25.4909 185.725C24.9898 185.931 24.651 186.231 24.4587 186.459C24.3659 186.578 24.2985 186.673 24.2642 186.744C24.2264 186.814 24.2097 186.852 24.2163 186.855Z" fill="#F5F5F5"/>
<path d="M34.4863 189.989C34.4912 189.98 34.3719 189.899 34.1317 189.805C33.8923 189.71 33.5267 189.613 33.0656 189.576C32.6049 189.54 32.0527 189.569 31.4534 189.669C30.8533 189.766 30.2104 189.932 29.5346 190.075C28.8596 190.217 28.2084 190.313 27.6188 190.291C27.0292 190.271 26.5047 190.142 26.0977 189.962C25.2697 189.599 24.9749 189.07 24.9441 189.103C24.9361 189.108 24.9942 189.24 25.1619 189.439C25.3277 189.637 25.6173 189.89 26.0353 190.096C26.4528 190.302 26.9967 190.452 27.6105 190.484C28.2256 190.517 28.8953 190.424 29.5781 190.28C30.261 190.135 30.8995 189.964 31.4864 189.859C32.0729 189.751 32.6089 189.707 33.0572 189.724C33.9601 189.755 34.4731 190.028 34.4863 189.989Z" fill="#F5F5F5"/>
<path d="M25.3519 194.398C25.358 194.432 25.8112 194.111 26.601 194.272C26.9882 194.342 27.4212 194.538 27.9078 194.759C28.3927 194.985 28.977 195.179 29.604 195.227C30.8681 195.348 31.9923 194.94 32.6818 194.513C33.0351 194.304 33.2811 194.079 33.4478 193.924C33.6045 193.757 33.6846 193.662 33.6744 193.652C33.6463 193.621 33.3084 194.001 32.6075 194.385C31.9184 194.766 30.8334 195.134 29.6229 195.018C28.405 194.948 27.47 194.222 26.6257 194.126C26.2138 194.064 25.8697 194.123 25.6555 194.21C25.4377 194.294 25.3457 194.39 25.3519 194.398Z" fill="#F5F5F5"/>
<path d="M26.0684 200.499C26.0684 200.523 26.5 200.52 27.1411 200.286C27.7879 200.07 28.5883 199.574 29.5233 199.203C29.9923 199.024 30.4627 198.914 30.8904 198.916C31.3185 198.918 31.7004 199.023 31.9895 199.167C32.5804 199.461 32.7516 199.879 32.7841 199.853C32.7934 199.849 32.7674 199.744 32.6622 199.582C32.5584 199.42 32.3613 199.21 32.0594 199.036C31.7585 198.864 31.3537 198.736 30.8934 198.723C30.4319 198.71 29.9347 198.822 29.4489 199.007C28.48 199.393 27.7052 199.903 27.0874 200.148C26.4767 200.411 26.0636 200.465 26.0684 200.499Z" fill="#F5F5F5"/>
<path d="M26.6993 203.337C26.6923 203.364 27.0007 203.474 27.5138 203.602C28.0268 203.729 28.7462 203.865 29.5501 203.945C30.354 204.023 31.0866 204.03 31.6146 204.005C32.143 203.98 32.4669 203.931 32.4651 203.904C32.462 203.84 31.1614 203.896 29.5708 203.736C27.9802 203.584 26.7152 203.276 26.6993 203.337Z" fill="#F5F5F5"/>
<path d="M207.358 208.368C207.358 208.432 163.572 208.483 109.57 208.483C55.5508 208.483 11.7734 208.431 11.7734 208.368C11.7734 208.305 55.5508 208.254 109.57 208.254C163.571 208.254 207.358 208.305 207.358 208.368Z" fill="#263238"/>
<path d="M67.0352 70.8241C67.0352 70.8241 68.2333 63.6477 68.5184 63.1017C68.8035 62.5556 72.1123 59.2006 72.5026 59.1311C72.8929 59.0616 78.1069 57.4248 77.8187 58.2383C77.53 59.0519 73.8723 60.1493 73.8723 60.1493L73.5252 60.5862C73.5252 60.5862 76.6505 59.5689 77.4275 59.5949C78.143 59.6186 78.2701 60.3613 77.7113 60.5756C77.1525 60.7899 74.3968 61.5929 74.2947 61.7649C74.1926 61.9374 77.3619 61.0319 77.7601 61.0486C78.2956 61.0715 78.6846 61.75 78.1372 61.9801C77.8147 62.1156 74.7506 62.8192 74.7506 62.8192C74.7506 62.8192 77.3083 62.52 77.5965 62.5979C78.0682 62.7255 78.0277 63.297 77.5098 63.4347C77.1543 63.5289 75.2821 63.6094 74.806 63.7366C74.806 63.7366 74.4527 64.0393 74.4654 64.9866C74.4782 65.9344 73.2466 68.46 73.2466 68.46L67.0352 70.8241Z" fill="#FFBE9D"/>
<path d="M77.8148 58.2546C77.8351 58.2748 77.5724 58.5648 77.0475 58.9212C76.7852 59.0981 76.4565 59.2877 76.0711 59.4567C75.6826 59.6023 75.2527 59.7502 74.8013 59.9072C74.4669 60.0208 74.1443 60.1299 73.839 60.2333L73.8909 60.2016C72.8969 61.1934 72.1516 61.8877 72.1111 61.8525C72.0706 61.8173 72.7482 61.0614 73.7224 60.0472L73.7422 60.0269L73.7747 60.0155C74.0761 59.9099 74.3943 59.7986 74.7247 59.6824C75.1665 59.5328 75.5875 59.3902 75.9884 59.2543C76.3641 59.1029 76.6897 58.9344 76.9564 58.7804C77.4892 58.4698 77.7902 58.2269 77.8148 58.2546Z" fill="#EB996E"/>
<path d="M147.284 149.654L76.2584 142.337C74.0861 142.113 72.5065 140.171 72.7301 137.998L85.0311 18.59C85.3493 15.5043 88.1081 13.2608 91.1938 13.5784L158.912 20.5546C161.997 20.8723 164.241 23.6316 163.923 26.7173L151.622 146.126C151.399 148.298 149.456 149.878 147.284 149.654Z" fill="#2C73EB"/>
<path opacity="0.4" d="M147.284 149.654L76.2584 142.337C74.0861 142.113 72.5065 140.171 72.7301 137.998L85.0311 18.59C85.3493 15.5043 88.1081 13.2608 91.1938 13.5784L158.912 20.5546C161.997 20.8723 164.241 23.6316 163.923 26.7173L151.622 146.126C151.399 148.298 149.456 149.878 147.284 149.654Z" fill="black"/>
<path d="M140.118 148.915L69.0924 141.599C66.9201 141.375 65.3405 139.432 65.564 137.26L77.8651 17.8512C78.1828 14.7655 80.9421 12.5215 84.0278 12.8396L151.746 19.8158C154.831 20.1335 157.075 22.8927 156.757 25.9785L144.456 145.387C144.233 147.56 142.29 149.139 140.118 148.915Z" fill="#2C73EB"/>
<path d="M102.788 128.17L78.2975 125.647C77.7123 125.587 77.2872 125.063 77.3475 124.479L78.3401 114.841C78.4004 114.257 78.9236 113.831 79.5083 113.891L103.999 116.414C104.584 116.475 105.009 116.998 104.949 117.582L103.956 127.22C103.896 127.805 103.373 128.23 102.788 128.17Z" fill="#2C73EB"/>
<g opacity="0.4">
<path d="M102.788 128.17L78.2975 125.647C77.7123 125.587 77.2872 125.063 77.3475 124.479L78.3401 114.841C78.4004 114.257 78.9236 113.831 79.5083 113.891L103.999 116.414C104.584 116.475 105.009 116.998 104.949 117.582L103.956 127.22C103.896 127.805 103.373 128.23 102.788 128.17Z" fill="black"/>
</g>
<path d="M82.8142 26.1935L80.0879 52.6505L147.534 59.6006L150.261 33.1436L82.8142 26.1935Z" fill="#FAFAFA"/>
<path d="M147.534 59.5949C147.534 59.5949 147.545 59.4321 147.574 59.1228C147.605 58.8095 147.649 58.3523 147.707 57.753C147.826 56.5479 148.002 54.7782 148.229 52.4959C148.688 47.934 149.354 41.3278 150.18 33.1289L150.251 33.216C133.276 31.4762 109.323 29.021 82.8037 26.3027L82.7993 26.3023L82.9252 26.2002C81.9704 35.4534 81.0477 44.3938 80.195 52.6574L80.0968 52.5368C99.6139 54.5683 116.459 56.3217 128.431 57.5678C134.421 58.1979 139.191 58.6999 142.468 59.0444C144.105 59.2191 145.367 59.3538 146.227 59.4457C146.652 59.4924 146.976 59.5284 147.2 59.5526C147.419 59.5786 147.534 59.5949 147.534 59.5949C147.534 59.5949 147.427 59.5887 147.212 59.5685C146.991 59.5474 146.671 59.5166 146.25 59.4761C145.395 59.3912 144.139 59.2666 142.512 59.1052C139.239 58.7752 134.475 58.2947 128.493 57.6919C116.5 56.4691 99.6258 54.7492 80.074 52.756L79.9648 52.745L79.9763 52.6354C80.8264 44.3713 81.7455 35.431 82.6972 26.1773L82.7091 26.0634L82.8231 26.0752L82.8275 26.0757C109.344 28.8213 133.295 31.3011 150.268 33.0585L150.347 33.0668L150.339 33.146C149.474 41.3617 148.777 47.9811 148.296 52.5522C148.054 54.8253 147.866 56.5875 147.737 57.7878C147.672 58.3796 147.623 58.8315 147.589 59.1412C147.555 59.444 147.534 59.5949 147.534 59.5949Z" fill="#263238"/>
<path d="M92.1399 76.1367L82.4978 75.1432C81.9944 75.0913 81.6288 74.6416 81.6807 74.1382L82.6742 64.4961C82.7261 63.9927 83.1758 63.6271 83.6792 63.6785L93.3213 64.6721C93.8247 64.724 94.1903 65.1737 94.1389 65.677L93.1453 75.3192C93.0934 75.8225 92.6433 76.1886 92.1399 76.1367Z" fill="#2C73EB"/>
<g opacity="0.4">
<path d="M92.1399 76.1367L82.4978 75.1432C81.9944 75.0913 81.6288 74.6416 81.6807 74.1382L82.6742 64.4961C82.7261 63.9927 83.1758 63.6271 83.6792 63.6785L93.3213 64.6721C93.8247 64.724 94.1903 65.1737 94.1389 65.677L93.1453 75.3192C93.0934 75.8225 92.6433 76.1886 92.1399 76.1367Z" fill="black"/>
</g>
<path d="M90.3704 75.9545L80.7282 74.9614C80.2249 74.9095 79.8592 74.4594 79.9112 73.9565L80.9047 64.3143C80.9566 63.8109 81.4063 63.4453 81.9096 63.4972L91.5518 64.4907C92.0552 64.5427 92.4208 64.9923 92.3689 65.4957L91.3754 75.1379C91.3234 75.6403 90.8738 76.0064 90.3704 75.9545Z" fill="#263238"/>
<path d="M87.1998 67.3671L86.7074 72.145L85.6017 72.0311L86.0026 68.1406L85.0469 68.042L85.1384 67.1545L87.1998 67.3671Z" fill="white"/>
<path d="M108.13 77.7837L98.488 76.7902C97.9846 76.7382 97.619 76.2881 97.6709 75.7852L98.6644 66.143C98.7164 65.6397 99.166 65.274 99.6694 65.326L109.312 66.319C109.815 66.371 110.181 66.8206 110.129 67.324L109.135 76.9662C109.083 77.4695 108.633 77.8356 108.13 77.7837Z" fill="#2C73EB"/>
<g opacity="0.4">
<path d="M108.13 77.7837L98.488 76.7902C97.9846 76.7382 97.619 76.2881 97.6709 75.7852L98.6644 66.143C98.7164 65.6397 99.166 65.274 99.6694 65.326L109.312 66.319C109.815 66.371 110.181 66.8206 110.129 67.324L109.135 76.9662C109.083 77.4695 108.633 77.8356 108.13 77.7837Z" fill="black"/>
</g>
<path d="M106.359 77.6015L96.7165 76.6084C96.2132 76.5565 95.8475 76.1068 95.8994 75.6034L96.8925 65.9613C96.9444 65.4579 97.3946 65.0923 97.8975 65.1442L107.54 66.1377C108.043 66.1896 108.409 66.6393 108.357 67.1427L107.364 76.7848C107.312 77.2873 106.862 77.6534 106.359 77.6015Z" fill="#263238"/>
<path d="M104.516 73.0691L104.423 73.9702L100.812 73.5984L100.886 72.8816L102.909 71.3306C103.373 70.9716 103.474 70.7335 103.497 70.5017C103.536 70.1259 103.299 69.8808 102.795 69.8289C102.385 69.7867 102.02 69.9081 101.755 70.2051L101.004 69.6032C101.428 69.102 102.132 68.8226 102.993 68.9115C104.057 69.0211 104.711 69.6406 104.622 70.5074C104.574 70.9716 104.4 71.3812 103.668 71.9334L102.462 72.8579L104.516 73.0691Z" fill="white"/>
<path d="M124.702 79.4908L115.06 78.4973C114.557 78.4454 114.191 77.9957 114.243 77.4923L115.237 67.8502C115.289 67.3468 115.738 66.9812 116.242 67.0331L125.884 68.0262C126.387 68.0781 126.753 68.5282 126.701 69.0311L125.707 78.6733C125.655 79.1771 125.205 79.5427 124.702 79.4908Z" fill="#2C73EB"/>
<g opacity="0.4">
<path d="M124.702 79.4908L115.06 78.4973C114.557 78.4454 114.191 77.9957 114.243 77.4923L115.237 67.8502C115.289 67.3468 115.738 66.9812 116.242 67.0331L125.884 68.0262C126.387 68.0781 126.753 68.5282 126.701 69.0311L125.707 78.6733C125.655 79.1771 125.205 79.5427 124.702 79.4908Z" fill="black"/>
</g>
<path d="M122.931 79.3086L113.289 78.3151C112.785 78.2632 112.42 77.8135 112.472 77.3102L113.465 67.6676C113.517 67.1642 113.967 66.7986 114.47 66.8505L124.112 67.844C124.616 67.8959 124.981 68.3456 124.929 68.849L123.936 78.4911C123.884 78.9945 123.434 79.3606 122.931 79.3086Z" fill="#263238"/>
<path d="M121.105 74.2122C121.022 75.0178 120.325 75.6906 118.967 75.5507C118.298 75.4816 117.628 75.2264 117.197 74.8511L117.715 74.049C118.048 74.3592 118.537 74.5682 119.036 74.6196C119.588 74.6764 119.953 74.4868 119.993 74.0974C120.03 73.7357 119.787 73.4831 119.159 73.4184L118.654 73.3665L118.729 72.6361L119.827 71.625L117.793 71.4156L117.885 70.5281L121.229 70.8726L121.156 71.5894L119.95 72.707C120.796 72.9322 121.178 73.5095 121.105 74.2122Z" fill="white"/>
<path d="M141.275 81.1985L131.633 80.2049C131.129 80.153 130.764 79.7033 130.815 79.2L131.809 69.5578C131.86 69.0545 132.31 68.6888 132.813 68.7408L142.456 69.7343C142.959 69.7862 143.325 70.2359 143.273 70.7392L142.279 80.3814C142.228 80.8843 141.778 81.2504 141.275 81.1985Z" fill="#2C73EB"/>
<g opacity="0.4">
<path d="M141.275 81.1985L131.633 80.2049C131.129 80.153 130.764 79.7033 130.815 79.2L131.809 69.5578C131.86 69.0545 132.31 68.6888 132.813 68.7408L142.456 69.7343C142.959 69.7862 143.325 70.2359 143.273 70.7392L142.279 80.3814C142.228 80.8843 141.778 81.2504 141.275 81.1985Z" fill="black"/>
</g>
<path d="M139.544 81.0159L129.902 80.0228C129.399 79.9709 129.033 79.5208 129.085 79.0179L130.079 69.3757C130.13 68.8723 130.58 68.5067 131.083 68.5586L140.726 69.5521C141.229 69.6041 141.595 70.0537 141.543 70.5571L140.549 80.1993C140.497 80.7017 140.047 81.0678 139.544 81.0159Z" fill="#263238"/>
<path d="M132.725 74.1212L132.68 74.5588L137.799 75.0863L137.844 74.6487L132.725 74.1212Z" fill="white"/>
<path d="M136.322 72.4513C136.275 72.9097 135.865 73.2428 135.407 73.1957C134.949 73.1487 134.616 72.7386 134.663 72.2805C134.71 71.8221 135.12 71.489 135.578 71.5361C136.036 71.5831 136.37 71.9928 136.322 72.4513Z" fill="white"/>
<path d="M135.863 76.9155C135.816 77.374 135.406 77.707 134.948 77.66C134.49 77.6129 134.157 77.2028 134.204 76.7448C134.251 76.2863 134.661 75.9532 135.119 76.0003C135.577 76.0474 135.91 76.457 135.863 76.9155Z" fill="white"/>
<path d="M90.4114 92.9311L80.7693 91.938C80.2659 91.8861 79.9003 91.4359 79.9522 90.933L80.9457 81.2909C80.9976 80.7875 81.4473 80.4219 81.9507 80.4738L91.5928 81.4673C92.0962 81.5192 92.4618 81.9689 92.4099 82.4723L91.4168 92.1144C91.3645 92.6173 90.9148 92.983 90.4114 92.9311Z" fill="#2C73EB"/>
<g opacity="0.4">
<path d="M90.4114 92.9311L80.7693 91.938C80.2659 91.8861 79.9003 91.4359 79.9522 90.933L80.9457 81.2909C80.9976 80.7875 81.4473 80.4219 81.9507 80.4738L91.5928 81.4673C92.0962 81.5192 92.4618 81.9689 92.4099 82.4723L91.4168 92.1144C91.3645 92.6173 90.9148 92.983 90.4114 92.9311Z" fill="black"/>
</g>
<path d="M88.6419 92.7489L78.9997 91.7558C78.4964 91.7039 78.1307 91.2543 78.1826 90.7509L79.1757 81.1087C79.2276 80.6054 79.6773 80.2397 80.1807 80.2917L89.8228 81.2847C90.3262 81.3367 90.6918 81.7868 90.6399 82.2897L89.6469 91.9319C89.5949 92.4348 89.1448 92.8009 88.6419 92.7489Z" fill="#263238"/>
<path d="M86.4772 88.0801L85.6984 88.0001L85.595 89.0033L84.517 88.8924L84.6204 87.8892L82.0469 87.6239L82.1234 86.8798L84.6886 84.0814L85.8485 84.2011L83.4641 86.8591L84.7472 86.9911L84.8391 86.0971L85.8832 86.2049L85.7913 87.0989L86.5701 87.179L86.4772 88.0801Z" fill="white"/>
<path d="M106.398 94.578L96.7556 93.5845C96.2522 93.5326 95.8866 93.0829 95.9385 92.5795L96.932 82.9374C96.9839 82.434 97.4336 82.0683 97.937 82.1203L107.579 83.1133C108.083 83.1653 108.448 83.6154 108.396 84.1183L107.403 93.7605C107.351 94.2643 106.901 94.6299 106.398 94.578Z" fill="#2C73EB"/>
<g opacity="0.4">
<path d="M106.398 94.578L96.7556 93.5845C96.2522 93.5326 95.8866 93.0829 95.9385 92.5795L96.932 82.9374C96.9839 82.434 97.4336 82.0683 97.937 82.1203L107.579 83.1133C108.083 83.1653 108.448 83.6154 108.396 84.1183L107.403 93.7605C107.351 94.2643 106.901 94.6299 106.398 94.578Z" fill="black"/>
</g>
<path d="M104.629 94.3959L94.9864 93.4023C94.4831 93.3504 94.1174 92.9007 94.1689 92.3974L95.1624 82.7552C95.2143 82.2519 95.664 81.8862 96.1674 81.9381L105.81 82.9317C106.313 82.9836 106.679 83.4333 106.627 83.9366L105.633 93.5788C105.582 94.0817 105.132 94.4478 104.629 94.3959Z" fill="#263238"/>
<path d="M102.319 89.2082C102.232 90.0544 101.535 90.7276 100.17 90.5872C99.5074 90.519 98.8307 90.2629 98.4004 89.8876L98.9244 89.0864C99.2575 89.397 99.7397 89.6051 100.238 89.6562C100.791 89.7134 101.156 89.5162 101.196 89.1268C101.235 88.7515 101.014 88.4805 100.148 88.3912L98.9262 88.2653L99.4489 85.6016L102.363 85.9016L102.272 86.7891L100.279 86.5841L100.11 87.4834L100.5 87.5235C101.912 87.6696 102.406 88.3621 102.319 89.2082Z" fill="white"/>
<path d="M122.972 96.2856L113.33 95.2921C112.826 95.2402 112.461 94.7905 112.513 94.2871L113.506 84.645C113.558 84.1416 114.008 83.776 114.511 83.8279L124.153 84.8214C124.657 84.8733 125.022 85.323 124.97 85.8264L123.977 95.469C123.925 95.9715 123.475 96.3371 122.972 96.2856Z" fill="#2C73EB"/>
<g opacity="0.4">
<path d="M122.972 96.2856L113.33 95.2921C112.826 95.2402 112.461 94.7905 112.513 94.2871L113.506 84.645C113.558 84.1416 114.008 83.776 114.511 83.8279L124.153 84.8214C124.657 84.8733 125.022 85.323 124.97 85.8264L123.977 95.469C123.925 95.9715 123.475 96.3371 122.972 96.2856Z" fill="black"/>
</g>
<path d="M121.2 96.103L111.558 95.1095C111.055 95.0576 110.689 94.6075 110.741 94.1045L111.735 84.4624C111.787 83.959 112.236 83.5934 112.74 83.6453L122.382 84.6388C122.885 84.6907 123.251 85.1404 123.199 85.6438L122.205 95.2859C122.154 95.7889 121.704 96.1549 121.2 96.103Z" fill="#263238"/>
<path d="M119.228 90.9431C119.127 91.919 118.265 92.451 117.255 92.3472C115.938 92.2112 115.204 91.3013 115.363 89.7586C115.533 88.1069 116.624 87.288 118.065 87.4363C118.57 87.4882 119.049 87.655 119.362 87.9014L118.869 88.6714C118.621 88.4663 118.32 88.3731 117.999 88.3401C117.201 88.2578 116.64 88.6762 116.512 89.587C116.82 89.3358 117.238 89.2341 117.736 89.2852C118.657 89.3807 119.321 90.042 119.228 90.9431ZM118.151 90.8872C118.196 90.4503 117.903 90.1375 117.412 90.0869C116.927 90.0371 116.555 90.302 116.512 90.7187C116.47 91.1283 116.747 91.4601 117.279 91.5151C117.75 91.5635 118.106 91.3241 118.151 90.8872Z" fill="white"/>
<path d="M139.544 97.9928L129.902 96.9993C129.399 96.9473 129.033 96.4977 129.085 95.9943L130.079 86.3521C130.13 85.8488 130.58 85.4831 131.083 85.5351L140.726 86.5286C141.229 86.5805 141.595 87.0302 141.543 87.5335L140.549 97.1757C140.497 97.6786 140.047 98.0447 139.544 97.9928Z" fill="#2C73EB"/>
<g opacity="0.4">
<path d="M139.544 97.9928L129.902 96.9993C129.399 96.9473 129.033 96.4977 129.085 95.9943L130.079 86.3521C130.13 85.8488 130.58 85.4831 131.083 85.5351L140.726 86.5286C141.229 86.5805 141.595 87.0302 141.543 87.5335L140.549 97.1757C140.497 97.6786 140.047 98.0447 139.544 97.9928Z" fill="black"/>
</g>
<path d="M137.773 97.8102L128.131 96.8171C127.628 96.7652 127.262 96.3155 127.313 95.8122L128.307 86.17C128.359 85.6667 128.809 85.301 129.312 85.3529L138.954 86.3465C139.457 86.3984 139.823 86.8485 139.771 87.3514L138.778 96.9936C138.727 97.4965 138.276 97.8621 137.773 97.8102Z" fill="#263238"/>
<path d="M135.422 89.8156L131.381 93.0024L131.653 93.3479L135.694 90.1611L135.422 89.8156Z" fill="white"/>
<path d="M132.091 89.4497L131.75 89.7273L134.998 93.7201L135.339 93.4425L132.091 89.4497Z" fill="white"/>
<path d="M88.6946 109.589L79.0525 108.596C78.5491 108.544 78.1835 108.094 78.2354 107.591L79.2289 97.9485C79.2808 97.4451 79.7305 97.0795 80.2339 97.1309L89.876 98.1245C90.3794 98.1764 90.745 98.6261 90.6931 99.1294L89.7 108.772C89.6477 109.275 89.198 109.641 88.6946 109.589Z" fill="#2C73EB"/>
<g opacity="0.4">
<path d="M88.6946 109.589L79.0525 108.596C78.5491 108.544 78.1835 108.094 78.2354 107.591L79.2289 97.9485C79.2808 97.4451 79.7305 97.0795 80.2339 97.1309L89.876 98.1245C90.3794 98.1764 90.745 98.6261 90.6931 99.1294L89.7 108.772C89.6477 109.275 89.198 109.641 88.6946 109.589Z" fill="black"/>
</g>
<path d="M86.9251 109.407L77.2829 108.414C76.7796 108.362 76.4139 107.912 76.4658 107.409L77.4589 97.7667C77.5109 97.2633 77.961 96.8977 78.4639 96.9496L88.1061 97.9431C88.6094 97.9951 88.975 98.4452 88.9231 98.9481L87.9296 108.59C87.8781 109.093 87.428 109.459 86.9251 109.407Z" fill="#263238"/>
<path d="M84.514 100.898L84.44 101.614L82.2466 105.493L81.0454 105.369L83.1579 101.669L81.5748 101.505L81.4947 102.283L80.5117 102.182L80.6846 100.503L84.514 100.898Z" fill="white"/>
<path d="M104.681 111.236L95.0388 110.242C94.5354 110.191 94.1698 109.741 94.2217 109.237L95.2152 99.5953C95.2671 99.0919 95.7168 98.7263 96.2202 98.7782L105.862 99.7713C106.366 99.8232 106.731 100.273 106.679 100.776L105.686 110.418C105.634 110.922 105.184 111.288 104.681 111.236Z" fill="#2C73EB"/>
<g opacity="0.4">
<path d="M104.681 111.236L95.0388 110.242C94.5354 110.191 94.1698 109.741 94.2217 109.237L95.2152 99.5953C95.2671 99.0919 95.7168 98.7263 96.2202 98.7782L105.862 99.7713C106.366 99.8232 106.731 100.273 106.679 100.776L105.686 110.418C105.634 110.922 105.184 111.288 104.681 111.236Z" fill="black"/>
</g>
<path d="M102.912 111.054L93.2696 110.06C92.7663 110.008 92.4006 109.559 92.4521 109.055L93.4456 99.4132C93.4975 98.9098 93.9472 98.5442 94.4506 98.5961L104.093 99.5892C104.596 99.6411 104.962 100.091 104.91 100.594L103.916 110.236C103.865 110.74 103.415 111.105 102.912 111.054Z" fill="#263238"/>
<path d="M100.98 106.022C100.887 106.923 100.023 107.406 98.8086 107.281C97.6004 107.157 96.8603 106.508 96.9531 105.607C97.0059 105.095 97.3113 104.74 97.7927 104.555C97.46 104.3 97.2963 103.945 97.3408 103.515C97.427 102.676 98.2327 102.227 99.3177 102.339C100.417 102.452 101.113 103.055 101.027 103.895C100.982 104.325 100.743 104.638 100.366 104.82C100.806 105.101 101.032 105.51 100.98 106.022ZM99.8642 105.873C99.9077 105.45 99.5865 105.154 99.0335 105.097C98.4874 105.041 98.1196 105.265 98.076 105.688C98.0325 106.111 98.3462 106.413 98.8922 106.469C99.4449 106.526 99.8206 106.296 99.8642 105.873ZM98.4346 103.677C98.3972 104.038 98.6612 104.293 99.1113 104.34C99.5689 104.387 99.8853 104.192 99.9223 103.83C99.961 103.455 99.6842 103.198 99.2337 103.152C98.7906 103.106 98.4733 103.301 98.4346 103.677Z" fill="white"/>
<path d="M121.256 112.943L111.613 111.95C111.11 111.898 110.744 111.448 110.796 110.945L111.789 101.302C111.841 100.799 112.291 100.433 112.794 100.485L122.436 101.479C122.94 101.531 123.305 101.98 123.254 102.484L122.26 112.126C122.209 112.629 121.758 112.995 121.256 112.943Z" fill="#2C73EB"/>
<g opacity="0.4">
<path d="M121.256 112.943L111.613 111.95C111.11 111.898 110.744 111.448 110.796 110.945L111.789 101.302C111.841 100.799 112.291 100.433 112.794 100.485L122.436 101.479C122.94 101.531 123.305 101.98 123.254 102.484L122.26 112.126C122.209 112.629 121.758 112.995 121.256 112.943Z" fill="black"/>
</g>
<path d="M119.486 112.761L109.843 111.767C109.34 111.716 108.974 111.265 109.026 110.762L110.02 101.12C110.072 100.617 110.522 100.251 111.025 100.303L120.667 101.297C121.17 101.349 121.536 101.798 121.484 102.302L120.491 111.944C120.439 112.447 119.989 112.813 119.486 112.761Z" fill="#263238"/>
<path d="M117.484 106.605C117.314 108.256 116.23 109.076 114.783 108.926C114.278 108.874 113.805 108.708 113.492 108.463L113.985 107.693C114.226 107.896 114.527 107.99 114.855 108.024C115.646 108.105 116.214 107.687 116.343 106.769C116.035 107.02 115.609 107.128 115.111 107.077C114.189 106.982 113.526 106.32 113.619 105.419C113.719 104.443 114.582 103.911 115.591 104.015C116.916 104.152 117.644 105.062 117.484 106.605ZM116.335 105.644C116.377 105.235 116.101 104.903 115.575 104.849C115.104 104.801 114.748 105.039 114.704 105.476C114.658 105.913 114.951 106.227 115.442 106.277C115.927 106.327 116.292 106.061 116.335 105.644Z" fill="white"/>
<path d="M137.83 114.65L128.188 113.657C127.684 113.605 127.319 113.155 127.37 112.652L128.364 103.01C128.416 102.507 128.865 102.141 129.369 102.193L139.011 103.187C139.514 103.238 139.88 103.688 139.828 104.191L138.834 113.834C138.783 114.337 138.333 114.702 137.83 114.65Z" fill="#2C73EB"/>
<g opacity="0.4">
<path d="M137.83 114.65L128.188 113.657C127.684 113.605 127.319 113.155 127.37 112.652L128.364 103.01C128.416 102.507 128.865 102.141 129.369 102.193L139.011 103.187C139.514 103.238 139.88 103.688 139.828 104.191L138.834 113.834C138.783 114.337 138.333 114.702 137.83 114.65Z" fill="black"/>
</g>
<path d="M136.058 114.468L126.416 113.475C125.913 113.423 125.547 112.973 125.599 112.47L126.592 102.827C126.644 102.324 127.094 101.958 127.597 102.01L137.239 103.004C137.743 103.056 138.108 103.506 138.056 104.009L137.063 113.651C137.011 114.154 136.562 114.52 136.058 114.468Z" fill="#263238"/>
<path d="M129.285 107.763L129.24 108.2L134.359 108.727L134.404 108.29L129.285 107.763Z" fill="white"/>
<path d="M119.523 129.747L109.881 128.753C109.377 128.701 109.012 128.252 109.064 127.748L110.057 118.106C110.109 117.603 110.559 117.237 111.062 117.289L120.704 118.283C121.208 118.335 121.573 118.785 121.521 119.288L120.528 128.93C120.476 129.433 120.026 129.798 119.523 129.747Z" fill="#2C73EB"/>
<g opacity="0.4">
<path d="M119.523 129.747L109.881 128.753C109.377 128.701 109.012 128.252 109.064 127.748L110.057 118.106C110.109 117.603 110.559 117.237 111.062 117.289L120.704 118.283C121.208 118.335 121.573 118.785 121.521 119.288L120.528 128.93C120.476 129.433 120.026 129.798 119.523 129.747Z" fill="black"/>
</g>
<path d="M117.753 129.564L108.111 128.571C107.608 128.519 107.242 128.069 107.294 127.566L108.287 117.924C108.339 117.42 108.789 117.055 109.292 117.106L118.935 118.1C119.438 118.151 119.804 118.601 119.752 119.105L118.759 128.747C118.706 129.25 118.257 129.616 117.753 129.564Z" fill="#263238"/>
<path d="M136.099 131.454L126.457 130.46C125.953 130.409 125.588 129.959 125.64 129.455L126.633 119.813C126.685 119.31 127.135 118.944 127.638 118.996L137.28 119.99C137.784 120.042 138.149 120.491 138.097 120.995L137.104 130.637C137.052 131.14 136.602 131.506 136.099 131.454Z" fill="#2C73EB"/>
<g opacity="0.4">
<path d="M136.099 131.454L126.457 130.46C125.953 130.409 125.588 129.959 125.64 129.455L126.633 119.813C126.685 119.31 127.135 118.944 127.638 118.996L137.28 119.99C137.784 120.042 138.149 120.491 138.097 120.995L137.104 130.637C137.052 131.14 136.602 131.506 136.099 131.454Z" fill="black"/>
</g>
<path d="M134.327 131.271L124.685 130.278C124.182 130.226 123.816 129.776 123.868 129.273L124.862 119.631C124.914 119.128 125.363 118.762 125.867 118.814L135.509 119.808C136.012 119.86 136.378 120.309 136.326 120.813L135.332 130.455C135.28 130.958 134.831 131.323 134.327 131.271Z" fill="#455A64"/>
<path d="M127.623 123.939L127.578 124.377L132.697 124.904L132.742 124.466L127.623 123.939Z" fill="white"/>
<path d="M127.422 125.888L127.377 126.325L132.496 126.852L132.541 126.415L127.422 125.888Z" fill="white"/>
<path d="M100.603 127.945L75.1183 125.319C74.5138 125.257 74.0747 124.716 74.1367 124.112L75.1223 114.545C75.1843 113.941 75.7251 113.502 76.3292 113.564L101.814 116.189C102.418 116.252 102.858 116.792 102.795 117.396L101.81 126.963C101.748 127.567 101.207 128.007 100.603 127.945Z" fill="#263238"/>
<path d="M87.4373 120.418C87.5997 118.841 88.5659 118.037 89.7394 118.158C90.9208 118.279 91.6952 119.263 91.5328 120.84C91.3705 122.416 90.4117 123.222 89.2307 123.1C88.0573 122.979 87.2749 121.994 87.4373 120.418ZM90.4205 120.725C90.5323 119.64 90.1965 119.15 89.6435 119.093C89.0979 119.037 88.6693 119.448 88.5575 120.533C88.4458 121.618 88.7815 122.108 89.3271 122.164C89.8797 122.222 90.3087 121.81 90.4205 120.725Z" fill="white"/>
<path d="M113.603 120.754L113 125.865L113.437 125.917L114.04 120.805L113.603 120.754Z" fill="white"/>
<path d="M110.977 122.854L110.932 123.291L116.051 123.818L116.096 123.381L110.977 122.854Z" fill="white"/>
<path d="M108.591 42.3438L107.855 49.4872L107.518 49.4525L108.222 42.6254L106.426 42.4406L106.458 42.1243L108.591 42.3438Z" fill="#263238"/>
<path d="M114.459 49.8476L114.427 50.164L109.59 49.6659L109.615 49.4208L112.995 46.6545C113.963 45.8674 114.2 45.3658 114.26 44.7841C114.358 43.835 113.757 43.1539 112.512 43.0259C111.563 42.9277 110.841 43.1323 110.281 43.6621L110.069 43.4139C110.663 42.856 111.504 42.6021 112.555 42.7104C113.923 42.8512 114.717 43.6449 114.598 44.7977C114.529 45.4714 114.254 46.0412 113.219 46.8833L110.143 49.4028L114.459 49.8476Z" fill="#263238"/>
<path d="M120.121 48.7498C119.999 49.9338 119.076 50.684 117.505 50.5226C116.433 50.4121 115.526 49.9061 115.127 49.2769L115.336 49.0508C115.701 49.6144 116.506 50.0997 117.527 50.2049C118.894 50.3457 119.678 49.7455 119.784 48.7151C119.891 47.674 119.266 46.9392 117.756 46.7839L117.358 46.743L117.383 46.4979L119.907 43.8289L115.967 43.4232L116 43.1068L120.388 43.5587L120.363 43.8038L117.829 46.4821C119.501 46.6545 120.244 47.5556 120.121 48.7498Z" fill="#263238"/>
<path d="M127.149 49.3912L125.598 49.2315L125.386 51.2929L125.049 51.2582L125.261 49.1968L121.158 48.7744L121.184 48.5293L125.632 44.0994L126.029 44.1403L121.639 48.5143L125.292 48.8905L125.479 47.0742L125.816 47.109L125.629 48.9257L127.18 49.0854L127.149 49.3912Z" fill="#263238"/>
<path d="M128.642 51.319C128.628 51.4514 128.589 51.5298 128.542 51.6899L128.033 53.0196L127.768 52.9923L128.23 51.6164C128.059 51.568 127.95 51.4228 127.968 51.2495C127.987 51.0656 128.145 50.9274 128.339 50.9472C128.544 50.9688 128.659 51.1558 128.642 51.319Z" fill="#263238"/>
<path d="M135.721 50.2744L134.17 50.1147L133.958 52.1761L133.621 52.1413L133.833 50.0799L129.73 49.6571L129.756 49.412L134.203 44.9821L134.601 45.023L130.211 49.397L133.864 49.7732L134.051 47.9569L134.388 47.9917L134.201 49.808L135.752 49.9677L135.721 50.2744Z" fill="#263238"/>
<path d="M141.023 50.8618C140.903 52.0252 140.004 52.8401 138.381 52.6729C137.33 52.5646 136.413 52.0573 136.014 51.4285L136.233 51.2037C136.588 51.7665 137.404 52.2527 138.414 52.3569C139.812 52.5008 140.571 51.8364 140.676 50.8262C140.789 49.724 140.203 49.0033 138.162 48.7934L136.774 48.6504L137.499 45.3218L141.183 45.7015L141.15 46.0179L137.752 45.6676L137.164 48.371L138.266 48.4845C140.45 48.7093 141.153 49.5964 141.023 50.8618Z" fill="#263238"/>
<path d="M62.9733 197.195L60.1758 207.538L69.2679 208.368L71.1789 198.521L62.9733 197.195Z" fill="#2C73EB"/>
<path d="M69.5318 207.526C69.5288 207.559 69.0197 207.547 68.2004 207.481C67.3811 207.415 66.2525 207.29 65.0104 207.13C63.8136 206.969 62.7307 206.824 61.8327 206.703C61.0205 206.59 60.518 206.512 60.5215 206.476C60.5246 206.442 61.0337 206.457 61.8525 206.525C62.6718 206.593 63.7999 206.719 65.0425 206.878C66.2393 207.038 67.3217 207.182 68.2197 207.302C69.0324 207.415 69.5354 207.489 69.5318 207.526Z" fill="#263238"/>
<g opacity="0.6">
<path d="M60.1758 207.538L69.2679 208.368L69.4149 207.61L60.4389 206.469L60.1855 207.436" fill="white"/>
</g>
<path d="M64.6931 207.078C64.6359 207.064 65.0227 205.289 65.5577 203.115C66.0923 200.94 66.5724 199.188 66.6296 199.202C66.6868 199.217 66.3 200.991 65.7649 203.166C65.2303 205.34 64.7503 207.092 64.6931 207.078Z" fill="#263238"/>
<path d="M69.0298 207.458C68.9744 207.456 69.3198 206.716 69.0505 205.535C68.9119 204.96 68.6096 204.29 68.0557 203.735C67.5096 203.177 66.6917 202.788 65.7928 202.696C64.8925 202.609 64.0156 202.827 63.3578 203.25C62.6916 203.667 62.2336 204.237 61.9419 204.754C61.3633 205.814 61.4196 206.612 61.3681 206.599C61.3606 206.599 61.3562 206.551 61.3549 206.461C61.3501 206.371 61.358 206.238 61.376 206.067C61.4143 205.727 61.5287 205.235 61.809 204.682C62.0937 204.138 62.5574 203.532 63.2522 203.083C63.9404 202.628 64.8666 202.392 65.8139 202.484C66.7599 202.58 67.6245 202.998 68.1956 203.597C68.7733 204.192 69.073 204.901 69.1979 205.503C69.3176 206.112 69.2758 206.621 69.201 206.955C69.1618 207.123 69.1249 207.251 69.0892 207.334C69.0567 207.418 69.0364 207.461 69.0298 207.458Z" fill="#263238"/>
<path d="M100.48 196.017L99.9403 204.163C99.9403 204.163 108.048 206.853 108.094 208.368L92.2539 208.483L92.5738 195.756L100.48 196.017Z" fill="#2C73EB"/>
<g opacity="0.6">
<path d="M95.0657 203.328C94.7568 203.403 94.5346 203.741 94.5962 204.053C94.6578 204.364 94.9997 204.593 95.3099 204.524C95.6201 204.455 95.8991 204.058 95.8027 203.755C95.7068 203.452 95.2906 203.205 95.0059 203.346" fill="white"/>
</g>
<g opacity="0.6">
<path d="M92.2539 208.483L92.3362 207.201L107.586 207.622C107.586 207.622 108.094 207.842 108.175 208.483H92.2539Z" fill="white"/>
</g>
<path d="M100.2 204.09C100.195 204.168 99.8072 204.191 99.4191 204.428C99.0249 204.655 98.8185 204.983 98.7485 204.951C98.6777 204.934 98.8071 204.475 99.2818 204.196C99.7539 203.913 100.219 204.02 100.2 204.09Z" fill="#263238"/>
<path d="M101.839 204.827C101.854 204.902 101.515 205.024 101.243 205.343C100.961 205.654 100.884 206.005 100.807 206C100.734 206.01 100.694 205.555 101.041 205.165C101.384 204.772 101.84 204.753 101.839 204.827Z" fill="#263238"/>
<path d="M102.721 206.843C102.65 206.857 102.554 206.467 102.766 206.05C102.974 205.631 103.344 205.475 103.374 205.541C103.416 205.605 103.175 205.826 103.006 206.171C102.83 206.512 102.798 206.837 102.721 206.843Z" fill="#263238"/>
<path d="M100.117 202.22C100.083 202.29 99.7313 202.172 99.2935 202.188C98.8552 202.196 98.5107 202.332 98.4724 202.265C98.4293 202.208 98.7699 201.931 99.286 201.92C99.8017 201.903 100.157 202.16 100.117 202.22Z" fill="#263238"/>
<g opacity="0.3">
<path d="M100.371 197.63L100.277 199.082L92.498 198.776L92.5275 197.466L100.371 197.63Z" fill="black"/>
</g>
<path d="M100.194 200.574C100.194 200.607 99.887 200.645 99.4013 200.546C99.1597 200.497 98.8759 200.409 98.5793 200.266C98.4315 200.195 98.2806 200.111 98.1314 200.011C98.0597 199.962 97.9748 199.912 97.8978 199.818C97.8146 199.734 97.7719 199.528 97.8749 199.405C97.9598 199.286 98.1046 199.238 98.219 199.239C98.336 199.239 98.4297 199.265 98.5151 199.289C98.6902 199.337 98.8535 199.401 99.0031 199.473C99.3014 199.62 99.5421 199.801 99.7198 199.975C100.077 200.326 100.194 200.619 100.166 200.633C100.131 200.658 99.9592 200.41 99.594 200.118C99.4118 199.972 99.1782 199.821 98.8988 199.698C98.7589 199.637 98.6079 199.584 98.4478 199.544C98.2815 199.495 98.1389 199.489 98.0936 199.562C98.0773 199.591 98.0747 199.602 98.1081 199.652C98.1429 199.698 98.2097 199.745 98.2801 199.793C98.4174 199.889 98.556 199.972 98.692 200.046C98.9639 200.191 99.2253 200.292 99.4497 200.362C99.8989 200.502 100.197 200.533 100.194 200.574Z" fill="#263238"/>
<path d="M100.091 200.682C100.063 200.693 99.9181 200.412 99.9049 199.91C99.8992 199.662 99.9339 199.361 100.039 199.046C100.092 198.888 100.164 198.727 100.256 198.57C100.353 198.417 100.472 198.211 100.773 198.185C100.93 198.184 101.057 198.31 101.098 198.416C101.147 198.525 101.154 198.617 101.17 198.709C101.194 198.895 101.185 199.076 101.154 199.244C101.095 199.579 100.948 199.855 100.791 200.052C100.469 200.453 100.144 200.536 100.138 200.509C100.113 200.47 100.388 200.329 100.636 199.942C100.759 199.751 100.87 199.498 100.909 199.204C100.929 199.058 100.932 198.903 100.909 198.746C100.889 198.577 100.83 198.439 100.766 198.455C100.688 198.451 100.55 198.574 100.481 198.706C100.396 198.845 100.327 198.988 100.272 199.13C100.164 199.412 100.113 199.685 100.094 199.916C100.06 200.38 100.134 200.672 100.091 200.682Z" fill="#263238"/>
<path d="M66.1333 69.1425C66.1333 69.1425 64.4169 78.5154 63.037 84.187C61.9656 88.591 59.191 96.8467 64.2114 99.2451C69.2318 101.644 75.9836 91.9662 75.9836 91.9662L78.8484 69.9077C76.8526 70.2813 74.5936 72.5939 72.1868 75.9955L72.6238 67.6281L66.1333 69.1425Z" fill="#455A64"/>
<path d="M135.224 82.9875L132.582 84.2467L130.152 80.4337L131.573 77.4897C131.708 77.2164 131.853 76.9097 132.004 76.5582C132.18 76.1477 132.285 75.7085 132.317 75.2633C132.357 74.7234 132.381 74.004 132.274 73.6067C132.143 73.1152 132.663 72.713 133.017 72.9995C133.37 73.2863 133.764 74.6305 133.502 76.2524C133.24 77.8742 135.128 76.1534 135.827 75.5391C136.527 74.9245 138.776 73.1271 139.13 73.197C139.648 73.2995 139.633 73.8883 138.921 74.4853C138.2 75.0899 136.196 77.0263 136.528 77.3876C136.528 77.3876 136.534 77.388 136.544 77.3893C137.388 77.4773 138.081 78.1026 138.267 78.9302C138.447 79.7293 138.592 80.8319 138.143 81.1958C137.297 81.8817 135.224 82.9875 135.224 82.9875Z" fill="#FFBE9D"/>
<path d="M84.0333 47.4254L83.9629 70.3547L93.8 70.8237L94.0842 65.2467C94.0842 65.2467 97.5783 65.9406 98.4798 62.6956C99.0558 60.6228 98.9119 44.6033 98.9119 44.6033L84.0333 47.4254Z" fill="#FFBE9D"/>
<path d="M101.133 46.8648C100.471 48.235 97.3156 50.7421 97.3156 50.7421L95.8904 54.5618C94.6523 53.5924 92.9899 53.6479 92.6753 55.8237C92.4479 57.3958 94.4028 57.7139 94.4028 57.7139C93.2649 59.6504 92.4932 61.2168 90.8361 63.0586C89.0427 65.0522 88.0386 65.2529 86.0934 65.2854H83.9488C83.9488 65.2854 79.5607 61.6185 80.4279 51.9605C81.2952 42.3025 89.9777 45.1202 92.0501 42.7073C95.4253 38.7776 103.345 42.291 101.133 46.8648Z" fill="#263238"/>
<path d="M80.916 60.0359C80.916 60.0359 81.0111 60.0328 81.1906 60.0359C81.3697 60.0271 81.6359 60.02 81.9694 59.9465C82.6338 59.8145 83.5763 59.4251 84.4893 58.612C85.4115 57.8077 86.2246 56.5827 87.0439 55.1937C87.4601 54.5011 87.8962 53.7698 88.4233 53.061C88.9509 52.3561 89.5726 51.6649 90.354 51.1373C91.1333 50.6049 92.0106 50.2916 92.862 50.0685C93.7169 49.8463 94.5565 49.7095 95.3489 49.5555C96.9311 49.2638 98.3523 48.8225 99.3212 48.0705C100.292 47.3273 100.777 46.4038 100.929 45.7473C101.016 45.4169 101.016 45.1498 101.024 44.9711C101.014 44.7921 101.014 44.697 101.014 44.697C101.014 44.697 101.027 44.7907 101.042 44.9707C101.04 45.1502 101.046 45.4204 100.964 45.7557C100.821 46.4218 100.339 47.363 99.3608 48.122C98.384 48.8907 96.9496 49.3417 95.3652 49.6382C94.5714 49.7949 93.7337 49.9335 92.8845 50.1552C92.0388 50.3783 91.172 50.6885 90.4055 51.213C89.6364 51.7326 89.0199 52.4155 88.4955 53.1147C87.971 53.8178 87.5345 54.546 87.1165 55.2372C86.2928 56.6241 85.4696 57.8543 84.5324 58.6604C83.6057 59.4744 82.6492 59.8585 81.9769 59.9809C81.6398 60.0495 81.371 60.0508 81.1915 60.0539C81.0102 60.0451 80.916 60.0359 80.916 60.0359Z" fill="#455A64"/>
<path d="M80.4082 52.1804C80.4082 52.1804 80.5635 52.1202 80.8636 52.0198C81.1641 51.9239 81.6107 51.7699 82.2113 51.6995C82.7992 51.6326 83.5982 51.659 84.3216 52.1554C84.6727 52.3991 84.9904 52.7881 85.0744 53.28C85.1598 53.7565 85.0533 54.336 84.641 54.717C84.4377 54.9054 84.1574 55.0123 83.8701 55.0268C83.5797 55.0404 83.2893 54.9458 83.0297 54.8015C82.5132 54.5036 82.0974 53.9893 81.9051 53.3777C81.6992 52.7727 81.664 52.0867 81.8197 51.4236C81.9724 50.7606 82.3389 50.1226 82.8797 49.6469C83.4143 49.1673 84.1126 48.836 84.8641 48.759C85.6182 48.6785 86.3821 48.8439 87.1252 49.0516C87.871 49.2606 88.6208 49.5013 89.4115 49.5998C90.1995 49.7054 91.0126 49.7098 91.8222 49.6056C92.6292 49.4942 93.4252 49.3033 94.1415 48.964C94.8481 48.6301 95.491 48.0774 95.696 47.3352C95.9006 46.6074 95.707 45.7789 95.1799 45.2724C94.6541 44.7568 93.8176 44.6881 93.1928 44.9785C92.8782 45.1215 92.6076 45.3622 92.4594 45.6654C92.3014 45.965 92.2618 46.3113 92.3018 46.6373C92.3881 47.2942 92.7806 47.8786 93.3028 48.2125C93.8286 48.554 94.4429 48.6829 95.0224 48.6961C95.6058 48.7115 96.1633 48.6054 96.6728 48.4484C97.6976 48.1329 98.5151 47.5591 99.1144 46.9612C99.7224 46.3636 100.116 45.7309 100.376 45.1924C100.644 44.6534 100.753 44.1962 100.838 43.893C100.898 43.5828 100.934 43.42 100.934 43.42C100.934 43.42 100.91 43.5846 100.856 43.897C100.776 44.2028 100.672 44.6635 100.408 45.2078C100.152 45.7516 99.7603 46.3914 99.1504 46.9972C98.5498 47.6036 97.7275 48.187 96.6922 48.5104C96.1774 48.6714 95.6133 48.7806 95.0206 48.7669C94.4323 48.7555 93.8036 48.6266 93.2615 48.2763C92.7203 47.9314 92.3133 47.3303 92.2218 46.6474C92.1795 46.3082 92.22 45.9443 92.3859 45.6275C92.5421 45.3068 92.8285 45.052 93.1576 44.9015C93.8106 44.5975 94.6831 44.6661 95.2406 45.2091C95.7946 45.7415 95.9948 46.6004 95.7827 47.3594C95.568 48.1377 94.9005 48.7058 94.1815 49.0463C93.4511 49.3917 92.6499 49.584 91.8341 49.6966C91.0166 49.8022 90.1951 49.7974 89.3992 49.6905C88.6001 49.5906 87.8429 49.3468 87.101 49.1387C86.361 48.931 85.6086 48.7687 84.8729 48.8466C84.1412 48.9205 83.4583 49.243 82.9356 49.7107C81.8558 50.6448 81.5724 52.1791 81.9768 53.3544C82.1625 53.9514 82.5655 54.4504 83.0645 54.7408C83.3144 54.8807 83.5925 54.9714 83.8675 54.9595C84.1394 54.9463 84.4052 54.8464 84.5974 54.6691C84.9895 54.3109 85.0982 53.7517 85.0172 53.2906C84.9384 52.8167 84.6344 52.4387 84.2921 52.1976C83.5872 51.7079 82.7996 51.674 82.2153 51.7352C81.6186 51.7994 81.1716 51.9472 80.8693 52.0374C80.5675 52.1316 80.4082 52.1804 80.4082 52.1804Z" fill="#455A64"/>
<path d="M73.9238 114.599L60.8281 200.607L71.7045 201.988L87.0508 129.846L90.9149 202.473L102.703 202.267L100.749 114.8L73.9238 114.599Z" fill="#263238"/>
<path d="M90.7056 202.697L90.6942 202.484L86.9185 131.52L71.8767 202.231L60.5762 200.797L73.7339 114.377L100.963 114.582L102.927 202.483L90.7056 202.697ZM87.1816 128.172L91.1227 202.249L102.477 202.051L100.533 115.019L74.1123 114.82L61.0795 200.417L71.5309 201.744L87.1816 128.172Z" fill="#263238"/>
<path d="M99.2003 202.129C99.137 202.129 99.0859 184.896 99.0859 163.643C99.0859 142.383 99.1374 125.153 99.2003 125.153C99.2637 125.153 99.3147 142.382 99.3147 163.643C99.3147 184.896 99.2633 202.129 99.2003 202.129Z" fill="#455A64"/>
<path d="M69.3114 201.816C69.3075 201.815 69.3167 201.751 69.3378 201.629C69.362 201.495 69.395 201.315 69.4373 201.084C69.5319 200.594 69.6678 199.892 69.8416 198.993C70.2082 197.169 70.7344 194.549 71.3838 191.316C72.7043 184.837 74.5752 175.897 76.7224 166.04C78.8713 156.179 80.89 147.27 82.3847 140.829C83.1393 137.619 83.7505 135.018 84.1764 133.207C84.3924 132.318 84.561 131.622 84.6784 131.138C84.7361 130.911 84.7814 130.732 84.8144 130.601C84.8465 130.481 84.8646 130.419 84.8685 130.42C84.8725 130.421 84.8619 130.484 84.8373 130.606C84.8096 130.739 84.7717 130.918 84.7233 131.149C84.6155 131.635 84.4611 132.333 84.2631 133.227C83.8543 135.042 83.2669 137.649 82.5427 140.866C81.0889 147.315 79.0953 156.229 76.9463 166.089C74.7991 175.945 72.9036 184.879 71.5427 191.349C70.8633 194.576 70.3129 197.191 69.9292 199.012C69.7374 199.906 69.5873 200.606 69.483 201.093C69.4316 201.322 69.3911 201.501 69.3612 201.633C69.3321 201.754 69.3154 201.817 69.3114 201.816Z" fill="#455A64"/>
<path d="M90.9138 129.77C90.9147 129.786 90.7373 129.808 90.4166 129.836C90.0465 129.862 89.5925 129.894 89.0574 129.932C87.9099 130.009 86.3233 130.087 84.5804 130.258C82.8376 130.432 81.2659 130.665 80.1254 130.815C79.593 130.882 79.1416 130.94 78.7737 130.987C78.4539 131.023 78.2757 131.035 78.2735 131.019C78.2708 131.003 78.4446 130.961 78.7601 130.898C79.0756 130.835 79.5341 130.752 80.1012 130.654C81.2355 130.464 82.8063 130.205 84.558 130.03C86.3092 129.859 87.9002 129.806 89.0499 129.771C89.625 129.755 90.0905 129.747 90.4126 129.747C90.7347 129.747 90.9133 129.754 90.9138 129.77Z" fill="#455A64"/>
<path d="M100.977 124.185C100.979 124.199 100.86 124.234 100.639 124.27C100.417 124.306 100.092 124.332 99.6895 124.312C98.8905 124.28 97.7588 124.01 96.7473 123.284C95.7357 122.556 95.1193 121.569 94.8337 120.822C94.6872 120.447 94.608 120.13 94.5715 119.909C94.5345 119.688 94.5305 119.564 94.5446 119.562C94.5851 119.553 94.6603 120.044 94.9833 120.759C95.2988 121.47 95.9126 122.401 96.8815 123.097C97.8503 123.793 98.9279 124.078 99.7023 124.151C100.483 124.229 100.972 124.144 100.977 124.185Z" fill="#455A64"/>
<path d="M71.6855 116.286L101.814 116.189L100.166 96.3059C99.9833 91.7563 100.011 91.2133 99.8983 87.0131C99.8983 87.0131 104.176 92.1844 107.539 95.8109C109.571 98.0025 112.793 98.6146 115.495 97.3368L133.099 85.0564L129.802 76.6243L113.805 86.416C113.073 85.9606 106.844 77.077 102.54 72.7391C99.7857 69.9627 96.0717 68.3646 92.1627 68.2506C89.2041 68.1644 85.6331 68.3012 82.4449 68.6405C77.5969 69.1561 73.8037 73.0497 73.3967 77.9082C73.0852 81.6262 73.3355 85.9421 73.3355 93.2778L71.6855 116.286Z" fill="#455A64"/>
<path d="M73.101 79.9186C73.101 79.9186 73.1058 79.9987 73.1058 80.1509C73.1049 80.3291 73.1032 80.5491 73.1019 80.8166C73.0935 81.3948 73.0939 82.2312 73.1001 83.2643C73.1115 85.3315 73.1951 88.1857 73.284 91.3392C73.3733 94.4936 73.3901 97.3523 73.3109 99.4194C73.2748 100.453 73.229 101.288 73.1806 101.865C73.1586 102.132 73.141 102.351 73.1261 102.528C73.1124 102.68 73.101 102.759 73.101 102.759C73.101 102.759 73.1001 102.679 73.1076 102.527C73.1177 102.349 73.13 102.13 73.145 101.863C73.1824 101.286 73.2185 100.45 73.2462 99.4176C73.3087 97.3518 73.2818 94.4958 73.1925 91.3419C73.1036 88.1893 73.0301 85.3332 73.0354 83.2648C73.0376 82.2308 73.0469 81.3939 73.0662 80.8162C73.0746 80.5487 73.0816 80.3287 73.0873 80.1505C73.0931 79.9982 73.101 79.9186 73.101 79.9186Z" fill="#263238"/>
<path d="M113.146 89.2619C113.133 89.2597 113.158 89.1017 113.209 88.8474C113.26 88.5935 113.336 88.2437 113.426 87.8587C113.516 87.4733 113.602 87.1261 113.669 86.8758C113.736 86.6259 113.784 86.4727 113.796 86.4763C113.808 86.4798 113.783 86.6386 113.732 86.8925C113.682 87.1464 113.605 87.4953 113.516 87.8794C113.426 88.2635 113.34 88.6098 113.273 88.8602C113.206 89.1105 113.158 89.2645 113.146 89.2619Z" fill="#263238"/>
<path d="M114.75 89.5088C114.725 89.5145 114.542 88.8048 114.341 87.9244C114.14 87.0435 113.998 86.325 114.022 86.3192C114.047 86.3135 114.23 87.0228 114.431 87.9037C114.632 88.7846 114.775 89.5031 114.75 89.5088Z" fill="#263238"/>
<path d="M100.642 87.7589C100.642 87.7589 100.583 87.7092 100.477 87.608C100.353 87.4874 100.201 87.34 100.017 87.1614C99.62 86.7711 99.0467 86.2053 98.3634 85.4806C97.6836 84.7541 96.8902 83.8684 96.1163 82.8001C95.3454 81.7335 94.5943 80.4751 94.0725 79.0416C93.5436 77.6121 93.3179 76.1464 93.3989 74.8264C93.4591 73.5104 93.7095 72.3224 94.1565 71.4239C94.5948 70.5193 95.1936 69.9354 95.6367 69.6036C95.8624 69.4391 96.0424 69.3189 96.1726 69.2507C96.2998 69.1773 96.3684 69.1429 96.3684 69.1429C96.3776 69.1575 96.0965 69.2908 95.6582 69.6318C95.2248 69.9706 94.6401 70.5545 94.2146 71.4521C93.7799 72.3439 93.5383 73.5209 93.4829 74.8304C93.4076 76.1398 93.6334 77.5901 94.1583 79.0099C94.6762 80.4338 95.4202 81.6856 96.1845 82.7504C96.9514 83.8169 97.7377 84.7049 98.4105 85.4361C99.0863 86.1652 99.6526 86.7381 100.042 87.1359C100.221 87.3193 100.368 87.4707 100.489 87.5943C100.592 87.6999 100.642 87.7589 100.642 87.7589Z" fill="#263238"/>
<path d="M81.0565 79.5775C81.0067 79.6167 80.5438 79.1155 80.0224 78.4582C79.501 77.8004 79.1187 77.2354 79.1684 77.1962C79.2181 77.1571 79.6806 77.6582 80.2024 78.316C80.7238 78.9734 81.1062 79.5384 81.0565 79.5775Z" fill="#FAFAFA"/>
<path d="M87.9036 87.3488C87.9485 87.3937 87.3092 88.1038 86.4763 88.9345C85.6434 89.7657 84.9319 90.4033 84.887 90.3584C84.8421 90.3135 85.4814 89.6038 86.3144 88.7722C87.1473 87.9415 87.8588 87.3039 87.9036 87.3488Z" fill="#FAFAFA"/>
<path d="M94.5302 98.501C94.4656 98.5208 94.224 97.8406 93.777 97.0829C93.3352 96.3212 92.8609 95.7778 92.9097 95.7312C92.9493 95.6876 93.5156 96.1774 93.9745 96.9672C94.4383 97.7543 94.5879 98.4878 94.5302 98.501Z" fill="#FAFAFA"/>
<path d="M77.3518 97.2378C77.2986 97.2611 76.8652 96.3041 76.6456 95.0356C76.4199 93.7675 76.5013 92.7203 76.5594 92.7243C76.6276 92.7247 76.6496 93.7539 76.8714 94.996C77.0856 96.239 77.4156 97.2145 77.3518 97.2378Z" fill="#FAFAFA"/>
<path d="M86.4741 102.149C86.4209 102.172 86.0684 101.364 85.976 100.292C85.877 99.2209 86.0799 98.3629 86.1366 98.3761C86.2044 98.3858 86.1076 99.2341 86.204 100.272C86.2933 101.31 86.5392 102.128 86.4741 102.149Z" fill="#FAFAFA"/>
<path d="M82.8658 109.285C82.8324 109.338 81.9057 108.82 80.7965 108.126C79.6868 107.433 78.8147 106.827 78.8486 106.773C78.8821 106.719 79.8087 107.238 80.9179 107.932C82.0272 108.626 82.8993 109.231 82.8658 109.285Z" fill="#FAFAFA"/>
<path d="M97.0506 107.174C97.0788 107.235 96.0576 107.742 94.8744 108.492C93.6877 109.238 92.7906 109.941 92.7474 109.889C92.7078 109.845 93.5496 109.054 94.7521 108.298C95.9515 107.539 97.0282 107.119 97.0506 107.174Z" fill="#FAFAFA"/>
<path d="M79.2088 115.239C79.1965 115.301 78.2026 115.155 76.9895 114.913C75.776 114.671 74.8022 114.424 74.8146 114.362C74.8269 114.3 75.8204 114.446 77.0344 114.688C78.2474 114.93 79.2212 115.177 79.2088 115.239Z" fill="#FAFAFA"/>
<path d="M88.7188 113.691C88.6744 113.73 88.1297 113.16 87.6716 112.31C87.2096 111.461 87.0292 110.694 87.0864 110.678C87.1502 110.657 87.4226 111.375 87.8727 112.201C88.3189 113.028 88.7712 113.649 88.7188 113.691Z" fill="#FAFAFA"/>
<path d="M99.4203 114.436C99.4687 114.477 99.162 114.924 98.7352 115.435C98.3084 115.946 97.923 116.327 97.8742 116.287C97.8258 116.246 98.1324 115.799 98.5592 115.288C98.9865 114.777 99.3719 114.395 99.4203 114.436Z" fill="#FAFAFA"/>
<path d="M79.8474 84.1892C79.8826 84.242 79.4897 84.5658 78.97 84.913C78.4504 85.2602 78.0003 85.4986 77.9651 85.4463C77.9299 85.3939 78.3228 85.0696 78.8424 84.7225C79.3625 84.3758 79.8126 84.1368 79.8474 84.1892Z" fill="#FAFAFA"/>
<path d="M87.2721 75.8948C87.2141 75.9146 86.8225 74.9118 86.4801 73.6314C86.1356 72.351 85.9733 71.2867 86.034 71.2748C86.0978 71.262 86.3596 72.2991 86.7019 73.572C87.0416 74.8445 87.3337 75.8741 87.2721 75.8948Z" fill="#FAFAFA"/>
<path d="M94.4042 83.4465C94.3769 83.5081 93.7345 83.2612 92.9095 83.1064C92.0854 82.9458 91.3972 82.9378 91.3946 82.8705C91.3884 82.8116 92.0964 82.7148 92.9526 82.8811C93.8093 83.043 94.4314 83.3941 94.4042 83.4465Z" fill="#FAFAFA"/>
<path d="M99.3057 77.0313C99.3158 77.0893 98.5568 77.2323 97.6267 77.0863C96.6952 76.9459 96.0145 76.5811 96.0418 76.5292C96.0678 76.4667 96.7647 76.7255 97.6619 76.8597C98.5568 77.0009 99.2996 76.9635 99.3057 77.0313Z" fill="#FAFAFA"/>
<path d="M104.321 84.187C104.262 84.1875 104.225 83.091 104.443 81.7609C104.656 80.4294 105.037 79.4007 105.093 79.4201C105.158 79.4394 104.879 80.4849 104.669 81.7974C104.454 83.109 104.388 84.1888 104.321 84.187Z" fill="#FAFAFA"/>
<path d="M110.212 92.6134C110.167 92.6574 109.466 92.0084 108.647 91.1636C107.828 90.3188 107.201 89.5981 107.246 89.5541C107.292 89.5101 107.992 90.1591 108.812 91.0039C109.63 91.8492 110.257 92.5694 110.212 92.6134Z" fill="#FAFAFA"/>
<path d="M115.117 91.9666C115.17 92.001 114.816 92.6447 114.326 93.4046C113.836 94.1644 113.396 94.7527 113.343 94.7184C113.29 94.6841 113.644 94.0404 114.134 93.2805C114.624 92.5206 115.064 91.9323 115.117 91.9666Z" fill="#FAFAFA"/>
<path d="M120.804 89.1946C120.747 89.2223 120.322 88.4642 119.855 87.5015C119.387 86.5387 119.055 85.7357 119.112 85.708C119.169 85.6803 119.594 86.4384 120.061 87.4011C120.528 88.3639 120.861 89.1669 120.804 89.1946Z" fill="#FAFAFA"/>
<path d="M128.55 85.9902C128.539 86.0526 127.634 85.9435 126.528 85.7473C125.423 85.5506 124.536 85.3407 124.547 85.2787C124.558 85.2166 125.463 85.3253 126.568 85.522C127.674 85.7182 128.561 85.9277 128.55 85.9902Z" fill="#FAFAFA"/>
<path d="M67.0352 94.2291C66.978 94.2023 67.3436 93.3047 67.8523 92.2245C68.3609 91.1443 68.8198 90.2907 68.877 90.3175C68.9342 90.3444 68.5686 91.2419 68.06 92.3221C67.5513 93.4019 67.0924 94.2559 67.0352 94.2291Z" fill="#FAFAFA"/>
<path d="M71.1408 86.9867C71.0937 87.029 70.4971 86.4416 69.808 85.6755C69.119 84.9086 68.5985 84.253 68.6455 84.2108C68.6926 84.1685 69.2893 84.7555 69.9783 85.5224C70.6673 86.2889 71.1879 86.9445 71.1408 86.9867Z" fill="#FAFAFA"/>
<path d="M70.8006 98.6185C70.841 98.6673 70.5361 98.9872 70.1199 99.3335C69.7032 99.6798 69.3331 99.9209 69.2927 99.872C69.2522 99.8232 69.5571 99.5033 69.9738 99.157C70.3896 98.8112 70.7601 98.5701 70.8006 98.6185Z" fill="#FAFAFA"/>
<path d="M72.1863 79.2911C72.2356 79.3307 72.0508 79.6436 71.7736 79.9903C71.4964 80.337 71.2315 80.586 71.1818 80.5464C71.1325 80.5068 71.3173 80.194 71.5945 79.8473C71.8717 79.5006 72.1366 79.2515 72.1863 79.2911Z" fill="#FAFAFA"/>
<g opacity="0.3">
<path d="M95.1836 81.2917C97.0444 87.1389 98.481 93.2769 100.342 99.1241L99.8982 87.0126C98.173 85.4207 96.6039 83.5089 95.1836 81.2917Z" fill="black"/>
</g>
<path d="M64.9085 88.9429C64.9054 88.9416 64.9252 88.8919 64.9653 88.799C65.0172 88.6811 65.0762 88.5478 65.1444 88.3938C65.3006 88.0422 65.536 87.5371 65.8343 86.9172C66.4305 85.6768 67.2955 83.9819 68.3304 82.1537C69.367 80.326 70.3764 78.7125 71.1341 77.5636C71.5125 76.989 71.8249 76.5274 72.0462 76.2128C72.1434 76.0751 72.2275 75.9559 72.3018 75.8507C72.3612 75.7684 72.3934 75.7262 72.396 75.728C72.3986 75.7297 72.3714 75.7755 72.3168 75.8608C72.2468 75.9686 72.1672 76.091 72.0757 76.2322C71.842 76.5921 71.5442 77.0506 71.1886 77.5984C70.4455 78.7556 69.4458 80.3726 68.4105 82.1986C67.3769 84.0246 66.504 85.7129 65.8932 86.9453C65.6064 87.5323 65.3661 88.0229 65.1774 88.4088C65.1034 88.5601 65.0392 88.6912 64.9829 88.807C64.9367 88.8972 64.9112 88.9438 64.9085 88.9429Z" fill="#263238"/>
<path d="M67.8758 83.3426C67.8802 83.3571 67.6901 83.4187 67.3953 83.545C67.1005 83.6708 66.7041 83.8714 66.3028 84.15C65.9019 84.4298 65.5763 84.7316 65.3555 84.9644C65.1341 85.1967 65.0105 85.3534 64.9986 85.3446C64.9938 85.3406 65.0193 85.2979 65.0708 85.2231C65.1214 85.1479 65.2019 85.044 65.3075 84.9208C65.5183 84.6744 65.843 84.3594 66.2504 84.0752C66.6587 83.7918 67.0671 83.5973 67.3711 83.4856C67.5233 83.4292 67.6488 83.3896 67.7368 83.3685C67.8247 83.3456 67.874 83.3364 67.8758 83.3426Z" fill="#263238"/>
<path d="M68.2902 74.3168C68.3417 74.3538 67.7424 75.2694 66.9526 76.362C66.1623 77.4545 65.4803 78.3103 65.4289 78.2729C65.3774 78.2359 65.9767 77.3203 66.7669 76.2277C67.5567 75.1357 68.2391 74.2799 68.2902 74.3168Z" fill="#FAFAFA"/>
<path d="M71.4668 67.1594C71.8883 67.2936 72.3389 66.9997 72.5844 66.6314C72.8304 66.2635 72.9439 65.8231 73.1626 65.4381C73.8164 64.2875 75.3036 63.7872 75.9016 62.6067C75.9847 62.4421 76.0362 62.2129 75.8932 62.0967C75.7608 61.9889 75.5645 62.062 75.4114 62.1385C74.105 62.7928 72.7982 63.4471 71.4919 64.1014" fill="#FFBE9D"/>
<path d="M71.4931 64.101C71.4852 64.0856 71.6291 63.9954 71.8953 63.8453C72.1615 63.6953 72.5504 63.4854 73.0331 63.2311C73.5373 62.9697 74.1102 62.6727 74.7355 62.3489C74.897 62.2666 75.0615 62.1826 75.2292 62.0972C75.392 62.0295 75.5737 61.8684 75.868 61.9441C76.0128 61.989 76.1078 62.1513 76.107 62.2829C76.1122 62.4153 76.0762 62.528 76.0286 62.6331C75.9283 62.8272 75.8157 63.008 75.6753 63.1743C75.1165 63.8418 74.4138 64.2466 73.8982 64.7293C73.6368 64.9665 73.415 65.2168 73.2588 65.4826C73.1022 65.7479 72.9992 66.0295 72.8774 66.279C72.6556 66.7942 72.2627 67.126 71.9485 67.1981C71.6286 67.2795 71.4579 67.1656 71.4672 67.1607C71.4707 67.1357 71.6423 67.2069 71.9186 67.1057C72.1958 67.0076 72.5218 66.7075 72.7163 66.2055C72.8241 65.9604 72.917 65.6731 73.0784 65.3796C73.2399 65.0861 73.4727 64.812 73.7406 64.5603C74.2708 64.0508 74.9665 63.6355 75.4813 63.0159C75.6106 62.8641 75.7154 62.6934 75.8025 62.528C75.8821 62.3643 75.8795 62.1949 75.7836 62.1738C75.6828 62.1351 75.5024 62.2248 75.3352 62.3106C75.1662 62.3938 75.0004 62.4752 74.838 62.5548C74.204 62.8615 73.6232 63.1422 73.1119 63.3891C72.6191 63.6231 72.2178 63.8088 71.9384 63.9325C71.659 64.0557 71.5006 64.1164 71.4931 64.101Z" fill="#EB996E"/>
<path d="M194.305 184.97H166.455V188.797H194.305V184.97Z" fill="#263238"/>
<path d="M194.353 188.844H166.408V184.922H194.353V188.844ZM166.503 188.749H194.258V185.017H166.503V188.749Z" fill="#263238"/>
<path d="M169.037 187.523L173.046 207.299H187.878L191.753 188.797L169.037 187.523Z" fill="#263238"/>
<path d="M169.037 205.428L171.176 208.368H189.204L191.753 205.428H169.037Z" fill="#455A64"/>
<path d="M179.334 188.1C179.28 188.1 179.209 178.939 179.178 167.639C179.146 156.336 179.164 147.176 179.219 147.176C179.274 147.176 179.344 156.335 179.376 167.639C179.408 178.938 179.389 188.1 179.334 188.1Z" fill="#263238"/>
<path d="M185.538 165.172C185.544 165.176 185.518 165.249 185.463 165.385C185.398 165.541 185.315 165.737 185.214 165.979C185.159 166.109 185.098 166.251 185.032 166.405C184.975 166.567 184.913 166.74 184.847 166.925C184.779 167.113 184.708 167.312 184.632 167.522C184.558 167.734 184.499 167.964 184.426 168.202C184.122 169.152 183.88 170.317 183.647 171.612C183.444 172.914 183.293 174.357 183.216 175.876C183.081 178.919 183.253 181.678 183.436 183.666C183.526 184.66 183.616 185.464 183.682 186.018C183.711 186.278 183.734 186.49 183.752 186.658C183.767 186.805 183.771 186.882 183.763 186.883C183.757 186.884 183.739 186.809 183.713 186.664C183.685 186.497 183.649 186.287 183.606 186.029C183.516 185.477 183.404 184.675 183.297 183.68C183.077 181.692 182.882 178.924 183.018 175.867C183.095 174.34 183.253 172.89 183.467 171.582C183.711 170.28 183.969 169.112 184.292 168.161C184.37 167.923 184.433 167.693 184.513 167.482C184.594 167.272 184.671 167.074 184.743 166.887C184.815 166.703 184.882 166.53 184.944 166.37C185.013 166.214 185.083 166.075 185.143 165.948C185.258 165.713 185.352 165.521 185.426 165.369C185.494 165.237 185.531 165.169 185.538 165.172Z" fill="#263238"/>
<path d="M184.826 157.762C184.833 157.765 184.802 157.869 184.738 158.065C184.666 158.277 184.569 158.56 184.448 158.916C184.383 159.103 184.313 159.308 184.235 159.53C184.166 159.759 184.091 160.006 184.011 160.27C183.848 160.801 183.66 161.403 183.491 162.081C183.402 162.419 183.309 162.772 183.212 163.14C183.128 163.512 183.041 163.899 182.951 164.299C182.757 165.096 182.616 165.962 182.437 166.867C182.13 168.687 181.86 170.699 181.673 172.82C181.497 174.944 181.42 176.973 181.394 178.819C181.388 180.666 181.412 182.329 181.487 183.724C181.512 184.422 181.557 185.052 181.592 185.606C181.625 186.16 181.659 186.636 181.694 187.025C181.723 187.401 181.746 187.7 181.763 187.923C181.776 188.128 181.78 188.236 181.773 188.237C181.767 188.238 181.749 188.131 181.723 187.927C181.697 187.704 181.662 187.407 181.618 187.033C181.571 186.644 181.525 186.168 181.482 185.614C181.435 185.06 181.381 184.43 181.347 183.731C181.254 182.335 181.215 180.668 181.211 178.818C181.228 176.967 181.299 174.933 181.475 172.803C181.662 170.675 181.939 168.659 182.257 166.835C182.442 165.928 182.589 165.06 182.791 164.262C182.885 163.861 182.976 163.474 183.064 163.102C183.165 162.734 183.263 162.381 183.356 162.043C183.533 161.366 183.732 160.764 183.906 160.236C183.991 159.973 184.071 159.727 184.146 159.499C184.229 159.278 184.306 159.075 184.375 158.89C184.511 158.539 184.62 158.259 184.701 158.05C184.777 157.859 184.82 157.76 184.826 157.762Z" fill="#263238"/>
<path d="M177.573 189.721C177.569 189.721 177.564 189.685 177.557 189.614C177.55 189.532 177.542 189.428 177.531 189.299C177.511 189.007 177.483 188.601 177.449 188.086C177.382 187.017 177.287 185.496 177.169 183.623C176.928 179.856 176.578 174.65 175.944 168.927C175.62 166.065 175.244 163.347 174.854 160.883C174.646 159.653 174.458 158.482 174.244 157.394C174.048 156.302 173.837 155.29 173.643 154.367C173.46 153.441 173.256 152.612 173.091 151.881C172.93 151.149 172.774 150.522 172.644 150.011C172.521 149.509 172.424 149.114 172.354 148.83C172.326 148.704 172.303 148.602 172.284 148.522C172.269 148.452 172.263 148.416 172.266 148.415C172.27 148.414 172.282 148.448 172.303 148.517C172.327 148.596 172.356 148.696 172.393 148.82C172.471 149.102 172.58 149.494 172.718 149.992C172.86 150.501 173.028 151.125 173.199 151.855C173.374 152.585 173.588 153.413 173.78 154.337C173.983 155.26 174.202 156.271 174.405 157.363C174.626 158.452 174.821 159.623 175.034 160.854C175.434 163.32 175.816 166.04 176.141 168.905C176.775 174.635 177.103 179.845 177.309 183.615C177.411 185.5 177.482 187.027 177.525 188.082C177.544 188.598 177.559 189.005 177.57 189.297C177.573 189.427 177.575 189.531 177.577 189.614C177.578 189.684 177.576 189.721 177.573 189.721Z" fill="#263238"/>
<path d="M179.108 151.58C178.987 150.282 177.675 149.303 176.372 149.289C175.068 149.276 173.853 150.058 173.056 151.089C172.258 152.12 171.819 153.38 171.459 154.633C170.581 157.691 170.101 160.903 170.476 164.063C170.852 167.222 172.134 170.332 174.401 172.564C174.77 172.927 175.247 173.29 175.753 173.182C176.029 173.123 176.256 172.931 176.466 172.741C180.919 168.718 183.491 162.693 183.314 156.694C183.279 155.493 183.121 154.242 182.456 153.242C181.792 152.241 180.241 151.178 179.108 151.58Z" fill="#2C73EB"/>
<path d="M169.375 141.184C168.763 142.292 168.151 143.4 167.539 144.509C167.496 144.586 167.439 144.673 167.351 144.68C167.254 144.688 167.182 144.597 167.129 144.516C165.512 142.033 163.894 139.55 162.275 137.067L163.394 136.433L169.375 141.184Z" fill="#2C73EB"/>
<g opacity="0.2">
<path d="M169.375 141.184C168.763 142.292 168.151 143.4 167.539 144.509C167.496 144.586 167.439 144.673 167.351 144.68C167.254 144.688 167.182 144.597 167.129 144.516C165.512 142.033 163.894 139.55 162.275 137.067L163.394 136.433L169.375 141.184Z" fill="black"/>
</g>
<path d="M179.221 147.175C173.701 143.918 168.182 140.661 162.663 137.404C162.494 137.305 162.311 137.187 162.26 136.998C162.194 136.753 162.378 136.517 162.554 136.334C164.832 133.985 168.139 132.623 171.403 132.858C174.666 133.093 177.804 134.978 179.402 137.833C181 140.689 181.053 144.465 179.221 147.175Z" fill="#2C73EB"/>
<path d="M165.049 134.286C165.048 134.279 165.123 134.27 165.266 134.259C165.408 134.252 165.62 134.226 165.891 134.229C166.435 134.216 167.226 134.251 168.189 134.412C169.151 134.57 170.28 134.879 171.461 135.406C172.64 135.929 173.861 136.688 174.973 137.684C176.075 138.691 176.952 139.831 177.591 140.953C178.232 142.075 178.652 143.168 178.906 144.109C179.161 145.051 179.275 145.834 179.316 146.377C179.346 146.648 179.334 146.717 179.341 146.86C179.344 147.003 179.22 147.22 179.214 147.221C179.196 147.222 179.305 146.922 179.239 146.385C179.175 145.848 179.04 145.075 178.771 144.147C178.247 142.303 177.032 139.817 174.839 137.831C172.645 135.849 170.051 134.887 168.164 134.55C167.215 134.374 166.431 134.317 165.891 134.306C165.35 134.294 165.05 134.303 165.049 134.286Z" fill="#263238"/>
<path d="M176.978 140.432C176.988 140.457 176.669 140.604 176.141 140.812C175.614 141.02 174.877 141.286 174.052 141.548C173.227 141.81 172.472 142.018 171.921 142.153C171.37 142.287 171.025 142.351 171.018 142.325C171.011 142.297 171.343 142.186 171.883 142.017C172.493 141.827 173.205 141.604 173.992 141.359C174.776 141.106 175.486 140.877 176.094 140.68C176.633 140.506 176.969 140.405 176.978 140.432Z" fill="#263238"/>
<path d="M174.372 133.428C174.425 133.423 174.543 134.248 174.568 135.275C174.595 136.301 174.519 137.132 174.466 137.129C174.41 137.127 174.396 136.299 174.37 135.28C174.345 134.261 174.316 133.433 174.372 133.428Z" fill="#263238"/>
<path d="M162.518 137.219C162.51 137.194 162.968 137.028 163.721 136.796C164.473 136.564 165.521 136.271 166.688 135.989C167.857 135.708 168.923 135.492 169.698 135.356C170.474 135.219 170.957 135.159 170.962 135.185C170.967 135.213 170.493 135.322 169.726 135.494C168.959 135.665 167.9 135.901 166.735 136.182C165.57 136.462 164.52 136.734 163.759 136.931C162.998 137.128 162.526 137.247 162.518 137.219Z" fill="#263238"/>
<path d="M172.235 148.763C170.811 147.684 169.305 147.471 167.52 147.542C165.734 147.612 163.996 148.156 162.358 148.873C159.567 150.096 156.942 151.898 155.274 154.45C153.606 157.001 153.025 160.378 154.274 163.158C154.399 163.435 154.561 163.725 154.84 163.844C155.134 163.97 155.47 163.872 155.774 163.772C158.95 162.737 162.148 161.691 165.068 160.068C167.987 158.446 170.645 156.191 172.212 153.241C172.588 152.533 172.902 151.775 172.964 150.976C173.025 150.177 172.804 149.328 172.235 148.763Z" fill="#2C73EB"/>
<path d="M172.263 148.429C172.265 148.435 172.186 148.467 172.035 148.521C171.863 148.58 171.642 148.657 171.369 148.75C171.222 148.799 171.062 148.853 170.888 148.911C170.713 148.974 170.527 149.052 170.325 149.13C169.923 149.293 169.457 149.455 168.966 149.693C168.717 149.806 168.457 149.925 168.187 150.048C167.917 150.172 167.647 150.326 167.362 150.471C166.786 150.754 166.204 151.115 165.584 151.481C164.366 152.251 163.078 153.178 161.824 154.27C160.581 155.375 159.497 156.535 158.579 157.644C158.136 158.213 157.704 158.745 157.35 159.279C157.17 159.544 156.983 159.792 156.825 160.044C156.669 160.296 156.518 160.539 156.374 160.771C156.075 161.228 155.855 161.67 155.643 162.048C155.539 162.238 155.438 162.413 155.353 162.578C155.274 162.743 155.2 162.895 155.133 163.035C155.005 163.294 154.902 163.503 154.821 163.666C154.748 163.809 154.706 163.883 154.7 163.881C154.694 163.878 154.723 163.798 154.785 163.65C154.856 163.482 154.949 163.268 155.063 163.002C155.126 162.86 155.195 162.704 155.269 162.535C155.349 162.367 155.446 162.189 155.544 161.996C155.749 161.611 155.962 161.163 156.254 160.698C156.395 160.463 156.543 160.217 156.697 159.961C156.853 159.705 157.036 159.454 157.216 159.185C157.566 158.643 157.996 158.104 158.437 157.529C159.354 156.405 160.442 155.233 161.694 154.12C162.957 153.02 164.258 152.091 165.489 151.325C166.116 150.961 166.705 150.603 167.287 150.325C167.576 150.182 167.849 150.031 168.122 149.909C168.396 149.789 168.659 149.674 168.91 149.564C169.407 149.332 169.88 149.178 170.287 149.025C170.492 148.952 170.68 148.878 170.858 148.821C171.035 148.768 171.197 148.72 171.347 148.676C171.625 148.596 171.849 148.532 172.025 148.482C172.179 148.441 172.261 148.422 172.263 148.429Z" fill="#263238"/>
<path d="M161.139 154.452C161.154 154.505 159.603 155.004 157.674 155.568C155.745 156.133 154.17 156.547 154.154 156.494C154.139 156.441 155.69 155.942 157.619 155.378C159.547 154.814 161.123 154.4 161.139 154.452Z" fill="#263238"/>
<path d="M160.996 162.096C160.97 162.097 160.938 161.685 160.92 161.017C160.902 160.35 160.899 159.427 160.927 158.409C160.956 157.391 161.01 156.47 161.066 155.804C161.121 155.139 161.175 154.729 161.202 154.731C161.23 154.733 161.226 155.146 161.206 155.812C161.183 156.544 161.156 157.432 161.125 158.414C161.101 159.397 161.079 160.285 161.06 161.017C161.043 161.684 161.024 162.096 160.996 162.096Z" fill="#263238"/>
<path d="M167.544 158.761C167.489 158.765 167.315 156.89 167.155 154.575C166.995 152.259 166.909 150.379 166.964 150.375C167.018 150.371 167.193 152.245 167.353 154.561C167.513 156.876 167.598 158.757 167.544 158.761Z" fill="#263238"/>
<path d="M159.393 150.193C159.394 150.165 159.818 150.154 160.503 150.159C161.188 150.164 162.133 150.184 163.176 150.219C164.22 150.253 165.164 150.296 165.848 150.336C166.531 150.377 166.954 150.415 166.954 150.443C166.953 150.47 166.529 150.481 165.845 150.476C165.16 150.472 164.214 150.451 163.17 150.417C162.125 150.382 161.18 150.34 160.497 150.3C159.813 150.259 159.391 150.22 159.393 150.193Z" fill="#263238"/>
<path d="M175.111 173C175.103 173 175.096 172.923 175.087 172.778C175.079 172.611 175.07 172.4 175.058 172.141C175.033 171.588 175.027 170.786 175.048 169.796C175.067 168.805 175.134 167.628 175.253 166.323C175.382 165.019 175.568 163.589 175.836 162.1C176.11 160.612 176.439 159.207 176.778 157.94C177.127 156.675 177.479 155.546 177.811 154.611C178.14 153.674 178.429 152.924 178.647 152.413C178.749 152.174 178.833 151.979 178.899 151.825C178.959 151.692 178.993 151.623 178.999 151.626C179.005 151.628 178.984 151.702 178.936 151.84C178.879 151.997 178.807 152.196 178.719 152.441C178.523 152.959 178.256 153.715 177.944 154.654C177.63 155.593 177.292 156.722 176.955 157.985C176.627 159.25 176.304 160.651 176.031 162.135C175.764 163.618 175.573 165.042 175.434 166.34C175.305 167.639 175.224 168.813 175.188 169.8C175.149 170.787 175.133 171.587 175.135 172.14C175.132 172.399 175.129 172.61 175.127 172.777C175.123 172.923 175.117 173 175.111 173Z" fill="#263238"/>
<path d="M175.984 162.159C176.002 162.178 175.752 162.457 175.323 162.884C174.895 163.311 174.287 163.885 173.593 164.493C172.899 165.102 172.25 165.63 171.771 165.998C171.291 166.367 170.982 166.579 170.966 166.558C170.948 166.536 171.226 166.286 171.682 165.89C172.191 165.448 172.795 164.923 173.462 164.344C174.124 163.758 174.723 163.228 175.227 162.781C175.679 162.381 175.964 162.139 175.984 162.159Z" fill="#263238"/>
<path d="M181.225 166.38C181.201 166.395 180.939 166.019 180.522 165.406C180.069 164.745 179.507 163.925 178.885 163.018C178.251 162.119 177.677 161.307 177.215 160.653C176.786 160.05 176.524 159.672 176.546 159.655C176.567 159.639 176.868 159.986 177.328 160.569C177.787 161.153 178.401 161.974 179.049 162.904C179.695 163.834 180.252 164.696 180.64 165.329C181.027 165.963 181.248 166.366 181.225 166.38Z" fill="#263238"/>
<path d="M178.48 153.103C178.509 153.149 176.768 154.322 174.592 155.721C172.414 157.12 170.626 158.218 170.596 158.172C170.567 158.125 172.307 156.954 174.484 155.554C176.661 154.154 178.45 153.057 178.48 153.103Z" fill="#263238"/>
<path d="M183.389 158.402C183.351 158.441 182.171 157.351 180.756 155.969C179.339 154.585 178.222 153.432 178.261 153.393C178.299 153.354 179.478 154.444 180.894 155.827C182.31 157.209 183.427 158.363 183.389 158.402Z" fill="#263238"/>
<path d="M184.623 158.295L186.118 158.172C187.178 158.084 188.208 157.77 189.136 157.248C189.594 156.99 190.055 156.737 190.542 156.541C192.39 155.799 194.452 155.932 196.44 155.832C199.686 155.669 202.897 154.848 205.823 153.433C205.992 153.351 206.141 153.226 206.231 153.062C206.539 152.503 205.968 152.005 205.477 151.702C202.96 150.151 200.397 148.58 197.541 147.81C194.686 147.04 191.445 147.17 189.009 148.846C186.148 150.815 185.106 154.858 184.623 158.295Z" fill="#2C73EB"/>
<path d="M206.264 152.879C206.261 152.885 206.174 152.844 206.011 152.761C205.832 152.667 205.596 152.544 205.302 152.39C204.688 152.067 203.804 151.59 202.686 151.054C201.568 150.524 200.213 149.926 198.636 149.494C197.066 149.057 195.255 148.829 193.387 149.068C191.527 149.313 189.814 150.037 188.602 151.123C187.382 152.205 186.637 153.512 186.11 154.623C185.586 155.743 185.262 156.696 185.026 157.348C184.916 157.66 184.827 157.911 184.76 158.101C184.698 158.273 184.662 158.363 184.655 158.36C184.649 158.358 184.672 158.265 184.722 158.089C184.78 157.895 184.857 157.641 184.953 157.323C185.166 156.662 185.47 155.7 185.983 154.564C186.497 153.437 187.239 152.102 188.481 150.986C189.716 149.865 191.468 149.12 193.361 148.871C195.261 148.627 197.102 148.866 198.685 149.317C200.275 149.763 201.633 150.379 202.747 150.927C203.861 151.481 204.736 151.978 205.339 152.322C205.626 152.489 205.855 152.623 206.03 152.725C206.187 152.82 206.267 152.873 206.264 152.879Z" fill="#263238"/>
<path d="M202.675 154.807C202.644 154.852 200.69 153.588 198.31 151.983C195.929 150.377 194.024 149.04 194.055 148.994C194.086 148.949 196.04 150.213 198.421 151.818C200.801 153.424 202.706 154.762 202.675 154.807Z" fill="#263238"/>
<path d="M200.591 148.892C200.601 148.935 199.968 149.082 199.168 149.148C198.368 149.214 197.716 149.173 197.717 149.129C197.717 149.082 198.361 149.049 199.151 148.982C199.941 148.918 200.581 148.845 200.591 148.892Z" fill="#263238"/>
<path d="M192.035 147.777C192.082 147.798 191.795 148.247 191.393 148.778C190.992 149.31 190.628 149.723 190.581 149.701C190.534 149.68 190.821 149.231 191.223 148.699C191.624 148.168 191.987 147.755 192.035 147.777Z" fill="#263238"/>
<path d="M193.785 155.958C193.771 155.981 193.409 155.791 192.844 155.448C192.279 155.106 191.516 154.604 190.701 154.012C189.886 153.42 189.167 152.86 188.65 152.45C188.134 152.039 187.822 151.776 187.838 151.754C187.855 151.732 188.197 151.956 188.734 152.338C189.321 152.763 190.031 153.28 190.817 153.851C191.63 154.441 192.377 154.959 192.92 155.331C193.463 155.702 193.8 155.934 193.785 155.958Z" fill="#263238"/>
<path d="M186.825 164.645C185.399 164.268 183.7 165.655 183.406 167.1C183.112 168.545 183.654 170.022 184.289 171.353C185.693 174.299 187.631 177.032 190.184 179.066C192.736 181.1 195.933 182.401 199.197 182.384C198.594 179.585 199.357 176.66 199.021 173.817C198.727 171.335 197.57 168.964 195.794 167.206C194.018 165.447 191.636 164.314 189.151 164.046C188.241 163.947 187.188 163.804 186.825 164.645Z" fill="#2C73EB"/>
<path d="M199.197 182.384C199.193 182.39 199.124 182.358 198.994 182.289C198.865 182.219 198.679 182.106 198.46 181.931C198.013 181.591 197.5 180.937 197.053 180.049C196.825 179.608 196.572 179.128 196.323 178.598C196.083 178.065 195.826 177.498 195.556 176.902C195.285 176.308 194.985 175.692 194.614 175.09C194.244 174.488 193.804 173.899 193.317 173.327C192.341 172.18 191.294 171.189 190.386 170.241C189.473 169.297 188.706 168.388 188.151 167.56C187.591 166.735 187.252 165.996 187.059 165.474C186.967 165.211 186.901 165.006 186.869 164.863C186.833 164.721 186.817 164.646 186.824 164.644C186.842 164.639 186.923 164.935 187.131 165.446C187.344 165.954 187.698 166.674 188.267 167.48C188.831 168.29 189.601 169.181 190.517 170.114C191.429 171.051 192.482 172.04 193.468 173.198C193.961 173.777 194.406 174.375 194.779 174.989C195.155 175.603 195.454 176.228 195.722 176.827C195.986 177.425 196.237 177.994 196.472 178.529C196.711 179.057 196.959 179.541 197.177 179.985C197.606 180.875 198.086 181.52 198.509 181.872C198.927 182.232 199.208 182.365 199.197 182.384Z" fill="#263238"/>
<path d="M191.826 180.058C191.8 180.053 191.844 179.685 191.956 179.098C192.068 178.511 192.251 177.706 192.498 176.828C192.746 175.949 193.01 175.167 193.221 174.607C193.432 174.048 193.586 173.712 193.611 173.721C193.637 173.73 193.531 174.084 193.354 174.653C193.178 175.222 192.936 176.007 192.689 176.882C192.443 177.756 192.239 178.552 192.093 179.129C191.947 179.706 191.854 180.064 191.826 180.058Z" fill="#263238"/>
<path d="M198.927 173.187C198.918 173.214 198.536 173.117 197.923 172.956C197.308 172.795 196.46 172.576 195.517 172.363C194.573 172.151 193.712 171.986 193.088 171.867C192.464 171.75 192.078 171.674 192.082 171.646C192.086 171.62 192.479 171.646 193.11 171.729C193.742 171.812 194.611 171.956 195.56 172.17C196.508 172.384 197.355 172.626 197.961 172.821C198.568 173.018 198.935 173.162 198.927 173.187Z" fill="#263238"/>
<path d="M186.536 175.183C186.51 175.178 186.565 174.753 186.69 174.073C186.815 173.392 187.014 172.457 187.281 171.434C187.548 170.412 187.831 169.498 188.054 168.843C188.278 168.188 188.438 167.791 188.463 167.799C188.49 167.808 188.377 168.221 188.189 168.885C188 169.55 187.739 170.466 187.473 171.485C187.208 172.503 186.987 173.43 186.827 174.102C186.667 174.774 186.563 175.189 186.536 175.183Z" fill="#263238"/>
<path d="M195.656 167.199C195.651 167.254 193.871 167.11 191.682 166.878C189.492 166.646 187.723 166.413 187.729 166.359C187.734 166.305 189.514 166.448 191.703 166.681C193.892 166.913 195.662 167.145 195.656 167.199Z" fill="#263238"/>
<path d="M194.352 188.78C194.352 188.835 188.097 188.88 180.382 188.88C172.664 188.88 166.41 188.835 166.41 188.78C166.41 188.726 172.664 188.681 180.382 188.681C188.097 188.681 194.352 188.726 194.352 188.78Z" fill="#455A64"/>
<path d="M190.001 196.83C190.001 196.885 185.786 196.93 180.588 196.93C175.388 196.93 171.174 196.885 171.174 196.83C171.174 196.776 175.388 196.731 180.588 196.731C185.785 196.731 190.001 196.775 190.001 196.83Z" fill="#455A64"/>
<path d="M189.836 197.981C189.836 198.036 185.695 198.08 180.588 198.08C175.478 198.08 171.338 198.036 171.338 197.981C171.338 197.927 175.478 197.882 180.588 197.882C185.695 197.882 189.836 197.927 189.836 197.981Z" fill="#455A64"/>
<path d="M190.163 195.881C190.163 195.936 185.803 195.981 180.427 195.981C175.048 195.981 170.689 195.936 170.689 195.881C170.689 195.827 175.048 195.782 180.427 195.782C185.803 195.782 190.163 195.827 190.163 195.881Z" fill="#455A64"/>
<path d="M188.3 26.3451C188.3 26.4084 185.346 26.4441 181.705 26.4247C178.061 26.4053 175.109 26.3385 175.109 26.2751C175.11 26.2117 178.063 26.1761 181.706 26.1955C185.347 26.2148 188.3 26.2817 188.3 26.3451Z" fill="#263238"/>
<path d="M181.772 32.905C181.708 32.9054 181.627 29.953 181.59 26.3112C181.553 22.668 181.575 19.7151 181.638 19.7142C181.702 19.7138 181.783 22.6653 181.82 26.3085C181.856 29.9508 181.835 32.9045 181.772 32.905Z" fill="#263238"/>
<path d="M195.257 124.821C195.228 124.878 193.416 124.009 191.209 122.882C189.001 121.754 187.235 120.795 187.264 120.738C187.293 120.682 189.105 121.55 191.313 122.678C193.52 123.805 195.286 124.765 195.257 124.821Z" fill="#263238"/>
<path d="M189.28 126.807C189.223 126.779 190.064 124.953 191.157 122.729C192.251 120.505 193.183 118.724 193.24 118.752C193.297 118.78 192.456 120.605 191.363 122.83C190.27 125.054 189.337 126.835 189.28 126.807Z" fill="#263238"/>
<path d="M37.3113 93.8393C37.3346 93.8983 35.2292 94.7928 32.6086 95.8374C29.9875 96.8824 27.8438 97.6814 27.8205 97.6224C27.7972 97.5639 29.9026 96.6694 32.5237 95.6244C35.1443 94.5798 37.288 93.7808 37.3113 93.8393Z" fill="#263238"/>
<path d="M32.4546 90.9797C32.4356 90.9881 32.3793 90.8508 32.2205 90.6493C32.0638 90.4513 31.7756 90.189 31.3374 90.0768C30.9102 89.9594 30.3219 90.0368 29.8858 90.4354C29.4476 90.8169 29.2263 91.5337 29.4837 92.1633C29.7296 92.7978 30.3839 93.1656 30.9643 93.141C31.5552 93.1304 32.0357 92.782 32.2645 92.4027C32.5052 92.0199 32.5338 91.6314 32.5113 91.3801C32.4889 91.1249 32.4352 90.9868 32.4546 90.9797C32.4638 90.9749 32.5474 91.102 32.6002 91.3687C32.6512 91.6296 32.6499 92.0529 32.4035 92.4867C32.1699 92.9157 31.6432 93.328 30.9709 93.3526C30.3118 93.394 29.5536 92.9786 29.2707 92.2487C28.9742 91.5244 29.2386 90.7016 29.7455 90.2784C30.2502 89.834 30.9163 89.7706 31.381 89.9215C31.8579 90.0667 32.1501 90.373 32.2926 90.5978C32.4378 90.8266 32.4647 90.9766 32.4546 90.9797Z" fill="#263238"/>
<path d="M35.7534 99.2557C35.734 99.2641 35.6782 99.1268 35.5193 98.9253C35.3627 98.7277 35.0745 98.465 34.6362 98.3528C34.209 98.2353 33.6207 98.3128 33.1847 98.7114C32.7464 99.0929 32.5251 99.8097 32.7825 100.439C33.0289 101.074 33.6828 101.442 34.2631 101.417C34.854 101.406 35.3345 101.058 35.5633 100.679C35.804 100.296 35.8326 99.9073 35.8102 99.6561C35.7873 99.4009 35.7336 99.2627 35.7534 99.2557C35.7626 99.2509 35.8462 99.3785 35.899 99.6447C35.9501 99.9056 35.9488 100.329 35.7024 100.762C35.4687 101.191 34.942 101.604 34.2697 101.628C33.6106 101.67 32.8525 101.254 32.5696 100.524C32.273 99.8 32.5374 98.9772 33.0443 98.5539C33.549 98.1095 34.2152 98.0461 34.6798 98.1966C35.1568 98.3418 35.4489 98.6485 35.5915 98.8729C35.7362 99.103 35.7631 99.2526 35.7534 99.2557Z" fill="#263238"/>
<path d="M61.9126 48.1016C61.9126 48.1016 61.9624 48.2196 62.0464 48.4488C62.1318 48.686 62.2532 49.0248 62.4112 49.4652C62.7284 50.3654 63.1913 51.6793 63.787 53.3698L63.8156 53.4512L63.7298 53.4397C62.1709 53.2276 60.2574 52.9676 58.0626 52.6693L58.1172 52.6548C56.3871 54.0139 54.0749 55.1887 51.3368 55.6147C50.6552 55.7251 49.9499 55.7885 49.2292 55.7955C48.8688 55.8052 48.5054 55.7678 48.1376 55.7559C47.9536 55.7467 47.7693 55.7379 47.5836 55.7286C47.3988 55.7123 47.2149 55.6762 47.0292 55.6507C45.538 55.4769 44.028 55.0114 42.5834 54.3114C41.1385 53.6113 39.7573 52.6548 38.5482 51.4536C37.3474 50.2458 36.3284 48.7938 35.5852 47.1715C34.0897 43.9357 33.7782 39.9726 34.9904 36.3347C36.038 33.0862 38.271 30.3886 40.9308 28.6224C42.2618 27.7252 43.7389 27.1202 45.2208 26.7159L45.7792 26.5729L46.0572 26.502L46.3402 26.4589C46.7168 26.4017 47.0917 26.345 47.4644 26.2882C47.8397 26.257 48.2146 26.2473 48.5864 26.2262C48.9582 26.1932 49.3278 26.2156 49.6952 26.2376C50.0617 26.2671 50.43 26.2517 50.7877 26.3181C51.1467 26.3731 51.5036 26.4281 51.8578 26.4827C52.2115 26.5399 52.5512 26.6521 52.8953 26.7335L53.407 26.8659C53.5738 26.92 53.7366 26.9847 53.9002 27.0437C55.2299 27.4727 56.414 28.1582 57.4972 28.882C59.6264 30.4018 61.232 32.3268 62.207 34.3235C63.2071 36.3114 63.6498 38.3125 63.7532 40.0672C63.8904 41.8286 63.6471 43.3501 63.3501 44.5491C63.0452 45.7516 62.662 46.6404 62.3817 47.2274C62.2387 47.5204 62.1238 47.7408 62.0416 47.883C61.9606 48.0268 61.9126 48.1016 61.9126 48.1016C61.9126 48.1016 61.9448 48.0255 62.02 47.8755C62.0974 47.725 62.2052 47.5024 62.3408 47.2071C62.6065 46.6158 62.9748 45.7256 63.2643 44.5271C63.5459 43.332 63.7743 41.8202 63.626 40.0747C63.5116 38.3358 63.0619 36.3576 62.0636 34.3961C61.0903 32.4262 59.4953 30.5307 57.3894 29.0369C56.3176 28.3258 55.1481 27.6522 53.8351 27.2329C53.6732 27.1752 53.5126 27.1119 53.348 27.0586L52.8434 26.9297C52.5041 26.8505 52.1688 26.7401 51.8199 26.6846C51.4706 26.6318 51.1186 26.5786 50.7648 26.5249C50.4119 26.4598 50.0485 26.4765 49.6872 26.4479C49.3251 26.4268 48.9608 26.4052 48.5938 26.4387C48.2278 26.4602 47.8577 26.4704 47.4881 26.5016C47.1212 26.5579 46.752 26.6147 46.3806 26.6714L46.1021 26.7141L45.8284 26.7845L45.2784 26.9262C43.819 27.3266 42.3648 27.9237 41.0553 28.809C38.4378 30.5514 36.24 33.2076 35.2095 36.406C34.0162 39.9872 34.3207 43.89 35.7898 47.0773C36.5198 48.6758 37.5212 50.1076 38.7026 51.3C39.8924 52.4854 41.2516 53.4309 42.675 54.1244C44.0975 54.8178 45.5856 55.2811 47.0565 55.4567C47.2395 55.4822 47.4208 55.5187 47.6034 55.5355C47.7864 55.5451 47.9686 55.5544 48.1503 55.5636C48.5133 55.5764 48.8719 55.6146 49.2279 55.6063C49.9398 55.6019 50.6368 55.5416 51.31 55.4351C54.016 55.0246 56.3075 53.8744 58.0283 52.5386L58.053 52.5197L58.0833 52.5241C60.2758 52.8378 62.1876 53.111 63.7448 53.3341L63.6876 53.4036C63.1112 51.6982 62.6633 50.3734 62.3562 49.4656C62.2096 49.0239 62.097 48.6842 62.0182 48.4462C61.9434 48.2183 61.9126 48.1016 61.9126 48.1016Z" fill="#263238"/>
<path d="M49.791 37.5847C49.9886 37.6798 50.1245 37.8817 50.125 38.1154L50.1245 41.0458C50.1245 41.2301 50.0383 41.4039 49.8913 41.5148C49.7444 41.6261 49.5539 41.6622 49.3765 41.6121C48.9115 41.4809 48.3883 41.5606 47.9421 41.8321C47.5312 42.0815 47.2461 42.4621 47.1603 42.8775C47.074 43.2911 47.1831 43.7575 47.4595 44.1579C47.7551 44.586 48.2061 44.8857 48.6686 44.9591C49.6128 45.1092 50.6684 44.4267 50.9733 43.4684C51.0719 43.1587 51.4027 42.9879 51.7125 43.0865C52.0271 43.1877 52.1934 43.5164 52.0949 43.8257C51.6153 45.3318 49.9952 46.3619 48.4833 46.1216C47.6997 45.9971 46.9724 45.525 46.491 44.8267C46.033 44.1632 45.857 43.3659 46.0079 42.6386C46.1601 41.9051 46.6424 41.2447 47.3314 40.8267C47.8295 40.5244 48.3923 40.3704 48.948 40.3748L48.9475 38.1163C48.9475 37.7911 49.2111 37.528 49.5363 37.528C49.6278 37.5271 49.714 37.5478 49.791 37.5847Z" fill="#2C73EB"/>
<path d="M48.9806 36.3527C48.974 36.087 49.1839 35.8661 49.4497 35.859C49.7154 35.8524 49.9363 36.0623 49.9429 36.3281C49.9495 36.5938 49.7396 36.8147 49.4739 36.8218C49.2085 36.8284 48.9877 36.6185 48.9806 36.3527Z" fill="#2C73EB"/>
</svg>
