<svg width="220" height="220" viewBox="0 0 220 220" fill="none" xmlns="http://www.w3.org/2000/svg">
<path d="M142.486 15.8673C142.486 15.8673 107.575 2.15205 74.1882 21.5085C40.801 40.8646 24.7621 80.6894 10.9263 112.563C-2.90947 144.436 6.43569 177.51 32.7407 193.204C59.0456 208.899 76.0661 187.318 112.375 187.256C148.684 187.194 158.601 192.855 188.183 172.399C217.764 151.944 221.863 101.801 197.078 63.9241C172.292 26.0471 142.486 15.8673 142.486 15.8673Z" fill="#407BFF"/>
<path opacity="0.7" d="M142.486 15.8673C142.486 15.8673 107.575 2.15205 74.1882 21.5085C40.801 40.8646 24.7621 80.6894 10.9263 112.563C-2.90947 144.436 6.43569 177.51 32.7407 193.204C59.0456 208.899 76.0661 187.318 112.375 187.256C148.684 187.194 158.601 192.855 188.183 172.399C217.764 151.944 221.863 101.801 197.078 63.9241C172.292 26.0471 142.486 15.8673 142.486 15.8673Z" fill="white"/>
<path d="M173.557 181.035C174.428 181.415 176.558 181.367 176.56 181.367C176.582 181.367 176.102 179.972 176.061 179.888C175.594 178.91 174.116 177.295 172.913 177.458C172.046 177.575 171.565 178.442 171.76 179.258C171.96 180.092 172.815 180.711 173.557 181.035Z" fill="#263238"/>
<path d="M174.292 187.206C175.196 187.338 177.097 186.787 177.249 186.742C177.549 187.806 177.944 188.874 178.402 189.933C178.663 190.539 178.946 191.14 179.236 191.74C179.063 191.486 178.906 191.26 178.88 191.231C178.171 190.411 176.319 189.244 175.202 189.719C174.397 190.061 174.161 191.025 174.565 191.76C174.978 192.511 175.966 192.882 176.767 192.999C177.58 193.118 179.21 192.68 179.641 192.558C179.755 192.787 179.865 193.017 179.98 193.245C180.531 194.342 181.085 195.433 181.596 196.521C181.776 196.904 181.94 197.288 182.105 197.671C181.95 197.446 181.819 197.257 181.795 197.23C181.086 196.411 179.234 195.244 178.116 195.719C177.312 196.06 177.076 197.024 177.48 197.759C177.893 198.51 178.881 198.882 179.682 198.998C180.458 199.111 181.966 198.721 182.478 198.579C182.635 198.977 182.793 199.375 182.927 199.767C183.013 200.038 183.114 200.292 183.184 200.568C183.261 200.84 183.335 201.109 183.41 201.376C183.534 201.894 183.666 202.429 183.774 202.938C183.853 203.291 183.921 203.629 183.99 203.97C183.816 203.586 183.457 202.843 183.42 202.784C182.844 201.866 181.189 200.433 180.013 200.732C179.166 200.948 178.787 201.865 179.075 202.653C179.369 203.458 180.29 203.975 181.064 204.211C181.916 204.472 183.803 204.234 184.039 204.203C184.152 204.767 184.257 205.316 184.348 205.836C184.396 206.112 184.438 206.37 184.481 206.63H185.232C185.176 206.331 185.118 206.024 185.055 205.704C184.943 205.131 184.811 204.521 184.669 203.896C184.811 203.839 185.616 203.514 186.33 203.115C186.951 203.788 188.543 204.575 188.749 204.675C188.532 205.208 188.316 205.724 188.104 206.208C188.041 206.354 187.98 206.49 187.917 206.63H188.708C188.728 206.582 188.747 206.536 188.768 206.488C188.99 205.948 189.217 205.366 189.444 204.767C189.672 204.814 191.54 205.194 192.411 204.997C193.201 204.819 194.157 204.372 194.511 203.591C194.857 202.827 194.547 201.884 193.718 201.606C192.567 201.219 190.811 202.526 190.168 203.398C190.13 203.45 189.78 204.054 189.566 204.439C189.658 204.194 189.749 203.956 189.84 203.702C190.024 203.202 190.193 202.697 190.376 202.154C190.455 201.89 190.535 201.622 190.616 201.351C190.702 201.084 190.759 200.792 190.832 200.51C190.989 199.853 191.115 199.18 191.228 198.498C191.667 198.658 193.233 199.203 194.044 199.146C194.851 199.089 195.864 198.792 196.332 198.074C196.79 197.371 196.627 196.393 195.849 195.991C194.77 195.435 192.837 196.461 192.068 197.226C192.02 197.273 191.531 197.884 191.268 198.224C191.333 197.814 191.399 197.406 191.45 196.988C191.6 195.785 191.713 194.562 191.832 193.343C191.868 192.969 191.909 192.597 191.948 192.225C192.104 192.283 193.951 192.971 194.86 192.907C195.667 192.851 196.681 192.554 197.148 191.836C197.606 191.133 197.443 190.154 196.665 189.754C195.586 189.197 193.652 190.223 192.884 190.988C192.827 191.045 192.123 191.925 191.955 192.157C192.042 191.337 192.136 190.521 192.261 189.72C192.432 188.615 192.662 187.54 192.961 186.515C193.033 186.542 194.958 187.268 195.889 187.203C196.696 187.147 197.71 186.85 198.177 186.131C198.635 185.429 198.471 184.45 197.694 184.049C196.615 183.492 194.682 184.518 193.913 185.283C193.853 185.343 193.097 186.289 192.972 186.471C192.99 186.41 193.002 186.345 193.021 186.285C193.354 185.194 193.813 184.18 194.29 183.251C194.566 182.711 194.861 182.21 195.158 181.729C195.503 181.901 197.086 182.67 197.93 182.704C198.739 182.736 199.779 182.553 200.322 181.891C200.854 181.242 200.799 180.252 200.071 179.768C199.06 179.096 197.025 179.903 196.177 180.579C196.131 180.616 195.704 181.041 195.397 181.355C195.534 181.14 195.672 180.916 195.808 180.712C196.315 179.948 196.827 179.279 197.286 178.69C197.55 178.358 197.794 178.062 198.026 177.788C198.452 177.78 200.17 177.728 200.921 177.375C201.653 177.031 202.492 176.389 202.669 175.551C202.842 174.73 202.337 173.876 201.468 173.783C200.261 173.653 198.827 175.307 198.386 176.297C198.348 176.383 197.905 177.789 197.928 177.789C197.928 177.789 197.949 177.789 197.954 177.789C197.725 178.048 197.484 178.328 197.225 178.64C196.753 179.22 196.225 179.88 195.699 180.637C195.171 181.392 194.619 182.226 194.116 183.158C193.611 184.092 193.128 185.1 192.764 186.202C192.76 186.215 192.757 186.228 192.753 186.241C192.759 185.885 192.743 184.89 192.733 184.814C192.594 183.739 191.693 181.744 190.499 181.523C189.64 181.364 188.911 182.038 188.843 182.875C188.773 183.729 189.392 184.584 189.996 185.123C190.677 185.731 192.567 186.32 192.717 186.367C192.38 187.42 192.12 188.529 191.919 189.664C191.803 190.314 191.706 190.971 191.618 191.632C191.613 191.324 191.607 191.049 191.602 191.011C191.463 189.936 190.562 187.941 189.368 187.72C188.508 187.561 187.78 188.235 187.712 189.071C187.642 189.925 188.261 190.78 188.864 191.319C189.477 191.866 191.078 192.401 191.504 192.537C191.473 192.79 191.439 193.043 191.408 193.297C191.263 194.515 191.123 195.731 190.949 196.92C190.888 197.339 190.813 197.75 190.738 198.16C190.734 197.887 190.728 197.657 190.724 197.622C190.584 196.547 189.684 194.552 188.49 194.332C187.63 194.173 186.902 194.847 186.833 195.683C186.763 196.537 187.382 197.391 187.986 197.931C188.57 198.453 190.044 198.96 190.55 199.124C190.461 199.542 190.373 199.961 190.268 200.363C190.191 200.635 190.135 200.903 190.042 201.172C189.955 201.441 189.869 201.707 189.784 201.97C189.602 202.471 189.417 202.99 189.227 203.474C189.097 203.812 188.967 204.132 188.838 204.454C188.903 204.038 189.014 203.22 189.016 203.151C189.032 202.431 188.777 201.26 188.268 200.437C188.271 200.331 188.265 200.225 188.248 200.119C188.115 199.291 187.337 198.676 186.492 198.901C185.319 199.213 184.575 201.272 184.52 202.355C184.516 202.418 184.558 203.115 184.592 203.555C184.533 203.299 184.479 203.051 184.415 202.789C184.291 202.27 184.153 201.756 184.007 201.202C183.927 200.937 183.846 200.67 183.764 200.4C183.689 200.13 183.575 199.855 183.481 199.579C183.249 198.945 182.983 198.313 182.701 197.683C183.155 197.574 184.762 197.165 185.407 196.669C186.049 196.177 186.73 195.37 186.724 194.514C186.718 193.675 186.043 192.949 185.173 193.043C183.966 193.174 182.919 195.096 182.7 196.158C182.686 196.225 182.615 197.004 182.584 197.433C182.411 197.055 182.241 196.678 182.054 196.301C181.515 195.215 180.935 194.132 180.361 193.05C180.185 192.718 180.014 192.386 179.842 192.053C180.004 192.016 181.924 191.571 182.647 191.016C183.289 190.523 183.97 189.717 183.964 188.86C183.958 188.022 183.282 187.295 182.413 187.39C181.206 187.521 180.159 189.443 179.939 190.505C179.923 190.585 179.822 191.706 179.81 191.993C179.43 191.261 179.058 190.528 178.721 189.791C178.254 188.775 177.852 187.752 177.536 186.732C177.611 186.715 179.617 186.259 180.358 185.691C181 185.198 181.681 184.392 181.675 183.535C181.669 182.696 180.993 181.97 180.124 182.064C178.917 182.196 177.87 184.118 177.651 185.179C177.634 185.262 177.526 186.469 177.522 186.689C177.503 186.629 177.477 186.568 177.459 186.507C177.135 185.414 176.959 184.314 176.844 183.276C176.777 182.673 176.746 182.094 176.728 181.529C177.111 181.482 178.856 181.25 179.578 180.812C180.271 180.393 181.037 179.667 181.124 178.814C181.211 177.98 180.618 177.184 179.744 177.182C178.53 177.18 177.278 178.975 176.944 180.006C176.926 180.063 176.804 180.653 176.721 181.084C176.717 180.829 176.708 180.566 176.709 180.322C176.711 179.404 176.769 178.563 176.826 177.819C176.862 177.397 176.903 177.015 176.946 176.659C177.297 176.417 178.701 175.426 179.132 174.718C179.554 174.027 179.898 173.029 179.584 172.232C179.276 171.451 178.383 171.018 177.607 171.419C176.529 171.977 176.245 174.148 176.423 175.216C176.439 175.309 176.846 176.726 176.864 176.714C176.864 176.714 176.881 176.702 176.885 176.699C176.838 177.041 176.791 177.409 176.748 177.811C176.674 178.556 176.598 179.397 176.576 180.319C176.552 181.239 176.552 182.241 176.647 183.295C176.741 184.352 176.893 185.459 177.198 186.579C177.202 186.592 177.207 186.605 177.211 186.618C177.02 186.318 176.457 185.496 176.407 185.438C175.698 184.619 173.846 183.452 172.729 183.926C171.924 184.268 171.688 185.232 172.092 185.967C172.504 186.718 173.492 187.089 174.292 187.206Z" fill="#263238"/>
<path d="M195.106 181.503C195.125 181.515 195.494 180.088 195.507 179.995C195.656 178.921 195.314 176.759 194.221 176.231C193.434 175.851 192.554 176.308 192.267 177.097C191.974 177.902 192.345 178.89 192.785 179.569C193.302 180.367 195.105 181.503 195.106 181.503Z" fill="#263238"/>
<path d="M169.744 206.629C169.066 200.933 164.651 189.647 158.312 186.478C151.595 183.119 146.557 190.796 134.562 196.313C122.568 201.831 125.686 192.235 113.211 184.798C100.737 177.361 99.0575 187.677 94.0195 190.076C88.8081 192.558 85.7343 183.436 84.5067 180.051C82.1065 173.433 79.309 167.759 73.0896 163.83C63.4808 157.762 47.0504 158.24 41.971 169.995C40.4455 173.526 40.996 180.005 37.1627 181.92C31.4035 184.798 16.5328 181.441 15.5732 191.036C15.241 194.359 16.2389 197.316 17.6848 199.764C18.105 201.036 18.4297 202.378 18.2123 203.031C17.7327 204.47 14.614 201.111 11.9749 202.791C10.262 203.881 9.05856 205.573 8.42188 206.629H169.744Z" fill="#407BFF"/>
<path d="M56.7482 173.484C56.7482 173.484 56.3337 175.403 57.1948 176.995C58.0558 178.587 59.2337 179.645 59.2337 179.645C59.2337 179.645 60.0886 176.616 56.7482 173.484Z" fill="white"/>
<path d="M40.6621 190.434C40.6621 190.434 42.1418 191.724 43.952 191.74C45.7621 191.755 47.2573 191.235 47.2573 191.235C47.2573 191.235 45.0185 189.023 40.6621 190.434Z" fill="white"/>
<path d="M24.9531 188.267C24.9531 188.267 26.4328 189.557 28.243 189.573C30.0532 189.588 31.5478 189.068 31.5478 189.068C31.5478 189.068 29.3091 186.856 24.9531 188.267Z" fill="white"/>
<path d="M38.4082 198.387C38.4082 198.387 40.2043 199.18 41.9374 198.657C43.6706 198.135 44.944 197.195 44.944 197.195C44.944 197.195 42.1495 195.746 38.4082 198.387Z" fill="white"/>
<path d="M22.457 196.361C22.457 196.361 24.2531 197.154 25.9858 196.632C27.719 196.109 28.9924 195.169 28.9924 195.169C28.9924 195.169 26.1984 193.721 22.457 196.361Z" fill="white"/>
<path d="M49.1348 199.215C49.1348 199.215 51.098 199.189 52.4563 197.993C53.815 196.797 54.582 195.412 54.582 195.412C54.582 195.412 51.4382 195.257 49.1348 199.215Z" fill="white"/>
<path d="M26.8184 204.896C26.8184 204.896 28.7816 204.87 30.1399 203.674C31.4982 202.477 32.2656 201.093 32.2656 201.093C32.2656 201.093 29.1218 200.939 26.8184 204.896Z" fill="white"/>
<path d="M44.6094 175.469C44.6094 175.469 45.0547 177.381 46.5137 178.452C47.9727 179.524 49.4894 179.977 49.4894 179.977C49.4894 179.977 48.968 176.873 44.6094 175.469Z" fill="white"/>
<path d="M76.615 174.051C76.615 174.051 74.671 174.326 73.4756 175.685C72.2801 177.045 71.6953 178.515 71.6953 178.515C71.6953 178.515 74.8334 178.269 76.615 174.051Z" fill="white"/>
<path d="M83.352 184.152C83.352 184.152 81.4328 183.739 79.8413 184.602C78.2498 185.464 77.1934 186.643 77.1934 186.643C77.1934 186.643 80.2228 187.495 83.352 184.152Z" fill="white"/>
<path d="M82.6927 195.626C82.6927 195.626 81.3089 194.234 79.5044 194.089C77.7 193.945 76.1719 194.356 76.1719 194.356C76.1719 194.356 78.2469 196.723 82.6927 195.626Z" fill="white"/>
<path d="M75.1751 201.783C75.1751 201.783 74.3782 199.989 72.7441 199.211C71.1099 198.433 69.5352 198.273 69.5352 198.273C69.5352 198.273 70.6303 201.223 75.1751 201.783Z" fill="white"/>
<path d="M71.2185 183.165C71.2185 183.165 69.2745 183.44 68.0791 184.8C66.8836 186.159 66.2988 187.63 66.2988 187.63C66.2988 187.63 69.4365 187.383 71.2185 183.165Z" fill="white"/>
<path d="M39.3711 180.634C39.3711 180.634 40.2361 182.396 41.8993 183.111C43.5625 183.825 45.1421 183.925 45.1421 183.925C45.1421 183.925 43.9339 181.019 39.3711 180.634Z" fill="white"/>
<path d="M67.088 171.346C67.088 171.346 65.5141 172.52 65.1168 174.286C64.7195 176.051 64.9118 177.623 64.9118 177.623C64.9118 177.623 67.5473 175.902 67.088 171.346Z" fill="white"/>
<path d="M61.1541 165.792C61.1541 165.792 60.2609 167.54 60.6842 169.3C61.1079 171.06 61.9743 172.385 61.9743 172.385C61.9743 172.385 63.578 169.677 61.1541 165.792Z" fill="white"/>
<path d="M48.3047 167.659C48.3047 167.659 48.3047 169.623 49.4826 170.997C50.6604 172.371 52.035 173.156 52.035 173.156C52.035 173.156 52.2312 170.015 48.3047 167.659Z" fill="white"/>
<path d="M104.456 188.436C104.456 188.436 104.216 189.55 104.716 190.474C105.216 191.399 105.9 192.013 105.9 192.013C105.9 192.013 106.396 190.254 104.456 188.436Z" fill="white"/>
<path d="M95.1152 198.278C95.1152 198.278 95.9746 199.027 97.0257 199.036C98.0769 199.045 98.945 198.743 98.945 198.743C98.945 198.743 97.6448 197.459 95.1152 198.278Z" fill="white"/>
<path d="M93.8066 202.896C93.8066 202.896 94.8494 203.357 95.8557 203.053C96.862 202.75 97.6016 202.204 97.6016 202.204C97.6016 202.204 95.9789 201.363 93.8066 202.896Z" fill="white"/>
<path d="M100.035 203.377C100.035 203.377 101.175 203.362 101.964 202.667C102.753 201.973 103.198 201.169 103.198 201.169C103.198 201.169 101.373 201.079 100.035 203.377Z" fill="white"/>
<path d="M97.4082 189.588C97.4082 189.588 97.6669 190.698 98.5139 191.32C99.3609 191.942 100.242 192.206 100.242 192.206C100.242 192.206 99.9391 190.403 97.4082 189.588Z" fill="white"/>
<path d="M115.993 188.765C115.993 188.765 114.865 188.925 114.17 189.714C113.476 190.504 113.137 191.358 113.137 191.358C113.137 191.358 114.958 191.214 115.993 188.765Z" fill="white"/>
<path d="M119.904 194.63C119.904 194.63 118.79 194.391 117.866 194.892C116.942 195.393 116.328 196.077 116.328 196.077C116.328 196.077 118.088 196.572 119.904 194.63Z" fill="white"/>
<path d="M119.521 201.293C119.521 201.293 118.717 200.484 117.669 200.401C116.622 200.317 115.734 200.556 115.734 200.556C115.734 200.556 116.939 201.93 119.521 201.293Z" fill="white"/>
<path d="M115.156 204.868C115.156 204.868 114.693 203.826 113.744 203.374C112.795 202.922 111.881 202.829 111.881 202.829C111.881 202.829 112.517 204.543 115.156 204.868Z" fill="white"/>
<path d="M112.858 194.058C112.858 194.058 111.73 194.217 111.036 195.007C110.341 195.796 110.002 196.65 110.002 196.65C110.002 196.65 111.824 196.507 112.858 194.058Z" fill="white"/>
<path d="M94.3652 192.588C94.3652 192.588 94.8677 193.611 95.8335 194.026C96.7993 194.441 97.7163 194.498 97.7163 194.498C97.7163 194.498 97.0149 192.811 94.3652 192.588Z" fill="white"/>
<path d="M110.46 187.194C110.46 187.194 109.547 187.876 109.316 188.901C109.085 189.927 109.197 190.839 109.197 190.839C109.197 190.839 110.727 189.84 110.46 187.194Z" fill="white"/>
<path d="M107.013 183.969C107.013 183.969 106.494 184.984 106.74 186.006C106.986 187.028 107.489 187.797 107.489 187.797C107.489 187.797 108.42 186.225 107.013 183.969Z" fill="white"/>
<path d="M99.5527 185.053C99.5527 185.053 99.5527 186.193 100.237 186.992C100.921 187.79 101.719 188.246 101.719 188.246C101.719 188.246 101.833 186.422 99.5527 185.053Z" fill="white"/>
<path d="M150.863 192.77C150.863 192.77 150.622 193.884 151.122 194.808C151.622 195.733 152.306 196.347 152.306 196.347C152.306 196.347 152.802 194.588 150.863 192.77Z" fill="white"/>
<path d="M141.521 202.612C141.521 202.612 142.381 203.361 143.432 203.37C144.483 203.379 145.351 203.077 145.351 203.077C145.351 203.077 144.051 201.792 141.521 202.612Z" fill="white"/>
<path d="M143.814 193.922C143.814 193.922 144.073 195.032 144.92 195.654C145.767 196.276 146.648 196.539 146.648 196.539C146.648 196.539 146.345 194.737 143.814 193.922Z" fill="white"/>
<path d="M162.397 193.099C162.397 193.099 161.269 193.258 160.575 194.048C159.88 194.837 159.541 195.691 159.541 195.691C159.541 195.691 161.363 195.548 162.397 193.099Z" fill="white"/>
<path d="M166.309 198.964C166.309 198.964 165.194 198.724 164.27 199.225C163.346 199.726 162.732 200.411 162.732 200.411C162.732 200.411 164.492 200.905 166.309 198.964Z" fill="white"/>
<path d="M165.927 205.627C165.927 205.627 165.123 204.818 164.076 204.734C163.028 204.65 162.141 204.89 162.141 204.89C162.141 204.89 163.345 206.264 165.927 205.627Z" fill="white"/>
<path d="M159.265 198.391C159.265 198.391 158.136 198.551 157.442 199.34C156.747 200.13 156.408 200.984 156.408 200.984C156.408 200.984 158.23 200.841 159.265 198.391Z" fill="white"/>
<path d="M140.771 196.921C140.771 196.921 141.274 197.944 142.24 198.359C143.206 198.774 144.123 198.832 144.123 198.832C144.123 198.832 143.421 197.145 140.771 196.921Z" fill="white"/>
<path d="M156.867 191.528C156.867 191.528 155.953 192.21 155.722 193.235C155.492 194.261 155.603 195.173 155.603 195.173C155.603 195.173 157.134 194.174 156.867 191.528Z" fill="white"/>
<path d="M153.421 188.303C153.421 188.303 152.902 189.318 153.148 190.34C153.394 191.362 153.897 192.131 153.897 192.131C153.897 192.131 154.829 190.559 153.421 188.303Z" fill="white"/>
<path d="M145.959 189.387C145.959 189.387 145.959 190.527 146.643 191.326C147.327 192.124 148.125 192.58 148.125 192.58C148.125 192.58 148.239 190.755 145.959 189.387Z" fill="white"/>
<path d="M52.7566 206.629H57.0285L55.1559 197.034L64.032 190.076L53.9564 194.875L51.0775 181.2L53.4764 206.15L47.2394 203.751L35.4844 199.193L48.4389 206.389L52.7566 206.629Z" fill="#A1A1A1"/>
<path d="M105.775 193.675L100.018 206.15L102.416 206.389L103.856 202.791L110.272 201.638L104.336 200.392L105.775 193.675Z" fill="#A1A1A1"/>
<path d="M148.236 199.672L151.595 206.389L152.18 202.76L148.236 199.672Z" fill="#A1A1A1"/>
<path d="M154.498 206.629L154.978 201.744L159.272 198.473L155.23 199.186L155.914 192.235L151.596 206.389L153.035 206.629H154.498Z" fill="#A1A1A1"/>
<path d="M83.1648 46.6087C83.1648 46.6087 82.4379 42.489 80.2564 42.0041C78.7648 41.6728 77.2745 42.1343 76.4803 42.4595C75.8331 41.0229 74.8783 39.6048 73.4707 38.6113C69.351 35.7033 66.9275 41.0348 66.9275 41.0348C66.9275 41.0348 64.2615 34.4915 58.4452 31.3407C52.6288 28.1903 47.0549 30.6138 44.8738 32.5525C42.6927 34.4911 40.9961 38.1264 40.7541 39.3381C40.5117 40.5499 39.5423 37.6415 36.1495 38.3688C32.7567 39.0961 30.8176 43.7007 30.8176 43.7007C30.8176 43.7007 29.1209 41.5197 26.9399 42.489C24.7588 43.4583 24.0315 45.8818 24.0315 45.8818L14.8223 48.0629H65.4729H77.8325H88.4959L83.1648 46.6087Z" stroke="#263238" stroke-miterlimit="10"/>
<path d="M188.236 138.58C188.236 138.58 187.632 135.153 185.818 134.75C184.577 134.475 183.337 134.859 182.677 135.129C182.138 133.935 181.344 132.755 180.174 131.928C176.747 129.51 174.731 133.944 174.731 133.944C174.731 133.944 172.514 128.501 167.676 125.881C162.839 123.26 158.202 125.276 156.388 126.889C154.574 128.502 153.163 131.525 152.961 132.533C152.76 133.541 151.953 131.122 149.132 131.727C146.309 132.332 144.697 136.162 144.697 136.162C144.697 136.162 143.286 134.348 141.472 135.154C139.658 135.96 139.053 137.976 139.053 137.976L131.393 139.79H173.522H183.803H192.672L188.236 138.58Z" stroke="#263238" stroke-miterlimit="10"/>
<path d="M82.3668 127.64C82.3668 127.64 82.1063 126.164 81.3249 125.99C80.7907 125.872 80.2566 126.037 79.9723 126.154C79.7404 125.639 79.3986 125.131 78.8943 124.775C77.4186 123.733 76.5505 125.643 76.5505 125.643C76.5505 125.643 75.5956 123.299 73.5118 122.171C71.4284 121.042 69.4317 121.91 68.6503 122.605C67.8688 123.299 67.2612 124.602 67.1745 125.036C67.0878 125.47 66.7407 124.428 65.5249 124.689C64.3097 124.949 63.6149 126.599 63.6149 126.599C63.6149 126.599 63.0073 125.817 62.2258 126.165C61.4444 126.512 61.1839 127.38 61.1839 127.38L57.8848 128.162H76.0295H80.4572H84.2773L82.3668 127.64Z" stroke="#263238" stroke-miterlimit="10"/>
<path d="M191.584 101.655C191.308 101.655 191.062 101.647 190.847 101.632C190.632 101.617 190.429 101.598 190.237 101.575C190.045 101.552 189.849 101.517 189.65 101.471C189.45 101.425 189.235 101.371 189.005 101.31C188.697 101.218 188.368 101.11 188.014 100.987C187.661 100.864 187.354 100.803 187.093 100.803C186.863 100.803 186.705 100.849 186.621 100.941C186.536 101.033 186.463 101.163 186.402 101.332H186.057V96.3802H186.31C186.556 97.5475 186.89 98.461 187.312 99.1214C187.734 99.7819 188.191 100.273 188.682 100.595C189.174 100.918 189.673 101.122 190.179 101.206C190.686 101.29 191.154 101.332 191.584 101.332V93.8467L190.249 93.4551C188.989 93.0864 188.045 92.5799 187.415 91.9349C186.785 91.2899 186.471 90.4455 186.471 89.4014C186.471 88.7106 186.594 88.0695 186.84 87.4781C187.085 86.8872 187.431 86.3803 187.876 85.9579C188.321 85.5355 188.855 85.2016 189.477 84.9561C190.099 84.7105 190.778 84.5878 191.515 84.5878H191.584V83.1829H191.907V84.5878C192.368 84.6186 192.755 84.6797 193.07 84.7721C193.384 84.8641 193.661 84.9644 193.899 85.0713C194.137 85.1791 194.352 85.2751 194.544 85.3591C194.736 85.4436 194.931 85.4858 195.131 85.4858C195.331 85.4858 195.465 85.459 195.534 85.4053C195.603 85.3516 195.699 85.2174 195.822 85.0023H196.145V89.1484H195.868C195.776 88.6265 195.63 88.1197 195.431 87.6282C195.231 87.1367 194.97 86.6993 194.648 86.3152C194.325 85.9315 193.937 85.6125 193.484 85.3595C193.032 85.1061 192.506 84.9565 191.907 84.9103V91.4289L193.818 91.9815C194.033 92.0431 194.36 92.1545 194.797 92.3155C195.235 92.477 195.672 92.7185 196.11 93.0411C196.548 93.3636 196.932 93.782 197.262 94.2964C197.592 94.8112 197.757 95.4597 197.757 96.2425C197.757 96.9491 197.622 97.6285 197.354 98.281C197.085 98.934 196.701 99.5095 196.202 100.008C195.703 100.508 195.092 100.907 194.371 101.206C193.649 101.505 192.828 101.655 191.907 101.655V103.268H191.584V101.655ZM191.584 84.9099H191.515C191.147 84.9099 190.74 84.96 190.295 85.0595C189.849 85.1593 189.435 85.3283 189.051 85.5663C188.667 85.8048 188.348 86.1269 188.095 86.5339C187.842 86.9409 187.715 87.4438 187.715 88.0427C187.715 88.5341 187.811 88.9526 188.003 89.298C188.195 89.6434 188.448 89.9395 188.763 90.1846C189.078 90.4305 189.435 90.6303 189.834 90.7834C190.233 90.937 190.632 91.0677 191.032 91.175L191.584 91.3365V84.9099ZM191.907 101.333C192.72 101.333 193.388 101.21 193.911 100.965C194.432 100.719 194.847 100.411 195.154 100.043C195.461 99.6749 195.676 99.2715 195.799 98.8341C195.922 98.3963 195.983 97.9933 195.983 97.625C195.983 97.0719 195.892 96.6037 195.707 96.2201C195.523 95.8364 195.289 95.5174 195.004 95.2639C194.72 95.0105 194.409 94.8072 194.072 94.6537C193.734 94.5001 193.411 94.3773 193.105 94.2849L191.907 93.9395V101.333Z" fill="#263238"/>
<path d="M202.08 98.2817C204.527 92.4838 201.811 85.8002 196.013 83.3535C190.215 80.9067 183.531 83.6233 181.085 89.4211C178.638 95.219 181.354 101.903 187.152 104.349C192.95 106.796 199.634 104.079 202.08 98.2817Z" stroke="#263238" stroke-miterlimit="10"/>
<path d="M98.7602 30.1558C98.5745 30.1558 98.4095 30.1506 98.2652 30.1404C98.1205 30.1299 97.9841 30.1171 97.8556 30.1017C97.7262 30.0863 97.5951 30.063 97.4613 30.0322C97.3271 30.0014 97.1828 29.9649 97.0284 29.924C96.822 29.8624 96.6003 29.7902 96.3635 29.7075C96.1264 29.6252 95.92 29.5838 95.7449 29.5838C95.5905 29.5838 95.4844 29.6146 95.4277 29.6767C95.3709 29.7387 95.3221 29.8263 95.2807 29.9398H95.0488V26.6147H95.2191C95.3837 27.3984 95.6081 28.0122 95.8919 28.4552C96.1752 28.8988 96.4819 29.2283 96.8119 29.4448C97.1419 29.6613 97.4767 29.7981 97.8173 29.8544C98.1574 29.9112 98.472 29.9394 98.7607 29.9394V24.9128L97.8635 24.6501C97.0178 24.4024 96.3838 24.0623 95.9609 23.6293C95.5381 23.1964 95.3269 22.6292 95.3269 21.9283C95.3269 21.4641 95.4092 21.0338 95.5746 20.6369C95.7392 20.24 95.9715 19.8999 96.2703 19.6161C96.569 19.3327 96.9276 19.1083 97.3452 18.9433C97.7627 18.7788 98.219 18.696 98.714 18.696H98.7602V17.7527H98.9767V18.696C99.286 18.7167 99.5465 18.7581 99.7577 18.8197C99.9689 18.8817 100.155 18.9486 100.315 19.0208C100.474 19.0929 100.619 19.1576 100.748 19.2139C100.877 19.2707 101.008 19.2988 101.142 19.2988C101.276 19.2988 101.366 19.2808 101.413 19.2447C101.459 19.2086 101.523 19.1184 101.606 18.9741H101.822V21.758H101.637C101.574 21.4078 101.476 21.0672 101.343 20.7372C101.208 20.4072 101.033 20.1133 100.817 19.8554C100.6 19.598 100.34 19.3838 100.036 19.2139C99.7318 19.0436 99.3789 18.9433 98.9767 18.9121V23.2892L100.26 23.6601C100.405 23.7015 100.624 23.7763 100.918 23.8845C101.211 23.9928 101.505 24.1551 101.799 24.3716C102.093 24.5881 102.351 24.8692 102.572 25.2146C102.794 25.56 102.905 25.9956 102.905 26.5214C102.905 26.9958 102.814 27.452 102.634 27.8903C102.454 28.3285 102.196 28.7153 101.861 29.0501C101.526 29.3854 101.116 29.6534 100.632 29.8544C100.147 30.0555 99.5958 30.1563 98.9771 30.1563V31.2387H98.7607L98.7602 30.1558ZM98.7602 18.9121H98.714C98.4663 18.9121 98.1931 18.9455 97.8943 19.0128C97.5951 19.0797 97.3166 19.1932 97.0592 19.353C96.8013 19.5131 96.5875 19.7296 96.4172 20.0024C96.2469 20.2756 96.162 20.6131 96.162 21.0153C96.162 21.3453 96.2263 21.626 96.3552 21.8583C96.4841 22.0902 96.6544 22.2891 96.8656 22.4536C97.0768 22.6186 97.3161 22.7528 97.5845 22.8558C97.8525 22.9588 98.1205 23.0468 98.3889 23.1185L98.7598 23.2267V18.9121H98.7602ZM98.9767 29.9394C99.5232 29.9394 99.9716 29.8571 100.322 29.6921C100.672 29.5271 100.951 29.3207 101.157 29.0734C101.363 28.8262 101.508 28.5556 101.59 28.2616C101.673 27.9677 101.714 27.6971 101.714 27.4498C101.714 27.0785 101.652 26.7643 101.528 26.5065C101.405 26.2486 101.247 26.0348 101.057 25.8645C100.866 25.6942 100.657 25.5578 100.43 25.4549C100.203 25.3519 99.9869 25.2692 99.781 25.2072L98.9767 24.9753V29.9394Z" fill="#263238"/>
<path d="M104.169 30.3232C107.157 27.3354 107.157 22.4913 104.169 19.5035C101.181 16.5157 96.337 16.5157 93.3493 19.5035C90.3615 22.4913 90.3615 27.3354 93.3493 30.3232C96.337 33.3109 101.181 33.3109 104.169 30.3232Z" stroke="#263238" stroke-miterlimit="10"/>
<path d="M107.86 152.443C107.674 152.443 107.509 152.437 107.365 152.427C107.22 152.417 107.084 152.404 106.955 152.389C106.826 152.373 106.695 152.35 106.561 152.319C106.427 152.288 106.282 152.252 106.128 152.211C105.922 152.149 105.7 152.077 105.463 151.994C105.226 151.912 105.02 151.871 104.845 151.871C104.69 151.871 104.584 151.902 104.527 151.964C104.471 152.026 104.422 152.113 104.38 152.227H104.148V148.902H104.319C104.483 149.685 104.708 150.299 104.991 150.742C105.275 151.186 105.582 151.515 105.912 151.732C106.242 151.949 106.576 152.085 106.917 152.142C107.257 152.199 107.572 152.227 107.86 152.227V147.2L106.963 146.937C106.117 146.69 105.483 146.35 105.061 145.917C104.638 145.484 104.427 144.917 104.427 144.216C104.427 143.751 104.509 143.321 104.674 142.924C104.839 142.527 105.071 142.187 105.37 141.903C105.669 141.62 106.027 141.396 106.445 141.231C106.862 141.066 107.319 140.983 107.814 140.983H107.86V140.04H108.076V140.983C108.386 141.004 108.646 141.045 108.857 141.107C109.069 141.169 109.254 141.236 109.414 141.308C109.574 141.38 109.718 141.445 109.847 141.501C109.976 141.558 110.108 141.586 110.242 141.586C110.376 141.586 110.466 141.568 110.512 141.532C110.558 141.496 110.623 141.406 110.705 141.261H110.922V144.045H110.736C110.674 143.695 110.576 143.355 110.442 143.025C110.308 142.695 110.133 142.401 109.916 142.143C109.7 141.885 109.439 141.671 109.135 141.501C108.831 141.331 108.478 141.231 108.076 141.199V145.577L109.36 145.947C109.504 145.989 109.723 146.064 110.017 146.172C110.311 146.28 110.605 146.442 110.899 146.659C111.193 146.875 111.45 147.157 111.672 147.502C111.893 147.847 112.005 148.283 112.005 148.809C112.005 149.283 111.914 149.739 111.734 150.178C111.553 150.616 111.295 151.003 110.961 151.337C110.625 151.673 110.216 151.941 109.731 152.142C109.246 152.343 108.695 152.443 108.076 152.443V153.526H107.86V152.443ZM107.86 141.199H107.814C107.566 141.199 107.293 141.232 106.994 141.3C106.695 141.367 106.416 141.48 106.159 141.64C105.901 141.8 105.687 142.017 105.517 142.289C105.347 142.563 105.262 142.9 105.262 143.302C105.262 143.632 105.326 143.913 105.455 144.145C105.584 144.377 105.754 144.576 105.965 144.741C106.176 144.906 106.416 145.04 106.684 145.143C106.952 145.246 107.22 145.334 107.488 145.406L107.859 145.514L107.86 141.199ZM108.076 152.226C108.623 152.226 109.071 152.144 109.422 151.979C109.772 151.814 110.051 151.608 110.257 151.36C110.463 151.113 110.608 150.842 110.69 150.549C110.772 150.255 110.814 149.984 110.814 149.737C110.814 149.365 110.752 149.051 110.628 148.793C110.504 148.536 110.347 148.322 110.156 148.151C109.965 147.981 109.757 147.845 109.53 147.742C109.303 147.639 109.087 147.556 108.881 147.494L108.076 147.262V152.226Z" fill="#263238"/>
<path d="M109.629 154.634C113.74 153.655 116.279 149.53 115.301 145.42C114.323 141.309 110.198 138.77 106.087 139.748C101.977 140.727 99.4375 144.852 100.416 148.962C101.394 153.073 105.519 155.612 109.629 154.634Z" stroke="#263238" stroke-miterlimit="10"/>
<path d="M28.039 102.138C27.7987 102.138 27.5849 102.131 27.3983 102.118C27.2113 102.105 27.0345 102.088 26.8677 102.068C26.7005 102.048 26.5302 102.018 26.3569 101.978C26.1831 101.938 25.9965 101.891 25.7959 101.838C25.5288 101.757 25.2419 101.664 24.9348 101.557C24.6277 101.45 24.3606 101.397 24.1335 101.397C23.9333 101.397 23.7965 101.437 23.723 101.517C23.6495 101.597 23.5862 101.711 23.5329 101.858H23.2324V97.5519H23.4529C23.6663 98.5665 23.9567 99.3612 24.3241 99.9349C24.691 100.509 25.0883 100.936 25.5156 101.217C25.9428 101.497 26.3767 101.674 26.8175 101.747C27.258 101.821 27.6654 101.857 28.039 101.857V95.3488L26.8774 95.0087C25.7822 94.6879 24.9612 94.2475 24.4143 93.6869C23.8665 93.1264 23.5932 92.392 23.5932 91.4843C23.5932 90.8837 23.6997 90.3262 23.914 89.8119C24.1274 89.2979 24.4275 88.8575 24.8151 88.4901C25.2023 88.1231 25.6665 87.8327 26.2068 87.6189C26.7476 87.4055 27.3385 87.2986 27.9791 87.2986H28.0394V86.0771H28.3197V87.2986C28.7201 87.3254 29.0571 87.3787 29.3308 87.4587C29.6041 87.5388 29.8447 87.6259 30.052 87.7192C30.2588 87.8129 30.4458 87.8961 30.6125 87.9696C30.7793 88.0431 30.9496 88.0796 31.1234 88.0796C31.2967 88.0796 31.4138 88.0563 31.4736 88.0096C31.5339 87.963 31.6171 87.8464 31.724 87.6589H32.0043V91.2634H31.7636C31.6835 90.8098 31.5563 90.3689 31.3834 89.9417C31.2096 89.5144 30.983 89.1338 30.7023 88.8003C30.422 88.4668 30.0845 88.1896 29.6907 87.9691C29.2969 87.7487 28.8398 87.6185 28.3193 87.5784V93.2461L29.9811 93.7265C30.1681 93.7802 30.4519 93.8766 30.8325 94.0169C31.2131 94.1573 31.5933 94.3676 31.9743 94.6479C32.3545 94.9282 32.6885 95.2921 32.9753 95.7391C33.2622 96.1866 33.4061 96.7502 33.4061 97.4313C33.4061 98.0456 33.2891 98.6365 33.0554 99.2037C32.8218 99.7713 32.4878 100.272 32.054 100.705C31.6201 101.14 31.0895 101.486 30.4621 101.747C29.8342 102.007 29.1205 102.138 28.3193 102.138V103.539H28.039V102.138ZM28.039 87.5793H27.9787C27.6579 87.5793 27.3042 87.6229 26.9174 87.7095C26.5298 87.7962 26.1694 87.9432 25.8359 88.15C25.5019 88.3572 25.2252 88.6375 25.0047 88.9913C24.7843 89.345 24.6743 89.7824 24.6743 90.3029C24.6743 90.7301 24.7575 91.094 24.9247 91.3945C25.0914 91.6951 25.3119 91.952 25.5855 92.1654C25.8588 92.3793 26.1694 92.5531 26.5166 92.6859C26.8633 92.8197 27.2105 92.9332 27.5581 93.0265L28.0385 93.1669L28.039 87.5793ZM28.3193 101.858C29.0268 101.858 29.6071 101.752 30.0617 101.538C30.5153 101.324 30.8757 101.057 31.1427 100.737C31.4098 100.416 31.5968 100.066 31.7037 99.6855C31.8102 99.3049 31.8639 98.9546 31.8639 98.6343C31.8639 98.1538 31.7838 97.7464 31.6237 97.4129C31.4635 97.0793 31.2598 96.8021 31.0125 96.5817C30.7657 96.3613 30.4951 96.1848 30.2016 96.0511C29.9077 95.9177 29.6274 95.8108 29.3607 95.7303L28.3193 95.4298V101.858Z" fill="#263238"/>
<path d="M28.0394 105.256C33.5107 105.256 37.946 100.821 37.946 95.3497C37.946 89.8785 33.5107 85.4431 28.0394 85.4431C22.5681 85.4431 18.1328 89.8785 18.1328 95.3497C18.1328 100.821 22.5681 105.256 28.0394 105.256Z" stroke="#263238" stroke-miterlimit="10"/>
<path d="M164.428 53.35C164.29 53.35 164.167 53.3461 164.06 53.3386C163.952 53.3307 163.851 53.3214 163.755 53.31C163.659 53.2985 163.561 53.2814 163.461 53.2581C163.361 53.2352 163.254 53.2079 163.139 53.1775C162.985 53.1318 162.82 53.0781 162.644 53.0165C162.467 52.9553 162.314 52.9245 162.183 52.9245C162.069 52.9245 161.99 52.9474 161.948 52.9936C161.905 53.0398 161.869 53.1049 161.838 53.1894H161.666V50.7153H161.793C161.915 51.2983 162.082 51.755 162.293 52.085C162.504 52.415 162.733 52.6605 162.978 52.8216C163.224 52.9826 163.473 53.0843 163.726 53.1265C163.979 53.1687 164.213 53.1899 164.428 53.1899V49.4494L163.761 49.2541C163.132 49.0697 162.66 48.8167 162.345 48.4946C162.031 48.1725 161.874 47.7506 161.874 47.2287C161.874 46.8833 161.935 46.563 162.058 46.2678C162.181 45.9725 162.353 45.7195 162.576 45.5083C162.798 45.2976 163.065 45.1304 163.376 45.0076C163.686 44.8849 164.026 44.8237 164.394 44.8237H164.429V44.1215H164.59V44.8237C164.82 44.8391 165.014 44.8699 165.171 44.9157C165.329 44.9619 165.467 45.0116 165.586 45.0653C165.705 45.1189 165.812 45.1669 165.908 45.2091C166.004 45.2514 166.102 45.2725 166.202 45.2725C166.301 45.2725 166.368 45.2593 166.403 45.2325C166.438 45.2056 166.485 45.1387 166.547 45.0309H166.708V47.1025H166.57C166.524 46.8415 166.451 46.5885 166.351 46.343C166.251 46.0975 166.121 45.8788 165.96 45.687C165.799 45.4951 165.605 45.3359 165.379 45.2096C165.153 45.0829 164.89 45.0081 164.591 44.9852V48.2421L165.546 48.5184C165.653 48.5492 165.817 48.6046 166.035 48.6851C166.254 48.7657 166.473 48.8867 166.691 49.0477C166.91 49.2087 167.102 49.4177 167.267 49.6747C167.432 49.9317 167.514 50.2559 167.514 50.6471C167.514 51 167.447 51.3397 167.313 51.6657C167.179 51.9917 166.987 52.2795 166.737 52.529C166.488 52.7785 166.183 52.9778 165.823 53.1274C165.462 53.277 165.052 53.3518 164.591 53.3518V54.1574H164.43V53.35H164.428ZM164.428 44.983H164.393C164.209 44.983 164.005 45.0081 163.783 45.0578C163.561 45.1075 163.353 45.192 163.162 45.3108C162.97 45.43 162.81 45.5911 162.684 45.7943C162.557 45.9976 162.494 46.2489 162.494 46.5481C162.494 46.7936 162.542 47.0026 162.638 47.1751C162.734 47.3475 162.861 47.4954 163.018 47.6181C163.175 47.7409 163.353 47.8408 163.553 47.9173C163.752 47.9939 163.951 48.0595 164.151 48.1131L164.427 48.1937L164.428 44.983ZM164.589 53.1885C164.995 53.1885 165.329 53.1274 165.59 53.0046C165.851 52.8819 166.058 52.7283 166.212 52.5444C166.365 52.36 166.473 52.1589 166.534 51.9403C166.595 51.7216 166.626 51.5201 166.626 51.3361C166.626 51.0598 166.58 50.8257 166.488 50.6339C166.396 50.4421 166.279 50.2828 166.136 50.1565C165.994 50.0298 165.839 49.9281 165.67 49.8516C165.501 49.775 165.34 49.7134 165.187 49.6672L164.589 49.4947V53.1885Z" fill="#263238"/>
<path d="M164.428 55.1417C167.572 55.1417 170.121 52.5928 170.121 49.4485C170.121 46.3043 167.572 43.7554 164.428 43.7554C161.283 43.7554 158.734 46.3043 158.734 49.4485C158.734 52.5928 161.283 55.1417 164.428 55.1417Z" stroke="#263238" stroke-miterlimit="10"/>
<path d="M192.703 158.617C192.565 158.617 192.442 158.613 192.335 158.606C192.227 158.598 192.126 158.589 192.03 158.577C191.934 158.566 191.836 158.549 191.737 158.525C191.637 158.502 191.529 158.475 191.414 158.445C191.261 158.399 191.096 158.345 190.919 158.284C190.743 158.223 190.589 158.192 190.459 158.192C190.344 158.192 190.265 158.215 190.223 158.261C190.181 158.307 190.144 158.372 190.114 158.457H189.941V155.982H190.068C190.191 156.566 190.358 157.022 190.569 157.352C190.78 157.682 191.008 157.927 191.253 158.088C191.499 158.249 191.748 158.352 192.001 158.393C192.254 158.436 192.489 158.457 192.703 158.457V154.716L192.036 154.521C191.407 154.337 190.935 154.084 190.62 153.761C190.306 153.439 190.149 153.017 190.149 152.496C190.149 152.15 190.21 151.83 190.333 151.535C190.456 151.239 190.628 150.986 190.851 150.775C191.074 150.564 191.34 150.397 191.651 150.274C191.961 150.152 192.301 150.091 192.669 150.091H192.704V149.388H192.865V150.091C193.095 150.106 193.288 150.137 193.446 150.183C193.603 150.229 193.741 150.278 193.86 150.332C193.979 150.386 194.087 150.434 194.183 150.476C194.278 150.518 194.376 150.539 194.476 150.539C194.576 150.539 194.643 150.526 194.678 150.499C194.712 150.472 194.76 150.406 194.821 150.298H194.982V152.369H194.844C194.798 152.108 194.725 151.855 194.626 151.61C194.526 151.364 194.396 151.146 194.234 150.954C194.073 150.762 193.879 150.603 193.653 150.476C193.427 150.35 193.164 150.275 192.865 150.252V153.509L193.82 153.785C193.928 153.816 194.091 153.871 194.31 153.952C194.528 154.032 194.747 154.153 194.966 154.315C195.184 154.476 195.376 154.685 195.541 154.942C195.706 155.199 195.789 155.523 195.789 155.914C195.789 156.267 195.722 156.607 195.587 156.933C195.453 157.259 195.261 157.547 195.012 157.796C194.762 158.046 194.458 158.245 194.097 158.395C193.736 158.544 193.326 158.619 192.866 158.619V159.425H192.705V158.617H192.703ZM192.703 150.251H192.669C192.485 150.251 192.281 150.276 192.059 150.325C191.836 150.375 191.629 150.46 191.437 150.578C191.246 150.698 191.086 150.859 190.96 151.062C190.833 151.265 190.77 151.517 190.77 151.816C190.77 152.061 190.818 152.27 190.914 152.443C191.01 152.616 191.136 152.764 191.294 152.886C191.451 153.009 191.629 153.109 191.829 153.185C192.028 153.262 192.227 153.328 192.427 153.381L192.703 153.462V150.251ZM192.865 158.456C193.271 158.456 193.605 158.395 193.866 158.272C194.126 158.149 194.333 157.996 194.487 157.812C194.641 157.628 194.748 157.426 194.809 157.208C194.87 156.989 194.901 156.787 194.901 156.603C194.901 156.327 194.855 156.093 194.763 155.902C194.671 155.71 194.554 155.55 194.412 155.424C194.27 155.297 194.114 155.196 193.946 155.119C193.777 155.043 193.616 154.981 193.463 154.935L192.864 154.762V158.456H192.865Z" fill="#263238"/>
<path d="M192.703 160.409C195.847 160.409 198.396 157.86 198.396 154.716C198.396 151.572 195.847 149.023 192.703 149.023C189.559 149.023 187.01 151.572 187.01 154.716C187.01 157.86 189.559 160.409 192.703 160.409Z" stroke="#263238" stroke-miterlimit="10"/>
<path d="M101.252 110.4L114.565 103.586V105.719H135.827V115.08H114.565V117.214L101.252 110.4Z" fill="#407BFF" stroke="#263238" stroke-miterlimit="10"/>
<path d="M171.388 110.4L158.074 103.586V105.719H136.812V115.08H158.074V117.214L171.388 110.4Z" fill="#407BFF" stroke="#263238" stroke-miterlimit="10"/>
<path d="M136.812 109.497L139.379 115.08H147.841L143.425 105.719H136.812V109.497Z" fill="#263238" stroke="#263238" stroke-miterlimit="10"/>
<path d="M101.252 84.1926L114.565 81.6705V83.8045L135.827 90.6593V100.02L114.565 93.1655V95.2991L101.252 84.1926Z" fill="#263238" stroke="#263238" stroke-miterlimit="10"/>
<path d="M101.252 46.4973L114.565 43.9757V46.1093L135.827 52.964V62.325L114.565 55.4703V57.6038L101.252 46.4973Z" fill="#263238" stroke="#263238" stroke-miterlimit="10"/>
<path d="M171.388 73.3031L158.074 71.2223V73.3558L136.812 80.915V90.2761L158.074 82.7168V84.8509L171.388 73.3031Z" fill="#407BFF" stroke="#263238" stroke-miterlimit="10"/>
<path d="M171.388 29.6168L158.074 27.536V29.6696L136.812 37.2288V46.5898L158.074 39.0306V41.1641L171.388 29.6168Z" fill="#407BFF" stroke="#263238" stroke-miterlimit="10"/>
<path d="M154.347 30.9944L136.812 37.2287V46.5897L154.347 40.3558V30.9944Z" fill="#263238" stroke="#263238" stroke-miterlimit="10"/>
<path d="M139.135 44.5737H134.527V195.308H139.135V44.5737Z" fill="#263238" stroke="#263238" stroke-miterlimit="10"/>
<path d="M146.394 181.319H129.326V206.63H146.394V181.319Z" fill="#263238" stroke="#263238" stroke-miterlimit="10"/>
<path d="M142.988 181.319H125.92V206.63H142.988V181.319Z" fill="#BFBFBF" stroke="#263238" stroke-miterlimit="10"/>
<path d="M148.444 70.4594H125.498C123.772 70.4594 122.373 69.0602 122.373 67.3345V19.9082C122.373 18.1821 123.772 16.7833 125.498 16.7833H148.444C150.17 16.7833 151.569 18.1825 151.569 19.9082V67.3345C151.569 69.0602 150.17 70.4594 148.444 70.4594Z" fill="#407BFF" stroke="#263238" stroke-miterlimit="10"/>
<path d="M146.679 68.0416H127.264C125.538 68.0416 124.139 66.6424 124.139 64.9167V22.3256C124.139 20.5994 125.538 19.2007 127.264 19.2007H146.679C148.405 19.2007 149.804 20.5999 149.804 22.3256V64.9162C149.804 66.6424 148.405 68.0416 146.679 68.0416Z" stroke="white" stroke-miterlimit="10"/>
<path d="M131.322 53.6394V47.266C132.804 46.1137 134.138 44.8289 135.324 43.4125C136.509 41.9966 137.448 40.4896 138.14 38.892C138.831 37.2948 139.177 35.6395 139.177 33.9266C139.177 32.7082 138.955 31.8269 138.51 31.2835C138.065 30.7401 137.414 30.4682 136.559 30.4682C135.768 30.4682 135.151 30.6992 134.706 31.1598C134.261 31.6214 134.039 32.2638 134.039 33.0866C134.039 33.6137 134.096 34.0832 134.212 34.4946C134.327 34.9069 134.466 35.3429 134.632 35.804L127.369 37.484C127.105 36.6933 126.9 35.9277 126.752 35.1867C126.604 34.4458 126.529 33.6634 126.529 32.8398C126.529 29.9419 127.41 27.6768 129.172 26.0466C130.934 24.416 133.462 23.6011 136.756 23.6011C140.083 23.6011 142.643 24.474 144.439 26.2195C146.233 27.9659 147.131 30.4519 147.131 33.6797C147.131 35.6558 146.802 37.5332 146.143 39.3117C145.484 41.0902 144.52 42.7701 143.253 44.351C141.985 45.932 140.445 47.4143 138.634 48.7977V53.6394H131.322ZM131.075 64.1625V56.5047H138.93V64.1625H131.075Z" fill="#263238" stroke="#263238" stroke-miterlimit="10"/>
<path d="M61.9327 95.4712L63.921 96.1048L64.0957 99.3986L62.6006 98.1169V99.3986C62.6006 99.3986 64.8437 104.952 66.9795 113.177C69.1157 121.401 69.436 126.634 69.2226 131.654C69.0088 136.674 68.582 140.092 68.582 140.092L66.1255 131.868L60.4648 99.2922L60.1445 96.7287L61.9327 95.4712Z" fill="#407BFF" stroke="#263238" stroke-miterlimit="10"/>
<path d="M61.4714 76.0435C61.4714 76.0435 63.4193 78.0939 63.5218 79.0165C63.6243 79.9392 63.1628 80.8619 63.4193 81.272C63.6758 81.6821 66.0848 84.04 65.9823 84.3476C65.8798 84.6551 64.6495 85.5268 64.6495 85.5268L60.7538 95.4197L51.6295 92.1391L52.6547 89.0635L48.5539 85.0142C48.5539 85.0142 48.2978 80.6058 51.4245 77.5302C54.5515 74.4546 61.4714 76.0435 61.4714 76.0435Z" fill="white" stroke="#263238" stroke-miterlimit="10"/>
<path d="M56.8571 78.1964C56.8571 78.1964 62.3417 76.4535 62.5982 74.5571C62.8543 72.6607 58.3949 71.5841 54.4991 72.4042C50.6034 73.2244 46.0925 77.5302 45.9389 81.1184C45.7849 84.7066 50.9624 88.2948 51.27 88.4488C51.5775 88.6028 51.5265 89.3715 52.1412 89.5765C52.7563 89.7816 52.9613 89.9351 53.7815 89.269C54.6016 88.6028 54.3966 86.706 54.3966 86.706C54.3966 86.706 52.0901 86.3469 51.7826 84.7581C51.475 83.1693 52.8592 82.3491 53.7819 82.8613C54.7046 83.3734 55.4733 85.2703 55.6788 85.8343C55.8838 86.398 55.8838 90.1402 57.2166 91.0629C58.5493 91.9855 63.0602 92.7542 64.444 92.7032C65.8278 92.6521 65.9818 92.1395 65.6742 91.0118C65.3667 89.8841 64.8541 87.6801 64.803 87.1671C64.7516 86.6545 65.2131 85.7318 64.6495 85.5268C64.0854 85.3217 62.7526 86.5009 61.3688 87.6282C59.985 88.7559 59.626 88.961 59.626 88.961C59.626 88.961 59.626 88.807 57.9346 86.0389C56.2428 83.2709 55.5252 81.9896 55.5252 81.8356C55.5252 81.6816 58.5493 81.323 58.2422 80.0417C57.9338 78.7605 56.8571 78.1964 56.8571 78.1964Z" fill="#263238" stroke="#263238" stroke-miterlimit="10"/>
<path d="M62.6851 80.4628C62.1333 80.5732 61.7439 80.5028 61.3145 80.6392" stroke="#263238" stroke-width="2" stroke-miterlimit="10" stroke-linecap="round"/>
<path d="M62.3926 87.6282C62.3926 87.6282 63.2638 88.1408 64.3405 87.9357" stroke="white" stroke-miterlimit="10"/>
<path d="M62.5914 82.5128C62.686 82.9414 62.6284 83.3184 62.4625 83.355C62.2966 83.3915 62.0854 83.0742 61.9908 82.6457C61.8962 82.2171 61.9539 81.84 62.1197 81.8035C62.2852 81.767 62.4964 82.0842 62.5914 82.5128Z" fill="#263238"/>
<path d="M51.5262 91.0629L61.9322 95.4712L61.1631 98.6494L50.6035 93.1133L51.5262 91.0629Z" fill="white" stroke="#263238" stroke-miterlimit="10"/>
<path d="M67.1926 131.227C67.1926 131.227 68.0712 144.324 68.0712 146.683C68.0712 149.042 66.5704 178.42 66.5704 181.636C66.5704 184.852 67.2137 196.432 67.2137 196.432L69.3582 198.147L69.5725 200.506C69.5725 200.506 71.7166 202.651 73.0036 202.865C74.2902 203.079 76.8633 203.294 76.8633 204.152C76.8633 205.009 75.5768 206.081 75.5768 206.081H64.4263H59.0653C59.0653 206.081 59.0653 202.65 59.0653 201.149C59.0653 199.649 59.2796 198.362 59.2796 198.362C59.2796 198.362 56.9208 186.353 56.9208 183.351C56.9208 180.349 56.9208 173.701 56.9208 172.629C56.9208 171.557 55.4199 143.252 55.4199 143.252L55.8489 130.171L67.1926 131.227Z" fill="#263238" stroke="#263238" stroke-miterlimit="10"/>
<path d="M47.4846 139.178C47.4846 139.178 48.7712 149.042 48.9854 149.685C49.1997 150.329 49.6287 162.122 49.4144 165.125C49.2002 168.127 47.6989 174.56 47.4846 180.564C47.2703 186.568 48.0993 206.058 48.0993 206.058H63.974C63.974 206.058 64.8606 203.722 64.0031 203.294C63.1455 202.865 57.8118 201.106 57.8118 201.106L57.9738 197.539L57.1628 194.863C57.1628 194.863 57.1628 178.971 58.8494 175.203C60.9684 170.469 64.6389 147.541 64.4246 140.679" fill="#263238"/>
<path d="M47.4846 139.178C47.4846 139.178 48.7712 149.042 48.9854 149.685C49.1997 150.329 49.6287 162.122 49.4144 165.125C49.2002 168.127 47.6989 174.56 47.4846 180.564C47.2703 186.568 48.0993 206.058 48.0993 206.058H63.974C63.974 206.058 64.8606 203.722 64.0031 203.294C63.1455 202.865 57.8118 201.106 57.8118 201.106L57.9738 197.539L57.1628 194.863C57.1628 194.863 57.1628 178.971 58.8494 175.203C60.9684 170.469 64.6389 147.541 64.4246 140.679" stroke="#263238" stroke-miterlimit="10"/>
<path d="M61.1621 98.6493C61.1621 98.6493 64.8418 104.632 65.6963 114.885C66.5508 125.139 67.1914 131.226 67.1914 131.226L62.7056 131.761L61.1621 98.6493Z" fill="white" stroke="#263238" stroke-miterlimit="10"/>
<path d="M50.6031 93.1133L49.4239 95.7273C49.4239 95.7273 45.9299 103.647 46.0271 105.401C46.1244 107.155 47.9754 124.886 47.9754 124.886L43.8848 143.901C43.8848 143.901 49.7293 147.833 55.2825 148.32C60.8358 148.807 64.343 147.638 64.343 147.638C64.343 147.638 64.9278 135.407 64.343 127.614C63.7587 119.82 62.979 105.888 62.297 103.063C61.615 100.237 61.1622 98.6494 61.1622 98.6494L50.6031 93.1133Z" fill="#407BFF" stroke="#263238" stroke-miterlimit="10"/>
<path d="M49.4238 95.7273L58.1693 99.5632L62.7149 121.066" stroke="#263238" stroke-miterlimit="10"/>
<path d="M57.9801 100.939C57.9801 100.939 53.9576 97.4908 52.8084 97.2994C51.6591 97.108 48.0198 101.705 47.6366 102.854C47.6366 102.854 46.1041 111.665 46.2959 117.603C46.4873 123.541 51.4677 145.185 51.4677 145.185L57.9801 144.419L56.6394 123.541L57.4055 108.792" fill="#407BFF"/>
<path d="M57.9801 100.939C57.9801 100.939 53.9576 97.4908 52.8084 97.2994C51.6591 97.108 48.0198 101.705 47.6366 102.854C47.6366 102.854 46.1041 111.665 46.2959 117.603C46.4873 123.541 51.4677 145.185 51.4677 145.185L57.9801 144.419L56.6394 123.541L57.4055 108.792" stroke="#263238" stroke-miterlimit="10"/>
<path d="M52.3086 145.033L52.8331 146.869L57.6414 146.17L57.3792 144.509L52.3086 145.033Z" fill="white" stroke="#263238" stroke-miterlimit="10"/>
<path d="M51.5137 151.064V153.801H52.3259V152.026H61.4471V153.801H62.2589V151.064H51.5137Z" fill="white" stroke="#263238" stroke-miterlimit="10"/>
<path d="M70.9764 174.848H42.3328C41.7714 174.848 41.3164 174.393 41.3164 173.831V154.45C41.3164 153.888 41.7714 153.433 42.3328 153.433H70.9764C71.5378 153.433 71.9928 153.888 71.9928 154.45V173.831C71.9928 174.393 71.5378 174.848 70.9764 174.848Z" fill="#BFBFBF" stroke="#263238" stroke-miterlimit="10"/>
<path d="M57.6404 146.17L58.2524 147.656L59.5636 149.055L60.0881 152.639L58.1648 153.164L57.203 152.639C57.203 152.639 54.6677 152.814 54.2308 152.552C53.7939 152.289 52.832 146.869 52.832 146.869L57.6404 146.17Z" fill="white" stroke="#263238" stroke-miterlimit="10"/>
<path d="M4.88281 206.629H212.729" stroke="#263238" stroke-miterlimit="10"/>
</svg>
