<svg width="56" height="57" viewBox="0 0 56 57" fill="none" xmlns="http://www.w3.org/2000/svg">
<g clip-path="url(#clip0_560_25524)">
<path d="M29.3472 30.6457C29.471 22.4618 29.2303 14.2779 29.361 6.09411C29.3816 4.76681 27.3185 4.76681 27.2978 6.09411C27.1741 14.2779 27.4148 22.4618 27.2841 30.6457C27.2635 31.973 29.3266 31.973 29.3472 30.6457Z" fill="#011C67"/>
<path d="M41.7469 20.4605C39.3536 18.6793 36.1282 18.3836 33.4255 19.6077C32.1188 20.1991 30.9978 21.1482 30.1588 22.3104C29.5399 23.1632 28.522 25.0132 29.4298 25.9416C30.6746 27.207 32.6002 28.1629 34.3402 28.4174C36.8641 28.7888 39.0029 27.6265 40.454 25.6046C41.2861 24.4492 41.9188 23.0188 42.2214 21.6227C42.5034 20.3298 40.5159 19.7728 40.2339 21.0725C40.1376 21.5058 40.0001 21.9253 39.8488 22.3379C39.6975 22.7437 39.6218 22.9294 39.3811 23.4039C39.1611 23.8303 38.886 24.2911 38.6109 24.6556C37.9782 25.4808 37.1254 26.1548 36.0732 26.368C34.911 26.6087 33.6937 26.2373 32.6759 25.694C32.1738 25.4258 31.6924 25.1163 31.2385 24.7725C31.3898 24.8894 31.2248 24.7587 31.1698 24.7175C31.1148 24.6762 31.0666 24.628 31.0116 24.5868C30.9566 24.5455 30.9084 24.4974 30.8603 24.4492C30.9635 24.6899 31.0597 24.9375 31.1629 25.1782C31.2867 23.3145 33.3086 21.7534 34.9453 21.2238C36.9397 20.5774 39.0442 21.0106 40.7153 22.2485C41.1623 22.5786 41.8638 22.3242 42.1251 21.8772C42.4209 21.3476 42.1939 20.7906 41.7469 20.4605Z" fill="#011C67"/>
<path d="M19.3823 17.9504C20.5239 17.1045 21.8718 16.8363 23.1923 17.2627C24.1894 17.5859 25.5511 18.6037 25.6199 19.7453C25.7231 19.5046 25.8193 19.2571 25.9225 19.0164C25.8331 19.0989 25.7368 19.1745 25.6474 19.2571C25.5305 19.3602 25.8469 19.1126 25.6405 19.2571C25.5855 19.2983 25.5305 19.3396 25.4686 19.3808C25.3104 19.4909 25.1523 19.594 24.9872 19.6903C24.829 19.7866 24.664 19.876 24.4989 19.9517C24.4577 19.9723 24.1895 20.0892 24.3339 20.0273C24.2238 20.0686 24.1069 20.1098 23.9969 20.1511C23.7975 20.213 23.5911 20.268 23.3848 20.3024C23.206 20.3299 23.5155 20.2955 23.3367 20.3093C23.2817 20.3161 23.2266 20.3161 23.1716 20.323C23.041 20.3299 22.9172 20.3299 22.7865 20.323C22.7315 20.323 22.6765 20.3161 22.6215 20.3093C22.649 20.3161 22.7315 20.3299 22.6146 20.3024C22.4839 20.2749 22.3464 20.2405 22.2226 20.1992C22.1607 20.1786 21.9681 20.0961 22.1263 20.1648C22.03 20.1167 21.9337 20.0686 21.8443 20.0204C21.7549 19.9654 21.6655 19.9104 21.583 19.8485C21.4248 19.7453 21.6518 19.9241 21.5142 19.7935C21.3629 19.6491 21.2185 19.5184 21.081 19.3602C21.0259 19.2983 20.9709 19.2296 20.9159 19.1608C21.0259 19.2983 20.9159 19.1539 20.8746 19.092C20.7646 18.9338 20.6614 18.7688 20.5652 18.5968C20.4895 18.4593 20.4139 18.3149 20.3451 18.1773C20.3038 18.1017 20.2694 18.0192 20.2351 17.9366C20.1319 17.7166 20.2763 18.0467 20.2144 17.8885C20.0769 17.524 19.9393 17.1595 19.8568 16.7813C19.7399 16.238 19.1072 15.9216 18.5845 16.0592C18.0206 16.2173 17.7455 16.7881 17.8693 17.3314C18.4057 19.7866 20.2351 22.3518 22.9584 22.3862C24.5402 22.4068 26.0394 21.6159 27.2154 20.6187C27.3461 20.5087 27.4561 20.4124 27.5455 20.2611C27.91 19.6353 27.5318 18.6931 27.2292 18.1154C26.7615 17.2077 25.9775 16.4443 25.1247 15.9079C23.0685 14.615 20.297 14.7112 18.3438 16.1623C17.8968 16.4924 17.6699 17.0564 17.9725 17.5721C18.2269 18.0192 18.9284 18.2805 19.3823 17.9504Z" fill="#011C67"/>
<path d="M36.5339 8.4462C34.9866 7.56592 33.0128 7.54529 31.4861 8.48746C30.7708 8.9276 30.145 9.55343 29.7324 10.2962C29.5329 10.6607 29.3679 11.0595 29.2991 11.4653C29.196 12.0842 29.2235 12.6482 29.7805 13.0402C30.6471 13.6522 31.7612 14.058 32.8271 14.0786C34.3263 14.1061 35.5986 13.2259 36.2863 11.9261C36.7127 11.1283 36.9672 10.2343 37.0497 9.33336C37.0979 8.79693 36.5408 8.28115 36.0181 8.30178C35.4198 8.32929 35.0416 8.75567 34.9866 9.33336C34.9659 9.58093 35.0416 9.01013 34.9934 9.29209C34.9659 9.46402 34.9315 9.64283 34.8903 9.81476C34.8353 10.0486 34.7596 10.2824 34.6771 10.5094C34.6633 10.5437 34.5671 10.7707 34.6427 10.6125C34.7183 10.4475 34.6083 10.6813 34.5946 10.7157C34.5327 10.8463 34.457 10.9839 34.3814 11.1077C34.347 11.1627 34.3126 11.2177 34.2782 11.2727C34.2851 11.2659 34.2026 11.3759 34.2026 11.3759C34.2026 11.369 34.3401 11.2177 34.2645 11.2934C34.1613 11.4103 34.065 11.5272 33.9481 11.6303C33.9137 11.6579 33.8793 11.6854 33.8449 11.7198C33.7624 11.8023 33.9206 11.651 33.9206 11.6647C33.9206 11.6785 33.7693 11.7679 33.7487 11.7748C33.6799 11.816 33.6042 11.8435 33.5355 11.8917C33.4598 11.9467 33.5767 11.8779 33.5905 11.871C33.5217 11.8917 33.4598 11.9192 33.3911 11.9398C33.3085 11.9605 33.226 11.9742 33.1504 12.0017C33.0059 12.043 33.3292 11.9948 33.1847 12.0017C33.1435 12.0017 33.1022 12.0086 33.0609 12.0086C32.9922 12.0155 32.5245 11.9673 32.5039 11.9948C32.5108 11.988 32.7033 12.0292 32.5864 12.0017C32.5383 11.988 32.4833 11.9811 32.4351 11.9742C32.3595 11.9605 32.2907 11.9398 32.2151 11.9192C32.0431 11.871 31.8712 11.8092 31.6993 11.7541C31.5342 11.6922 31.8781 11.8435 31.6718 11.7404C31.5961 11.706 31.5273 11.6716 31.4517 11.6372C31.3348 11.5822 31.2247 11.5134 31.1147 11.4515C31.0047 11.3896 30.8946 11.3209 30.7915 11.2452C30.9634 11.5409 31.1353 11.8367 31.3004 12.1393C31.2935 12.0567 31.3004 11.9742 31.3004 11.8917C31.2935 11.7541 31.2591 12.0017 31.3073 11.871C31.3348 11.7954 31.3485 11.706 31.376 11.6303C31.3967 11.5685 31.4242 11.4928 31.3829 11.596C31.4448 11.4515 31.5205 11.3209 31.603 11.1902C31.6305 11.1421 31.6649 11.0939 31.6993 11.0458C31.713 11.0252 31.8574 10.8395 31.7749 10.9358C31.6924 11.0389 31.8643 10.8395 31.8643 10.8395C31.9056 10.7982 31.9468 10.7569 31.9881 10.7088C32.0775 10.6125 32.1807 10.53 32.2769 10.4406C32.3595 10.3581 32.1532 10.5231 32.3113 10.4131C32.3595 10.3787 32.4076 10.3443 32.4558 10.3168C32.5795 10.2343 32.7033 10.1655 32.834 10.0967C32.889 10.0692 32.9372 10.0486 32.9922 10.0211C32.8615 10.083 32.944 10.0417 33.0334 10.0142C33.1641 9.96606 33.2948 9.93167 33.4254 9.89729C33.4873 9.88353 33.5492 9.86978 33.6111 9.85602C33.8931 9.801 33.508 9.84914 33.6661 9.84914C33.8106 9.84914 33.955 9.82851 34.0994 9.83539C34.1819 9.83539 34.2576 9.84227 34.3401 9.84914C34.3814 9.85602 34.5946 9.89041 34.3951 9.84914C34.5395 9.87665 34.6771 9.90416 34.8146 9.93855C34.9522 9.97981 35.0897 10.0211 35.2204 10.0761C35.1241 10.0348 35.1654 10.0555 35.2341 10.0898C35.3167 10.1311 35.4061 10.1793 35.4886 10.2274C35.9562 10.4956 36.6371 10.3512 36.8984 9.85602C37.1666 9.36774 37.036 8.72816 36.5339 8.4462Z" fill="#011C67"/>
<path d="M40.2065 29.8616C40.2065 29.8547 40.2065 29.8547 40.2065 29.8478C40.1721 29.8478 40.1102 29.8478 40.0277 29.8478C39.3537 29.8478 37.0361 29.8478 34.1683 29.8478C27.8619 29.8478 22.3327 29.8478 22.3327 29.8478C19.5612 29.8478 16.3289 29.8478 16.2945 29.8478C16.2945 29.8547 16.2945 29.8547 16.2945 29.8616C15.5311 29.9235 14.5752 30.3911 14.5752 31.4365C14.5752 32.5643 14.5752 34.6963 14.5752 35.3977C14.5752 36.7457 16.1157 36.3537 16.2257 37.0345C16.6521 39.641 18.0551 47.1371 18.3233 48.3062C18.5915 49.496 18.7978 51.0777 20.2764 51.0777C20.7303 51.0777 34.8492 51.0777 36.1558 51.0777C37.4625 51.0777 37.6275 49.6885 37.9714 48.3062C38.3084 46.9239 39.787 39.8129 40.2821 37.0345C40.3991 36.3605 41.9327 36.7457 41.9327 35.3977C41.9327 34.7031 41.9327 32.5643 41.9327 31.4365C41.9327 30.3911 40.9767 29.9235 40.2065 29.8616Z" fill="#9A9EF5"/>
<path d="M20.0358 38.2175C25.3862 38.1143 30.7367 38.0731 36.0871 38.0937C37.4144 38.1006 37.4144 36.0374 36.0871 36.0305C30.7367 36.0099 25.3862 36.0512 20.0358 36.1543C18.7085 36.1818 18.7085 38.245 20.0358 38.2175Z" fill="#011C67"/>
<path d="M21.308 52.0269C24.609 52.1438 27.917 52.1782 31.218 52.1232C32.7791 52.0956 34.3471 52.1094 35.9014 51.9856C37.2287 51.8825 38.1915 51.3529 38.7073 50.0738C39.3125 48.5676 39.5257 46.8415 39.8626 45.2528C40.2271 43.5198 40.5916 41.7799 40.9355 40.0399C41.1968 38.7401 39.2093 38.19 38.948 39.4898C38.3428 42.5157 37.7789 45.5692 37.0224 48.5539C36.933 48.9046 36.8436 49.5167 36.5272 49.7574C36.1146 50.0669 35.2756 49.9362 34.8079 49.9568C33.3293 50.0119 31.8438 50.0462 30.3652 50.06C27.3461 50.0944 24.3271 50.0531 21.308 49.95C19.9807 49.9225 19.9807 51.9856 21.308 52.0269Z" fill="#011C67"/>
</g>
<defs>
<clipPath id="clip0_560_25524">
<rect width="56" height="56" fill="white" transform="translate(0 0.885315)"/>
</clipPath>
</defs>
</svg>
