<svg width="14" height="14" viewBox="0 0 14 14" fill="none" xmlns="http://www.w3.org/2000/svg">
<path d="M1.82422 8.2C1.82422 7.07989 1.82422 6.51984 2.04221 6.09202C2.23395 5.71569 2.53991 5.40973 2.91624 5.21799C3.34406 5 3.90411 5 5.02422 5H9.29088C10.411 5 10.971 5 11.3989 5.21799C11.7752 5.40973 12.0812 5.71569 12.2729 6.09202C12.4909 6.51984 12.4909 7.0799 12.4909 8.2V8.2C12.4909 9.88016 12.4909 10.7202 12.1639 11.362C11.8763 11.9265 11.4173 12.3854 10.8529 12.673C10.2111 13 9.37104 13 7.69089 13H6.62422C4.94406 13 4.10398 13 3.46225 12.673C2.89776 12.3854 2.43882 11.9265 2.1512 11.362C1.82422 10.7202 1.82422 9.88016 1.82422 8.2V8.2Z" stroke="#D61919" stroke-width="2"/>
<path d="M9.82552 4.33333V3.66667C9.82552 2.19391 8.63161 1 7.15885 1V1C5.6861 1 4.49219 2.19391 4.49219 3.66667V4.33333" stroke="#D61919" stroke-width="2" stroke-linecap="round"/>
<circle cx="7.15755" cy="8.99996" r="1.33333" fill="#D61919"/>
</svg>
