<svg width="31" height="30" viewBox="0 0 31 30" fill="none" xmlns="http://www.w3.org/2000/svg">
<g id="Search_alt_fill">
<path id="Subtract" fill-rule="evenodd" clip-rule="evenodd" d="M13.9062 22.5C18.7387 22.5 22.6562 18.5825 22.6562 13.75C22.6562 8.91751 18.7387 5 13.9062 5C9.07376 5 5.15625 8.91751 5.15625 13.75C5.15625 18.5825 9.07376 22.5 13.9062 22.5ZM13.9062 7.75C13.1183 7.75 12.3381 7.90519 11.6101 8.20672C10.8822 8.50825 10.2208 8.95021 9.66361 9.50736C9.10646 10.0645 8.6645 10.7259 8.36297 11.4539C8.06144 12.1819 7.90625 12.9621 7.90625 13.75C7.90625 14.3023 8.35397 14.75 8.90625 14.75C9.45853 14.75 9.90625 14.3023 9.90625 13.75C9.90625 13.2247 10.0097 12.7046 10.2107 12.2193C10.4118 11.734 10.7064 11.293 11.0778 10.9216C11.4493 10.5501 11.8902 10.2555 12.3755 10.0545C12.8608 9.85346 13.381 9.75 13.9062 9.75C14.4585 9.75 14.9062 9.30228 14.9062 8.75C14.9062 8.19772 14.4585 7.75 13.9062 7.75Z" fill="#222222"/>
<path id="Vector 109" d="M25.1562 25L22.6562 22.5" stroke="#222222" stroke-width="2" stroke-linecap="round"/>
</g>
</svg>
