<svg width="280" height="280" viewBox="0 0 280 280" fill="none" xmlns="http://www.w3.org/2000/svg">
<path d="M280 214.143H0V214.283H280V214.143Z" fill="#EBEBEB"/>
<path d="M251.945 223.157H233.396V223.297H251.945V223.157Z" fill="#EBEBEB"/>
<path d="M185.483 224.676H180.615V224.816H185.483V224.676Z" fill="#EBEBEB"/>
<path d="M232.835 217.956H222.088V218.096H232.835V217.956Z" fill="#EBEBEB"/>
<path d="M53.565 218.897H29.377V219.037H53.565V218.897Z" fill="#EBEBEB"/>
<path d="M62.0973 218.897H58.5508V219.037H62.0973V218.897Z" fill="#EBEBEB"/>
<path d="M126.082 221.262H73.623V221.402H126.082V221.262Z" fill="#EBEBEB"/>
<path d="M132.728 189.168H24.593C22.8306 189.168 21.3965 187.734 21.3965 185.971V33.9696C21.3965 32.2072 22.8306 30.7731 24.593 30.7731H132.728C134.49 30.7731 135.924 32.2072 135.924 33.9696V185.971C135.924 187.734 134.49 189.168 132.728 189.168ZM24.593 30.9136C22.9074 30.9136 21.5365 32.2845 21.5365 33.9701V185.972C21.5365 187.658 22.9074 189.029 24.593 189.029H132.728C134.413 189.029 135.784 187.658 135.784 185.972V33.9696C135.784 32.2845 134.413 30.9131 132.728 30.9131L24.593 30.9136Z" fill="#EBEBEB"/>
<path d="M253.854 189.168H145.719C143.957 189.168 142.523 187.734 142.523 185.971V33.9696C142.523 32.2072 143.958 30.7731 145.719 30.7731H253.854C255.617 30.7731 257.051 32.2072 257.051 33.9696V185.971C257.051 187.734 255.617 189.168 253.854 189.168ZM145.719 30.9136C144.034 30.9136 142.663 32.2845 142.663 33.9701V185.972C142.663 187.658 144.034 189.029 145.719 189.029H253.854C255.54 189.029 256.911 187.658 256.911 185.972V33.9696C256.911 32.2845 255.54 30.9131 253.854 30.9131L145.719 30.9136Z" fill="#EBEBEB"/>
<path d="M173.313 210.881H161.492L167.707 160.271C167.97 158.129 169.92 156.392 172.062 156.392H176.124H223.639L216.078 210.881H173.313Z" fill="#F5F5F5"/>
<path d="M210.801 210.881H222.621L228.836 160.271C229.099 158.129 227.575 156.392 225.433 156.392H221.371C219.228 156.392 217.278 158.129 217.016 160.271L210.801 210.881Z" fill="#F0F0F0"/>
<path d="M206.447 210.821L208.588 186.342C208.684 185.249 209.528 184.37 210.617 184.231L211.498 184.118C212.959 183.932 214.092 182.753 214.22 181.287L214.611 176.823C214.771 174.994 213.329 173.42 211.493 173.42H231.247C233.083 173.42 234.525 174.994 234.365 176.823L233.975 181.287C233.847 182.753 232.713 183.932 231.253 184.118L230.373 184.231C229.284 184.37 228.439 185.249 228.344 186.342L226.202 210.821C226.046 212.606 224.552 213.975 222.76 213.975H203.006C204.796 213.975 206.291 212.606 206.447 210.821Z" fill="#E6E6E6"/>
<path d="M152.084 180.214C151.747 176.37 148.529 173.421 144.67 173.421H154.229H161.868C165.727 173.421 168.945 176.37 169.282 180.214L170.98 199.619H153.782L152.084 180.214Z" fill="#E6E6E6"/>
<path d="M137.03 173.421H144.67C148.529 173.421 151.747 176.37 152.083 180.215L153.781 199.619H194.741L196.439 180.215C196.775 176.37 199.994 173.421 203.853 173.421H211.492C213.328 173.421 214.77 174.995 214.61 176.824L214.22 181.288C214.092 182.754 212.958 183.933 211.498 184.119L210.617 184.232C209.528 184.371 208.683 185.25 208.588 186.343L206.447 210.822C206.29 212.607 204.796 213.976 203.005 213.976H145.518C143.727 213.976 142.232 212.607 142.076 210.822L139.935 186.343C139.839 185.25 138.995 184.371 137.906 184.232L137.025 184.119C135.565 183.933 134.431 182.754 134.303 181.288L133.913 176.824C133.752 174.994 135.194 173.421 137.03 173.421Z" fill="#F0F0F0"/>
<path d="M51.8061 73.5543C51.8061 73.5543 51.1498 69.2277 54.3054 66.4535C57.461 63.6792 57.1838 62.0289 56.2822 61.8139C55.3806 61.5988 54.5484 64.3731 53.1613 65.1358C53.1613 65.1358 53.1176 61.1827 54.5266 59.7262C55.9355 58.2696 56.6747 54.5176 55.3341 54.4521C53.9934 54.386 53.8546 56.6803 53.5774 58.3077C53.3002 59.9345 51.8061 62.2232 51.8061 62.2232C51.8061 62.2232 51.5143 58.6863 50.6038 57.2297C49.6932 55.7731 52.1208 52.4439 51.1845 50.9879C50.2482 49.5314 48.5838 52.3056 48.7222 55.4265C48.861 58.5474 50.9414 61.8766 50.4559 65.1363C50.4559 65.1363 49.5381 62.8476 48.7138 62.6393C47.8894 62.431 47.0573 60.9173 46.5023 60.3567C45.9474 59.7956 45.2541 61.7377 46.5023 63.5409C47.7506 65.3441 50.9409 70.1685 50.4554 74.0678L51.8061 73.5543Z" fill="#E6E6E6"/>
<path d="M53.6918 71.5858L54.725 78.0706C55.0442 80.0732 53.4969 81.8865 51.4686 81.8865H50.3665C48.3387 81.8865 46.7914 80.0732 47.1101 78.0706L48.1433 71.5858H53.6918Z" fill="#E6E6E6"/>
<path d="M38.0621 83.2465L111.107 83.2465V79.4933L38.0621 79.4933V83.2465Z" fill="#E0E0E0"/>
<path d="M104.528 79.4935H107.746V65.6593H104.528V79.4935Z" fill="#EBEBEB"/>
<path d="M88.9672 79.4935H92.1855V65.6593H88.9672V79.4935Z" fill="#EBEBEB"/>
<path d="M68.9475 78.9483L72.1191 79.4948L74.4682 65.8611L71.2965 65.3146L68.9475 78.9483Z" fill="#EBEBEB"/>
<path d="M100.539 79.4933H103.758V67.4824H100.539V79.4933Z" fill="#EBEBEB"/>
<path d="M93.143 79.4933H96.3613V67.4824H93.143V79.4933Z" fill="#EBEBEB"/>
<path d="M74.4731 79.4933H77.6914V67.4824H74.4731V79.4933Z" fill="#EBEBEB"/>
<path d="M82.1356 78.7944L85.2773 79.4924L87.8825 67.7674L84.7408 67.0694L82.1356 78.7944Z" fill="#EBEBEB"/>
<path d="M97.7583 79.4939H99.3672V64.9731H97.7583V79.4939Z" fill="#EBEBEB"/>
<path d="M78.6157 79.4939H80.2246V64.9731H78.6157V79.4939Z" fill="#EBEBEB"/>
<path d="M111.108 107.511H38.0625V111.264H111.108V107.511Z" fill="#E0E0E0"/>
<path d="M44.6421 93.6774H41.4238V107.512H44.6421V93.6774Z" fill="#EBEBEB"/>
<path d="M60.2027 93.6774H56.9844V107.512H60.2027V93.6774Z" fill="#EBEBEB"/>
<path d="M77.8664 93.3377L74.6953 93.884L77.0444 107.518L80.2155 106.971L77.8664 93.3377Z" fill="#EBEBEB"/>
<path d="M48.6299 95.5001H45.4121V107.511H48.6299V95.5001Z" fill="#EBEBEB"/>
<path d="M56.0269 95.5001H52.8086V107.511H56.0269V95.5001Z" fill="#EBEBEB"/>
<path d="M74.6968 95.5001H71.4785V107.511H74.6968V95.5001Z" fill="#EBEBEB"/>
<path d="M64.4308 95.0881L61.2891 95.7861L63.8943 107.512L67.0361 106.814L64.4308 95.0881Z" fill="#EBEBEB"/>
<path d="M51.4116 92.9902H49.8027V107.511H51.4116V92.9902Z" fill="#EBEBEB"/>
<path d="M70.5542 92.9902H68.9453V107.511H70.5542V92.9902Z" fill="#EBEBEB"/>
<path d="M104.098 96.5619H88.418V107.387H104.098V96.5619Z" fill="#EBEBEB"/>
<path d="M229.782 69.5581H166.957V139.042H229.782V69.5581Z" fill="#E0E0E0"/>
<path d="M231.788 69.5581H166.627V139.042H231.788V69.5581Z" fill="#F0F0F0"/>
<path d="M229.032 71.7745H169.279V135.849H229.032V71.7745Z" fill="white"/>
<path d="M229.033 71.7745H227.305V135.849H229.033V71.7745Z" fill="#E0E0E0"/>
<path d="M169.127 117.851V119.579H227.489V117.851H169.127Z" fill="#E0E0E0"/>
<path d="M229.033 114.95H168.354V117.851H229.033V114.95Z" fill="#F0F0F0"/>
<path d="M140 239.434C199.966 239.434 248.578 236.595 248.578 233.093C248.578 229.591 199.966 226.752 140 226.752C80.0338 226.752 31.4219 229.591 31.4219 233.093C31.4219 236.595 80.0338 239.434 140 239.434Z" fill="#F5F5F5"/>
<path d="M183.211 223.86C183.613 223.186 183.046 222.172 182.261 222.16C182.605 221.193 182.266 220.023 181.458 219.39C181.356 219.31 181.239 219.235 181.109 219.235C180.97 219.235 180.847 219.319 180.734 219.4C179.995 219.932 179.255 220.462 178.516 220.994C178.347 221.115 178.172 221.244 178.076 221.429C177.622 222.308 179.257 223.433 178.585 224.158C178.392 224.366 178.081 224.409 177.841 224.559C177.313 224.889 177.249 225.614 177.003 226.186C176.757 226.758 175.899 227.202 175.571 226.673C175.813 226.124 175.08 225.651 174.485 225.582C173.897 225.513 173.267 225.479 172.938 224.921C172.093 225.659 170.201 223.598 170.244 222.767C169.549 222.82 169.076 223.471 168.924 224.121C168.766 224.796 168.864 225.5 168.853 226.192C168.831 227.537 168.397 228.855 168.421 230.201C168.439 231.248 168.844 232.41 169.802 232.832C170.264 233.034 170.785 233.034 171.289 233.032C174.927 233.008 178.565 232.985 182.204 232.962C182.466 232.96 182.739 232.955 182.971 232.834C183.463 232.577 183.567 231.931 183.613 231.377C183.809 229.006 184.004 226.635 184.199 224.263C183.87 224.129 183.54 223.995 183.211 223.86Z" fill="#407BFF"/>
<path opacity="0.3" d="M183.211 223.86C183.613 223.186 183.046 222.172 182.261 222.16C182.605 221.193 182.266 220.023 181.458 219.39C181.356 219.31 181.239 219.235 181.109 219.235C180.97 219.235 180.847 219.319 180.734 219.4C179.995 219.932 179.255 220.462 178.516 220.994C178.347 221.115 178.172 221.244 178.076 221.429C177.622 222.308 179.257 223.433 178.585 224.158C178.392 224.366 178.081 224.409 177.841 224.559C177.313 224.889 177.249 225.614 177.003 226.186C176.757 226.758 175.899 227.202 175.571 226.673C175.813 226.124 175.08 225.651 174.485 225.582C173.897 225.513 173.267 225.479 172.938 224.921C172.093 225.659 170.201 223.598 170.244 222.767C169.549 222.82 169.076 223.471 168.924 224.121C168.766 224.796 168.864 225.5 168.853 226.192C168.831 227.537 168.397 228.855 168.421 230.201C168.439 231.248 168.844 232.41 169.802 232.832C170.264 233.034 170.785 233.034 171.289 233.032C174.927 233.008 178.565 232.985 182.204 232.962C182.466 232.96 182.739 232.955 182.971 232.834C183.463 232.577 183.567 231.931 183.613 231.377C183.809 229.006 184.004 226.635 184.199 224.263C183.87 224.129 183.54 223.995 183.211 223.86Z" fill="white"/>
<path d="M183.85 212.324H182.624H179.25H178.02H174.65H173.42H170.05H168.82H166.914L167.053 214.035L167.153 215.257L167.412 218.436L167.559 220.262L167.754 222.693L167.837 223.736L167.866 224.046L167.965 225.271L168.101 226.951L168.184 227.993L168.271 229.052L168.371 230.278L168.447 231.205L168.53 232.248L168.566 232.701H170.794H172.676H175.394H177.276H179.994H181.876H184.108L184.144 232.248L184.228 231.209L184.303 230.274L184.403 229.048L184.49 227.994L184.574 226.951L184.709 225.268L184.808 224.046L184.832 223.736L184.916 222.693L185.115 220.262L185.262 218.44L185.517 215.257L185.616 214.036L185.756 212.325H183.85V212.324ZM184.868 213.446L184.542 213.12H184.896L184.868 213.446ZM184.785 214.485L184.753 214.899L183.237 216.415L181.498 214.676L183.054 213.12H183.42L184.785 214.485ZM184.347 219.904L183.236 221.014L181.498 219.275L183.236 217.54L184.438 218.742L184.347 219.904ZM168.232 218.743L169.433 217.541L171.172 219.276L169.433 221.015L168.327 219.905L168.232 218.743ZM182.676 216.976L180.937 218.715L179.198 216.976L180.937 215.237L182.676 216.976ZM179.942 213.12H181.932L180.937 214.115L179.942 213.12ZM180.372 219.276L178.637 221.015L176.898 219.276L178.637 217.541L180.372 219.276ZM174.598 221.576L176.337 219.841L178.072 221.576L176.337 223.314L174.598 221.576ZM175.772 223.876L174.033 225.614L172.298 223.88L174.037 222.141L175.772 223.876ZM178.637 222.141L180.372 223.88L178.637 225.614L176.898 223.876L178.637 222.141ZM176.337 218.715L174.598 216.976L176.337 215.237L178.072 216.976L176.337 218.715ZM175.772 219.276L174.037 221.015L172.298 219.276L174.037 217.541L175.772 219.276ZM171.733 218.715L169.999 216.976L171.733 215.237L173.472 216.976L171.733 218.715ZM171.733 219.841L173.472 221.576L171.733 223.314L169.999 221.576L171.733 219.841ZM173.472 226.179L171.733 227.914L169.999 226.179L171.733 224.441L173.472 226.179ZM174.033 226.741L175.772 228.479L174.037 230.218L172.298 228.479L174.033 226.741ZM174.598 226.179L176.337 224.441L178.072 226.179L176.337 227.914L174.598 226.179ZM178.637 226.741L180.372 228.479L178.637 230.218L176.898 228.479L178.637 226.741ZM180.937 229.04L182.676 230.779L181.55 231.905H180.324L179.198 230.779L180.937 229.04ZM179.198 226.179L180.936 224.441L182.675 226.179L180.936 227.914L179.198 226.179ZM179.198 221.576L180.936 219.841L182.675 221.576L180.936 223.314L179.198 221.576ZM180.372 214.676L178.637 216.415L176.898 214.676L178.454 213.12H178.82L180.372 214.676ZM176.337 214.115L175.343 213.12H177.328L176.337 214.115ZM175.772 214.676L174.037 216.415L172.298 214.676L173.854 213.12H174.22L175.772 214.676ZM172.728 213.12L171.733 214.115L170.743 213.12H172.728ZM169.617 213.12L171.172 214.676L169.433 216.415L167.921 214.899L167.89 214.485L169.25 213.12H169.617ZM168.128 213.12L167.806 213.443L167.778 213.12H168.128ZM168.021 216.124L168.872 216.976L168.148 217.7L168.021 216.124ZM168.494 221.954L168.427 221.13L168.872 221.576L168.494 221.954ZM168.578 223L169.433 222.141L171.172 223.88L169.433 225.614L168.733 224.914L168.578 223ZM168.837 226.215L168.833 226.14L168.872 226.179L168.837 226.215ZM169.139 229.92L168.92 227.254L169.433 226.74L171.172 228.479L169.433 230.214L169.139 229.92ZM169.298 231.905L169.266 231.507L169.433 231.34L169.998 231.905H169.298ZM169.999 230.779L171.733 229.04L173.472 230.779L172.346 231.905H171.12L169.999 230.779ZM173.472 231.905L174.037 231.34L174.602 231.905H173.472ZM175.724 231.905L174.598 230.779L176.337 229.04L178.071 230.779L176.949 231.905H175.724ZM178.072 231.905L178.637 231.34L179.202 231.905H178.072ZM183.372 231.905H182.672L183.237 231.34L183.404 231.507L183.372 231.905ZM183.535 229.92L183.236 230.214L181.498 228.479L183.236 226.741L183.75 227.254L183.535 229.92ZM183.842 226.136L183.834 226.215L183.798 226.179L183.842 226.136ZM183.941 224.914L183.236 225.614L181.498 223.88L183.236 222.141L184.096 223L183.941 224.914ZM184.179 221.958L183.797 221.576L184.247 221.13L184.179 221.958ZM184.653 216.12L184.526 217.704L183.798 216.976L184.653 216.12Z" fill="#407BFF"/>
<g opacity="0.6">
<path d="M183.85 212.324H182.624H179.25H178.02H174.65H173.42H170.05H168.82H166.914L167.053 214.035L167.153 215.257L167.412 218.436L167.559 220.262L167.754 222.693L167.837 223.736L167.866 224.046L167.965 225.271L168.101 226.951L168.184 227.993L168.271 229.052L168.371 230.278L168.447 231.205L168.53 232.248L168.566 232.701H170.794H172.676H175.394H177.276H179.994H181.876H184.108L184.144 232.248L184.228 231.209L184.303 230.274L184.403 229.048L184.49 227.994L184.574 226.951L184.709 225.268L184.808 224.046L184.832 223.736L184.916 222.693L185.115 220.262L185.262 218.44L185.517 215.257L185.616 214.036L185.756 212.325H183.85V212.324ZM184.868 213.446L184.542 213.12H184.896L184.868 213.446ZM184.785 214.485L184.753 214.899L183.237 216.415L181.498 214.676L183.054 213.12H183.42L184.785 214.485ZM184.347 219.904L183.236 221.014L181.498 219.275L183.236 217.54L184.438 218.742L184.347 219.904ZM168.232 218.743L169.433 217.541L171.172 219.276L169.433 221.015L168.327 219.905L168.232 218.743ZM182.676 216.976L180.937 218.715L179.198 216.976L180.937 215.237L182.676 216.976ZM179.942 213.12H181.932L180.937 214.115L179.942 213.12ZM180.372 219.276L178.637 221.015L176.898 219.276L178.637 217.541L180.372 219.276ZM174.598 221.576L176.337 219.841L178.072 221.576L176.337 223.314L174.598 221.576ZM175.772 223.876L174.033 225.614L172.298 223.88L174.037 222.141L175.772 223.876ZM178.637 222.141L180.372 223.88L178.637 225.614L176.898 223.876L178.637 222.141ZM176.337 218.715L174.598 216.976L176.337 215.237L178.072 216.976L176.337 218.715ZM175.772 219.276L174.037 221.015L172.298 219.276L174.037 217.541L175.772 219.276ZM171.733 218.715L169.999 216.976L171.733 215.237L173.472 216.976L171.733 218.715ZM171.733 219.841L173.472 221.576L171.733 223.314L169.999 221.576L171.733 219.841ZM173.472 226.179L171.733 227.914L169.999 226.179L171.733 224.441L173.472 226.179ZM174.033 226.741L175.772 228.479L174.037 230.218L172.298 228.479L174.033 226.741ZM174.598 226.179L176.337 224.441L178.072 226.179L176.337 227.914L174.598 226.179ZM178.637 226.741L180.372 228.479L178.637 230.218L176.898 228.479L178.637 226.741ZM180.937 229.04L182.676 230.779L181.55 231.905H180.324L179.198 230.779L180.937 229.04ZM179.198 226.179L180.936 224.441L182.675 226.179L180.936 227.914L179.198 226.179ZM179.198 221.576L180.936 219.841L182.675 221.576L180.936 223.314L179.198 221.576ZM180.372 214.676L178.637 216.415L176.898 214.676L178.454 213.12H178.82L180.372 214.676ZM176.337 214.115L175.343 213.12H177.328L176.337 214.115ZM175.772 214.676L174.037 216.415L172.298 214.676L173.854 213.12H174.22L175.772 214.676ZM172.728 213.12L171.733 214.115L170.743 213.12H172.728ZM169.617 213.12L171.172 214.676L169.433 216.415L167.921 214.899L167.89 214.485L169.25 213.12H169.617ZM168.128 213.12L167.806 213.443L167.778 213.12H168.128ZM168.021 216.124L168.872 216.976L168.148 217.7L168.021 216.124ZM168.494 221.954L168.427 221.13L168.872 221.576L168.494 221.954ZM168.578 223L169.433 222.141L171.172 223.88L169.433 225.614L168.733 224.914L168.578 223ZM168.837 226.215L168.833 226.14L168.872 226.179L168.837 226.215ZM169.139 229.92L168.92 227.254L169.433 226.74L171.172 228.479L169.433 230.214L169.139 229.92ZM169.298 231.905L169.266 231.507L169.433 231.34L169.998 231.905H169.298ZM169.999 230.779L171.733 229.04L173.472 230.779L172.346 231.905H171.12L169.999 230.779ZM173.472 231.905L174.037 231.34L174.602 231.905H173.472ZM175.724 231.905L174.598 230.779L176.337 229.04L178.071 230.779L176.949 231.905H175.724ZM178.072 231.905L178.637 231.34L179.202 231.905H178.072ZM183.372 231.905H182.672L183.237 231.34L183.404 231.507L183.372 231.905ZM183.535 229.92L183.236 230.214L181.498 228.479L183.236 226.741L183.75 227.254L183.535 229.92ZM183.842 226.136L183.834 226.215L183.798 226.179L183.842 226.136ZM183.941 224.914L183.236 225.614L181.498 223.88L183.236 222.141L184.096 223L183.941 224.914ZM184.179 221.958L183.797 221.576L184.247 221.13L184.179 221.958ZM184.653 216.12L184.526 217.704L183.798 216.976L184.653 216.12Z" fill="white"/>
</g>
<path d="M166.75 213.83H185.92C186.429 213.83 186.84 213.418 186.84 212.91V212.535C186.84 212.027 186.428 211.615 185.92 211.615H166.75C166.242 211.615 165.83 212.027 165.83 212.535V212.91C165.83 213.418 166.242 213.83 166.75 213.83Z" fill="#407BFF"/>
<path d="M184.406 233.725H168.266C167.757 233.725 167.346 233.313 167.346 232.805V232.43C167.346 231.922 167.758 231.51 168.266 231.51H184.406C184.915 231.51 185.326 231.922 185.326 232.43V232.805C185.326 233.313 184.914 233.725 184.406 233.725Z" fill="#407BFF"/>
<path d="M240.477 157.207H101.558C100.282 157.207 99.248 156.172 99.248 154.897V54.6773C99.248 53.4016 100.282 52.3673 101.558 52.3673H240.477C241.752 52.3673 242.787 53.4016 242.787 54.6773V154.897C242.787 156.172 241.753 157.207 240.477 157.207Z" fill="#407BFF"/>
<path opacity="0.4" d="M242.787 58.0345H99.248V152.664H242.787V58.0345Z" fill="black"/>
<path d="M239.431 56.4749C240.177 56.4749 240.782 55.8701 240.782 55.1242C240.782 54.3782 240.177 53.7734 239.431 53.7734C238.685 53.7734 238.08 54.3782 238.08 55.1242C238.08 55.8701 238.685 56.4749 239.431 56.4749Z" fill="white"/>
<path d="M234.874 56.4749C235.62 56.4749 236.225 55.8701 236.225 55.1242C236.225 54.3782 235.62 53.7734 234.874 53.7734C234.128 53.7734 233.523 54.3782 233.523 55.1242C233.523 55.8701 234.128 56.4749 234.874 56.4749Z" fill="white"/>
<path d="M230.319 56.4749C231.065 56.4749 231.67 55.8701 231.67 55.1242C231.67 54.3782 231.065 53.7734 230.319 53.7734C229.573 53.7734 228.969 54.3782 228.969 55.1242C228.969 55.8701 229.573 56.4749 230.319 56.4749Z" fill="white"/>
<path d="M146.423 107.214H99.7793V148.085H146.423V107.214Z" fill="#263238"/>
<path d="M146.423 65.4406H99.7793V106.312H146.423V65.4406Z" fill="#263238"/>
<path d="M194.138 65.4406H147.494V106.312H194.138V65.4406Z" fill="#407BFF"/>
<path d="M241.852 65.4406H195.209V106.312H241.852V65.4406Z" fill="white"/>
<path d="M194.138 107.214H147.494V148.085H194.138V107.214Z" fill="#263238"/>
<path d="M241.852 107.214H195.209V148.085H241.852V107.214Z" fill="#407BFF"/>
<path d="M233.865 106.312L234.922 97.3931C235.205 95.0109 233.651 92.7793 231.309 92.2585C219.2 89.5671 211.978 92.2316 211.978 92.2316C208.854 97.3248 206.932 102.16 205.756 106.312H233.865Z" fill="#263238"/>
<path d="M225.138 91.8732C226.026 91.6755 228.262 91.8099 228.262 91.8099C225.631 89.6085 226.936 84.0231 228.002 80.9862L219.865 85.5866C219.957 85.9775 220.033 86.374 220.069 86.7648C220.146 87.5091 220.104 88.232 219.823 88.8749C219.582 89.4248 218.544 90.6647 217.893 91.0556L221.148 92.5088L225.138 91.8732Z" fill="#E4897B"/>
<path opacity="0.2" d="M226.121 83.9105C225.799 87.6379 221.786 88.666 219.822 88.8749C220.103 88.232 220.145 87.5091 220.068 86.7648L226.121 83.9105Z" fill="black"/>
<path d="M215.423 72.6282C215.423 72.6282 214.781 77.9297 217.86 80.1613C220.939 82.3929 220.279 69.4149 220.279 69.4149L215.423 72.6282Z" fill="#263238"/>
<path d="M227.36 83.8299C227.21 84.1457 227.023 84.4616 226.802 84.7724C225.41 86.7699 223.203 87.3965 221.195 86.9362C221.045 86.8987 220.901 86.8612 220.756 86.813C219.438 86.4008 218.25 85.5065 217.489 84.2208C217.462 84.1782 217.435 84.13 217.409 84.0869C217.307 83.91 217.216 83.7229 217.131 83.5297C216.965 83.1388 216.809 82.7155 216.675 82.2714C215.562 78.6672 215.69 72.6472 219.032 70.5803C221.694 68.9042 225.897 69.4664 227.574 72.1332C228.056 72.8886 227.515 74.8643 227.601 75.7592C228.002 79.3745 228.409 81.6772 227.36 83.8299Z" fill="#E4897B"/>
<path d="M221.556 77.974C221.636 78.3016 221.484 78.6085 221.262 78.6466C221.04 78.6841 220.821 78.4399 220.762 78.1073C220.703 77.7746 220.839 77.4711 221.055 77.4347C221.273 77.3983 221.495 77.6358 221.556 77.974Z" fill="#263238"/>
<path d="M217.771 78.6202C217.851 78.9484 217.695 79.2564 217.477 79.2928C217.26 79.3292 217.035 79.0861 216.977 78.7535C216.918 78.4208 217.053 78.1173 217.271 78.0809C217.487 78.044 217.716 78.3027 217.771 78.6202Z" fill="#263238"/>
<path d="M219.002 78.5793C218.779 79.6713 218.406 80.7264 217.893 81.7159C218.415 81.969 219.023 81.9785 219.552 81.7417L219.002 78.5793Z" fill="#DE5753"/>
<path d="M222.521 76.5482C222.45 76.5706 222.372 76.5538 222.317 76.5039C221.956 76.1483 221.448 75.9837 220.947 76.0604C220.84 76.0867 220.733 76.0218 220.707 75.9154C220.681 75.809 220.746 75.702 220.852 75.6757H220.853C221.484 75.5626 222.131 75.7625 222.588 76.2122C222.67 76.285 222.678 76.4099 222.605 76.4922C222.604 76.4933 222.603 76.4944 222.602 76.4955C222.577 76.5174 222.55 76.5347 222.521 76.5482Z" fill="#263238"/>
<path d="M215.922 77.5932C215.888 77.6145 215.848 77.624 215.808 77.6212C215.702 77.5921 215.641 77.4834 215.669 77.3776C215.67 77.3759 215.67 77.3748 215.67 77.3737C215.835 76.7521 216.293 76.2498 216.897 76.0274C217.001 75.9955 217.112 76.0549 217.144 76.1596V76.1602C217.172 76.2649 217.114 76.3735 217.011 76.4077C216.539 76.597 216.185 76.9979 216.056 77.489C216.029 77.5417 215.98 77.5798 215.922 77.5932Z" fill="#263238"/>
<path d="M229.176 73.2089C229.199 73.0997 229.22 72.9838 229.237 72.8612C229.82 68.8885 223.978 66.555 218.722 67.0489C216.432 67.2645 216.964 71.1806 216.964 71.1806C216.964 71.1806 215.663 71.1806 215.075 71.973C214.038 73.3685 215.632 76.4345 215.632 76.4345C214.832 71.973 217.153 71.7087 217.153 71.7087C217.153 71.7087 217.691 73.4436 218.751 73.2845C219.81 73.1255 222.403 70.592 223.691 70.8978C224.745 71.1481 225.229 71.8498 225.452 72.4832C225.508 73.06 225.343 73.7941 224.6 74.6268C223.497 75.8628 225.359 78.5076 226.653 79.3129C226.653 79.3129 226.608 78.6437 227.188 78.7328C227.769 78.8218 228.036 82.3033 227.144 84.0886C227.144 84.0886 228.616 82.3929 229.108 78.6437C229.386 76.5096 229.402 74.6274 229.176 73.2089Z" fill="#263238"/>
<path d="M220.392 83.3819C221.39 83.3634 222.315 82.8594 222.872 82.0323C222.901 81.9819 222.884 81.9175 222.835 81.8878C222.788 81.8576 222.724 81.871 222.694 81.9186C222.692 81.9209 222.691 81.9231 222.69 81.9253C222.159 82.6797 221.304 83.14 220.382 83.168C220.326 83.168 220.28 83.2128 220.279 83.2694C220.279 83.2733 220.279 83.2772 220.28 83.2805C220.279 83.3365 220.325 83.3825 220.381 83.383C220.385 83.3825 220.388 83.3825 220.392 83.3819Z" fill="#263238"/>
<path d="M229.97 78.823C229.672 79.831 228.988 80.6799 228.066 81.1834C226.84 81.8419 225.924 80.8171 226.007 79.5006C226.092 78.3313 226.819 76.5432 228.177 76.4407C229.535 76.3383 230.319 77.5815 229.97 78.823Z" fill="#E4897B"/>
<path opacity="0.1" d="M221.194 86.9362C221.044 86.8987 220.9 86.8611 220.755 86.813C219.438 86.4008 218.249 85.5065 217.488 84.2207C218.458 84.1138 220.493 83.9099 220.905 84.0869C221.328 84.2689 221.254 86.1063 221.194 86.9362Z" fill="black"/>
<path d="M215.051 106.312H217.778L220.749 95.3687L223.445 92.5088H218.723L219.825 95.2629L215.051 106.312Z" fill="#407BFF"/>
<path d="M205.01 104.267L204.834 106.312H209.27C213.058 97.3085 216.58 90.785 216.58 90.785L211.978 92.2315C201.361 95.3446 200.439 102.326 202.257 104.091C204.074 105.855 205.01 104.267 205.01 104.267Z" fill="#407BFF"/>
<path opacity="0.5" d="M205.01 104.267L204.834 106.312H209.27C213.058 97.3085 216.58 90.785 216.58 90.785L211.978 92.2315C201.361 95.3446 200.439 102.326 202.257 104.091C204.074 105.855 205.01 104.267 205.01 104.267Z" fill="white"/>
<path d="M208.299 106.312H209.332C212.826 98.8793 218.528 90.178 218.528 90.178C214.918 90.0721 211.659 91.4973 211.659 91.4973L212.842 94.7913L209.992 95.3686L208.299 106.312Z" fill="#407BFF"/>
<path opacity="0.4" d="M208.299 106.312H209.332C212.826 98.8793 218.528 90.178 218.528 90.178C214.918 90.0721 211.659 91.4973 211.659 91.4973L212.842 94.7913L209.992 95.3686L208.299 106.312Z" fill="white"/>
<path opacity="0.2" d="M207.122 106.312C208.127 103.975 208.041 102.29 208.041 102.29L205.009 104.267L204.834 106.312H207.122Z" fill="black"/>
<path d="M217.029 91.2438L219.205 89.2776L221.147 91.9258L227.309 89.2776L228.854 91.773L222.885 94.7331L220.901 92.8263L218.722 94.2039L217.029 91.2438Z" fill="#263238"/>
<path opacity="0.2" d="M217.029 91.2438L219.205 89.2776L221.147 91.9258L227.309 89.2776L228.854 91.773L222.885 94.7331L220.901 92.8263L218.722 94.2039L217.029 91.2438Z" fill="white"/>
<path d="M210.009 97.8242L216.581 90.785C216.581 90.785 217.905 90.8136 218.883 89.8935C219.86 88.9734 221.182 84.9067 220.86 84.6457C220.539 84.3848 216.617 84.0566 216.245 84.5158C215.872 84.975 214.25 89.0837 214.25 89.0837L207.205 94.5964L210.009 97.8242Z" fill="#E4897B"/>
<path d="M210.73 91.6732L212.029 90.5264L215.14 92.9388L213.728 94.8109L210.73 91.6732Z" fill="#263238"/>
<path opacity="0.2" d="M210.73 91.6732L212.029 90.5264L215.14 92.9388L213.728 94.8109L210.73 91.6732Z" fill="white"/>
<path d="M211.083 90.938L214.813 93.8897C214.813 93.8897 206.142 107.619 202.988 104.721C199.834 101.823 201.451 97.2789 211.083 90.938Z" fill="#407BFF"/>
<path opacity="0.6" d="M211.083 90.938L214.813 93.8897C214.813 93.8897 206.142 107.619 202.988 104.721C199.834 101.823 201.451 97.2789 211.083 90.938Z" fill="white"/>
<path d="M234.993 106.312L235.541 96.4662C235.634 94.5073 234.453 92.7114 232.617 92.0209L227.717 90.178C227.717 90.178 227.928 97.5705 228.497 106.312H234.993Z" fill="#407BFF"/>
<path opacity="0.5" d="M234.993 106.312L235.541 96.4662C235.634 94.5073 234.453 92.7114 232.617 92.0209L227.717 90.178C227.717 90.178 227.928 97.5705 228.497 106.312H234.993Z" fill="white"/>
<path d="M230.505 106.312L232.317 101.23L229.624 98.7583L232.731 97.8243C230.754 91.7348 227.55 89.6639 227.55 89.6639C226.757 93.5582 227.536 101.317 228.186 106.312H230.505Z" fill="#407BFF"/>
<path opacity="0.4" d="M230.505 106.312L232.317 101.23L229.624 98.7583L232.731 97.8243C230.754 91.7348 227.55 89.6639 227.55 89.6639C226.757 93.5582 227.536 101.317 228.186 106.312H230.505Z" fill="white"/>
<path d="M205.787 105.11C206.338 105.325 210.746 105.617 210.746 105.617L211.768 106.312H218.925L211.656 102.878C211.656 102.878 211.279 101.608 210.104 100.958C208.93 100.308 204.654 100.289 204.503 100.675C204.353 101.06 205.236 104.895 205.787 105.11Z" fill="#E4897B"/>
<path d="M216.674 106.312L217.334 105.123L214.616 103.932L213.648 106.312H216.674Z" fill="#263238"/>
<path opacity="0.2" d="M216.674 106.312L217.334 105.123L214.616 103.932L213.648 106.312H216.674Z" fill="white"/>
<path d="M231.476 106.312C234.723 101.233 237.009 95.0467 234.354 93.2502C234.354 93.2502 232.316 92.6684 223.901 105.533C223.901 105.533 222.972 107.516 216.047 104.409L215.145 106.312H231.476V106.312Z" fill="#407BFF"/>
<path opacity="0.6" d="M231.476 106.312C234.723 101.233 237.009 95.0467 234.354 93.2502C234.354 93.2502 232.316 92.6684 223.901 105.533C223.901 105.533 222.972 107.516 216.047 104.409L215.145 106.312H231.476V106.312Z" fill="white"/>
<path opacity="0.3" d="M194.138 107.214H147.494V148.085H194.138V107.214Z" fill="white"/>
<path d="M107.806 106.312C108.93 103.392 115.506 97.7094 115.506 97.7094V91.8579C112.141 92.4829 103.918 99.563 103.707 106.311L107.806 106.312Z" fill="#407BFF"/>
<path opacity="0.6" d="M107.808 106.312C108.34 104.923 110.105 102.911 111.806 101.183C113.691 99.2757 115.506 97.7122 115.506 97.7122V91.8585C112.141 92.4829 103.915 99.5647 103.707 106.312H107.808Z" fill="white"/>
<path opacity="0.2" d="M111.807 101.183C113.692 99.2758 115.507 97.7122 115.507 97.7122V96.0093C115.507 96.0093 112.267 97.6159 111.807 101.183Z" fill="black"/>
<path d="M139.208 106.312C140.044 101.149 140.865 96.8885 141.247 94.9654C141.37 94.3494 140.981 93.7429 140.367 93.6097C139.164 93.3487 137.924 93.1219 136.672 92.9293C130.379 91.9543 123.749 91.7779 119.62 91.7829C117.092 91.7885 115.507 91.858 115.507 91.858C114.35 95.9902 113.665 101.133 113.273 106.311L139.208 106.312Z" fill="#407BFF"/>
<path opacity="0.7" d="M139.21 106.312C139.233 106.168 139.256 106.021 139.28 105.879C140.088 100.915 140.876 96.8335 141.245 94.9648C141.267 94.8629 141.272 94.7615 141.262 94.6596C141.235 94.1617 140.881 93.7221 140.367 93.6101C139.162 93.3475 137.925 93.1229 136.672 92.9297C130.379 91.9548 123.749 91.7784 119.62 91.7834C117.092 91.789 115.507 91.8585 115.507 91.8585C114.35 95.9907 113.665 101.133 113.273 106.312H139.21Z" fill="white"/>
<path d="M124.611 98.4351C131.906 99.2079 136.769 93.0048 136.769 93.0048L136.672 92.9297C130.379 91.9548 123.749 91.7784 119.62 91.7834C119.62 91.7834 117.763 97.7099 124.611 98.4351Z" fill="#407BFF"/>
<path d="M132.678 92.363C130.627 94.2267 125.602 93.5379 125.602 93.5379C125.602 93.5379 122.466 92.6794 123.124 91.6994C124.972 91.3942 125.866 90.5318 126.236 89.4286C126.45 88.7858 126.482 88.0628 126.424 87.3186C126.397 86.9277 126.338 86.5312 126.268 86.1403L132.481 81.5399C131.666 84.5762 130.67 90.1622 132.678 92.363Z" fill="#E4897B"/>
<path opacity="0.2" d="M131.044 84.4637C130.797 88.1911 127.734 89.2193 126.234 89.4281C126.449 88.7853 126.481 88.0623 126.422 87.3181L131.044 84.4637Z" fill="black"/>
<path d="M131.762 89.9977L125.824 92.6756L125.476 90.5291L123.293 91.2969C122.51 91.5724 122.017 92.3497 122.104 93.1762L122.35 95.5322L125.363 93.8835L126.864 96.007L133.996 92.5714L131.762 89.9977Z" fill="#407BFF"/>
<path opacity="0.3" d="M131.762 89.9977L125.824 92.6756L125.476 90.5291L123.293 91.2969C122.51 91.5724 122.017 92.3497 122.104 93.1762L122.35 95.5322L125.363 93.8835L126.864 96.007L133.996 92.5714L131.762 89.9977Z" fill="white"/>
<path d="M121.564 72.1897C121.564 72.1897 119.878 78.0031 122.725 80.7011C125.573 83.3992 127.032 72.3555 127.032 72.3555L121.564 72.1897Z" fill="#263238"/>
<path opacity="0.2" d="M121.564 72.1897C121.564 72.1897 119.878 78.0031 122.725 80.7011C125.573 83.3992 127.032 72.3555 127.032 72.3555L121.564 72.1897Z" fill="white"/>
<path d="M121.521 84.0449C121.579 84.2538 121.649 84.457 121.729 84.6553C122.013 85.3782 122.431 86.0155 122.935 86.5509C123.465 87.1238 124.097 87.5734 124.782 87.8949C126.03 88.4784 127.454 88.6234 128.788 88.2107C129.672 87.9374 130.518 87.4234 131.241 86.6254C133.335 84.3495 133.185 81.8161 133.276 77.5158C133.308 76.5896 133.132 75.6684 132.741 74.8329C131.386 71.8766 127.889 70.5858 124.943 71.941C120.798 73.8103 120.449 80.2156 121.521 84.0449Z" fill="#E4897B"/>
<path d="M126.798 78.9634C126.836 79.3095 126.64 79.6029 126.407 79.6113C126.174 79.6197 125.983 79.3403 125.968 78.992C125.953 78.6436 126.132 78.3519 126.359 78.344C126.586 78.3362 126.782 78.6095 126.798 78.9634Z" fill="#263238"/>
<path d="M122.843 79.1129C122.881 79.459 122.679 79.753 122.452 79.7608C122.225 79.7687 122.028 79.4898 122.013 79.1415C121.997 78.7932 122.177 78.5014 122.404 78.4936C122.631 78.4857 122.83 78.7808 122.843 79.1129Z" fill="#263238"/>
<path d="M124.106 79.2378C123.73 80.3236 123.205 81.3529 122.547 82.2954C123.047 82.6252 123.667 82.7165 124.241 82.5457L124.106 79.2378Z" fill="#DE5753"/>
<path d="M121.312 77.4782C121.38 77.513 121.462 77.5085 121.526 77.4665C121.952 77.163 122.496 77.0784 122.994 77.238C123.098 77.2822 123.218 77.2335 123.262 77.1294C123.306 77.0252 123.257 76.9054 123.153 76.8617L123.152 76.8611C122.528 76.6433 121.837 76.7418 121.298 77.1254C121.203 77.1859 121.174 77.3125 121.235 77.4077C121.236 77.4094 121.237 77.4105 121.238 77.4116C121.259 77.4374 121.285 77.4598 121.312 77.4782Z" fill="#263238"/>
<path d="M127.522 77.3518C127.563 77.349 127.602 77.3333 127.635 77.3069C127.706 77.2196 127.693 77.0908 127.606 77.0191C127.605 77.018 127.603 77.0174 127.602 77.0163C127.092 76.5935 126.407 76.4451 125.766 76.6198C125.659 76.6557 125.601 76.7716 125.638 76.8785C125.677 76.9838 125.79 77.0409 125.897 77.0073C126.406 76.8841 126.944 77.0096 127.346 77.3445C127.401 77.3725 127.465 77.3753 127.522 77.3518Z" fill="#263238"/>
<path d="M129.92 72.2725L129.67 74.1658C130.288 74.5035 130.657 75.2085 130.362 75.9528C129.734 77.5415 130.615 80.0234 131.828 81.0219C131.828 81.0219 131.873 80.3314 132.454 80.5011C133.036 80.6708 132.839 84.2665 131.685 85.9712C131.685 85.9712 133.42 84.4362 134.428 80.6691C135.361 77.1853 135.502 74.2756 134.797 72.917L129.92 72.2725Z" fill="#263238"/>
<path d="M126.703 83.3494C126.703 83.3494 125.59 83.5795 124.863 84.6603" stroke="#263238" stroke-width="0.5" stroke-miterlimit="10" stroke-linecap="round" stroke-linejoin="round"/>
<path opacity="0.1" d="M122.936 86.5514C123.466 87.1243 124.098 87.5739 124.783 87.8954C126.031 88.4789 127.455 88.624 128.789 88.2112C128.473 87.8792 127.862 87.472 126.706 87.1456C125.437 86.7816 124.017 86.6208 122.936 86.5514Z" fill="black"/>
<path opacity="0.2" d="M129.92 72.2725L129.67 74.1658C130.288 74.5035 130.657 75.2085 130.362 75.9528C129.734 77.5415 130.615 80.0234 131.828 81.0219C131.828 81.0219 131.873 80.3314 132.454 80.5011C133.036 80.6708 132.839 84.2665 131.685 85.9712C131.685 85.9712 133.42 84.4362 134.428 80.6691C135.361 77.1853 135.502 74.2756 134.797 72.917L129.92 72.2725Z" fill="white"/>
<path d="M135.094 73.7856C135.094 73.7856 135.56 71.3009 131.646 69.3538C127.731 67.4067 123.439 69.6299 120.824 67.9572C118.21 66.2844 118.116 73.1618 123.707 73.9368C129.298 74.7119 135.094 73.7856 135.094 73.7856Z" fill="#263238"/>
<path opacity="0.3" d="M135.094 73.7856C135.094 73.7856 135.56 71.3009 131.646 69.3538C127.731 67.4067 123.439 69.6299 120.824 67.9572C118.21 66.2844 118.116 73.1618 123.707 73.9368C129.298 74.7119 135.094 73.7856 135.094 73.7856Z" fill="white"/>
<path d="M135.287 80.9687C134.847 81.9594 134.032 82.735 133.021 83.1253C131.679 83.6326 130.881 82.4617 131.144 81.1266C131.388 79.9422 132.374 78.2124 133.776 78.2908C135.178 78.3692 135.812 79.7462 135.287 80.9687Z" fill="#E4897B"/>
<path d="M128.639 94.8321L128.045 91.6737C128.045 91.6737 129.273 90.5066 129.133 89.4281C128.992 88.3495 123.517 86.5693 122.547 86.4981C121.576 86.427 121.944 90.3677 122.24 91.0885C122.537 91.8097 125.824 92.6749 125.824 92.6749L126.235 96.0058L128.639 94.8321Z" fill="#E4897B"/>
<path opacity="0.2" d="M138.473 106.312C138.756 106.172 139.027 106.026 139.28 105.879C140.089 100.915 140.876 96.8336 141.246 94.9649C141.267 94.8629 141.273 94.7616 141.262 94.6597C137.722 98.2633 132.209 104.293 132.873 106.312H138.473V106.312Z" fill="black"/>
<path d="M136.55 106.312C140.622 102.659 144.163 97.6271 141.66 94.2229C139.463 91.2347 133.794 102.071 132.099 102.812C130.404 103.554 128.891 93.6187 128.891 93.6187L125.531 94.6199C125.531 94.6199 126.148 101.776 127.873 106.312H136.55Z" fill="#407BFF"/>
<path opacity="0.6" d="M136.55 106.312C140.622 102.659 144.163 97.6271 141.66 94.2229C139.463 91.2347 133.794 102.071 132.099 102.812C130.404 103.554 128.891 93.6187 128.891 93.6187L125.531 94.6199C125.531 94.6199 126.148 101.776 127.873 106.312H136.55Z" fill="white"/>
<path d="M161.927 106.312C163.111 105.119 163.875 104.276 163.875 104.276L163.23 94.3512C161.359 95.3435 155.752 102.83 152.809 106.312H161.927Z" fill="#407BFF"/>
<path opacity="0.5" d="M161.927 106.312C163.111 105.119 163.875 104.276 163.875 104.276L163.23 94.3512C161.359 95.3435 155.752 102.83 152.809 106.312H161.927Z" fill="white"/>
<path opacity="0.2" d="M161.923 106.312C163.11 105.12 163.875 104.278 163.875 104.278L163.724 101.921L162.98 99.6348C162.98 99.6348 160.276 102.141 160.347 106.312H161.923V106.312Z" fill="black"/>
<path d="M181.558 106.312C181.833 105.325 182.142 104.275 182.497 103.135C182.842 102.029 183.222 100.843 183.648 99.5642C183.968 98.5954 184.313 97.5661 184.693 96.4808C182.416 95.7556 180.099 95.1928 177.745 94.8019C175.266 94.3606 172.75 94.0969 170.23 94.0106C166.974 93.9854 163.231 94.3506 163.231 94.3506C163.231 94.3506 162.699 94.4771 162.364 97.9312C162.2 99.6762 162.038 102.364 162.027 106.312H181.558Z" fill="#407BFF"/>
<path opacity="0.5" d="M181.558 106.312C181.833 105.325 182.142 104.275 182.497 103.135C182.842 102.029 183.222 100.843 183.648 99.5642C183.968 98.5954 184.313 97.5661 184.693 96.4808C182.416 95.7556 180.099 95.1928 177.745 94.8019C175.266 94.3606 172.75 94.0969 170.23 94.0106C166.974 93.9854 163.231 94.3506 163.231 94.3506C163.231 94.3506 162.699 94.4771 162.364 97.9312C162.2 99.6762 162.038 102.364 162.027 106.312H181.558Z" fill="white"/>
<path d="M171.153 106.312L175.746 98.0925L170.435 101.061L167.355 97.2004L168.479 106.312H171.153Z" fill="#263238"/>
<path d="M175.925 93.7637C178.957 94.4755 179.874 96.9098 179.54 99.119L177.33 98.3826C177.33 98.3826 173.247 99.7882 170.234 102.266C170.234 102.266 168.561 99.1862 166.954 98.1821L164.678 98.4498C164.678 98.4498 168.226 91.956 175.925 93.7637Z" fill="#263238"/>
<path opacity="0.1" d="M175.925 93.7637C178.957 94.4755 179.874 96.9098 179.54 99.119L177.33 98.3826C177.33 98.3826 173.247 99.7882 170.234 102.266C170.234 102.266 168.561 99.1862 166.954 98.1821L164.678 98.4498C164.678 98.4498 168.226 91.956 175.925 93.7637Z" fill="white"/>
<path d="M170.419 94.7297C170.566 94.6485 170.742 94.5779 170.928 94.5113C171.315 94.2061 171.783 93.4719 171.761 91.6861C171.753 91.1048 171.698 90.416 171.567 89.5956L176.533 88.6682C176.533 88.6682 174.84 92.0097 176.252 94.4917C176.738 94.7078 177.028 95.013 176.975 95.4173C176.604 98.2873 170.436 101.06 170.436 101.06C170.436 101.06 167.423 96.3744 170.419 94.7297Z" fill="#EEC1BB"/>
<path opacity="0.2" d="M171.566 89.5956C171.697 90.416 171.752 91.1048 171.76 91.6861C175.115 91.6861 176.532 88.6682 176.532 88.6682L171.566 89.5956Z" fill="black"/>
<path d="M173.783 73.2117C173.783 73.2117 167.959 72.4753 166.888 77.1613C165.817 81.8474 169.432 84.4581 169.432 84.4581L173.783 73.2117Z" fill="#263238"/>
<path d="M174.312 75.7109C169.996 75.4746 168.48 77.7096 167.92 82.1403C167.22 87.6776 168.236 91.6945 173.699 90.8029C181.117 89.5922 181.481 76.1035 174.312 75.7109Z" fill="#EEC1BB"/>
<path d="M170.723 82.0519C170.723 82.0519 170.064 83.1467 169.369 83.7733C169.369 83.7733 169.706 84.3804 170.48 84.3238L170.723 82.0519Z" fill="#D4827D"/>
<path d="M173.386 81.8436C173.358 82.1975 173.527 82.4999 173.763 82.5184C174 82.5369 174.213 82.2647 174.241 81.9108C174.269 81.5569 174.1 81.2545 173.863 81.236C173.627 81.2175 173.413 81.4897 173.386 81.8436Z" fill="#263238"/>
<path d="M173.959 81.2606L173.213 80.8983C173.213 80.8983 173.546 81.5765 173.959 81.2606Z" fill="#263238"/>
<path d="M168.989 81.4253C168.962 81.7797 169.13 82.0816 169.367 82.1001C169.603 82.1185 169.816 81.8464 169.844 81.4925C169.872 81.1385 169.703 80.8361 169.467 80.8177C169.231 80.7992 169.017 81.0713 168.989 81.4253Z" fill="#263238"/>
<path d="M169.563 80.8423L168.816 80.48C168.816 80.48 169.149 81.1581 169.563 80.8423Z" fill="#263238"/>
<path d="M173.592 78.8649C173.592 78.8649 174.813 78.7737 175.428 79.6198" stroke="#263238" stroke-width="0.6862" stroke-miterlimit="10" stroke-linecap="round" stroke-linejoin="round"/>
<path d="M170.463 78.5109C170.463 78.5109 169.716 78.1867 168.723 78.7713" stroke="#263238" stroke-width="0.6862" stroke-miterlimit="10" stroke-linecap="round" stroke-linejoin="round"/>
<path d="M178.63 83.2446C178.63 83.2446 176.806 79.5873 177.262 76.8662C177.262 76.8662 168.9 72.9031 168.002 81.5624C168.002 81.5624 167.589 73.807 175.018 74.0416C182.436 74.2757 181.822 85.1302 177.813 88.1547C177.813 88.1547 179.758 85.5311 178.63 83.2446Z" fill="#263238"/>
<path d="M173.046 72.8768C173.046 72.8768 169.498 72.0066 168.494 72.9441C167.49 73.8815 174.653 80.5085 178.401 81.1783C178.401 81.1783 179.673 85.329 178.669 87.27C178.669 87.27 182.886 85.7972 183.088 79.3706C183.289 72.9441 176.527 70.5338 173.046 72.8768Z" fill="#263238"/>
<path d="M177.875 84.1172C177.942 83.4239 178.723 82.2865 180.008 82.4988C181.337 82.7177 181.825 85.4992 178.461 85.9769C177.979 86.0452 177.735 85.5636 177.875 84.1172Z" fill="#EEC1BB"/>
<path d="M179.74 75.4209C179.74 75.4209 181.213 71.6723 185.163 71.94C189.112 72.2076 189.715 78.3665 187.64 82.9188C185.564 87.471 186.97 88.9438 186.97 88.9438C186.97 88.9438 184.761 88.6761 184.761 84.5926C184.761 84.5926 184.56 85.9316 184.627 87.2033C184.627 87.2033 183.155 85.128 184.56 81.1783C185.966 77.2286 181.481 79.0363 181.481 79.0363L179.74 75.4209Z" fill="#263238"/>
<path d="M168.828 73.2789C168.828 73.2789 170.702 79.304 175.723 81.1111" stroke="#263238" stroke-width="0.6862" stroke-miterlimit="10" stroke-linecap="round" stroke-linejoin="round"/>
<path d="M173.85 85.8644C173.85 85.8644 172.846 86.9357 171.373 86.8685" stroke="#263238" stroke-width="0.6862" stroke-miterlimit="10" stroke-linecap="round" stroke-linejoin="round"/>
<path d="M171.172 82.45C171.172 83.0229 171.599 83.4877 172.126 83.4877C172.653 83.4877 173.079 83.0229 173.079 82.45C173.079 81.8772 172.652 81.4124 172.126 81.4124C171.599 81.4124 171.172 81.8772 171.172 82.45Z" stroke="#263238" stroke-width="0.5" stroke-miterlimit="10" stroke-linecap="round" stroke-linejoin="round"/>
<path d="M167.791 82.2826C167.791 82.8554 168.218 83.3202 168.745 83.3202C169.272 83.3202 169.699 82.8554 169.699 82.2826C169.699 81.7097 169.272 81.2449 168.745 81.2449C168.218 81.2449 167.791 81.7097 167.791 82.2826Z" stroke="#263238" stroke-width="0.5" stroke-miterlimit="10" stroke-linecap="round" stroke-linejoin="round"/>
<path d="M171.172 82.4501C171.172 82.4501 170.67 81.3788 169.699 82.2826" stroke="#263238" stroke-width="0.5" stroke-miterlimit="10" stroke-linecap="round" stroke-linejoin="round"/>
<path d="M173.08 82.4501C173.08 82.4501 178.436 82.2826 179.072 82.3162" stroke="#263238" stroke-width="0.5" stroke-miterlimit="10" stroke-linecap="round" stroke-linejoin="round"/>
<path d="M188.823 106.312C186.782 100.959 184.693 96.4808 184.693 96.4808C184.693 96.4808 181.281 101.442 180.977 106.312H188.823Z" fill="#407BFF"/>
<path opacity="0.5" d="M188.823 106.312C186.782 100.959 184.693 96.4808 184.693 96.4808C184.693 96.4808 181.281 101.442 180.977 106.312H188.823Z" fill="white"/>
<path d="M190.097 148.085C188.954 145.018 187.865 142.418 187.865 142.418L183.182 146.517C183.182 146.517 183.509 147.141 183.999 148.084H190.097V148.085Z" fill="#E4897B"/>
<path d="M157.043 148.085C158.155 146.732 158.95 145.736 158.95 145.736L154.379 141.939C154.379 141.939 152.157 145.392 150.309 148.085H157.043Z" fill="#E4897B"/>
<path d="M158.163 148.085L160.88 146.18L159.824 133.537C156.363 134.124 151.334 144.185 151.334 144.185L155.262 148.085H158.163Z" fill="#407BFF"/>
<path opacity="0.2" d="M155.261 148.085H158.163L160.111 146.719L160.879 146.181L159.824 133.535C156.362 134.125 151.334 144.187 151.334 144.187L154.796 147.622L155.261 148.085Z" fill="white"/>
<path d="M156.11 148.085L151.333 143.073L150.51 144.453L154.337 148.085H156.11Z" fill="#407BFF"/>
<path opacity="0.2" d="M158.164 148.085L160.112 146.719L159.188 141.237C159.188 141.237 155.57 143.524 154.797 147.622L155.262 148.085H158.164Z" fill="black"/>
<path d="M183.48 148.085C184.632 140.964 185.76 135.54 185.76 135.54C174.674 132.867 159.795 133.537 159.795 133.537C158.633 137.695 157.946 142.875 157.555 148.085H183.48Z" fill="#407BFF"/>
<path opacity="0.2" d="M183.479 148.085C183.559 147.588 183.639 147.094 183.718 146.615C184.783 140.231 185.759 135.54 185.759 135.54C174.675 132.868 159.797 133.537 159.797 133.537C158.635 137.695 157.948 142.875 157.557 148.085H183.479Z" fill="white"/>
<path opacity="0.2" d="M183.479 148.085C183.559 147.588 183.639 147.094 183.718 146.615L182.081 145.078C182.081 145.078 181.526 146.284 181.332 148.085H183.479Z" fill="black"/>
<path d="M166.105 148.085H167.866C168.151 144.514 168.581 140.919 169.229 138.548L172.333 136.006L169.89 135.215L167.672 135.34L168.27 138.281C168.27 138.281 167.185 142.807 166.105 148.085Z" fill="#263238"/>
<path d="M176.965 134.041C174.914 135.904 169.889 135.215 169.889 135.215C169.889 135.215 166.753 134.356 167.411 133.376C169.259 133.071 170.154 132.209 170.523 131.106C170.736 130.463 170.769 129.74 170.71 128.996C170.683 128.605 170.624 128.208 170.555 127.817L176.767 123.217C175.953 126.254 174.957 131.84 176.965 134.041Z" fill="#E4897B"/>
<path opacity="0.2" d="M175.333 126.141C175.086 129.869 172.023 130.897 170.523 131.106C170.737 130.463 170.77 129.74 170.711 128.996L175.333 126.141Z" fill="black"/>
<path d="M176.05 131.675L170.111 134.353L169.763 132.207L167.58 132.974C166.797 133.25 166.304 134.027 166.391 134.854L166.637 137.21L169.65 135.561L171.151 137.685L178.283 134.249L176.05 131.675Z" fill="#407BFF"/>
<path opacity="0.3" d="M176.05 131.675L170.111 134.353L169.763 132.207L167.58 132.974C166.797 133.25 166.304 134.027 166.391 134.854L166.637 137.21L169.65 135.561L171.151 137.685L178.283 134.249L176.05 131.675Z" fill="white"/>
<path d="M164.033 114.588C164.033 114.588 163.105 120.57 166.274 122.881C169.443 125.192 169.477 114.052 169.477 114.052L164.033 114.588Z" fill="#263238"/>
<path d="M175.48 127.665C173.932 129.875 171.417 130.448 169.237 129.75C167.835 129.304 166.573 128.328 165.793 126.929C165.688 126.746 165.595 126.552 165.507 126.353C163.955 122.692 163.477 116.294 167.351 113.908C170.102 112.187 173.734 113.022 175.455 115.777C175.95 116.557 176.245 117.448 176.33 118.371C176.793 122.648 177.266 125.14 175.48 127.665Z" fill="#E4897B"/>
<path d="M170.091 120.636C170.173 120.975 170.016 121.291 169.786 121.329C169.557 121.367 169.331 121.114 169.272 120.771C169.212 120.427 169.353 120.115 169.577 120.078C169.801 120.042 170.03 120.287 170.091 120.636Z" fill="#263238"/>
<path d="M166.187 121.291C166.268 121.629 166.106 121.947 165.882 121.984C165.658 122.021 165.427 121.769 165.367 121.426C165.307 121.083 165.449 120.77 165.673 120.733C165.897 120.696 166.131 120.963 166.187 121.291Z" fill="#263238"/>
<path d="M167.457 121.253C167.223 122.379 166.835 123.466 166.303 124.485C166.841 124.747 167.468 124.759 168.015 124.517L167.457 121.253Z" fill="#DE5753"/>
<path d="M164.461 119.866C164.533 119.892 164.613 119.877 164.672 119.827C165.056 119.471 165.584 119.318 166.099 119.412C166.207 119.443 166.32 119.379 166.35 119.27C166.38 119.161 166.316 119.049 166.208 119.018H166.207C165.56 118.882 164.887 119.068 164.402 119.518C164.315 119.59 164.303 119.719 164.375 119.805C164.377 119.807 164.378 119.808 164.379 119.809C164.403 119.832 164.43 119.851 164.461 119.866Z" fill="#263238"/>
<path d="M170.604 118.945C170.645 118.937 170.682 118.917 170.71 118.886C170.77 118.791 170.74 118.665 170.645 118.605C170.644 118.604 170.642 118.603 170.641 118.602C170.08 118.248 169.381 118.189 168.769 118.444C168.668 118.493 168.625 118.616 168.675 118.717V118.718C168.727 118.817 168.847 118.858 168.949 118.812C169.438 118.625 169.987 118.68 170.43 118.961C170.487 118.982 170.551 118.976 170.604 118.945Z" fill="#263238"/>
<path d="M172.332 113.601L172.326 115.511C172.982 115.766 173.438 116.419 173.242 117.194C172.822 118.85 174.013 121.199 175.345 122.034C175.345 122.034 175.301 121.343 175.899 121.437C176.497 121.531 176.762 125.122 175.836 126.961C175.836 126.961 177.361 125.216 177.879 121.351C178.358 117.777 178.124 114.872 177.252 113.616L172.332 113.601Z" fill="#263238"/>
<path d="M178.767 121.539C178.458 122.577 177.749 123.451 176.796 123.967C175.53 124.643 174.588 123.583 174.678 122.225C174.769 121.019 175.524 119.178 176.926 119.076C178.327 118.974 179.131 120.258 178.767 121.539Z" fill="#E4897B"/>
<path d="M168.463 125.566C168.815 126.047 169.259 126.992 169.259 126.992C169.352 126.968 169.445 126.943 169.536 126.913C170.788 126.546 171.247 125.962 171.377 125.426C171.447 125.133 171.415 124.851 171.359 124.63C171.297 124.373 171.195 124.205 171.195 124.205C170.647 124.796 169.507 125.228 168.887 125.434C168.629 125.522 168.463 125.566 168.463 125.566Z" fill="#263238"/>
<path d="M168.887 125.434L169.133 125.849C170.311 125.5 171.094 125.096 171.358 124.63C171.296 124.374 171.194 124.205 171.194 124.205C170.647 124.796 169.506 125.228 168.887 125.434Z" fill="white"/>
<path d="M169.535 126.914C170.787 126.547 171.247 125.963 171.376 125.427C170.955 125.568 170.462 125.786 170.067 126.11C169.764 126.356 169.613 126.644 169.535 126.914Z" fill="#DE5753"/>
<path d="M174.884 120.571L174.324 120.245C174.324 120.245 174.675 122.534 173.95 123.177C173.95 123.177 171.427 123.445 170.548 123.683C169.669 123.921 169.142 124.932 169.142 124.932C169.142 124.932 167.169 124.509 166.31 125.992C166.31 125.992 165.22 125.082 164.666 123.701C164.666 123.701 164.73 127.886 167.077 130.116C169.423 132.347 173.256 131.239 175.032 129.494C176.807 127.75 174.884 120.571 174.884 120.571ZM173.224 127.176C172.451 128.219 171.126 128.005 170.554 127.01L169.769 127.439C169.769 127.439 170.632 128.168 169.977 128.836C169.322 129.505 167.294 129.268 167.09 127.338C166.88 125.35 169.323 125.189 169.323 125.189C169.323 125.189 170.137 124.243 171.657 124.232C173.177 124.22 173.997 126.133 173.224 127.176Z" fill="#263238"/>
<path d="M172.327 115.511C172.327 115.511 162.808 118.759 163.907 112.342C163.907 112.342 169.041 109.315 173.52 110.163C177.998 111.01 177.646 115.65 177.646 115.65L172.327 115.511Z" fill="#263238"/>
<path d="M191.325 148.085C190.751 146.258 187.621 136.519 185.758 135.54C185.758 135.54 184.425 136.621 183.154 139.209C181.883 141.797 181.609 146.985 181.609 146.985L182.432 148.085H191.325Z" fill="#407BFF"/>
<path opacity="0.2" d="M191.325 148.085C190.751 146.258 187.621 136.519 185.758 135.54C185.758 135.54 184.425 136.621 183.154 139.209C181.883 141.797 181.609 146.985 181.609 146.985L182.432 148.085H191.325Z" fill="white"/>
<path opacity="0.6" d="M241.852 107.214H195.209V148.085H241.852V107.214Z" fill="white"/>
<path d="M206.917 148.085C208.681 146.375 209.909 145.018 209.909 145.018L209.263 135.093C207.176 136.201 200.439 145.39 197.938 148.085H206.917Z" fill="#263238"/>
<path opacity="0.3" d="M206.917 148.085C208.681 146.375 209.909 145.018 209.909 145.018L209.263 135.093C207.176 136.201 200.439 145.39 197.938 148.085H206.917Z" fill="white"/>
<path opacity="0.2" d="M206.913 148.085C208.677 146.376 209.908 145.02 209.908 145.02L209.758 142.663L209.014 140.377C209.014 140.377 205.861 143.299 206.456 148.085H206.913Z" fill="black"/>
<path d="M228.035 122.201C227.551 124.053 230.194 129.16 229.122 138.45C228.051 147.74 217.862 147.174 213.283 144.076C208.704 140.979 209.497 124.172 211.071 120.858C212.646 117.544 228.035 122.201 228.035 122.201Z" fill="#263238"/>
<path d="M227.308 148.085C227.647 146.812 228.049 145.423 228.53 143.877C228.875 142.771 229.256 141.585 229.682 140.306C230.002 139.338 230.346 138.308 230.727 137.223C228.45 136.498 226.132 135.935 223.779 135.544C221.299 135.103 218.783 134.839 216.263 134.753C213.007 134.728 209.264 135.093 209.264 135.093C209.264 135.093 208.732 135.219 208.397 138.673C208.219 140.566 208.044 143.568 208.062 148.084H227.308V148.085Z" fill="#263238"/>
<path opacity="0.3" d="M227.308 148.085C227.647 146.812 228.049 145.423 228.53 143.877C228.875 142.771 229.256 141.585 229.682 140.306C230.002 139.338 230.346 138.308 230.727 137.223C228.45 136.498 226.132 135.935 223.779 135.544C221.299 135.103 218.783 134.839 216.263 134.753C213.007 134.728 209.264 135.093 209.264 135.093C209.264 135.093 208.732 135.219 208.397 138.673C208.219 140.566 208.044 143.568 208.062 148.084H227.308V148.085Z" fill="white"/>
<path d="M219.268 134.272C221.275 134.392 224.49 134.372 226.571 137.585H222.761L224.837 140.119C224.837 140.119 218.166 141.709 216.079 146.083C216.079 146.083 213.092 140.898 211.467 139.693C211.467 139.693 213.029 138.094 214.849 137.224C214.849 137.224 213.293 136.521 211.467 136.224C211.467 136.224 216.552 134.109 219.268 134.272Z" fill="white"/>
<path d="M223.01 136.16C223.01 136.16 217.845 141.984 216.254 144.795C216.254 144.795 214.997 140.207 216.47 135.472L223.01 136.16Z" fill="#407BFF"/>
<path opacity="0.6" d="M223.01 136.16C223.01 136.16 217.845 141.984 216.254 144.795C216.254 144.795 214.997 140.207 216.47 135.472L223.01 136.16Z" fill="white"/>
<path d="M217.643 138.45C221.768 137.922 223.008 136.16 223.008 136.16C220.391 133.69 222.565 129.411 222.565 129.411L217.6 130.338C217.73 131.158 217.785 131.847 217.793 132.428C217.831 135.442 216.468 135.472 216.468 135.472C215.597 137.104 217.643 138.45 217.643 138.45Z" fill="#EEC1BB"/>
<path opacity="0.2" d="M217.6 130.338C217.73 131.158 217.786 131.847 217.793 132.428C221.148 132.428 222.565 129.411 222.565 129.411L217.6 130.338Z" fill="black"/>
<path d="M220.345 116.453C216.029 116.217 214.513 118.452 213.953 122.883C213.253 128.42 214.269 132.437 219.732 131.545C227.15 130.334 227.514 116.846 220.345 116.453Z" fill="#EEC1BB"/>
<path d="M216.756 122.794C216.756 122.794 216.097 123.889 215.402 124.516C215.402 124.516 215.739 125.123 216.513 125.066L216.756 122.794Z" fill="#D4827D"/>
<path d="M219.419 122.586C219.392 122.94 219.56 123.242 219.796 123.26C220.032 123.279 220.246 123.007 220.274 122.653C220.302 122.299 220.133 121.997 219.897 121.978C219.66 121.96 219.446 122.232 219.419 122.586Z" fill="#263238"/>
<path d="M219.993 122.003L219.246 121.64C219.246 121.64 219.579 122.319 219.993 122.003Z" fill="#263238"/>
<path d="M215.022 122.167C214.995 122.522 215.164 122.824 215.4 122.842C215.636 122.861 215.85 122.589 215.878 122.235C215.905 121.881 215.736 121.578 215.5 121.56C215.264 121.541 215.05 121.814 215.022 122.167Z" fill="#263238"/>
<path d="M215.596 121.584L214.85 121.222C214.85 121.222 215.182 121.9 215.596 121.584Z" fill="#263238"/>
<path d="M219.625 119.608C219.625 119.608 220.846 119.516 221.461 120.362" stroke="#263238" stroke-width="0.6862" stroke-miterlimit="10" stroke-linecap="round" stroke-linejoin="round"/>
<path d="M216.498 119.253C216.498 119.253 215.751 118.929 214.758 119.514" stroke="#263238" stroke-width="0.6862" stroke-miterlimit="10" stroke-linecap="round" stroke-linejoin="round"/>
<path d="M217.049 126.799C217.27 127.333 217.471 128.325 217.471 128.325C217.564 128.323 217.657 128.321 217.75 128.315C219.013 128.256 219.58 127.812 219.825 127.337C219.959 127.077 219.993 126.804 219.991 126.584C219.992 126.328 219.934 126.146 219.934 126.146C219.283 126.577 218.109 126.721 217.479 126.773C217.216 126.796 217.049 126.799 217.049 126.799Z" fill="#263238"/>
<path d="M217.479 126.772L217.615 127.219C218.805 127.161 219.635 126.961 219.99 126.584C219.991 126.328 219.934 126.146 219.934 126.146C219.282 126.576 218.109 126.721 217.479 126.772Z" fill="white"/>
<path d="M217.75 128.314C219.013 128.256 219.58 127.812 219.825 127.337C219.396 127.374 218.882 127.466 218.435 127.68C218.093 127.842 217.885 128.079 217.75 128.314Z" fill="#DE5753"/>
<path d="M224.664 123.987C224.664 123.987 222.84 120.33 223.296 117.608C223.296 117.608 214.933 113.645 214.035 122.305C214.035 122.305 213.622 114.549 221.052 114.784C228.469 115.018 227.855 125.872 223.846 128.897C223.846 128.897 225.791 126.273 224.664 123.987Z" fill="#263238"/>
<path d="M223.91 124.859C223.977 124.166 224.758 123.029 226.043 123.241C227.373 123.46 227.86 126.241 224.496 126.719C224.014 126.787 223.771 126.306 223.91 124.859Z" fill="#EEC1BB"/>
<path d="M222.146 117.177C222.146 117.177 221.461 122.503 224.663 127.337C227.092 131.004 224.301 134.218 224.301 134.218C224.301 134.218 230.063 132.23 227.55 124.053C227.55 124.053 230.259 116.746 224.932 114.779C224.932 114.779 224.902 112.551 220.083 112.975C215.264 113.399 211.381 117.529 210.645 122.795C209.909 128.06 212.653 133.931 212.653 133.931C212.653 133.931 209.735 115.273 222.146 117.177Z" fill="#263238"/>
<path d="M222.413 117.262C222.073 118.463 222.005 119.802 222.057 121.092C222.128 122.393 222.341 123.69 222.681 124.955C223.014 126.222 223.5 127.449 224.128 128.602C224.769 129.741 225.546 130.835 226.572 131.669C225.516 130.871 224.695 129.799 224.006 128.672C223.332 127.531 222.795 126.305 222.411 125.033C222.022 123.763 221.758 122.451 221.638 121.12C221.542 119.784 221.547 118.449 221.879 117.093L222.413 117.262Z" fill="#263238"/>
<path opacity="0.2" d="M227.311 148.085C227.384 147.817 227.456 147.549 227.534 147.27C227.015 145.443 226.478 146.871 226.478 146.871C226.478 146.871 226.371 147.315 226.287 148.085L227.311 148.085Z" fill="black"/>
<path d="M234.596 148.085C232.645 142.888 230.727 137.223 230.727 137.223C226.73 138.8 226.512 146.982 226.512 146.982C226.512 146.982 226.745 147.398 227.134 148.084H234.596V148.085Z" fill="#263238"/>
<path opacity="0.3" d="M234.596 148.085C232.645 142.888 230.727 137.223 230.727 137.223C226.73 138.8 226.512 146.982 226.512 146.982C226.512 146.982 226.745 147.398 227.134 148.084H234.596V148.085Z" fill="white"/>
<path opacity="0.5" d="M146.423 107.214H99.7793V148.085H146.423V107.214Z" fill="white"/>
<path d="M123.742 113.859L119.061 118.546H118.092V113.859H123.742Z" fill="white"/>
<path d="M124.723 115.259V118.546H121.436L124.723 115.259Z" fill="white"/>
<path d="M127.085 118.093L125.312 117.533V114.948L127.085 114.388V118.093Z" fill="white"/>
<path d="M122.588 122.563C126.101 122.563 128.948 119.715 128.948 116.203C128.948 112.69 126.101 109.843 122.588 109.843C119.076 109.843 116.229 112.69 116.229 116.203C116.229 119.715 119.076 122.563 122.588 122.563Z" stroke="white" stroke-miterlimit="10"/>
<path d="M127.086 111.706L118.092 120.7" stroke="white" stroke-miterlimit="10"/>
<path d="M46.8986 222.77L60.7782 221.406V201.9H66.2791V221.4L80.2147 222.77C81.5979 222.906 82.6529 224.069 82.6529 225.459V227.544H64.0671H63.0473H44.4609V225.459C44.4609 224.069 45.5154 222.906 46.8986 222.77Z" fill="#263238"/>
<path opacity="0.3" d="M46.8986 222.77L60.7782 221.406V201.9H66.2791V221.4L80.2147 222.77C81.5979 222.906 82.6529 224.069 82.6529 225.459V227.544H64.0671H63.0473H44.4609V225.459C44.4609 224.069 45.5154 222.906 46.8986 222.77Z" fill="white"/>
<path d="M77.5879 230.129C77.5879 232.115 79.1979 233.725 81.1842 233.725C83.1705 233.725 84.7805 232.115 84.7805 230.129C84.7805 228.142 83.1705 226.532 81.1842 226.532C79.1979 226.532 77.5879 228.142 77.5879 230.129Z" fill="#407BFF"/>
<path d="M49.5266 230.129C49.5266 232.115 47.9166 233.725 45.9303 233.725C43.944 233.725 42.334 232.115 42.334 230.129C42.334 228.142 43.944 226.532 45.9303 226.532C47.9166 226.532 49.5266 228.142 49.5266 230.129Z" fill="#407BFF"/>
<path d="M62.1451 206.093H64.911C66.1894 206.093 67.2254 205.057 67.2254 203.778V188.719H59.8301V203.778C59.8306 205.057 60.8666 206.093 62.1451 206.093Z" fill="#263238"/>
<path opacity="0.5" d="M62.1451 206.093H64.911C66.1894 206.093 67.2254 205.057 67.2254 203.778V188.719H59.8301V203.778C59.8306 205.057 60.8666 206.093 62.1451 206.093Z" fill="white"/>
<path d="M50.3787 158.23C50.3787 158.23 49.3304 184.241 56.5723 188.719H48.3045C48.3045 188.719 41.8986 179.858 43.7091 158.23H50.3787Z" fill="#263238"/>
<path opacity="0.5" d="M50.3787 158.23C50.3787 158.23 49.3304 184.241 56.5723 188.719H48.3045C48.3045 188.719 41.8986 179.858 43.7091 158.23H50.3787Z" fill="white"/>
<path d="M79.7418 185.082H48.2883C46.7421 185.082 45.4883 186.336 45.4883 187.882V190.713H82.5418V187.882C82.5418 186.335 81.288 185.082 79.7418 185.082Z" fill="#407BFF"/>
<path d="M82.9597 187.897H45.0695C44.4474 187.897 43.9434 188.402 43.9434 189.023V189.586C43.9434 190.208 44.4479 190.712 45.0695 190.712H82.9597C83.5818 190.712 84.0858 190.208 84.0858 189.586V189.023C84.0858 188.402 83.5813 187.897 82.9597 187.897Z" fill="#407BFF"/>
<path opacity="0.6" d="M82.9597 187.897H45.0695C44.4474 187.897 43.9434 188.402 43.9434 189.023V189.586C43.9434 190.208 44.4479 190.712 45.0695 190.712H82.9597C83.5818 190.712 84.0858 190.208 84.0858 189.586V189.023C84.0858 188.402 83.5813 187.897 82.9597 187.897Z" fill="white"/>
<path d="M42.8233 163.515H53.7842C58.2944 163.515 61.9512 159.859 61.9512 155.348V152.453C61.9512 147.942 58.2944 144.286 53.7842 144.286H42.8233C38.3131 144.286 34.6562 147.942 34.6562 152.453V155.348C34.6568 159.859 38.3131 163.515 42.8233 163.515Z" fill="#407BFF"/>
<path d="M77.6368 140.292C79.1197 140.901 87.5365 151.638 87.7599 153.9C88.0304 156.641 85.2494 157.165 82.2215 156.454C79.1936 155.744 81.4829 152.77 81.4829 152.77L76.8203 146.241L77.6368 140.292Z" fill="#263238"/>
<path d="M76.296 167.024H65.6621C65.6621 167.024 67.7111 152.972 68.0438 152.771C68.3759 152.569 75.8216 152.071 75.8216 152.071V159.905L76.296 167.024Z" fill="#263238"/>
<path d="M64.1657 136.478C64.5533 136.396 68.6099 134.721 70.8185 136.417C73.0272 138.113 75.5097 143.763 71.5544 145.812C67.5991 147.861 62.5557 146.791 61.9504 143.707C61.345 140.623 64.1657 136.478 64.1657 136.478Z" fill="#263238"/>
<path d="M61.0017 123.807C61.0017 123.807 58.3355 129.953 60.2026 132.252C62.0696 134.551 74.2272 136.35 76.3423 134.205C78.4574 132.059 75.6871 123.565 75.6871 123.565L61.0017 123.807Z" fill="#263238"/>
<path d="M108.814 214.131L105.647 214.894L104.043 210.521L102.588 206.544L106.195 205.004L107.583 209.831L108.814 214.131Z" fill="#E4897B"/>
<path opacity="0.2" d="M107.583 209.831L104.043 210.521L102.588 206.544L106.195 205.004L107.583 209.831Z" fill="black"/>
<path d="M107.263 207.523L102.87 209.156C102.87 209.156 91.1499 179.854 88.7414 179.752C86.3328 179.651 61.8087 190.923 55.6622 184.671C49.5156 178.423 58.4034 163.36 58.4034 163.36C58.4034 163.36 73.1874 161.25 74.3001 164.588C74.5168 165.234 74.7531 166.5 74.9262 167.584C75.0947 168.605 75.2106 169.463 75.2106 169.463C75.2106 169.463 75.2157 169.463 75.2202 169.458C75.6777 169.342 90.5194 165.512 96.3674 169.463C102.307 173.48 107.263 207.523 107.263 207.523Z" fill="#263238"/>
<path opacity="0.2" d="M107.263 207.523L102.87 209.156C102.87 209.156 91.1499 179.854 88.7414 179.752C86.3328 179.651 61.8087 190.923 55.6622 184.671C49.5156 178.423 58.4034 163.36 58.4034 163.36C58.4034 163.36 73.1874 161.25 74.3001 164.588C74.5168 165.234 74.7531 166.5 74.9262 167.584C75.0947 168.605 75.2106 169.463 75.2106 169.463C75.2106 169.463 75.2157 169.463 75.2202 169.458C75.6777 169.342 90.5194 165.512 96.3674 169.463C102.307 173.48 107.263 207.523 107.263 207.523Z" fill="white"/>
<path d="M81.996 226.63L78.8398 225.822L79.4469 221.294L80.0108 217.141L83.914 217.491L82.9004 222.33L81.996 226.63Z" fill="#E4897B"/>
<path opacity="0.2" d="M82.8746 222.427L79.4238 221.381L79.999 217.184L83.9078 217.513L82.8746 222.427Z" fill="black"/>
<path d="M101.057 207.531L107.455 205.356L107.729 207.977L102.876 209.693L101.057 207.531Z" fill="#263238"/>
<path d="M66.2793 186.174C66.2793 186.174 67.2806 186.197 82.787 185.475C82.787 185.475 80.4697 204.861 79.2052 219.374L83.842 220.164C83.842 220.164 94.9216 189.087 94.8012 184.15C94.6808 179.212 89.0209 177.767 89.0209 177.767C89.0209 177.767 77.9732 184.15 66.2793 186.174Z" fill="#263238"/>
<path opacity="0.1" d="M66.2793 186.174C66.2793 186.174 67.2806 186.197 82.787 185.475C82.787 185.475 80.4697 204.861 79.2052 219.374L83.842 220.164C83.842 220.164 94.9216 189.087 94.8012 184.15C94.6808 179.212 89.0209 177.767 89.0209 177.767C89.0209 177.767 77.9732 184.15 66.2793 186.174Z" fill="white"/>
<path d="M78.5294 217.968L84.9022 218.693L83.6729 221.191L78.5137 220.53L78.5294 217.968Z" fill="#263238"/>
<path opacity="0.3" d="M75.2114 169.463L66.5645 171.264C66.5645 171.264 71.3429 168.624 74.9269 167.584C75.0961 168.605 75.2114 169.463 75.2114 169.463Z" fill="black"/>
<path d="M58.7624 161.062L58.4062 163.362L74.3024 164.587L74.723 161.868L58.7624 161.062Z" fill="#263238"/>
<path opacity="0.2" d="M58.7624 161.062L58.4062 163.362L74.3024 164.587L74.723 161.868L58.7624 161.062Z" fill="black"/>
<path d="M64.1859 160.919L63.4004 160.838L62.989 164.838L63.7745 164.919L64.1859 160.919Z" fill="#263238"/>
<path d="M71.008 161.857L67.5254 161.633L67.3557 164.274L70.8383 164.498L71.008 161.857Z" fill="white"/>
<path d="M73.9495 161.349L73.1641 161.268L72.7527 165.268L73.5382 165.349L73.9495 161.349Z" fill="#263238"/>
<path opacity="0.2" d="M64.1859 160.919L63.4004 160.838L62.989 164.838L63.7745 164.919L64.1859 160.919Z" fill="white"/>
<path opacity="0.2" d="M73.9495 161.349L73.1641 161.268L72.7527 165.268L73.5382 165.349L73.9495 161.349Z" fill="white"/>
<path d="M76.5973 139.944C76.5973 139.944 72.8705 137.338 67.7706 137.076C62.6707 136.814 58.0859 139.623 58.0859 139.623L58.7619 161.062L74.723 161.867C74.7219 161.867 79.7529 147.567 76.5973 139.944Z" fill="#407BFF"/>
<path d="M75.8175 125.621C75.8175 125.621 78.1207 115.264 68.5397 116.288C56.5131 117.575 61.0822 132.5 67.0434 131.596C73.0046 130.693 75.8175 125.621 75.8175 125.621Z" fill="#263238"/>
<path opacity="0.2" d="M73.8397 139.492L74.1258 144.003L70.6633 140.902C70.6633 140.902 70.4321 143.154 69.6301 146.865C69.6301 146.865 69.4084 144.372 68.0056 141.263L64.7374 144.594L62.5977 139.492C62.5977 139.492 69.1502 134.741 73.8397 139.492Z" fill="black"/>
<path d="M69.4812 143.153L67.7547 138.907L64.5801 137.487C67.3958 135.549 65.9762 131.216 65.9762 131.216L70.5026 132.807C70.2607 133.559 70.109 134.197 70.0171 134.742C69.5439 137.565 70.819 137.791 70.819 137.791L69.9438 139.055L69.4812 143.153Z" fill="#E4897B"/>
<path opacity="0.2" d="M70.503 132.807C70.2611 133.558 70.1094 134.196 70.0175 134.741C67.8509 133.873 65.9766 131.215 65.9766 131.215L70.503 132.807Z" fill="black"/>
<path d="M70.6624 119.279C74.7538 119.631 75.8822 121.934 75.82 126.175C75.7422 131.476 74.252 135.119 69.2333 133.554C62.417 131.429 63.8679 118.695 70.6624 119.279Z" fill="#E4897B"/>
<path d="M73.1931 125.719C73.1931 125.719 73.6679 126.837 74.2375 127.519C74.2375 127.519 73.8393 128.045 73.1191 127.889L73.1931 125.719Z" fill="#DE5753"/>
<path d="M70.7192 125.17C70.6979 125.507 70.4991 125.768 70.2745 125.755C70.05 125.741 69.8853 125.456 69.9061 125.12C69.9273 124.783 70.1261 124.522 70.3507 124.536C70.5753 124.549 70.7405 124.833 70.7192 125.17Z" fill="#263238"/>
<path d="M70.2559 124.545L71.0063 124.304C71.0063 124.304 70.6031 124.897 70.2559 124.545Z" fill="#263238"/>
<path d="M74.9087 125.361C74.8874 125.698 74.6886 125.96 74.4641 125.946C74.2395 125.932 74.0743 125.647 74.0956 125.311C74.1169 124.974 74.3157 124.712 74.5402 124.726C74.7642 124.74 74.9294 125.024 74.9087 125.361Z" fill="#263238"/>
<path d="M74.4453 124.736L75.1957 124.495C75.1957 124.495 74.7925 125.088 74.4453 124.736Z" fill="#263238"/>
<path d="M70.9191 122.341C70.9191 122.341 69.7823 122.093 69.0918 122.807" stroke="#263238" stroke-width="0.7247" stroke-miterlimit="10" stroke-linecap="round" stroke-linejoin="round"/>
<path d="M73.9082 122.424C73.9082 122.424 74.6536 122.218 75.5098 122.9" stroke="#263238" stroke-width="0.7247" stroke-miterlimit="10" stroke-linecap="round" stroke-linejoin="round"/>
<path d="M65.5975 125.79C65.5975 125.79 67.7989 122.593 67.7322 119.973C67.7322 119.973 76.1238 117.357 75.8175 125.621C75.8175 125.621 77.2377 118.382 70.2186 117.615C63.2108 116.849 62.3456 127.14 65.7146 130.517C65.7146 130.517 64.2339 127.79 65.5975 125.79Z" fill="#263238"/>
<path d="M66.192 126.711C66.2211 126.05 65.637 124.877 64.4005 124.905C63.1209 124.935 62.2933 127.486 65.3928 128.382C65.838 128.51 66.1309 128.09 66.192 126.711Z" fill="#E4897B"/>
<path d="M73.3505 129.557C73.0565 130.02 72.707 130.916 72.707 130.916C72.6202 130.9 72.5329 130.882 72.4472 130.861C71.2745 130.6 70.8165 130.092 70.6647 129.608C70.5824 129.342 70.5953 129.082 70.6328 128.875C70.6737 128.636 70.7571 128.475 70.7571 128.475C71.2964 128.984 72.3705 129.311 72.9517 129.462C73.1948 129.528 73.3505 129.557 73.3505 129.557Z" fill="#263238"/>
<path d="M72.9518 129.461L72.7518 129.857C71.6481 129.609 70.9039 129.286 70.6328 128.875C70.6737 128.635 70.7571 128.474 70.7571 128.474C71.2959 128.984 72.3705 129.311 72.9518 129.461Z" fill="white"/>
<path d="M72.4465 130.861C71.2739 130.6 70.8158 130.092 70.6641 129.608C71.06 129.712 71.5265 129.881 71.9089 130.155C72.2024 130.363 72.3592 130.618 72.4465 130.861Z" fill="#DE5753"/>
<path d="M70.5502 119.58C70.5502 119.58 68.3237 126.17 64.0923 125.72C59.861 125.27 67.1342 117.308 67.1342 117.308C67.1342 117.308 74.2759 115.292 77.3733 119.259C80.4706 123.226 75.8176 125.621 75.8176 125.621C75.8176 125.621 76.5266 120.43 70.5502 119.58Z" fill="#263238"/>
<path d="M70.5509 119.099C70.5509 119.099 70.6562 123.738 67.1641 125.063" stroke="#263238" stroke-width="0.5" stroke-miterlimit="10" stroke-linecap="round" stroke-linejoin="round"/>
<path d="M65.8051 135.83L67.7545 138.907L65.3106 143.153L63.541 137.703L65.8051 135.83Z" fill="#407BFF"/>
<path d="M69.9453 136.418V139.055L72.8299 142.241L71.888 137.666L69.9453 136.418Z" fill="#407BFF"/>
<path d="M114.059 220.283C113.578 220.062 113.06 219.93 112.53 219.895C112.53 219.895 110.701 218.818 108.888 214.635L106.849 214.623C106.142 214.631 105.517 215.079 105.282 215.745C105.249 215.836 105.229 215.931 105.225 216.027C105.245 216.52 105.297 217.011 105.381 217.497C105.565 219.022 106.574 222.294 106.574 222.294L106.919 222.206L106.291 219.163C106.082 218.13 107.168 219.128 107.672 220.171C108.175 221.213 108.949 222.262 111.2 221.748C113.824 221.133 114.882 220.755 114.059 220.283Z" fill="#263238"/>
<path d="M108.519 213.539C108.519 213.539 111.064 218.867 112.53 219.895C112.53 219.895 110.565 221.067 108.519 218.459C105.872 215.085 105.225 216.028 105.225 216.028C105.225 216.028 105.337 214.874 105.543 214.309C105.941 213.22 108.519 213.539 108.519 213.539Z" fill="#E4897B"/>
<path d="M86.0127 232.978C85.5972 232.649 85.1251 232.398 84.6194 232.238C84.6194 232.238 83.0974 230.758 82.3279 226.264L80.35 225.769C79.6623 225.609 78.9483 225.897 78.5619 226.488C78.5082 226.568 78.4662 226.656 78.4387 226.748C78.3418 227.231 78.2763 227.721 78.2427 228.213C78.0591 229.738 78.2629 233.156 78.2629 233.156L78.6196 233.153L78.7311 230.048C78.7736 228.994 79.5918 230.222 79.8337 231.354C80.0756 232.486 80.5779 233.689 82.8879 233.723C85.5832 233.748 86.6998 233.631 86.0127 232.978Z" fill="#263238"/>
<path d="M82.2301 225.112C82.2301 225.112 83.4397 230.891 84.6202 232.238C84.6202 232.238 82.4328 232.911 81.0631 229.891C79.2923 225.986 78.4395 226.748 78.4395 226.748C78.4395 226.748 78.8219 225.653 79.1568 225.153C79.8014 224.19 82.2301 225.112 82.2301 225.112Z" fill="#E4897B"/>
<path d="M63.0279 137.453C63.0279 137.453 67.9962 152.208 60.9979 168.963L54.1973 168.077L58.4051 158.538L57.4833 139.361L63.0279 137.453Z" fill="#263238"/>
<path d="M72.4473 137.977C72.4473 137.977 74.7225 141.641 74.4465 152.77L75.8218 168.52L77.1389 167.584L76.0615 159.904C76.0615 159.904 78.9332 146.379 77.6385 140.292L72.4473 137.977Z" fill="#263238"/>
<path d="M70.8203 136.418C70.8203 136.418 74.6793 138.446 76.651 141.215L75.2107 142.545L77.1394 145.369L74.4474 152.771C74.4474 152.771 72.9875 138.876 70.8203 136.418Z" fill="#263238"/>
<path opacity="0.2" d="M70.8203 136.418C70.8203 136.418 74.6793 138.446 76.651 141.215L75.2107 142.545L77.1394 145.369L74.4474 152.771C74.4474 152.771 72.9875 138.876 70.8203 136.418Z" fill="white"/>
<path d="M64.1669 136.478C64.1669 136.478 65.9359 146.587 64.5807 153.565L60.3455 143.972L62.7703 141.641L59.5391 139.331C59.5391 139.331 61.4531 137.28 64.1669 136.478Z" fill="#263238"/>
<path opacity="0.2" d="M64.1669 136.478C64.1669 136.478 65.9359 146.587 64.5807 153.565L60.3455 143.972L62.7703 141.641L59.5391 139.331C59.5391 139.331 61.4531 137.28 64.1669 136.478Z" fill="white"/>
<path d="M69.1783 154.243L74.9082 154.642C74.9082 154.642 75.7107 154.107 76.4085 153.94C77.1056 153.773 81.1813 153.326 81.9161 153.616C82.6508 153.906 83.3194 156.312 83.2522 156.813C83.1856 157.314 77.0273 157.478 76.8324 157.496C76.6375 157.515 75.9392 156.86 75.9392 156.86L69.1777 156.794L69.1783 154.243Z" fill="#E4897B"/>
<path d="M57.4836 139.361C53.7545 141.602 51.7234 153.67 54.1975 155.557C56.6716 157.443 73.6799 157.497 73.6799 157.497L74.2388 153.901C74.2388 153.901 59.6295 152.44 58.8869 151.019C58.1444 149.597 58.4053 144.003 58.4053 144.003L57.4836 139.361Z" fill="#263238"/>
<path d="M123.447 233.725H126.398L131.701 159.905H127.785L123.447 233.725Z" fill="#263238"/>
<path opacity="0.7" d="M123.445 233.725H126.398L131.442 163.571L131.701 160.023H127.785L127.573 163.571L123.445 233.725Z" fill="white"/>
<path opacity="0.2" d="M127.572 163.395H131.441L131.701 160.023H127.785L127.572 163.395Z" fill="black"/>
<path d="M101.789 233.725H104.74L105.222 159.905H101.307L101.789 233.725Z" fill="#263238"/>
<path opacity="0.7" d="M101.305 160.023L101.381 171.934L101.786 233.725H104.739L105.143 171.934L105.221 160.023H101.305Z" fill="white"/>
<path opacity="0.2" d="M101.305 160.023L101.381 172.066H105.143L105.221 160.023H101.305Z" fill="black"/>
<path d="M70.459 233.725H73.4096L78.7123 159.905H74.7967L70.459 233.725Z" fill="#263238"/>
<path opacity="0.7" d="M70.457 233.725H73.4094L78.4533 163.571L78.7131 160.023H74.797L74.5848 163.571L70.457 233.725Z" fill="white"/>
<path opacity="0.2" d="M74.584 163.395H78.4525L78.7123 160.023H74.7962L74.584 163.395Z" fill="black"/>
<path d="M157.206 233.725H160.158L155.819 159.905H151.904L157.206 233.725Z" fill="#263238"/>
<path opacity="0.7" d="M151.904 160.023L152.164 163.571L157.208 233.725H160.156L156.033 163.571L155.82 160.023H151.904Z" fill="white"/>
<path opacity="0.2" d="M155.82 160.023H151.904L152.164 163.395H156.033L155.82 160.023Z" fill="black"/>
<path d="M72.9041 161.753H157.712C158.38 161.753 158.922 161.211 158.922 160.542V158.056H71.6934V160.542C71.6934 161.211 72.2354 161.753 72.9041 161.753Z" fill="#407BFF"/>
<path opacity="0.6" d="M72.9041 161.753H157.712C158.38 161.753 158.922 161.211 158.922 160.542V158.056H71.6934V160.542C71.6934 161.211 72.2354 161.753 72.9041 161.753Z" fill="white"/>
<path opacity="0.2" d="M71.6929 159.905H158.922V158.056H71.6929V159.905Z" fill="black"/>
<path d="M69.8639 158.538H160.751C161.326 158.538 161.793 158.071 161.793 157.496C161.793 156.921 161.326 156.454 160.751 156.454H69.8639C69.2887 156.454 68.8223 156.921 68.8223 157.496C68.8228 158.071 69.2887 158.538 69.8639 158.538Z" fill="#407BFF"/>
<path opacity="0.6" d="M69.8639 158.538H160.751C161.326 158.538 161.793 158.071 161.793 157.496C161.793 156.921 161.326 156.454 160.751 156.454H69.8639C69.2887 156.454 68.8223 156.921 68.8223 157.496C68.8228 158.071 69.2887 158.538 69.8639 158.538Z" fill="white"/>
<path d="M123.478 156.454L123.003 154.658H103.469L94.4736 155.556L94.1309 156.454H123.478Z" fill="#263238"/>
<path opacity="0.4" d="M103.469 154.658V156.454H123.478L123.003 154.658H103.469Z" fill="black"/>
<path d="M107.392 146.057C107.305 147.006 107.999 147.777 108.943 147.777H138.867C139.817 147.777 140.654 147.006 140.741 146.057L142.519 126.899C142.538 126.702 142.524 126.514 142.48 126.341C142.311 125.666 141.719 125.18 140.967 125.18H111.044C110.095 125.18 109.257 125.95 109.17 126.899L107.392 146.057Z" fill="#263238"/>
<path opacity="0.4" d="M109.049 147.777H138.867C139.816 147.777 140.654 147.006 140.74 146.057L142.518 126.899C142.537 126.702 142.523 126.514 142.479 126.341H112.661C111.717 126.341 110.879 127.111 110.788 128.06L109.01 147.218C108.991 147.416 109.006 147.604 109.049 147.777Z" fill="black"/>
<path d="M129.607 136.027H123.416L125.067 153.751L115.277 155.22V156.455H135.895V155.22L131.671 153.751L129.607 136.027Z" fill="#263238"/>
<path opacity="0.1" d="M123.418 136.027L128.004 156.173L131.673 156.064L129.609 136.027H123.418Z" fill="white"/>
<path d="M126.722 123.88H125.531V125.957H126.722V123.88Z" fill="#263238"/>
<path d="M125.53 123.796H124.091C124.091 123.796 123.883 123.45 123.883 122.855C123.883 122.232 124.091 121.914 124.091 121.914H125.53V123.796Z" fill="#263238"/>
<path d="M127.985 122.772C127.985 123.73 127.208 124.508 126.249 124.508C125.29 124.508 124.514 123.731 124.514 122.772C124.514 121.814 125.29 121.037 126.249 121.037C127.207 121.037 127.985 121.813 127.985 122.772Z" fill="#263238"/>
<path opacity="0.1" d="M127.985 122.772C127.985 123.73 127.208 124.508 126.249 124.508C125.29 124.508 124.514 123.731 124.514 122.772C124.514 121.814 125.29 121.037 126.249 121.037C127.207 121.037 127.985 121.813 127.985 122.772Z" fill="white"/>
<path d="M147.408 143.076V156.454H140.738C140.738 150.328 142.071 144.873 142.681 142.706C142.849 142.118 143.381 141.715 143.992 141.715H146.047C146.797 141.714 147.408 142.325 147.408 143.076Z" fill="#263238"/>
<path opacity="0.4" d="M147.408 143.075V156.453H144.07V143.567C144.07 142.544 144.9 141.714 145.923 141.714H146.047C146.799 141.714 147.408 142.324 147.408 143.075Z" fill="black"/>
<path d="M104.847 143.076V156.454H98.1777C98.1777 150.328 99.5105 144.873 100.121 142.706C100.289 142.118 100.821 141.715 101.431 141.715H103.487C104.237 141.714 104.847 142.325 104.847 143.076Z" fill="#263238"/>
<path opacity="0.4" d="M104.847 143.075V156.453H101.51V143.567C101.51 142.544 102.34 141.714 103.363 141.714H103.487C104.238 141.714 104.847 142.324 104.847 143.075Z" fill="black"/>
</svg>
