<svg width="48" height="48" viewBox="0 0 48 48" fill="none" xmlns="http://www.w3.org/2000/svg">
<path d="M18.5942 8.91831C20.5276 3.91611 21.4944 1.415 23.065 1.06836C23.478 0.977213 23.9048 0.977213 24.3178 1.06836C25.8884 1.415 26.8552 3.91611 28.7887 8.91831C29.8882 11.763 30.438 13.1853 31.4667 14.1527C31.7552 14.4241 32.0684 14.6657 32.4019 14.8743C33.5909 15.618 35.0751 15.756 38.0436 16.0318C43.0688 16.4989 45.5813 16.7324 46.3486 18.2191C46.5075 18.527 46.6156 18.8604 46.6683 19.2054C46.9226 20.8711 45.0755 22.6151 41.3813 26.103L40.3554 27.0716C38.6283 28.7023 37.7647 29.5176 37.2652 30.5351C36.9656 31.1455 36.7647 31.8028 36.6706 32.4809C36.5137 33.6111 36.7665 34.7939 37.2723 37.1595L37.453 38.0048C38.36 42.2471 38.8135 44.3683 38.2474 45.4109C37.7389 46.3474 36.8022 46.947 35.7675 46.9983C34.6157 47.0554 32.9926 45.6829 29.7465 42.9379C27.6078 41.1293 26.5385 40.2251 25.3514 39.8718C24.2666 39.549 23.1162 39.549 22.0314 39.8718C20.8443 40.2251 19.775 41.1293 17.6363 42.9379C14.3902 45.6829 12.7672 47.0554 11.6153 46.9983C10.5806 46.947 9.64394 46.3474 9.13544 45.4109C8.56933 44.3683 9.02283 42.2471 9.92982 38.0048L10.1105 37.1595C10.6163 34.7939 10.8692 33.6111 10.7122 32.4809C10.6181 31.8028 10.4172 31.1455 10.1176 30.5351C9.61807 29.5176 8.75451 28.7023 7.0274 27.0716L6.00153 26.103C2.3073 22.6151 0.460181 20.8711 0.714556 19.2054C0.767239 18.8604 0.875282 18.527 1.03419 18.2191C1.80147 16.7324 4.31404 16.4989 9.33919 16.0318C12.3077 15.756 13.7919 15.618 14.9809 14.8743C15.3144 14.6657 15.6276 14.4241 15.9162 14.1527C16.9449 13.1853 17.4946 11.763 18.5942 8.91831Z" fill="#ED893E" stroke="#273B4A"/>
</svg>
