<svg width="56" height="57" viewBox="0 0 56 57" fill="none" xmlns="http://www.w3.org/2000/svg">
<g clip-path="url(#clip0_560_25537)">
<path d="M12.0481 44.3005C12.1034 42.8691 12.0204 42.8138 12.2279 41.3962C12.4768 39.7091 12.5598 38.4091 13.6454 36.9846C14.7656 35.5118 16.1555 34.7581 18.2438 34.3501C19.3916 34.1288 21.5559 33.7347 22.6484 33.3682C23.741 33.0017 25.4696 31.6396 23.7686 29.731C22.1367 27.9055 20.3251 25.278 20.3597 21.9381C20.3804 19.836 21.134 17.7477 22.6761 16.1712C25.283 13.502 29.7292 12.4372 33.4078 13.6957C39.5067 15.784 39.23 24.4067 35.8349 27.546C33.7328 29.4891 32.3983 30.2151 32.4743 31.3491C32.5504 32.4831 33.1658 33.1331 34.3413 33.548C35.1642 33.8384 36.07 33.8245 36.9344 33.9767C39.6449 34.4469 43.6832 36.0788 44.1327 38.5543C44.6305 41.2926 44.6996 42.4818 44.6374 44.2936L12.0481 44.3005Z" fill="#9A9EF5"/>
<path d="M17.6766 33.0163C17.1373 32.8435 16.591 32.6983 16.0447 32.5807C15.6368 32.4978 15.2219 32.4217 14.8623 32.1935C14.5028 31.9653 14.2054 31.5366 14.2124 31.0595C14.2262 30.4855 14.6549 30.0707 15.0214 29.6766C15.948 28.667 16.6325 27.3117 16.7639 25.8458C16.8952 24.3798 16.4112 22.8171 15.4017 21.9182C14.482 21.1023 13.2235 20.9086 12.0964 21.2059" stroke="#011C67" stroke-width="2.38959" stroke-miterlimit="10" stroke-linecap="round" stroke-linejoin="round"/>
<path d="M12.7325 21.1576C11.2804 21.2544 9.85597 22.1602 9.09537 23.5985C8.33474 25.0367 8.31399 26.9867 9.12302 28.3835C9.35813 28.7915 9.65546 29.1511 9.89055 29.559C10.1188 29.9739 10.2847 30.4718 10.1948 30.9488C10.1049 31.4468 9.7661 31.8478 9.37887 32.0829C8.99164 32.318 8.55601 32.4217 8.12038 32.5324C7.09008 32.7951 5.99755 33.1478 5.30606 34.0743C4.55235 35.0839 4.44864 36.5222 4.41406 37.8567C4.41406 37.9743 4.41406 38.1056 4.49012 38.1817C4.54545 38.237 4.62151 38.244 4.69065 38.244C6.44009 38.3753 8.18952 38.4238 9.93898 38.4168" stroke="#011C67" stroke-width="2.38959" stroke-miterlimit="10" stroke-linecap="round" stroke-linejoin="round"/>
<path d="M46.6841 38.0641C48.3367 37.9881 49.9893 37.8843 51.642 37.7875C51.7319 37.7807 51.8218 37.7737 51.884 37.7045C51.9393 37.6423 51.9531 37.5524 51.96 37.4694C52.0361 36.7987 52.1122 36.1141 52.043 35.4434C51.9738 34.7658 51.7457 34.0951 51.2893 33.6249C50.8606 33.1823 50.2797 32.9749 49.7197 32.802C49.1457 32.6292 48.5649 32.4839 47.984 32.3663C47.5553 32.2833 47.1128 32.2073 46.7256 31.9792C46.3453 31.7509 46.0271 31.3222 46.041 30.8451C46.0548 30.2712 46.5181 29.8563 46.8984 29.4621C47.8872 28.4525 48.6133 27.0972 48.7447 25.6313C48.8761 24.1654 48.3713 22.6027 47.2995 21.7038C46.3245 20.8878 44.99 20.6942 43.7867 20.9916" stroke="#011C67" stroke-width="2.38959" stroke-miterlimit="10" stroke-linecap="round" stroke-linejoin="round"/>
<path d="M44.4782 20.9431C42.9293 21.04 41.4219 21.9458 40.6128 23.384C39.8039 24.8223 39.7762 26.7723 40.6405 28.1691C40.8895 28.577 41.2075 28.9366 41.4565 29.3446C41.7054 29.7525 41.8713 30.2573 41.7815 30.7345C41.6916 31.2323 41.3251 31.6333 40.9171 31.8684C40.5092 32.1035 40.039 32.2073 39.5825 32.3179" stroke="#011C67" stroke-width="2.38959" stroke-miterlimit="10" stroke-linecap="round" stroke-linejoin="round"/>
</g>
<defs>
<clipPath id="clip0_560_25537">
<rect width="56" height="56" fill="white" transform="translate(0 0.885315)"/>
</clipPath>
</defs>
</svg>
